<svg height="512pt" viewBox="0 0 512.001 512" width="512pt" xmlns="http://www.w3.org/2000/svg" xmlns:xlink="http://www.w3.org/1999/xlink"><radialGradient id="a" cx="184.7214472156" cy="137.5376132156" gradientUnits="userSpaceOnUse" r="380.4785070162"><stop offset="0" stop-color="#ff6e3a"/><stop offset=".2336" stop-color="#ff6b3c"/><stop offset=".418" stop-color="#ff6143"/><stop offset=".5857" stop-color="#ff504e"/><stop offset=".7434" stop-color="#ff395e"/><stop offset=".8928" stop-color="#ff1b72"/><stop offset="1" stop-color="#ff0084"/></radialGradient><linearGradient id="b" gradientUnits="userSpaceOnUse" x1="256.00011" x2="256.00011" y1="320.0871755764" y2="545.639134454"><stop offset="0" stop-color="#8be1e2"/><stop offset=".1873" stop-color="#87e1e1"/><stop offset=".3558" stop-color="#7ce2dd"/><stop offset=".5172" stop-color="#6ae2d7"/><stop offset=".6741" stop-color="#50e4ce"/><stop offset=".8278" stop-color="#2fe5c2"/><stop offset=".9772" stop-color="#07e7b4"/><stop offset="1" stop-color="#00e7b2"/></linearGradient><linearGradient id="c" gradientUnits="userSpaceOnUse" x1="459.166816906" x2="85.501526935" y1="416.7542226032" y2="43.0890330244"><stop offset="0" stop-color="#ff0084" stop-opacity="0"/><stop offset=".0737" stop-color="#f4087e" stop-opacity=".07451"/><stop offset=".3347" stop-color="#d2216b" stop-opacity=".333333"/><stop offset=".583" stop-color="#ba335e" stop-opacity=".584314"/><stop offset=".8111" stop-color="#ab3d56" stop-opacity=".811765"/><stop offset="1" stop-color="#a64153"/></linearGradient><radialGradient id="d" cx="256.8652899796" cy="258.8287586662" gradientUnits="userSpaceOnUse" r="255.1351308048"><stop offset="0" stop-color="#ff685e"/><stop offset=".318" stop-color="#ff6a5e" stop-opacity=".682353"/><stop offset=".4954" stop-color="#ff725e" stop-opacity=".505882"/><stop offset=".6382" stop-color="#ff805d" stop-opacity=".360784"/><stop offset=".7626" stop-color="#ff945c" stop-opacity=".239216"/><stop offset=".875" stop-color="#ffad5b" stop-opacity=".12549"/><stop offset=".9774" stop-color="#ffcc59" stop-opacity=".023529"/><stop offset="1" stop-color="#ffd459" stop-opacity="0"/></radialGradient><radialGradient id="e" cx="255.120674328" cy="251.718380709" gradientUnits="userSpaceOnUse" r="177.574727282"><stop offset="0" stop-color="#e22b39"/><stop offset=".3282" stop-color="#e32c3c" stop-opacity=".670588"/><stop offset=".5566" stop-color="#e83145" stop-opacity=".443137"/><stop offset=".7547" stop-color="#ef3954" stop-opacity=".247059"/><stop offset=".9345" stop-color="#fa446a" stop-opacity=".066667"/><stop offset="1" stop-color="#ff4974" stop-opacity="0"/></radialGradient><radialGradient id="f" cx="214.2184826352" cy="146.6039324054" gradientUnits="userSpaceOnUse" r="162.6367694908"><stop offset="0" stop-color="#ffb400"/><stop offset=".224" stop-color="#ffb104"/><stop offset=".4255" stop-color="#ffa80f"/><stop offset=".6183" stop-color="#ff9921"/><stop offset=".8058" stop-color="#ff853b"/><stop offset=".9879" stop-color="#ff6a5c"/><stop offset="1" stop-color="#ff685e"/></radialGradient><linearGradient id="g" gradientUnits="userSpaceOnUse" x1="355.6744053778" x2="190.463077918" y1="439.9298623654" y2="274.7185349056"><stop offset=".0029" stop-color="#00e7b2" stop-opacity="0"/><stop offset=".376" stop-color="#61ac88" stop-opacity=".372549"/><stop offset=".8073" stop-color="#cc6c5a" stop-opacity=".807843"/><stop offset="1" stop-color="#f75247"/></linearGradient><linearGradient id="h" gradientTransform="matrix(1.003922 0 0 -1.003922 0 719.800519)" gradientUnits="userSpaceOnUse" x1="254.9888" x2="294.835" y1="367.9082" y2="367.9082"><stop offset="0" stop-color="#ecf7ff"/><stop offset="1" stop-color="#c2e0ff"/></linearGradient><path d="m512 256c0 141.386719-114.613281 256-256 256s-256-114.613281-256-256c0-141.382812 114.613281-256 256-256s256 114.617188 256 256zm0 0" fill="url(#a)"/><path d="m.0117188 256.875c.4726562 140.984375 114.8945312 255.125 255.9882812 255.125s255.515625-114.140625 255.988281-255.125zm0 0" fill="url(#b)"/><path d="m27.363281 256.875h484.625c0-.292969.011719-.582031.011719-.875 0-25.34375-3.699219-49.820312-10.558594-72.9375l-125.34375-124.867188c-1.800781-3.113281-5.253906-5.121093-8.851562-5.121093-2.457032 0-4.972656.929687-7.0625 3.09375-14.398438 14.878906-33.863282 19.558593-51.53125 15.890625-.886719-1.410156-2.070313-2.488282-3.410156-3.234375l-40.5625-40.566407c-1.84375-3.316406-5.261719-4.972656-8.679688-4.972656-4.214844 0-8.433594 2.519532-9.691406 7.566406-6.707032 26.8125-30.324219 42.398438-54.519532 42.398438-14.226562 0-28.664062-5.390625-39.972656-17.082031-6.503906-6.726563-17.203125-1.589844-17.203125 6.78125 0 .929687.136719 1.90625.421875 2.910156 10.550782 36.914063-17.980468 71.402344-53.535156 71.402344-5.097656 0-10.347656-.710938-15.640625-2.226563-7.109375-2.035156-12.785156 3.660156-12.785156 9.71875 0 2.457032.933593 4.972656 3.09375 7.066406 11.691406 11.304688 17.082031 25.742188 17.082031 39.96875 0 24.195313-15.585938 47.8125-42.398438 54.519532-5.046874 1.261718-7.566406 5.476562-7.566406 9.691406 0 .292969.011719.585938.039063.878906h4.039062zm0 0" fill="url(#c)"/><path d="m488.714844 256c0 .292969-.011719.585938-.035156.875h-465.359376c-.023437-.289062-.035156-.582031-.035156-.875 0-4.214844 2.519532-8.429688 7.566406-9.691406 26.8125-6.707032 42.398438-30.324219 42.398438-54.519532 0-14.226562-5.394531-28.664062-17.082031-39.972656-2.164063-2.089844-3.09375-4.605468-3.09375-7.0625 0-6.058594 5.675781-11.753906 12.785156-9.71875 5.292969 1.515625 10.539063 2.226563 15.640625 2.226563 35.554688 0 64.082031-34.488281 53.535156-71.402344-.285156-1.003906-.421875-1.980469-.421875-2.910156 0-8.367188 10.695313-13.507813 17.203125-6.78125 11.308594 11.691406 25.746094 17.082031 39.972656 17.082031 24.191407 0 47.808594-15.585938 54.519532-42.398438 1.257812-5.046874 5.472656-7.566406 9.691406-7.566406 4.214844 0 8.429688 2.519532 9.691406 7.566406 10.65625 42.582032 63.964844 56.863282 94.488282 25.316407 2.089843-2.164063 4.609374-3.09375 7.066406-3.09375 6.058594 0 11.753906 5.675781 9.71875 12.785156-1.515625 5.292969-2.226563 10.539063-2.226563 15.640625 0 35.554688 34.484375 64.085938 71.402344 53.535156 1.003906-.285156 1.980469-.421875 2.910156-.421875 8.367188 0 13.507813 10.695313 6.78125 17.203125-11.691406 11.308594-17.085937 25.746094-17.085937 39.972656 0 24.191407 15.589844 47.8125 42.402344 54.519532 5.046874 1.261718 7.566406 5.476562 7.566406 9.691406zm0 0" fill="#ffd459"/><path d="m488.714844 256c0 .292969-.011719.585938-.035156.875h-465.359376c-.023437-.289062-.035156-.582031-.035156-.875 0-4.214844 2.519532-8.429688 7.566406-9.691406 26.8125-6.707032 42.398438-30.324219 42.398438-54.519532 0-14.226562-5.394531-28.664062-17.082031-39.972656-2.164063-2.089844-3.09375-4.605468-3.09375-7.0625 0-6.058594 5.675781-11.753906 12.785156-9.71875 5.292969 1.515625 10.539063 2.226563 15.640625 2.226563 35.554688 0 64.082031-34.488281 53.535156-71.402344-.285156-1.003906-.421875-1.980469-.421875-2.910156 0-8.367188 10.695313-13.507813 17.203125-6.78125 11.308594 11.691406 25.746094 17.082031 39.972656 17.082031 24.191407 0 47.808594-15.585938 54.519532-42.398438 1.257812-5.046874 5.472656-7.566406 9.691406-7.566406 4.214844 0 8.429688 2.519532 9.691406 7.566406 10.65625 42.582032 63.964844 56.863282 94.488282 25.316407 2.089843-2.164063 4.609374-3.09375 7.066406-3.09375 6.058594 0 11.753906 5.675781 9.71875 12.785156-1.515625 5.292969-2.226563 10.539063-2.226563 15.640625 0 35.554688 34.484375 64.085938 71.402344 53.535156 1.003906-.285156 1.980469-.421875 2.910156-.421875 8.367188 0 13.507813 10.695313 6.78125 17.203125-11.691406 11.308594-17.085937 25.746094-17.085937 39.972656 0 24.191407 15.589844 47.8125 42.402344 54.519532 5.046874 1.261718 7.566406 5.476562 7.566406 9.691406zm0 0" fill="url(#d)"/><path d="m445.777344 256c0 .292969 0 .585938-.011719.875h-379.53125c-.011719-.289062-.011719-.582031-.011719-.875 0-104.8125 84.964844-189.777344 189.777344-189.777344s189.777344 84.964844 189.777344 189.777344zm0 0" fill="url(#e)"/><path d="m413.003906 256v.875h-314.007812v-.875c0-86.707031 70.296875-157.003906 157.003906-157.003906s157.003906 70.296875 157.003906 157.003906zm0 0" fill="url(#f)"/><path d="m437.117188 436.90625c-29.144532 29.195312-65.304688 51.371094-105.742188 63.808594l-83.558594-83.554688c-2.125-1.304687-3.984375-3.164062-5.359375-5.59375l-33.460937-59.128906c-5.871094-10.371094 1.625-23.222656 13.542968-23.222656h7.71875l-5.53125-39.03125c-.652343-4.628906 2.933594-8.753906 7.589844-8.753906h47.355469c3.472656 0 6.34375 2.289062 7.320313 5.351562zm0 0" fill="url(#g)"/><path d="m303.003906 352.441406-33.464844 59.132813c-5.957031 10.527343-21.121093 10.527343-27.078124 0l-33.464844-59.132813c-5.871094-10.371094 1.621094-23.222656 13.539062-23.222656h7.722656l-5.535156-39.039062c-.652344-4.617188 2.933594-8.75 7.597656-8.75h47.355469c4.664063 0 8.25 4.132812 7.597657 8.75l-5.535157 39.039062h7.722657c11.917968 0 19.410156 12.847656 13.542968 23.222656zm0 0" fill="url(#h)"/></svg>