<svg height="512pt" viewBox="0 0 512 512" width="512pt" xmlns="http://www.w3.org/2000/svg" xmlns:xlink="http://www.w3.org/1999/xlink"><radialGradient id="a" cx="215.8434307844" cy="185.72557" gradientUnits="userSpaceOnUse" r="336.6901399656"><stop offset="0" stop-color="#3b395f"/><stop offset=".3952" stop-color="#39375d"/><stop offset=".6279" stop-color="#323154"/><stop offset=".8179" stop-color="#262846"/><stop offset=".9849" stop-color="#151a32"/><stop offset="1" stop-color="#131830"/></radialGradient><linearGradient id="b" gradientUnits="userSpaceOnUse" x1="480.0045231146" x2="103.1591094242" y1="523.1911393184" y2="146.3458260202"><stop offset="0" stop-color="#131830" stop-opacity="0"/><stop offset=".8421" stop-color="#131830"/></linearGradient><linearGradient id="c"><stop offset="0" stop-color="#00c6f6"/><stop offset=".5169" stop-color="#00c4f6"/><stop offset=".7031" stop-color="#02bdf7"/><stop offset=".8359" stop-color="#05b2f9"/><stop offset=".9424" stop-color="#0aa1fc"/><stop offset="1" stop-color="#0d94fe"/></linearGradient><radialGradient id="d" cx="106.3167452908" cy="157.2440016834" gradientUnits="userSpaceOnUse" r="391.901533101" xlink:href="#c"/><linearGradient id="e" gradientUnits="userSpaceOnUse" x1="280.4434020716" x2="-14.2599088724" y1="385.6048339248" y2="211.0211918496"><stop offset="0" stop-color="#0d94fe" stop-opacity="0"/><stop offset=".5142" stop-color="#0681cd" stop-opacity=".513725"/><stop offset="1" stop-color="#0070a2"/></linearGradient><linearGradient id="f" gradientUnits="userSpaceOnUse" x1="77.4121242434" x2="379.3347386816" y1="112.6476782072" y2="414.5702926454"><stop offset="0" stop-color="#fff"/><stop offset=".5153" stop-color="#00c6f6"/><stop offset=".7659" stop-color="#00c4f6"/><stop offset=".8561" stop-color="#02bdf7"/><stop offset=".9204" stop-color="#05b2f9"/><stop offset=".9721" stop-color="#0aa1fc"/><stop offset="1" stop-color="#0d94fe"/></linearGradient><radialGradient id="g" cx="337.976364832" cy="234.4636740794" gradientUnits="userSpaceOnUse" r="223.6370780548" xlink:href="#c"/><radialGradient id="h" cx="-8.952976396" cy="157.2440016834" gradientUnits="userSpaceOnUse" r="249.5557338976" xlink:href="#c"/><path d="m512 256c0 141.386719-114.613281 256-256 256s-256-114.613281-256-256 114.613281-256 256-256 256 114.613281 256 256zm0 0" fill="url(#a)"/><path d="m256 512c133.78125 0 243.574219-102.621094 255-233.4375l-228.335938-227.449219c-.410156-.492187-.828124-.988281-1.230468-1.472656-12.75-15.460937-36.441406-15.460937-49.191406 0-24.359376 29.539063-62.171876 69.4375-91.574219 119.25-.179688-.125-.359375-.253906-.542969-.371094l-36.140625-36.632812c-7.203125-8.734375-20.585937-8.734375-27.789063 0-23.929687 29.015625-70.835937 75.710937-75.765624 138.8125.90625 15.976562 3.277343 31.554687 6.980468 46.613281 5.183594 11.953125 12.878906 22.5625 22.429688 31.160156l152.859375 152.859375c23.222656 6.929688 47.824219 10.667969 73.300781 10.667969zm0 0" fill="url(#b)"/><path d="m416.316406 314.480469c0 88.074219-71.402344 159.476562-159.476562 159.476562-88.074219 0-159.476563-71.402343-159.476563-159.476562 0-121.425781 90.136719-210.585938 134.878907-264.839844 12.75-15.460937 36.441406-15.460937 49.191406 0 44.746094 54.253906 134.882812 138.9375 134.882812 264.839844zm0 0" fill="url(#d)"/><path d="m138.214844 173.101562c-23.375 40.722657-40.851563 87.921876-40.851563 141.378907 0 88.078125 71.402344 159.476562 159.476563 159.476562 49.835937 0 94.316406-22.867187 123.558594-58.671875zm0 0" fill="url(#e)"/><path d="m403.648438 321.585938c0 81.082031-65.726563 146.8125-146.808594 146.8125-81.082032 0-146.808594-65.730469-146.808594-146.8125 0-111.78125 82.976562-193.859376 124.164062-243.804688 11.738282-14.234375 33.550782-14.234375 45.285157 0 41.191406 49.945312 124.167969 127.902344 124.167969 243.804688zm0 0" fill="url(#f)"/><path d="m512 349.757812c0 47.589844-38.582031 86.171876-86.171875 86.171876-47.59375 0-86.171875-38.582032-86.171875-86.171876 0-65.613281 48.703125-113.792968 72.878906-143.109374 6.890625-8.355469 19.691406-8.355469 26.582032 0 24.175781 29.316406 72.882812 75.078124 72.882812 143.109374zm0 0" fill="url(#g)"/><path d="m180.179688 281.5c0 49.753906-40.335938 90.085938-90.089844 90.085938s-90.089844-40.332032-90.089844-90.085938c0-68.597656 50.917969-118.964844 76.195312-149.613281 7.203126-8.734375 20.585938-8.734375 27.789063 0 25.277344 30.648437 76.195313 78.488281 76.195313 149.613281zm0 0" fill="url(#h)"/></svg>