<svg height="512pt" viewBox="0 0 512 512.00126" width="512pt" xmlns="http://www.w3.org/2000/svg" xmlns:xlink="http://www.w3.org/1999/xlink"><radialGradient id="a" cx="184.7223783922" cy="137.5378661766" gradientUnits="userSpaceOnUse" r="380.4785070162"><stop offset="0" stop-color="#ff6e3a"/><stop offset=".2336" stop-color="#ff6b3c"/><stop offset=".418" stop-color="#ff6143"/><stop offset=".5857" stop-color="#ff504e"/><stop offset=".7434" stop-color="#ff395e"/><stop offset=".8928" stop-color="#ff1b72"/><stop offset="1" stop-color="#ff0084"/></radialGradient><linearGradient id="b"><stop offset="0" stop-color="#ff0084" stop-opacity="0"/><stop offset=".0737" stop-color="#f4087e" stop-opacity=".07451"/><stop offset=".3347" stop-color="#d2216b" stop-opacity=".333333"/><stop offset=".583" stop-color="#ba335e" stop-opacity=".584314"/><stop offset=".8111" stop-color="#ab3d56" stop-opacity=".811765"/><stop offset="1" stop-color="#a64153"/></linearGradient><linearGradient id="c" gradientUnits="userSpaceOnUse" x1="505.9609540714" x2="159.2726545156" xlink:href="#b" y1="469.7520199052" y2="153.8504943624"/><linearGradient id="d" gradientUnits="userSpaceOnUse" x1="446.421653194" x2="362.0920044096" xlink:href="#b" y1="460.6600003122" y2="430.8769475148"/><linearGradient id="e" gradientUnits="userSpaceOnUse" x1="355.776531892" x2="303.5729894608" xlink:href="#b" y1="501.1614263426" y2="480.079265127"/><linearGradient id="f" gradientUnits="userSpaceOnUse" x1="188.0559013932" x2="117.781762962" xlink:href="#b" y1="499.9113426682" y2="457.4121118578"/><linearGradient id="g"><stop offset="0" stop-color="#00c6f6"/><stop offset=".5169" stop-color="#00c4f6"/><stop offset=".7031" stop-color="#02bdf7"/><stop offset=".8359" stop-color="#05b2f9"/><stop offset=".9424" stop-color="#0aa1fc"/><stop offset="1" stop-color="#0d94fe"/></linearGradient><radialGradient id="h" cx="211.895" cy="489.5005" gradientTransform="matrix(1.440427 0 0 1.003922 -100.243649 .000251)" gradientUnits="userSpaceOnUse" r="162.6394" xlink:href="#g"/><radialGradient id="i" cx="211.895" cy="489.5006" gradientTransform="matrix(1.440427 0 0 1.003922 -100.243649 .000251)" gradientUnits="userSpaceOnUse" r="162.6399" xlink:href="#g"/><radialGradient id="j" cx="211.895" cy="489.5005" gradientTransform="matrix(1.440427 0 0 1.003922 -100.243649 .000251)" gradientUnits="userSpaceOnUse" r="162.6408" xlink:href="#g"/><radialGradient id="k" cx="211.895" cy="489.5005" gradientTransform="matrix(1.440427 0 0 1.003922 -100.243649 .000251)" gradientUnits="userSpaceOnUse" r="162.6412" xlink:href="#g"/><radialGradient id="l" cx="211.895" cy="489.5007" gradientTransform="matrix(1.440427 0 0 1.003922 -100.243649 .000251)" gradientUnits="userSpaceOnUse" r="162.6407" xlink:href="#g"/><radialGradient id="m" cx="211.895" cy="489.5005" gradientTransform="matrix(1.440427 0 0 1.003922 -100.243649 .000251)" gradientUnits="userSpaceOnUse" r="162.6406" xlink:href="#g"/><radialGradient id="n" cx="211.895" cy="489.5005" gradientTransform="matrix(1.440427 0 0 1.003922 -100.243649 .000251)" gradientUnits="userSpaceOnUse" r="162.6388" xlink:href="#g"/><radialGradient id="o" cx="211.895" cy="489.501" gradientTransform="matrix(1.440427 0 0 1.003922 -100.243649 .000251)" gradientUnits="userSpaceOnUse" r="162.6413" xlink:href="#g"/><radialGradient id="p" cx="211.895" cy="489.5005" gradientTransform="matrix(1.440427 0 0 1.003922 -100.243649 .000251)" gradientUnits="userSpaceOnUse" r="162.6385" xlink:href="#g"/><radialGradient id="q" cx="211.895" cy="489.5005" gradientTransform="matrix(1.440427 0 0 1.003922 -100.243649 .000251)" gradientUnits="userSpaceOnUse" r="162.6387" xlink:href="#g"/><radialGradient id="r" cx="211.895" cy="446.4408" gradientTransform="matrix(1.440427 0 0 1.003922 -100.243649 .000251)" gradientUnits="userSpaceOnUse" r="141.6569" xlink:href="#g"/><radialGradient id="s" cx="305.0350010694" cy="169.081296201" gradientUnits="userSpaceOnUse" r="219.0319874486"><stop offset="0" stop-color="#ffd459"/><stop offset=".2794" stop-color="#ffd55b" stop-opacity=".721569"/><stop offset=".4354" stop-color="#ffd763" stop-opacity=".564706"/><stop offset=".5609" stop-color="#ffda71" stop-opacity=".439216"/><stop offset=".6702" stop-color="#ffdf85" stop-opacity=".329412"/><stop offset=".7691" stop-color="#ffe69e" stop-opacity=".231373"/><stop offset=".8603" stop-color="#ffeebe" stop-opacity=".141176"/><stop offset=".944" stop-color="#fff8e2" stop-opacity=".054902"/><stop offset="1" stop-color="#fff" stop-opacity="0"/></radialGradient><radialGradient id="t" cx="303.7677503288" cy="169.7292274598" gradientUnits="userSpaceOnUse" r="147.5476210464"><stop offset="0" stop-color="#ffb400"/><stop offset=".3726" stop-color="#ffb502" stop-opacity=".627451"/><stop offset=".5069" stop-color="#ffb709" stop-opacity=".494118"/><stop offset=".6026" stop-color="#ffba14" stop-opacity=".396078"/><stop offset=".68" stop-color="#ffbf25" stop-opacity=".321569"/><stop offset=".7463" stop-color="#ffc53b" stop-opacity=".254902"/><stop offset=".805" stop-color="#ffcd57" stop-opacity=".196078"/><stop offset=".8581" stop-color="#ffd777" stop-opacity=".141176"/><stop offset=".9069" stop-color="#ffe29d" stop-opacity=".094118"/><stop offset=".9523" stop-color="#ffefc8" stop-opacity=".047059"/><stop offset=".9926" stop-color="#fffcf6" stop-opacity=".007843"/><stop offset="1" stop-color="#fff" stop-opacity="0"/></radialGradient><radialGradient id="u" cx="273.4113576772" cy="123.8042132166" gradientUnits="userSpaceOnUse" r="153.8653021924"><stop offset="0" stop-color="#ffd459"/><stop offset=".2296" stop-color="#ffd355"/><stop offset=".4362" stop-color="#ffcf4a"/><stop offset=".634" stop-color="#ffc838"/><stop offset=".825" stop-color="#ffbf1f"/><stop offset="1" stop-color="#ffb400"/></radialGradient><linearGradient id="v" gradientUnits="userSpaceOnUse" x1="315.49817733" x2="165.5578085888" y1="181.436564255" y2="23.5207379692"><stop offset="0" stop-color="#fff" stop-opacity="0"/><stop offset=".9286" stop-color="#fff" stop-opacity=".929412"/><stop offset="1" stop-color="#fff"/></linearGradient><linearGradient id="w" gradientUnits="userSpaceOnUse" x1="414.863867085" x2="67.6319437662" y1="405.6491907924" y2="58.4171670814"><stop offset="0" stop-color="#e58200" stop-opacity="0"/><stop offset=".0396" stop-color="#e27f04" stop-opacity=".039216"/><stop offset=".4671" stop-color="#c15d2f" stop-opacity=".466667"/><stop offset=".8016" stop-color="#ad4949" stop-opacity=".8"/><stop offset="1" stop-color="#a64153"/></linearGradient><radialGradient id="x" cx="160.8646740232" cy="139.1707453096" gradientUnits="userSpaceOnUse" r="279.2627897996"><stop offset="0" stop-color="#ecf7ff"/><stop offset=".3473" stop-color="#e9f5ff"/><stop offset=".62" stop-color="#dff0ff"/><stop offset=".8666" stop-color="#cee7ff"/><stop offset="1" stop-color="#c2e0ff"/></radialGradient><linearGradient id="y"><stop offset=".0029" stop-color="#c2e0ff" stop-opacity="0"/><stop offset=".0763" stop-color="#bfdcfd" stop-opacity=".07451"/><stop offset="1" stop-color="#9eb2e7"/></linearGradient><linearGradient id="z" gradientUnits="userSpaceOnUse" x1="338.6696006198" x2="378.9231583084" xlink:href="#y" y1="325.6125132644" y2="204.1695748074"/><linearGradient id="A" gradientUnits="userSpaceOnUse" x1="292.6198992642" x2="344.3737850316" xlink:href="#y" y1="242.531241487" y2="165.7980696922"/><linearGradient id="B" gradientUnits="userSpaceOnUse" x1="187.1980500442" x2="187.1980500442" xlink:href="#y" y1="265.036160961" y2="108.2186253432"/><linearGradient id="C" gradientUnits="userSpaceOnUse" x1="108.1238325376" x2="26.4259652762" xlink:href="#y" y1="324.449268843" y2="247.238129784"/><linearGradient id="D" gradientUnits="userSpaceOnUse" x1="223.1789157008" x2="223.1789157008" xlink:href="#y" y1="341.9719242154" y2="436.3336651536"/><linearGradient id="E" gradientUnits="userSpaceOnUse" x1="215.735436424" x2="116.9709955548" xlink:href="#y" y1="434.1815575622" y2="335.417116693"/><path d="m512 256c0 141.386719-114.613281 256-256 256-141.382812 0-256-114.613281-256-256 0-141.382812 114.617188-256 256-256 141.386719 0 256 114.617188 256 256zm0 0" fill="url(#a)"/><path d="m512 256c0-98.871094-56.058594-184.640625-138.117188-227.285156-9.546874 6.898437-21.027343 8.917968-31.640624 6.769531-.921876-.746094-1.996094-1.234375-3.128907-1.460937-.027343-.105469-.0625-.203126-.089843-.308594l-27.980469-27.761719c-4.433594-.96875-8.90625-1.824219-13.421875-2.566406-.378906.625-.695313 1.316406-.894532 2.113281-7.746093 30.941406-46.476562 41.316406-68.65625 18.394531-5.25-5.429687-14.269531-.222656-12.195312 7.039063 8.765625 30.667968-19.589844 59.023437-50.257812 50.261718-7.261719-2.078124-12.46875 6.941407-7.042969 12.191407v.003906c22.925781 22.175781 12.546875 60.90625-18.394531 68.652344-7.328126 1.832031-7.328126 12.246093 0 14.082031.105468.023438.207031.058594.3125.089844.039062.195312.082031.390625.136718.585937-26.886718 15.929688-44.917968 45.226563-44.917968 78.746094 0 .308594.007812.617187.011718.925781-32.097656 5.339844-56.570312 33.230469-56.570312 66.84375 0 20.152344 8.804687 38.238282 22.765625 50.652344l33.859375 33.859375c.621094.699219 1.257812 1.378906 1.90625 2.054687-.066406.691407-.113282 1.394532-.113282 2.105469 0 7.4375 3.753907 13.980469 9.457032 17.882813l65.195312 68.089844c26.25 9.089843 54.433594 14.039062 83.777344 14.039062 141.386719 0 256-114.613281 256-256zm0 0" fill="url(#c)"/><path d="m436.574219 437.449219c-17.808594 17.738281-38.21875 32.859375-60.605469 44.753906v-75.113281c0-6.925782 5.621094-12.546875 12.550781-12.546875 3.714844 0 7.046875 1.625 9.347657 4.195312zm0 0" fill="url(#d)"/><path d="m354.816406 492.222656c-14.414062 6.042969-29.496094 10.800782-45.105468 14.125v-28.984375c0-6.925781 5.621093-12.546875 12.546874-12.546875 3.714844 0 7.050782 1.625 9.347657 4.195313zm0 0" fill="url(#e)"/><path d="m180.597656 500.714844c-25.089844-7.71875-48.519531-19.195313-69.664062-33.761719v-5.652344c0-6.925781 5.621094-12.546875 12.550781-12.546875 3.714844 0 7.046875 1.625 9.34375 4.195313l41.753906 41.753906c.351563.3125.683594.640625.992188.992187.355469.3125.683593.644532.996093.996094.351563.308594.683594.640625.992188.992188.351562.3125.683594.644531.996094.996094.351562.308593.679687.640624.992187.992187.351563.3125.683594.644531.992188.992187zm0 0" fill="url(#f)"/><path d="m123.484375 512c-6.929687 0-12.550781-5.617188-12.550781-12.546875v-38.148437c0-6.929688 5.621094-12.550782 12.550781-12.550782s12.546875 5.621094 12.546875 12.550782v38.148437c0 6.929687-5.617188 12.546875-12.546875 12.546875zm0 0" fill="url(#h)"/><path d="m123.484375 435.703125c-6.929687 0-12.550781-5.617187-12.550781-12.550781v-32.125c0-6.929688 5.621094-12.546875 12.550781-12.546875s12.546875 5.617187 12.546875 12.546875v32.125c0 6.933594-5.617188 12.550781-12.546875 12.550781zm0 0" fill="url(#i)"/><path d="m123.484375 368.441406c-6.929687 0-12.550781-5.621094-12.550781-12.550781v-87.339844c0-6.929687 5.621094-12.550781 12.550781-12.550781s12.546875 5.621094 12.546875 12.550781v87.339844c0 6.929687-5.617188 12.550781-12.546875 12.550781zm0 0" fill="url(#j)"/><path d="m189.742188 512c-6.929688 0-12.550782-5.617188-12.550782-12.546875v-75.796875c0-6.929688 5.621094-12.550781 12.550782-12.550781 6.929687 0 12.546874 5.621093 12.546874 12.550781v75.796875c0 6.929687-5.617187 12.546875-12.546874 12.546875zm0 0" fill="url(#k)"/><path d="m189.742188 403.578125c-6.929688 0-12.550782-5.621094-12.550782-12.550781v-47.183594c0-6.929688 5.621094-12.550781 12.550782-12.550781 6.929687 0 12.546874 5.621093 12.546874 12.550781v47.183594c0 6.929687-5.617187 12.550781-12.546874 12.550781zm0 0" fill="url(#l)"/><path d="m189.742188 323.261719c-6.929688 0-12.550782-5.617188-12.550782-12.546875v-42.164063c0-6.933593 5.621094-12.550781 12.550782-12.550781 6.929687 0 12.546874 5.617188 12.546874 12.550781v42.164063c0 6.929687-5.617187 12.546875-12.546874 12.546875zm0 0" fill="url(#m)"/><path d="m256 512c-6.929688 0-12.546875-5.617188-12.546875-12.546875v-95.875c0-6.929687 5.617187-12.550781 12.546875-12.550781s12.550781 5.621094 12.550781 12.550781v95.875c0 6.929687-5.617187 12.546875-12.550781 12.546875zm0 0" fill="url(#n)"/><path d="m256 385.507812c-6.929688 0-12.546875-5.621093-12.546875-12.550781v-104.40625c0-6.929687 5.617187-12.550781 12.546875-12.550781s12.550781 5.621094 12.550781 12.550781v104.40625c0 6.929688-5.617187 12.550781-12.550781 12.550781zm0 0" fill="url(#o)"/><path d="m322.257812 512c-6.929687 0-12.546874-5.617188-12.546874-12.546875v-22.085937c0-6.929688 5.617187-12.550782 12.546874-12.550782 6.933594 0 12.550782 5.621094 12.550782 12.550782v22.085937c0 6.929687-5.617188 12.546875-12.550782 12.546875zm0 0" fill="url(#p)"/><path d="m322.257812 458.792969c-6.929687 0-12.546874-5.617188-12.546874-12.546875v-67.765625c0-6.933594 5.617187-12.550781 12.546874-12.550781 6.933594 0 12.550782 5.617187 12.550782 12.550781v67.765625c0 6.929687-5.617188 12.546875-12.550782 12.546875zm0 0" fill="url(#p)"/><path d="m322.257812 360.40625c-6.929687 0-12.546874-5.617188-12.546874-12.546875v-79.308594c0-6.929687 5.617187-12.550781 12.546874-12.550781 6.933594 0 12.550782 5.621094 12.550782 12.550781v79.308594c0 6.929687-5.617188 12.546875-12.550782 12.546875zm0 0" fill="url(#l)"/><path d="m388.519531 512c-6.929687 0-12.550781-5.617188-12.550781-12.546875v-92.363281c0-6.929688 5.621094-12.546875 12.550781-12.546875 6.929688 0 12.546875 5.617187 12.546875 12.546875v92.363281c0 6.929687-5.617187 12.546875-12.546875 12.546875zm0 0" fill="url(#q)"/><path d="m388.519531 387.515625c-6.929687 0-12.550781-5.621094-12.550781-12.550781v-51.703125c0-6.929688 5.621094-12.546875 12.550781-12.546875 6.929688 0 12.546875 5.617187 12.546875 12.546875v51.703125c0 6.929687-5.617187 12.550781-12.546875 12.550781zm0 0" fill="url(#r)"/><path d="m310.808594 5.496094c7.742187 30.941406 46.476562 41.320312 68.65625 18.394531 5.25-5.425781 14.269531-.222656 12.195312 7.042969-8.765625 30.667968 19.589844 59.023437 50.253906 50.257812h.003907c7.261719-2.074218 12.46875 6.941406 7.039062 12.195313-22.921875 22.175781-12.542969 60.910156 18.394531 68.65625 7.328126 1.832031 7.328126 12.246093 0 14.078125-30.9375 7.746094-41.316406 46.476562-18.394531 68.65625 5.429688 5.25.222657 14.269531-7.039062 12.195312h-.003907c-30.664062-8.765625-59.019531 19.589844-50.253906 50.257813 2.074219 7.261719-6.945312 12.46875-12.195312 7.039062-22.179688-22.921875-60.914063-12.542969-68.65625 18.394531v.003907c-1.835938 7.324219-12.246094 7.324219-14.082032 0v-.003907c-7.742187-30.9375-46.476562-41.316406-68.652343-18.394531-5.253907 5.429688-14.273438.222657-12.199219-7.039062 8.765625-30.667969-19.589844-59.023438-50.257812-50.257813-7.261719 2.074219-12.46875-6.945312-7.039063-12.195312 22.921875-22.179688 12.546875-60.910156-18.398437-68.65625-7.324219-1.832032-7.324219-12.246094 0-14.078125 30.945312-7.746094 41.320312-46.480469 18.398437-68.65625-5.429687-5.253907-.222656-14.269531 7.039063-12.195313 30.667968 8.765625 59.023437-19.589844 50.257812-50.257812-2.074219-7.265625 6.945312-12.46875 12.199219-7.042969 22.175781 22.925781 60.910156 12.546875 68.652343-18.394531 1.835938-7.328125 12.246094-7.328125 14.082032 0zm0 0" fill="#fff"/><path d="m310.808594 5.496094c7.742187 30.941406 46.476562 41.320312 68.65625 18.394531 5.25-5.425781 14.269531-.222656 12.195312 7.042969-8.765625 30.667968 19.589844 59.023437 50.253906 50.257812h.003907c7.261719-2.074218 12.46875 6.941406 7.039062 12.195313-22.921875 22.175781-12.542969 60.910156 18.394531 68.65625 7.328126 1.832031 7.328126 12.246093 0 14.078125-30.9375 7.746094-41.316406 46.476562-18.394531 68.65625 5.429688 5.25.222657 14.269531-7.039062 12.195312h-.003907c-30.664062-8.765625-59.019531 19.589844-50.253906 50.257813 2.074219 7.261719-6.945312 12.46875-12.195312 7.039062-22.179688-22.921875-60.914063-12.542969-68.65625 18.394531v.003907c-1.835938 7.324219-12.246094 7.324219-14.082032 0v-.003907c-7.742187-30.9375-46.476562-41.316406-68.652343-18.394531-5.253907 5.429688-14.273438.222657-12.199219-7.039062 8.765625-30.667969-19.589844-59.023438-50.257812-50.257813-7.261719 2.074219-12.46875-6.945312-7.039063-12.195312 22.921875-22.179688 12.546875-60.910156-18.398437-68.65625-7.324219-1.832032-7.324219-12.246094 0-14.078125 30.945312-7.746094 41.320312-46.480469 18.398437-68.65625-5.429687-5.253907-.222656-14.269531 7.039063-12.195313 30.667968 8.765625 59.023437-19.589844 50.257812-50.257812-2.074219-7.265625 6.945312-12.46875 12.199219-7.042969 22.175781 22.925781 60.910156 12.546875 68.652343-18.394531 1.835938-7.328125 12.246094-7.328125 14.082032 0zm0 0" fill="url(#s)"/><path d="m441.652344 169.082031c0 76.152344-61.734375 137.882813-137.886719 137.882813-76.148437 0-137.882813-61.730469-137.882813-137.882813 0-76.152343 61.734376-137.882812 137.882813-137.882812 76.152344 0 137.886719 61.730469 137.886719 137.882812zm0 0" fill="url(#t)"/><path d="m417.839844 169.082031c0 63-51.070313 114.070313-114.074219 114.070313-63 0-114.070313-51.070313-114.070313-114.070313s51.070313-114.074219 114.070313-114.074219c63.003906 0 114.074219 51.074219 114.074219 114.074219zm0 0" fill="url(#u)"/><path d="m407.003906 169.082031c0 57.015625-46.222656 103.234375-103.238281 103.234375-57.011719 0-103.234375-46.21875-103.234375-103.234375s46.222656-103.234375 103.234375-103.234375c57.015625 0 103.238281 46.21875 103.238281 103.234375zm0 0" fill="url(#v)"/><path d="m215.875 307.230469c-2.074219 7.261719 6.945312 12.46875 12.199219 7.039062 22.175781-22.921875 60.910156-12.542969 68.652343 18.394531 1.835938 7.328126 12.246094 7.328126 14.082032 0 7.742187-30.9375 46.476562-41.316406 68.652344-18.394531 5.253906 5.429688 14.273437.222657 12.195312-7.039062-2.898438-10.140625-1.734375-20.023438 2.226562-28.402344l-67.519531-67.515625c-8.738281-9.265625-21.117187-15.054688-34.855469-15.054688-9.734374 0-18.777343 2.910157-26.335937 7.894532-.121094-.117188-11.628906-11.628906-12.300781-12.285156-16.628906-17.144532-39.902344-27.808594-65.675782-27.808594-16.742187 0-32.433593 4.5-45.929687 12.355468 30.09375 8.367188 39.964844 46.445313 17.3125 68.363282-5.429687 5.25-.222656 14.269531 7.039063 12.195312 30.671874-8.765625 59.023437 19.589844 50.257812 50.257813zm0 0" fill="url(#w)"/><path d="m339.429688 255.542969c-.457032 0-.914063.007812-1.371094.019531.890625-3.648438 1.371094-7.457031 1.371094-11.378906 0-26.46875-21.453126-47.925782-47.921876-47.925782-10.414062 0-20.039062 3.332032-27.898437 8.972657-16.367187-24.800781-44.476563-41.171875-76.410156-41.171875-50.527344 0-91.484375 40.960937-91.484375 91.488281 0 .308594.007812.617187.011718.925781-32.101562 5.339844-56.574218 33.230469-56.574218 66.84375 0 37.433594 30.34375 67.777344 67.773437 67.777344h232.503907c37.429687 0 67.773437-30.34375 67.773437-67.777344 0-37.429687-30.34375-67.773437-67.773437-67.773437zm0 0" fill="url(#x)"/><path d="m407.203125 323.316406c0 37.433594-30.34375 67.777344-67.773437 67.777344-37.429688 0-67.773438-30.34375-67.773438-67.777344 0-37.429687 30.34375-67.773437 67.773438-67.773437 37.429687 0 67.773437 30.34375 67.773437 67.773437zm0 0" fill="url(#z)"/><path d="m339.429688 244.179688c0 26.46875-21.457032 47.925781-47.921876 47.925781-26.46875 0-47.925781-21.457031-47.925781-47.925781 0-26.464844 21.457031-47.921876 47.925781-47.921876 26.464844 0 47.921876 21.457032 47.921876 47.921876zm0 0" fill="url(#A)"/><path d="m278.683594 255.542969c0 50.527343-40.960938 91.488281-91.484375 91.488281-50.527344 0-91.488281-40.960938-91.488281-91.488281 0-50.523438 40.960937-91.484375 91.488281-91.484375 50.523437 0 91.484375 40.960937 91.484375 91.484375zm0 0" fill="url(#B)"/><path d="m174.699219 323.316406c0 37.433594-30.339844 67.777344-67.773438 67.777344-37.429687 0-67.773437-30.34375-67.773437-67.777344 0-37.429687 30.34375-67.773437 67.773437-67.773437 37.433594 0 67.773438 30.34375 67.773438 67.773437zm0 0" fill="url(#C)"/><path d="m39.78125 332.550781c4.503906 33.0625 32.847656 58.542969 67.144531 58.542969h232.503907c34.296874 0 62.640624-25.480469 67.144531-58.542969zm0 0" fill="url(#D)"/><path d="m231.863281 391.09375-3.535156-3.539062c-5.019531-5.421876-12.195313-8.820313-20.167969-8.820313-.09375 0-.1875.007813-.277344.007813-.054687-.050782-.109374-.105469-.164062-.15625l-18.136719-18.140626c-7.890625-8.261718-19.007812-13.417968-31.332031-13.417968-23.933594 0-43.332031 19.402344-43.332031 43.332031 0 .121094.007812.238281.007812.355469-.515625.105468-1.023437.234375-1.527343.375h118.464843zm0 0" fill="url(#E)"/></svg>