<svg height="512pt" viewBox="0 0 512 512.00018" width="512pt" xmlns="http://www.w3.org/2000/svg" xmlns:xlink="http://www.w3.org/1999/xlink"><radialGradient id="a" cx="184.7216376078" cy="137.5371132156" gradientUnits="userSpaceOnUse" r="380.4785070162"><stop offset="0" stop-color="#ff6e3a"/><stop offset=".2336" stop-color="#ff6b3c"/><stop offset=".418" stop-color="#ff6143"/><stop offset=".5857" stop-color="#ff504e"/><stop offset=".7434" stop-color="#ff395e"/><stop offset=".8928" stop-color="#ff1b72"/><stop offset="1" stop-color="#ff0084"/></radialGradient><linearGradient id="b"><stop offset="0" stop-color="#ff0084" stop-opacity="0"/><stop offset=".0737" stop-color="#f4087e" stop-opacity=".07451"/><stop offset=".3347" stop-color="#d2216b" stop-opacity=".333333"/><stop offset=".583" stop-color="#ba335e" stop-opacity=".584314"/><stop offset=".8111" stop-color="#ab3d56" stop-opacity=".811765"/><stop offset="1" stop-color="#a64153"/></linearGradient><linearGradient id="c" gradientUnits="userSpaceOnUse" x1="594.4441916996" x2="237.5682924722" xlink:href="#b" y1="583.9478964052" y2="187.9208462374"/><radialGradient id="d" cx="337.9718367908" cy="175.3429082838" gradientUnits="userSpaceOnUse" r="227.143376032"><stop offset="0" stop-color="#ffd459"/><stop offset=".2794" stop-color="#ffd55b" stop-opacity=".721569"/><stop offset=".4354" stop-color="#ffd763" stop-opacity=".564706"/><stop offset=".5609" stop-color="#ffda71" stop-opacity=".439216"/><stop offset=".6702" stop-color="#ffdf85" stop-opacity=".329412"/><stop offset=".7691" stop-color="#ffe69e" stop-opacity=".231373"/><stop offset=".8603" stop-color="#ffeebe" stop-opacity=".141176"/><stop offset=".944" stop-color="#fff8e2" stop-opacity=".054902"/><stop offset="1" stop-color="#fff" stop-opacity="0"/></radialGradient><radialGradient id="e" cx="336.6576025006" cy="176.0147328862" gradientUnits="userSpaceOnUse" r="153.0116673158"><stop offset="0" stop-color="#ffb400"/><stop offset=".3726" stop-color="#ffb502" stop-opacity=".627451"/><stop offset=".5069" stop-color="#ffb709" stop-opacity=".494118"/><stop offset=".6026" stop-color="#ffba14" stop-opacity=".396078"/><stop offset=".68" stop-color="#ffbf25" stop-opacity=".321569"/><stop offset=".7463" stop-color="#ffc53b" stop-opacity=".254902"/><stop offset=".805" stop-color="#ffcd57" stop-opacity=".196078"/><stop offset=".8581" stop-color="#ffd777" stop-opacity=".141176"/><stop offset=".9069" stop-color="#ffe29d" stop-opacity=".094118"/><stop offset=".9523" stop-color="#ffefc8" stop-opacity=".047059"/><stop offset=".9926" stop-color="#fffcf6" stop-opacity=".007843"/><stop offset="1" stop-color="#fff" stop-opacity="0"/></radialGradient><radialGradient id="f" cx="305.1771183856" cy="128.3889743828" gradientUnits="userSpaceOnUse" r="159.5634630722"><stop offset="0" stop-color="#ffd459"/><stop offset=".2296" stop-color="#ffd355"/><stop offset=".4362" stop-color="#ffcf4a"/><stop offset=".634" stop-color="#ffc838"/><stop offset=".825" stop-color="#ffbf1f"/><stop offset="1" stop-color="#ffb400"/></radialGradient><linearGradient id="g" gradientUnits="userSpaceOnUse" x1="348.8225269434" x2="193.3292648358" y1="188.1556635932" y2="24.3914896964"><stop offset="0" stop-color="#fff" stop-opacity="0"/><stop offset=".9286" stop-color="#fff" stop-opacity=".929412"/><stop offset="1" stop-color="#fff"/></linearGradient><linearGradient id="h" gradientUnits="userSpaceOnUse" x1="169.7132044922" x2="70.9942412896" xlink:href="#b" y1="373.6466170218" y2="294.6713862244"/><linearGradient id="i" gradientUnits="userSpaceOnUse" x1="129.839330104" x2="46.3740581616" xlink:href="#b" y1="449.9343486252" y2="383.1620909144"/><linearGradient id="j" gradientUnits="userSpaceOnUse" x1="256.4746535372" x2="157.7555899424" y1="338.64798865" y2="259.6727578526"><stop offset=".0029" stop-color="#c2e0ff" stop-opacity="0"/><stop offset=".6417" stop-color="#a8bfee" stop-opacity=".639216"/><stop offset="1" stop-color="#9eb2e7"/></linearGradient><linearGradient id="k" gradientUnits="userSpaceOnUse" x1="160.6821229646" x2="95.1270202866" xlink:href="#b" y1="470.8478509448" y2="418.4037688024"/><linearGradient id="l" gradientUnits="userSpaceOnUse" x1="213.469546431" x2="121.6265453986" xlink:href="#b" y1="433.2320983112" y2="359.7577577206"/><linearGradient id="m" gradientUnits="userSpaceOnUse" x1="223.2023694366" x2="149.6806437276" xlink:href="#b" y1="479.0226873986" y2="420.2053068314"/><linearGradient id="n" gradientUnits="userSpaceOnUse" x1="309.1797553996" x2="212.0251034574" xlink:href="#b" y1="409.2619546782" y2="331.538213046"/><linearGradient id="o" gradientUnits="userSpaceOnUse" x1="291.5998764732" x2="220.4354600124" xlink:href="#b" y1="450.4696398356" y2="393.5382271376"/><linearGradient id="p" gradientUnits="userSpaceOnUse" x1="355.9564970676" x2="266.1431251426" xlink:href="#b" y1="384.9608179618" y2="313.110220814"/><linearGradient id="q" gradientUnits="userSpaceOnUse" x1="248.6825121498" x2="215.4374343354" xlink:href="#b" y1="505.7139616126" y2="479.1178592042"/><linearGradient id="r" gradientUnits="userSpaceOnUse" x1="334.3255920868" x2="285.6079680162" xlink:href="#b" y1="484.705588664" y2="445.7315295644"/><linearGradient id="s" gradientUnits="userSpaceOnUse" x1="409.9043539738" x2="341.14282482" xlink:href="#b" y1="393.287447422" y2="338.2782441774"/><linearGradient id="t"><stop offset="0" stop-color="#00c6f6"/><stop offset=".5169" stop-color="#00c4f6"/><stop offset=".7031" stop-color="#02bdf7"/><stop offset=".8359" stop-color="#05b2f9"/><stop offset=".9424" stop-color="#0aa1fc"/><stop offset="1" stop-color="#0d94fe"/></linearGradient><radialGradient id="u" cx="882.4581" cy="745.4538" gradientTransform="matrix(1.302187 .615805 -.429176 .907545 -708.411342 -692.928351)" gradientUnits="userSpaceOnUse" r="162.64" xlink:href="#t"/><radialGradient id="v" cx="882.4578" cy="745.4534" gradientTransform="matrix(1.302187 .615805 -.429176 .907545 -708.411342 -692.928351)" gradientUnits="userSpaceOnUse" r="162.6403" xlink:href="#t"/><radialGradient id="w" cx="882.4604" cy="745.4532" gradientTransform="matrix(1.302187 .615805 -.429176 .907545 -708.411342 -692.928351)" gradientUnits="userSpaceOnUse" r="162.6428" xlink:href="#t"/><radialGradient id="x" cx="874.0502" cy="719.9464" gradientTransform="matrix(1.302187 .615805 -.429176 .907545 -708.411342 -692.928351)" gradientUnits="userSpaceOnUse" r="162.6439" xlink:href="#t"/><radialGradient id="y" cx="874.051" cy="719.947" gradientTransform="matrix(1.302187 .615805 -.429176 .907545 -708.411342 -692.928351)" gradientUnits="userSpaceOnUse" r="162.6438" xlink:href="#t"/><radialGradient id="z" cx="874.0515" cy="719.9456" gradientTransform="matrix(1.302187 .615805 -.429176 .907545 -708.411342 -692.928351)" gradientUnits="userSpaceOnUse" r="162.6423" xlink:href="#t"/><radialGradient id="A" cx="865.6417" cy="694.439" gradientTransform="matrix(1.302187 .615805 -.429176 .907545 -708.411342 -692.928351)" gradientUnits="userSpaceOnUse" r="162.6424" xlink:href="#t"/><radialGradient id="B" cx="865.6428" cy="694.4389" gradientTransform="matrix(1.302187 .615805 -.429176 .907545 -708.411342 -692.928351)" gradientUnits="userSpaceOnUse" r="162.6435" xlink:href="#t"/><radialGradient id="C" cx="857.2354" cy="668.9314" gradientTransform="matrix(1.302187 .615805 -.429176 .907545 -708.411342 -692.928351)" gradientUnits="userSpaceOnUse" r="162.637" xlink:href="#t"/><radialGradient id="D" cx="857.2347" cy="668.9314" gradientTransform="matrix(1.302187 .615805 -.429176 .907545 -708.411342 -692.928351)" gradientUnits="userSpaceOnUse" r="162.6394" xlink:href="#t"/><radialGradient id="E" cx="857.235" cy="668.9312" gradientTransform="matrix(1.302187 .615805 -.429176 .907545 -708.411342 -692.928351)" gradientUnits="userSpaceOnUse" r="162.6425" xlink:href="#t"/><radialGradient id="F" cx="848.8242" cy="643.4241" gradientTransform="matrix(1.302187 .615805 -.429176 .907545 -708.411342 -692.928351)" gradientUnits="userSpaceOnUse" r="162.6423" xlink:href="#t"/><radialGradient id="G" cx="848.8248" cy="643.4233" gradientTransform="matrix(1.302187 .615805 -.429176 .907545 -708.411342 -692.928351)" gradientUnits="userSpaceOnUse" r="162.6428" xlink:href="#t"/><linearGradient id="H" gradientUnits="userSpaceOnUse" x1="451.8684943582" x2="91.7760290428" y1="386.5386821692" y2="26.4462168538"><stop offset="0" stop-color="#e58200" stop-opacity="0"/><stop offset=".0396" stop-color="#e27f04" stop-opacity=".039216"/><stop offset=".4671" stop-color="#c15d2f" stop-opacity=".466667"/><stop offset=".8016" stop-color="#ad4949" stop-opacity=".8"/><stop offset="1" stop-color="#a64153"/></linearGradient><linearGradient id="I"><stop offset="0" stop-color="#cfced3"/><stop offset=".8111" stop-color="#a5abbd"/><stop offset="1" stop-color="#9aa2b7"/></linearGradient><radialGradient id="J" cx="188.4619498032" cy="110.1906795044" gradientUnits="userSpaceOnUse" r="289.605896989" xlink:href="#I"/><linearGradient id="K"><stop offset=".0018" stop-color="#9aa2b7" stop-opacity="0"/><stop offset=".3682" stop-color="#848a9c" stop-opacity=".368627"/><stop offset="1" stop-color="#606572"/></linearGradient><linearGradient id="L" gradientUnits="userSpaceOnUse" x1="372.8524039354" x2="414.5968861862" xlink:href="#K" y1="303.5379249362" y2="177.5967131738"/><linearGradient id="M" gradientUnits="userSpaceOnUse" x1="325.0970391018" x2="378.7677131438" xlink:href="#K" y1="217.3796322288" y2="137.8045580364"/><linearGradient id="N" gradientUnits="userSpaceOnUse" x1="215.7708368316" x2="215.7708368316" xlink:href="#K" y1="206.8080323922" y2="72.7779198992"/><linearGradient id="O" gradientUnits="userSpaceOnUse" x1="133.7678776744" x2="49.0440891128" xlink:href="#K" y1="302.331612261" y2="222.2606006006"/><linearGradient id="P" gradientUnits="userSpaceOnUse" x1="253.08380659" x2="253.08380659" xlink:href="#K" y1="320.5035039908" y2="418.3597970188"/><linearGradient id="Q" gradientUnits="userSpaceOnUse" x1="315.639692293" x2="213.2169596558" xlink:href="#K" y1="416.1283795894" y2="313.7056469522"/><radialGradient id="R" cx="235.4154821354" cy="321.3854494678" gradientUnits="userSpaceOnUse" r="122.1609434714" xlink:href="#I"/><path d="m512 256c0 141.386719-114.613281 256-256 256s-256-114.613281-256-256 114.613281-256 256-256 256 114.613281 256 256zm0 0" fill="url(#a)"/><path d="m389.289062 37.398438c-4.757812.480468-9.550781.160156-14.164062-.9375-5.296875-.53125-10.25-2.878907-14.015625-6.644532l-12.414063-12.414062.082032-.042969c-6.816406-2.652344-13.769532-5.03125-20.855469-7.101563-10.527344 28.488282-47.894531 37.121094-69.761719 14.519532l-1.054687-1.054688c-5.808594-5.808594-15.265625 1.011719-11.59375 8.355469 9.089843 31.800781-20.316407 61.207031-52.121094 52.117187h-4.3125c-7.046875 0-9.289063 9.496094-2.988281 12.648438h.003906c11.796875 11.417969 15.082031 27.0625 11.476562 40.910156-43.6875 8.488282-76.671874 46.949219-76.671874 93.121094 0 .320312.007812.640625.011718.960938-33.289062 5.539062-58.667968 34.464843-58.667968 69.324218 0 20.738282 8.988281 39.375 23.273437 52.238282l158.308594 158.304687c4.035156.191406 8.09375.296875 12.175781.296875 141.386719 0 256-114.617188 256-256 0-92.554688-49.121094-173.632812-122.710938-218.601562zm0 0" fill="url(#c)"/><path d="m343.957031 5.699219c8.03125 32.085937 48.199219 42.847656 71.199219 19.078125 5.445312-5.628906 14.796875-.234375 12.648438 7.300781-9.089844 31.800781 20.3125 61.207031 52.117187 52.117187 7.53125-2.152343 12.933594 7.203126 7.300781 12.648438-23.769531 23-13.007812 63.167969 19.078125 71.199219 7.597657 1.898437 7.597657 12.699219 0 14.601562-32.085937 8.03125-42.847656 48.195313-19.078125 71.195313 5.628906 5.449218.230469 14.800781-7.300781 12.648437-31.804687-9.089843-61.207031 20.316407-52.117187 52.117188 2.152343 7.53125-7.203126 12.933593-12.648438 7.300781-23-23.773438-63.167969-13.007812-71.199219 19.078125-1.898437 7.597656-12.699219 7.597656-14.601562 0-8.03125-32.085937-48.199219-42.851563-71.195313-19.078125-5.449218 5.628906-14.800781.230469-12.648437-7.300781 9.089843-31.800781-20.316407-61.207031-52.121094-52.117188-7.53125 2.152344-12.929687-7.199219-7.300781-12.648437 23.773437-23 13.011718-63.164063-19.078125-71.195313-7.597657-1.902343-7.597657-12.703125 0-14.601562 32.089843-8.035157 42.851562-48.199219 19.078125-71.199219-5.628906-5.445312-.230469-14.800781 7.300781-12.648438 31.804687 9.089844 61.210937-20.3125 52.121094-52.117187-2.152344-7.535156 7.199219-12.933594 12.648437-7.300781 22.996094 23.769531 63.164063 13.007812 71.195313-19.078125 1.902343-7.597657 12.703125-7.597657 14.601562 0zm0 0" fill="#fff"/><path d="m343.957031 5.699219c8.03125 32.085937 48.199219 42.847656 71.199219 19.078125 5.445312-5.628906 14.796875-.234375 12.648438 7.300781-9.089844 31.800781 20.3125 61.207031 52.117187 52.117187 7.53125-2.152343 12.933594 7.203126 7.300781 12.648438-23.769531 23-13.007812 63.167969 19.078125 71.199219 7.597657 1.898437 7.597657 12.699219 0 14.601562-32.085937 8.03125-42.847656 48.195313-19.078125 71.195313 5.628906 5.449218.230469 14.800781-7.300781 12.648437-31.804687-9.089843-61.207031 20.316407-52.117187 52.117188 2.152343 7.53125-7.203126 12.933593-12.648438 7.300781-23-23.773438-63.167969-13.007812-71.199219 19.078125-1.898437 7.597656-12.699219 7.597656-14.601562 0-8.03125-32.085937-48.199219-42.851563-71.195313-19.078125-5.449218 5.628906-14.800781.230469-12.648437-7.300781 9.089843-31.800781-20.316407-61.207031-52.121094-52.117188-7.53125 2.152344-12.929687-7.199219-7.300781-12.648437 23.773437-23 13.011718-63.164063-19.078125-71.195313-7.597657-1.902343-7.597657-12.703125 0-14.601562 32.089843-8.035157 42.851562-48.199219 19.078125-71.199219-5.628906-5.445312-.230469-14.800781 7.300781-12.648438 31.804687 9.089844 61.210937-20.3125 52.121094-52.117187-2.152344-7.535156 7.199219-12.933594 12.648437-7.300781 22.996094 23.769531 63.164063 13.007812 71.195313-19.078125 1.902343-7.597657 12.703125-7.597657 14.601562 0zm0 0" fill="url(#d)"/><path d="m479.648438 175.34375c0 78.96875-64.019532 142.988281-142.992188 142.988281-78.96875 0-142.988281-64.019531-142.988281-142.988281 0-78.972656 64.019531-142.992188 142.988281-142.992188 78.972656 0 142.992188 64.019532 142.992188 142.992188zm0 0" fill="url(#e)"/><path d="m454.953125 175.34375c0 65.332031-52.960937 118.296875-118.296875 118.296875-65.332031 0-118.296875-52.964844-118.296875-118.296875 0-65.335938 52.964844-118.296875 118.296875-118.296875 65.335938 0 118.296875 52.960937 118.296875 118.296875zm0 0" fill="url(#f)"/><path d="m443.714844 175.34375c0 59.125-47.929688 107.058594-107.058594 107.058594-59.125 0-107.058594-47.933594-107.058594-107.058594 0-59.128906 47.933594-107.058594 107.058594-107.058594 59.128906 0 107.058594 47.929688 107.058594 107.058594zm0 0" fill="url(#g)"/><path d="m210.566406 493.238281c1.171875 1.515625 2.699219 2.792969 4.550782 3.667969 6.261718 2.960938 13.746093.285156 16.707031-5.980469l40.988281-86.671875c2.574219-5.4375.890625-11.792968-3.699219-15.3125l-113.433593-113.429687c-1.171876-1.515625-2.699219-2.792969-4.546876-3.667969-6.265624-2.960938-13.746093-.285156-16.710937 5.980469l-40.988281 86.667969c-2.574219 5.441406-.890625 11.792968 3.699218 15.3125zm0 0" fill="url(#h)"/><path d="m215.390625 508.789062c-3.261719-.511718-6.503906-1.097656-9.71875-1.738281-18.078125-3.605469-35.476563-9.105469-51.960937-16.304687-16.855469-7.359375-32.757813-16.472656-47.484376-27.113282-15.210937-10.984374-29.15625-23.605468-41.59375-37.589843l14.234376-30.097657c2.960937-6.261718 10.453124-8.933593 16.714843-5.972656 1.847657.875 3.375 2.148438 4.550781 3.664063l108.070313 108.074219 5.359375 5.359374c.675781.511719 1.277344 1.09375 1.828125 1.71875zm0 0" fill="url(#i)"/><path d="m290.042969 452.414062c1.171875 1.515626 2.699219 2.789063 4.550781 3.664063 6.261719 2.964844 13.746094.285156 16.707031-5.980469l40.988281-86.671875c2.574219-5.4375.890626-11.789062-3.699218-15.308593l-113.433594-113.433594c-1.171875-1.515625-2.695312-2.792969-4.546875-3.667969-6.265625-2.960937-13.746094-.285156-16.710937 5.980469l-40.988282 86.671875c-2.570312 5.4375-.886718 11.792969 3.699219 15.3125zm0 0" fill="url(#j)"/><path d="m233.761719 511.046875c-6.191407-.53125-12.316407-1.285156-18.371094-2.257813-3.261719-.511718-6.503906-1.097656-9.71875-1.738281-18.078125-3.605469-35.476563-9.105469-51.960937-16.304687-16.855469-7.359375-32.757813-16.472656-47.484376-27.113282l18.160157-38.402343c.773437-1.644531 1.867187-3.050781 3.171875-4.164063 2.179687-1.867187 4.960937-2.933594 7.820312-3.011718 1.90625-.0625 3.863282.320312 5.710938 1.191406 1.847656.886718 3.375 2.160156 4.550781 3.675781l75.183594 75.183594zm0 0" fill="url(#k)"/><path d="m297.261719 479.933594-.683594 1.4375-1.917969 4.015625-10.410156 21.792969-1.644531 3.445312-.230469.5-.433594-.429688c-8.523437.863282-17.1875 1.304688-25.941406 1.304688-4.820312 0-9.609375-.128906-14.355469-.402344l-15.070312-15.066406-84.597657-84.601562c-4.589843-3.515626-6.277343-9.867188-3.707031-15.308594l20.601563-43.121094c2.960937-6.261719 10.441406-8.933594 16.703125-5.972656 1.859375.875 3.386719 2.148437 4.558593 3.664062l67.59375 67.59375 12.371094 12.367188 33.46875 33.472656c4.589844 3.523438 6.265625 9.867188 3.695313 15.308594zm0 0" fill="url(#l)"/><path d="m314.546875 505.273438c-8.953125 2.097656-18.078125 3.714843-27.363281 4.839843-1.519532.191407-3.042969.359375-4.578125.511719l-.230469.5-.433594-.429688c-8.523437.863282-17.1875 1.304688-25.941406 1.304688-4.820312 0-9.609375-.128906-14.355469-.402344-2.640625-.140625-5.269531-.320312-7.882812-.550781-6.191407-.53125-12.316407-1.285156-18.371094-2.257813-3.261719-.511718-6.503906-1.097656-9.71875-1.738281-18.078125-3.605469-35.476563-9.105469-51.960937-16.304687l13.972656-29.554688 3.476562-7.359375 1.734375-3.652343 2.351563-4.980469 17.867187-37.789063c2.960938-6.261718 10.453125-8.945312 16.714844-5.980468 1.847656.882812 3.375 2.15625 4.550781 3.671874l39.402344 39.40625zm0 0" fill="url(#m)"/><path d="m385.585938 419.148438-18.742188 39.625-1.777344 3.753906-14.949218 31.613281c-9.976563 3.945313-20.257813 7.289063-30.800782 9.96875l-22.738281-22.738281-40.890625-40.902344-45.777344-45.777344c-4.589844-3.511718-6.273437-9.867187-3.703125-15.308594l.679688-1.4375 2.792969-5.902343 13.652343-28.882813 23.863281-50.445312c2.960938-6.265625 10.441407-8.945313 16.707032-5.984375 1.855468.882812 3.382812 2.15625 4.554687 3.675781l27.238281 27.234375 86.195313 86.195313c4.578125 3.515624 6.265625 9.871093 3.695313 15.3125zm0 0" fill="url(#n)"/><path d="m381.640625 479.101562c-10.097656 5.703126-20.628906 10.730469-31.523437 15.039063-9.976563 3.945313-20.257813 7.289063-30.800782 9.96875-1.585937.402344-3.171875.792969-4.769531 1.164063-8.953125 2.097656-18.078125 3.714843-27.363281 4.839843l-48.660156-48.660156c-4.589844-3.515625-6.277344-9.867187-3.707032-15.308594l6.605469-13.996093 1.910156-4.035157 4.394531-9.328125 2.792969-5.902344 13.25-28.078124c.132813-.273438.273438-.542969.414063-.792969 3.199218-5.695313 10.296875-8.011719 16.292968-5.183594 1.855469.875 3.382813 2.148437 4.558594 3.664063l39.542969 39.546874zm0 0" fill="url(#o)"/><path d="m444.324219 422.390625-6.535157 13.84375c-15.648437 15.792969-33.339843 29.546875-52.644531 40.839844l-18.300781-18.300781-40.488281-40.5-45.667969-45.667969c-4.589844-3.515625-6.277344-9.867188-3.707031-15.308594l18.714843-39.65625 7.1875-15.230469 3.050782-6.453125c2.964844-6.265625 10.441406-8.9375 16.707031-5.972656 1.855469.871094 3.382813 2.148437 4.558594 3.664063l113.433593 113.433593c4.585938 3.523438 6.261719 9.867188 3.691407 15.308594zm0 0" fill="url(#p)"/><path d="m281.941406 510.695312c-8.523437.863282-17.1875 1.304688-25.941406 1.304688-4.820312 0-9.609375-.128906-14.355469-.402344-2.640625-.140625-5.269531-.320312-7.882812-.550781-6.191407-.53125-12.316407-1.285156-18.371094-2.257813-3.261719-.511718-3.753906-14.335937-3.753906-14.335937l1.777343-3.757813 2.347657-4.976562 5.664062-11.96875c2.960938-6.265625 10.449219-8.933594 16.714844-5.972656 1.324219.632812 2.488281 1.464844 3.472656 2.449218.382813.382813.742188.792969 1.074219 1.214844zm0 0" fill="url(#q)"/><path d="m395.363281 470.769531c-35.628906 23.179688-77.390625 37.714844-122.316406 40.667969-3.734375-3.625-4.941406-9.367188-2.589844-14.347656l40.988281-86.667969c2.964844-6.261719 10.441407-8.945313 16.707032-5.980469 1.855468.882813 3.382812 2.15625 4.558594 3.671875zm0 0" fill="url(#r)"/><path d="m478.027344 383.519531c-19.414063 33.742188-46.3125 62.632813-78.417969 84.429688l-70.984375-71c-4.589844-3.511719-6.277344-9.867188-3.707031-15.308594l40.992187-86.667969c2.960938-6.265625 10.441406-8.945312 16.703125-5.984375 1.859375.882813 3.382813 2.160157 4.558594 3.675781zm0 0" fill="url(#s)"/><path d="m38.3125 510.792969c-6.265625-2.964844-8.941406-10.445313-5.980469-16.710938l16.3125-34.484375c2.960938-6.265625 10.441407-8.945312 16.707031-5.980468 6.265626 2.960937 8.941407 10.445312 5.980469 16.710937l-16.308593 34.484375c-2.964844 6.265625-10.445313 8.941406-16.710938 5.980469zm0 0" fill="url(#u)"/><path d="m70.929688 441.820312c-6.265626-2.964843-8.941407-10.445312-5.976563-16.710937l13.734375-29.042969c2.960938-6.265625 10.441406-8.941406 16.707031-5.980468 6.265625 2.964843 8.945313 10.445312 5.980469 16.710937l-13.734375 29.042969c-2.960937 6.265625-10.445313 8.941406-16.710937 5.980468zm0 0" fill="url(#v)"/><path d="m99.6875 381.011719c-6.265625-2.960938-8.941406-10.441407-5.980469-16.707031l37.339844-78.957032c2.960937-6.265625 10.445313-8.945312 16.710937-5.980468 6.265626 2.960937 8.941407 10.445312 5.976563 16.710937l-37.339844 78.953125c-2.960937 6.265625-10.441406 8.945312-16.707031 5.980469zm0 0" fill="url(#w)"/><path d="m98.210938 510.792969c-6.265626-2.964844-8.941407-10.445313-5.980469-16.710938l32.40625-68.519531c2.960937-6.265625 10.441406-8.941406 16.707031-5.980469 6.265625 2.964844 8.945312 10.445313 5.980469 16.710938l-32.402344 68.519531c-2.964844 6.265625-10.445313 8.941406-16.710937 5.980469zm0 0" fill="url(#x)"/><path d="m144.5625 412.777344c-6.265625-2.964844-8.941406-10.445313-5.976562-16.710938l20.171874-42.652344c2.960938-6.265624 10.441407-8.945312 16.707032-5.980468s8.945312 10.445312 5.980468 16.710937l-20.171874 42.65625c-2.964844 6.261719-10.445313 8.9375-16.710938 5.976563zm0 0" fill="url(#y)"/><path d="m178.898438 340.171875c-6.265626-2.960937-8.941407-10.441406-5.980469-16.707031l18.027343-38.117188c2.964844-6.265625 10.445313-8.941406 16.710938-5.980468 6.265625 2.960937 8.941406 10.445312 5.976562 16.710937l-18.023437 38.117187c-2.964844 6.261719-10.445313 8.941407-16.710937 5.976563zm0 0" fill="url(#z)"/><path d="m158.109375 510.792969c-6.265625-2.964844-8.941406-10.445313-5.980469-16.710938l40.988282-86.667969c2.964843-6.265624 10.445312-8.945312 16.710937-5.980468 6.265625 2.960937 8.941406 10.441406 5.980469 16.707031l-40.988282 86.671875c-2.964843 6.265625-10.445312 8.941406-16.710937 5.980469zm0 0" fill="url(#A)"/><path d="m212.1875 396.441406c-6.265625-2.964844-8.941406-10.445312-5.980469-16.710937l44.636719-94.386719c2.964844-6.261719 10.445312-8.941406 16.710938-5.976562 6.265624 2.960937 8.941406 10.441406 5.980468 16.707031l-44.636718 94.386719c-2.964844 6.265624-10.445313 8.941406-16.710938 5.980468zm0 0" fill="url(#B)"/><path d="m218.007812 510.792969c-6.265624-2.964844-8.941406-10.445313-5.980468-16.710938l9.441406-19.964843c2.964844-6.265626 10.445312-8.941407 16.710938-5.980469 6.265624 2.964843 8.941406 10.445312 5.980468 16.710937l-9.441406 19.964844c-2.964844 6.265625-10.445312 8.941406-16.710938 5.980469zm0 0" fill="url(#C)"/><path d="m240.753906 462.691406c-6.265625-2.960937-8.941406-10.441406-5.976562-16.707031l28.96875-61.261719c2.960937-6.265625 10.445312-8.941406 16.710937-5.980468 6.265625 2.964843 8.941407 10.445312 5.976563 16.710937l-28.96875 61.261719c-2.964844 6.261718-10.445313 8.941406-16.710938 5.976562zm0 0" fill="url(#D)"/><path d="m282.816406 373.753906c-6.265625-2.964844-8.945312-10.445312-5.980468-16.710937l33.90625-71.695313c2.960937-6.265625 10.445312-8.945312 16.710937-5.980468 6.261719 2.960937 8.941406 10.445312 5.976563 16.710937l-33.90625 71.695313c-2.960938 6.265624-10.441407 8.941406-16.707032 5.980468zm0 0" fill="url(#E)"/><path d="m277.90625 510.792969c-6.265625-2.964844-8.941406-10.445313-5.980469-16.710938l39.488281-83.496093c2.960938-6.261719 10.441407-8.941407 16.707032-5.976563 6.265625 2.960937 8.945312 10.441406 5.980468 16.707031l-39.484374 83.496094c-2.964844 6.265625-10.445313 8.941406-16.710938 5.980469zm0 0" fill="url(#F)"/><path d="m331.125 398.253906c-6.265625-2.960937-8.941406-10.441406-5.976562-16.707031l45.492187-96.199219c2.960937-6.265625 10.445313-8.941406 16.710937-5.980468 6.265626 2.960937 8.941407 10.445312 5.976563 16.710937l-45.492187 96.199219c-2.964844 6.265625-10.445313 8.941406-16.710938 5.976562zm0 0" fill="url(#G)"/><path d="m245.511719 284.472656c-2.152344 7.53125 7.199219 12.933594 12.648437 7.304688v-.003906c23-23.773438 63.164063-13.007813 71.195313 19.078124 1.902343 7.597657 12.703125 7.597657 14.601562 0 8.03125-32.085937 48.199219-42.847656 71.199219-19.078124v.003906c5.445312 5.628906 14.800781.226562 12.644531-7.304688 5.390625-1.367187 18.269531-13.492187 18.269531-13.492187l-85.980468-85.976563c-9.058594-9.605468-21.898438-15.613281-36.148438-15.613281-10.089844 0-19.472656 3.019531-27.308594 8.1875-.125-.121094-12.058593-12.0625-12.757812-12.738281-17.242188-17.78125-41.378906-28.839844-68.105469-28.839844-17.363281 0-33.632812 4.667969-47.632812 12.8125 31.210937 8.675781 41.445312 48.167969 17.953125 70.894531-5.628906 5.449219-.230469 14.800781 7.300781 12.648438 31.804687-9.089844 61.210937 20.316406 52.121094 52.117187zm0 0" fill="url(#H)"/><path d="m373.640625 230.875c-.476563 0-.949219.007812-1.421875.019531.921875-3.785156 1.421875-7.734375 1.421875-11.804687 0-27.445313-22.25-49.695313-49.699219-49.695313-10.796875 0-20.78125 3.453125-28.929687 9.300781-16.972657-25.71875-46.121094-42.695312-79.242188-42.695312-52.398437 0-94.875 42.476562-94.875 94.875 0 .320312.011719.640625.015625.960938-33.289062 5.539062-58.667968 34.464843-58.667968 69.324218 0 38.816406 31.46875 70.28125 70.285156 70.28125h241.113281c38.816406 0 70.285156-31.464844 70.285156-70.28125 0-38.820312-31.46875-70.285156-70.285156-70.285156zm0 0" fill="url(#J)"/><path d="m443.925781 301.160156c0 38.816406-31.46875 70.28125-70.285156 70.28125s-70.285156-31.464844-70.285156-70.28125 31.46875-70.285156 70.285156-70.285156 70.285156 31.46875 70.285156 70.285156zm0 0" fill="url(#L)"/><path d="m373.640625 219.089844c0 27.449218-22.25 49.699218-49.699219 49.699218-27.445312 0-49.695312-22.25-49.695312-49.699218 0-27.445313 22.25-49.695313 49.695312-49.695313 27.449219 0 49.699219 22.25 49.699219 49.695313zm0 0" fill="url(#M)"/><path d="m310.644531 230.875c0 52.398438-42.476562 94.875-94.875 94.875-52.394531 0-94.871093-42.476562-94.871093-94.875s42.476562-94.875 94.871093-94.875c52.398438 0 94.875 42.476562 94.875 94.875zm0 0" fill="url(#N)"/><path d="m202.808594 301.160156c0 38.816406-31.464844 70.28125-70.28125 70.28125s-70.285156-31.464844-70.285156-70.28125 31.46875-70.285156 70.285156-70.285156 70.28125 31.46875 70.28125 70.285156zm0 0" fill="url(#O)"/><path d="m62.894531 310.730469c4.671875 34.289062 34.0625 60.710937 69.632813 60.710937h241.113281c35.570313 0 64.960937-26.421875 69.632813-60.710937zm0 0" fill="url(#P)"/><path d="m332.367188 371.441406-3.667969-3.664062c-5.207031-5.625-12.648438-9.148438-20.914063-9.148438-.097656 0-.195312.007813-.289062.011719-.058594-.054687-.113282-.113281-.171875-.167969l-18.808594-18.808594c-8.183594-8.570312-19.710937-13.914062-32.492187-13.914062-24.816407 0-44.9375 20.117188-44.9375 44.9375 0 .125.007812.246094.007812.367188-.535156.109374-1.0625.242187-1.582031.390624h122.855469zm0 0" fill="url(#Q)"/><path d="m211.09375 371.054688c0-.125-.007812-.246094-.007812-.367188 0-24.820312 20.121093-44.9375 44.9375-44.9375 21.070312 0 38.746093 14.503906 43.605468 34.066406 2.585938-.769531 5.320313-1.191406 8.15625-1.191406 15.738282 0 28.496094 12.761719 28.496094 28.5s-12.757812 28.5-28.496094 28.5c-9.101562 0-85.75 0-92.175781 0-12.429687 0-22.507813-10.078125-22.507813-22.511719-.003906-10.886719 7.726563-19.96875 17.992188-22.058593zm0 0" fill="url(#R)"/></svg>