<svg height="512pt" viewBox="0 0 512 512.00119" width="512pt" xmlns="http://www.w3.org/2000/svg" xmlns:xlink="http://www.w3.org/1999/xlink"><radialGradient id="a" cx="215.8440257844" cy="185.726757" gradientUnits="userSpaceOnUse" r="336.6901399656"><stop offset="0" stop-color="#3b395f"/><stop offset=".3952" stop-color="#39375d"/><stop offset=".6279" stop-color="#323154"/><stop offset=".8179" stop-color="#262846"/><stop offset=".9849" stop-color="#151a32"/><stop offset="1" stop-color="#131830"/></radialGradient><linearGradient id="b"><stop offset="0" stop-color="#131830" stop-opacity="0"/><stop offset=".8421" stop-color="#131830"/></linearGradient><linearGradient id="c" gradientUnits="userSpaceOnUse" x1="535.7389522588" x2="143.2057514354" xlink:href="#b" y1="399.4450856948" y2="198.6603845182"/><linearGradient id="d" gradientUnits="userSpaceOnUse" x1="258.5824912074" x2="159.519785112" xlink:href="#b" y1="521.1318768056" y2="422.0691707102"/><radialGradient id="e" cx="352.539852364" cy="73.6698868898" gradientUnits="userSpaceOnUse" r="194.3880113692"><stop offset="0" stop-color="#ffebc9"/><stop offset=".2771" stop-color="#ffe9c5"/><stop offset=".5263" stop-color="#fee2bb"/><stop offset=".7641" stop-color="#fdd7a8"/><stop offset=".9948" stop-color="#fbc78f"/><stop offset="1" stop-color="#fbc78e"/></radialGradient><linearGradient id="f" gradientUnits="userSpaceOnUse" x1="414.8634305162" x2="67.6314068052" y1="405.6493236548" y2="58.4172999438"><stop offset="0" stop-color="#e58200" stop-opacity="0"/><stop offset=".0396" stop-color="#e27f04" stop-opacity=".039216"/><stop offset=".4671" stop-color="#c15d2f" stop-opacity=".466667"/><stop offset=".8016" stop-color="#ad4949" stop-opacity=".8"/><stop offset="1" stop-color="#a64153"/></linearGradient><radialGradient id="g" cx="160.8642374544" cy="139.1711793486" gradientUnits="userSpaceOnUse" r="279.2625890152"><stop offset="0" stop-color="#ecf7ff"/><stop offset=".3473" stop-color="#e9f5ff"/><stop offset=".62" stop-color="#dff0ff"/><stop offset=".8666" stop-color="#cee7ff"/><stop offset="1" stop-color="#c2e0ff"/></radialGradient><linearGradient id="h"><stop offset=".0029" stop-color="#c2e0ff" stop-opacity="0"/><stop offset=".0763" stop-color="#bfdcfd" stop-opacity=".07451"/><stop offset="1" stop-color="#9eb2e7"/></linearGradient><linearGradient id="i" gradientUnits="userSpaceOnUse" x1="338.6692644432" x2="378.9227217396" xlink:href="#h" y1="325.6129473034" y2="204.1700088464"/><linearGradient id="j" gradientUnits="userSpaceOnUse" x1="292.6194626954" x2="344.3732480706" xlink:href="#h" y1="242.531675526" y2="165.7986041234"/><linearGradient id="k" gradientUnits="userSpaceOnUse" x1="187.1977138676" x2="187.1977138676" xlink:href="#h" y1="259.013063" y2="124.1133532706"/><linearGradient id="l" gradientUnits="userSpaceOnUse" x1="108.1235967532" x2="26.4257294918" xlink:href="#h" y1="324.4496024898" y2="247.238563823"/><linearGradient id="m" gradientUnits="userSpaceOnUse" x1="223.1785795242" x2="223.1785795242" xlink:href="#h" y1="341.9723582544" y2="436.3340991926"/><linearGradient id="n" gradientUnits="userSpaceOnUse" x1="215.7351002474" x2="116.9707597704" xlink:href="#h" y1="434.1819916012" y2="335.417550732"/><linearGradient id="o" gradientUnits="userSpaceOnUse" x1="217.206147154" x2="99.5099459932" xlink:href="#h" y1="460.4428844538" y2="342.7465829008"/><linearGradient id="p"><stop offset="0" stop-color="#00c6f6"/><stop offset=".8567" stop-color="#0b9cfd"/><stop offset="1" stop-color="#0d94fe"/></linearGradient><linearGradient id="q" gradientUnits="userSpaceOnUse" x1="17.833261486" x2="149.0472723768" xlink:href="#p" y1="358.4764343656" y2="489.6904452564"/><linearGradient id="r" gradientUnits="userSpaceOnUse" x1="69.3492177394" x2="200.5635298068" xlink:href="#p" y1="306.9594741902" y2="438.1737862576"/><linearGradient id="s" gradientUnits="userSpaceOnUse" x1="17.832759525" x2="149.0472723768" xlink:href="#p" y1="358.4758320124" y2="489.6904452564"/><linearGradient id="t" gradientUnits="userSpaceOnUse" x1="69.3491173472" x2="200.5637305912" xlink:href="#p" y1="306.9594741902" y2="438.1740874342"/><linearGradient id="u" gradientUnits="userSpaceOnUse" x1="7.164080431" x2="138.3783924984" xlink:href="#p" y1="369.144310322" y2="500.3586223894"/><linearGradient id="v" gradientUnits="userSpaceOnUse" x1="80.0179972256" x2="211.2316065476" xlink:href="#p" y1="296.291196665" y2="427.5049063792"/><linearGradient id="w" gradientUnits="userSpaceOnUse" x1="43.591390201" x2="174.8052003074" xlink:href="#p" y1="332.7181048662" y2="463.9319149726"/><linearGradient id="x" gradientUnits="userSpaceOnUse" x1="43.5915909854" x2="174.8057022684" xlink:href="#p" y1="332.7183056506" y2="463.9324169336"/><linearGradient id="y"><stop offset="0" stop-color="#0d94fe" stop-opacity="0"/><stop offset=".5142" stop-color="#0681cd" stop-opacity=".513725"/><stop offset="1" stop-color="#0070a2"/></linearGradient><linearGradient id="z" gradientUnits="userSpaceOnUse" x1="147.651419228" x2="120.8412806492" xlink:href="#y" y1="455.6375114086" y2="428.8272724376"/><linearGradient id="A" gradientUnits="userSpaceOnUse" x1="146.7731882624" x2="121.677949244" xlink:href="#y" y1="480.7897731966" y2="455.6946345704"/><linearGradient id="B" gradientUnits="userSpaceOnUse" x1="166.442831224" x2="139.7125044442" xlink:href="#y" y1="436.7014342524" y2="409.9710070804"/><linearGradient id="C" gradientUnits="userSpaceOnUse" x1="191.5196984698" x2="165.8577454824" xlink:href="#y" y1="436.191241092" y2="410.5292881046"/><linearGradient id="D" gradientUnits="userSpaceOnUse" x1="183.6727429412" x2="127.5606309874" xlink:href="#y" y1="472.7993572142" y2="416.6872452604"/><linearGradient id="E" gradientUnits="userSpaceOnUse" x1="151.5259557948" x2="127.6717651528" xlink:href="#y" y1="367.7201465728" y2="343.866056323"/><linearGradient id="F" gradientUnits="userSpaceOnUse" x1="202.1662912798" x2="159.1369896534" xlink:href="#y" y1="374.603638158" y2="366.0548407592"/><linearGradient id="G" gradientUnits="userSpaceOnUse" x1="109.0206010602" x2="249.5524136018" xlink:href="#p" y1="316.3394186128" y2="456.8712311544"/><linearGradient id="H" gradientUnits="userSpaceOnUse" x1="27.2123023788" x2="167.7441149204" xlink:href="#p" y1="398.1469141566" y2="538.678626306"/><linearGradient id="I" gradientUnits="userSpaceOnUse" x1="109.020500668" x2="249.552012033" xlink:href="#p" y1="316.3388162596" y2="456.8703276246"/><linearGradient id="J" gradientUnits="userSpaceOnUse" x1="27.2128043398" x2="167.743914136" xlink:href="#p" y1="398.1472153332" y2="538.6782247372"/><linearGradient id="K" gradientUnits="userSpaceOnUse" x1="119.500442426" x2="260.031953791" xlink:href="#p" y1="305.8598784236" y2="446.3913897886"/><linearGradient id="L" gradientUnits="userSpaceOnUse" x1="16.7331637584" x2="157.2647755156" xlink:href="#p" y1="408.6268559146" y2="549.158568064"/><linearGradient id="M" gradientUnits="userSpaceOnUse" x1="68.1168030922" x2="208.6480132806" xlink:href="#p" y1="357.2434173652" y2="497.7746275536"/><linearGradient id="N" gradientUnits="userSpaceOnUse" x1="68.1166023078" x2="208.648716026" xlink:href="#p" y1="357.243316973" y2="497.7754306912"/><linearGradient id="O" gradientUnits="userSpaceOnUse" x1="168.3188602654" x2="111.5422523398" xlink:href="#y" y1="426.5600149928" y2="356.9629215584"/><linearGradient id="P" gradientUnits="userSpaceOnUse" x1="126.5952595922" x2="69.0243485802" xlink:href="#y" y1="461.9457556878" y2="391.3748579134"/><linearGradient id="Q" gradientUnits="userSpaceOnUse" x1="172.7662347254" x2="114.8833047558" xlink:href="#y" y1="424.7594808858" y2="353.8061892216"/><linearGradient id="R" gradientUnits="userSpaceOnUse" x1="147.184595498" x2="89.3008623908" xlink:href="#y" y1="445.629111814" y2="374.67491662"/><linearGradient id="S"><stop offset="0" stop-color="#ecf7ff"/><stop offset="1" stop-color="#c2e0ff"/></linearGradient><radialGradient id="T" cx="129.2300528812" cy="418.3567675464" gradientUnits="userSpaceOnUse" r="23.1808601566" xlink:href="#S"/><linearGradient id="U" gradientUnits="userSpaceOnUse" x1="113.7212650408" x2="188.173726836" xlink:href="#p" y1="402.847979706" y2="477.3005418934"/><radialGradient id="V" cx="93.454690058" cy="368.4368464886" gradientUnits="userSpaceOnUse" r="145.0855023414" xlink:href="#S"/><radialGradient id="W" cx="93.4542884892" cy="368.4368464886" gradientUnits="userSpaceOnUse" r="145.085803518" xlink:href="#S"/><radialGradient id="X" cx="93.454690058" cy="368.4364449198" gradientUnits="userSpaceOnUse" r="145.0857031258" xlink:href="#S"/><radialGradient id="Y" cx="93.4542884892" cy="368.4364449198" gradientUnits="userSpaceOnUse" r="145.0852011648" xlink:href="#S"/><radialGradient id="Z" cx="93.4535857438" cy="368.436545312" gradientUnits="userSpaceOnUse" r="145.0867070478" xlink:href="#S"/><radialGradient id="aa" cx="93.4535857438" cy="368.4358425666" gradientUnits="userSpaceOnUse" r="145.08680744" xlink:href="#S"/><radialGradient id="ab" cx="93.4547904502" cy="368.436545312" gradientUnits="userSpaceOnUse" r="145.0870082244" xlink:href="#S"/><radialGradient id="ac" cx="93.4547904502" cy="368.4358425666" gradientUnits="userSpaceOnUse" r="145.0870082244" xlink:href="#S"/><linearGradient id="ad"><stop offset="0" stop-color="#fff" stop-opacity="0"/><stop offset="1" stop-color="#fff"/></linearGradient><linearGradient id="ae" gradientUnits="userSpaceOnUse" x1="177.7091450846" x2="21.4084285124" xlink:href="#ad" y1="481.3030785152" y2="278.3578368024"/><linearGradient id="af" gradientUnits="userSpaceOnUse" x1="189.9156318982" x2="33.6142125806" xlink:href="#ad" y1="471.9028548682" y2="268.9566092334"/><linearGradient id="ag" gradientUnits="userSpaceOnUse" x1="218.2255295528" x2="61.92250396" xlink:href="#ad" y1="450.1006807942" y2="247.1524273154"/><linearGradient id="ah" gradientUnits="userSpaceOnUse" x1="137.211132389" x2="-19.089985752" xlink:href="#ad" y1="512.4932283878" y2="309.5473843218"/><linearGradient id="ai" gradientUnits="userSpaceOnUse" x1="165.5206284748" x2="9.2179040586" xlink:href="#ad" y1="490.6904519606" y2="287.7427004428"/><linearGradient id="aj" gradientUnits="userSpaceOnUse" x1="222.8359409456" x2="66.5341200592" xlink:href="#ad" y1="446.5486039738" y2="243.6019567702"/><linearGradient id="ak" gradientUnits="userSpaceOnUse" x1="201.0331645184" x2="44.7295365724" xlink:href="#ad" y1="463.3404041302" y2="260.391447906"/><linearGradient id="al" gradientUnits="userSpaceOnUse" x1="154.4033970312" x2="-1.8984238552" xlink:href="#ad" y1="499.2530030908" y2="296.306255495"/><linearGradient id="am" gradientUnits="userSpaceOnUse" x1="132.601122565" x2="-23.702505381" xlink:href="#ad" y1="516.0454056004" y2="313.096348984"/><linearGradient id="an" gradientUnits="userSpaceOnUse" x1="417.4668010466" x2="371.9721681648" xlink:href="#b" y1="505.8085133586" y2="460.313980869"/><linearGradient id="ao" gradientUnits="userSpaceOnUse" x1="295.3301524876" x2="375.9822342016" xlink:href="#p" y1="415.3376729158" y2="495.989855022"/><linearGradient id="ap" gradientUnits="userSpaceOnUse" x1="326.9949566818" x2="407.6473395724" xlink:href="#p" y1="383.6721659762" y2="464.3245488668"/><linearGradient id="aq" gradientUnits="userSpaceOnUse" x1="295.3297509188" x2="375.982434986" xlink:href="#p" y1="415.337271347" y2="495.989855022"/><linearGradient id="ar" gradientUnits="userSpaceOnUse" x1="326.995057074" x2="407.6473395724" xlink:href="#p" y1="383.6723667606" y2="464.324649259"/><linearGradient id="as" gradientUnits="userSpaceOnUse" x1="288.7705261396" x2="369.4257200118" xlink:href="#p" y1="421.8926812226" y2="502.547975487"/><linearGradient id="at" gradientUnits="userSpaceOnUse" x1="333.552675578" x2="414.2046568998" xlink:href="#p" y1="377.1145474722" y2="457.766528794"/><linearGradient id="au" gradientUnits="userSpaceOnUse" x1="311.1625043886" x2="391.8151884558" xlink:href="#p" y1="399.5045178772" y2="480.1572019444"/><linearGradient id="av" gradientUnits="userSpaceOnUse" x1="311.1628055652" x2="391.8148872792" xlink:href="#p" y1="399.5050198382" y2="480.1572019444"/><linearGradient id="aw" gradientUnits="userSpaceOnUse" x1="375.1244832448" x2="358.6451036148" xlink:href="#y" y1="475.0586836752" y2="458.5793040452"/><linearGradient id="ax" gradientUnits="userSpaceOnUse" x1="374.5842728166" x2="359.1595132476" xlink:href="#y" y1="490.5187812986" y2="475.0940217296"/><linearGradient id="ay" gradientUnits="userSpaceOnUse" x1="386.6746058548" x2="370.244518795" xlink:href="#y" y1="463.4194127916" y2="446.9893257318"/><linearGradient id="az" gradientUnits="userSpaceOnUse" x1="402.088422674" x2="386.3150009944" xlink:href="#y" y1="463.1056871666" y2="447.3323658792"/><linearGradient id="aA" gradientUnits="userSpaceOnUse" x1="397.265079425" x2="362.7752387228" xlink:href="#y" y1="485.6073940902" y2="451.1174529958"/><linearGradient id="aB" gradientUnits="userSpaceOnUse" x1="377.5059870132" x2="362.843605811" xlink:href="#y" y1="421.0193694748" y2="406.3569882726"/><linearGradient id="aC" gradientUnits="userSpaceOnUse" x1="408.632488231" x2="382.1838619644" xlink:href="#y" y1="425.2501979594" y2="419.9955698192"/><linearGradient id="aD" gradientUnits="userSpaceOnUse" x1="351.3795193164" x2="437.7584740794" xlink:href="#p" y1="389.43758963" y2="475.816544393"/><linearGradient id="aE" gradientUnits="userSpaceOnUse" x1="301.0945722194" x2="387.4746312966" xlink:href="#p" y1="439.721030844" y2="526.1010899212"/><linearGradient id="aF" gradientUnits="userSpaceOnUse" x1="351.378816571" x2="437.7586748638" xlink:href="#p" y1="389.4369872768" y2="475.8168455696"/><linearGradient id="aG" gradientUnits="userSpaceOnUse" x1="301.095375357" x2="387.4744305122" xlink:href="#p" y1="439.7217335894" y2="526.1008891368"/><linearGradient id="aH" gradientUnits="userSpaceOnUse" x1="357.820984045" x2="444.2002399846" xlink:href="#p" y1="382.9961249014" y2="469.3754812332"/><linearGradient id="aI" gradientUnits="userSpaceOnUse" x1="294.6539106284" x2="381.033166568" xlink:href="#p" y1="446.1629975336" y2="532.5422534732"/><linearGradient id="aJ" gradientUnits="userSpaceOnUse" x1="326.2374975328" x2="412.616552688" xlink:href="#p" y1="414.5795110214" y2="500.9586665688"/><linearGradient id="aK" gradientUnits="userSpaceOnUse" x1="326.2372967484" x2="412.6164522958" xlink:href="#p" y1="414.5795110214" y2="500.9586665688"/><linearGradient id="aL" gradientUnits="userSpaceOnUse" x1="387.8276102718" x2="352.9294744922" xlink:href="#y" y1="457.185759917" y2="414.4074387906"/><linearGradient id="aM" gradientUnits="userSpaceOnUse" x1="362.1818204286" x2="326.7951762038" xlink:href="#y" y1="478.9361316158" y2="435.5589710164"/><linearGradient id="aN" gradientUnits="userSpaceOnUse" x1="390.5615910544" x2="354.9826957666" xlink:href="#y" y1="456.0796386574" y2="412.4667571724"/><linearGradient id="aO" gradientUnits="userSpaceOnUse" x1="374.8376627294" x2="339.2583658728" xlink:href="#y" y1="468.9073524046" y2="425.2940693508"/><radialGradient id="aP" cx="363.8012470068" cy="452.1434612798" gradientUnits="userSpaceOnUse" r="14.2485645538" xlink:href="#S"/><linearGradient id="aQ" gradientUnits="userSpaceOnUse" x1="354.268606048" x2="400.0316876726" xlink:href="#p" y1="442.6109207132" y2="488.3739019456"/><radialGradient id="aR" cx="341.8121426564" cy="421.4599908406" gradientUnits="userSpaceOnUse" r="89.1740743954" xlink:href="#S"/><radialGradient id="aS" cx="341.810435989" cy="421.4599908406" gradientUnits="userSpaceOnUse" r="89.1812022416" xlink:href="#S"/><radialGradient id="aT" cx="341.8121426564" cy="421.46270143" gradientUnits="userSpaceOnUse" r="89.1741747876" xlink:href="#S"/><radialGradient id="aU" cx="341.810435989" cy="421.46270143" gradientUnits="userSpaceOnUse" r="89.1756806706" xlink:href="#S"/><radialGradient id="aV" cx="341.8096328514" cy="421.4605931938" gradientUnits="userSpaceOnUse" r="89.1801983196" xlink:href="#S"/><radialGradient id="aW" cx="341.8096328514" cy="421.4582841732" gradientUnits="userSpaceOnUse" r="89.1810014572" xlink:href="#S"/><radialGradient id="aX" cx="341.8121426564" cy="421.4605931938" gradientUnits="userSpaceOnUse" r="89.1752791018" xlink:href="#S"/><radialGradient id="aY" cx="341.8121426564" cy="421.4582841732" gradientUnits="userSpaceOnUse" r="89.1811018494" xlink:href="#S"/><linearGradient id="aZ" gradientUnits="userSpaceOnUse" x1="393.5995594186" x2="297.5275369612" xlink:href="#ad" y1="490.8343139832" y2="366.0916846966"/><linearGradient id="a0" gradientUnits="userSpaceOnUse" x1="401.1022700934" x2="305.0301472438" xlink:href="#ad" y1="485.05614052" y2="360.3134108412"/><linearGradient id="a1" gradientUnits="userSpaceOnUse" x1="418.5034509038" x2="322.4300229556" xlink:href="#ad" y1="471.6553880952" y2="346.910951749"/><linearGradient id="a2" gradientUnits="userSpaceOnUse" x1="368.7063095066" x2="272.6379011684" xlink:href="#ad" y1="510.0047065342" y2="385.266795681"/><linearGradient id="a3" gradientUnits="userSpaceOnUse" x1="386.107490317" x2="290.0377768802" xlink:href="#ad" y1="496.6039541094" y2="371.8643365888"/><linearGradient id="a4" gradientUnits="userSpaceOnUse" x1="421.3365187878" x2="325.2664037822" xlink:href="#ad" y1="469.471255392" y2="344.7311359104"/><linearGradient id="a5" gradientUnits="userSpaceOnUse" x1="407.935766363" x2="311.8623384148" xlink:href="#ad" y1="479.7933806116" y2="355.0489442654"/><linearGradient id="a6" gradientUnits="userSpaceOnUse" x1="379.2730905176" x2="283.2030759042" xlink:href="#ad" y1="501.8656097036" y2="377.1255906142"/><linearGradient id="a7" gradientUnits="userSpaceOnUse" x1="365.8733420148" x2="269.7998136744" xlink:href="#ad" y1="512.1889396296" y2="387.4445032834"/><path d="m512 256c0 141.386719-114.613281 256-256 256-141.382812 0-256-114.613281-256-256 0-141.382812 114.617188-256 256-256 141.386719 0 256 114.617188 256 256zm0 0" fill="url(#a)"/><path d="m256 512c141.386719 0 256-114.613281 256-256 0-19.660156-2.222656-38.804688-6.421875-57.195312l-188.207031-191.378907c-5.074219-1.25-10.207032-2.359375-15.398438-3.300781-55.390625 31.488281-89.222656 96.5625-73.410156 167.558594.1875.851562.390625 1.703125.605469 2.558594-12.570313-6.503907-26.839844-10.183594-41.96875-10.183594-50.527344 0-91.488281 40.960937-91.488281 91.484375 0 .3125.011718.617187.011718.929687-32.097656 5.339844-56.570312 33.230469-56.570312 66.84375 0 20.5 9.113281 38.855469 23.492187 51.28125l129.328125 129.328125c20.464844 5.273438 41.917969 8.074219 64.027344 8.074219zm0 0" fill="url(#c)"/><path d="m335.339844 501.148438-1.253906-1.273438c-24.617188 7.878906-50.847657 12.125-78.085938 12.125-89.808594 0-168.820312-46.25-214.507812-116.234375.210937-.308594.460937-.601563.742187-.882813 2.863281-2.859374 7.511719-2.859374 10.371094 0l14.046875 14.046876h13.792968l-10.550781-11.085938c-.132812-.308594-.230469-.640625-.300781-.980469-.070312-.34375-.113281-.695312-.113281-1.054687 0-.351563.042969-.703125.113281-1.035156-.964844-.671876-1.769531-1.566407-2.320312-2.609376l-12.238282-12.238281c-2.328125-1.234375-3.914062-3.675781-3.914062-6.484375 0-4.058594 3.28125-7.339844 7.335937-7.339844h8.144531l-1.003906-1.003906c-2.863281-2.863281-2.863281-7.507812 0-10.371094 1.433594-1.433593 3.3125-2.148437 5.1875-2.148437 1.40625 0 2.8125.402344 4.039063 1.203125.410156.273438.792969.585938 1.152343.945312l.996094 1.003907v-8.152344c0-4.046875 3.28125-7.328125 7.335938-7.328125 2.8125 0 5.25 1.585938 6.488281 3.90625l12.246094 12.246094c1.035156.554687 1.925781 1.347656 2.589843 2.300781.339844-.070313.703126-.101563 1.066407-.101563.359375 0 .710937.03125 1.050781.101563.34375.070313.675781.167969.984375.308594.542969.234375 1.046875.554687 1.476563.945312l7.710937 8.230469c.542969.234375 1.035156.5625 1.476563.957031.140624.128907.269531.269531.398437.410157v-13.785157l-10.972656-10.972656-3.058594-3.0625c-2.875-2.859375-2.875-7.507813 0-10.367187 2.859375-2.871094 7.507813-2.871094 10.367187 0l3.0625 3.058593.632813.625c0-.039062.011719-.082031.011719-.121093.007812-.179688.039062-.371094.058594-.550782.019531-.121094.039062-.242187.0625-.363281.027343-.179687.070312-.359375.109374-.53125.03125-.121094.058594-.242187.101563-.363281.039063-.167969.097656-.339844.160156-.511719.039063-.109375.078125-.230469.117188-.339844.070312-.171875.140625-.332031.210937-.480469.050782-.121093.101563-.234374.164063-.34375.078125-.148437.160156-.300781.238281-.453124.070312-.109376.132812-.21875.203125-.320313.089844-.140625.179687-.28125.28125-.421875.070313-.097656.148437-.210938.230469-.308594.097656-.132812.199218-.261718.308594-.382812.082031-.101563.183593-.199219.273437-.300782.109375-.109374.210937-.230468.332031-.332031.097656-.101562.199219-.191406.308594-.289062.113281-.101563.222656-.203125.34375-.292969.117188-.089844.230469-.179688.351562-.261719.117188-.089843.238282-.179687.371094-.261719.121094-.078124.25-.160156.378906-.238281.132813-.070312.253907-.140625.382813-.210937.128906-.082032.28125-.140625.421875-.210938.128906-.0625.25-.121094.382812-.171875.148438-.070312.308594-.121093.46875-.171875.121094-.046875.253907-.097656.382813-.140625.171875-.046875.339844-.089843.523437-.128906.121094-.03125.238282-.058594.359376-.089844.203124-.039062.402343-.0625.601562-.089843.113281-.011719.210938-.042969.3125-.050782.3125-.03125.632812-.039062.945312-.039062.320313 0 .640626.007812.953126.039062.101562.007813.199218.039063.3125.050782.199218.027343.398437.050781.601562.089843.121094.03125.238281.058594.359375.089844.183594.039063.351563.082031.523437.128906.128907.042969.25.09375.382813.140625.160156.050782.308594.101563.46875.171875.132813.050781.253906.109375.382813.171875.140624.070313.28125.128906.421874.210938.128907.070312.25.140625.382813.210937.128906.078125.257813.160157.378906.238281.132813.082032.253907.171876.371094.261719.113281.082031.230469.171875.351563.261719.113281.089844.230468.191406.34375.292969.109374.097656.210937.1875.308593.289062.121094.101563.222657.222657.332031.332031.089844.101563.191407.199219.273438.300782.109375.121094.210938.25.308594.382812.082031.097656.160156.210938.230468.308594.101563.140625.191407.28125.28125.421875.019532.019531.03125.050781.050782.082031.070312.039063.140625.078125.210937.128906.132813.082032.25.171876.371094.261719.109375.082031.230469.160157.34375.25.117187.101563.238281.203125.351563.300781.109374.101563.210937.191407.308593.28125.121094.113282.222657.230469.332031.34375.089844.097657.191407.199219.269532.300782.113281.121094.210937.25.3125.382812.082031.097656.160156.207032.230468.308594.0625.082031.109376.160156.160157.242188l2.191406-2.1875c2.859375-2.871094 7.507813-2.871094 10.367187 0 .535157.53125.964844 1.121093 1.308594 1.753906l12.234375 12.25c.273438.140625.535157.308594.785157.480468.78125-3.210937 3.675781-5.601562 7.128906-5.601562 2.808594 0 5.25 1.585938 6.484375 3.90625 0 0 93.753906 94.398438 135.339843 136.875 9.011719 9.203125 15.570313 15.972656 18.199219 18.8125.59375.632812.984375 1.074219 1.164063 1.304688zm0 0" fill="url(#d)"/><path d="m450.882812 214.636719c-83.464843-.203125-151.699218-68.4375-151.902343-151.902344-.054688-21.75 4.460937-42.4375 12.628906-61.171875.457031-1.050781-.832031-2.089844-2.484375-1.265625-59.589844 29.804687-97.042969 97.382813-80.5625 171.386719 11.289062 50.691406 62.679688 102.085937 113.375 113.375 72.652344 16.179687 139.199219-19.582032 169.71875-77.324219 1.261719-2.386719-1.15625-5.03125-3.660156-4.027344-17.644532 7.09375-36.921875 10.980469-57.113282 10.929688zm0 0" fill="url(#e)"/><path d="m215.875 307.230469c-2.074219 7.261719 6.945312 12.46875 12.199219 7.042969v-.003907c22.175781-22.921875 60.910156-12.542969 68.652343 18.398438 1.835938 7.328125 12.246094 7.328125 14.082032 0 7.746094-30.941407 46.476562-41.320313 68.652344-18.398438v.003907c5.253906 5.425781 14.273437.21875 12.195312-7.042969-2.894531-10.140625-1.734375-20.023438 2.226562-28.398438l-67.519531-67.519531c-8.738281-9.261719-21.117187-15.054688-34.855469-15.054688-9.734374 0-18.777343 2.910157-26.335937 7.894532-.121094-.117188-11.628906-11.628906-12.300781-12.28125-16.628906-17.148438-39.902344-27.8125-65.675782-27.8125-16.742187 0-32.429687 4.503906-45.929687 12.355468 30.09375 8.367188 39.964844 46.445313 17.3125 68.363282-5.429687 5.25-.222656 14.269531 7.039063 12.195312 30.667968-8.765625 59.023437 19.589844 50.257812 50.257813zm0 0" fill="url(#f)"/><path d="m339.429688 255.542969c-.460938 0-.914063.007812-1.371094.019531.890625-3.648438 1.371094-7.457031 1.371094-11.378906 0-26.46875-21.457032-47.925782-47.921876-47.925782-10.414062 0-20.039062 3.332032-27.902343 8.972657-16.363281-24.800781-44.472657-41.171875-76.410157-41.171875-50.523437 0-91.484374 40.960937-91.484374 91.488281 0 .308594.007812.617187.011718.925781-32.097656 5.339844-56.570312 33.230469-56.570312 66.84375 0 37.433594 30.34375 67.777344 67.773437 67.777344h232.503907c37.429687 0 67.773437-30.34375 67.773437-67.777344 0-37.425781-30.34375-67.773437-67.773437-67.773437zm0 0" fill="url(#g)"/><path d="m407.203125 323.320312c0 37.429688-30.34375 67.773438-67.773437 67.773438-37.429688 0-67.773438-30.34375-67.773438-67.773438 0-37.429687 30.34375-67.773437 67.773438-67.773437 37.429687 0 67.773437 30.34375 67.773437 67.773437zm0 0" fill="url(#i)"/><path d="m339.429688 244.183594c0 26.464844-21.457032 47.921875-47.921876 47.921875-26.46875 0-47.925781-21.457031-47.925781-47.921875 0-26.46875 21.457031-47.925782 47.925781-47.925782 26.464844 0 47.921876 21.457032 47.921876 47.925782zm0 0" fill="url(#j)"/><path d="m278.683594 255.546875c0 50.523437-40.960938 91.484375-91.484375 91.484375-50.527344 0-91.488281-40.960938-91.488281-91.484375 0-50.527344 40.960937-91.488281 91.488281-91.488281 50.523437 0 91.484375 40.960937 91.484375 91.488281zm0 0" fill="url(#k)"/><path d="m174.699219 323.320312c0 37.429688-30.339844 67.773438-67.773438 67.773438-37.429687 0-67.773437-30.34375-67.773437-67.773438 0-37.429687 30.34375-67.773437 67.773437-67.773437 37.433594 0 67.773438 30.34375 67.773438 67.773437zm0 0" fill="url(#l)"/><path d="m39.78125 332.550781c4.503906 33.0625 32.847656 58.542969 67.144531 58.542969h232.503907c34.296874 0 62.640624-25.480469 67.144531-58.542969zm0 0" fill="url(#m)"/><path d="m231.863281 391.09375-3.535156-3.535156c-5.019531-5.425782-12.195313-8.824219-20.167969-8.824219-.09375 0-.183594.007813-.277344.011719-.054687-.054688-.109374-.109375-.164062-.160156l-18.140625-18.140626c-7.886719-8.261718-19.003906-13.414062-31.328125-13.414062-23.933594 0-43.332031 19.398438-43.332031 43.332031 0 .117188.007812.234375.007812.355469-.515625.101562-1.023437.230469-1.527343.375zm0 0" fill="url(#n)"/><path d="m174.152344 340.25c-3.453125 0-6.347656 2.390625-7.128906 5.601562-.25-.171874-.511719-.339843-.785157-.480468l-12.234375-12.25c-.34375-.632813-.773437-1.222656-1.308594-1.753906-2.859374-2.871094-7.507812-2.871094-10.367187 0l-2.191406 2.1875c-.050781-.082032-.097657-.160157-.160157-.242188-.070312-.101562-.148437-.210938-.230468-.308594-.097656-.132812-.199219-.261718-.308594-.382812-.082031-.101563-.183594-.203125-.273438-.300782-.109374-.113281-.210937-.230468-.332031-.34375-.097656-.089843-.199219-.179687-.308593-.28125-.109376-.097656-.230469-.199218-.351563-.300781-.109375-.089843-.230469-.167969-.34375-.25-.117187-.089843-.238281-.179687-.371094-.261719-.070312-.050781-.140625-.089843-.210937-.128906-.019532-.03125-.027344-.0625-.046875-.082031-.089844-.140625-.183594-.28125-.28125-.421875-.070313-.097656-.152344-.210938-.234375-.308594-.097656-.132812-.199219-.261718-.308594-.382812-.082031-.101563-.179688-.199219-.273438-.300782-.109374-.109374-.210937-.230468-.328124-.332031-.101563-.101562-.203126-.191406-.3125-.289062-.109376-.101563-.230469-.203125-.34375-.292969-.121094-.089844-.238282-.179688-.351563-.261719-.117187-.089843-.238281-.179687-.371094-.261719-.121093-.078124-.25-.160156-.378906-.238281-.132813-.070312-.253906-.140625-.382813-.210937-.140624-.082032-.28125-.140625-.421874-.210938-.128907-.0625-.25-.121094-.382813-.171875-.160156-.070312-.308594-.121093-.46875-.171875-.132813-.046875-.253906-.097656-.382813-.140625-.171874-.046875-.339843-.089843-.523437-.128906-.121094-.03125-.238281-.058594-.359375-.089844-.203125-.039062-.402344-.0625-.601562-.089843-.113282-.011719-.210938-.042969-.3125-.050782-.3125-.03125-.632813-.039062-.953126-.039062-.3125 0-.632812.007812-.945312.039062-.101562.007813-.199219.039063-.3125.050782-.199219.027343-.398438.050781-.601562.089843-.121094.03125-.238282.058594-.359376.089844-.183593.039063-.351562.082031-.523437.128906-.128906.042969-.261719.09375-.382813.140625-.160156.050782-.320312.101563-.46875.171875-.132812.050781-.253906.109375-.382812.171875-.140625.070313-.292969.128906-.421875.210938-.128906.070312-.25.140625-.382813.210937-.128906.078125-.257812.160157-.378906.238281-.132812.082032-.253906.171876-.371094.261719-.121093.082031-.234374.171875-.351562.261719-.121094.089844-.230469.191406-.34375.292969-.109375.097656-.210938.1875-.308594.289062-.121094.101563-.222656.222657-.332031.332031-.089844.101563-.191406.199219-.273437.300782-.109376.121094-.210938.25-.308594.382812-.082032.097656-.160156.210938-.230469.308594-.101563.140625-.191406.28125-.28125.421875-.070313.101563-.128906.210937-.199219.320313-.082031.152343-.164062.304687-.242187.453124-.0625.109376-.109375.222657-.160157.34375-.070312.148438-.140624.308594-.210937.480469-.042969.109375-.082031.230469-.121094.339844-.0625.171875-.121093.34375-.160156.511719-.042969.121094-.070313.242187-.101563.363281-.039062.171875-.078124.351563-.109374.53125-.019532.121094-.039063.242187-.0625.363281-.019532.179688-.050782.371094-.058594.550782 0 .039062-.011719.082031-.011719.121093l-.632813-.625-3.0625-3.058593c-2.859374-2.871094-7.507812-2.871094-10.367187 0-2.875 2.859374-2.875 7.507812 0 10.367187l3.058594 3.0625 10.972656 10.972656v13.785157c-.128906-.140626-.257813-.28125-.398437-.410157-.441407-.394531-.933594-.722656-1.476563-.957031l-7.710937-8.230469c-.429688-.390625-.933594-.710937-1.476563-.945312-.308594-.140625-.640625-.238281-.984375-.308594-.339844-.070313-.691406-.101563-1.050781-.101563-.363281 0-.726563.03125-1.066407.101563-.664062-.953125-1.554687-1.746094-2.589843-2.300781l-12.246094-12.246094c-1.238281-2.320312-3.675781-3.90625-6.488281-3.90625-4.054688 0-7.335938 3.28125-7.335938 7.328125v8.152344l-.996094-1.003907c-.359374-.359374-.742187-.671874-1.152343-.945312-1.226563-.800781-2.632813-1.203125-4.039063-1.203125-1.875 0-3.753906.714844-5.1875 2.148437-2.863281 2.863282-2.863281 7.507813 0 10.371094l1.003906 1.003906h-8.144531c-1.222656 0-2.375.304688-3.390625.832032 12.433594 14.769531 31.046875 24.160156 51.859375 24.160156h6.5c-9.144531 2.554688-15.855469 10.933594-15.855469 20.894531 0 11.988281 9.71875 21.707031 21.710938 21.707031h88.878906c15.179688 0 27.480469-12.300781 27.480469-27.480468 0-2.679688-.394531-5.265625-1.109375-7.714844-29.457031-29.738281-53.894531-54.34375-53.894531-54.34375-1.234375-2.320312-3.675781-3.90625-6.484375-3.90625zm0 0" fill="url(#o)"/><path d="m129.230469 510.441406c-5.207031 0-9.429688-4.222656-9.429688-9.429687v-62.277344c0-5.207031 4.222657-9.429687 9.429688-9.429687s9.429687 4.222656 9.429687 9.429687v62.277344c0 5.207031-4.222656 9.429687-9.429687 9.429687zm0 0" fill="url(#q)"/><path d="m129.230469 407.40625c-5.207031 0-9.429688-4.222656-9.429688-9.429688v-62.273437c0-5.207031 4.222657-9.429687 9.429688-9.429687s9.429687 4.222656 9.429687 9.429687v62.273437c0 5.210938-4.222656 9.429688-9.429687 9.429688zm0 0" fill="url(#r)"/><path d="m108.851562 427.789062h-62.273437c-5.210937 0-9.433594-4.222656-9.433594-9.433593 0-5.207031 4.222657-9.429688 9.433594-9.429688h62.273437c5.207032 0 9.429688 4.222657 9.429688 9.429688 0 5.210937-4.222656 9.433593-9.429688 9.433593zm0 0" fill="url(#s)"/><path d="m211.882812 427.789062h-62.273437c-5.207031 0-9.429687-4.222656-9.429687-9.433593 0-5.207031 4.222656-9.429688 9.429687-9.429688h62.273437c5.210938 0 9.433594 4.222657 9.433594 9.429688-.003906 5.210937-4.226562 9.433593-9.433594 9.433593zm0 0" fill="url(#t)"/><path d="m70.785156 484.132812c-1.875 0-3.753906-.714843-5.183594-2.148437-2.867187-2.863281-2.867187-7.507813 0-10.371094l44.03125-44.03125c2.863282-2.867187 7.507813-2.867187 10.375 0 2.863282 2.863281 2.863282 7.507813 0 10.371094l-44.035156 44.03125c-1.429687 1.433594-3.308594 2.148437-5.1875 2.148437zm0 0" fill="url(#u)"/><path d="m143.640625 411.28125c-1.878906 0-3.753906-.714844-5.1875-2.148438-2.863281-2.867187-2.863281-7.507812 0-10.375l44.035156-44.03125c2.863281-2.863281 7.507813-2.863281 10.371094 0 2.867187 2.863282 2.867187 7.507813 0 10.375l-44.03125 44.03125c-1.433594 1.433594-3.3125 2.148438-5.1875 2.148438zm0 0" fill="url(#v)"/><path d="m114.820312 411.28125c-1.878906 0-3.757812-.714844-5.1875-2.148438l-44.03125-44.03125c-2.867187-2.867187-2.867187-7.511718 0-10.375 2.863282-2.863281 7.507813-2.863281 10.371094 0l44.03125 44.03125c2.867188 2.867188 2.867188 7.507813 0 10.375-1.429687 1.433594-3.308594 2.148438-5.183594 2.148438zm0 0" fill="url(#w)"/><path d="m187.671875 484.132812c-1.875 0-3.753906-.714843-5.1875-2.148437l-44.03125-44.03125c-2.863281-2.863281-2.863281-7.507813 0-10.371094 2.863281-2.867187 7.507813-2.867187 10.371094 0l44.035156 44.03125c2.863281 2.863281 2.863281 7.507813 0 10.371094-1.433594 1.433594-3.308594 2.148437-5.1875 2.148437zm0 0" fill="url(#x)"/><path d="m138.664062 438.734375v19.730469l-18.867187-18.863282v-.867187c0-5.207031 4.226563-9.429687 9.433594-9.429687s9.433593 4.222656 9.433593 9.429687zm0 0" fill="url(#z)"/><path d="m119.796875 462.21875h18.867187v20.914062l-18.863281-18.859374-.003906.003906zm0 0" fill="url(#A)"/><path d="m150.378906 408.957031 18.832032 18.832031h-19.605469c-5.207031 0-9.425781-4.222656-9.425781-9.433593 0-5.207031 4.21875-9.429688 9.425781-9.429688h.886719zm0 0" fill="url(#B)"/><path d="m194.023438 427.789062h-21.8125v-18.863281h2.949218zm0 0" fill="url(#C)"/><path d="m187.671875 484.132812c-1.875 0-3.753906-.714843-5.1875-2.148437l-44.03125-44.03125c-2.863281-2.863281-2.863281-7.507813 0-10.371094 2.863281-2.867187 7.507813-2.867187 10.371094 0l44.035156 44.03125c2.863281 2.863281 2.863281 7.507813 0 10.371094-1.433594 1.433594-3.308594 2.148437-5.1875 2.148437zm0 0" fill="url(#D)"/><path d="m138.660156 374.632812v-38.929687c0-.21875-.007812-.4375-.023437-.652344l-9.40625 9.40625-9.40625-9.40625c-.015625.214844-.023438.433594-.023438.652344v20.070313zm0 0" fill="url(#E)"/><path d="m191.859375 366.101562-17.703125 17.703126-5.066406-5.066407c-1.402344-1.335937-2.273438-3.214843-2.273438-5.300781v-3.039062l14.671875-14.667969zm0 0" fill="url(#F)"/><path d="m142.324219 331.363281-13.09375 13.09375-13.097657-13.09375c-2.863281-2.867187-7.507812-2.867187-10.371093 0-2.867188 2.863281-2.867188 7.507813 0 10.371094l18.28125 18.28125c1.433593 1.433594 3.308593 2.148437 5.1875 2.148437 1.878906 0 3.753906-.714843 5.1875-2.148437l18.28125-18.28125c2.863281-2.863281 2.863281-7.507813 0-10.371094-2.867188-2.867187-7.507813-2.867187-10.375 0zm0 0" fill="url(#G)"/><path d="m134.417969 476.695312c-2.867188-2.863281-7.511719-2.863281-10.375 0l-18.28125 18.28125c-2.863281 2.867188-2.863281 7.507813 0 10.375 2.863281 2.863282 7.507812 2.863282 10.375 0l13.09375-13.09375 13.09375 13.09375c1.433593 1.433594 3.3125 2.148438 5.1875 2.148438 1.878906 0 3.753906-.714844 5.1875-2.148438 2.863281-2.863281 2.863281-7.507812 0-10.375zm0 0" fill="url(#H)"/><path d="m203.128906 418.355469 13.097656-13.09375c2.863282-2.863281 2.863282-7.507813 0-10.375-2.867187-2.863281-7.507812-2.863281-10.375 0l-18.28125 18.28125c-2.863281 2.867187-2.863281 7.511719 0 10.375l18.28125 18.28125c1.433594 1.433593 3.308594 2.148437 5.1875 2.148437 1.878907 0 3.753907-.714844 5.1875-2.148437 2.863282-2.863281 2.863282-7.507813 0-10.375zm0 0" fill="url(#I)"/><path d="m70.890625 423.542969c2.863281-2.863281 2.863281-7.507813 0-10.371094l-18.28125-18.28125c-2.867187-2.867187-7.507813-2.867187-10.375 0-2.863281 2.863281-2.863281 7.507813 0 10.371094l13.09375 13.09375-13.09375 13.097656c-2.863281 2.863281-2.863281 7.507813 0 10.371094 1.433594 1.433593 3.308594 2.148437 5.1875 2.148437s3.753906-.714844 5.1875-2.148437zm0 0" fill="url(#J)"/><path d="m174.148438 380.773438h25.855468c4.050782 0 7.335938-3.285157 7.335938-7.335938s-3.285156-7.335938-7.335938-7.335938h-18.519531v-18.519531c0-4.050781-3.28125-7.335937-7.335937-7.335937-4.050782 0-7.335938 3.285156-7.335938 7.335937v25.855469c.003906 4.050781 3.285156 7.335938 7.335938 7.335938zm0 0" fill="url(#K)"/><path d="m84.308594 455.941406h-25.851563c-4.054687 0-7.335937 3.285156-7.335937 7.335938 0 4.050781 3.28125 7.335937 7.335937 7.335937h18.519531v18.515625c0 4.054688 3.28125 7.335938 7.332032 7.335938 4.054687 0 7.335937-3.28125 7.335937-7.335938v-25.851562c0-4.050782-3.28125-7.335938-7.335937-7.335938zm0 0" fill="url(#L)"/><path d="m200.003906 455.941406h-25.855468c-4.050782 0-7.335938 3.285156-7.335938 7.335938v25.851562c0 4.054688 3.285156 7.335938 7.335938 7.335938 4.050781 0 7.335937-3.28125 7.335937-7.335938v-18.515625h18.519531c4.050782 0 7.335938-3.285156 7.335938-7.335937 0-4.050782-3.285156-7.335938-7.335938-7.335938zm0 0" fill="url(#M)"/><path d="m84.308594 340.246094c-4.050782 0-7.332032 3.285156-7.332032 7.335937v18.519531h-18.519531c-4.054687 0-7.335937 3.285157-7.335937 7.335938s3.28125 7.335938 7.335937 7.335938h25.851563c4.054687 0 7.335937-3.285157 7.335937-7.335938v-25.855469c0-4.050781-3.28125-7.335937-7.335937-7.335937zm0 0" fill="url(#N)"/><path d="m138.664062 372.425781v25.554688c0 .195312-.007812.390625-.019531.585937-.089843 1.441406-.5 2.789063-1.164062 3.980469l-17.683594-17.683594v-12.4375zm0 0" fill="url(#O)"/><path d="m113.269531 426.695312c-1.320312.695313-2.820312 1.09375-4.417969 1.09375h-25.550781v-18.863281h12.195313zm0 0" fill="url(#P)"/><path d="m166.894531 391.066406-8.679687 8.675782-9.386719 9.390624c-1.433594 1.429688-3.3125 2.148438-5.1875 2.148438-1.878906 0-3.753906-.71875-5.1875-2.148438-1.363281-1.363281-2.082031-3.132812-2.144531-4.925781-.070313-1.960937.644531-3.949219 2.144531-5.449219l.191406-.191406 9.199219-9.195312 8.675781-8.679688zm0 0" fill="url(#Q)"/><path d="m122.152344 404.207031c-.066406 1.792969-.785156 3.5625-2.144532 4.925781-1.367187 1.363282-3.136718 2.082032-4.925781 2.144532-.085937.003906-.175781.003906-.265625.003906-1.875 0-3.75-.71875-5.183594-2.148438l-9.390624-9.390624-8.679688-8.675782 10.378906-10.375 8.671875 8.679688 9.203125 9.195312.191406.195313c1.5 1.496093 2.214844 3.480469 2.144532 5.445312zm0 0" fill="url(#R)"/><path d="m129.230469 441.535156c-6.191407 0-12.011719-2.410156-16.390625-6.789062-4.378906-4.375-6.789063-10.199219-6.789063-16.390625 0-6.191407 2.410157-12.011719 6.789063-16.390625 4.375-4.378906 10.199218-6.789063 16.390625-6.789063 6.191406 0 12.011719 2.410157 16.390625 6.789063s6.789062 10.199218 6.789062 16.390625c0 6.191406-2.410156 12.015625-6.789062 16.390625-4.378906 4.378906-10.199219 6.789062-16.390625 6.789062zm0-34.089844c-2.914063 0-5.652344 1.136719-7.714844 3.195313-2.0625 2.0625-3.195313 4.800781-3.195313 7.714844 0 2.917969 1.132813 5.65625 3.195313 7.71875 2.0625 2.058593 4.800781 3.195312 7.714844 3.195312 2.914062 0 5.652343-1.136719 7.714843-3.195312 2.058594-2.0625 3.195313-4.800781 3.195313-7.71875 0-2.914063-1.132813-5.652344-3.195313-7.714844-2.0625-2.058594-4.800781-3.195313-7.714843-3.195313zm0 0" fill="url(#T)"/><path d="m145.714844 464.285156h-32.96875c-1.625 0-3.1875-.644531-4.335938-1.796875l-23.3125-23.308593c-1.148437-1.152344-1.796875-2.710938-1.796875-4.339844v-32.96875c0-1.625.648438-3.183594 1.796875-4.335938l23.3125-23.3125c1.148438-1.148437 2.710938-1.796875 4.335938-1.796875h32.96875c1.625 0 3.1875.648438 4.335937 1.796875l23.3125 23.3125c1.152344 1.152344 1.796875 2.710938 1.796875 4.335938v32.96875c0 1.628906-.644531 3.1875-1.796875 4.339844l-23.3125 23.308593c-1.148437 1.152344-2.710937 1.796875-4.335937 1.796875zm-30.425782-12.269531h27.882813l19.71875-19.714844v-27.886719l-19.71875-19.71875h-27.882813l-19.71875 19.71875v27.886719zm0 0" fill="url(#U)"/><path d="m111.941406 363.84375c0 2.898438-2.351562 5.25-5.246094 5.25-2.898437 0-5.25-2.351562-5.25-5.25s2.351563-5.246094 5.25-5.246094c2.894532 0 5.246094 2.347656 5.246094 5.246094zm0 0" fill="url(#V)"/><path d="m157.042969 363.84375c0 2.898438-2.351563 5.25-5.25 5.25-2.898438 0-5.246094-2.351562-5.246094-5.25s2.347656-5.246094 5.246094-5.246094c2.898437 0 5.25 2.347656 5.25 5.246094zm0 0" fill="url(#W)"/><path d="m111.941406 472.867188c0 2.898437-2.351562 5.25-5.246094 5.25-2.898437 0-5.25-2.351563-5.25-5.25 0-2.898438 2.351563-5.246094 5.25-5.246094 2.894532 0 5.246094 2.347656 5.246094 5.246094zm0 0" fill="url(#X)"/><path d="m157.042969 472.867188c0 2.898437-2.351563 5.25-5.25 5.25-2.898438 0-5.246094-2.351563-5.246094-5.25 0-2.898438 2.347656-5.246094 5.246094-5.246094 2.898437 0 5.25 2.347656 5.25 5.246094zm0 0" fill="url(#Y)"/><path d="m189.003906 395.804688c0 2.898437-2.347656 5.25-5.246094 5.25-2.898437 0-5.25-2.351563-5.25-5.25 0-2.898438 2.351563-5.246094 5.25-5.246094 2.898438 0 5.246094 2.347656 5.246094 5.246094zm0 0" fill="url(#Z)"/><path d="m189.003906 440.90625c0 2.898438-2.347656 5.25-5.246094 5.25-2.898437 0-5.25-2.351562-5.25-5.25s2.351563-5.246094 5.25-5.246094c2.898438 0 5.246094 2.347656 5.246094 5.246094zm0 0" fill="url(#aa)"/><path d="m79.980469 395.804688c0 2.898437-2.351563 5.25-5.246094 5.25-2.898437 0-5.25-2.351563-5.25-5.25 0-2.898438 2.351563-5.246094 5.25-5.246094 2.894531 0 5.246094 2.347656 5.246094 5.246094zm0 0" fill="url(#ab)"/><path d="m79.980469 440.90625c0 2.898438-2.351563 5.25-5.246094 5.25-2.898437 0-5.25-2.351562-5.25-5.25s2.351563-5.246094 5.25-5.246094c2.894531 0 5.246094 2.347656 5.246094 5.246094zm0 0" fill="url(#ac)"/><path d="m221.3125 418.355469c0-4.988281-3.871094-9.070313-8.777344-9.40625l3.691406-3.6875c2.863282-2.863281 2.863282-7.507813 0-10.375-2.867187-2.863281-7.507812-2.863281-10.375 0l-14.035156 14.039062h-16.65625v-7.054687c0-1.625-.644531-3.183594-1.796875-4.335938l-6.46875-6.46875 7.261719-7.261718 3.035156-3.03125h22.816406c4.050782 0 7.332032-3.285157 7.332032-7.335938s-3.28125-7.335938-7.332032-7.335938h-8.148437l1-1c2.867187-2.867187 2.867187-7.511718.003906-10.375-2.867187-2.863281-7.511719-2.863281-10.375 0l-1 1v-8.144531c0-4.050781-3.285156-7.335937-7.335937-7.335937-4.054688 0-7.335938 3.285156-7.335938 7.335937v22.816407l-10.296875 10.292968-6.46875-6.46875c-1.148437-1.148437-2.710937-1.796875-4.335937-1.796875h-7.054688v-16.652343l14.039063-14.035157c2.863281-2.867187 2.863281-7.511719 0-10.375-2.867188-2.863281-7.507813-2.863281-10.375 0l-3.6875 3.6875c-.335938-4.902343-4.417969-8.777343-9.40625-8.777343s-9.070313 3.875-9.40625 8.777343l-3.6875-3.6875c-2.867188-2.863281-7.507813-2.863281-10.375 0-2.863281 2.863281-2.863281 7.507813 0 10.375l14.039062 14.035157v16.652343h-7.054687c-1.625 0-3.183594.648438-4.335938 1.796875l-6.46875 6.46875-10.296875-10.292968v-22.816407c0-4.050781-3.28125-7.335937-7.335937-7.335937-4.050782 0-7.332032 3.285156-7.332032 7.335937v8.144531l-1.003906-1c-2.863281-2.863281-7.507812-2.863281-10.371094 0-2.867187 2.863282-2.867187 7.507813 0 10.375l1 1h-8.144531c-4.054687 0-7.335937 3.285157-7.335937 7.335938s3.28125 7.335938 7.335937 7.335938h22.8125l10.296875 10.292968-6.46875 6.46875c-1.152344 1.152344-1.796875 2.710938-1.796875 4.335938v7.054687h-16.65625l-14.035156-14.039062c-2.867187-2.863281-7.507813-2.863281-10.375 0-2.863281 2.867187-2.863281 7.511719 0 10.375l3.691406 3.6875c-4.90625.335937-8.78125 4.417969-8.78125 9.40625 0 4.992187 3.875 9.070312 8.78125 9.40625l-3.691406 3.691406c-2.863281 2.863281-2.863281 7.507813 0 10.371094 1.433594 1.433593 3.308594 2.148437 5.1875 2.148437s3.753906-.714844 5.1875-2.148437l14.039063-14.035157h16.652343v7.050782c0 1.628906.644531 3.1875 1.796875 4.339844l6.46875 6.46875-10.292968 10.292968h-22.816407c-4.054687 0-7.335937 3.285156-7.335937 7.335938 0 4.050781 3.28125 7.335937 7.335937 7.335937h8.144531l-1 1c-2.867187 2.863281-2.867187 7.507813 0 10.371094 1.433594 1.433594 3.308594 2.148437 5.183594 2.148437 1.878906 0 3.757813-.714843 5.1875-2.148437l1.003906-1v8.144531c0 4.054688 3.28125 7.335938 7.332032 7.335938 4.054687 0 7.335937-3.28125 7.335937-7.335938v-22.8125l10.292969-10.296875 6.46875 6.46875c1.152344 1.152344 2.714844 1.796875 4.339844 1.796875h7.050781v16.65625l-14.035156 14.035156c-2.867188 2.867188-2.867188 7.507813 0 10.375 2.863281 2.863282 7.507812 2.863282 10.371093 0l3.691407-3.6875c.335937 4.902344 4.414062 8.777344 9.40625 8.777344 4.988281 0 9.070312-3.875 9.40625-8.777344l3.6875 3.6875c1.433593 1.433594 3.308593 2.148438 5.1875 2.148438 1.875 0 3.753906-.714844 5.1875-2.148438 2.863281-2.863281 2.863281-7.507812 0-10.375l-14.039063-14.035156v-16.65625h7.050782c1.628906 0 3.1875-.644531 4.339843-1.796875l6.46875-6.46875 10.292969 10.296875v22.8125c0 4.054688 3.285156 7.335938 7.335938 7.335938 4.050781 0 7.335937-3.28125 7.335937-7.335938v-8.144531l1 1.003906c1.433594 1.429688 3.3125 2.148438 5.1875 2.148438 1.878906 0 3.753906-.71875 5.1875-2.148438 2.863281-2.867187 2.863281-7.511719 0-10.375l-1-1h8.144531c4.050782 0 7.335938-3.285156 7.335938-7.335937 0-4.050782-3.285156-7.335938-7.335938-7.335938h-22.816406l-10.292969-10.292968 6.46875-6.46875c1.148438-1.152344 1.796875-2.710938 1.796875-4.339844v-7.050782h16.65625l14.035156 14.035157c1.433594 1.433593 3.308594 2.148437 5.1875 2.148437 1.875 0 3.753907-.714844 5.183594-2.148437 2.867188-2.863281 2.867188-7.507813 0-10.371094l-3.6875-3.691406c4.90625-.335938 8.777344-4.417969 8.777344-9.40625zm-106.023438-33.660157h4.507813v12.476563c-.3125.140625-.625.289063-.933594.445313l-8.25-8.25zm-19.71875 19.71875 4.671876-4.671874 5.980468 5.984374 2.269532 2.265626c-.15625.308593-.304688.617187-.445313.933593h-12.476563zm4.671876 32.558594-4.671876-4.671875v-4.511719h12.476563c.140625.3125.289063.625.445313.933594zm19.558593 15.042969h-4.511719l-4.671874-4.671875 8.246093-8.246094c.308594.152344.621094.300782.933594.441406v12.476563zm17.144531-25.945313c-2.0625 2.0625-4.800781 3.195313-7.714843 3.195313-2.914063 0-5.652344-1.132813-7.714844-3.195313-2.0625-2.058593-3.195313-4.800781-3.195313-7.714843 0-2.914063 1.132813-5.652344 3.195313-7.714844 2.0625-2.058594 4.800781-3.195313 7.714844-3.195313 2.914062 0 5.652343 1.136719 7.714843 3.195313 2.058594 2.0625 3.195313 4.800781 3.195313 7.714844 0 2.914062-1.136719 5.65625-3.195313 7.714843zm6.226563 25.945313h-4.507813v-12.476563c.3125-.140624.625-.289062.933594-.441406l8.246094 8.246094zm-1.21875-56.757813-2.359375 2.359376c-.308594-.15625-.617188-.300782-.929688-.441407v-12.480469h4.507813l4.671875 4.671876zm20.9375 37.042969-4.671875 4.671875-8.25-8.25c.15625-.308594.300781-.621094.441406-.933594h12.480469zm0-23.375h-12.402344.003907-.082032c-.140625-.316406-.285156-.625-.441406-.933593l8.25-8.25 4.671875 4.671874zm0 0" fill="url(#ae)"/><path d="m111.941406 363.84375c0 2.898438-2.351562 5.25-5.246094 5.25-2.898437 0-5.25-2.351562-5.25-5.25s2.351563-5.246094 5.25-5.246094c2.894532 0 5.246094 2.347656 5.246094 5.246094zm0 0" fill="url(#af)"/><path d="m157.042969 363.84375c0 2.898438-2.351563 5.25-5.25 5.25-2.898438 0-5.246094-2.351562-5.246094-5.25s2.347656-5.246094 5.246094-5.246094c2.898437 0 5.25 2.347656 5.25 5.246094zm0 0" fill="url(#ag)"/><path d="m111.941406 472.867188c0 2.898437-2.351562 5.25-5.246094 5.25-2.898437 0-5.25-2.351563-5.25-5.25 0-2.898438 2.351563-5.246094 5.25-5.246094 2.894532 0 5.246094 2.347656 5.246094 5.246094zm0 0" fill="url(#ah)"/><path d="m157.042969 472.867188c0 2.898437-2.351563 5.25-5.25 5.25-2.898438 0-5.246094-2.351563-5.246094-5.25 0-2.898438 2.347656-5.246094 5.246094-5.246094 2.898437 0 5.25 2.347656 5.25 5.246094zm0 0" fill="url(#ai)"/><path d="m189.003906 395.804688c0 2.898437-2.347656 5.25-5.246094 5.25-2.898437 0-5.25-2.351563-5.25-5.25 0-2.898438 2.351563-5.246094 5.25-5.246094 2.898438 0 5.246094 2.347656 5.246094 5.246094zm0 0" fill="url(#aj)"/><path d="m189.003906 440.90625c0 2.898438-2.347656 5.25-5.246094 5.25-2.898437 0-5.25-2.351562-5.25-5.25s2.351563-5.246094 5.25-5.246094c2.898438 0 5.246094 2.347656 5.246094 5.246094zm0 0" fill="url(#ak)"/><path d="m79.980469 395.804688c0 2.898437-2.351563 5.25-5.246094 5.25-2.898437 0-5.25-2.351563-5.25-5.25 0-2.898438 2.351563-5.246094 5.25-5.246094 2.894531 0 5.246094 2.347656 5.246094 5.246094zm0 0" fill="url(#al)"/><path d="m79.980469 440.90625c0 2.898438-2.351563 5.25-5.246094 5.25-2.898437 0-5.25-2.351562-5.25-5.25s2.351563-5.246094 5.25-5.246094c2.894531 0 5.246094 2.347656 5.246094 5.246094zm0 0" fill="url(#am)"/><path d="m334.175781 499.84375c.59375.632812.984375 1.074219 1.164063 1.304688l-1.253906-1.273438-15.890626-16.132812c-1.066406-.5625-1.867187-1.539063-2.21875-2.710938-.121093-.402344-.183593-.835938-.183593-1.277344 0-2.128906 1.46875-3.902344 3.445312-4.375-.109375-.160156-.210937-.320312-.300781-.484375l-7.53125-7.527343c-.378906-.199219-.753906-.472657-1.074219-.804688-1.765625-1.753906-1.765625-4.605469 0-6.375l1.347657-1.34375c-.050782-.03125-.101563-.058594-.152344-.089844-.058594-.050781-.128906-.101562-.191406-.152344-.078126-.058593-.160157-.121093-.230469-.179687-.070313-.058594-.128907-.109375-.191407-.171875-.070312-.070312-.140624-.128906-.199218-.199219-.0625-.0625-.121094-.128906-.179688-.191406-.0625-.070313-.121094-.140625-.183594-.21875-.058593-.070313-.109374-.140625-.160156-.210937-.050781-.070313-.109375-.152344-.160156-.222657-.03125-.050781-.050781-.089843-.078125-.140625-.011719-.011718-.03125-.019531-.050781-.03125-.082032-.050781-.171875-.109375-.253906-.167968-.070313-.042969-.128907-.089844-.199219-.140626-.070313-.0625-.152344-.121093-.230469-.191406-.058594-.050781-.121094-.109375-.179688-.171875-.070312-.058593-.140624-.128906-.210937-.199219-.0625-.0625-.113281-.121093-.171875-.191406-.058594-.070312-.128906-.140625-.179688-.210937-.0625-.070313-.113281-.140625-.160156-.222657-.0625-.070312-.113281-.140624-.160156-.21875-.050781-.082031-.101562-.160156-.152344-.242187-.039062-.070313-.089844-.148437-.128906-.230469-.042969-.078125-.082031-.171875-.132812-.261718-.03125-.078126-.070313-.148438-.101563-.230469-.039063-.101563-.070313-.191407-.109375-.289063-.03125-.082031-.058594-.152344-.078125-.234375-.03125-.109375-.0625-.207031-.082031-.320312-.019532-.070313-.039063-.148438-.058594-.21875-.023438-.132813-.042969-.253907-.050781-.371094-.011719-.070313-.019531-.132813-.03125-.203125-.019531-.191406-.03125-.378906-.03125-.570312 0-.203126.011719-.394532.03125-.582032.011719-.070312.019531-.132812.03125-.191406.007812-.132812.027343-.25.050781-.371094.019531-.082031.039062-.152344.058594-.230468.019531-.101563.050781-.210938.082031-.324219.019531-.078125.046875-.148438.078125-.230469.039062-.097656.070312-.191406.109375-.289062.03125-.082032.070313-.152344.101563-.230469.050781-.089844.089843-.183594.132812-.261719.039062-.082031.089844-.160156.128906-.230469.050782-.082031.101563-.160156.152344-.242187.046875-.082032.097656-.152344.160156-.222656.046875-.070313.097656-.148438.160156-.21875.050782-.070313.121094-.140626.179688-.210938.058594-.058594.109375-.128906.171875-.191406.070313-.070313.140625-.140625.210937-.199219.058594-.0625.121094-.121094.179688-.171875.078125-.058594.160156-.128906.230469-.191406.070312-.050782.128906-.089844.199219-.140625.082031-.058594.171874-.121094.253906-.167969.070312-.042969.128906-.082031.199218-.121094.089844-.050781.179688-.101562.28125-.152344.070313-.039062.128907-.070312.199219-.101562.101563-.046875.203125-.089844.304688-.128906.070312-.019532.140625-.050782.210937-.070313.097656-.039062.207032-.070312.308594-.101562.082031-.019531.152344-.039063.222656-.058594.109375-.03125.21875-.050781.332032-.070313.070312-.011718.148437-.019531.21875-.03125.121093-.019531.230468-.039062.339843-.039062.03125-.011719.050781-.011719.070313-.011719l-2.257813-2.265625c-1.765625-1.769531-1.765625-4.621094 0-6.375 1.757813-1.769531 4.609375-1.769531 6.375 0l1.878907 1.875 6.746093 6.746094h8.484375l-6.488281-6.804688c-.078125-.191406-.140625-.390624-.179687-.601562-.050782-.210938-.070313-.433594-.070313-.652344 0-.222656.019531-.433594.058594-.632812-.589844-.414063-1.074219-.964844-1.414063-1.609375l-7.527344-7.527344c-1.425781-.753906-2.402343-2.25-2.402343-3.984375 0-2.492188 2.019531-4.507812 4.507812-4.507812h5l-.613281-.613282c-1.753906-1.757812-1.753906-4.617187 0-6.375.886719-.882812 2.039062-1.324218 3.195312-1.324218.863282 0 1.726563.25 2.476563.742187.253906.167969.484375.359375.703125.582031l.625.613282v-5.011719c0-2.488281 2.015625-4.507813 4.507812-4.507813 1.726563 0 3.222657.976563 3.984376 2.410156l7.519531 7.53125c.640625.328126 1.195312.820313 1.597656 1.402344.207031-.039062.429687-.058594.652344-.058594.21875 0 .441406.019532.652343.058594.210938.050782.410157.113282.601563.191406.339844.140626.640625.34375.902344.582032l4.738281 5.0625c.34375.148437.644531.339844.914062.582031.082032.078125.171876.167969.25.257813v-8.472657l-1.101562-1.101562-1.890625-1.878907-1.875-1.886718-3.765625-3.765625c-1.757812-1.757813-1.757812-4.609375 0-6.375 1.757812-1.757813 4.617188-1.757813 6.375 0l2.269531 2.269531c0-.019531.007813-.050781.007813-.070312.011718-.121094.023437-.230469.042968-.339844.007813-.082032.019532-.152344.027344-.222656.023438-.109376.050782-.21875.070313-.332032.023437-.070312.042969-.148437.0625-.21875.03125-.113281.058593-.210937.101562-.3125.019531-.070312.046875-.140625.078125-.210937.039063-.101563.082032-.199219.121094-.300781.03125-.070313.070312-.140626.101562-.210938.050782-.089844.097657-.179688.148438-.269531.039062-.070313.082031-.140625.121094-.203125.058594-.089844.109375-.171875.171875-.261719.050781-.058594.097656-.128906.148437-.1875.0625-.082031.121094-.152344.183594-.234375.058594-.058594.109375-.117188.167969-.179688.070312-.070312.132812-.140624.203125-.210937.058594-.058594.128906-.121094.1875-.167969.070312-.070312.140625-.132812.222656-.191406.070312-.050781.140625-.113281.210938-.160156.070312-.050782.152343-.113282.222656-.164063.078125-.046875.160156-.089843.238281-.140625.082031-.046875.152344-.089844.230469-.128906.089844-.050781.183594-.089844.261718-.128906.082032-.042969.160157-.070313.242188-.113282.089844-.039062.191406-.070312.28125-.097656.078125-.03125.160156-.0625.238281-.082031.101563-.03125.210938-.058594.324219-.078125.070312-.023438.140625-.042969.21875-.0625.121094-.019531.25-.039062.371094-.058594.0625 0 .132812-.019531.191406-.019531.191406-.023437.382812-.03125.582031-.03125.191407 0 .390625.007813.582031.03125.0625 0 .132813.019531.191407.019531.121093.019532.25.039063.371093.058594.082032.019531.152344.039062.222657.0625.109375.019531.21875.046875.320312.078125.082031.019531.160157.050781.242188.082031.089843.027344.191406.058594.28125.097656.078125.042969.160156.070313.238281.113282.082031.039062.171875.078125.261719.128906.082031.039062.152343.089844.230469.128906.082031.050782.160156.09375.230468.140625.082032.050781.152344.113281.230469.164063.070313.046875.140625.109375.210937.160156.082032.058594.152344.121094.222657.191406.058593.046875.121093.109375.191406.167969.070313.070313.128906.140625.199219.210937.050781.0625.109375.121094.171875.179688.058593.082031.121093.152344.179687.234375.050782.058594.101563.128906.152344.1875.058594.089844.109375.171875.167969.261719.011719.011718.023437.03125.03125.050781.039062.019531.089843.050781.132812.082031.078125.046875.148438.097656.21875.160156.070313.050782.152344.097657.222657.160157l.210937.179687c.058594.0625.128906.109375.1875.171875.070313.070313.140625.140625.203125.210938.058594.058593.121094.121093.171875.179687.058594.082032.128906.160156.1875.242188.050781.058594.089844.121094.140625.191406.03125.046875.070312.089844.101562.140625l1.34375-1.347656c1.757813-1.757813 4.609376-1.757813 6.375 0 .324219.332031.59375.691406.792969 1.085937l7.53125 7.527344c.171875.089844.332031.191406.480469.300781.484375-1.976562 2.261719-3.453125 4.378906-3.453125 1.734375 0 3.230469.976563 3.984375 2.410156 0 0 16.535157 16.644532 35.808594 36.109376-27.375 25.710937-60.402344 45.46875-97.027344 57.195312zm0 0" fill="url(#an)"/><path d="m363.800781 508.746094c-3.203125 0-5.796875-2.597656-5.796875-5.796875v-38.277344c0-3.203125 2.59375-5.796875 5.796875-5.796875s5.796875 2.59375 5.796875 5.796875v38.277344c0 3.199219-2.59375 5.796875-5.796875 5.796875zm0 0" fill="url(#ao)"/><path d="m363.800781 445.414062c-3.203125 0-5.796875-2.59375-5.796875-5.796874v-38.277344c0-3.203125 2.59375-5.796875 5.796875-5.796875s5.796875 2.59375 5.796875 5.796875v38.277344c0 3.203124-2.59375 5.796874-5.796875 5.796874zm0 0" fill="url(#ap)"/><path d="m351.273438 457.941406h-38.277344c-3.199219 0-5.796875-2.597656-5.796875-5.796875 0-3.203125 2.597656-5.796875 5.796875-5.796875h38.277344c3.203124 0 5.796874 2.59375 5.796874 5.796875 0 3.199219-2.59375 5.796875-5.796874 5.796875zm0 0" fill="url(#aq)"/><path d="m414.605469 457.941406h-38.277344c-3.203125 0-5.796875-2.597656-5.796875-5.796875 0-3.203125 2.59375-5.796875 5.796875-5.796875h38.277344c3.203125 0 5.796875 2.59375 5.796875 5.796875 0 3.199219-2.59375 5.796875-5.796875 5.796875zm0 0" fill="url(#ar)"/><path d="m327.878906 492.574219c-1.152344 0-2.308594-.441407-3.1875-1.320313-1.761718-1.761718-1.761718-4.617187 0-6.375l27.0625-27.066406c1.761719-1.761719 4.617188-1.761719 6.378906 0 1.761719 1.761719 1.761719 4.617188 0 6.375l-27.066406 27.066406c-.878906.878906-2.035156 1.320313-3.1875 1.320313zm0 0" fill="url(#as)"/><path d="m372.660156 447.792969c-1.15625 0-2.308594-.4375-3.1875-1.320313-1.761718-1.757812-1.761718-4.613281 0-6.375l27.0625-27.0625c1.761719-1.761718 4.617188-1.761718 6.375 0 1.761719 1.757813 1.761719 4.613282 0 6.375l-27.0625 27.066406c-.882812.878907-2.035156 1.316407-3.1875 1.316407zm0 0" fill="url(#at)"/><path d="m354.945312 447.792969c-1.15625 0-2.308593-.4375-3.191406-1.320313l-27.0625-27.0625c-1.761718-1.761718-1.761718-4.617187 0-6.378906 1.761719-1.757812 4.613282-1.757812 6.375 0l27.066406 27.066406c1.761719 1.761719 1.761719 4.613282 0 6.375-.882812.882813-2.035156 1.320313-3.1875 1.320313zm0 0" fill="url(#au)"/><path d="m399.722656 492.574219c-1.152344 0-2.308594-.441407-3.1875-1.320313l-27.0625-27.066406c-1.761718-1.757812-1.761718-4.613281 0-6.375 1.757813-1.761719 4.613282-1.761719 6.375 0l27.066406 27.066406c1.757813 1.757813 1.757813 4.613282 0 6.375-.882812.878906-2.035156 1.320313-3.191406 1.320313zm0 0" fill="url(#av)"/><path d="m369.597656 464.667969v12.128906l-11.59375-11.59375v-.535156c0-3.199219 2.597656-5.792969 5.796875-5.792969 3.203125 0 5.796875 2.59375 5.796875 5.792969zm0 0" fill="url(#aw)"/><path d="m358.003906 479.101562h11.59375v12.855469l-11.59375-11.589843zm0 0" fill="url(#ax)"/><path d="m376.800781 446.367188 11.574219 11.574218h-12.046875c-3.203125 0-5.796875-2.597656-5.796875-5.796875 0-3.203125 2.59375-5.796875 5.796875-5.796875h.542969zm0 0" fill="url(#ay)"/><path d="m403.628906 457.941406h-13.410156v-11.59375h1.8125zm0 0" fill="url(#az)"/><path d="m399.722656 492.574219c-1.152344 0-2.308594-.441407-3.1875-1.320313l-27.0625-27.066406c-1.761718-1.757812-1.761718-4.613281 0-6.375 1.757813-1.761719 4.613282-1.761719 6.375 0l27.066406 27.066406c1.757813 1.757813 1.757813 4.613282 0 6.375-.882812.878906-2.035156 1.320313-3.191406 1.320313zm0 0" fill="url(#aA)"/><path d="m369.597656 425.269531v-23.929687c0-.136719-.003906-.269532-.015625-.402344l-5.78125 5.78125-5.78125-5.78125c-.007812.132812-.015625.265625-.015625.402344v12.335937zm0 0" fill="url(#aB)"/><path d="m402.296875 420.023438-10.882813 10.882812-3.113281-3.113281c-.859375-.824219-1.398437-1.976563-1.398437-3.261719v-1.867188l9.019531-9.015624zm0 0" fill="url(#aC)"/><path d="m371.851562 398.671875-8.050781 8.046875-8.046875-8.046875c-1.761718-1.761719-4.617187-1.761719-6.378906 0s-1.761719 4.613281 0 6.375l11.238281 11.238281c.878907.878906 2.03125 1.320313 3.1875 1.320313 1.152344 0 2.308594-.441407 3.1875-1.320313l11.238281-11.238281c1.757813-1.761719 1.757813-4.613281 0-6.375-1.761718-1.761719-4.617187-1.761719-6.375 0zm0 0" fill="url(#aD)"/><path d="m366.988281 488.003906c-1.761719-1.761718-4.613281-1.761718-6.375 0l-11.238281 11.234375c-1.757812 1.761719-1.757812 4.617188 0 6.378907 1.761719 1.761718 4.617188 1.761718 6.378906 0l8.046875-8.050782 8.050781 8.050782c.878907.878906 2.035157 1.320312 3.1875 1.320312 1.152344 0 2.308594-.441406 3.1875-1.320312 1.761719-1.761719 1.761719-4.617188 0-6.378907zm0 0" fill="url(#aE)"/><path d="m409.222656 452.144531 8.050782-8.050781c1.761718-1.761719 1.761718-4.613281 0-6.375-1.761719-1.761719-4.613282-1.761719-6.375 0l-11.238282 11.234375c-1.761718 1.761719-1.761718 4.617187 0 6.378906l11.238282 11.238281c.878906.878907 2.035156 1.320313 3.1875 1.320313 1.152343 0 2.308593-.441406 3.1875-1.320313 1.761718-1.761718 1.761718-4.617187 0-6.378906zm0 0" fill="url(#aF)"/><path d="m327.941406 455.332031c1.761719-1.761719 1.761719-4.617187 0-6.378906l-11.234375-11.234375c-1.761719-1.761719-4.617187-1.761719-6.378906 0-1.757813 1.761719-1.757813 4.613281 0 6.375l8.050781 8.050781-8.050781 8.046875c-1.757813 1.761719-1.757813 4.617188 0 6.378906.882813.878907 2.035156 1.320313 3.191406 1.320313 1.152344 0 2.304688-.441406 3.1875-1.320313zm0 0" fill="url(#aG)"/><path d="m391.410156 429.042969h15.894532c2.488281 0 4.507812-2.019531 4.507812-4.511719 0-2.488281-2.019531-4.507812-4.507812-4.507812h-11.382813v-11.382813c0-2.488281-2.019531-4.507813-4.507813-4.507813-2.492187 0-4.511718 2.019532-4.511718 4.507813v15.894531c0 2.488282 2.019531 4.507813 4.507812 4.507813zm0 0" fill="url(#aH)"/><path d="m336.191406 475.246094h-15.894531c-2.488281 0-4.507813 2.019531-4.507813 4.507812 0 2.488282 2.019532 4.507813 4.507813 4.507813h11.382813v11.382812c0 2.492188 2.019531 4.511719 4.511718 4.511719 2.488282 0 4.507813-2.019531 4.507813-4.511719v-15.890625c0-2.492187-2.019531-4.507812-4.507813-4.507812zm0 0" fill="url(#aI)"/><path d="m407.304688 475.246094h-15.894532c-2.488281 0-4.507812 2.019531-4.507812 4.507812v15.890625c0 2.492188 2.019531 4.511719 4.507812 4.511719 2.492188 0 4.511719-2.019531 4.511719-4.511719v-11.382812h11.378906c2.492188 0 4.511719-2.019531 4.511719-4.507813 0-2.492187-2.019531-4.507812-4.507812-4.507812zm0 0" fill="url(#aJ)"/><path d="m336.191406 404.132812c-2.492187 0-4.507812 2.019532-4.507812 4.507813v11.382813h-11.382813c-2.492187 0-4.507812 2.019531-4.507812 4.507812 0 2.492188 2.015625 4.511719 4.507812 4.511719h15.890625c2.488282 0 4.507813-2.019531 4.507813-4.511719v-15.890625c0-2.488281-2.019531-4.507813-4.507813-4.507813zm0 0" fill="url(#aK)"/><path d="m369.597656 423.910156v15.707032c0 .121093-.003906.242187-.007812.363281-.058594.886719-.308594 1.714843-.714844 2.445312l-10.871094-10.871093v-7.644532zm0 0" fill="url(#aL)"/><path d="m353.992188 457.269531c-.8125.425781-1.734376.671875-2.714844.671875h-15.707032v-11.597656h7.496094zm0 0" fill="url(#aM)"/><path d="m386.953125 435.371094-5.335937 5.328125-5.769532 5.773437c-.882812.882813-2.035156 1.320313-3.1875 1.320313-1.15625 0-2.308594-.441407-3.191406-1.320313-.835938-.835937-1.277344-1.925781-1.316406-3.027344-.042969-1.207031.394531-2.425781 1.316406-3.347656l11.105469-11.105468zm0 0" fill="url(#aN)"/><path d="m359.449219 443.445312c-.039063 1.101563-.480469 2.191407-1.316407 3.027344-.839843.835938-1.925781 1.28125-3.027343 1.320313-.054688 0-.109375 0-.164063 0-1.152344 0-2.304687-.441407-3.1875-1.320313l-.117187-.117187-5.652344-5.65625-5.332031-5.328125 6.375-6.378906 5.332031 5.335937 5.65625 5.652344.117187.117187c.921876.921875 1.359376 2.140625 1.316407 3.347656zm0 0" fill="url(#aO)"/><path d="m363.800781 466.390625c-3.804687 0-7.382812-1.480469-10.074219-4.171875-2.691406-2.691406-4.175781-6.269531-4.175781-10.074219 0-3.808593 1.484375-7.386719 4.175781-10.078125 2.691407-2.691406 6.269532-4.171875 10.074219-4.171875 3.804688 0 7.382813 1.484375 10.074219 4.171875 2.691406 2.691406 4.175781 6.269532 4.175781 10.078125 0 3.804688-1.484375 7.382813-4.175781 10.074219s-6.269531 4.171875-10.074219 4.171875zm0-20.953125c-1.792969 0-3.476562.699219-4.742187 1.964844s-1.964844 2.949218-1.964844 4.742187c0 1.789063.699219 3.472657 1.964844 4.742188 1.265625 1.265625 2.949218 1.964843 4.742187 1.964843s3.476563-.699218 4.742188-1.964843c1.265625-1.269531 1.964843-2.953125 1.964843-4.742188 0-1.792969-.699218-3.476562-1.964843-4.742187s-2.949219-1.964844-4.742188-1.964844zm0 0" fill="url(#aP)"/><path d="m373.933594 480.375h-20.265625c-1 0-1.957031-.398438-2.664063-1.105469l-14.328125-14.328125c-.707031-.707031-1.105469-1.664062-1.105469-2.664062v-20.265625c0-1 .398438-1.960938 1.105469-2.667969l14.328125-14.328125c.707032-.707031 1.664063-1.101563 2.664063-1.101563h20.265625c1 0 1.960937.394532 2.667968 1.101563l14.324219 14.328125c.710938.710938 1.105469 1.667969 1.105469 2.667969v20.265625c0 1-.394531 1.957031-1.105469 2.664062l-14.324219 14.328125c-.710937.707031-1.667968 1.105469-2.667968 1.105469zm-18.703125-7.542969h17.140625l12.121094-12.121093v-17.136719l-12.121094-12.121094h-17.140625l-12.117188 12.121094v17.140625zm0 0" fill="url(#aQ)"/><path d="m353.175781 418.636719c0 1.78125-1.445312 3.226562-3.226562 3.226562s-3.226563-1.445312-3.226563-3.226562 1.445313-3.226563 3.226563-3.226563 3.226562 1.445313 3.226562 3.226563zm0 0" fill="url(#aR)"/><path d="m380.894531 418.636719c0 1.78125-1.441406 3.226562-3.222656 3.226562s-3.226563-1.445312-3.226563-3.226562 1.445313-3.226563 3.226563-3.226563 3.222656 1.445313 3.222656 3.226563zm0 0" fill="url(#aS)"/><path d="m353.171875 485.648438c0 1.78125-1.441406 3.226562-3.222656 3.226562s-3.226563-1.445312-3.226563-3.226562 1.445313-3.222657 3.226563-3.222657 3.222656 1.441407 3.222656 3.222657zm0 0" fill="url(#aT)"/><path d="m380.894531 485.648438c0 1.78125-1.441406 3.226562-3.222656 3.226562s-3.226563-1.445312-3.226563-3.226562 1.445313-3.226563 3.226563-3.226563 3.222656 1.445313 3.222656 3.226563zm0 0" fill="url(#aU)"/><path d="m400.542969 438.28125c0 1.78125-1.445313 3.226562-3.226563 3.226562s-3.226562-1.445312-3.226562-3.226562 1.445312-3.226562 3.226562-3.226562 3.226563 1.445312 3.226563 3.226562zm0 0" fill="url(#aV)"/><path d="m400.542969 466.003906c0 1.78125-1.445313 3.226563-3.226563 3.226563s-3.226562-1.445313-3.226562-3.226563 1.445312-3.226562 3.226562-3.226562 3.226563 1.445312 3.226563 3.226562zm0 0" fill="url(#aW)"/><path d="m333.53125 438.28125c0 1.78125-1.445312 3.226562-3.226562 3.226562s-3.226563-1.445312-3.226563-3.226562 1.445313-3.226562 3.226563-3.226562 3.226562 1.445312 3.226562 3.226562zm0 0" fill="url(#aX)"/><path d="m333.53125 466.003906c0 1.78125-1.445312 3.226563-3.226562 3.226563s-3.226563-1.445313-3.226563-3.226563 1.445313-3.226562 3.226563-3.226562 3.226562 1.445312 3.226562 3.226562zm0 0" fill="url(#aY)"/><path d="m420.402344 452.144531c0-3.066406-2.382813-5.574219-5.394532-5.78125l2.265626-2.269531c1.761718-1.761719 1.761718-4.613281 0-6.375-1.761719-1.761719-4.613282-1.761719-6.375 0l-8.628907 8.628906h-10.238281v-4.335937c0-1-.394531-1.960938-1.105469-2.667969l-3.976562-3.972656 6.328125-6.328125h14.023437c2.492188 0 4.511719-2.019531 4.511719-4.507813 0-2.492187-2.019531-4.507812-4.511719-4.507812h-5.003906l.613281-.617188c1.761719-1.761718 1.761719-4.617187 0-6.375-1.757812-1.761718-4.613281-1.761718-6.375 0l-.613281.613282v-5.007813c0-2.488281-2.019531-4.507813-4.511719-4.507813-2.488281 0-4.507812 2.019532-4.507812 4.507813v14.027344l-6.328125 6.324219-3.972657-3.976563c-.707031-.707031-1.667968-1.101563-2.667968-1.101563h-4.335938v-10.238281l8.628906-8.628906c1.761719-1.757813 1.761719-4.613281 0-6.375-1.761718-1.761719-4.617187-1.761719-6.375 0l-2.265624 2.265625c-.207032-3.011719-2.71875-5.394531-5.785157-5.394531-3.066406 0-5.574219 2.382812-5.78125 5.394531l-2.265625-2.265625c-1.761718-1.761719-4.617187-1.761719-6.375 0-1.761718 1.761719-1.761718 4.617187 0 6.375l8.628906 8.628906v10.238281h-4.335937c-1 0-1.960937.394532-2.667969 1.101563l-3.976562 3.976563-6.328125-6.324219v-14.027344c0-2.488281-2.015625-4.507813-4.507813-4.507813-2.492187 0-4.507812 2.019532-4.507812 4.507813v5.007813l-.617188-.613282c-1.757812-1.761718-4.613281-1.761718-6.375 0-1.761718 1.757813-1.761718 4.613282 0 6.375l.617188.617188h-5.007813c-2.488281 0-4.507812 2.015625-4.507812 4.507812 0 2.488282 2.019531 4.507813 4.507812 4.507813h14.023438l6.328125 6.328125-3.976563 3.976562c-.707031.707032-1.105469 1.664063-1.105469 2.664063v4.335937h-10.234374l-8.628907-8.628906c-1.761719-1.761719-4.617187-1.761719-6.375 0-1.761719 1.761719-1.761719 4.617188 0 6.375l2.265625 2.269531c-3.015625.207031-5.394531 2.714844-5.394531 5.78125 0 3.066407 2.378906 5.574219 5.394531 5.78125l-2.265625 2.269531c-1.761719 1.757813-1.761719 4.613282 0 6.375.878907.878907 2.03125 1.320313 3.1875 1.320313 1.152344 0 2.308594-.441406 3.1875-1.320313l8.628907-8.628906h10.234374v4.335938c0 1 .398438 1.960937 1.105469 2.667968l3.976563 3.972657-6.328125 6.328125h-14.023438c-2.488281 0-4.507812 2.019531-4.507812 4.507812 0 2.492188 2.019531 4.511719 4.507812 4.511719h5.007813l-.617188.613281c-1.761718 1.761719-1.761718 4.617188 0 6.378906.882813.878907 2.035156 1.320313 3.1875 1.320313s2.308594-.441406 3.1875-1.320313l.617188-.617187v5.007813c0 2.488281 2.019531 4.507812 4.507812 4.507812 2.488282 0 4.507813-2.019531 4.507813-4.507812v-14.023438l6.328125-6.328125 3.976562 3.976563c.707032.707031 1.667969 1.105468 2.667969 1.105468h4.335937v10.234375l-8.628906 8.628907c-1.761718 1.761718-1.761718 4.613281 0 6.375 1.757813 1.761718 4.613282 1.761718 6.375 0l2.265625-2.265626c.207031 3.011719 2.714844 5.394532 5.78125 5.394532 3.070313 0 5.578125-2.382813 5.785157-5.394532l2.265624 2.265626c.878907.882812 2.035157 1.320312 3.1875 1.320312 1.152344 0 2.308594-.4375 3.1875-1.320312 1.761719-1.761719 1.761719-4.613282 0-6.375l-8.625-8.628907v-10.238281h4.332032c1 0 1.960937-.394531 2.667968-1.105469l3.976563-3.976562 6.324219 6.328125v14.023437c0 2.492188 2.019531 4.511719 4.511718 4.511719 2.488282 0 4.507813-2.019531 4.507813-4.511719v-5.003906l.613281.613281c.882813.882813 2.035156 1.320313 3.191406 1.320313 1.152344 0 2.304688-.441407 3.1875-1.320313 1.757813-1.757812 1.757813-4.613281 0-6.375l-.617187-.617187h5.007813c2.488281 0 4.507812-2.019531 4.507812-4.507813 0-2.488281-2.019531-4.507812-4.507812-4.507812h-14.023438l-6.328125-6.328125 3.976563-3.976563c.707031-.707031 1.105468-1.664062 1.105468-2.664062v-4.335938h10.234375l8.628907 8.628906c.878906.878907 2.035156 1.320313 3.1875 1.320313 1.15625 0 2.308593-.441406 3.191406-1.320313 1.757812-1.761718 1.757812-4.617187 0-6.378906l-2.269532-2.265625c3.011719-.207031 5.394532-2.714843 5.394532-5.78125zm-65.171875-20.691406h2.773437v7.671875c-.195312.085938-.382812.175781-.574218.269531l-5.070313-5.070312zm-12.117188 12.121094 2.871094-2.871094 5.070313 5.070313c-.097657.191406-.1875.378906-.273438.574218h-7.671875v-2.773437zm2.871094 20.011719-2.871094-2.871094v-2.773438h7.667969c.085938.195313.175781.382813.273438.574219zm12.019531 9.246093h-2.773437l-2.871094-2.871093 5.070313-5.070313c.191406.09375.378906.1875.574218.273437zm10.539063-15.945312c-1.265625 1.265625-2.949219 1.964843-4.742188 1.964843s-3.476562-.699218-4.742187-1.964843c-1.265625-1.269531-1.964844-2.953125-1.964844-4.742188 0-1.792969.699219-3.476562 1.964844-4.742187s2.949218-1.964844 4.742187-1.964844 3.476563.699219 4.742188 1.964844 1.964843 2.949218 1.964843 4.742187c0 1.789063-.699218 3.472657-1.964843 4.742188zm3.828125 15.945312h-2.773438v-7.667969c.195313-.089843.386719-.179687.574219-.273437l5.070313 5.070313zm-.75-34.886719-1.449219 1.449219c-.1875-.09375-.378906-.183593-.574219-.269531v-7.671875h2.773438l2.871094 2.871094zm12.871094 22.769532-2.875 2.871094-5.070313-5.070313c.097656-.1875.1875-.378906.273437-.574219h7.671876zm0-14.367188h-7.625.003906-.050782c-.085937-.195312-.175781-.386718-.269531-.574218l5.070313-5.070313 2.871094 2.871094zm0 0" fill="url(#aZ)"/><path d="m353.175781 418.636719c0 1.78125-1.445312 3.226562-3.226562 3.226562s-3.226563-1.445312-3.226563-3.226562 1.445313-3.226563 3.226563-3.226563 3.226562 1.445313 3.226562 3.226563zm0 0" fill="url(#a0)"/><path d="m380.894531 418.636719c0 1.78125-1.441406 3.226562-3.222656 3.226562s-3.226563-1.445312-3.226563-3.226562 1.445313-3.226563 3.226563-3.226563 3.222656 1.445313 3.222656 3.226563zm0 0" fill="url(#a1)"/><path d="m353.171875 485.648438c0 1.78125-1.441406 3.226562-3.222656 3.226562s-3.226563-1.445312-3.226563-3.226562 1.445313-3.222657 3.226563-3.222657 3.222656 1.441407 3.222656 3.222657zm0 0" fill="url(#a2)"/><path d="m380.894531 485.648438c0 1.78125-1.441406 3.226562-3.222656 3.226562s-3.226563-1.445312-3.226563-3.226562 1.445313-3.226563 3.226563-3.226563 3.222656 1.445313 3.222656 3.226563zm0 0" fill="url(#a3)"/><path d="m400.542969 438.28125c0 1.78125-1.445313 3.226562-3.226563 3.226562s-3.226562-1.445312-3.226562-3.226562 1.445312-3.226562 3.226562-3.226562 3.226563 1.445312 3.226563 3.226562zm0 0" fill="url(#a4)"/><path d="m400.542969 466.003906c0 1.78125-1.445313 3.226563-3.226563 3.226563s-3.226562-1.445313-3.226562-3.226563 1.445312-3.226562 3.226562-3.226562 3.226563 1.445312 3.226563 3.226562zm0 0" fill="url(#a5)"/><path d="m333.53125 438.28125c0 1.78125-1.445312 3.226562-3.226562 3.226562s-3.226563-1.445312-3.226563-3.226562 1.445313-3.226562 3.226563-3.226562 3.226562 1.445312 3.226562 3.226562zm0 0" fill="url(#a6)"/><path d="m333.53125 466.003906c0 1.78125-1.445312 3.226563-3.226562 3.226563s-3.226563-1.445313-3.226563-3.226563 1.445313-3.226562 3.226563-3.226562 3.226562 1.445312 3.226562 3.226562zm0 0" fill="url(#a7)"/></svg>