<svg height="512pt" viewBox="0 0 512 512" width="512pt" xmlns="http://www.w3.org/2000/svg" xmlns:xlink="http://www.w3.org/1999/xlink"><radialGradient id="a" cx="189.5532234094" cy="123.2072309798" gradientUnits="userSpaceOnUse" r="355.6919740128"><stop offset="0" stop-color="#8be1e2"/><stop offset=".2752" stop-color="#88e1e1"/><stop offset=".4407" stop-color="#80e1de"/><stop offset=".5772" stop-color="#72e2d9"/><stop offset=".698" stop-color="#5ee3d2"/><stop offset=".8083" stop-color="#43e4c9"/><stop offset=".9096" stop-color="#23e5be"/><stop offset="1" stop-color="#00e7b2"/></radialGradient><linearGradient id="b"><stop offset=".0029" stop-color="#00e7b2" stop-opacity="0"/><stop offset=".4308" stop-color="#1bc4b7" stop-opacity=".427451"/><stop offset="1" stop-color="#3b9abe"/></linearGradient><linearGradient id="c" gradientUnits="userSpaceOnUse" x1="491.917262351" x2="144.076359947" xlink:href="#b" y1="373.6825574294" y2="262.2527370004"/><linearGradient id="d" gradientUnits="userSpaceOnUse" x1="456.1659936558" x2="-11.7671705464" xlink:href="#b" y1="412.0295668478" y2="-55.9035973544"/><linearGradient id="e"><stop offset="0" stop-color="#ecf7ff"/><stop offset="1" stop-color="#c2e0ff"/></linearGradient><linearGradient id="f" gradientUnits="userSpaceOnUse" x1="208.2113145638" x2="391.0531186188" xlink:href="#e" y1="285.126397025" y2="285.126397025"/><linearGradient id="g" gradientUnits="userSpaceOnUse" x1="120.9465994202" x2="213.3074234202" xlink:href="#e" y1="122.9931948094" y2="122.9931948094"/><path d="m512 256c0 141.386719-114.613281 256-256 256s-256-114.613281-256-256 114.613281-256 256-256 256 114.613281 256 256zm0 0" fill="url(#a)"/><path d="m508.554688 298.074219c-16.402344 99.226562-89.871094 179.191406-185.554688 205.070312l-90.019531-90.019531c-16.515625-14.660156-24.765625-37.578125-24.765625-68.75v-118.503906c0-31.210938 8.339844-54.160156 25.035156-68.816406 16.707031-14.660157 38.492188-21.988282 65.367188-21.988282 27.6875 0 50.011718 6.859375 66.980468 20.5625 3.203125 2.589844 6.105469 5.320313 8.695313 8.191406zm0 0" fill="url(#c)"/><path d="m202.125 92.914062c-8.472656-9.847656-21.011719-16.105468-35-16.105468-25.457031 0-46.179688 20.722656-46.179688 46.183594 0 13.984374 6.253907 26.523437 16.105469 34.996093l289.179688 289.191407c23.160156-20.636719 42.542969-45.410157 56.988281-73.167969zm0 0" fill="url(#d)"/><path d="m208.210938 344.378906v-118.503906c0-31.214844 8.347656-54.160156 25.042968-68.820312 16.699219-14.660157 38.484375-21.988282 65.359375-21.988282 27.691407 0 50.019531 6.855469 66.988281 20.5625 16.964844 13.710938 25.453126 31.425782 25.453126 53.144532 0 8.691406-1.628907 14.59375-4.886719 17.710937-3.257813 3.125-8.824219 4.683594-16.695313 4.683594-14.121094 0-21.316406-4.746094-21.582031-14.25-1.632813-29.046875-17.511719-43.574219-47.648437-43.574219-32.574219 0-48.863282 17.511719-48.863282 52.53125v118.5c0 35.023438 16.554688 52.535156 49.679688 52.535156 9.773437 0 17.917968-1.425781 24.433594-4.277344 6.515624-2.851562 11.199218-6.988281 14.046874-12.421874 2.851563-5.425782 4.820313-10.179688 5.90625-14.25 1.082032-4.074219 1.898438-9.09375 2.445313-15.066407.8125-9.503906 7.871094-14.253906 21.175781-14.253906 7.871094 0 13.5 1.566406 16.898438 4.683594 3.390625 3.125 5.089844 9.027343 5.089844 17.714843 0 22.535157-8.550782 40.859376-25.65625 54.972657-17.101563 14.121093-39.5 21.175781-67.191407 21.175781-26.875 0-48.597656-7.328125-65.152343-21.988281-16.566407-14.660157-24.84375-37.601563-24.84375-68.820313zm0 0" fill="url(#f)"/><path d="m167.125 169.175781c-25.460938 0-46.179688-20.71875-46.179688-46.183593 0-25.460938 20.71875-46.179688 46.179688-46.179688 25.464844 0 46.183594 20.71875 46.183594 46.179688 0 25.464843-20.71875 46.183593-46.183594 46.183593zm0-67.265625c-11.621094 0-21.082031 9.457032-21.082031 21.082032s9.460937 21.082031 21.082031 21.082031c11.625 0 21.085938-9.457031 21.085938-21.082031s-9.460938-21.082032-21.085938-21.082032zm0 0" fill="url(#g)"/></svg>