<svg height="512pt" viewBox="0 0 512 512.00137" width="512pt" xmlns="http://www.w3.org/2000/svg" xmlns:xlink="http://www.w3.org/1999/xlink"><radialGradient id="a" cx="215.8441157844" cy="185.726757" gradientUnits="userSpaceOnUse" r="336.6901399656"><stop offset="0" stop-color="#3b395f"/><stop offset=".3952" stop-color="#39375d"/><stop offset=".6279" stop-color="#323154"/><stop offset=".8179" stop-color="#262846"/><stop offset=".9849" stop-color="#151a32"/><stop offset="1" stop-color="#131830"/></radialGradient><linearGradient id="b"><stop offset="0" stop-color="#131830" stop-opacity="0"/><stop offset=".8421" stop-color="#131830"/></linearGradient><linearGradient id="c" gradientUnits="userSpaceOnUse" x1="560.7786639984" x2="38.7394247828" xlink:href="#b" y1="400.6209795334" y2="134.5815491412"/><linearGradient id="d" gradientUnits="userSpaceOnUse" x1="169.7135987078" x2="70.9947358974" xlink:href="#b" y1="373.6475028452" y2="294.67237244"/><linearGradient id="e" gradientUnits="userSpaceOnUse" x1="129.8398247118" x2="46.374351985" xlink:href="#b" y1="449.935435233" y2="383.16307713"/><linearGradient id="f" gradientUnits="userSpaceOnUse" x1="256.475148145" x2="157.7560845502" y1="338.64917565" y2="259.6739448526"><stop offset=".0029" stop-color="#c2e0ff" stop-opacity="0"/><stop offset=".6417" stop-color="#a8bfee" stop-opacity=".639216"/><stop offset="1" stop-color="#9eb2e7"/></linearGradient><linearGradient id="g" gradientUnits="userSpaceOnUse" x1="160.6825171802" x2="95.1276152866" xlink:href="#b" y1="470.8489375526" y2="418.4050561946"/><linearGradient id="h" gradientUnits="userSpaceOnUse" x1="213.4699406466" x2="121.6272407908" xlink:href="#b" y1="433.233184919" y2="359.7590451128"/><linearGradient id="i" gradientUnits="userSpaceOnUse" x1="223.203165221" x2="149.6813391198" xlink:href="#b" y1="479.0239747908" y2="420.2064938314"/><linearGradient id="j" gradientUnits="userSpaceOnUse" x1="309.1804507918" x2="212.0258992418" xlink:href="#b" y1="409.263041286" y2="331.539400046"/><linearGradient id="k" gradientUnits="userSpaceOnUse" x1="291.6006722576" x2="220.4362557968" xlink:href="#b" y1="450.4711280122" y2="393.539614922"/><linearGradient id="l" gradientUnits="userSpaceOnUse" x1="355.9569916754" x2="266.1435193582" xlink:href="#b" y1="384.962105354" y2="313.111407814"/><linearGradient id="m" gradientUnits="userSpaceOnUse" x1="248.6830067576" x2="215.437828551" xlink:href="#b" y1="505.7150482204" y2="479.1188454198"/><linearGradient id="n" gradientUnits="userSpaceOnUse" x1="334.3264882634" x2="285.6087638006" xlink:href="#b" y1="484.7068760562" y2="445.7327165644"/><linearGradient id="o" gradientUnits="userSpaceOnUse" x1="409.9051497582" x2="341.1435202122" xlink:href="#b" y1="393.2888352064" y2="338.2795315696"/><linearGradient id="p"><stop offset="0" stop-color="#00c6f6"/><stop offset=".5169" stop-color="#00c4f6"/><stop offset=".7031" stop-color="#02bdf7"/><stop offset=".8359" stop-color="#05b2f9"/><stop offset=".9424" stop-color="#0aa1fc"/><stop offset="1" stop-color="#0d94fe"/></linearGradient><radialGradient id="q" cx="292.0175" cy="63.1414" gradientTransform="matrix(1.302187 .615805 -.429176 .907545 -232.379651 289.898498)" gradientUnits="userSpaceOnUse" r="162.6398" xlink:href="#p"/><radialGradient id="r" cx="292.0175" cy="63.1415" gradientTransform="matrix(1.302187 .615805 -.429176 .907545 -232.379651 289.898498)" gradientUnits="userSpaceOnUse" r="162.6407" xlink:href="#p"/><radialGradient id="s" cx="292.0202" cy="63.1406" gradientTransform="matrix(1.302187 .615805 -.429176 .907545 -232.379651 289.898498)" gradientUnits="userSpaceOnUse" r="162.6427" xlink:href="#p"/><radialGradient id="t" cx="283.6103" cy="37.634" gradientTransform="matrix(1.302187 .615805 -.429176 .907545 -232.379651 289.898498)" gradientUnits="userSpaceOnUse" r="162.6443" xlink:href="#p"/><radialGradient id="u" cx="283.6107" cy="37.6347" gradientTransform="matrix(1.302187 .615805 -.429176 .907545 -232.379651 289.898498)" gradientUnits="userSpaceOnUse" r="162.6438" xlink:href="#p"/><radialGradient id="v" cx="283.6112" cy="37.6334" gradientTransform="matrix(1.302187 .615805 -.429176 .907545 -232.379651 289.898498)" gradientUnits="userSpaceOnUse" r="162.6423" xlink:href="#p"/><radialGradient id="w" cx="275.2013" cy="12.1265" gradientTransform="matrix(1.302187 .615805 -.429176 .907545 -232.379651 289.898498)" gradientUnits="userSpaceOnUse" r="162.6418" xlink:href="#p"/><radialGradient id="x" cx="275.2013" cy="12.126" gradientTransform="matrix(1.302187 .615805 -.429176 .907545 -232.379651 289.898498)" gradientUnits="userSpaceOnUse" r="162.6438" xlink:href="#p"/><radialGradient id="y" cx="266.7951" cy="-13.3808" gradientTransform="matrix(1.302187 .615805 -.429176 .907545 -232.379651 289.898498)" gradientUnits="userSpaceOnUse" r="162.6369" xlink:href="#p"/><radialGradient id="z" cx="266.7931" cy="-13.381" gradientTransform="matrix(1.302187 .615805 -.429176 .907545 -232.379651 289.898498)" gradientUnits="userSpaceOnUse" r="162.6419" xlink:href="#p"/><radialGradient id="A" cx="266.7931" cy="-13.3806" gradientTransform="matrix(1.302187 .615805 -.429176 .907545 -232.379651 289.898498)" gradientUnits="userSpaceOnUse" r="162.6437" xlink:href="#p"/><radialGradient id="B" cx="258.384" cy="-38.888" gradientTransform="matrix(1.302187 .615805 -.429176 .907545 -232.379651 289.898498)" gradientUnits="userSpaceOnUse" r="162.6417" xlink:href="#p"/><radialGradient id="C" cx="258.3866" cy="-38.8892" gradientTransform="matrix(1.302187 .615805 -.429176 .907545 -232.379651 289.898498)" gradientUnits="userSpaceOnUse" r="162.6408" xlink:href="#p"/><radialGradient id="D" cx="352.5398419718" cy="73.6698868898" gradientUnits="userSpaceOnUse" r="194.3880113692"><stop offset="0" stop-color="#ffebc9"/><stop offset=".2771" stop-color="#ffe9c5"/><stop offset=".5263" stop-color="#fee2bb"/><stop offset=".7641" stop-color="#fdd7a8"/><stop offset=".9948" stop-color="#fbc78f"/><stop offset="1" stop-color="#fbc78e"/></radialGradient><linearGradient id="E" gradientUnits="userSpaceOnUse" x1="421.5242418096" x2="76.1950518574" y1="390.8885580966" y2="45.5593681444"><stop offset="0" stop-color="#e58200" stop-opacity="0"/><stop offset=".0396" stop-color="#e27f04" stop-opacity=".039216"/><stop offset=".4671" stop-color="#c15d2f" stop-opacity=".466667"/><stop offset=".8016" stop-color="#ad4949" stop-opacity=".8"/><stop offset="1" stop-color="#a64153"/></linearGradient><linearGradient id="F"><stop offset="0" stop-color="#cfced3"/><stop offset=".8111" stop-color="#a5abbd"/><stop offset="1" stop-color="#9aa2b7"/></linearGradient><radialGradient id="G" cx="169.1421663054" cy="127.1821420402" gradientUnits="userSpaceOnUse" r="253.4208335976" xlink:href="#F"/><linearGradient id="H"><stop offset=".0018" stop-color="#9aa2b7" stop-opacity="0"/><stop offset=".3682" stop-color="#848a9c" stop-opacity=".368627"/><stop offset="1" stop-color="#606572"/></linearGradient><linearGradient id="I" gradientUnits="userSpaceOnUse" x1="330.493815244" x2="367.0224207438" xlink:href="#H" y1="296.3712092484" y2="186.1661736594"/><linearGradient id="J" gradientUnits="userSpaceOnUse" x1="288.7053612096" x2="335.6702378604" xlink:href="#H" y1="220.977972147" y2="151.3451390894"/><linearGradient id="K" gradientUnits="userSpaceOnUse" x1="193.0386220636" x2="193.0386220636" xlink:href="#H" y1="194.762055" y2="104.409075"/><linearGradient id="L" gradientUnits="userSpaceOnUse" x1="121.2815904462" x2="47.143858198" xlink:href="#H" y1="295.3156856576" y2="225.2494594726"/><linearGradient id="M" gradientUnits="userSpaceOnUse" x1="225.6895788384" x2="225.6895788384" xlink:href="#H" y1="311.217007" y2="396.8463332056"/><linearGradient id="N" gradientUnits="userSpaceOnUse" x1="289.2097316224" x2="199.5845950724" xlink:href="#H" y1="394.8940060922" y2="305.2688695422"/><radialGradient id="O" cx="219.009281066" cy="311.9892238024" gradientUnits="userSpaceOnUse" r="106.8973133834" xlink:href="#F"/><path d="m512 256c0 141.386719-114.613281 256-256 256-141.382812 0-256-114.613281-256-256 0-141.382812 114.617188-256 256-256 141.386719 0 256 114.617188 256 256zm0 0" fill="url(#a)"/><path d="m512 256c0-20.632812-2.457031-40.6875-7.066406-59.90625l-187.480469-188.648438c-5.105469-1.257812-10.265625-2.375-15.484375-3.320312-51.425781 29.234375-84.257812 87.421875-76.042969 152.417969-10.082031-4.359375-21.203125-6.777344-32.886719-6.777344-45.851562 0-83.019531 37.171875-83.019531 83.023437 0 .28125.007813.558594.011719.839844-29.128906 4.847656-51.335938 30.15625-51.335938 60.660156 0 18.386719 8.078126 34.875 20.863282 46.148438l170.867187 170.863281c.191407.21875.402344.421875.597657.636719 1.65625.03125 3.3125.0625 4.976562.0625 141.386719 0 256-114.613281 256-256zm0 0" fill="url(#c)"/><path d="m210.566406 493.238281c1.171875 1.515625 2.699219 2.792969 4.546875 3.667969 6.265625 2.960938 13.746094.285156 16.710938-5.980469l40.988281-86.671875c2.574219-5.4375.890625-11.789062-3.699219-15.308594l-113.433593-113.433593c-1.171876-1.515625-2.699219-2.792969-4.546876-3.667969-6.265624-2.960938-13.746093-.285156-16.710937 5.980469l-40.988281 86.671875c-2.574219 5.4375-.886719 11.789062 3.699218 15.308594zm0 0" fill="url(#d)"/><path d="m215.390625 508.789062c-3.261719-.511718-6.503906-1.09375-9.714844-1.738281-18.082031-3.601562-35.480469-9.105469-51.964843-16.300781-16.855469-7.359375-32.757813-16.476562-47.484376-27.117188-15.210937-10.984374-29.15625-23.601562-41.59375-37.585937l14.234376-30.097656c2.960937-6.265625 10.453124-8.9375 16.714843-5.976563 1.847657.875 3.375 2.148438 4.546875 3.667969l108.074219 108.070313 5.363281 5.359374c.671875.511719 1.273438 1.097657 1.824219 1.71875zm0 0" fill="url(#e)"/><path d="m290.042969 452.414062c1.171875 1.515626 2.699219 2.792969 4.550781 3.664063 6.261719 2.964844 13.746094.285156 16.707031-5.976563l40.988281-86.671874c2.574219-5.441407.890626-11.792969-3.699218-15.3125l-113.433594-113.433594c-1.171875-1.515625-2.699219-2.789063-4.546875-3.664063-6.265625-2.964843-13.746094-.285156-16.710937 5.976563l-40.988282 86.671875c-2.570312 5.441406-.886718 11.792969 3.699219 15.3125zm0 0" fill="url(#f)"/><path d="m233.765625 511.046875c-6.195313-.53125-12.320313-1.285156-18.375-2.257813-3.261719-.511718-6.503906-1.09375-9.714844-1.738281-18.082031-3.601562-35.480469-9.105469-51.964843-16.300781-16.855469-7.359375-32.757813-16.476562-47.484376-27.117188l18.160157-38.402343c.773437-1.644531 1.867187-3.050781 3.171875-4.164063 2.179687-1.867187 4.957031-2.933594 7.820312-3.011718 1.90625-.0625 3.867188.320312 5.710938 1.195312 1.847656.882812 3.375 2.15625 4.546875 3.671875l67.777343 67.777344 7.410157 7.40625zm0 0" fill="url(#g)"/><path d="m297.261719 479.9375-.683594 1.433594-1.917969 4.015625-10.410156 21.796875-1.644531 3.441406-.230469.503906-.433594-.433594c-8.523437.863282-17.1875 1.304688-25.941406 1.304688-4.816406 0-9.605469-.128906-14.355469-.398438l-99.671875-99.671874c-4.585937-3.511719-6.273437-9.867188-3.703125-15.308594l20.601563-43.117188c2.960937-6.265625 10.441406-8.9375 16.707031-5.976562 1.855469.875 3.382813 2.148437 4.554687 3.664062l113.433594 113.433594c4.589844 3.523438 6.265625 9.871094 3.695313 15.3125zm0 0" fill="url(#h)"/><path d="m314.550781 505.273438c-8.957031 2.101562-18.082031 3.714843-27.371093 4.839843-1.515626.191407-3.039063.363281-4.574219.511719l-.234375.503906-.429688-.433594c-8.523437.863282-17.1875 1.304688-25.941406 1.304688-4.820312 0-9.609375-.128906-14.355469-.398438-2.640625-.140624-5.273437-.324218-7.882812-.554687-6.195313-.53125-12.316407-1.285156-18.371094-2.257813-3.261719-.511718-6.507813-1.09375-9.71875-1.738281-18.082031-3.601562-35.476563-9.105469-51.960937-16.300781l13.972656-29.558594 3.472656-7.359375 1.738281-3.652343 2.347657-4.980469 17.871093-37.785157c2.960938-6.265624 10.449219-8.945312 16.714844-5.984374 1.847656.882812 3.371094 2.15625 4.546875 3.675781l39.402344 39.402343 40.882812 40.878907zm0 0" fill="url(#i)"/><path d="m385.585938 419.148438-18.742188 39.625-1.777344 3.753906-14.949218 31.613281c-9.980469 3.945313-20.257813 7.289063-30.800782 9.96875l-22.738281-22.738281-40.890625-40.898438-45.777344-45.78125c-4.589844-3.511718-6.273437-9.867187-3.703125-15.308594l.683594-1.433593 2.789063-5.90625 13.652343-28.882813 23.863281-50.445312c2.960938-6.265625 10.441407-8.945313 16.707032-5.984375 1.855468.882812 3.382812 2.160156 4.558594 3.675781l80.363281 80.363281 33.066406 33.070313c4.578125 3.511718 6.265625 9.867187 3.695313 15.308594zm0 0" fill="url(#j)"/><path d="m381.640625 479.101562c-10.101563 5.703126-20.628906 10.734376-31.523437 15.039063-9.976563 3.945313-20.257813 7.289063-30.800782 9.96875-1.585937.402344-3.171875.792969-4.765625 1.164063-8.957031 2.101562-18.082031 3.714843-27.371093 4.839843l-48.660157-48.660156c-4.585937-3.511719-6.273437-9.867187-3.703125-15.308594l6.605469-13.996093 1.910156-4.035157 4.394531-9.328125 2.792969-5.902344 13.25-28.078124c.132813-.269532.273438-.542969.414063-.792969 3.199218-5.691407 10.296875-8.011719 16.289062-5.179688 1.859375.871094 3.386719 2.148438 4.558594 3.664063l39.546875 39.542968zm0 0" fill="url(#k)"/><path d="m444.328125 422.390625-6.539063 13.84375c-15.648437 15.792969-33.339843 29.546875-52.644531 40.839844l-18.300781-18.300781-40.488281-40.5-45.667969-45.667969c-4.585938-3.511719-6.273438-9.867188-3.703125-15.308594l18.714844-39.65625 7.1875-15.226563 3.050781-6.457031c2.960938-6.265625 10.441406-8.933593 16.707031-5.972656 1.855469.871094 3.382813 2.148437 4.554688 3.664063l113.433593 113.433593c4.589844 3.523438 6.261719 9.867188 3.695313 15.308594zm0 0" fill="url(#l)"/><path d="m281.941406 510.695312c-8.523437.863282-17.1875 1.304688-25.941406 1.304688-4.816406 0-9.605469-.128906-14.355469-.398438-2.640625-.140624-5.269531-.324218-7.882812-.554687-6.191407-.53125-12.316407-1.285156-18.371094-2.257813-3.261719-.511718-3.753906-14.335937-3.753906-14.335937l1.777343-3.753906 2.347657-4.980469 5.664062-11.96875c2.960938-6.261719 10.449219-8.933594 16.714844-5.972656 1.324219.632812 2.488281 1.46875 3.472656 2.449218.382813.382813.742188.792969 1.074219 1.214844zm0 0" fill="url(#m)"/><path d="m395.363281 470.769531c-35.628906 23.179688-77.390625 37.71875-122.316406 40.667969-3.734375-3.621094-4.941406-9.363281-2.589844-14.34375l40.992188-86.667969c2.957031-6.265625 10.4375-8.945312 16.703125-5.984375 1.859375.882813 3.382812 2.15625 4.558594 3.675782zm0 0" fill="url(#n)"/><path d="m478.027344 383.519531c-19.414063 33.742188-46.308594 62.632813-78.414063 84.429688l-70.988281-70.996094c-4.589844-3.515625-6.273438-9.871094-3.703125-15.3125l40.988281-86.667969c2.960938-6.265625 10.441406-8.945312 16.707032-5.984375 1.855468.886719 3.382812 2.160157 4.558593 3.675781zm0 0" fill="url(#o)"/><path d="m38.3125 510.792969c-6.265625-2.964844-8.941406-10.441407-5.980469-16.707031l16.3125-34.488282c2.960938-6.265625 10.441407-8.941406 16.707031-5.980468 6.265626 2.964843 8.941407 10.445312 5.980469 16.710937l-16.308593 34.484375c-2.964844 6.265625-10.445313 8.945312-16.710938 5.980469zm0 0" fill="url(#q)"/><path d="m70.929688 441.820312c-6.261719-2.960937-8.941407-10.445312-5.976563-16.710937l13.734375-29.042969c2.960938-6.261718 10.441406-8.941406 16.707031-5.976562 6.265625 2.960937 8.945313 10.445312 5.980469 16.707031l-13.734375 29.042969c-2.960937 6.265625-10.445313 8.941406-16.710937 5.980468zm0 0" fill="url(#r)"/><path d="m99.6875 381.011719c-6.265625-2.960938-8.941406-10.441407-5.980469-16.707031l37.339844-78.957032c2.964844-6.265625 10.445313-8.941406 16.710937-5.980468 6.265626 2.964843 8.941407 10.445312 5.980469 16.710937l-37.339843 78.957031c-2.964844 6.265625-10.445313 8.941406-16.710938 5.976563zm0 0" fill="url(#s)"/><path d="m98.210938 510.792969c-6.265626-2.960938-8.941407-10.441407-5.980469-16.707031l32.40625-68.523438c2.960937-6.261719 10.441406-8.941406 16.710937-5.976562 6.261719 2.960937 8.941406 10.441406 5.976563 16.707031l-32.402344 68.519531c-2.964844 6.265625-10.445313 8.945312-16.710937 5.980469zm0 0" fill="url(#t)"/><path d="m144.5625 412.777344c-6.261719-2.960938-8.941406-10.441406-5.976562-16.707032l20.171874-42.65625c2.960938-6.265624 10.441407-8.941406 16.710938-5.980468 6.261719 2.964844 8.941406 10.445312 5.976562 16.710937l-20.171874 42.65625c-2.964844 6.261719-10.445313 8.941407-16.710938 5.976563zm0 0" fill="url(#u)"/><path d="m178.898438 340.175781c-6.261719-2.964843-8.941407-10.445312-5.976563-16.710937l18.023437-38.117188c2.964844-6.265625 10.445313-8.941406 16.710938-5.980468 6.265625 2.964843 8.941406 10.445312 5.980469 16.710937l-18.027344 38.117187c-2.964844 6.265626-10.445313 8.941407-16.710937 5.980469zm0 0" fill="url(#v)"/><path d="m158.109375 510.792969c-6.265625-2.960938-8.941406-10.441407-5.980469-16.707031l40.988282-86.671876c2.964843-6.265624 10.445312-8.941406 16.710937-5.980468 6.265625 2.964844 8.941406 10.445312 5.980469 16.710937l-40.988282 86.671875c-2.964843 6.261719-10.445312 8.941406-16.710937 5.976563zm0 0" fill="url(#w)"/><path d="m212.1875 396.441406c-6.265625-2.960937-8.941406-10.445312-5.980469-16.707031l44.636719-94.386719c2.964844-6.265625 10.445312-8.941406 16.710938-5.980468 6.261718 2.960937 8.941406 10.445312 5.976562 16.710937l-44.632812 94.382813c-2.964844 6.265624-10.445313 8.945312-16.710938 5.980468zm0 0" fill="url(#x)"/><path d="m218.007812 510.792969c-6.265624-2.964844-8.941406-10.441407-5.980468-16.707031l9.445312-19.96875c2.960938-6.265626 10.441406-8.941407 16.707032-5.976563 6.265624 2.960937 8.941406 10.441406 5.980468 16.707031l-9.441406 19.964844c-2.964844 6.265625-10.445312 8.945312-16.710938 5.980469zm0 0" fill="url(#y)"/><path d="m240.757812 462.695312c-6.265624-2.964843-8.945312-10.445312-5.980468-16.710937l28.96875-61.261719c2.964844-6.265625 10.445312-8.941406 16.710937-5.976562 6.265625 2.960937 8.941407 10.441406 5.980469 16.707031l-28.972656 61.261719c-2.964844 6.265625-10.445313 8.941406-16.707032 5.980468zm0 0" fill="url(#z)"/><path d="m282.816406 373.753906c-6.265625-2.964844-8.941406-10.445312-5.980468-16.710937l33.90625-71.695313c2.964843-6.265625 10.445312-8.941406 16.710937-5.980468 6.265625 2.964843 8.941406 10.445312 5.980469 16.710937l-33.90625 71.695313c-2.964844 6.265624-10.445313 8.941406-16.710938 5.980468zm0 0" fill="url(#A)"/><path d="m277.90625 510.792969c-6.265625-2.960938-8.941406-10.441407-5.980469-16.707031l39.488281-83.496094c2.960938-6.265625 10.441407-8.941406 16.707032-5.980469s8.941406 10.445313 5.980468 16.710937l-39.484374 83.492188c-2.964844 6.265625-10.445313 8.945312-16.710938 5.980469zm0 0" fill="url(#B)"/><path d="m331.128906 398.257812c-6.265625-2.964843-8.945312-10.445312-5.980468-16.710937l45.492187-96.199219c2.964844-6.265625 10.445313-8.941406 16.710937-5.980468 6.265626 2.964843 8.941407 10.445312 5.976563 16.710937l-45.492187 96.199219c-2.964844 6.265625-10.445313 8.941406-16.707032 5.980468zm0 0" fill="url(#C)"/><path d="m450.882812 214.636719c-83.464843-.203125-151.699218-68.4375-151.902343-151.902344-.054688-21.75 4.460937-42.4375 12.628906-61.171875.457031-1.050781-.835937-2.089844-2.484375-1.265625-59.59375 29.804687-97.046875 97.382813-80.566406 171.386719 11.289062 50.691406 62.683594 102.085937 113.375 113.375 72.65625 16.179687 139.199218-19.582032 169.722656-77.324219 1.261719-2.386719-1.160156-5.03125-3.660156-4.027344-17.644532 7.09375-36.921875 10.980469-57.113282 10.929688zm0 0" fill="url(#D)"/><path d="m219.0625 279.691406c-1.882812 6.589844 6.300781 11.316406 11.066406 6.386719 20.125-20.800781 55.273438-11.382813 62.300782 16.695313h.003906c1.660156 6.648437 11.113281 6.648437 12.777344 0 7.027343-28.078126 42.175781-37.496094 62.300781-16.695313 8.960937 7.066406 44.1875-1.054687 44.1875-1.054687l-92.371094-92.375c-7.929687-8.40625-19.164063-13.660157-31.632813-13.660157-8.832031 0-17.039062 2.640625-23.898437 7.164063-.109375-.109375-10.554687-10.554688-11.164063-11.148438-15.085937-15.5625-36.207031-25.238281-59.59375-25.238281-15.195312 0-29.433593 4.085937-41.683593 11.210937 27.3125 7.59375 36.269531 42.148438 15.710937 62.039063-4.925781 4.765625-.199218 12.949219 6.390625 11.066406 27.828125-7.953125 53.558594 17.777344 45.605469 45.609375zm0 0" fill="url(#E)"/><path d="m331.183594 232.789062c-.414063 0-.828125.003907-1.242188.015626.804688-3.3125 1.242188-6.769532 1.242188-10.328126 0-24.019531-19.46875-43.488281-43.488282-43.488281-9.449218 0-18.183593 3.019531-25.316406 8.136719-14.851562-22.503906-40.359375-37.359375-69.339844-37.359375-45.851562 0-83.019531 37.171875-83.019531 83.023437 0 .28125.007813.558594.011719.839844-29.128906 4.847656-51.335938 30.15625-51.335938 60.660156 0 33.96875 27.535157 61.503907 61.5 61.503907h210.988282c33.96875 0 61.503906-27.535157 61.503906-61.503907 0-33.964843-27.535156-61.5-61.503906-61.5zm0 0" fill="url(#G)"/><path d="m392.6875 294.289062c0 33.96875-27.539062 61.503907-61.503906 61.503907-33.96875 0-61.503906-27.535157-61.503906-61.503907 0-33.964843 27.535156-61.5 61.503906-61.5 33.964844 0 61.503906 27.535157 61.503906 61.5zm0 0" fill="url(#I)"/><path d="m331.183594 222.476562c0 24.015626-19.46875 43.488282-43.488282 43.488282-24.019531 0-43.488281-19.472656-43.488281-43.488282 0-24.019531 19.46875-43.488281 43.488281-43.488281 24.019532 0 43.488282 19.46875 43.488282 43.488281zm0 0" fill="url(#J)"/><path d="m276.058594 232.789062c0 45.847657-37.167969 83.019532-83.019532 83.019532-45.851562 0-83.019531-37.171875-83.019531-83.019532 0-45.851562 37.167969-83.023437 83.019531-83.023437 45.851563 0 83.019532 37.171875 83.019532 83.023437zm0 0" fill="url(#K)"/><path d="m181.699219 294.289062c0 33.96875-27.535157 61.503907-61.503907 61.503907-33.964843 0-61.5-27.535157-61.5-61.503907 0-33.964843 27.535157-61.5 61.5-61.5 33.96875 0 61.503907 27.535157 61.503907 61.5zm0 0" fill="url(#L)"/><path d="m59.261719 302.664062c4.085937 30.003907 29.808593 53.125 60.933593 53.125h210.988282c31.125 0 56.847656-23.121093 60.933594-53.125zm0 0" fill="url(#M)"/><path d="m303.84375 355.789062-3.207031-3.207031c-4.554688-4.917969-11.066407-8.003906-18.300781-8.003906-.085938 0-.167969.007813-.253907.007813-.050781-.046876-.097656-.097657-.148437-.144532l-16.460938-16.460937c-7.15625-7.496094-17.246094-12.171875-28.429687-12.171875-21.71875 0-39.320313 17.605468-39.320313 39.320312 0 .109375.003906.214844.007813.324219-.46875.09375-.929688.210937-1.386719.339844h107.5zm0 0" fill="url(#N)"/><path d="m197.726562 355.453125c0-.109375-.007812-.214844-.007812-.324219 0-21.714844 17.605469-39.320312 39.324219-39.320312 18.4375 0 33.902343 12.691406 38.15625 29.8125 2.261719-.675782 4.65625-1.042969 7.136719-1.042969 13.769531 0 24.9375 11.164063 24.9375 24.9375 0 13.769531-11.167969 24.9375-24.9375 24.9375-7.964844 0-75.035157 0-80.660157 0-10.878906 0-19.695312-8.820313-19.695312-19.699219 0-9.527344 6.761719-17.472656 15.746093-19.300781zm0 0" fill="url(#O)"/></svg>