<svg height="511.999pt" viewBox="1 1 511.999 511.999" width="511.999pt" xmlns="http://www.w3.org/2000/svg" xmlns:xlink="http://www.w3.org/1999/xlink"><radialGradient id="a" cx="204.9046" cy="184.8846" gradientTransform="matrix(1.00392 .0050196 -.0050196 1.00392 1.376173 -1.162439)" gradientUnits="userSpaceOnUse" r="308.5815"><stop offset="0" stop-color="#ecf7ff"/><stop offset=".5353" stop-color="#eaf6ff"/><stop offset=".7282" stop-color="#e3f2ff"/><stop offset=".8651" stop-color="#d8ecff"/><stop offset=".9756" stop-color="#c7e3ff"/><stop offset="1" stop-color="#c2e0ff"/></radialGradient><linearGradient id="b"><stop offset=".0029" stop-color="#c2e0ff" stop-opacity="0"/><stop offset=".6417" stop-color="#a8bfee" stop-opacity=".639216"/><stop offset="1" stop-color="#9eb2e7"/></linearGradient><linearGradient id="c" gradientUnits="userSpaceOnUse" x1="452.668833096" x2="-20.288922024" xlink:href="#b" y1="415.483636296" y2="-57.474118824"/><linearGradient id="d" gradientUnits="userSpaceOnUse" x1="441.77599992" x2="143.462075448" xlink:href="#b" y1="417.635839992" y2="119.32191552"/><linearGradient id="e"><stop offset="0" stop-color="#3b395f"/><stop offset=".0633" stop-color="#37355a"/><stop offset=".4033" stop-color="#232543"/><stop offset=".7232" stop-color="#171b35"/><stop offset="1" stop-color="#131830"/></linearGradient><linearGradient id="f" gradientUnits="userSpaceOnUse" x1="172.383705552" x2="368.171496888" xlink:href="#e" y1="148.24535268" y2="344.033144016"/><linearGradient id="g" gradientUnits="userSpaceOnUse" x1="31.338467112" x2="227.172739944" xlink:href="#e" y1="-5.846729688" y2="189.987543144"/><path d="m512 256c0 141.382812-114.617188 256-256 256-141.386719 0-256-114.617188-256-256 0-141.386719 114.613281-256 256-256 141.382812 0 256 114.613281 256 256zm0 0" fill="url(#a)"/><path d="m480.808594 378.546875c-14.949219 27.386719-34.765625 51.734375-58.277344 71.882813l-292.433594-292.441407c-9.847656-8.472656-16.101562-21.011719-16.101562-35 0-25.457031 20.71875-46.179687 46.179687-46.179687 13.984375 0 26.523438 6.253906 34.996094 16.105468zm0 0" fill="url(#c)"/><path d="m511.957031 260.777344c-.78125 42.628906-11.984375 82.695312-31.148437 117.769531-14.949219 27.386719-34.765625 51.734375-58.277344 71.882813-31.996094 27.445312-70.847656 47.101562-113.59375 56.089843-2.160156-.453125-4.296875-.9375-6.433594-1.4375l-73.238281-73.234375c-.21875-.121094-.453125-.222656-.660156-.34375-4.347657-2.449218-6.527344-5.972656-6.527344-10.589844v-269.171874c0-4.335938 1.898437-7.800782 5.703125-10.378907 3.804688-2.582031 8.28125-3.875 13.441406-3.875h142.9375c4.609375 0 8.074219 1.835938 10.382813 5.5.351562.550781.660156 1.132813.964843 1.726563zm0 0" fill="url(#d)"/><path d="m222.082031 420.914062v-269.171874c0-4.339844 1.894531-7.800782 5.703125-10.382813 3.796875-2.578125 8.277344-3.871094 13.4375-3.871094h142.933594c4.613281 0 8.074219 1.832031 10.382812 5.496094 2.304688 3.667969 3.460938 8.082031 3.460938 13.238281 0 5.433594-1.21875 10.042969-3.664062 13.84375-2.441407 3.804688-5.839844 5.703125-10.179688 5.703125h-118.910156v93.25h63.121094c4.335937 0 7.734374 1.699219 10.179687 5.09375s3.664063 7.53125 3.664063 12.417969c0 4.347656-1.15625 8.214844-3.460938 11.609375-2.308594 3.394531-5.769531 5.089844-10.382812 5.089844h-63.121094v117.683593c0 4.621094-2.105469 8.144532-6.3125 10.589844-4.210938 2.441406-9.300782 3.664063-15.269532 3.664063-5.699218 0-10.726562-1.222657-15.066406-3.664063-4.347656-2.445312-6.515625-5.96875-6.515625-10.589844zm0 0" fill="url(#f)"/><path d="m160.179688 169.171875c-25.464844 0-46.179688-20.714844-46.179688-46.179687 0-25.460938 20.714844-46.179688 46.179688-46.179688 25.460937 0 46.179687 20.71875 46.179687 46.179688 0 25.464843-20.71875 46.179687-46.179687 46.179687zm0-67.261719c-11.625 0-21.082032 9.457032-21.082032 21.082032s9.457032 21.082031 21.082032 21.082031 21.082031-9.457031 21.082031-21.082031-9.457031-21.082032-21.082031-21.082032zm0 0" fill="url(#g)"/></svg>