<svg height="512pt" viewBox="0 0 512.001 512" width="512pt" xmlns="http://www.w3.org/2000/svg" xmlns:xlink="http://www.w3.org/1999/xlink"><radialGradient id="a" cx="205.8042107844" cy="185.72607" gradientUnits="userSpaceOnUse" r="309.7956719388"><stop offset="0" stop-color="#ecf7ff"/><stop offset=".5353" stop-color="#eaf6ff"/><stop offset=".7282" stop-color="#e3f2ff"/><stop offset=".8651" stop-color="#d8ecff"/><stop offset=".9756" stop-color="#c7e3ff"/><stop offset="1" stop-color="#c2e0ff"/></radialGradient><linearGradient id="b"><stop offset=".0029" stop-color="#c2e0ff" stop-opacity="0"/><stop offset=".6417" stop-color="#a8bfee" stop-opacity=".639216"/><stop offset="1" stop-color="#9eb2e7"/></linearGradient><linearGradient id="c" gradientUnits="userSpaceOnUse" x1="256.4745635372" x2="157.7554999424" xlink:href="#b" y1="338.64848865" y2="259.6732578526"/><linearGradient id="d" gradientUnits="userSpaceOnUse" x1="160.6820329646" x2="95.1269302866" xlink:href="#b" y1="470.8483509448" y2="418.4042688024"/><linearGradient id="e" gradientUnits="userSpaceOnUse" x1="213.469456431" x2="121.6264553986" xlink:href="#b" y1="433.2325983112" y2="359.7582577206"/><linearGradient id="f" gradientUnits="userSpaceOnUse" x1="223.2022794366" x2="149.6805537276" xlink:href="#b" y1="479.0231873986" y2="420.2058068314"/><linearGradient id="g" gradientUnits="userSpaceOnUse" x1="309.1796653996" x2="212.0250134574" xlink:href="#b" y1="409.2624546782" y2="331.538713046"/><linearGradient id="h" gradientUnits="userSpaceOnUse" x1="291.5997864732" x2="220.4353700124" xlink:href="#b" y1="450.4701398356" y2="393.5386267454"/><linearGradient id="i" gradientUnits="userSpaceOnUse" x1="355.9564070676" x2="266.1430351426" xlink:href="#b" y1="384.9613179618" y2="313.110720814"/><linearGradient id="j" gradientUnits="userSpaceOnUse" x1="248.6824221498" x2="215.4373443354" xlink:href="#b" y1="505.7144616126" y2="479.1183592042"/><linearGradient id="k" gradientUnits="userSpaceOnUse" x1="334.3255020868" x2="285.6078780162" xlink:href="#b" y1="484.706088664" y2="445.7319291722"/><linearGradient id="l" gradientUnits="userSpaceOnUse" x1="409.9042639738" x2="341.14273482" xlink:href="#b" y1="393.287947422" y2="338.2787441774"/><linearGradient id="m"><stop offset="0" stop-color="#00c6f6"/><stop offset=".5169" stop-color="#00c4f6"/><stop offset=".7031" stop-color="#02bdf7"/><stop offset=".8359" stop-color="#05b2f9"/><stop offset=".9424" stop-color="#0aa1fc"/><stop offset="1" stop-color="#0d94fe"/></linearGradient><radialGradient id="n" cx="1032.5593" cy="668.8872" gradientTransform="matrix(1.302187 .615805 -.429176 .907545 -936.733315 -744.200033)" gradientUnits="userSpaceOnUse" r="162.644" xlink:href="#m"/><radialGradient id="o" cx="1032.5601" cy="668.8879" gradientTransform="matrix(1.302187 .615805 -.429176 .907545 -936.733315 -744.200033)" gradientUnits="userSpaceOnUse" r="162.6438" xlink:href="#m"/><radialGradient id="p" cx="1032.5607" cy="668.8868" gradientTransform="matrix(1.302187 .615805 -.429176 .907545 -936.733315 -744.200033)" gradientUnits="userSpaceOnUse" r="162.6425" xlink:href="#m"/><radialGradient id="q" cx="1024.1509" cy="643.3798" gradientTransform="matrix(1.302187 .615805 -.429176 .907545 -936.733315 -744.200033)" gradientUnits="userSpaceOnUse" r="162.6424" xlink:href="#m"/><radialGradient id="r" cx="1024.1519" cy="643.3797" gradientTransform="matrix(1.302187 .615805 -.429176 .907545 -936.733315 -744.200033)" gradientUnits="userSpaceOnUse" r="162.6435" xlink:href="#m"/><radialGradient id="s" cx="1015.7445" cy="617.8722" gradientTransform="matrix(1.302187 .615805 -.429176 .907545 -936.733315 -744.200033)" gradientUnits="userSpaceOnUse" r="162.637" xlink:href="#m"/><radialGradient id="t" cx="1015.7438" cy="617.8722" gradientTransform="matrix(1.302187 .615805 -.429176 .907545 -936.733315 -744.200033)" gradientUnits="userSpaceOnUse" r="162.6394" xlink:href="#m"/><radialGradient id="u" cx="1015.7448" cy="617.8721" gradientTransform="matrix(1.302187 .615805 -.429176 .907545 -936.733315 -744.200033)" gradientUnits="userSpaceOnUse" r="162.6421" xlink:href="#m"/><radialGradient id="v" cx="1007.3333" cy="592.3649" gradientTransform="matrix(1.302187 .615805 -.429176 .907545 -936.733315 -744.200033)" gradientUnits="userSpaceOnUse" r="162.6423" xlink:href="#m"/><radialGradient id="w" cx="1007.3339" cy="592.3641" gradientTransform="matrix(1.302187 .615805 -.429176 .907545 -936.733315 -744.200033)" gradientUnits="userSpaceOnUse" r="162.6428" xlink:href="#m"/><linearGradient id="x"><stop offset="0" stop-color="#ffd459"/><stop offset=".2296" stop-color="#ffd355"/><stop offset=".4362" stop-color="#ffcf4a"/><stop offset=".634" stop-color="#ffc838"/><stop offset=".825" stop-color="#ffbf1f"/><stop offset="1" stop-color="#ffb400"/></linearGradient><linearGradient id="y" gradientUnits="userSpaceOnUse" x1="47.665212638" x2="130.953091563" xlink:href="#x" y1="306.8265706628" y2="390.1144495878"/><linearGradient id="z" gradientUnits="userSpaceOnUse" x1="393.820028043" x2="439.8135097666" xlink:href="#x" y1="357.0015883008" y2="402.9950700244"/><linearGradient id="A"><stop offset="0" stop-color="#e58200" stop-opacity="0"/><stop offset=".0396" stop-color="#e27f04" stop-opacity=".039216"/><stop offset=".4671" stop-color="#c15d2f" stop-opacity=".466667"/><stop offset=".8016" stop-color="#ad4949" stop-opacity=".8"/><stop offset="1" stop-color="#a64153"/></linearGradient><linearGradient id="B" gradientUnits="userSpaceOnUse" x1="166.9950960694" x2="80.8825822052" xlink:href="#A" y1="327.6042423358" y2="241.4918288638"/><linearGradient id="C" gradientUnits="userSpaceOnUse" x1="465.9584496282" x2="370.5741137408" xlink:href="#A" y1="392.0839437674" y2="296.6997082722"/><linearGradient id="D"><stop offset="0" stop-color="#cfced3"/><stop offset=".8111" stop-color="#a5abbd"/><stop offset="1" stop-color="#9aa2b7"/></linearGradient><radialGradient id="E" cx="169.313955105" cy="-34.6223603672" gradientUnits="userSpaceOnUse" r="388.4870939868" xlink:href="#D"/><linearGradient id="F"><stop offset=".0018" stop-color="#9aa2b7" stop-opacity="0"/><stop offset=".3682" stop-color="#848a9c" stop-opacity=".368627"/><stop offset="1" stop-color="#606572"/></linearGradient><linearGradient id="G" gradientUnits="userSpaceOnUse" x1="416.6615625636" x2="472.6589262328" xlink:href="#F" y1="224.739984803" y2="55.79848476"/><linearGradient id="H" gradientUnits="userSpaceOnUse" x1="352.6007977826" x2="424.5964616594" xlink:href="#F" y1="109.164468475" y2="2.4196508434"/><linearGradient id="I" gradientUnits="userSpaceOnUse" x1="205.9469684928" x2="205.9469684928" xlink:href="#F" y1="138.541736" y2="-168.6582956078"/><linearGradient id="J" gradientUnits="userSpaceOnUse" x1="95.945327501" x2="-17.7058711374" xlink:href="#F" y1="223.121662539" y2="115.712047759"/><linearGradient id="K" gradientUnits="userSpaceOnUse" x1="256.00011" x2="256.00011" xlink:href="#F" y1="247.4982941898" y2="378.7661152998"/><linearGradient id="L" gradientUnits="userSpaceOnUse" x1="409.2189868166" x2="271.8257356236" xlink:href="#F" y1="375.7728214646" y2="238.3795702716"/><radialGradient id="M" cx="301.6033672422" cy="248.6812154824" gradientUnits="userSpaceOnUse" r="163.8708908054" xlink:href="#D"/><path d="m512 256c0 141.386719-114.613281 256-256 256s-256-114.613281-256-256c0-141.382812 114.613281-256 256-256s256 114.617188 256 256zm0 0" fill="url(#a)"/><path d="m290.042969 452.414062c1.171875 1.515626 2.699219 2.789063 4.546875 3.664063 6.265625 2.964844 13.75.285156 16.710937-5.976563l40.988281-86.671874c2.574219-5.441407.890626-11.792969-3.699218-15.3125l-113.433594-113.433594c-1.171875-1.515625-2.695312-2.792969-4.546875-3.667969-6.265625-2.960937-13.746094-.285156-16.710937 5.980469l-40.988282 86.671875c-2.570312 5.4375-.886718 11.789062 3.699219 15.308593zm0 0" fill="url(#c)"/><path d="m233.761719 511.046875c-6.191407-.53125-12.316407-1.285156-18.371094-2.257813-3.261719-.511718-6.503906-1.09375-9.71875-1.738281-18.078125-3.605469-35.476563-9.105469-51.960937-16.304687-16.855469-7.355469-32.757813-16.472656-47.484376-27.113282l18.160157-38.402343c.773437-1.644531 1.867187-3.050781 3.171875-4.164063 2.179687-1.867187 4.960937-2.933594 7.820312-3.011718 1.90625-.0625 3.863282.320312 5.710938 1.195312 1.847656.882812 3.375 2.15625 4.550781 3.671875l67.773437 67.777344 7.410157 7.40625zm0 0" fill="url(#d)"/><path d="m297.261719 479.933594-.683594 1.4375-1.917969 4.015625-10.410156 21.796875-1.644531 3.441406-.234375.503906-.429688-.433594c-8.523437.863282-17.1875 1.304688-25.941406 1.304688-4.820312 0-9.609375-.128906-14.355469-.402344l-15.070312-15.066406-84.601563-84.601562c-4.585937-3.515626-6.273437-9.867188-3.703125-15.308594l20.601563-43.121094c2.960937-6.261719 10.441406-8.933594 16.703125-5.972656 1.859375.875 3.386719 2.148437 4.558593 3.664062l113.433594 113.433594c4.589844 3.523438 6.265625 9.867188 3.695313 15.308594zm0 0" fill="url(#e)"/><path d="m314.546875 505.273438c-8.953125 2.097656-18.078125 3.714843-27.363281 4.839843-1.519532.191407-3.042969.359375-4.578125.511719l-.234375.503906-.429688-.433594c-8.523437.863282-17.1875 1.304688-25.941406 1.304688-4.820312 0-9.609375-.128906-14.355469-.402344-2.640625-.140625-5.269531-.320312-7.882812-.550781-6.191407-.53125-12.316407-1.285156-18.371094-2.257813-3.261719-.511718-6.503906-1.09375-9.71875-1.738281-18.078125-3.605469-35.476563-9.105469-51.960937-16.304687l13.972656-29.554688 3.476562-7.359375 1.734375-3.652343 2.351563-4.980469 17.867187-37.789063c2.960938-6.261718 10.453125-8.941406 16.714844-5.980468 1.847656.882812 3.375 2.15625 4.550781 3.671874l39.402344 39.40625zm0 0" fill="url(#f)"/><path d="m385.585938 419.148438-18.742188 39.625-1.777344 3.753906-14.949218 31.613281c-9.980469 3.945313-20.257813 7.289063-30.800782 9.96875l-22.738281-22.738281-40.890625-40.898438-45.777344-45.78125c-4.589844-3.511718-6.273437-9.867187-3.703125-15.308594l.679688-1.4375 2.792969-5.902343 13.652343-28.882813 23.863281-50.445312c2.960938-6.265625 10.441407-8.945313 16.707032-5.984375 1.855468.882812 3.382812 2.160156 4.554687 3.675781l27.238281 27.234375 53.128907 53.128906 33.066406 33.070313c4.578125 3.511718 6.265625 9.867187 3.695313 15.308594zm0 0" fill="url(#g)"/><path d="m381.640625 479.101562c-10.097656 5.703126-20.628906 10.730469-31.523437 15.039063-9.980469 3.945313-20.257813 7.289063-30.800782 9.96875-1.585937.402344-3.171875.792969-4.769531 1.164063-8.953125 2.097656-18.078125 3.714843-27.363281 4.839843l-48.660156-48.660156c-4.589844-3.515625-6.277344-9.867187-3.707032-15.308594l6.605469-13.996093 1.910156-4.035157 4.394531-9.328125 2.792969-5.902344 13.25-28.078124c.132813-.273438.273438-.542969.414063-.792969 3.199218-5.695313 10.296875-8.011719 16.292968-5.179688 1.855469.871094 3.382813 2.148438 4.558594 3.664063zm0 0" fill="url(#h)"/><path d="m444.324219 422.390625-6.535157 13.84375c-15.648437 15.792969-33.339843 29.546875-52.644531 40.839844l-18.300781-18.300781-40.488281-40.5-45.667969-45.667969c-4.589844-3.511719-6.277344-9.867188-3.707031-15.308594l18.714843-39.65625 7.1875-15.230469 3.050782-6.453125c2.964844-6.265625 10.441406-8.933593 16.707031-5.972656 1.855469.871094 3.382813 2.148437 4.558594 3.664063l113.433593 113.433593c4.585938 3.523438 6.261719 9.867188 3.691407 15.308594zm0 0" fill="url(#i)"/><path d="m281.941406 510.695312c-8.523437.863282-17.1875 1.304688-25.941406 1.304688-4.820312 0-9.609375-.128906-14.355469-.402344-2.640625-.140625-5.269531-.320312-7.882812-.550781-6.191407-.53125-12.316407-1.285156-18.371094-2.257813-3.261719-.511718-3.753906-14.335937-3.753906-14.335937l1.777343-3.753906 2.347657-4.980469 5.664062-11.96875c2.960938-6.261719 10.449219-8.933594 16.714844-5.972656 1.324219.632812 2.488281 1.464844 3.472656 2.449218.382813.382813.742188.792969 1.074219 1.214844zm0 0" fill="url(#j)"/><path d="m395.363281 470.769531c-35.628906 23.179688-77.390625 37.71875-122.316406 40.667969-3.734375-3.625-4.941406-9.367188-2.589844-14.34375l40.988281-86.671875c2.960938-6.261719 10.441407-8.941406 16.707032-5.980469 1.855468.882813 3.382812 2.15625 4.558594 3.671875zm0 0" fill="url(#k)"/><path d="m478.027344 383.519531c-19.414063 33.742188-46.3125 62.632813-78.417969 84.429688l-70.984375-71c-4.589844-3.511719-6.277344-9.867188-3.707031-15.308594l40.992187-86.667969c2.960938-6.265625 10.441406-8.945312 16.703125-5.984375 1.859375.882813 3.382813 2.160157 4.558594 3.675781zm0 0" fill="url(#l)"/><path d="m98.210938 510.792969c-6.265626-2.960938-8.941407-10.445313-5.980469-16.710938l32.40625-68.519531c2.960937-6.265625 10.441406-8.941406 16.707031-5.980469 6.265625 2.964844 8.941406 10.445313 5.980469 16.710938l-32.40625 68.519531c-2.960938 6.265625-10.441407 8.945312-16.707031 5.980469zm0 0" fill="url(#n)"/><path d="m144.5625 412.777344c-6.265625-2.964844-8.941406-10.441406-5.976562-16.707032l20.171874-42.65625c2.960938-6.265624 10.441407-8.941406 16.707032-5.980468 6.265625 2.964844 8.945312 10.445312 5.980468 16.710937l-20.171874 42.65625c-2.964844 6.261719-10.445313 8.941407-16.710938 5.976563zm0 0" fill="url(#o)"/><path d="m178.898438 340.171875c-6.265626-2.960937-8.941407-10.441406-5.980469-16.707031l18.027343-38.117188c2.964844-6.265625 10.445313-8.941406 16.710938-5.980468 6.265625 2.964843 8.941406 10.445312 5.976562 16.710937l-18.023437 38.117187c-2.964844 6.265626-10.445313 8.941407-16.710937 5.976563zm0 0" fill="url(#p)"/><path d="m158.109375 510.792969c-6.265625-2.960938-8.941406-10.445313-5.980469-16.710938l40.988282-86.667969c2.964843-6.265624 10.445312-8.941406 16.710937-5.980468 6.265625 2.960937 8.941406 10.445312 5.980469 16.710937l-40.988282 86.667969c-2.964843 6.265625-10.445312 8.945312-16.710937 5.980469zm0 0" fill="url(#q)"/><path d="m212.1875 396.441406c-6.265625-2.960937-8.941406-10.445312-5.980469-16.710937l44.636719-94.382813c2.964844-6.265625 10.445312-8.945312 16.710938-5.980468 6.265624 2.960937 8.941406 10.445312 5.980468 16.707031l-44.636718 94.386719c-2.964844 6.265624-10.445313 8.941406-16.710938 5.980468zm0 0" fill="url(#r)"/><path d="m218.007812 510.792969c-6.265624-2.964844-8.941406-10.445313-5.980468-16.710938l9.441406-19.964843c2.964844-6.265626 10.445312-8.941407 16.710938-5.980469 6.265624 2.964843 8.941406 10.445312 5.980468 16.710937l-9.441406 19.964844c-2.964844 6.265625-10.445312 8.945312-16.710938 5.980469zm0 0" fill="url(#s)"/><path d="m240.753906 462.691406c-6.265625-2.960937-8.941406-10.441406-5.976562-16.707031l28.96875-61.261719c2.960937-6.265625 10.445312-8.941406 16.710937-5.980468 6.265625 2.964843 8.941407 10.445312 5.976563 16.710937l-28.96875 61.261719c-2.964844 6.265625-10.445313 8.941406-16.710938 5.976562zm0 0" fill="url(#t)"/><path d="m282.816406 373.753906c-6.265625-2.964844-8.945312-10.445312-5.980468-16.710937l33.90625-71.695313c2.960937-6.265625 10.445312-8.945312 16.707031-5.980468 6.265625 2.964843 8.945312 10.445312 5.980469 16.710937l-33.90625 71.695313c-2.960938 6.265624-10.441407 8.941406-16.707032 5.980468zm0 0" fill="url(#u)"/><path d="m277.90625 510.792969c-6.265625-2.960938-8.941406-10.445313-5.980469-16.710938l39.488281-83.492187c2.960938-6.265625 10.441407-8.945313 16.707032-5.980469 6.265625 2.960937 8.945312 10.445313 5.980468 16.707031l-39.484374 83.496094c-2.964844 6.265625-10.445313 8.945312-16.710938 5.980469zm0 0" fill="url(#v)"/><path d="m331.125 398.257812c-6.265625-2.964843-8.941406-10.445312-5.976562-16.710937l45.492187-96.199219c2.960937-6.265625 10.445313-8.941406 16.710937-5.980468 6.265626 2.964843 8.941407 10.445312 5.976563 16.710937l-45.492187 96.199219c-2.964844 6.265625-10.445313 8.941406-16.710938 5.980468zm0 0" fill="url(#w)"/><path d="m153.15625 322.9375h-21.796875c-5.765625 0-10.089844-5.277344-8.960937-10.933594l19.703124-98.558594c1.875-9.390624-10.117187-14.976562-16.097656-7.5l-115.953125 144.9375c-4.789062 5.980469-.527343 14.847657 7.136719 14.847657h21.792969c5.769531 0 10.09375 5.273437 8.964843 10.929687l-19.703124 98.558594c-1.878907 9.390625 10.117187 14.980469 16.097656 7.503906l115.953125-144.9375c4.785156-5.984375.523437-14.847656-7.136719-14.847656zm0 0" fill="url(#y)"/><path d="m452.074219 365.898438h-12.035157c-3.1875 0-5.574218-2.914063-4.949218-6.035157l10.878906-54.425781c1.039062-5.1875-5.585938-8.273438-8.890625-4.144531l-64.03125 80.035156c-2.640625 3.308594-.289063 8.199219 3.941406 8.199219h12.035157c3.1875 0 5.574218 2.914062 4.949218 6.039062l-10.878906 54.425782c-1.035156 5.183593 5.585938 8.269531 8.890625 4.140624l64.03125-80.035156c2.644531-3.304687.289063-8.199218-3.941406-8.199218zm0 0" fill="url(#z)"/><path d="m153.15625 322.9375h-21.796875c-5.765625 0-10.089844-5.277344-8.960937-10.933594l19.703124-98.558594c1.875-9.390624-10.117187-14.976562-16.097656-7.5l-78.101562 97.621094 77.644531 77.644532 34.746094-43.425782c4.785156-5.984375.523437-14.847656-7.136719-14.847656zm0 0" fill="url(#B)"/><path d="m452.074219 365.898438h-12.035157c-3.1875 0-5.574218-2.914063-4.949218-6.035157l10.878906-54.425781c1.035156-5.1875-5.585938-8.273438-8.890625-4.144531l-58.449219 73.0625.183594.441406 42.578125 42.578125 34.625-43.277344c2.644531-3.304687.289063-8.199218-3.941406-8.199218zm0 0" fill="url(#C)"/><path d="m417.71875 127.269531c-.636719 0-1.273438.011719-1.90625.023438 1.234375-5.078125 1.90625-10.375 1.90625-15.832031 0-36.820313-29.847656-66.667969-66.667969-66.667969-14.480469 0-27.875 4.632812-38.808593 12.476562-22.765626-34.5-61.867188-57.269531-106.296876-57.269531-70.285156 0-127.265624 56.980469-127.265624 127.269531 0 .429688.011718.859375.015624 1.289063-44.652343 7.429687-78.695312 46.230468-78.695312 92.992187 0 52.070313 42.210938 94.28125 94.28125 94.28125h323.4375c52.070312 0 94.28125-42.210937 94.28125-94.28125 0-52.070312-42.210938-94.28125-94.28125-94.28125zm0 0" fill="url(#E)"/><path d="m512 221.550781c0 52.066407-42.210938 94.28125-94.28125 94.28125s-94.28125-42.214843-94.28125-94.28125c0-52.070312 42.210938-94.28125 94.28125-94.28125s94.28125 42.210938 94.28125 94.28125zm0 0" fill="url(#G)"/><path d="m417.71875 111.460938c0 36.816406-29.847656 66.664062-66.667969 66.664062-36.816406 0-66.664062-29.847656-66.664062-66.664062 0-36.820313 29.847656-66.667969 66.664062-66.667969 36.820313 0 66.667969 29.847656 66.667969 66.667969zm0 0" fill="url(#H)"/><path d="m333.214844 127.269531c0 70.285157-56.980469 127.265625-127.269532 127.265625-70.285156 0-127.265624-56.980468-127.265624-127.265625 0-70.289062 56.980468-127.269531 127.265624-127.269531 70.289063 0 127.269532 56.980469 127.269532 127.269531zm0 0" fill="url(#I)"/><path d="m188.5625 221.550781c0 52.066407-42.210938 94.28125-94.28125 94.28125s-94.28125-42.214843-94.28125-94.28125c0-52.070312 42.210938-94.28125 94.28125-94.28125s94.28125 42.210938 94.28125 94.28125zm0 0" fill="url(#J)"/><path d="m.875 234.390625c6.265625 45.992187 45.691406 81.441406 93.40625 81.441406h323.4375c47.714844 0 87.144531-35.449219 93.40625-81.441406zm0 0" fill="url(#K)"/><path d="m431.65625 315.832031-4.917969-4.917969c-6.984375-7.546874-16.964843-12.273437-28.058593-12.273437-.128907 0-.257813.011719-.386719.011719-.078125-.070313-.152344-.148438-.226563-.21875l-25.234375-25.234375c-10.972656-11.496094-26.4375-18.664063-43.585937-18.664063-33.292969 0-60.28125 26.988282-60.28125 60.28125 0 .164063.011718.328125.015625.492188-.71875.148437-1.425781.324218-2.125.523437zm0 0" fill="url(#L)"/><path d="m268.980469 315.308594c0-.164063-.011719-.328125-.011719-.492188 0-33.292968 26.988281-60.28125 60.28125-60.28125 28.261719 0 51.972656 19.453125 58.492188 45.699219 3.46875-1.03125 7.136718-1.59375 10.9375-1.59375 21.113281 0 38.230468 17.117187 38.230468 38.226563 0 21.113281-17.117187 38.230468-38.230468 38.230468-12.210938 0-115.023438 0-123.640626 0-16.679687 0-30.199218-13.519531-30.199218-30.199218 0-14.605469 10.363281-26.785157 24.140625-29.589844zm0 0" fill="url(#M)"/></svg>