<svg height="512pt" viewBox="0 0 512 512" width="512pt" xmlns="http://www.w3.org/2000/svg" xmlns:xlink="http://www.w3.org/1999/xlink"><linearGradient id="a"><stop offset="0" stop-color="#ff6e3a"/><stop offset=".2336" stop-color="#ff6b3c"/><stop offset=".418" stop-color="#ff6143"/><stop offset=".5857" stop-color="#ff504e"/><stop offset=".7434" stop-color="#ff395e"/><stop offset=".8928" stop-color="#ff1b72"/><stop offset="1" stop-color="#ff0084"/></linearGradient><radialGradient id="b" cx="184.7214472156" cy="137.5371132156" gradientUnits="userSpaceOnUse" r="380.4785070162" xlink:href="#a"/><linearGradient id="c" gradientUnits="userSpaceOnUse" x1="490.865654056" x2="210.7853705718" y1="323.247323209" y2="255.4862023282"><stop offset="0" stop-color="#ff0084" stop-opacity="0"/><stop offset=".0737" stop-color="#f4087e" stop-opacity=".07451"/><stop offset=".3347" stop-color="#d2216b" stop-opacity=".333333"/><stop offset=".583" stop-color="#ba335e" stop-opacity=".584314"/><stop offset=".8111" stop-color="#ab3d56" stop-opacity=".811765"/><stop offset="1" stop-color="#a64153"/></linearGradient><linearGradient id="d"><stop offset="0" stop-color="#ecf7ff"/><stop offset=".2926" stop-color="#e6f4ff"/><stop offset=".6915" stop-color="#d4eaff"/><stop offset="1" stop-color="#c2e0ff"/></linearGradient><linearGradient id="e" gradientUnits="userSpaceOnUse" x1="190.8657510322" x2="345.1944636198" xlink:href="#d" y1="256.00011" y2="256.00011"/><linearGradient id="f" gradientUnits="userSpaceOnUse" x1="331.29426" x2="219.840847404" xlink:href="#d" y1="255.497647039" y2="255.497647039"/><radialGradient id="g" cx="127.4977928234" cy="145.5684892156" gradientUnits="userSpaceOnUse" r="344.1738765146" xlink:href="#a"/><linearGradient id="h"><stop offset="0" stop-color="#3b395f"/><stop offset=".0633" stop-color="#37355a"/><stop offset=".4033" stop-color="#232543"/><stop offset=".7232" stop-color="#171b35"/><stop offset="1" stop-color="#131830"/></linearGradient><linearGradient id="i" gradientUnits="userSpaceOnUse" x1="299.168756" x2="338.656521987" xlink:href="#h" y1="118.462796" y2="118.462796"/><linearGradient id="j" gradientUnits="userSpaceOnUse" x1="299.168756" x2="338.656521987" xlink:href="#h" y1="163.974093987" y2="163.974093987"/><linearGradient id="k" gradientUnits="userSpaceOnUse" x1="299.168756" x2="338.656521987" xlink:href="#h" y1="209.484890013" y2="209.484890013"/><linearGradient id="l" gradientUnits="userSpaceOnUse" x1="299.168756" x2="338.656521987" xlink:href="#h" y1="254.996188" y2="254.996188"/><linearGradient id="m" gradientUnits="userSpaceOnUse" x1="299.168756" x2="338.656521987" xlink:href="#h" y1="300.507485987" y2="300.507485987"/><linearGradient id="n" gradientUnits="userSpaceOnUse" x1="299.168756" x2="338.656521987" xlink:href="#h" y1="346.018282013" y2="346.018282013"/><linearGradient id="o"><stop offset="0" stop-color="#fff" stop-opacity="0"/><stop offset="1" stop-color="#fff"/></linearGradient><linearGradient id="p" gradientUnits="userSpaceOnUse" x1="256.2474763808" x2="191.3272539756" xlink:href="#o" y1="213.4406438696" y2="203.4015242618"/><linearGradient id="q" gradientUnits="userSpaceOnUse" x1="264.175046846" x2="147.218133846" xlink:href="#o" y1="410.1570515334" y2="477.4197251412"/><path d="m512 256c0 141.386719-114.613281 256-256 256s-256-114.613281-256-256 114.613281-256 256-256 256 114.613281 256 256zm0 0" fill="url(#b)"/><path d="m256 19.589844c-51.144531 0-92.609375 41.460937-92.609375 92.605468v287.609376c0 27.179687 11.710937 51.625 30.359375 68.566406l42.90625 42.90625c6.386719.476562 12.835938.722656 19.34375.722656 141.382812 0 256-114.617188 256-256 0-6.507812-.246094-12.957031-.722656-19.34375l-186.710938-186.707031c-16.941406-18.652344-41.386718-30.359375-68.566406-30.359375zm0 0" fill="url(#c)"/><path d="m256 492.410156c-51.144531 0-92.609375-41.460937-92.609375-92.605468v-287.609376c0-51.144531 41.464844-92.609374 92.609375-92.609374s92.605469 41.464843 92.605469 92.609374v287.609376c0 51.144531-41.460938 92.605468-92.605469 92.605468zm0 0" fill="url(#e)"/><path d="m256.054688 477.867188c-16.710938 0-32.542969-6.605469-44.582032-18.597657-12.070312-12.023437-18.71875-27.882812-18.71875-44.648437 0-17.757813 7.539063-34.804688 20.683594-46.769532 2.804688-2.554687 4.414062-6.253906 4.414062-10.144531v-286.429687c0-21.035156 17.113282-38.148438 38.148438-38.148438.351562 0 .707031.003906 1.0625.015625 20.449219.558594 37.085938 17.929688 37.085938 38.71875v285.835938c0 3.914062 1.554687 7.5625 4.265624 10.015625 13.238282 11.976562 20.832032 29.070312 20.832032 46.90625 0 16.53125-6.335938 32.167968-17.84375 44.03125-11.484375 11.835937-26.867188 18.648437-43.328125 19.179687-.675781.023438-1.347657.035157-2.019531.035157zm0 0" fill="url(#f)"/><path d="m284.109375 357.699219v-285.835938c0-15.316406-12.007813-28.265625-27.320313-28.683593-15.886718-.4375-28.898437 12.3125-28.898437 28.097656v286.429687c0 6.671875-2.761719 13.074219-7.695313 17.570313-10.691406 9.726562-17.402343 23.75-17.402343 39.34375 0 29.730468 25.242187 54.140625 54.957031 53.179687 28.578125-.925781 51.457031-24.378906 51.457031-53.179687 0-15.65625-6.765625-29.726563-17.527343-39.460938-4.90625-4.4375-7.570313-10.84375-7.570313-17.460937zm0 0" fill="url(#g)"/><path d="m334.640625 122.476562h-31.457031c-2.21875 0-4.015625-1.796874-4.015625-4.015624 0-2.214844 1.796875-4.015626 4.015625-4.015626h31.457031c2.21875 0 4.015625 1.800782 4.015625 4.015626 0 2.21875-1.796875 4.015624-4.015625 4.015624zm0 0" fill="url(#i)"/><path d="m334.640625 167.988281h-31.457031c-2.21875 0-4.015625-1.796875-4.015625-4.015625s1.796875-4.015625 4.015625-4.015625h31.457031c2.21875 0 4.015625 1.796875 4.015625 4.015625s-1.796875 4.015625-4.015625 4.015625zm0 0" fill="url(#j)"/><path d="m334.640625 213.5h-31.457031c-2.21875 0-4.015625-1.796875-4.015625-4.015625 0-2.214844 1.796875-4.015625 4.015625-4.015625h31.457031c2.21875 0 4.015625 1.800781 4.015625 4.015625 0 2.21875-1.796875 4.015625-4.015625 4.015625zm0 0" fill="url(#k)"/><path d="m334.640625 259.011719h-31.457031c-2.21875 0-4.015625-1.796875-4.015625-4.015625s1.796875-4.015625 4.015625-4.015625h31.457031c2.21875 0 4.015625 1.796875 4.015625 4.015625s-1.796875 4.015625-4.015625 4.015625zm0 0" fill="url(#l)"/><path d="m334.640625 304.523438h-31.457031c-2.21875 0-4.015625-1.800782-4.015625-4.015626 0-2.21875 1.796875-4.015624 4.015625-4.015624h31.457031c2.21875 0 4.015625 1.796874 4.015625 4.015624s-1.796875 4.015626-4.015625 4.015626zm0 0" fill="url(#m)"/><path d="m334.640625 350.035156h-31.457031c-2.21875 0-4.015625-1.800781-4.015625-4.015625 0-2.21875 1.796875-4.015625 4.015625-4.015625h31.457031c2.21875 0 4.015625 1.796875 4.015625 4.015625 0 2.214844-1.796875 4.015625-4.015625 4.015625zm0 0" fill="url(#n)"/><path d="m278.085938 373.457031h-44.171876v-301.175781c0-12.195312 9.886719-22.085938 22.085938-22.085938s22.085938 9.890626 22.085938 22.085938zm0 0" fill="url(#p)"/><path d="m303.980469 414.859375c0 26.496094-21.480469 47.980469-47.980469 47.980469s-47.980469-21.484375-47.980469-47.980469c0-26.5 21.480469-47.980469 47.980469-47.980469s47.980469 21.480469 47.980469 47.980469zm0 0" fill="url(#q)"/></svg>