<svg height="512pt" viewBox="0 0 512 512.00119" width="512pt" xmlns="http://www.w3.org/2000/svg" xmlns:xlink="http://www.w3.org/1999/xlink"><radialGradient id="a" cx="215.8440257844" cy="185.726757" gradientUnits="userSpaceOnUse" r="336.6901399656"><stop offset="0" stop-color="#3b395f"/><stop offset=".3952" stop-color="#39375d"/><stop offset=".6279" stop-color="#323154"/><stop offset=".8179" stop-color="#262846"/><stop offset=".9849" stop-color="#151a32"/><stop offset="1" stop-color="#131830"/></radialGradient><linearGradient id="b"><stop offset="0" stop-color="#131830" stop-opacity="0"/><stop offset=".8421" stop-color="#131830"/></linearGradient><linearGradient id="c" gradientUnits="userSpaceOnUse" x1="560.7786743906" x2="38.7390336062" xlink:href="#b" y1="400.6208791412" y2="134.5812479646"/><radialGradient id="d" cx="352.5397519718" cy="73.6698868898" gradientUnits="userSpaceOnUse" r="194.3880113692"><stop offset="0" stop-color="#ffebc9"/><stop offset=".2771" stop-color="#ffe9c5"/><stop offset=".5263" stop-color="#fee2bb"/><stop offset=".7641" stop-color="#fdd7a8"/><stop offset=".9948" stop-color="#fbc78f"/><stop offset="1" stop-color="#fbc78e"/></radialGradient><linearGradient id="e" gradientUnits="userSpaceOnUse" x1="453.9514347628" x2="342.013730194" xlink:href="#b" y1="474.2618707838" y2="417.0381159994"/><linearGradient id="f" gradientUnits="userSpaceOnUse" x1="485.8032696256" x2="373.865163488" xlink:href="#b" y1="411.9557608744" y2="354.7318053056"/><linearGradient id="g" gradientUnits="userSpaceOnUse" x1="318.9412936134" x2="210.1833111952" xlink:href="#b" y1="484.9274377196" y2="431.0504577066"/><linearGradient id="h" gradientUnits="userSpaceOnUse" x1="353.9114106004" x2="245.1531270056" xlink:href="#b" y1="414.3362607208" y2="360.4590799234"/><linearGradient id="i" gradientUnits="userSpaceOnUse" x1="207.7499046594" x2="134.1289914568" xlink:href="#b" y1="470.3730785246" y2="427.5390397272"/><linearGradient id="j" gradientUnits="userSpaceOnUse" x1="190.5311364764" x2="116.9100224894" xlink:href="#b" y1="499.9677955548" y2="457.1337567574"/><linearGradient id="k" gradientUnits="userSpaceOnUse" x1="392.8944046058" x2="305.0512296058" xlink:href="#b" y1="450.6525367176" y2="417.0211497176"/><linearGradient id="l" gradientUnits="userSpaceOnUse" x1="371.5469068056" x2="283.7031294524" xlink:href="#b" y1="506.4122720494" y2="472.780684265"/><linearGradient id="m" gradientUnits="userSpaceOnUse" x1="275.4304106036" x2="165.6681046166" xlink:href="#b" y1="488.4986894502" y2="448.3418094502"/><linearGradient id="n" gradientUnits="userSpaceOnUse" x1="296.815655871" x2="187.0536510606" xlink:href="#b" y1="430.0451302158" y2="389.8882502158"/><linearGradient id="o"><stop offset="0" stop-color="#00c6f6"/><stop offset=".5169" stop-color="#00c4f6"/><stop offset=".7031" stop-color="#02bdf7"/><stop offset=".8359" stop-color="#05b2f9"/><stop offset=".9424" stop-color="#0aa1fc"/><stop offset="1" stop-color="#0d94fe"/></linearGradient><radialGradient id="p" cx="373.1114" cy="489.5" gradientTransform="matrix(1.440427 0 0 1.003922 -332.464296 .001187)" gradientUnits="userSpaceOnUse" r="162.6394" xlink:href="#o"/><radialGradient id="q" cx="373.1114" cy="489.5001" gradientTransform="matrix(1.440427 0 0 1.003922 -332.464296 .001187)" gradientUnits="userSpaceOnUse" r="162.6399" xlink:href="#o"/><radialGradient id="r" cx="373.1114" cy="489.5" gradientTransform="matrix(1.440427 0 0 1.003922 -332.464296 .001187)" gradientUnits="userSpaceOnUse" r="162.6408" xlink:href="#o"/><radialGradient id="s" cx="373.1113" cy="489.5" gradientTransform="matrix(1.440427 0 0 1.003922 -332.464296 .001187)" gradientUnits="userSpaceOnUse" r="162.6412" xlink:href="#o"/><radialGradient id="t" cx="373.1113" cy="489.5002" gradientTransform="matrix(1.440427 0 0 1.003922 -332.464296 .001187)" gradientUnits="userSpaceOnUse" r="162.6407" xlink:href="#o"/><radialGradient id="u" cx="373.1113" cy="489.5" gradientTransform="matrix(1.440427 0 0 1.003922 -332.464296 .001187)" gradientUnits="userSpaceOnUse" r="162.6406" xlink:href="#o"/><radialGradient id="v" cx="373.1114" cy="489.5" gradientTransform="matrix(1.440427 0 0 1.003922 -332.464296 .001187)" gradientUnits="userSpaceOnUse" r="162.6388" xlink:href="#o"/><radialGradient id="w" cx="373.1114" cy="489.5005" gradientTransform="matrix(1.440427 0 0 1.003922 -332.464296 .001187)" gradientUnits="userSpaceOnUse" r="162.6413" xlink:href="#o"/><radialGradient id="x" cx="373.1114" cy="489.5" gradientTransform="matrix(1.440427 0 0 1.003922 -332.464296 .001187)" gradientUnits="userSpaceOnUse" r="162.6385" xlink:href="#o"/><radialGradient id="y" cx="373.1114" cy="489.5002" gradientTransform="matrix(1.440427 0 0 1.003922 -332.464296 .001187)" gradientUnits="userSpaceOnUse" r="162.6407" xlink:href="#o"/><radialGradient id="z" cx="373.1114" cy="489.5" gradientTransform="matrix(1.440427 0 0 1.003922 -332.464296 .001187)" gradientUnits="userSpaceOnUse" r="162.6387" xlink:href="#o"/><radialGradient id="A" cx="373.1114" cy="446.4402" gradientTransform="matrix(1.440427 0 0 1.003922 -332.464296 .001187)" gradientUnits="userSpaceOnUse" r="141.6569" xlink:href="#o"/><linearGradient id="B" gradientUnits="userSpaceOnUse" x1="421.5240514174" x2="76.195263034" y1="390.8884577044" y2="45.5597697132"><stop offset="0" stop-color="#e58200" stop-opacity="0"/><stop offset=".0396" stop-color="#e27f04" stop-opacity=".039216"/><stop offset=".4671" stop-color="#c15d2f" stop-opacity=".466667"/><stop offset=".8016" stop-color="#ad4949" stop-opacity=".8"/><stop offset="1" stop-color="#a64153"/></linearGradient><radialGradient id="C" cx="169.1416747366" cy="127.182041648" gradientUnits="userSpaceOnUse" r="253.421034382"><stop offset="0" stop-color="#ecf7ff"/><stop offset=".3473" stop-color="#e9f5ff"/><stop offset=".62" stop-color="#dff0ff"/><stop offset=".8666" stop-color="#cee7ff"/><stop offset="1" stop-color="#c2e0ff"/></radialGradient><linearGradient id="D"><stop offset=".0029" stop-color="#c2e0ff" stop-opacity="0"/><stop offset=".0763" stop-color="#bfdcfd" stop-opacity=".07451"/><stop offset="1" stop-color="#9eb2e7"/></linearGradient><linearGradient id="E" gradientUnits="userSpaceOnUse" x1="330.493725244" x2="367.0222303516" xlink:href="#D" y1="296.3712092484" y2="186.1661736594"/><linearGradient id="F" gradientUnits="userSpaceOnUse" x1="288.7051708174" x2="335.6701478604" xlink:href="#D" y1="220.977972147" y2="151.3451390894"/><linearGradient id="G" gradientUnits="userSpaceOnUse" x1="193.0384316714" x2="193.0384316714" xlink:href="#D" y1="236.926779" y2="86.3385793922"/><linearGradient id="H" gradientUnits="userSpaceOnUse" x1="121.2812996618" x2="47.1434670214" xlink:href="#D" y1="295.3156856576" y2="225.2493590804"/><linearGradient id="I" gradientUnits="userSpaceOnUse" x1="225.6893884462" x2="225.6893884462" xlink:href="#D" y1="311.217007" y2="396.8463332056"/><linearGradient id="J" gradientUnits="userSpaceOnUse" x1="218.9352020146" x2="129.3098646802" xlink:href="#D" y1="394.8939057" y2="305.2686687578"/><path d="m512 256c0 141.386719-114.613281 256-256 256-141.382812 0-256-114.613281-256-256 0-141.382812 114.617188-256 256-256 141.386719 0 256 114.617188 256 256zm0 0" fill="url(#a)"/><path d="m512 256c0-20.632812-2.457031-40.6875-7.066406-59.90625l-187.480469-188.648438c-5.105469-1.257812-10.265625-2.375-15.484375-3.320312-51.425781 29.238281-84.257812 87.421875-76.042969 152.417969-10.082031-4.355469-21.203125-6.777344-32.886719-6.777344-45.851562 0-83.019531 37.171875-83.019531 83.023437 0 .28125.007813.558594.011719.839844-29.128906 4.847656-51.335938 30.15625-51.335938 60.660156 0 18.386719 8.078126 34.875 20.867188 46.148438l170.863281 170.863281c.191407.21875.402344.421875.597657.636719 1.65625.03125 3.3125.0625 4.976562.0625 141.386719 0 256-114.613281 256-256zm0 0" fill="url(#c)"/><path d="m450.878906 214.636719c-83.460937-.203125-151.695312-68.4375-151.898437-151.902344-.054688-21.75 4.460937-42.4375 12.628906-61.171875.457031-1.050781-.835937-2.089844-2.484375-1.265625-59.59375 29.804687-97.046875 97.382813-80.566406 171.386719 11.289062 50.691406 62.683594 102.085937 113.375 113.375 72.65625 16.179687 139.199218-19.582032 169.722656-77.324219 1.261719-2.386719-1.160156-5.03125-3.664062-4.027344-17.640626 7.09375-36.917969 10.980469-57.113282 10.929688zm0 0" fill="url(#d)"/><path d="m436.527344 437.511719c-.503906.5-1.015625 1.003906-1.539063 1.515625-5.839843 5.710937-11.957031 11.140625-18.320312 16.273437-12.640625 10.207031-26.253907 19.234375-40.699219 26.902344v-75.113281c0-6.925782 5.621094-12.546875 12.550781-12.546875.742188 0 1.464844.070312 2.175781.191406 3.132813.550781 5.863282 2.269531 7.742188 4.6875zm0 0" fill="url(#e)"/><path d="m473.660156 390.816406c-10.539062 16.996094-23.019531 32.660156-37.132812 46.695313-.503906.5-1.015625 1.003906-1.539063 1.515625l-54.140625-54.144532c-2.960937-2.296874-4.878906-5.882812-4.878906-9.917968v-51.699219c0-6.929687 5.621094-12.550781 12.550781-12.550781 4.035157 0 7.617188 1.917968 9.917969 4.878906zm0 0" fill="url(#f)"/><path d="m359.996094 489.984375c-1.734375.785156-3.492188 1.546875-5.25 2.28125-.984375.410156-1.964844.8125-2.960938 1.214844-13.492187 5.449219-27.558594 9.777343-42.074218 12.867187-5.5 1.1875-11.074219 2.179688-16.695313 2.992188-12.085937 1.757812-24.445313 2.660156-37.015625 2.660156-4.207031 0-8.390625-.097656-12.546875-.300781v-108.121094c0-6.925781 5.621094-12.550781 12.546875-12.550781 4.035156 0 7.621094 1.917968 9.917969 4.878906zm0 0" fill="url(#g)"/><path d="m382.996094 419.019531v59.308594c-2.320313 1.328125-4.65625 2.621094-7.027344 3.875-5.21875 2.773437-10.539062 5.371094-15.972656 7.78125-.933594.421875-1.875.835937-2.820313 1.234375l-108.84375-108.84375c-2.964843-2.300781-4.878906-5.882812-4.878906-9.917969v-67.886719c0-6.9375 5.621094-12.546874 12.546875-12.546874 4.035156 0 7.621094 1.90625 9.917969 4.867187l112.199219 112.207031c2.960937 2.300782 4.878906 5.875 4.878906 9.921875zm0 0" fill="url(#h)"/><path d="m250.480469 505.476562v6.453126c-2.351563-.039063-4.699219-.121094-7.027344-.230469-20.121094-.972657-39.617187-4.253907-58.25-9.617188l-69.390625-69.390625c-2.960938-2.300781-4.878906-5.882812-4.878906-9.917968v-31.746094c0-6.925782 5.621094-12.546875 12.550781-12.546875 4.035156 0 7.617187 1.917969 9.917969 4.878906l112.199218 112.199219c2.960938 2.296875 4.878907 5.882812 4.878907 9.917968zm0 0" fill="url(#i)"/><path d="m180.433594 500.667969c-25.027344-7.722657-48.40625-19.175781-69.5-33.710938v-5.652343c0-6.929688 5.621094-12.550782 12.550781-12.550782 4.035156 0 7.617187 1.917969 9.917969 4.878906zm0 0" fill="url(#j)"/><path d="m416.667969 455.300781c-12.640625 10.207031-26.253907 19.234375-40.699219 26.902344-6.894531 3.664063-13.972656 7.027344-21.222656 10.0625-.984375.410156-1.96875.8125-2.960938 1.214844l-37.195312-37.195313c-2.960938-2.300781-4.878906-5.882812-4.878906-9.921875v-67.882812c0-6.929688 5.621093-12.550781 12.546874-12.550781 4.039063 0 7.621094 1.917968 9.921876 4.878906zm0 0" fill="url(#k)"/><path d="m354.746094 492.265625c-.984375.410156-1.96875.8125-2.960938 1.214844-13.492187 5.449219-27.558594 9.777343-42.074218 12.867187v-28.980468c0-6.929688 5.621093-12.550782 12.546874-12.550782.304688 0 .605469.011719.894532.03125 3.664062.261719 6.898437 2.109375 9.027344 4.847656zm0 0" fill="url(#l)"/><path d="m293.015625 509.339844c-12.085937 1.757812-24.445313 2.660156-37.015625 2.660156-25.910156 0-50.929688-3.84375-74.5-11.011719-2.628906-2.300781-4.308594-5.683593-4.308594-9.445312v-67.886719c0-6.925781 5.625-12.550781 12.550782-12.550781 4.035156 0 7.621093 1.917969 9.917968 4.878906zm0 0" fill="url(#m)"/><path d="m316.738281 437.089844v67.652344c-2.328125.574218-4.667969 1.105468-7.027343 1.605468-5.503907 1.1875-11.074219 2.179688-16.695313 2.992188-.605469.089844-1.195313.171875-1.796875.25l-109.148438-109.144532c-2.960937-2.300781-4.878906-5.882812-4.878906-9.917968v-67.886719c0-6.9375 5.625-12.546875 12.550782-12.546875 4.035156 0 7.621093 1.90625 9.917968 4.867188l112.199219 112.207031c2.960937 2.300781 4.878906 5.875 4.878906 9.921875zm0 0" fill="url(#n)"/><path d="m123.484375 512c-6.929687 0-12.550781-5.617188-12.550781-12.546875v-38.148437c0-6.929688 5.621094-12.550782 12.550781-12.550782s12.546875 5.621094 12.546875 12.550782v38.148437c0 6.929687-5.617188 12.546875-12.546875 12.546875zm0 0" fill="url(#p)"/><path d="m123.484375 435.703125c-6.929687 0-12.550781-5.617187-12.550781-12.550781v-32.125c0-6.929688 5.621094-12.546875 12.550781-12.546875s12.546875 5.617187 12.546875 12.546875v32.125c0 6.933594-5.617188 12.550781-12.546875 12.550781zm0 0" fill="url(#q)"/><path d="m123.484375 368.441406c-6.929687 0-12.550781-5.621094-12.550781-12.550781v-87.339844c0-6.929687 5.621094-12.550781 12.550781-12.550781s12.546875 5.621094 12.546875 12.550781v87.339844c0 6.929687-5.617188 12.550781-12.546875 12.550781zm0 0" fill="url(#r)"/><path d="m189.742188 512c-6.929688 0-12.550782-5.617188-12.550782-12.546875v-75.796875c0-6.929688 5.621094-12.550781 12.550782-12.550781 6.929687 0 12.546874 5.621093 12.546874 12.550781v75.796875c0 6.929687-5.617187 12.546875-12.546874 12.546875zm0 0" fill="url(#s)"/><path d="m189.742188 403.578125c-6.929688 0-12.550782-5.617187-12.550782-12.550781v-47.183594c0-6.929688 5.621094-12.546875 12.550782-12.546875 6.929687 0 12.546874 5.617187 12.546874 12.546875v47.183594c0 6.933594-5.617187 12.550781-12.546874 12.550781zm0 0" fill="url(#t)"/><path d="m189.742188 323.265625c-6.929688 0-12.550782-5.621094-12.550782-12.550781v-42.164063c0-6.933593 5.621094-12.550781 12.550782-12.550781 6.929687 0 12.546874 5.617188 12.546874 12.550781v42.164063c0 6.929687-5.617187 12.550781-12.546874 12.550781zm0 0" fill="url(#u)"/><path d="m256 512c-6.929688 0-12.546875-5.617188-12.546875-12.546875v-95.875c0-6.929687 5.617187-12.550781 12.546875-12.550781s12.550781 5.621094 12.550781 12.550781v95.875c0 6.929687-5.621093 12.546875-12.550781 12.546875zm0 0" fill="url(#v)"/><path d="m256 385.507812c-6.929688 0-12.546875-5.617187-12.546875-12.550781v-104.40625c0-6.929687 5.617187-12.550781 12.546875-12.550781s12.550781 5.621094 12.550781 12.550781v104.40625c0 6.929688-5.621093 12.550781-12.550781 12.550781zm0 0" fill="url(#w)"/><path d="m322.257812 512c-6.929687 0-12.546874-5.617188-12.546874-12.546875v-22.085937c0-6.929688 5.617187-12.550782 12.546874-12.550782 6.933594 0 12.550782 5.621094 12.550782 12.550782v22.085937c0 6.929687-5.617188 12.546875-12.550782 12.546875zm0 0" fill="url(#x)"/><path d="m322.257812 458.792969c-6.929687 0-12.546874-5.617188-12.546874-12.546875v-67.765625c0-6.933594 5.617187-12.550781 12.546874-12.550781 6.933594 0 12.550782 5.617187 12.550782 12.550781v67.765625c0 6.929687-5.617188 12.546875-12.550782 12.546875zm0 0" fill="url(#x)"/><path d="m322.257812 360.410156c-6.929687 0-12.546874-5.617187-12.546874-12.550781v-79.308594c0-6.929687 5.617187-12.550781 12.546874-12.550781 6.933594 0 12.550782 5.621094 12.550782 12.550781v79.308594c0 6.929687-5.617188 12.550781-12.550782 12.550781zm0 0" fill="url(#y)"/><path d="m388.519531 512c-6.929687 0-12.550781-5.617188-12.550781-12.546875v-92.363281c0-6.929688 5.621094-12.546875 12.550781-12.546875 6.929688 0 12.546875 5.617187 12.546875 12.546875v92.363281c0 6.929687-5.617187 12.546875-12.546875 12.546875zm0 0" fill="url(#z)"/><path d="m388.519531 387.515625c-6.929687 0-12.550781-5.617187-12.550781-12.550781v-51.699219c0-6.933594 5.621094-12.550781 12.550781-12.550781 6.929688 0 12.546875 5.617187 12.546875 12.550781v51.699219c0 6.929687-5.617187 12.550781-12.546875 12.550781zm0 0" fill="url(#A)"/><path d="m219.0625 279.691406c-1.882812 6.589844 6.300781 11.316406 11.066406 6.386719 20.125-20.800781 55.273438-11.382813 62.300782 16.695313h.003906c1.660156 6.648437 11.113281 6.648437 12.777344 0 7.027343-28.078126 42.175781-37.496094 62.300781-16.695313 8.960937 7.066406 44.191406-1.054687 44.191406-1.054687l-92.375-92.375c-7.929687-8.40625-19.164063-13.660157-31.632813-13.660157-8.832031 0-17.039062 2.640625-23.898437 7.164063-.109375-.109375-10.550781-10.554688-11.164063-11.148438-15.085937-15.5625-36.207031-25.238281-59.59375-25.238281-15.195312 0-29.433593 4.085937-41.683593 11.210937 27.3125 7.59375 36.269531 42.148438 15.710937 62.039063-4.925781 4.765625-.203125 12.949219 6.390625 11.066406 27.828125-7.953125 53.558594 17.777344 45.605469 45.609375zm0 0" fill="url(#B)"/><path d="m331.183594 232.789062c-.414063 0-.828125.003907-1.246094.015626.808594-3.3125 1.246094-6.769532 1.246094-10.328126 0-24.019531-19.46875-43.488281-43.488282-43.488281-9.449218 0-18.183593 3.019531-25.316406 8.136719-14.851562-22.503906-40.359375-37.359375-69.339844-37.359375-45.851562 0-83.019531 37.171875-83.019531 83.023437 0 .28125.007813.558594.011719.839844-29.128906 4.847656-51.335938 30.15625-51.335938 60.660156 0 33.96875 27.535157 61.503907 61.5 61.503907h210.988282c33.96875 0 61.503906-27.535157 61.503906-61.503907 0-33.964843-27.535156-61.5-61.503906-61.5zm0 0" fill="url(#C)"/><path d="m392.683594 294.289062c0 33.96875-27.535156 61.503907-61.5 61.503907-33.96875 0-61.503906-27.535157-61.503906-61.503907 0-33.964843 27.535156-61.5 61.503906-61.5 33.964844 0 61.5 27.535157 61.5 61.5zm0 0" fill="url(#E)"/><path d="m331.183594 222.476562c0 24.015626-19.46875 43.488282-43.488282 43.488282-24.019531 0-43.488281-19.472656-43.488281-43.488282 0-24.019531 19.46875-43.488281 43.488281-43.488281 24.019532 0 43.488282 19.46875 43.488282 43.488281zm0 0" fill="url(#F)"/><path d="m276.058594 232.789062c0 45.847657-37.167969 83.019532-83.019532 83.019532-45.851562 0-83.019531-37.171875-83.019531-83.019532 0-45.851562 37.167969-83.023437 83.019531-83.023437 45.851563 0 83.019532 37.171875 83.019532 83.023437zm0 0" fill="url(#G)"/><path d="m181.699219 294.289062c0 33.96875-27.539063 61.503907-61.503907 61.503907-33.96875 0-61.503906-27.535157-61.503906-61.503907 0-33.964843 27.535156-61.5 61.503906-61.5 33.964844 0 61.503907 27.535157 61.503907 61.5zm0 0" fill="url(#H)"/><path d="m338.824219 302.664062h-279.5625c4.089843 30.003907 29.808593 53.125 60.933593 53.125h210.988282c31.125 0 56.847656-23.121093 60.933594-53.125z" fill="url(#I)"/><path d="m233.570312 355.789062-3.207031-3.207031c-4.554687-4.917969-11.066406-8.003906-18.300781-8.003906-.085938 0-.167969.007813-.253906.007813-.050782-.046876-.097656-.097657-.148438-.144532l-16.460937-16.460937c-7.160157-7.496094-17.246094-12.171875-28.429688-12.171875-21.71875 0-39.324219 17.605468-39.324219 39.320312 0 .109375.007813.214844.007813.324219-.46875.09375-.929687.210937-1.386719.339844h107.503906zm0 0" fill="url(#J)"/></svg>