<svg height="512pt" viewBox="0 0 512 512.00025" width="512pt" xmlns="http://www.w3.org/2000/svg" xmlns:xlink="http://www.w3.org/1999/xlink"><radialGradient id="a" cx="184.721773" cy="137.5377657844" gradientUnits="userSpaceOnUse" r="380.4785070162"><stop offset="0" stop-color="#ff6e3a"/><stop offset=".2336" stop-color="#ff6b3c"/><stop offset=".418" stop-color="#ff6143"/><stop offset=".5857" stop-color="#ff504e"/><stop offset=".7434" stop-color="#ff395e"/><stop offset=".8928" stop-color="#ff1b72"/><stop offset="1" stop-color="#ff0084"/></radialGradient><linearGradient id="b"><stop offset="0" stop-color="#ff0084" stop-opacity="0"/><stop offset=".0737" stop-color="#f4087e" stop-opacity=".07451"/><stop offset=".3347" stop-color="#d2216b" stop-opacity=".333333"/><stop offset=".583" stop-color="#ba335e" stop-opacity=".584314"/><stop offset=".8111" stop-color="#ab3d56" stop-opacity=".811765"/><stop offset="1" stop-color="#a64153"/></linearGradient><linearGradient id="c" gradientUnits="userSpaceOnUse" x1="504.841377218" x2="259.3950976352" xlink:href="#b" y1="469.3281640368" y2="244.962740571"/><linearGradient id="d" gradientUnits="userSpaceOnUse" x1="311.7066620736" x2="181.3724884236" xlink:href="#b" y1="574.2557824562" y2="443.9217091984"/><radialGradient id="e" cx="305.0338937162" cy="169.081296201" gradientUnits="userSpaceOnUse" r="219.0315858798"><stop offset="0" stop-color="#ffd459"/><stop offset=".2794" stop-color="#ffd55b" stop-opacity=".721569"/><stop offset=".4354" stop-color="#ffd763" stop-opacity=".564706"/><stop offset=".5609" stop-color="#ffda71" stop-opacity=".439216"/><stop offset=".6702" stop-color="#ffdf85" stop-opacity=".329412"/><stop offset=".7691" stop-color="#ffe69e" stop-opacity=".231373"/><stop offset=".8603" stop-color="#ffeebe" stop-opacity=".141176"/><stop offset=".944" stop-color="#fff8e2" stop-opacity=".054902"/><stop offset="1" stop-color="#fff" stop-opacity="0"/></radialGradient><radialGradient id="f" cx="303.7666429756" cy="169.7291270676" gradientUnits="userSpaceOnUse" r="147.547420262"><stop offset="0" stop-color="#ffb400"/><stop offset=".3726" stop-color="#ffb502" stop-opacity=".627451"/><stop offset=".5069" stop-color="#ffb709" stop-opacity=".494118"/><stop offset=".6026" stop-color="#ffba14" stop-opacity=".396078"/><stop offset=".68" stop-color="#ffbf25" stop-opacity=".321569"/><stop offset=".7463" stop-color="#ffc53b" stop-opacity=".254902"/><stop offset=".805" stop-color="#ffcd57" stop-opacity=".196078"/><stop offset=".8581" stop-color="#ffd777" stop-opacity=".141176"/><stop offset=".9069" stop-color="#ffe29d" stop-opacity=".094118"/><stop offset=".9523" stop-color="#ffefc8" stop-opacity=".047059"/><stop offset=".9926" stop-color="#fffcf6" stop-opacity=".007843"/><stop offset="1" stop-color="#fff" stop-opacity="0"/></radialGradient><radialGradient id="g" cx="273.410752285" cy="123.8041128244" gradientUnits="userSpaceOnUse" r="153.8653021924"><stop offset="0" stop-color="#ffd459"/><stop offset=".2296" stop-color="#ffd355"/><stop offset=".4362" stop-color="#ffcf4a"/><stop offset=".634" stop-color="#ffc838"/><stop offset=".825" stop-color="#ffbf1f"/><stop offset="1" stop-color="#ffb400"/></radialGradient><linearGradient id="h" gradientUnits="userSpaceOnUse" x1="315.4973711534" x2="165.5568016278" y1="181.4364638628" y2="23.5204367926"><stop offset="0" stop-color="#fff" stop-opacity="0"/><stop offset=".9286" stop-color="#fff" stop-opacity=".929412"/><stop offset="1" stop-color="#fff"/></linearGradient><linearGradient id="i" gradientUnits="userSpaceOnUse" x1="414.863362085" x2="67.631338374" y1="405.6490904002" y2="58.4170666892"><stop offset="0" stop-color="#e58200" stop-opacity="0"/><stop offset=".0396" stop-color="#e27f04" stop-opacity=".039216"/><stop offset=".4671" stop-color="#c15d2f" stop-opacity=".466667"/><stop offset=".8016" stop-color="#ad4949" stop-opacity=".8"/><stop offset="1" stop-color="#a64153"/></linearGradient><radialGradient id="j" cx="160.8641690232" cy="139.1705445252" gradientUnits="userSpaceOnUse" r="279.2627897996"><stop offset="0" stop-color="#ecf7ff"/><stop offset=".3473" stop-color="#e9f5ff"/><stop offset=".62" stop-color="#dff0ff"/><stop offset=".8666" stop-color="#cee7ff"/><stop offset="1" stop-color="#c2e0ff"/></radialGradient><linearGradient id="k"><stop offset=".0029" stop-color="#c2e0ff" stop-opacity="0"/><stop offset=".0763" stop-color="#bfdcfd" stop-opacity=".07451"/><stop offset="1" stop-color="#9eb2e7"/></linearGradient><linearGradient id="l" gradientUnits="userSpaceOnUse" x1="338.6689952276" x2="378.9225529162" xlink:href="#k" y1="325.6124128722" y2="204.169374023"/><linearGradient id="m" gradientUnits="userSpaceOnUse" x1="292.6193942642" x2="344.3731796394" xlink:href="#k" y1="242.5310407026" y2="165.7979693"/><linearGradient id="n" gradientUnits="userSpaceOnUse" x1="187.197444652" x2="187.197444652" xlink:href="#k" y1="242.9497765688" y2="124.4699138948"/><linearGradient id="o" gradientUnits="userSpaceOnUse" x1="108.1233275376" x2="26.4254602762" xlink:href="#k" y1="324.4490680586" y2="247.2380293918"/><linearGradient id="p" gradientUnits="userSpaceOnUse" x1="223.1783103086" x2="223.1783103086" xlink:href="#k" y1="341.9718238232" y2="436.3334643692"/><linearGradient id="q" gradientUnits="userSpaceOnUse" x1="215.7348310318" x2="116.9703901626" xlink:href="#k" y1="434.18145717" y2="335.4170163008"/><linearGradient id="r" gradientUnits="userSpaceOnUse" x1="217.2059783306" x2="99.5096767776" xlink:href="#k" y1="460.4424504148" y2="342.7460484696"/><linearGradient id="s"><stop offset="0" stop-color="#00c6f6"/><stop offset=".8567" stop-color="#0b9cfd"/><stop offset="1" stop-color="#0d94fe"/></linearGradient><linearGradient id="t" gradientUnits="userSpaceOnUse" x1="17.8320887406" x2="149.0473043378" xlink:href="#s" y1="358.4748960124" y2="489.6902120018"/><linearGradient id="u" gradientUnits="userSpaceOnUse" x1="69.348546955" x2="200.5637625522" xlink:href="#s" y1="306.9585381902" y2="438.1737537874"/><linearGradient id="v" gradientUnits="userSpaceOnUse" x1="17.8326910938" x2="149.0473043378" xlink:href="#s" y1="358.4752975812" y2="489.6899108252"/><linearGradient id="w" gradientUnits="userSpaceOnUse" x1="69.3483461706" x2="200.5633609834" xlink:href="#s" y1="306.9585381902" y2="438.173553003"/><linearGradient id="x" gradientUnits="userSpaceOnUse" x1="7.1624057246" x2="138.379227597" xlink:href="#s" y1="369.1419688312" y2="500.3588910958"/><linearGradient id="y" gradientUnits="userSpaceOnUse" x1="80.017226049" x2="211.2316385086" xlink:href="#s" y1="296.289758704" y2="427.5040707714"/><linearGradient id="z" gradientUnits="userSpaceOnUse" x1="43.590920201" x2="174.8059350138" xlink:href="#s" y1="332.7167672974" y2="463.9317821102"/><linearGradient id="A" gradientUnits="userSpaceOnUse" x1="43.590920201" x2="174.8054330528" xlink:href="#s" y1="332.7174700428" y2="463.9320832868"/><linearGradient id="B"><stop offset="0" stop-color="#0d94fe" stop-opacity="0"/><stop offset=".5142" stop-color="#0681cd" stop-opacity=".513725"/><stop offset="1" stop-color="#0070a2"/></linearGradient><linearGradient id="C" gradientUnits="userSpaceOnUse" x1="147.6512504046" x2="120.8411118258" xlink:href="#B" y1="455.636776193" y2="428.8266376142"/><linearGradient id="D" gradientUnits="userSpaceOnUse" x1="146.7729190468" x2="121.6776800284" xlink:href="#B" y1="480.7892387654" y2="455.693999747"/><linearGradient id="E" gradientUnits="userSpaceOnUse" x1="166.4426624006" x2="139.7123356208" xlink:href="#B" y1="436.7006990368" y2="409.970372257"/><linearGradient id="F" gradientUnits="userSpaceOnUse" x1="191.519830823" x2="165.8577774434" xlink:href="#B" y1="436.190807053" y2="410.5288540656"/><linearGradient id="G" gradientUnits="userSpaceOnUse" x1="183.6724737256" x2="127.5601609874" xlink:href="#B" y1="472.7991239596" y2="416.6868112214"/><linearGradient id="H" gradientUnits="userSpaceOnUse" x1="151.5258873636" x2="127.6715963294" xlink:href="#B" y1="367.7199133182" y2="343.8655218918"/><linearGradient id="I" gradientUnits="userSpaceOnUse" x1="202.166423633" x2="159.1372223988" xlink:href="#B" y1="374.603204119" y2="366.0544067202"/><linearGradient id="J" gradientUnits="userSpaceOnUse" x1="109.0203318446" x2="249.5521443862" xlink:href="#s" y1="316.3388841816" y2="456.8706967232"/><linearGradient id="K" gradientUnits="userSpaceOnUse" x1="27.2120331632" x2="167.7438457048" xlink:href="#s" y1="398.1462793332" y2="538.6780918748"/><linearGradient id="L" gradientUnits="userSpaceOnUse" x1="109.0201310602" x2="249.551542033" xlink:href="#s" y1="316.3383822206" y2="456.8698935856"/><linearGradient id="M" gradientUnits="userSpaceOnUse" x1="27.2120331632" x2="167.7456527644" xlink:href="#s" y1="398.1463797254" y2="538.6799993266"/><linearGradient id="N" gradientUnits="userSpaceOnUse" x1="119.4997716416" x2="260.031985752" xlink:href="#s" y1="305.8590428158" y2="446.3912569262"/><linearGradient id="O" gradientUnits="userSpaceOnUse" x1="16.7322921896" x2="157.2652090454" xlink:href="#s" y1="408.6257191302" y2="549.1587363782"/><linearGradient id="P" gradientUnits="userSpaceOnUse" x1="68.1155299546" x2="208.6478444572" xlink:href="#s" y1="357.2419794042" y2="497.7742939068"/><linearGradient id="Q" gradientUnits="userSpaceOnUse" x1="68.1162327" x2="208.6501534778" xlink:href="#s" y1="357.2426821496" y2="497.7766029274"/><linearGradient id="R" gradientUnits="userSpaceOnUse" x1="168.318189481" x2="111.5420835164" xlink:href="#B" y1="426.5590789928" y2="356.9624875194"/><linearGradient id="S" gradientUnits="userSpaceOnUse" x1="126.595693122" x2="69.0235774036" xlink:href="#B" y1="461.945924002" y2="391.373721129"/><linearGradient id="T" gradientUnits="userSpaceOnUse" x1="172.766567863" x2="114.8821320104" xlink:href="#B" y1="424.7595488078" y2="353.8043496918"/><linearGradient id="U" gradientUnits="userSpaceOnUse" x1="147.1844266746" x2="89.300492783" xlink:href="#B" y1="445.6288785594" y2="374.6743821888"/><linearGradient id="V"><stop offset="0" stop-color="#ecf7ff"/><stop offset="1" stop-color="#c2e0ff"/></linearGradient><radialGradient id="W" cx="129.2297836656" cy="418.3562331152" gradientUnits="userSpaceOnUse" r="23.181060941" xlink:href="#V"/><linearGradient id="X" gradientUnits="userSpaceOnUse" x1="113.7209958252" x2="188.1734576204" xlink:href="#s" y1="402.8474452748" y2="477.29990707"/><radialGradient id="Y" cx="93.4544208424" cy="368.4363120574" gradientUnits="userSpaceOnUse" r="145.0855023414" xlink:href="#V"/><radialGradient id="Z" cx="93.4540192736" cy="368.4363120574" gradientUnits="userSpaceOnUse" r="145.085803518" xlink:href="#V"/><radialGradient id="aa" cx="93.4544208424" cy="368.4359104886" gradientUnits="userSpaceOnUse" r="145.0857031258" xlink:href="#V"/><radialGradient id="ab" cx="93.4540192736" cy="368.4359104886" gradientUnits="userSpaceOnUse" r="145.0852011648" xlink:href="#V"/><radialGradient id="ac" cx="93.452714175" cy="368.4360108808" gradientUnits="userSpaceOnUse" r="145.08680744" xlink:href="#V"/><radialGradient id="ad" cx="93.452714175" cy="368.4352077432" gradientUnits="userSpaceOnUse" r="145.0869078322" xlink:href="#V"/><radialGradient id="ae" cx="93.452714175" cy="368.4360108808" gradientUnits="userSpaceOnUse" r="145.0850003804" xlink:href="#V"/><radialGradient id="af" cx="93.452714175" cy="368.4352077432" gradientUnits="userSpaceOnUse" r="145.0866066556" xlink:href="#V"/><linearGradient id="ag"><stop offset="0" stop-color="#fff" stop-opacity="0"/><stop offset="1" stop-color="#fff"/></linearGradient><linearGradient id="ah" gradientUnits="userSpaceOnUse" x1="177.7087754768" x2="21.408259689" xlink:href="#ag" y1="481.3026444762" y2="278.3576035478"/><linearGradient id="ai" gradientUnits="userSpaceOnUse" x1="189.916567389" x2="33.6130398352" xlink:href="#ag" y1="471.9036255356" y2="268.9548700958"/><linearGradient id="aj" gradientUnits="userSpaceOnUse" x1="218.2252603372" x2="61.9222347444" xlink:href="#ag" y1="450.100146363" y2="247.151792492"/><linearGradient id="ak" gradientUnits="userSpaceOnUse" x1="137.2114655266" x2="-19.091961635" xlink:href="#ag" y1="512.4932963098" y2="309.5444404778"/><linearGradient id="al" gradientUnits="userSpaceOnUse" x1="165.5203592592" x2="9.2173336664" xlink:href="#ag" y1="490.6900179216" y2="287.7416640506"/><linearGradient id="am" gradientUnits="userSpaceOnUse" x1="222.83567173" x2="66.5319433918" xlink:href="#ag" y1="446.5486718958" y2="243.5995148872"/><linearGradient id="an" gradientUnits="userSpaceOnUse" x1="201.0326945184" x2="44.7270587284" xlink:href="#ag" y1="463.3401708756" y2="260.3886044542"/><linearGradient id="ao" gradientUnits="userSpaceOnUse" x1="154.400316834" x2="-1.896283658" xlink:href="#ag" y1="499.2488545404" y2="296.3090340064"/><linearGradient id="ap" gradientUnits="userSpaceOnUse" x1="132.5987451132" x2="-23.6995620462" xlink:href="#ag" y1="516.042260972" y2="313.1001314174"/><linearGradient id="aq" gradientUnits="userSpaceOnUse" x1="416.1275006674" x2="363.8308946668" xlink:href="#b" y1="504.4692489404" y2="452.1726429398"/><linearGradient id="ar" gradientUnits="userSpaceOnUse" x1="295.3297828798" x2="375.9822661626" xlink:href="#s" y1="415.336837308" y2="495.9893205908"/><linearGradient id="as" gradientUnits="userSpaceOnUse" x1="326.9946874662" x2="407.6474719256" xlink:href="#s" y1="383.6714307606" y2="464.32421522"/><linearGradient id="at" gradientUnits="userSpaceOnUse" x1="295.3295820954" x2="375.9815634172" xlink:href="#s" y1="415.3369377002" y2="495.9890194142"/><linearGradient id="au" gradientUnits="userSpaceOnUse" x1="326.9949886428" x2="407.6470703568" xlink:href="#s" y1="383.6720331138" y2="464.3241148278"/><linearGradient id="av" gradientUnits="userSpaceOnUse" x1="288.770256924" x2="369.4254507962" xlink:href="#s" y1="421.8921467914" y2="502.5474410558"/><linearGradient id="aw" gradientUnits="userSpaceOnUse" x1="333.5503985184" x2="414.2055923906" xlink:href="#s" y1="377.112005197" y2="457.7671990692"/><linearGradient id="ax" gradientUnits="userSpaceOnUse" x1="311.1623355652" x2="391.8150196324" xlink:href="#s" y1="399.5038830538" y2="480.156567121"/><linearGradient id="ay" gradientUnits="userSpaceOnUse" x1="311.1616328198" x2="391.8149192402" xlink:href="#s" y1="399.5031803084" y2="480.1564667288"/><linearGradient id="az" gradientUnits="userSpaceOnUse" x1="375.1238124604" x2="358.6448343992" xlink:href="#B" y1="475.0579484596" y2="458.5789703984"/><linearGradient id="aA" gradientUnits="userSpaceOnUse" x1="374.5836020322" x2="359.1591436398" xlink:href="#B" y1="490.518046083" y2="475.0935876906"/><linearGradient id="aB" gradientUnits="userSpaceOnUse" x1="386.6743366392" x2="370.2442495794" xlink:href="#B" y1="463.4188783604" y2="446.9887913006"/><linearGradient id="aC" gradientUnits="userSpaceOnUse" x1="402.0881534584" x2="386.3147317788" xlink:href="#B" y1="463.1051527354" y2="447.3317310558"/><linearGradient id="aD" gradientUnits="userSpaceOnUse" x1="397.2652117782" x2="362.7747687228" xlink:href="#B" y1="485.6067592668" y2="451.1163162114"/><linearGradient id="aE" gradientUnits="userSpaceOnUse" x1="377.5060189742" x2="362.843637772" xlink:href="#B" y1="421.019035828" y2="406.3566546258"/><linearGradient id="aF" gradientUnits="userSpaceOnUse" x1="408.6326205842" x2="382.1840947098" xlink:href="#B" y1="425.2498643126" y2="419.9952361724"/><linearGradient id="aG" gradientUnits="userSpaceOnUse" x1="351.3791497086" x2="437.759309178" xlink:href="#s" y1="389.4370551988" y2="475.8173150604"/><linearGradient id="aH" gradientUnits="userSpaceOnUse" x1="301.0952065336" x2="387.4739605122" xlink:href="#s" y1="439.7212995504" y2="526.0999531368"/><linearGradient id="aI" gradientUnits="userSpaceOnUse" x1="351.3780453944" x2="437.7591083936" xlink:href="#s" y1="389.4354489236" y2="475.8165119228"/><linearGradient id="aJ" gradientUnits="userSpaceOnUse" x1="301.0950057492" x2="387.475366003" xlink:href="#s" y1="439.721098766" y2="526.1014590198"/><linearGradient id="aK" gradientUnits="userSpaceOnUse" x1="357.820012084" x2="444.2002719456" xlink:href="#s" y1="382.9950885092" y2="469.375448763"/><linearGradient id="aL" gradientUnits="userSpaceOnUse" x1="294.6539425894" x2="381.0329977446" xlink:href="#s" y1="446.1625634946" y2="532.541719042"/><linearGradient id="aM" gradientUnits="userSpaceOnUse" x1="326.2357224342" x2="412.6163838646" xlink:href="#s" y1="414.5777718838" y2="500.9584333142"/><linearGradient id="aN" gradientUnits="userSpaceOnUse" x1="326.2372283172" x2="412.61708661" xlink:href="#s" y1="414.578876198" y2="500.9587344908"/><linearGradient id="aO" gradientUnits="userSpaceOnUse" x1="387.827240664" x2="352.9292052766" xlink:href="#B" y1="457.1852254858" y2="414.4069043594"/><linearGradient id="aP" gradientUnits="userSpaceOnUse" x1="362.1821535662" x2="326.7944050272" xlink:href="#B" y1="478.9364003222" y2="435.557834232"/><linearGradient id="aQ" gradientUnits="userSpaceOnUse" x1="390.5616230154" x2="354.9817238056" xlink:href="#B" y1="456.0798069716" y2="412.465620388"/><linearGradient id="aR" gradientUnits="userSpaceOnUse" x1="374.8373935138" x2="339.2577954806" xlink:href="#B" y1="468.9069183656" y2="425.293233743"/><radialGradient id="aS" cx="363.8009777912" cy="452.1429268486" gradientUnits="userSpaceOnUse" r="14.2485645538" xlink:href="#V"/><linearGradient id="aT" gradientUnits="userSpaceOnUse" x1="354.2683368324" x2="400.031418457" xlink:href="#s" y1="442.610386282" y2="488.3733675144"/><radialGradient id="aU" cx="341.8117730486" cy="421.4594564094" gradientUnits="userSpaceOnUse" r="89.1740743954" xlink:href="#V"/><radialGradient id="aV" cx="341.8126765784" cy="421.4594564094" gradientUnits="userSpaceOnUse" r="89.1742751798" xlink:href="#V"/><radialGradient id="aW" cx="341.8117730486" cy="421.4621669988" gradientUnits="userSpaceOnUse" r="89.1741747876" xlink:href="#V"/><radialGradient id="aX" cx="341.8126765784" cy="421.4621669988" gradientUnits="userSpaceOnUse" r="89.173873611" xlink:href="#V"/><radialGradient id="aY" cx="341.8053479478" cy="421.4600587626" gradientUnits="userSpaceOnUse" r="89.186422636" xlink:href="#V"/><radialGradient id="aZ" cx="341.8053479478" cy="421.457749742" gradientUnits="userSpaceOnUse" r="89.1851175374" xlink:href="#V"/><radialGradient id="a0" cx="341.8111706954" cy="421.4600587626" gradientUnits="userSpaceOnUse" r="89.1742751798" xlink:href="#V"/><radialGradient id="a1" cx="341.8111706954" cy="421.457749742" gradientUnits="userSpaceOnUse" r="89.180901065" xlink:href="#V"/><linearGradient id="a2" gradientUnits="userSpaceOnUse" x1="393.599290203" x2="297.52746853" xlink:href="#ag" y1="490.8333779832" y2="366.0911502654"/><linearGradient id="a3" gradientUnits="userSpaceOnUse" x1="401.1029044076" x2="305.0288741062" xlink:href="#ag" y1="485.0569111874" y2="360.3115713114"/><linearGradient id="a4" gradientUnits="userSpaceOnUse" x1="418.5016758052" x2="322.4314604074" xlink:href="#ag" y1="471.6531469966" y2="346.9129271228"/><linearGradient id="a5" gradientUnits="userSpaceOnUse" x1="368.7062410754" x2="272.6359252854" xlink:href="#ag" y1="510.0045736718" y2="385.2641530136"/><linearGradient id="a6" gradientUnits="userSpaceOnUse" x1="386.1068195326" x2="290.0403186462" xlink:href="#ag" y1="496.6031185016" y2="371.8677174534"/><linearGradient id="a7" gradientUnits="userSpaceOnUse" x1="421.3373538864" x2="325.2636247616" xlink:href="#ag" y1="469.471825275" y2="344.72698736"/><linearGradient id="a8" gradientUnits="userSpaceOnUse" x1="407.9360995006" x2="311.8590574332" xlink:href="#ag" y1="479.7933481414" y2="355.0440929696"/><linearGradient id="a9" gradientUnits="userSpaceOnUse" x1="379.2730220864" x2="283.2027062964" xlink:href="#ag" y1="501.8651756646" y2="377.1247550064"/><linearGradient id="ba" gradientUnits="userSpaceOnUse" x1="365.8731731914" x2="269.7994440666" xlink:href="#ag" y1="512.1884051984" y2="387.4436676756"/><path d="m512 256c0 141.386719-114.613281 256-256 256s-256-114.613281-256-256c0-141.382812 114.613281-256 256-256s256 114.617188 256 256zm0 0" fill="url(#a)"/><path d="m512 256c0-98.871094-56.058594-184.640625-138.117188-227.289062-9.546874 6.902343-21.027343 8.921874-31.644531 6.773437-.917969-.746094-1.992187-1.234375-3.125-1.460937-.027343-.105469-.066406-.207032-.09375-.3125l-27.976562-27.757813c-4.433594-.972656-8.910157-1.828125-13.421875-2.566406-.382813.621093-.695313 1.316406-.894532 2.109375-7.746093 30.941406-46.476562 41.320312-68.65625 18.398437-5.25-5.429687-14.269531-.222656-12.195312 7.039063 8.765625 30.667968-19.589844 59.019531-50.257812 50.257812-7.261719-2.074218-12.472657 6.941406-7.042969 12.195313 22.925781 22.175781 12.546875 60.910156-18.394531 68.652343-7.328126 1.835938-7.328126 12.25 0 14.082032.105468.027344.207031.0625.3125.089844.039062.199218.078124.394531.136718.585937-26.886718 15.933594-44.917968 45.230469-44.917968 78.746094 0 .3125.007812.617187.011718.929687-32.097656 5.339844-56.570312 33.230469-56.570312 66.84375 0 20.152344 8.804687 38.238282 22.765625 50.65625l33.855469 33.855469c.625.699219 1.261718 1.382813 1.910156 2.054687-.066406.691407-.113282 1.394532-.113282 2.105469 0 7.4375 3.75 13.980469 9.453126 17.886719l65.199218 68.085938c26.25 9.089843 54.433594 14.039062 83.777344 14.039062 141.382812 0 256-114.613281 256-256zm0 0" fill="url(#c)"/><path d="m335.339844 501.148438-1.253906-1.277344c-24.617188 7.882812-50.847657 12.128906-78.085938 12.128906-89.8125 0-168.820312-46.25-214.507812-116.234375.210937-.3125.460937-.601563.742187-.882813 2.863281-2.859374 7.507813-2.859374 10.371094 0l14.042969 14.042969h13.792968l-10.550781-11.082031c-.128906-.3125-.230469-.640625-.300781-.984375-.070313-.339844-.109375-.691406-.109375-1.054687 0-.351563.039062-.699219.109375-1.03125-.960938-.671876-1.765625-1.566407-2.320313-2.609376l-12.234375-12.238281c-2.328125-1.234375-3.914062-3.675781-3.914062-6.488281 0-4.054688 3.28125-7.335938 7.339844-7.335938h8.140624l-1.003906-1.003906c-2.863281-2.863281-2.863281-7.511718 0-10.371094 1.433594-1.4375 3.3125-2.148437 5.1875-2.148437 1.40625 0 2.8125.402344 4.039063 1.203125.410156.273438.792969.582031 1.152343.945312l.996094 1.003907v-8.152344c0-4.046875 3.28125-7.328125 7.335938-7.328125 2.8125 0 5.25 1.585938 6.484375 3.90625l12.25 12.246094c1.035156.550781 1.925781 1.34375 2.589843 2.300781.339844-.070313.703126-.101563 1.066407-.101563.359375 0 .710937.03125 1.054687.101563.339844.070313.671875.167969.980469.308594.542969.230469 1.042969.554687 1.476563.945312l7.710937 8.230469c.542969.230469 1.035156.5625 1.476563.953125.140624.132813.269531.273437.402343.414063v-13.785157l-10.972656-10.972656-3.066406-3.0625c-2.867188-2.859375-2.867188-7.507813 0-10.371094 2.863281-2.871093 7.511719-2.871093 10.371093 0l3.0625 3.0625.632813.625c0-.042969.011719-.082031.011719-.121093.007812-.183594.039062-.371094.058594-.554688.023437-.117188.042968-.238281.0625-.359375.027343-.179687.070312-.363281.109374-.53125.03125-.121094.0625-.242187.101563-.363281.039063-.171875.101563-.339844.160156-.511719.039063-.109375.078125-.230469.121094-.339844.070313-.171875.140625-.332031.210937-.484375.050782-.121094.097657-.230468.160157-.339844.078125-.152343.160156-.300781.238281-.453124.070312-.109376.132812-.21875.203125-.320313.089844-.140625.179687-.28125.28125-.421875.066406-.101562.148437-.210938.230469-.3125.101562-.128906.199218-.257812.3125-.378906.078125-.101563.179687-.203125.269531-.300782.109375-.113281.210937-.230468.332031-.332031.097656-.101562.199219-.191406.308594-.292969.109375-.097656.222656-.199218.34375-.289062s.230469-.179688.351562-.261719c.121094-.089843.238282-.179687.371094-.261719.121094-.078124.25-.160156.378906-.242187.132813-.070313.253907-.140625.382813-.210937.132813-.078126.28125-.140626.421875-.207032.132812-.0625.25-.121094.382812-.171875.148438-.070312.3125-.121093.472657-.171875.121093-.050781.25-.101562.378906-.140625.171875-.050781.34375-.089843.523437-.128906.121094-.03125.242188-.0625.363282-.089844.199218-.042969.398437-.0625.601562-.09375.109375-.007812.210938-.039062.3125-.046875.308594-.03125.632813-.042968.941406-.042968.320313 0 .644532.011718.953126.042968.101562.007813.203124.039063.3125.046875.199218.03125.402343.050781.601562.09375.121094.027344.242188.058594.363281.089844.179688.039063.351563.078125.523438.128906.128906.039063.25.089844.378906.140625.160156.050782.3125.101563.472656.171875.128907.050781.25.109375.382813.171875.140625.066406.28125.128906.421875.207032.128906.070312.25.140624.382812.210937.128907.082031.257813.164063.378907.242187.132812.082032.25.171876.371093.261719.109375.082031.230469.171875.351563.261719.109375.089844.230468.191406.34375.289062.109375.101563.210937.191407.3125.292969.117187.101563.21875.21875.328125.332031.089843.097657.191406.199219.273437.300782.109375.121094.210938.25.3125.378906.078125.101562.160156.210938.230469.3125.097656.140625.1875.28125.277344.421875.023437.019531.03125.050781.050781.082031.070312.039063.140625.078125.210938.128906.132812.082032.253906.171876.371093.261719.113281.078125.230469.160157.34375.25.121094.101563.238281.199219.351563.300781.109375.101563.210937.191407.3125.28125.117187.109376.21875.230469.328125.34375.09375.097657.191406.199219.273437.300782.109375.117187.210938.25.3125.378906.078125.101562.160156.210938.230469.3125.058594.078125.109375.160156.160156.242188l2.1875-2.191407c2.863281-2.871093 7.507813-2.871093 10.371094 0 .53125.535157.964844 1.125 1.304687 1.757813l12.238282 12.25c.273437.140625.53125.308594.78125.480468.785156-3.210937 3.675781-5.601562 7.128906-5.601562 2.8125 0 5.25 1.585938 6.484375 3.90625 0 0 93.757813 94.398438 135.339844 136.871094 9.015625 9.207031 15.570312 15.972656 18.203125 18.816406.585937.632812.976562 1.074219 1.15625 1.304688zm0 0" fill="url(#d)"/><path d="m310.808594 5.496094c7.742187 30.941406 46.476562 41.320312 68.652344 18.394531 5.253906-5.425781 14.269531-.222656 12.195312 7.042969-8.761719 30.667968 19.589844 59.023437 50.257812 50.257812 7.261719-2.074218 12.46875 6.945313 7.039063 12.195313-22.921875 22.175781-12.542969 60.910156 18.398437 68.65625 7.328126 1.832031 7.328126 12.246093 0 14.078125-30.941406 7.746094-41.320312 46.476562-18.398437 68.65625 5.429687 5.25.222656 14.269531-7.039063 12.195312-30.667968-8.765625-59.019531 19.589844-50.257812 50.257813 2.074219 7.261719-6.941406 12.46875-12.195312 7.039062-22.175782-22.921875-60.910157-12.542969-68.652344 18.394531v.003907c-1.835938 7.324219-12.25 7.324219-14.082032 0v-.003907c-7.746093-30.9375-46.476562-41.316406-68.65625-18.394531-5.25 5.429688-14.269531.222657-12.195312-7.039062 8.765625-30.667969-19.589844-59.023438-50.257812-50.257813-7.261719 2.074219-12.472657-6.945312-7.039063-12.195312 22.921875-22.179688 12.542969-60.910156-18.398437-68.65625-7.328126-1.832032-7.328126-12.246094 0-14.078125 30.941406-7.746094 41.320312-46.480469 18.398437-68.65625-5.433594-5.25-.222656-14.269531 7.039063-12.195313 30.667968 8.765625 59.023437-19.589844 50.257812-50.257812-2.074219-7.265625 6.945312-12.46875 12.195312-7.042969 22.179688 22.925781 60.910157 12.546875 68.65625-18.394531 1.832032-7.328125 12.246094-7.328125 14.082032 0zm0 0" fill="#fff"/><path d="m310.808594 5.496094c7.742187 30.941406 46.476562 41.320312 68.652344 18.394531 5.253906-5.425781 14.269531-.222656 12.195312 7.042969-8.761719 30.667968 19.589844 59.023437 50.257812 50.257812 7.261719-2.074218 12.46875 6.945313 7.039063 12.195313-22.921875 22.175781-12.542969 60.910156 18.398437 68.65625 7.328126 1.832031 7.328126 12.246093 0 14.078125-30.941406 7.746094-41.320312 46.476562-18.398437 68.65625 5.429687 5.25.222656 14.269531-7.039063 12.195312-30.667968-8.765625-59.019531 19.589844-50.257812 50.257813 2.074219 7.261719-6.941406 12.46875-12.195312 7.039062-22.175782-22.921875-60.910157-12.542969-68.652344 18.394531v.003907c-1.835938 7.324219-12.25 7.324219-14.082032 0v-.003907c-7.746093-30.9375-46.476562-41.316406-68.65625-18.394531-5.25 5.429688-14.269531.222657-12.195312-7.039062 8.765625-30.667969-19.589844-59.023438-50.257812-50.257813-7.261719 2.074219-12.472657-6.945312-7.039063-12.195312 22.921875-22.179688 12.542969-60.910156-18.398437-68.65625-7.328126-1.832032-7.328126-12.246094 0-14.078125 30.941406-7.746094 41.320312-46.480469 18.398437-68.65625-5.433594-5.25-.222656-14.269531 7.039063-12.195313 30.667968 8.765625 59.023437-19.589844 50.257812-50.257812-2.074219-7.265625 6.945312-12.46875 12.195312-7.042969 22.179688 22.925781 60.910157 12.546875 68.65625-18.394531 1.832032-7.328125 12.246094-7.328125 14.082032 0zm0 0" fill="url(#e)"/><path d="m441.648438 169.082031c0 76.152344-61.730469 137.882813-137.882813 137.882813-76.148437 0-137.882813-61.730469-137.882813-137.882813 0-76.152343 61.734376-137.882812 137.882813-137.882812 76.152344 0 137.882813 61.730469 137.882813 137.882812zm0 0" fill="url(#f)"/><path d="m417.839844 169.082031c0 63-51.074219 114.070313-114.074219 114.070313s-114.070313-51.070313-114.070313-114.070313 51.070313-114.074219 114.070313-114.074219 114.074219 51.074219 114.074219 114.074219zm0 0" fill="url(#g)"/><path d="m407.003906 169.082031c0 57.015625-46.222656 103.234375-103.238281 103.234375s-103.234375-46.21875-103.234375-103.234375 46.21875-103.234375 103.234375-103.234375 103.238281 46.21875 103.238281 103.234375zm0 0" fill="url(#h)"/><path d="m215.875 307.230469c-2.074219 7.261719 6.945312 12.46875 12.195312 7.039062 22.179688-22.921875 60.910157-12.542969 68.65625 18.398438 1.832032 7.328125 12.246094 7.328125 14.082032 0 7.742187-30.941407 46.476562-41.320313 68.652344-18.398438 5.253906 5.429688 14.273437.222657 12.195312-7.039062-2.898438-10.140625-1.734375-20.023438 2.222656-28.402344l-67.515625-67.515625c-8.738281-9.265625-21.117187-15.054688-34.859375-15.054688-9.730468 0-18.773437 2.910157-26.332031 7.894532-.121094-.117188-11.628906-11.628906-12.304687-12.285156-16.625-17.144532-39.898438-27.808594-65.671876-27.808594-16.742187 0-32.433593 4.5-45.929687 12.355468 30.09375 8.367188 39.964844 46.445313 17.3125 68.363282-5.429687 5.25-.222656 14.269531 7.039063 12.195312 30.667968-8.765625 59.023437 19.589844 50.257812 50.257813zm0 0" fill="url(#i)"/><path d="m339.429688 255.542969c-.457032 0-.914063.007812-1.371094.019531.890625-3.648438 1.371094-7.457031 1.371094-11.378906 0-26.46875-21.457032-47.925782-47.921876-47.925782-10.414062 0-20.039062 3.332032-27.898437 8.972657-16.367187-24.800781-44.476563-41.171875-76.410156-41.171875-50.527344 0-91.484375 40.960937-91.484375 91.488281 0 .308594.007812.617187.011718.925781-32.101562 5.339844-56.574218 33.230469-56.574218 66.84375 0 37.433594 30.34375 67.777344 67.773437 67.777344h232.503907c37.429687 0 67.773437-30.34375 67.773437-67.777344 0-37.429687-30.34375-67.773437-67.773437-67.773437zm0 0" fill="url(#j)"/><path d="m407.203125 323.316406c0 37.433594-30.34375 67.777344-67.773437 67.777344-37.429688 0-67.773438-30.34375-67.773438-67.777344 0-37.429687 30.34375-67.773437 67.773438-67.773437 37.429687 0 67.773437 30.34375 67.773437 67.773437zm0 0" fill="url(#l)"/><path d="m339.429688 244.179688c0 26.46875-21.457032 47.925781-47.925782 47.925781-26.464844 0-47.921875-21.457031-47.921875-47.925781 0-26.464844 21.457031-47.921876 47.921875-47.921876 26.46875 0 47.925782 21.457032 47.925782 47.921876zm0 0" fill="url(#m)"/><path d="m278.683594 255.542969c0 50.527343-40.960938 91.488281-91.484375 91.488281-50.527344 0-91.488281-40.960938-91.488281-91.488281 0-50.523438 40.960937-91.484375 91.488281-91.484375 50.523437 0 91.484375 40.960937 91.484375 91.484375zm0 0" fill="url(#n)"/><path d="m174.699219 323.316406c0 37.433594-30.34375 67.777344-67.773438 67.777344-37.429687 0-67.773437-30.34375-67.773437-67.777344 0-37.429687 30.34375-67.773437 67.773437-67.773437 37.429688 0 67.773438 30.34375 67.773438 67.773437zm0 0" fill="url(#o)"/><path d="m39.78125 332.546875c4.503906 33.066406 32.847656 58.542969 67.144531 58.542969h232.503907c34.296874 0 62.640624-25.476563 67.144531-58.542969zm0 0" fill="url(#p)"/><path d="m231.863281 391.09375-3.535156-3.535156c-5.019531-5.425782-12.195313-8.824219-20.167969-8.824219-.09375 0-.1875.007813-.277344.011719-.058593-.054688-.109374-.109375-.164062-.160156l-18.140625-18.140626c-7.886719-8.261718-19.003906-13.414062-31.328125-13.414062-23.933594 0-43.332031 19.398438-43.332031 43.332031 0 .117188.007812.234375.007812.355469-.515625.101562-1.023437.230469-1.527343.375zm0 0" fill="url(#q)"/><path d="m174.152344 340.25c-3.453125 0-6.347656 2.390625-7.128906 5.601562-.25-.171874-.511719-.339843-.785157-.480468l-12.234375-12.25c-.34375-.632813-.773437-1.222656-1.308594-1.757813-2.859374-2.871093-7.507812-2.871093-10.371093 0l-2.1875 2.191407c-.050781-.082032-.097657-.164063-.160157-.242188-.070312-.101562-.148437-.210938-.230468-.3125-.101563-.128906-.199219-.261719-.3125-.378906-.078125-.101563-.179688-.203125-.269532-.300782-.109374-.113281-.210937-.234374-.332031-.34375-.101562-.089843-.199219-.179687-.3125-.28125-.109375-.101562-.230469-.199218-.351562-.300781-.109375-.089843-.230469-.171875-.339844-.25-.121094-.089843-.242187-.179687-.371094-.261719-.070312-.050781-.140625-.089843-.210937-.128906-.023438-.03125-.03125-.0625-.050782-.082031-.089843-.140625-.179687-.28125-.28125-.421875-.070312-.101562-.148437-.210938-.230468-.3125-.101563-.128906-.199219-.257812-.3125-.378906-.078125-.101563-.179688-.203125-.269532-.300782-.109374-.113281-.210937-.230468-.332031-.332031-.101562-.101562-.199219-.191406-.3125-.292969-.109375-.097656-.230469-.199218-.339843-.289062-.121094-.089844-.242188-.179688-.351563-.261719-.121094-.089843-.242187-.179687-.371094-.261719-.121093-.078124-.253906-.160156-.382812-.242187-.128907-.070313-.25-.140625-.382813-.210937-.140625-.078126-.28125-.140626-.421875-.207032-.128906-.0625-.25-.121094-.378906-.171875-.160156-.070312-.3125-.121093-.472656-.171875-.132813-.050781-.253907-.101562-.382813-.140625-.171875-.050781-.339844-.089843-.523437-.128906-.117188-.03125-.238281-.0625-.359375-.089844-.203125-.042969-.402344-.0625-.601563-.09375-.113281-.007812-.214843-.039062-.3125-.046875-.3125-.03125-.632812-.042968-.953125-.042968-.3125 0-.632812.011718-.945312.042968-.101563.007813-.199219.039063-.3125.046875-.199219.03125-.398438.050781-.601563.09375-.121093.027344-.242187.058594-.359375.089844-.183594.039063-.351562.078125-.523437.128906-.128907.039063-.261719.089844-.382813.140625-.160156.050782-.320312.101563-.472656.171875-.128906.050781-.25.109375-.378906.171875-.140625.066406-.292969.128906-.421875.207032-.132813.070312-.253907.140624-.382813.210937-.128906.082031-.261718.164063-.382812.242187-.128906.082032-.25.171876-.371094.261719-.121094.082031-.230469.171875-.351562.261719-.121094.089844-.230469.191406-.339844.289062-.109375.101563-.210938.191407-.3125.292969-.121094.101563-.21875.21875-.332032.332031-.089843.097657-.1875.199219-.269531.300782-.109375.121094-.210937.25-.3125.378906-.078125.101562-.160156.210938-.230469.3125-.101562.140625-.191406.28125-.28125.421875-.070312.101563-.128906.210937-.199218.320313-.082032.152343-.160156.300781-.242188.453124-.058594.109376-.109375.21875-.160156.339844-.070312.152344-.140625.3125-.210938.484375-.039062.109375-.078124.230469-.121093.339844-.058594.171875-.117188.339844-.160157.511719-.039062.121094-.070312.242187-.101562.363281-.039062.167969-.078125.351563-.109375.53125-.019531.121094-.039063.242187-.058594.359375-.019531.183594-.050781.371094-.0625.554688 0 .039062-.007812.078124-.007812.121093l-.632813-.625-3.0625-3.0625c-2.863281-2.871093-7.507812-2.871093-10.371094 0-2.871093 2.863281-2.871093 7.511719 0 10.371094l14.035157 14.035156v13.785157c-.128907-.140626-.261719-.28125-.402344-.414063-.441406-.390625-.933594-.722656-1.476563-.953125l-7.707031-8.230469c-.433593-.390625-.9375-.714843-1.476562-.945312-.3125-.140625-.644531-.238281-.984375-.308594s-.691406-.101563-1.054688-.101563c-.359375 0-.722656.03125-1.066406.101563-.660156-.957031-1.554688-1.75-2.589844-2.300781l-12.246094-12.246094c-1.234374-2.320312-3.671874-3.90625-6.484374-3.90625-4.058594 0-7.339844 3.28125-7.339844 7.328125v8.152344l-.992188-1.003907c-.363281-.363281-.746094-.671874-1.15625-.945312-1.222656-.800781-2.628906-1.203125-4.035156-1.203125-1.878906 0-3.753906.710937-5.191406 2.148437-2.859375 2.859376-2.859375 7.507813 0 10.371094l1.003906 1.003906h-8.140625c-1.226563 0-2.375.300782-3.390625.832032 12.429688 14.765625 31.046875 24.160156 51.859375 24.160156h6.5c-9.144531 2.554688-15.855469 10.933594-15.855469 20.894531 0 11.988281 9.71875 21.707031 21.707032 21.707031h88.878906c15.179687 0 27.480468-12.304687 27.480468-27.480468 0-2.679688-.394531-5.265625-1.113281-7.71875-29.453125-29.734375-53.890625-54.339844-53.890625-54.339844-1.226562-2.320312-3.667968-3.90625-6.476562-3.90625zm0 0" fill="url(#r)"/><path d="m129.230469 510.441406c-5.210938 0-9.433594-4.222656-9.433594-9.433594v-62.273437c0-5.207031 4.222656-9.429687 9.433594-9.429687 5.207031 0 9.429687 4.222656 9.429687 9.429687v62.273437c0 5.210938-4.222656 9.433594-9.429687 9.433594zm0 0" fill="url(#t)"/><path d="m129.230469 407.40625c-5.210938 0-9.433594-4.222656-9.433594-9.429688v-62.273437c0-5.207031 4.222656-9.429687 9.433594-9.429687 5.207031 0 9.429687 4.222656 9.429687 9.429687v62.273437c0 5.207032-4.222656 9.429688-9.429687 9.429688zm0 0" fill="url(#u)"/><path d="m108.851562 427.789062h-62.273437c-5.210937 0-9.433594-4.222656-9.433594-9.433593 0-5.207031 4.222657-9.429688 9.433594-9.429688h62.273437c5.207032 0 9.429688 4.222657 9.429688 9.429688 0 5.210937-4.222656 9.433593-9.429688 9.433593zm0 0" fill="url(#v)"/><path d="m211.882812 427.789062h-62.273437c-5.207031 0-9.433594-4.222656-9.433594-9.433593 0-5.207031 4.222657-9.429688 9.433594-9.429688h62.273437c5.210938 0 9.433594 4.222657 9.433594 9.429688-.003906 5.210937-4.226562 9.433593-9.433594 9.433593zm0 0" fill="url(#w)"/><path d="m70.785156 484.132812c-1.875 0-3.753906-.714843-5.183594-2.148437-2.867187-2.863281-2.867187-7.507813 0-10.371094l44.03125-44.03125c2.863282-2.867187 7.507813-2.867187 10.375 0 2.863282 2.863281 2.863282 7.507813 0 10.371094l-44.035156 44.03125c-1.429687 1.433594-3.308594 2.148437-5.1875 2.148437zm0 0" fill="url(#x)"/><path d="m143.640625 411.28125c-1.878906 0-3.753906-.714844-5.1875-2.148438-2.867187-2.863281-2.867187-7.507812 0-10.375l44.03125-44.03125c2.867187-2.863281 7.511719-2.863281 10.375 0 2.863281 2.867188 2.863281 7.507813 0 10.375l-44.03125 44.03125c-1.433594 1.429688-3.3125 2.148438-5.1875 2.148438zm0 0" fill="url(#y)"/><path d="m114.820312 411.28125c-1.878906 0-3.753906-.714844-5.1875-2.148438l-44.03125-44.03125c-2.867187-2.867187-2.867187-7.507812 0-10.375 2.863282-2.863281 7.507813-2.863281 10.371094 0l44.035156 44.03125c2.863282 2.867188 2.863282 7.511719 0 10.375-1.433593 1.429688-3.3125 2.148438-5.1875 2.148438zm0 0" fill="url(#z)"/><path d="m187.671875 484.132812c-1.875 0-3.753906-.714843-5.1875-2.148437l-44.03125-44.03125c-2.863281-2.863281-2.863281-7.507813 0-10.371094 2.867187-2.867187 7.507813-2.867187 10.375 0l44.03125 44.03125c2.867187 2.863281 2.867187 7.507813 0 10.371094-1.433594 1.433594-3.308594 2.148437-5.1875 2.148437zm0 0" fill="url(#A)"/><path d="m138.660156 438.734375v19.730469l-18.863281-18.863282v-.867187c0-5.207031 4.226563-9.429687 9.433594-9.429687s9.429687 4.222656 9.429687 9.429687zm0 0" fill="url(#C)"/><path d="m119.796875 462.214844h18.863281v20.917968l-18.859375-18.859374h-.003906zm0 0" fill="url(#D)"/><path d="m150.378906 408.957031 18.832032 18.832031h-19.601563c-5.210937 0-9.429687-4.226562-9.429687-9.433593s4.21875-9.433594 9.429687-9.433594h.882813zm0 0" fill="url(#E)"/><path d="m194.023438 427.789062h-21.8125v-18.867187h2.949218zm0 0" fill="url(#F)"/><path d="m187.671875 484.132812c-1.875 0-3.753906-.714843-5.1875-2.148437l-44.03125-44.03125c-2.863281-2.863281-2.863281-7.507813 0-10.371094 2.867187-2.867187 7.507813-2.867187 10.375 0l44.03125 44.03125c2.867187 2.863281 2.867187 7.507813 0 10.371094-1.433594 1.433594-3.308594 2.148437-5.1875 2.148437zm0 0" fill="url(#G)"/><path d="m138.660156 374.632812v-38.929687c0-.21875-.011718-.4375-.023437-.652344l-9.40625 9.40625-9.40625-9.40625c-.015625.214844-.023438.433594-.023438.652344v20.070313zm0 0" fill="url(#H)"/><path d="m191.859375 366.097656-17.703125 17.707032-5.066406-5.066407c-1.402344-1.335937-2.273438-3.214843-2.273438-5.300781v-3.042969l14.667969-14.667969zm0 0" fill="url(#I)"/><path d="m142.324219 331.363281-13.09375 13.09375-13.09375-13.09375c-2.867188-2.867187-7.511719-2.867187-10.375 0-2.867188 2.863281-2.867188 7.507813 0 10.371094l18.28125 18.28125c1.433593 1.433594 3.308593 2.148437 5.1875 2.148437 1.875 0 3.753906-.714843 5.1875-2.148437l18.28125-18.28125c2.863281-2.863281 2.863281-7.507813 0-10.371094-2.867188-2.867187-7.511719-2.867187-10.375 0zm0 0" fill="url(#J)"/><path d="m134.417969 476.695312c-2.867188-2.863281-7.507813-2.863281-10.375 0l-18.28125 18.28125c-2.867188 2.867188-2.867188 7.507813 0 10.375 2.863281 2.863282 7.507812 2.863282 10.375 0l13.09375-13.09375 13.09375 13.09375c1.433593 1.429688 3.3125 2.148438 5.1875 2.148438 1.878906 0 3.753906-.71875 5.1875-2.148438 2.863281-2.867187 2.863281-7.507812 0-10.375zm0 0" fill="url(#K)"/><path d="m203.128906 418.355469 13.097656-13.09375c2.863282-2.863281 2.863282-7.507813 0-10.375-2.867187-2.863281-7.511718-2.863281-10.375 0l-18.28125 18.285156c-2.867187 2.863281-2.867187 7.507813 0 10.371094l18.28125 18.28125c1.433594 1.433593 3.308594 2.148437 5.1875 2.148437 1.875 0 3.753907-.714844 5.1875-2.148437 2.863282-2.863281 2.863282-7.507813 0-10.371094zm0 0" fill="url(#L)"/><path d="m70.890625 423.542969c2.863281-2.863281 2.863281-7.507813 0-10.375l-18.28125-18.28125c-2.867187-2.863281-7.511719-2.863281-10.375 0-2.867187 2.867187-2.867187 7.507812 0 10.375l13.09375 13.09375-13.09375 13.09375c-2.867187 2.867187-2.867187 7.507812 0 10.375 1.433594 1.429687 3.308594 2.148437 5.1875 2.148437 1.875 0 3.753906-.71875 5.1875-2.148437zm0 0" fill="url(#M)"/><path d="m174.148438 380.773438h25.855468c4.050782 0 7.335938-3.285157 7.335938-7.335938s-3.285156-7.335938-7.335938-7.335938h-18.519531v-18.519531c0-4.050781-3.28125-7.335937-7.335937-7.335937-4.050782 0-7.335938 3.285156-7.335938 7.335937v25.855469c0 4.050781 3.285156 7.335938 7.335938 7.335938zm0 0" fill="url(#N)"/><path d="m84.308594 455.941406h-25.851563c-4.050781 0-7.335937 3.285156-7.335937 7.335938 0 4.050781 3.285156 7.335937 7.335937 7.335937h18.519531v18.519531c0 4.050782 3.28125 7.332032 7.332032 7.332032 4.050781 0 7.335937-3.28125 7.335937-7.332032v-25.855468c0-4.050782-3.285156-7.335938-7.335937-7.335938zm0 0" fill="url(#O)"/><path d="m200.003906 455.941406h-25.855468c-4.050782 0-7.335938 3.285156-7.335938 7.335938v25.855468c0 4.050782 3.285156 7.332032 7.335938 7.332032 4.054687 0 7.335937-3.28125 7.335937-7.332032v-18.519531h18.519531c4.050782 0 7.335938-3.285156 7.335938-7.335937 0-4.050782-3.285156-7.335938-7.335938-7.335938zm0 0" fill="url(#P)"/><path d="m84.308594 340.246094c-4.050782 0-7.332032 3.285156-7.332032 7.335937v18.519531h-18.519531c-4.050781 0-7.335937 3.28125-7.335937 7.335938 0 4.050781 3.285156 7.335938 7.335937 7.335938h25.851563c4.050781 0 7.335937-3.285157 7.335937-7.335938v-25.855469c0-4.050781-3.285156-7.335937-7.335937-7.335937zm0 0" fill="url(#Q)"/><path d="m138.660156 372.425781v25.554688c0 .195312-.003906.390625-.015625.585937-.089843 1.441406-.5 2.789063-1.164062 3.980469l-17.683594-17.683594v-12.4375zm0 0" fill="url(#R)"/><path d="m113.269531 426.695312c-1.320312.695313-2.820312 1.09375-4.417969 1.09375h-25.550781v-18.867187h12.199219zm0 0" fill="url(#S)"/><path d="m166.894531 391.066406-8.679687 8.671875-9.386719 9.394531c-1.4375 1.429688-3.3125 2.148438-5.1875 2.148438-1.878906 0-3.753906-.71875-5.191406-2.148438-1.359375-1.363281-2.078125-3.132812-2.144531-4.925781-.066407-1.964843.648437-3.949219 2.144531-5.449219l.195312-.191406 17.875-17.875zm0 0" fill="url(#T)"/><path d="m122.152344 404.207031c-.066406 1.792969-.785156 3.5625-2.144532 4.925781-1.367187 1.359376-3.136718 2.078126-4.925781 2.144532-.085937.003906-.179687.003906-.265625.003906-1.875 0-3.75-.71875-5.183594-2.148438l-.191406-.191406-9.199218-9.203125-8.675782-8.671875 10.375-10.375 8.671875 8.679688 9.203125 9.195312.191406.191406c1.496094 1.5 2.210938 3.484376 2.144532 5.449219zm0 0" fill="url(#U)"/><path d="m129.230469 441.535156c-6.191407 0-12.015625-2.410156-16.390625-6.789062-4.378906-4.375-6.792969-10.199219-6.792969-16.390625 0-6.191407 2.414063-12.011719 6.792969-16.390625 4.375-4.378906 10.199218-6.789063 16.390625-6.789063 6.191406 0 12.011719 2.410157 16.390625 6.789063s6.789062 10.199218 6.789062 16.390625c0 6.191406-2.410156 12.015625-6.789062 16.390625-4.378906 4.378906-10.199219 6.789062-16.390625 6.789062zm0-34.089844c-2.914063 0-5.65625 1.136719-7.714844 3.195313-2.0625 2.0625-3.199219 4.800781-3.199219 7.714844 0 2.914062 1.136719 5.65625 3.199219 7.714843 2.058594 2.0625 4.800781 3.195313 7.714844 3.195313 2.914062 0 5.652343-1.132813 7.714843-3.195313 2.0625-2.058593 3.195313-4.800781 3.195313-7.714843 0-2.914063-1.132813-5.652344-3.195313-7.714844-2.0625-2.058594-4.800781-3.195313-7.714843-3.195313zm0 0" fill="url(#W)"/><path d="m145.714844 464.285156h-32.96875c-1.625 0-3.1875-.644531-4.335938-1.796875l-23.3125-23.308593c-1.152344-1.152344-1.796875-2.710938-1.796875-4.339844v-32.964844c0-1.628906.644531-3.1875 1.796875-4.339844l23.3125-23.3125c1.148438-1.148437 2.710938-1.796875 4.335938-1.796875h32.96875c1.625 0 3.1875.648438 4.335937 1.796875l23.3125 23.3125c1.152344 1.152344 1.796875 2.710938 1.796875 4.339844v32.964844c0 1.628906-.644531 3.1875-1.796875 4.339844l-23.3125 23.308593c-1.148437 1.152344-2.710937 1.796875-4.335937 1.796875zm-30.425782-12.269531h27.882813l19.71875-19.71875v-27.882813l-19.71875-19.71875h-27.882813l-19.71875 19.71875v27.882813zm0 0" fill="url(#X)"/><path d="m111.941406 363.84375c0 2.898438-2.347656 5.25-5.246094 5.25-2.898437 0-5.25-2.351562-5.25-5.25s2.351563-5.246094 5.25-5.246094c2.898438 0 5.246094 2.347656 5.246094 5.246094zm0 0" fill="url(#Y)"/><path d="m157.042969 363.84375c0 2.898438-2.351563 5.25-5.25 5.25-2.898438 0-5.246094-2.351562-5.246094-5.25s2.347656-5.246094 5.246094-5.246094c2.898437 0 5.25 2.347656 5.25 5.246094zm0 0" fill="url(#Z)"/><path d="m111.941406 472.867188c0 2.898437-2.347656 5.246093-5.246094 5.246093-2.898437 0-5.25-2.347656-5.25-5.246093 0-2.898438 2.351563-5.246094 5.25-5.246094 2.898438 0 5.246094 2.347656 5.246094 5.246094zm0 0" fill="url(#aa)"/><path d="m157.042969 472.867188c0 2.898437-2.351563 5.246093-5.25 5.246093-2.898438 0-5.246094-2.347656-5.246094-5.246093 0-2.898438 2.347656-5.246094 5.246094-5.246094 2.898437 0 5.25 2.347656 5.25 5.246094zm0 0" fill="url(#ab)"/><path d="m189.003906 395.804688c0 2.898437-2.351562 5.25-5.25 5.25-2.898437 0-5.246094-2.351563-5.246094-5.25 0-2.898438 2.347657-5.246094 5.246094-5.246094 2.898438 0 5.25 2.347656 5.25 5.246094zm0 0" fill="url(#ac)"/><path d="m189.003906 440.90625c0 2.898438-2.351562 5.246094-5.25 5.246094-2.898437 0-5.246094-2.347656-5.246094-5.246094s2.347657-5.246094 5.246094-5.246094c2.898438 0 5.25 2.347656 5.25 5.246094zm0 0" fill="url(#ad)"/><path d="m79.980469 395.804688c0 2.898437-2.351563 5.246093-5.25 5.246093-2.894531 0-5.246094-2.347656-5.246094-5.246093 0-2.898438 2.351563-5.246094 5.246094-5.246094 2.898437 0 5.25 2.347656 5.25 5.246094zm0 0" fill="url(#ae)"/><path d="m79.980469 440.90625c0 2.898438-2.351563 5.246094-5.25 5.246094-2.894531 0-5.246094-2.347656-5.246094-5.246094s2.351563-5.246094 5.246094-5.246094c2.898437 0 5.25 2.347656 5.25 5.246094zm0 0" fill="url(#af)"/><path d="m221.3125 418.355469c0-4.988281-3.871094-9.070313-8.777344-9.40625l3.691406-3.6875c2.863282-2.863281 2.863282-7.507813 0-10.375-2.867187-2.863281-7.511718-2.863281-10.375 0l-14.039062 14.039062h-16.652344v-7.050781c0-1.628906-.644531-3.1875-1.796875-4.339844l-6.46875-6.46875 10.292969-10.292968h22.816406c4.050782 0 7.335938-3.285157 7.335938-7.335938s-3.28125-7.335938-7.335938-7.335938h-8.144531l1-1c2.867187-2.867187 2.867187-7.507812.003906-10.375-2.867187-2.863281-7.511719-2.863281-10.375 0l-1.003906 1v-8.144531c0-4.050781-3.28125-7.335937-7.332031-7.335937-4.054688 0-7.335938 3.285156-7.335938 7.335937v22.816407l-10.292968 10.292968-6.472657-6.46875c-1.148437-1.148437-2.710937-1.796875-4.335937-1.796875h-7.050782v-16.652343l14.035157-14.035157c2.867187-2.867187 2.867187-7.511719 0-10.375-2.863281-2.863281-7.507813-2.863281-10.375 0l-3.6875 3.6875c-.335938-4.902343-4.417969-8.777343-9.40625-8.777343s-9.070313 3.875-9.40625 8.777343l-3.6875-3.6875c-2.867188-2.863281-7.507813-2.863281-10.375 0-2.863281 2.863281-2.863281 7.507813 0 10.375l14.039062 14.035157v16.652343h-7.054687c-1.625 0-3.1875.648438-4.335938 1.796875l-6.46875 6.46875-10.292968-10.292968v-22.816407c0-4.050781-3.285157-7.335937-7.335938-7.335937s-7.335938 3.285156-7.335938 7.335937v8.148438l-1-1.003907c-2.867187-2.863281-7.511718-2.863281-10.375 0-2.867187 2.867188-2.867187 7.507813 0 10.375l1 1h-8.144531c-4.050781 0-7.335937 3.285157-7.335937 7.335938s3.285156 7.335938 7.335937 7.335938h22.816407l10.292968 10.292968-6.46875 6.46875c-1.152344 1.152344-1.796875 2.710938-1.796875 4.339844v7.050781h-16.65625l-14.035156-14.039062c-2.867187-2.863281-7.507813-2.863281-10.375 0-2.863281 2.867187-2.863281 7.511719 0 10.375l3.691406 3.6875c-4.90625.335937-8.78125 4.417969-8.78125 9.40625 0 4.992187 3.875 9.070312 8.777344 9.40625l-3.6875 3.6875c-2.867187 2.867187-2.867187 7.511719 0 10.375 1.433594 1.433593 3.308594 2.148437 5.1875 2.148437 1.875 0 3.753906-.714844 5.1875-2.148437l14.035156-14.039063h16.652344v7.054688c0 1.625.648437 3.1875 1.796875 4.335937l6.46875 6.46875-10.292969 10.296875h-22.8125c-4.050781 0-7.335937 3.285156-7.335937 7.335938 0 4.050781 3.285156 7.335937 7.335937 7.335937h8.144531l-1 1c-2.867187 2.863281-2.867187 7.507813 0 10.371094 1.429688 1.433594 3.308594 2.148437 5.183594 2.148437 1.878906 0 3.757813-.714843 5.1875-2.148437l1.003906-1v8.148437c0 4.050782 3.28125 7.332032 7.332032 7.332032 4.050781 0 7.335937-3.28125 7.335937-7.332032v-22.816406l10.292969-10.296875 6.472656 6.46875c1.148438 1.152344 2.710938 1.796875 4.335938 1.796875h7.050781v16.65625l-14.035156 14.035156c-2.867188 2.867188-2.867188 7.507813 0 10.375 2.863281 2.863282 7.507812 2.863282 10.375 0l3.6875-3.691406c.335937 4.90625 4.417969 8.78125 9.40625 8.78125s9.070312-3.875 9.40625-8.78125l3.6875 3.691406c1.433593 1.429688 3.3125 2.148438 5.1875 2.148438 1.878906 0 3.753906-.71875 5.1875-2.148438 2.863281-2.867187 2.863281-7.507812 0-10.375l-14.039063-14.035156v-16.65625h7.050782c1.628906 0 3.191406-.644531 4.339843-1.796875l6.46875-6.46875 10.292969 10.296875v22.816406c0 4.050782 3.285156 7.332032 7.335938 7.332032 4.050781 0 7.335937-3.28125 7.335937-7.332032v-8.148437l1 1.003906c1.433594 1.429688 3.308594 2.148438 5.1875 2.148438s3.753906-.71875 5.1875-2.148438c2.863281-2.867187 2.863281-7.507812 0-10.375l-1-1h8.144531c4.050782 0 7.335938-3.285156 7.335938-7.335937 0-4.050782-3.285156-7.335938-7.335938-7.335938h-22.816406l-10.292969-10.292968 6.464844-6.46875c1.152344-1.148438 1.800781-2.710938 1.800781-4.335938v-7.054688h16.652344l14.039062 14.035157c1.429688 1.433593 3.308594 2.148437 5.183594 2.148437 1.878906 0 3.757813-.714844 5.1875-2.148437 2.867188-2.863281 2.867188-7.507813 0-10.371094l-3.6875-3.6875c4.90625-.339844 8.777344-4.421875 8.777344-9.410156zm-106.023438-33.660157h4.507813v12.476563c-.3125.140625-.625.289063-.933594.441406l-2.359375-2.355469-5.890625-5.890624zm-19.71875 19.71875 4.671876-4.671874 8.246093 8.246093c-.152343.308594-.300781.621094-.441406.9375h-12.476563zm4.671876 32.554688-4.671876-4.671875v-4.507813h12.480469c.140625.3125.285157.625.441407.933594zm19.554687 15.046875h-4.507813l-4.671874-4.671875 8.246093-8.25c.308594.15625.621094.304688.933594.445312v.0625h.003906v12.414063zm17.148437-25.945313c-2.0625 2.0625-4.800781 3.195313-7.714843 3.195313-2.914063 0-5.65625-1.132813-7.714844-3.195313-2.0625-2.0625-3.199219-4.800781-3.199219-7.714843 0-2.914063 1.136719-5.652344 3.199219-7.714844 2.058594-2.058594 4.796875-3.195313 7.714844-3.195313 2.910156 0 5.652343 1.132813 7.714843 3.195313 2.058594 2.058594 3.195313 4.800781 3.195313 7.714844 0 2.914062-1.136719 5.652343-3.195313 7.714843zm6.226563 25.945313h-4.511719v-12.476563c.316406-.140624.628906-.289062.933594-.445312l8.25 8.25zm-1.21875-56.757813-2.359375 2.359376c-.304688-.15625-.617188-.300782-.933594-.441407v-12.480469h4.511719l4.671875 4.671876zm20.9375 37.039063-4.671875 4.671875-8.25-8.246094c.15625-.308594.300781-.621094.441406-.933594h12.480469zm0-23.371094h-12.402344l.003907-.003906h-.082032c-.140625-.3125-.285156-.625-.4375-.933594l8.246094-8.246093 4.671875 4.671874zm0 0" fill="url(#ah)"/><path d="m111.941406 363.84375c0 2.898438-2.347656 5.25-5.246094 5.25-2.898437 0-5.25-2.351562-5.25-5.25s2.351563-5.246094 5.25-5.246094c2.898438 0 5.246094 2.347656 5.246094 5.246094zm0 0" fill="url(#ai)"/><path d="m157.042969 363.84375c0 2.898438-2.351563 5.25-5.25 5.25-2.898438 0-5.246094-2.351562-5.246094-5.25s2.347656-5.246094 5.246094-5.246094c2.898437 0 5.25 2.347656 5.25 5.246094zm0 0" fill="url(#aj)"/><path d="m111.941406 472.867188c0 2.898437-2.347656 5.246093-5.246094 5.246093-2.898437 0-5.25-2.347656-5.25-5.246093 0-2.898438 2.351563-5.246094 5.25-5.246094 2.898438 0 5.246094 2.347656 5.246094 5.246094zm0 0" fill="url(#ak)"/><path d="m157.042969 472.867188c0 2.898437-2.351563 5.246093-5.25 5.246093-2.898438 0-5.246094-2.347656-5.246094-5.246093 0-2.898438 2.347656-5.246094 5.246094-5.246094 2.898437 0 5.25 2.347656 5.25 5.246094zm0 0" fill="url(#al)"/><path d="m189.003906 395.804688c0 2.898437-2.351562 5.25-5.25 5.25-2.898437 0-5.246094-2.351563-5.246094-5.25 0-2.898438 2.347657-5.246094 5.246094-5.246094 2.898438 0 5.25 2.347656 5.25 5.246094zm0 0" fill="url(#am)"/><path d="m189.003906 440.90625c0 2.898438-2.351562 5.246094-5.25 5.246094-2.898437 0-5.246094-2.347656-5.246094-5.246094s2.347657-5.246094 5.246094-5.246094c2.898438 0 5.25 2.347656 5.25 5.246094zm0 0" fill="url(#an)"/><path d="m79.980469 395.804688c0 2.898437-2.351563 5.246093-5.25 5.246093-2.894531 0-5.246094-2.347656-5.246094-5.246093 0-2.898438 2.351563-5.246094 5.246094-5.246094 2.898437 0 5.25 2.347656 5.25 5.246094zm0 0" fill="url(#ao)"/><path d="m79.980469 440.90625c0 2.898438-2.351563 5.246094-5.25 5.246094-2.894531 0-5.246094-2.347656-5.246094-5.246094s2.351563-5.246094 5.246094-5.246094c2.898437 0 5.25 2.347656 5.25 5.246094zm0 0" fill="url(#ap)"/><path d="m334.175781 499.84375c.59375.632812.984375 1.074219 1.164063 1.304688l-1.253906-1.277344-15.894532-16.132813c-1.0625-.5625-1.867187-1.535156-2.21875-2.710937-.117187-.398438-.179687-.832032-.179687-1.273438 0-2.128906 1.464843-3.90625 3.445312-4.375-.113281-.164062-.210937-.324218-.304687-.484375l-7.527344-7.527343c-.382812-.203126-.753906-.472657-1.074219-.804688-1.765625-1.757812-1.765625-4.609375 0-6.375l1.34375-1.34375c-.046875-.03125-.097656-.0625-.148437-.089844-.0625-.050781-.128906-.101562-.191406-.152344-.078126-.058593-.160157-.121093-.230469-.179687-.066407-.0625-.128907-.113281-.1875-.171875-.070313-.070312-.144531-.128906-.203125-.199219-.058594-.0625-.121094-.132812-.179688-.191406-.0625-.070313-.121094-.140625-.183594-.222656-.058593-.070313-.109374-.140625-.15625-.210938-.050781-.070312-.113281-.148437-.164062-.21875-.027344-.050781-.050781-.089843-.078125-.140625-.011719-.011718-.03125-.019531-.050781-.03125-.078125-.050781-.171875-.109375-.25-.171875-.070313-.039062-.132813-.089843-.203125-.140625-.070313-.058594-.148438-.117187-.230469-.1875-.058594-.050781-.121094-.113281-.179688-.171875-.070312-.0625-.140624-.132812-.210937-.199219-.0625-.0625-.109375-.121093-.171875-.191406-.058594-.070312-.128906-.140625-.179688-.210937-.0625-.070313-.109374-.140625-.160156-.222657-.0625-.070312-.109375-.140624-.160156-.21875-.050781-.082031-.101562-.160156-.152344-.242187-.039062-.070313-.089844-.152344-.128906-.230469-.039062-.082031-.082031-.171875-.128906-.261718-.03125-.082032-.070313-.152344-.101563-.230469-.039062-.101563-.070312-.191407-.109375-.292969-.03125-.078125-.0625-.148438-.082031-.230469-.027344-.109375-.058594-.210937-.078125-.320312-.019531-.070313-.042969-.152344-.058594-.222657-.023437-.128906-.042968-.25-.054687-.371093-.007813-.070313-.019531-.128907-.027344-.199219-.019531-.191406-.03125-.382812-.03125-.574219 0-.199219.011719-.390625.03125-.582031.011719-.070312.019531-.128906.027344-.1875.011719-.132812.03125-.253906.054687-.371094.019532-.082031.039063-.152344.058594-.234375.019531-.097656.050781-.210937.078125-.320312.019531-.078125.050781-.148438.082031-.230469.039063-.101562.070313-.191406.109375-.289062.03125-.082032.070313-.152344.101563-.234376.046875-.089843.089844-.179687.128906-.257812.039062-.082031.089844-.164062.128906-.234375.050782-.078125.101563-.160156.152344-.238281.050781-.082032.101562-.152344.160156-.222656.050782-.070313.101563-.148438.160156-.21875.050782-.070313.121094-.140626.179688-.210938.0625-.0625.109375-.132812.171875-.191406.070313-.070313.140625-.140625.210937-.199219.058594-.0625.121094-.121094.179688-.171875.082031-.0625.160156-.132812.230469-.191406.070312-.050782.132812-.089844.203125-.140625.078125-.058594.171875-.121094.25-.171875.070312-.039063.128906-.078125.199218-.121094.09375-.046875.183594-.097656.28125-.148438.070313-.039062.132813-.070312.203126-.101562.097656-.050781.199218-.089844.300781-.128906.070312-.019532.140625-.050782.210937-.070313.101563-.039062.210938-.070312.308594-.101562.082031-.019531.152344-.039063.222656-.058594.109375-.03125.222656-.050781.332032-.070313.070312-.011718.148437-.019531.21875-.03125.121093-.019531.234374-.039062.34375-.039062.03125-.011719.050781-.011719.070312-.011719l-2.257812-2.269531c-1.769532-1.765625-1.769532-4.617188 0-6.375 1.753906-1.765625 4.605468-1.765625 6.375 0l1.875 1.878906 6.746093 6.746094h8.484375l-6.484375-6.804688c-.082031-.191406-.140625-.394531-.183593-.605468-.046876-.210938-.070313-.429688-.070313-.652344 0-.21875.023437-.429688.0625-.632812-.59375-.410157-1.074219-.960938-1.414063-1.605469l-7.53125-7.527344c-1.425781-.753906-2.398437-2.25-2.398437-3.988281 0-2.488282 2.019531-4.507813 4.507813-4.507813h5l-.613282-.609375c-1.757812-1.757812-1.757812-4.621094 0-6.375.882813-.886718 2.035156-1.328125 3.191406-1.328125.863282 0 1.726563.253907 2.480469.746094.25.167969.480469.359375.703125.582031l.621094.609375v-5.007812c0-2.488281 2.019531-4.507813 4.507812-4.507813 1.726563 0 3.222657.972656 3.984376 2.410156l7.519531 7.527344c.644531.332032 1.195312.824219 1.597656 1.40625.210937-.039062.433594-.058594.652344-.058594s.441406.019532.652343.058594c.210938.050782.410157.109375.601563.191406.34375.140626.644531.339844.90625.582032l4.738281 5.058594c.339844.152343.640625.34375.910156.582031.082032.082031.171876.171875.253907.261719v-8.472657l-1.105469-1.105469-1.886719-1.875-1.878906-1.886718-3.765625-3.765625c-1.757812-1.757813-1.757812-4.609375 0-6.375 1.757812-1.757813 4.621094-1.757813 6.375 0l2.269531 2.269531c0-.019531.011719-.050781.011719-.070312.007812-.121094.019531-.230469.039062-.34375.011719-.078126.019532-.148438.03125-.21875.019532-.109376.050782-.222657.070313-.332032.019531-.070312.039063-.152344.058594-.222656.03125-.109375.0625-.210938.101562-.308594.019531-.070312.050781-.140625.082031-.210937.039063-.101563.078126-.203125.117188-.300781.03125-.070313.070312-.140626.101562-.210938.050782-.089844.101563-.183594.152344-.273438.039063-.070312.078125-.140624.117188-.199218.0625-.089844.113281-.171875.171875-.261719.050781-.058594.101562-.128906.152343-.191406.058594-.078125.117188-.148438.179688-.230469.058594-.058594.109375-.121094.171875-.179688.070313-.070312.128906-.140624.199219-.210937.058594-.058594.128906-.121094.191406-.171875.070312-.070312.140625-.128906.21875-.191406.070312-.046875.140625-.109375.210938-.160156.070312-.050782.152343-.109376.222656-.160157.078125-.050781.160156-.089843.242187-.140625.078125-.050781.148438-.089844.230469-.128906.089844-.050781.179688-.089844.261719-.132812.078125-.039063.160156-.070313.238281-.109376.089844-.039062.191406-.070312.28125-.101562.082031-.027344.160156-.058594.242188-.078125.101562-.03125.210937-.0625.320312-.082031.070312-.019532.140625-.039063.222656-.058594.117188-.019531.25-.039062.371094-.0625.058594 0 .128906-.019531.1875-.019531.191406-.019531.382812-.027344.582031-.027344.191407 0 .394531.007813.582031.027344.0625 0 .132813.019531.191407.019531.121093.023438.253906.042969.371093.0625.082032.019531.152344.039062.222657.058594.109375.019531.21875.050781.320312.082031.078125.019531.160157.050781.242188.078125.089843.03125.1875.0625.28125.101562.078125.039063.160156.070313.238281.109376.082031.042968.171875.082031.261719.132812.082031.039062.152343.089844.230469.128906.078124.050782.160156.089844.230468.140625.082032.050781.152344.109375.230469.160157.070313.050781.140625.113281.210937.160156.078126.0625.148438.121094.222657.191406.058593.050781.117187.113281.1875.171875.070312.070313.132812.140625.203125.210937.046875.058594.109375.121094.167968.179688.0625.082031.121094.152344.183594.230469.050782.0625.097656.132812.148438.191406.0625.089844.109375.171875.171875.261719.007812.011718.019531.03125.027343.050781.042969.019531.09375.050781.132813.078125.078125.050781.148437.101562.21875.160156.070313.050782.152344.101563.222656.164063l.210938.179687c.0625.058594.132812.109375.191406.171875.070313.070313.140625.140625.199219.210938.0625.058593.121094.117187.171875.179687.058593.078125.128906.160156.191406.238282.050781.0625.089844.121093.140625.191406.027344.050781.070312.089844.097656.140625l1.347656-1.34375c1.757813-1.757813 4.609376-1.757813 6.375 0 .320313.332031.59375.691406.792969 1.082031l7.53125 7.53125c.167969.089844.328125.191406.480469.300781.480469-1.976562 2.257812-3.453125 4.375-3.453125 1.738281 0 3.234375.972656 3.988281 2.410156 0 0 16.535157 16.644532 35.808594 36.109376-27.375 25.710937-60.40625 45.46875-97.027344 57.195312zm0 0" fill="url(#aq)"/><path d="m363.800781 508.742188c-3.203125 0-5.796875-2.59375-5.796875-5.796876v-38.277343c0-3.199219 2.597656-5.796875 5.796875-5.796875s5.796875 2.597656 5.796875 5.796875v38.277343c0 3.203126-2.59375 5.796876-5.796875 5.796876zm0 0" fill="url(#ar)"/><path d="m363.800781 445.414062c-3.203125 0-5.796875-2.597656-5.796875-5.796874v-38.277344c0-3.203125 2.597656-5.796875 5.796875-5.796875s5.796875 2.59375 5.796875 5.796875v38.277344c0 3.199218-2.59375 5.796874-5.796875 5.796874zm0 0" fill="url(#as)"/><path d="m351.273438 457.941406h-38.277344c-3.199219 0-5.796875-2.597656-5.796875-5.796875 0-3.203125 2.597656-5.796875 5.796875-5.796875h38.277344c3.203124 0 5.796874 2.59375 5.796874 5.796875 0 3.199219-2.59375 5.796875-5.796874 5.796875zm0 0" fill="url(#at)"/><path d="m414.605469 457.941406h-38.277344c-3.203125 0-5.796875-2.597656-5.796875-5.796875 0-3.203125 2.59375-5.796875 5.796875-5.796875h38.277344c3.199219 0 5.796875 2.59375 5.796875 5.796875 0 3.199219-2.597656 5.796875-5.796875 5.796875zm0 0" fill="url(#au)"/><path d="m327.878906 492.574219c-1.15625 0-2.308594-.441407-3.1875-1.320313-1.761718-1.761718-1.761718-4.617187 0-6.375l27.0625-27.066406c1.761719-1.761719 4.617188-1.761719 6.378906 0 1.761719 1.761719 1.761719 4.617188 0 6.378906l-27.066406 27.0625c-.878906.878906-2.035156 1.320313-3.1875 1.320313zm0 0" fill="url(#av)"/><path d="m372.65625 447.792969c-1.152344 0-2.304688-.4375-3.1875-1.320313-1.757812-1.761718-1.757812-4.613281 0-6.375l27.066406-27.066406c1.761719-1.757812 4.617188-1.757812 6.375 0 1.761719 1.761719 1.761719 4.617188 0 6.378906l-27.0625 27.0625c-.882812.882813-2.035156 1.320313-3.191406 1.320313zm0 0" fill="url(#aw)"/><path d="m354.945312 447.792969c-1.15625 0-2.308593-.4375-3.191406-1.320313l-27.0625-27.0625c-1.761718-1.761718-1.761718-4.617187 0-6.378906 1.761719-1.761719 4.613282-1.761719 6.375 0l27.066406 27.066406c1.761719 1.757813 1.761719 4.613282 0 6.375-.882812.882813-2.035156 1.320313-3.1875 1.320313zm0 0" fill="url(#ax)"/><path d="m399.722656 492.574219c-1.152344 0-2.308594-.441407-3.1875-1.320313l-27.066406-27.0625c-1.757812-1.761718-1.757812-4.617187 0-6.378906 1.761719-1.761719 4.617188-1.761719 6.378906 0l27.0625 27.066406c1.761719 1.757813 1.761719 4.613282 0 6.375-.878906.878906-2.03125 1.320313-3.1875 1.320313zm0 0" fill="url(#ay)"/><path d="m369.597656 464.667969v12.128906l-11.59375-11.59375v-.535156c0-3.199219 2.597656-5.796875 5.796875-5.796875s5.796875 2.597656 5.796875 5.796875zm0 0" fill="url(#az)"/><path d="m358.003906 479.101562h11.59375v12.855469l-11.59375-11.589843zm0 0" fill="url(#aA)"/><path d="m376.800781 446.363281 11.574219 11.578125h-12.050781c-3.199219 0-5.792969-2.597656-5.792969-5.800781 0-3.199219 2.59375-5.796875 5.792969-5.796875h.546875zm0 0" fill="url(#aB)"/><path d="m403.628906 457.941406h-13.410156v-11.597656h1.8125zm0 0" fill="url(#aC)"/><path d="m399.722656 492.574219c-1.152344 0-2.308594-.441407-3.1875-1.320313l-27.066406-27.0625c-1.757812-1.761718-1.757812-4.617187 0-6.378906 1.761719-1.761719 4.617188-1.761719 6.378906 0l27.0625 27.066406c1.761719 1.757813 1.761719 4.613282 0 6.375-.878906.878906-2.03125 1.320313-3.1875 1.320313zm0 0" fill="url(#aD)"/><path d="m369.597656 425.269531v-23.929687c0-.136719-.007812-.269532-.015625-.402344l-5.78125 5.78125-5.78125-5.78125c-.011719.132812-.015625.265625-.015625.402344v12.335937zm0 0" fill="url(#aE)"/><path d="m402.296875 420.023438-10.882813 10.882812-3.113281-3.113281c-.859375-.824219-1.398437-1.976563-1.398437-3.261719v-1.867188l9.015625-9.015624zm0 0" fill="url(#aF)"/><path d="m371.851562 398.671875-8.050781 8.046875-8.050781-8.046875c-1.757812-1.761719-4.613281-1.761719-6.375 0-1.761719 1.757813-1.761719 4.613281 0 6.375l11.238281 11.238281c.878907.878906 2.03125 1.320313 3.1875 1.320313 1.152344 0 2.304688-.441407 3.1875-1.320313l11.234375-11.238281c1.761719-1.761719 1.761719-4.617187 0-6.375-1.757812-1.761719-4.609375-1.761719-6.371094 0zm0 0" fill="url(#aG)"/><path d="m366.988281 488.003906c-1.761719-1.761718-4.613281-1.761718-6.375 0l-11.238281 11.234375c-1.761719 1.761719-1.761719 4.617188 0 6.378907 1.761719 1.761718 4.617188 1.761718 6.378906 0l8.046875-8.050782 8.050781 8.050782c.878907.878906 2.03125 1.320312 3.1875 1.320312 1.152344 0 2.308594-.441406 3.1875-1.320312 1.761719-1.761719 1.761719-4.617188 0-6.378907zm0 0" fill="url(#aH)"/><path d="m409.226562 452.140625 8.046876-8.046875c1.761718-1.761719 1.761718-4.617188 0-6.375-1.761719-1.761719-4.617188-1.761719-6.375 0l-11.238282 11.234375c-1.761718 1.761719-1.761718 4.617187 0 6.378906l11.238282 11.234375c.878906.878906 2.03125 1.320313 3.1875 1.320313 1.152343 0 2.308593-.441407 3.1875-1.320313 1.761718-1.757812 1.761718-4.613281 0-6.375zm0 0" fill="url(#aI)"/><path d="m327.941406 455.332031c1.761719-1.761719 1.761719-4.617187 0-6.378906l-11.234375-11.234375c-1.761719-1.761719-4.617187-1.761719-6.378906 0-1.761719 1.757812-1.761719 4.613281 0 6.375l8.050781 8.046875-8.050781 8.050781c-1.761719 1.761719-1.761719 4.617188 0 6.378906.878906.878907 2.035156 1.320313 3.1875 1.320313 1.15625 0 2.308594-.441406 3.191406-1.320313zm0 0" fill="url(#aJ)"/><path d="m391.410156 429.042969h15.894532c2.488281 0 4.507812-2.019531 4.507812-4.511719 0-2.488281-2.019531-4.507812-4.507812-4.507812h-11.386719v-11.382813c0-2.488281-2.015625-4.507813-4.507813-4.507813-2.488281 0-4.507812 2.019532-4.507812 4.507813v15.894531c0 2.488282 2.019531 4.507813 4.507812 4.507813zm0 0" fill="url(#aK)"/><path d="m336.191406 475.246094h-15.894531c-2.488281 0-4.507813 2.015625-4.507813 4.507812 0 2.488282 2.019532 4.507813 4.507813 4.507813h11.386719v11.382812c0 2.492188 2.015625 4.507813 4.507812 4.507813 2.488282 0 4.507813-2.015625 4.507813-4.507813v-15.890625c0-2.492187-2.019531-4.507812-4.507813-4.507812zm0 0" fill="url(#aL)"/><path d="m407.304688 475.246094h-15.894532c-2.488281 0-4.507812 2.015625-4.507812 4.507812v15.890625c0 2.492188 2.019531 4.507813 4.507812 4.507813 2.492188 0 4.507813-2.015625 4.507813-4.507813v-11.382812h11.386719c2.488281 0 4.507812-2.019531 4.507812-4.507813 0-2.492187-2.019531-4.507812-4.507812-4.507812zm0 0" fill="url(#aM)"/><path d="m336.191406 404.132812c-2.492187 0-4.507812 2.019532-4.507812 4.507813v11.382813h-11.386719c-2.488281 0-4.507813 2.019531-4.507813 4.507812s2.019532 4.507812 4.507813 4.507812h15.894531c2.488282 0 4.507813-2.019531 4.507813-4.507812v-15.890625c0-2.488281-2.019531-4.507813-4.507813-4.507813zm0 0" fill="url(#aN)"/><path d="m369.597656 423.910156v15.707032c0 .121093-.003906.242187-.011718.363281-.054688.882812-.304688 1.710937-.714844 2.445312l-10.867188-10.871093v-7.640626h11.59375zm0 0" fill="url(#aO)"/><path d="m353.992188 457.269531c-.8125.425781-1.734376.671875-2.714844.671875h-15.707032v-11.597656h7.496094zm0 0" fill="url(#aP)"/><path d="m386.953125 435.367188-5.335937 5.332031-5.769532 5.773437c-.882812.878906-2.035156 1.320313-3.1875 1.320313-1.15625 0-2.308594-.441407-3.191406-1.320313-.835938-.835937-1.277344-1.925781-1.320312-3.027344-.039063-1.207031.398437-2.425781 1.320312-3.347656l.117188-.117187 5.65625-5.652344 5.332031-5.335937zm0 0" fill="url(#aQ)"/><path d="m359.449219 443.445312c-.039063 1.101563-.480469 2.191407-1.316407 3.027344-.839843.839844-1.929687 1.28125-3.03125 1.320313-.050781 0-.105468 0-.160156 0-1.152344 0-2.308594-.441407-3.1875-1.320313l-.117187-.117187-5.652344-5.65625-5.335937-5.332031 6.378906-6.375 5.332031 5.332031 5.652344 5.65625.117187.117187c.925782.921875 1.363282 2.140625 1.320313 3.347656zm0 0" fill="url(#aR)"/><path d="m363.800781 466.390625c-3.804687 0-7.382812-1.480469-10.074219-4.171875-2.691406-2.691406-4.175781-6.269531-4.175781-10.078125 0-3.804687 1.484375-7.382813 4.175781-10.074219 2.691407-2.691406 6.269532-4.171875 10.074219-4.171875 3.804688 0 7.382813 1.480469 10.074219 4.171875s4.175781 6.269532 4.175781 10.074219c0 3.808594-1.484375 7.386719-4.175781 10.078125s-6.269531 4.171875-10.074219 4.171875zm0-20.953125c-1.789062 0-3.476562.699219-4.742187 1.964844s-1.964844 2.949218-1.964844 4.742187c0 1.789063.699219 3.472657 1.964844 4.742188 1.265625 1.265625 2.949218 1.964843 4.742187 1.964843s3.476563-.699218 4.742188-1.964843c1.265625-1.269531 1.964843-2.953125 1.964843-4.742188 0-1.792969-.699218-3.476562-1.964843-4.742187-1.265625-1.269532-2.949219-1.964844-4.742188-1.964844zm0 0" fill="url(#aS)"/><path d="m373.933594 480.375h-20.265625c-1 0-1.957031-.398438-2.664063-1.105469l-14.328125-14.328125c-.707031-.707031-1.105469-1.667968-1.105469-2.667968v-20.261719c0-1 .394532-1.960938 1.105469-2.667969l14.328125-14.328125c.707032-.707031 1.664063-1.101563 2.664063-1.101563h20.265625c1 0 1.957031.394532 2.664062 1.101563l14.328125 14.328125c.710938.707031 1.105469 1.667969 1.105469 2.667969v20.261719c0 1-.394531 1.960937-1.105469 2.667968l-14.328125 14.328125c-.707031.707031-1.664062 1.105469-2.664062 1.105469zm-18.703125-7.542969h17.140625l12.117187-12.117187v-17.140625l-12.117187-12.121094h-17.140625l-12.117188 12.121094v17.140625zm0 0" fill="url(#aT)"/><path d="m353.171875 418.636719c0 1.78125-1.441406 3.226562-3.222656 3.226562s-3.226563-1.445312-3.226563-3.226562 1.445313-3.226563 3.226563-3.226563 3.222656 1.445313 3.222656 3.226563zm0 0" fill="url(#aU)"/><path d="m380.894531 418.636719c0 1.78125-1.441406 3.226562-3.222656 3.226562s-3.226563-1.445312-3.226563-3.226562 1.445313-3.226563 3.226563-3.226563 3.222656 1.445313 3.222656 3.226563zm0 0" fill="url(#aV)"/><path d="m353.171875 485.648438c0 1.78125-1.441406 3.226562-3.222656 3.226562s-3.226563-1.445312-3.226563-3.226562 1.445313-3.222657 3.226563-3.222657 3.222656 1.441407 3.222656 3.222657zm0 0" fill="url(#aW)"/><path d="m380.894531 485.648438c0 1.78125-1.441406 3.226562-3.222656 3.226562s-3.226563-1.445312-3.226563-3.226562 1.445313-3.222657 3.226563-3.222657 3.222656 1.441407 3.222656 3.222657zm0 0" fill="url(#aX)"/><path d="m400.542969 438.28125c0 1.78125-1.445313 3.226562-3.226563 3.226562s-3.226562-1.445312-3.226562-3.226562 1.445312-3.222656 3.226562-3.222656 3.226563 1.441406 3.226563 3.222656zm0 0" fill="url(#aY)"/><path d="m400.542969 466.003906c0 1.78125-1.445313 3.226563-3.226563 3.226563s-3.226562-1.445313-3.226562-3.226563 1.445312-3.226562 3.226562-3.226562 3.226563 1.445312 3.226563 3.226562zm0 0" fill="url(#aZ)"/><path d="m333.527344 438.28125c0 1.78125-1.441406 3.226562-3.222656 3.226562s-3.226563-1.445312-3.226563-3.226562 1.445313-3.222656 3.226563-3.222656 3.222656 1.441406 3.222656 3.222656zm0 0" fill="url(#a0)"/><path d="m333.527344 466.003906c0 1.78125-1.441406 3.226563-3.222656 3.226563s-3.226563-1.445313-3.226563-3.226563 1.445313-3.226562 3.226563-3.226562 3.222656 1.445312 3.222656 3.226562zm0 0" fill="url(#a1)"/><path d="m420.402344 452.140625c0-3.0625-2.382813-5.574219-5.394532-5.78125l2.265626-2.265625c1.761718-1.761719 1.761718-4.617188 0-6.375-1.761719-1.761719-4.617188-1.761719-6.375 0l-8.628907 8.628906h-10.234375l-.003906-.003906v-4.332031c0-1-.394531-1.960938-1.105469-2.667969l-3.976562-3.976562 4.464843-4.460938 1.863282-1.863281h14.023437c2.492188 0 4.511719-2.019531 4.511719-4.511719 0-2.488281-2.019531-4.507812-4.511719-4.507812h-5.003906l.613281-.613282c1.761719-1.761718 1.761719-4.617187 0-6.378906-1.761718-1.757812-4.613281-1.761719-6.375 0l-.617187.617188v-5.007813c0-2.488281-2.019531-4.507813-4.507813-4.507813-2.488281 0-4.507812 2.019532-4.507812 4.507813v14.023437l-6.328125 6.328126-3.976563-3.976563c-.707031-.707031-1.664062-1.105469-2.664062-1.105469h-4.335938v-10.234375l8.628906-8.628906c1.761719-1.761719 1.761719-4.617187 0-6.375-1.761718-1.761719-4.617187-1.761719-6.378906 0l-2.265625 2.265625c-.207031-3.015625-2.714843-5.394531-5.78125-5.394531-3.066406 0-5.578125 2.378906-5.78125 5.394531l-2.269531-2.265625c-1.761719-1.761719-4.617188-1.761719-6.375 0-1.761719 1.757813-1.761719 4.613281 0 6.375l8.628906 8.628906v10.234375h-4.335937c-1 0-1.957031.398438-2.667969 1.105469l-3.976562 3.976563-6.324219-6.328126v-14.023437c0-2.488281-2.019531-4.507813-4.511719-4.507813-2.488281 0-4.507812 2.019532-4.507812 4.507813v5.007813l-.613282-.617188c-1.761718-1.761719-4.617187-1.761719-6.378906 0-1.757812 1.761719-1.757812 4.617188 0 6.378906l.617188.613282h-5.007813c-2.488281 0-4.507813 2.019531-4.507813 4.507812 0 2.492188 2.019532 4.511719 4.507813 4.511719h14.023437l6.328126 6.324219-3.976563 3.976562c-.707031.707031-1.105469 1.667969-1.105469 2.667969v4.335937h-10.234375l-8.628906-8.628906c-1.757813-1.761719-4.613281-1.761719-6.375 0-1.761719 1.757812-1.761719 4.613281 0 6.375l2.265625 2.265625c-3.011719.207031-5.394531 2.714844-5.394531 5.78125 0 3.070313 2.382812 5.578125 5.394531 5.785156l-2.265625 2.265625c-1.761719 1.761719-1.761719 4.617188 0 6.378906.878906.878907 2.03125 1.320313 3.1875 1.320313 1.152344 0 2.308594-.441406 3.1875-1.320313l8.628906-8.628906h10.234375v4.332032c0 1 .398438 1.960937 1.105469 2.667968l3.976563 3.976563-6.328126 6.328125h-14.023437c-2.488281 0-4.507813 2.015625-4.507813 4.507812 0 2.488282 2.019532 4.507813 4.507813 4.507813h5.007813l-.617188.617187c-1.757812 1.757813-1.757812 4.613282 0 6.375.882812.878906 2.035156 1.320313 3.191406 1.320313 1.152344 0 2.308594-.441407 3.1875-1.320313l.613282-.613281v5.003906c0 2.492188 2.019531 4.507813 4.507812 4.507813 2.492188 0 4.511719-2.015625 4.511719-4.507813v-14.023437l6.324219-6.328125 3.976562 3.976562c.710938.707031 1.667969 1.105469 2.667969 1.105469h4.335937v10.234375l-8.628906 8.628906c-1.761719 1.761719-1.761719 4.617188 0 6.378907 1.757812 1.757812 4.613281 1.757812 6.375 0l2.269531-2.269532c.203125 3.011719 2.714844 5.394532 5.78125 5.394532 3.066407 0 5.574219-2.382813 5.78125-5.394532l2.265625 2.269532c.882813.878906 2.035156 1.316406 3.191406 1.316406 1.152344 0 2.304688-.4375 3.1875-1.316406 1.761719-1.761719 1.761719-4.617188 0-6.378907l-8.628906-8.628906v-10.234375h4.335938c1 0 1.957031-.398438 2.664062-1.105469l3.976563-3.976562 6.328125 6.328125v14.023437c0 2.488281 2.019531 4.507813 4.507812 4.507813 2.488282 0 4.507813-2.019532 4.507813-4.507813v-5.007812l.617187.617187c.878906.878906 2.03125 1.320313 3.1875 1.320313 1.152344 0 2.308594-.441407 3.1875-1.320313 1.761719-1.761718 1.761719-4.617187 0-6.378906l-.613281-.613281h5.003906c2.492188 0 4.511719-2.019531 4.511719-4.507813 0-2.492187-2.019531-4.511718-4.511719-4.511718h-14.023437l-6.328125-6.328126 3.976562-3.976562c.707031-.703125 1.105469-1.664062 1.105469-2.664062v-4.335938h10.238281l8.625 8.628906c.882813.878906 2.035157 1.320313 3.191407 1.320313 1.152343 0 2.304687-.441407 3.1875-1.320313 1.757812-1.761718 1.757812-4.617187 0-6.375l-2.269532-2.269531c3.015625-.203125 5.398438-2.710937 5.398438-5.78125zm-65.171875-20.6875h2.773437v7.671875c-.191406.085938-.386718.175781-.574218.269531l-5.070313-5.070312zm-12.117188 12.121094 2.871094-2.871094 5.070313 5.070313c-.097657.1875-.1875.378906-.273438.574218h-7.667969zm2.871094 20.011719-2.871094-2.871094v-2.773438h7.667969c.085938.191406.179688.382813.273438.574219zm12.019531 9.246093h-2.773437l-2.871094-2.871093 5.070313-5.070313c.191406.09375.382812.1875.574218.273437zm10.539063-15.945312c-1.265625 1.265625-2.949219 1.964843-4.742188 1.964843-1.789062 0-3.476562-.699218-4.742187-1.964843-1.265625-1.269531-1.964844-2.953125-1.964844-4.746094 0-1.789063.699219-3.472656 1.964844-4.742187 1.265625-1.265626 2.949218-1.960938 4.742187-1.960938s3.476563.695312 4.742188 1.960938c1.265625 1.265624 1.964843 2.953124 1.964843 4.742187 0 1.792969-.699218 3.476563-1.964843 4.746094zm3.828125 15.945312h-2.773438v-7.667969c.191406-.089843.386719-.179687.574219-.273437l5.070313 5.070313zm-.75-34.886719-1.449219 1.449219c-.191406-.09375-.378906-.1875-.574219-.269531v-7.671875h2.773438l2.871094 2.871094zm12.867187 22.769532-2.871093 2.871094-5.070313-5.070313c.097656-.191406.1875-.382813.273437-.574219h7.671876v2.773438zm0-14.367188h-7.621093l.003906-.003906h-.050782c-.085937-.191406-.179687-.382812-.273437-.570312l1.339844-1.34375 3.730469-3.730469 2.871093 2.871093zm0 0" fill="url(#a2)"/><path d="m353.171875 418.636719c0 1.78125-1.441406 3.226562-3.222656 3.226562s-3.226563-1.445312-3.226563-3.226562 1.445313-3.226563 3.226563-3.226563 3.222656 1.445313 3.222656 3.226563zm0 0" fill="url(#a3)"/><path d="m380.894531 418.636719c0 1.78125-1.441406 3.226562-3.222656 3.226562s-3.226563-1.445312-3.226563-3.226562 1.445313-3.226563 3.226563-3.226563 3.222656 1.445313 3.222656 3.226563zm0 0" fill="url(#a4)"/><path d="m353.171875 485.648438c0 1.78125-1.441406 3.226562-3.222656 3.226562s-3.226563-1.445312-3.226563-3.226562 1.445313-3.222657 3.226563-3.222657 3.222656 1.441407 3.222656 3.222657zm0 0" fill="url(#a5)"/><path d="m380.894531 485.648438c0 1.78125-1.441406 3.226562-3.222656 3.226562s-3.226563-1.445312-3.226563-3.226562 1.445313-3.222657 3.226563-3.222657 3.222656 1.441407 3.222656 3.222657zm0 0" fill="url(#a6)"/><path d="m400.542969 438.28125c0 1.78125-1.445313 3.226562-3.226563 3.226562s-3.226562-1.445312-3.226562-3.226562 1.445312-3.222656 3.226562-3.222656 3.226563 1.441406 3.226563 3.222656zm0 0" fill="url(#a7)"/><path d="m400.542969 466.003906c0 1.78125-1.445313 3.226563-3.226563 3.226563s-3.226562-1.445313-3.226562-3.226563 1.445312-3.226562 3.226562-3.226562 3.226563 1.445312 3.226563 3.226562zm0 0" fill="url(#a8)"/><path d="m333.527344 438.28125c0 1.78125-1.441406 3.226562-3.222656 3.226562s-3.226563-1.445312-3.226563-3.226562 1.445313-3.222656 3.226563-3.222656 3.222656 1.441406 3.222656 3.222656zm0 0" fill="url(#a9)"/><path d="m333.527344 466.003906c0 1.78125-1.441406 3.226563-3.222656 3.226563s-3.226563-1.445313-3.226563-3.226563 1.445313-3.226562 3.226563-3.226562 3.222656 1.445312 3.222656 3.226562zm0 0" fill="url(#ba)"/></svg>