<svg height="512pt" viewBox="0 0 512 512" width="512pt" xmlns="http://www.w3.org/2000/svg" xmlns:xlink="http://www.w3.org/1999/xlink"><radialGradient id="a" cx="189.5532234094" cy="123.2072309798" gradientUnits="userSpaceOnUse" r="355.6919740128"><stop offset="0" stop-color="#8be1e2"/><stop offset=".2752" stop-color="#88e1e1"/><stop offset=".4407" stop-color="#80e1de"/><stop offset=".5772" stop-color="#72e2d9"/><stop offset=".698" stop-color="#5ee3d2"/><stop offset=".8083" stop-color="#43e4c9"/><stop offset=".9096" stop-color="#23e5be"/><stop offset="1" stop-color="#00e7b2"/></radialGradient><linearGradient id="b" gradientUnits="userSpaceOnUse" x1="490.865654056" x2="210.7856717484" y1="323.2474236012" y2="255.4864031126"><stop offset=".0029" stop-color="#00e7b2" stop-opacity="0"/><stop offset=".4308" stop-color="#1bc4b7" stop-opacity=".427451"/><stop offset="1" stop-color="#3b9abe"/></linearGradient><linearGradient id="c"><stop offset="0" stop-color="#ecf7ff"/><stop offset=".2926" stop-color="#e6f4ff"/><stop offset=".6915" stop-color="#d4eaff"/><stop offset="1" stop-color="#c2e0ff"/></linearGradient><linearGradient id="d" gradientUnits="userSpaceOnUse" x1="190.866152601" x2="345.1944636198" xlink:href="#c" y1="256.00011" y2="256.00011"/><linearGradient id="e" gradientUnits="userSpaceOnUse" x1="331.29426" x2="219.840847404" xlink:href="#c" y1="255.497647039" y2="255.497647039"/><linearGradient id="f"><stop offset="0" stop-color="#3b395f"/><stop offset=".0633" stop-color="#37355a"/><stop offset=".4033" stop-color="#232543"/><stop offset=".7232" stop-color="#171b35"/><stop offset="1" stop-color="#131830"/></linearGradient><linearGradient id="g" gradientUnits="userSpaceOnUse" x1="281.09816" x2="217.7237766904" xlink:href="#f" y1="255.497647039" y2="255.497647039"/><linearGradient id="h" gradientUnits="userSpaceOnUse" x1="299.168756" x2="338.657023948" xlink:href="#f" y1="118.462796" y2="118.462796"/><linearGradient id="i" gradientUnits="userSpaceOnUse" x1="299.168756" x2="338.657023948" xlink:href="#f" y1="163.974093987" y2="163.974093987"/><linearGradient id="j" gradientUnits="userSpaceOnUse" x1="299.168756" x2="338.657023948" xlink:href="#f" y1="209.484890013" y2="209.484890013"/><linearGradient id="k" gradientUnits="userSpaceOnUse" x1="299.168756" x2="338.657023948" xlink:href="#f" y1="254.996188" y2="254.996188"/><linearGradient id="l" gradientUnits="userSpaceOnUse" x1="299.168756" x2="338.657023948" xlink:href="#f" y1="300.507485987" y2="300.507485987"/><linearGradient id="m" gradientUnits="userSpaceOnUse" x1="299.168756" x2="338.657023948" xlink:href="#f" y1="346.018282013" y2="346.018282013"/><radialGradient id="n" cx="127.4977928234" cy="328.2206524048" gradientUnits="userSpaceOnUse" r="213.176813168"><stop offset="0" stop-color="#ff6e3a"/><stop offset=".2336" stop-color="#ff6b3c"/><stop offset=".418" stop-color="#ff6143"/><stop offset=".5857" stop-color="#ff504e"/><stop offset=".7434" stop-color="#ff395e"/><stop offset=".8928" stop-color="#ff1b72"/><stop offset="1" stop-color="#ff0084"/></radialGradient><linearGradient id="o" gradientUnits="userSpaceOnUse" x1="256.00011" x2="256.00011" y1="354.918552504" y2="504.0128157836"><stop offset=".0029" stop-color="#ff6e3a" stop-opacity="0"/><stop offset=".1077" stop-color="#dc7e4a" stop-opacity=".105882"/><stop offset=".3583" stop-color="#8fa36f" stop-opacity=".356863"/><stop offset=".5817" stop-color="#52c08c" stop-opacity=".580392"/><stop offset=".7697" stop-color="#25d5a0" stop-opacity=".768627"/><stop offset=".915" stop-color="#0ae2ad" stop-opacity=".913725"/><stop offset="1" stop-color="#00e7b2"/></linearGradient><linearGradient id="p"><stop offset="0" stop-color="#fff" stop-opacity="0"/><stop offset="1" stop-color="#fff"/></linearGradient><linearGradient id="q" gradientUnits="userSpaceOnUse" x1="257.4543914092" x2="196.2151494092" xlink:href="#p" y1="336.9906138202" y2="307.3749148202"/><linearGradient id="r" gradientUnits="userSpaceOnUse" x1="264.1751472382" x2="147.2172303162" xlink:href="#p" y1="410.1569511412" y2="477.4203274944"/><path d="m512 256c0 141.386719-114.613281 256-256 256s-256-114.613281-256-256 114.613281-256 256-256 256 114.613281 256 256zm0 0" fill="url(#a)"/><path d="m256 19.589844c-51.144531 0-92.605469 41.460937-92.605469 92.605468v287.609376c0 27.179687 11.707031 51.625 30.355469 68.566406l42.90625 42.90625c6.386719.476562 12.835938.722656 19.34375.722656 141.382812 0 256-114.617188 256-256 0-6.507812-.246094-12.957031-.722656-19.34375l-186.710938-186.707031c-16.941406-18.652344-41.386718-30.359375-68.566406-30.359375zm0 0" fill="url(#b)"/><path d="m256 492.410156c-51.144531 0-92.605469-41.460937-92.605469-92.605468v-287.609376c0-51.144531 41.460938-92.609374 92.605469-92.609374s92.605469 41.464843 92.605469 92.609374v287.609376c0 51.144531-41.460938 92.605468-92.605469 92.605468zm0 0" fill="url(#d)"/><path d="m256.054688 477.867188c-16.710938 0-32.542969-6.605469-44.578126-18.597657-12.074218-12.023437-18.722656-27.882812-18.722656-44.648437 0-17.757813 7.539063-34.804688 20.683594-46.769532 2.804688-2.554687 4.414062-6.253906 4.414062-10.144531v-286.429687c0-21.035156 17.113282-38.148438 38.148438-38.148438.351562 0 .707031.003906 1.0625.015625 20.453125.558594 37.085938 17.929688 37.085938 38.71875v285.835938c0 3.914062 1.554687 7.5625 4.265624 10.015625 13.238282 11.976562 20.832032 29.070312 20.832032 46.90625 0 16.53125-6.335938 32.167968-17.84375 44.03125-11.480469 11.835937-26.871094 18.648437-43.324219 19.179687-.675781.023438-1.351563.035157-2.023437.035157zm0 0" fill="url(#e)"/><path d="m284.109375 357.699219v-285.835938c0-15.316406-12.007813-28.265625-27.320313-28.683593-15.882812-.4375-28.898437 12.3125-28.898437 28.097656v286.429687c0 6.671875-2.761719 13.074219-7.695313 17.570313-10.691406 9.726562-17.402343 23.75-17.402343 39.34375 0 29.730468 25.242187 54.140625 54.957031 53.179687 28.578125-.925781 51.457031-24.378906 51.457031-53.179687 0-15.65625-6.761719-29.726563-17.527343-39.460938-4.90625-4.4375-7.570313-10.84375-7.570313-17.460937zm0 0" fill="url(#g)"/><path d="m334.640625 122.476562h-31.457031c-2.21875 0-4.015625-1.796874-4.015625-4.015624 0-2.214844 1.796875-4.015626 4.015625-4.015626h31.457031c2.21875 0 4.015625 1.800782 4.015625 4.015626 0 2.21875-1.796875 4.015624-4.015625 4.015624zm0 0" fill="url(#h)"/><path d="m334.640625 167.988281h-31.457031c-2.21875 0-4.015625-1.796875-4.015625-4.015625s1.796875-4.015625 4.015625-4.015625h31.457031c2.21875 0 4.015625 1.796875 4.015625 4.015625s-1.796875 4.015625-4.015625 4.015625zm0 0" fill="url(#i)"/><path d="m334.640625 213.5h-31.457031c-2.21875 0-4.015625-1.796875-4.015625-4.015625 0-2.214844 1.796875-4.015625 4.015625-4.015625h31.457031c2.21875 0 4.015625 1.800781 4.015625 4.015625 0 2.21875-1.796875 4.015625-4.015625 4.015625zm0 0" fill="url(#j)"/><path d="m334.640625 259.011719h-31.457031c-2.21875 0-4.015625-1.796875-4.015625-4.015625s1.796875-4.015625 4.015625-4.015625h31.457031c2.21875 0 4.015625 1.796875 4.015625 4.015625s-1.796875 4.015625-4.015625 4.015625zm0 0" fill="url(#k)"/><path d="m334.640625 304.523438h-31.457031c-2.21875 0-4.015625-1.800782-4.015625-4.015626 0-2.21875 1.796875-4.015624 4.015625-4.015624h31.457031c2.21875 0 4.015625 1.796874 4.015625 4.015624s-1.796875 4.015626-4.015625 4.015626zm0 0" fill="url(#l)"/><path d="m334.640625 350.035156h-31.457031c-2.21875 0-4.015625-1.800781-4.015625-4.015625 0-2.21875 1.796875-4.015625 4.015625-4.015625h31.457031c2.21875 0 4.015625 1.796875 4.015625 4.015625 0 2.214844-1.796875 4.015625-4.015625 4.015625zm0 0" fill="url(#m)"/><path d="m284.109375 357.699219v-45.144531c0-15.316407-12.007813-28.265626-27.320313-28.683594-15.882812-.4375-28.898437 12.3125-28.898437 28.097656v45.738281c0 6.671875-2.761719 13.074219-7.695313 17.570313-10.691406 9.726562-17.402343 23.75-17.402343 39.34375 0 29.730468 25.242187 54.140625 54.957031 53.179687 28.578125-.925781 51.457031-24.378906 51.457031-53.179687 0-15.65625-6.761719-29.726563-17.527343-39.460938-4.90625-4.4375-7.570313-10.84375-7.570313-17.460937zm0 0" fill="url(#n)"/><path d="m284.109375 357.699219v-45.144531c0-15.316407-12.007813-28.265626-27.320313-28.683594-15.882812-.4375-28.898437 12.3125-28.898437 28.097656v45.738281c0 6.671875-2.761719 13.074219-7.695313 17.570313-10.691406 9.726562-17.402343 23.75-17.402343 39.34375 0 29.730468 25.242187 54.140625 54.957031 53.179687 28.578125-.925781 51.457031-24.378906 51.457031-53.179687 0-15.65625-6.761719-29.726563-17.527343-39.460938-4.90625-4.4375-7.570313-10.84375-7.570313-17.460937zm0 0" fill="url(#o)"/><path d="m278.085938 373.457031h-44.171876v-60.484375c0-12.195312 9.886719-22.085937 22.085938-22.085937s22.085938 9.890625 22.085938 22.085937zm0 0" fill="url(#q)"/><path d="m303.980469 414.859375c0 26.496094-21.480469 47.980469-47.980469 47.980469s-47.980469-21.484375-47.980469-47.980469c0-26.5 21.480469-47.980469 47.980469-47.980469s47.980469 21.480469 47.980469 47.980469zm0 0" fill="url(#r)"/></svg>