<svg height="512pt" viewBox="0 0 512 512" width="512pt" xmlns="http://www.w3.org/2000/svg" xmlns:xlink="http://www.w3.org/1999/xlink"><radialGradient id="a" cx="184.7214472156" cy="137.5371132156" gradientUnits="userSpaceOnUse" r="380.4785070162"><stop offset="0" stop-color="#8be1e2"/><stop offset=".2752" stop-color="#88e1e1"/><stop offset=".4407" stop-color="#80e1de"/><stop offset=".5772" stop-color="#72e2d9"/><stop offset=".698" stop-color="#5ee3d2"/><stop offset=".8083" stop-color="#43e4c9"/><stop offset=".9096" stop-color="#23e5be"/><stop offset="1" stop-color="#00e7b2"/></radialGradient><linearGradient id="b"><stop offset=".0029" stop-color="#00e7b2" stop-opacity="0"/><stop offset=".4308" stop-color="#1bc4b7" stop-opacity=".427451"/><stop offset="1" stop-color="#3b9abe"/></linearGradient><linearGradient id="c" gradientUnits="userSpaceOnUse" x1="559.1897743944" x2="89.4106988108" xlink:href="#b" y1="477.8620531744" y2="8.0829775908"/><linearGradient id="d" gradientUnits="userSpaceOnUse" x1="257.4886251494" x2="116.9250886726" xlink:href="#b" y1="498.1301340402" y2="357.5666979556"/><radialGradient id="e" cx="212.9778358276" cy="360.9823417762" gradientUnits="userSpaceOnUse" r="204.4463058872"><stop offset="0" stop-color="#3b395f"/><stop offset=".3952" stop-color="#39375d"/><stop offset=".6279" stop-color="#323154"/><stop offset=".8179" stop-color="#262846"/><stop offset=".9849" stop-color="#151a32"/><stop offset="1" stop-color="#131830"/></radialGradient><linearGradient id="f"><stop offset="0" stop-color="#131830" stop-opacity="0"/><stop offset=".8421" stop-color="#131830"/></linearGradient><linearGradient id="g" gradientUnits="userSpaceOnUse" x1="266.9421570546" x2="91.7577680546" xlink:href="#f" y1="497.6874044382" y2="369.687249046"/><linearGradient id="h" gradientUnits="userSpaceOnUse" x1="519.094434813" x2="374.5152103362" xlink:href="#b" y1="375.6387998386" y2="287.2846285406"/><linearGradient id="i" gradientUnits="userSpaceOnUse" x1="341.8869421986" x2="291.6909425908" xlink:href="#f" y1="479.8429920648" y2="363.0534328622"/><linearGradient id="j"><stop offset="0" stop-color="#ecf7ff"/><stop offset=".2926" stop-color="#e6f4ff"/><stop offset=".6915" stop-color="#d4eaff"/><stop offset="1" stop-color="#c2e0ff"/></linearGradient><linearGradient id="k" gradientTransform="matrix(.990369 -.164141 .164141 .990369 -367.674729 348.081795)" gradientUnits="userSpaceOnUse" x1="647.0338" x2="617.4741" xlink:href="#j" y1="-143.4001" y2="41.7365"/><linearGradient id="l" gradientUnits="userSpaceOnUse" x1="267.5425024106" x2="250.8105360054" xlink:href="#j" y1="232.753794129" y2="279.603320142"/><linearGradient id="m" gradientTransform="matrix(.990369 -.164141 .164141 .990369 -367.674729 348.081795)" gradientUnits="userSpaceOnUse" x1="693.108" x2="611.8885" xlink:href="#j" y1="3.8442" y2="138.3"/><linearGradient id="n" gradientTransform="matrix(.990369 -.164141 .164141 .990369 -367.674729 348.081795)" gradientUnits="userSpaceOnUse" x1="692.3776" x2="600.5376" xlink:href="#j" y1="67.8453" y2="170.6512"/><linearGradient id="o"><stop offset=".0029" stop-color="#c2e0ff" stop-opacity="0"/><stop offset=".0763" stop-color="#bfdcfd" stop-opacity=".07451"/><stop offset="1" stop-color="#9eb2e7"/></linearGradient><linearGradient id="p" gradientTransform="matrix(1.313431 -.246162 .164543 1.165151 -291.606488 1234.81088)" gradientUnits="userSpaceOnUse" x1="509.5987" x2="517.9345" xlink:href="#o" y1="-903.2477" y2="-780.2943"/><linearGradient id="q" gradientUnits="userSpaceOnUse" x1="240.4391182156" x2="212.3294026078" xlink:href="#o" y1="153.1276203068" y2="232.7719651172"/><linearGradient id="r" gradientUnits="userSpaceOnUse" x1="198.561716692" x2="348.146596653" xlink:href="#o" y1="107.5331975782" y2="221.9806067548"/><linearGradient id="s" gradientTransform="matrix(.990369 -.164141 .164141 .990369 -367.674729 348.081795)" gradientUnits="userSpaceOnUse" x1="762.2692" x2="725.1746" xlink:href="#o" y1="-12.0915" y2="-79.1342"/><linearGradient id="t" gradientTransform="matrix(.990369 -.164141 .164141 .990369 -367.674729 348.081795)" gradientUnits="userSpaceOnUse" x1="699.6769" x2="666.2588" xlink:href="#o" y1="49.3022" y2="-33.9024"/><linearGradient id="u"><stop offset="0" stop-color="#ffebc9"/><stop offset=".2771" stop-color="#ffe9c5"/><stop offset=".5263" stop-color="#fee2bb"/><stop offset=".7641" stop-color="#fdd7a8"/><stop offset=".9948" stop-color="#fbc78f"/><stop offset="1" stop-color="#fbc78e"/></linearGradient><radialGradient id="v" cx="241.6624975648" cy="233.8930448146" gradientUnits="userSpaceOnUse" r="114.571594328" xlink:href="#u"/><linearGradient id="w" gradientTransform="matrix(.990369 -.164141 .164141 .990369 -367.674729 348.081795)" gradientUnits="userSpaceOnUse" x1="742.46" x2="732.8727" xlink:href="#o" y1="98.1303" y2="40.6067"/><radialGradient id="x" cx="384.7948696552" cy="265.932914268" gradientUnits="userSpaceOnUse" r="54.189199755" xlink:href="#u"/><radialGradient id="y" cx="237.3345" cy="427.1944" gradientTransform="matrix(-.882347 .478871 .478871 .882347 307.194579 -76.614776)" gradientUnits="userSpaceOnUse" r="53.9777" xlink:href="#u"/><radialGradient id="z" cx="344.7509308802" cy="162.4108870408" gradientUnits="userSpaceOnUse" r="48.746938593" xlink:href="#u"/><linearGradient id="A" gradientTransform="matrix(.990369 -.164141 .164141 .990369 -367.674729 348.081795)" gradientUnits="userSpaceOnUse" x1="685.515" x2="666.026" xlink:href="#o" y1="165.6346" y2="88.7046"/><radialGradient id="B" cx="298.2609093354" cy="351.007774353" gradientUnits="userSpaceOnUse" r="49.312146679" xlink:href="#u"/><linearGradient id="C"><stop offset="0" stop-color="#ffd459"/><stop offset=".2296" stop-color="#ffd355"/><stop offset=".4362" stop-color="#ffcf4a"/><stop offset=".634" stop-color="#ffc838"/><stop offset=".825" stop-color="#ffbf1f"/><stop offset="1" stop-color="#ffb400"/></linearGradient><linearGradient id="D" gradientTransform="matrix(1.003118 .0375467 -.0375467 1.003118 -268.0833 515.918105)" gradientUnits="userSpaceOnUse" x1="669.0507" x2="690.5092" xlink:href="#C" y1="-494.9358" y2="-409.8966"/><linearGradient id="E"><stop offset="0" stop-color="#e58200" stop-opacity="0"/><stop offset=".0396" stop-color="#e27f04" stop-opacity=".039216"/><stop offset=".4671" stop-color="#c15d2f" stop-opacity=".466667"/><stop offset=".8016" stop-color="#ad4949" stop-opacity=".8"/><stop offset="1" stop-color="#a64153"/></linearGradient><linearGradient id="F" gradientUnits="userSpaceOnUse" x1="452.958563258" x2="402.0930480684" xlink:href="#E" y1="76.1408578148" y2="57.4008466252"/><linearGradient id="G"><stop offset="0" stop-color="#ff6e3a"/><stop offset=".2336" stop-color="#ff6b3c"/><stop offset=".418" stop-color="#ff6143"/><stop offset=".5857" stop-color="#ff504e"/><stop offset=".7434" stop-color="#ff395e"/><stop offset=".8928" stop-color="#ff1b72"/><stop offset="1" stop-color="#ff0084"/></linearGradient><radialGradient id="H" cx="457.4306" cy="8.4745" gradientTransform="matrix(.547639 .841387 .841387 -.547639 165.893823 -307.095291)" gradientUnits="userSpaceOnUse" r="33.4878" xlink:href="#G"/><linearGradient id="I" gradientTransform="matrix(-.606369 .800025 .800025 .606369 529.360715 141.427853)" gradientUnits="userSpaceOnUse" x1="421.3895" x2="442.8477" xlink:href="#C" y1="-169.1336" y2="-84.0955"/><linearGradient id="J" gradientTransform="matrix(-.635884 .776835 .776835 .635884 -39.581515 21.487937)" gradientUnits="userSpaceOnUse" x1="192.0741" x2="141.4082" xlink:href="#E" y1="392.4247" y2="373.7582"/><radialGradient id="K" cx="581.0012" cy="-381.7569" gradientTransform="matrix(.304188 .956737 -.956737 .304188 -382.526444 -44.176665)" gradientUnits="userSpaceOnUse" r="33.4871" xlink:href="#G"/><path d="m512 256c0 141.386719-114.613281 256-256 256s-256-114.613281-256-256 114.613281-256 256-256 256 114.613281 256 256zm0 0" fill="url(#a)"/><path d="m512 256c0-96.972656-53.921875-181.34375-133.414062-224.785156-41.25-.980469-95.910157 8.734375-153.28125 29.234375-110.695313 39.550781-189.46875 104.207031-175.949219 144.414062 1.90625 5.660157 5.546875 10.53125 10.691406 14.617188l36.320313 36.316406c.183593.238281.371093.476563.5625.710937-1.058594.960938-2.082032 2.125-2.984376 3.128907-1.339843 1.496093-2.472656 3.34375-3.027343 5.507812-.566407 2.15625-.425781 4.574219.300781 6.714844.722656 2.148437 1.933594 4.039063 3.339844 5.636719l139.222656 139.21875c.097656.113281.203125.214844.300781.320312-.71875.929688-1.390625 1.980469-1.96875 3.210938-.253906.664062-.542969 1.285156-.722656 2.019531-.160156.753906-.359375 1.480469-.375 2.324219-.019531.414062-.042969.828125-.03125 1.246094.039063.429687.085937.859374.144531 1.289062.09375.863281.40625 1.691406.675782 2.519531.667968 1.5625 1.574218 3.027344 2.597656 4.085938.503906.589843 1.023437 1.058593 1.554687 1.519531l71.5625 71.5625c116.691407-23.84375 204.480469-127.074219 204.480469-250.8125zm0 0" fill="url(#c)"/><path d="m318.882812 504.207031-129.695312-129.695312c-13.511719-14.859375-38.917969-23.363281-86.46875 2.558593-1.757812.957032-3.03125 2.460938-3.730469 4.191407v.003906c-.105469.257813-.191406.519531-.269531.78125-.015625.046875-.023438.089844-.035156.136719-.0625.222656-.117188.445312-.160156.675781-.011719.066406-.023438.132813-.03125.203125-.035157.203125-.0625.410156-.082032.621094-.003906.082031-.011718.164062-.015625.25-.011719.191406-.015625.386718-.015625.582031.003906.09375.003906.1875.007813.28125.007812.1875.023437.371094.046875.558594.011718.101562.019531.199219.035156.300781.027344.183594.0625.367188.105469.550781.019531.097657.039062.195313.0625.292969.050781.195312.109375.386719.175781.574219.027344.085937.050781.171875.082031.257812.101563.273438.214844.546875.347657.8125.746093 1.515625 1.628906 3.203125 2.652343 5.011719.613281 1.082031 1.277344 2.210938 1.992188 3.367188.234375.386718.480469.773437.730469 1.164062 3.242187 5.082031 7.453124 10.636719 12.710937 15.648438.042969.035156.082031.074218.121094.109374.066406.0625.132812.121094.199219.183594l94.613281 94.636719c14.214843 2.445313 28.824219 3.734375 43.738281 3.734375 21.699219 0 42.761719-2.710938 62.882812-7.792969zm0 0" fill="url(#d)"/><path d="m93.550781 453.855469c44.195313 36.328125 100.773438 58.144531 162.449219 58.144531s118.253906-21.816406 162.449219-58.144531c-42.359375-12.765625-99.53125-20.59375-162.449219-20.59375s-120.09375 7.828125-162.449219 20.59375zm0 0" fill="url(#e)"/><path d="m262.582031 511.910156c1.355469-.035156 2.710938-.082031 4.058594-.136718.390625-.015626.78125-.027344 1.171875-.042969 1.625-.074219 3.246094-.167969 4.863281-.273438.546875-.03125 1.085938-.074219 1.628907-.113281 1.140624-.078125 2.28125-.167969 3.417968-.261719.621094-.054687 1.242188-.105469 1.859375-.160156 1.507813-.140625 3.007813-.289063 4.503907-.449219.664062-.074218 1.324218-.15625 1.984374-.234375.9375-.109375 1.875-.222656 2.808594-.339843.808594-.105469 1.613282-.210938 2.417969-.324219.796875-.109375 1.589844-.226563 2.382813-.34375 1.472656-.21875 2.941406-.445313 4.40625-.691407.648437-.105468 1.300781-.210937 1.949218-.324218.960938-.167969 1.925782-.34375 2.882813-.519532.542969-.101562 1.082031-.203124 1.625-.308593 3.300781-.632813 6.578125-1.332031 9.832031-2.089844.417969-.097656.832031-.195313 1.246094-.292969 1.058594-.253906 2.109375-.507812 3.160156-.773437.035156-.007813.066406-.019531.101562-.027344l-70.898437-70.894531c-36.765625.390625-71.40625 3.453125-102.058594 8.597656l66.335938 66.355469c8.867187 1.527343 17.890625 2.601562 27.046875 3.195312.25.019531.5.027344.75.042969 1.574218.097656 3.152344.1875 4.738281.253906.699219.03125 1.40625.046875 2.109375.070313 1.152344.042969 2.296875.085937 3.449219.113281 1.878906.039062 3.757812.058594 5.644531.058594 1.714844 0 3.421875-.019532 5.125-.054688.484375-.007812.972656-.019531 1.457031-.03125zm0 0" fill="url(#g)"/><path d="m451.125 239.375c-.507812-.5625-1.0625-.96875-1.601562-1.429688-2.195313-1.625-4.375-2.410156-6.476563-3-4.214844-1.132812-8.21875-1.253906-12.171875-1.152343-3.941406.113281-7.808594.625-11.625 1.382812 0 0 18.789062 18.378907 19.066406 18.449219-2.039062 1.601562-4.3125 3.109375-6.664062 4.539062-3.042969 1.792969-6.191406 3.53125-9.453125 5.101563-3.253907 1.585937-6.5625 3.125-9.945313 4.519531-3.359375 1.453125-6.765625 2.824219-10.21875 4.097656-13.78125 5.199219-27.984375 9.519532-42.4375 13.257813-7.222656 1.910156-14.527344 3.597656-21.90625 5.246094-7.386718 1.65625-14.851562 3.097656-22.453125 4.773437l131.539063 131.539063c10.363281-11.570313 19.679687-24.09375 27.820312-37.414063-.023437-1.378906.414063-2.304687 1.539063-2.554687.984375-1.65625 1.949219-3.328125 2.902343-5.007813.050782-.09375.101563-.183594.15625-.277344.898438-1.601562 1.785157-3.214843 2.652344-4.835937.070313-.128906.140625-.257813.207032-.386719.859374-1.609375 1.699218-3.226562 2.519531-4.855468.0625-.121094.125-.242188.1875-.367188.839843-1.667969 1.664062-3.347656 2.46875-5.035156.035156-.070313.066406-.140625.101562-.210938 5.921875-12.460937 10.867188-25.472656 14.734375-38.941406.039063-.140625.082032-.28125.121094-.421875.5-1.75.980469-3.507813 1.441406-5.273437.058594-.21875.117188-.441407.171875-.660157.441407-1.703125.867188-3.414062 1.273438-5.128906.058593-.25.117187-.496094.175781-.742187.398438-1.714844.785156-3.433594 1.148438-5.160157.050781-.234375.101562-.46875.152343-.703125.371094-1.78125.726563-3.574218 1.0625-5.371094.03125-.164062.0625-.324218.09375-.488281.363281-1.953125.703125-3.914062 1.019531-5.882812zm0 0" fill="url(#h)"/><path d="m234.402344 433.730469 73.097656 73.078125c41.527344-8.484375 79.398438-27.015625 110.953125-52.953125-42.359375-12.765625-99.535156-20.59375-162.453125-20.59375-7.328125 0-14.574219.109375-21.730469.316406.042969.050781.085938.105469.132813.152344zm0 0" fill="url(#i)"/><path d="m450.21875 61.632812c-13.523438-40.207031-114.21875-40.738281-224.914062-1.183593-110.695313 39.550781-189.46875 104.207031-175.949219 144.414062 6.296875 18.71875 31.492187 28.835938 67.792969 30.3125 8.855468 20.226563 35.542968 34.644531 71.738281 40.890625 2.335937 11.097656 9.761719 21.183594 20.9375 29.582032-13.496094 12.757812-22.921875 30.152343-13.132813 51.449218 14.488282 31.511719 118.785156 30.398438 105.640625 87.523438-1.289062 5.605468 4.429688 10.164062 9.363281 7.460937 38.464844-21.09375 134.523438-82.855469 92.5-154.398437 11.683594-10.59375 18.277344-22.992188 17.855469-36.058594-.414062-12.667969-7.371093-24.257812-19.046875-33.847656 22.050782-17.457032 33.890625-37.320313 30.835938-56.3125-2.261719-14.066406-12.417969-25.867188-28.238282-34.78125 33.953126-26.984375 51.601563-54.28125 44.617188-75.050782zm0 0" fill="url(#k)"/><path d="m405.605469 136.683594c-31.773438 25.257812-77.824219 50.246094-131.335938 69.367187-59.160156 21.136719-115.457031 30.820313-157.121093 29.125 15.726562 35.914063 87.667968 53.515625 169.214843 39.585938 88.199219-15.066407 154.230469-61.3125 147.480469-103.296875-2.265625-14.066406-12.421875-25.867188-28.238281-34.78125zm0 0" fill="url(#l)"/><path d="m286.359375 274.761719c-35.617187 6.082031-69.402344 6.152343-97.472656 1.304687 6.851562 32.582032 57.589843 56.472656 118.300781 54.375 64.601562-2.230468 116.023438-33.042968 114.863281-68.816406-.414062-12.667969-7.371093-24.257812-19.046875-33.847656-26.691406 21.132812-68.339844 38.734375-116.644531 46.984375zm0 0" fill="url(#m)"/><path d="m307.1875 330.441406c-40.03125 1.386719-75.726562-8.535156-97.363281-24.792968-13.5 12.757812-22.921875 30.152343-13.132813 51.449218 14.488282 31.511719 118.785156 30.398438 105.640625 87.523438-1.289062 5.605468 4.429688 10.164062 9.363281 7.460937 38.464844-21.089843 134.523438-82.855469 92.5-154.398437-20.308593 18.40625-56 31.339844-97.007812 32.757812zm0 0" fill="url(#n)"/><path d="m401.363281 69.101562c9.285157 27.546876-53.550781 75.082032-140.34375 106.167969-86.800781 31.085938-164.6875 33.953125-173.972656 6.40625s53.550781-75.078125 140.34375-106.167969c86.796875-31.085937 164.6875-33.953124 173.972656-6.40625zm0 0" fill="url(#p)"/><path d="m227.394531 109.640625c-64.042969 22.9375-115.03125 54.828125-133.640625 81.039063 22.445313 17.363281 91.457032 11.742187 167.265625-15.410157 64.039063-22.9375 115.03125-54.828125 133.636719-81.039062-22.445312-17.363281-91.453125-11.742188-167.261719 15.410156zm0 0" fill="url(#q)"/><path d="m227.394531 109.640625c-64.042969 22.9375-115.03125 54.828125-133.640625 81.039063 2.351563 1.820312 5.222656 3.382812 8.546875 4.699218 25.175781-17.980468 60.46875-36.082031 101-50.597656 67.867188-24.308594 130.277344-31.355469 158.714844-20.109375 14.601563-10.429687 25.808594-20.816406 32.640625-30.4375-22.445312-17.367187-91.453125-11.746094-167.261719 15.40625zm0 0" fill="url(#r)"/><path d="m433.839844 171.464844c-2.261719-14.066406-12.417969-25.867188-28.238282-34.78125 2.203126-1.746094 4.332032-3.5 6.390626-5.25l-9.914063-7.3125c-4.753906 3.722656-9.398437 7.175781-14.097656 10.550781-4.644531 3.40625-9.347657 6.664063-14.023438 9.890625-9.367187 6.445312-18.816406 12.597656-28.335937 18.707031-2.40625 1.484375-4.796875 3-7.171875 4.542969-1.167969.804688-2.410157 1.488281-3.613281 2.234375l-3.625 2.234375c-4.765626 3.109375-9.703126 5.929688-14.523438 9.054688-2.390625 1.609374-4.878906 3.023437-7.320312 4.566406-2.449219 1.523437-4.878907 3.109375-7.308594 4.734375-4.90625 3.144531-9.851563 6.285156-14.636719 10.066406l122.925781 90.679687c7.800782-9.082031 12.042969-19.203124 11.699219-29.757812-.410156-12.667969-7.367187-24.253906-19.042969-33.847656 22.050782-17.457032 33.890625-37.320313 30.835938-56.3125zm0 0" fill="url(#s)"/><path d="m404.195312 297.683594c11.683594-10.59375 18.277344-22.992188 17.855469-36.058594-.414062-12.667969-7.371093-24.257812-19.046875-33.847656 10.738282-8.5 19.042969-17.570313 24.398438-26.835938l-34.648438-25.558594c-23.335937 18.71875-48.742187 33.359376-74.964844 46.335938-16.5625 8.128906-33.28125 15.921875-50.167968 23.144531l-74.917969 41.605469c.066406.128906.140625.257812.210937.390625l173.597657 128.058594c34.921875-29.675781 64.574219-71.453125 37.683593-117.234375zm0 0" fill="url(#t)"/><path d="m95.746094 261.070312c-.898438 1.492188-1.5 3.109376-1.609375 4.683594-.097657 1.578125.230469 3.078125.953125 4.417969 1.460937 2.691406 4.175781 4.738281 7.152344 6.238281 2.992187 1.507813 6.289062 2.574219 9.671874 3.316406 6.773438 1.519532 13.863282 1.941407 20.9375 1.878907 7.089844-.09375 14.203126-.695313 21.289063-1.664063 14.175781-1.9375 28.238281-5.175781 42.136719-9.117187 6.941406-1.996094 13.867187-4.105469 20.730468-6.445313 6.878907-2.300781 13.722657-4.730468 20.515626-7.335937 27.195312-10.316407 53.929687-22.398438 80.257812-35.324219 26.230469-12.976562 51.632812-27.617188 74.976562-46.335938-4.695312 5.890626-9.816406 11.460938-15.238281 16.707032-5.410156 5.265625-11.109375 10.222656-16.984375 14.949218-11.769531 9.445313-24.3125 17.828126-37.1875 25.523438-25.765625 15.207031-52.585937 28.527344-80.609375 39.144531-7.015625 2.609375-14.085937 5.09375-21.230469 7.363281-7.164062 2.210938-14.371093 4.3125-21.675781 6.078126-7.300781 1.757812-14.664062 3.332031-22.105469 4.496093-7.4375 1.214844-14.945312 2.066407-22.503906 2.492188-3.777344.234375-7.574218.292969-11.371094.257812-3.796874-.035156-7.605468-.195312-11.410156-.570312-7.601562-.714844-15.226562-2.074219-22.597656-4.757813-3.667969-1.378906-7.292969-3.0625-10.628906-5.425781-1.660156-1.183594-3.246094-2.542969-4.65625-4.144531-1.402344-1.59375-2.613282-3.484375-3.339844-5.636719-.726562-2.136719-.867188-4.554687-.300781-6.710937.554687-2.164063 1.6875-4.011719 3.027343-5.511719 1.351563-1.496094 2.964844-3.371094 4.585938-4.363281 1.621094-1.007813-.980469 2.757812-2.785156 5.796874zm0 0" fill="url(#v)"/><path d="m422.058594 263.328125c-.09375 6.699219-2.027344 13.199219-5.53125 19.363281-3.007813 5.292969-7.175782 10.324219-12.332032 14.992188 13.726563 23.367187 12.71875 45.691406 3.792969 65.898437l-92.75-68.421875c7.605469-1.679687 15.074219-3.113281 22.453125-4.777344 7.375-1.648437 14.683594-3.328124 21.910156-5.238281 14.449219-3.746093 28.65625-8.0625 42.429688-13.265625 3.460938-1.265625 6.867188-2.640625 10.226562-4.089844 3.332032-1.382812 6.589844-2.886718 9.800782-4.460937zm0 0" fill="url(#w)"/><path d="m315.238281 295.160156c7.605469-1.675781 15.070313-3.117187 22.453125-4.773437 7.378906-1.648438 14.683594-3.335938 21.910156-5.246094 14.449219-3.738281 28.65625-8.058594 42.433594-13.257813 3.453125-1.273437 6.859375-2.644531 10.21875-4.097656 3.382813-1.394531 6.691406-2.933594 9.945313-4.519531 3.265625-1.570313 6.410156-3.308594 9.453125-5.101563 3.011718-1.828124 5.90625-3.785156 8.320312-5.902343 1.171875-1.066407 2.265625-2.144531 3.039063-3.167969.792969-1.03125 1.140625-1.898438 1.332031-2.351562.019531-.21875.160156-.4375.050781-.742188-.027343-.316406-.289062-.71875-.59375-1.191406-.695312-.941406-1.996093-1.886719-3.429687-2.699219-.691406-.449219-1.503906-.789063-2.273438-1.191406-.820312-.335938-1.621094-.710938-2.476562-1.027344-1.691406-.664063-3.457032-1.238281-5.257813-1.78125-3.601562-1.0625-7.328125-2-11.109375-2.9375 3.816406-.753906 7.683594-1.265625 11.625-1.382813 3.953125-.097656 7.953125.023438 12.171875 1.15625 2.101563.585938 4.28125 1.375 6.476563 3 .539062.460938 1.09375.867188 1.597656 1.429688.503906.585938 1.023438 1.125 1.4375 1.863281.214844.355469.433594.703125.625 1.082031.167969.390626.332031.792969.484375 1.199219.332031.804688.449219 1.679688.609375 2.539063.160156 1.6875.058594 3.40625-.332031 4.828125-.164063.761719-.398438 1.417969-.644531 2.074219-.230469.691406-.523438 1.257812-.804688 1.863281-1.164062 2.347656-2.542969 4.28125-4.007812 6.027343-1.460938 1.753907-3.003907 3.265626-4.570313 4.75-1.585937 1.421876-3.210937 2.777344-4.863281 4.023438-3.285156 2.542969-6.734375 4.714844-10.207032 6.773438-3.480468 2.035156-7.058593 3.828124-10.648437 5.542968-3.617187 1.652344-7.269531 3.1875-10.957031 4.601563-14.773438 5.554687-30.128906 9.054687-45.625 10.65625-15.484375 1.527343-31.179688 1.28125-46.382813-2.039063zm0 0" fill="url(#x)"/><path d="m377.429688 406.480469c-7.484376 2.15625-14.730469 4.449219-22.011719 6.515625-7.273438 2.070312-14.496094 4.070312-21.757813 5.839844-14.484375 3.605468-29.03125 6.585937-43.621094 8.589843-3.640624.527344-7.289062.945313-10.9375 1.273438-3.636718.386719-7.277343.609375-10.894531.769531-3.617187.175781-7.214843.148438-10.742187.023438-3.515625-.171876-6.996094-.507813-10.125-1.214844-1.539063-.378906-3.015625-.804688-4.183594-1.339844-1.1875-.527344-1.910156-1.125-2.292969-1.429688-.117187-.183593-.347656-.308593-.394531-.632812-.128906-.289062-.089844-.765625-.046875-1.328125.160156-1.15625.855469-2.609375 1.722656-4.007813.394531-.722656.945313-1.410156 1.429688-2.128906.5625-.6875 1.089843-1.398437 1.691406-2.085937 1.171875-1.390625 2.445313-2.738281 3.769531-4.070313 2.660156-2.65625 5.488282-5.253906 8.363282-7.882812-3.710938 1.15625-7.355469 2.550781-10.878907 4.332031-3.519531 1.796875-6.980469 3.8125-10.144531 6.820313-1.566406 1.519531-3.105469 3.25-4.261719 5.726562-.253906.660156-.546875 1.28125-.722656 2.015625-.164063.753906-.363281 1.480469-.375 2.328125-.019531.410156-.046875.824219-.03125 1.246094.035156.425781.085937.855468.144531 1.285156.09375.863281.40625 1.691406.675782 2.519531.664062 1.5625 1.570312 3.027344 2.59375 4.085938.507812.59375 1.027343 1.0625 1.558593 1.519531.53125.496094 1.058594.855469 1.597657 1.253906 2.140624 1.507813 4.273437 2.546875 6.394531 3.382813 2.121093.847656 4.199219 1.4375 6.28125 1.996093 2.074219.492188 4.148437.910157 6.191406 1.214844 4.105469.667969 8.171875.9375 12.203125 1.085938 4.03125.128906 8.03125-.003906 12.003906-.207032 3.96875-.273437 7.910156-.664062 11.824219-1.183593 15.636719-2.164063 30.800781-6.414063 45.183594-12.394531 14.339843-6.042969 28.011719-13.75 39.792969-23.917969zm0 0" fill="url(#y)"/><path d="m402.078125 124.121094c-1.019531 2.917968-2.449219 5.640625-3.945313 8.304687-1.527343 2.636719-3.164062 5.226563-4.945312 7.679688-3.503906 4.984375-7.5 9.53125-11.664062 13.90625-8.414063 8.664062-17.917969 16.078125-27.933594 22.535156-2.53125 1.566406-5.082032 3.109375-7.640625 4.617187-2.570313 1.5-5.238281 2.796876-7.878907 4.152344-5.25 2.761719-10.753906 4.964844-16.25 7.117188-2.734374 1.109375-5.566406 1.96875-8.386718 2.839844-2.820313.867187-5.660156 1.671874-8.5 2.441406-2.863282.703125-5.78125 1.25-8.695313 1.769531-2.914062.507813-5.839843.953125-8.816406 1.214844 4.785156-3.78125 9.730469-6.921875 14.636719-10.0625 2.429687-1.625 4.859375-3.210938 7.3125-4.734375 2.4375-1.546875 4.929687-2.957032 7.316406-4.570313 4.820312-3.121093 9.761719-5.941406 14.527344-9.050781l3.621094-2.234375c1.207031-.746094 2.449218-1.429687 3.617187-2.238281 2.375-1.542969 4.765625-3.054688 7.171875-4.542969 9.515625-6.105469 18.96875-12.261719 28.335938-18.703125 4.675781-3.226562 9.375-6.484375 14.023437-9.890625 4.695313-3.375 9.34375-6.828125 14.09375-10.550781zm0 0" fill="url(#z)"/><path d="m406.347656 367.101562c-16.65625-12.316406-39.785156-30.183593-39.785156-30.183593-12.125 2.308593-23.675781 4.875-35.207031 7.039062-11.507813 2.148438-22.878907 4.097657-34.207031 5.089844-11.324219 1.070313-22.5625 1.222656-33.730469-.070313-5.574219-.683593-11.132813-1.746093-16.703125-3.292968-5.546875-1.609375-11.019532-3.773438-16.753906-6.269532 3.648437 5.15625 8.363281 9.550782 13.621093 13.234376.007813.003906.015625.007812.023438.015624l104.152343 76.832032c22.398438-16.007813 46.335938-37.5 58.589844-62.394532zm0 0" fill="url(#A)"/><path d="m366.558594 336.917969c-2.324219 2.128906-4.828125 3.992187-7.378906 5.765625-2.554688 1.765625-5.183594 3.417968-7.863282 4.960937-5.363281 3.097657-10.949218 5.761719-16.683594 8.085938-5.742187 2.308593-11.652343 4.214843-17.6875 5.71875-6.027343 1.523437-12.199218 2.578125-18.449218 3.152343-6.246094.574219-12.578125.703126-18.90625.105469-.789063-.074219-1.578125-.109375-2.367188-.214843l-2.367187-.332032c-1.578125-.230468-3.148438-.417968-4.714844-.78125-1.566406-.332031-3.125-.660156-4.675781-1.03125l-4.609375-1.359375c-6.082031-2.046875-11.964844-4.753906-17.273438-8.339843-5.261719-3.683594-9.972656-8.078126-13.621093-13.234376 5.734374 2.496094 11.203124 4.660157 16.753906 6.269532 5.570312 1.546875 11.128906 2.609375 16.703125 3.292968 11.164062 1.292969 22.402343 1.140626 33.730469.070313 11.324218-.992187 22.699218-2.941406 34.203124-5.089844 11.535157-2.164062 23.082032-4.734375 35.207032-7.039062zm0 0" fill="url(#B)"/><path d="m406.363281 117.019531s-60.972656-58.980469 38.792969-99.492187c4.164062-1.691406 8.910156.234375 10.769531 4.328125 8.941407 19.664062 26.140625 74.777343-49.5625 95.164062zm0 0" fill="url(#D)"/><path d="m455.925781 21.855469c-1.03125-2.269531-2.949219-3.867188-5.164062-4.558594-26.71875 44.480469-44.398438 99.722656-44.398438 99.722656 75.703125-20.386719 58.503907-75.5 49.5625-95.164062zm0 0" fill="url(#F)"/><path d="m443.992188 50.761719c-.746094.449219-1.523438.84375-2.285157 1.246093-.761719.402344-1.519531.804688-2.296875 1.160157-.769531.378906-1.597656.644531-2.40625.917969-.8125.273437-1.546875.664062-2.234375 1.167968-.671875.511719-1.324219 1.058594-1.957031 1.699219.410156-1.101563.820312-2.203125 1.230469-3.304687l2.066406-5.363282c.683594-1.792968 1.46875-3.527344 2.175781-5.3125 1.476563-3.535156 3.078125-6.988281 4.925782-10.347656l-.722657-.519531-1.789062 2.3125-.898438 1.167969c-.289062.394531-.550781.800781-.824219 1.203124-1.058593 1.625-2.199218 3.230469-3.171874 4.902344-2.046876 3.3125-3.917969 6.710938-5.8125 10.101563-.347657.664062-.691407 1.328125-1.042969 1.988281-.121094-.609375-.289063-1.207031-.554688-1.785156-.351562-.777344-.730469-1.5625-.980469-2.378906-.273437-.8125-.5-1.640626-.730468-2.46875-.234375-.832032-.476563-1.667969-.660156-2.519532-.449219-1.691406-.738282-3.421875-1.085938-5.195312l-.492188-.023438c-.4375 1.761719-.738281 3.574219-.890624 5.402344-.082032.914062-.105469 1.832031-.132813 2.757812.015625.917969.035156 1.84375.101563 2.765626.058593.925781.0625 1.867187.113281 2.808593.066406.9375.292969 1.847657.703125 2.695313.082031.164062.167968.328125.257812.496094.96875 1.777343.972656 3.929687.066406 5.746093l-.015624.035157c-1.574219 3.160156-3.074219 6.347656-4.589844 9.53125-.195313-.855469-.449219-1.644532-.738282-2.417969-.308593-.792969-.726562-1.511719-1.265624-2.175781-.539063-.664063-1.097657-1.332032-1.546876-2.058594-.46875-.71875-.894531-1.460938-1.324218-2.207032-.433594-.746093-.882813-1.496093-1.273438-2.273437-.855468-1.527344-1.570312-3.128906-2.347656-4.761719l-.484375.105469c.019531 1.8125.179687 3.640625.492187 5.449219.148438.910156.355469 1.804687.558594 2.707031.246094.882813.496094 1.777344.792969 2.652344.285156.878906.527344 1.789062.8125 2.691406.300781.890625.742187 1.714844 1.355469 2.433594.273437.3125.558594.617187.863281.910156 1.492187 1.429687 1.820313 3.695313.90625 5.542969-.78125 1.589844-1.570313 3.179687-2.34375 4.773437-.980469 2.023438-1.855469 4.082031-2.648437 6.175781-.183594-.734374-.40625-1.421874-.660157-2.097656-.308593-.789062-.722656-1.511718-1.265625-2.175781-.535156-.664063-1.097656-1.332031-1.546875-2.058594-.464843-.71875-.894531-1.460937-1.324219-2.207031-.433593-.746094-.878906-1.496094-1.269531-2.273438-.859375-1.527343-1.570312-3.128906-2.351562-4.757812l-.480469.101562c.015625 1.816407.175781 3.644532.492188 5.453126.144531.90625.355468 1.800781.558593 2.703124.246094.886719.492188 1.777344.789063 2.65625.289062.878907.527344 1.785157.8125 2.6875.300781.890626.746094 1.714844 1.355468 2.433594.613282.703125 1.300782 1.375 2.105469 1.933594.925781.644531 1.359375 1.777344 1.054688 2.859375-.792969 2.804687-2.1875 7.886719-2.742188 10.636719-.742187 3.835937-1.347656 7.722656-1.453125 11.78125l.839844.300781c2.503906-3.179687 4.574219-6.507813 6.507812-9.882813 1.925782-3.378906 3.679688-6.8125 5.292969-10.300781.03125-.0625.058594-.121093.085938-.183593.523437-1.125 1.738281-1.695313 2.957031-1.464844.894531.167968 1.789062.203125 2.664062.167968.9375-.050781 1.84375-.292968 2.699219-.683593.847657-.410157 1.675781-.859375 2.511719-1.253907.839844-.386718 1.660156-.816406 2.472656-1.246093.796875-.472657 1.589844-.933594 2.351563-1.445313 1.53125-1.015625 2.972656-2.152344 4.304687-3.382812l-.257812-.421875c-1.71875.550781-3.371094 1.132812-5.074219 1.554687-.832031.25-1.683594.4375-2.523437.636719-.839844.195313-1.671876.394531-2.515626.550781-.835937.171875-1.707031.21875-2.558593.285156-.855469.0625-1.664063.253907-2.453125.570313-.847656.359375-1.683594.765625-2.527344 1.289063.726562-1.875 1.390625-3.777344 1.992188-5.703126.46875-1.542968 1.121093-3.613281 1.703124-5.433593.617188-1.933594 2.394532-3.304688 4.425782-3.300781.988281.003906 1.976562-.140626 2.886718-.175782.941407-.046875 1.84375-.292968 2.699219-.683594.847657-.410156 1.675781-.859374 2.511719-1.253906.839844-.386718 1.660156-.816406 2.472656-1.246094.796875-.472656 1.589844-.933593 2.351563-1.445312 1.53125-1.011719 2.972656-2.152344 4.304687-3.382812l-.257812-.421876c-1.71875.550782-3.375 1.132813-5.074219 1.554688-.832031.25-1.683594.4375-2.523437.636719-.839844.195312-1.671876.398437-2.515626.550781-.835937.171875-1.707031.21875-2.558593.285156-.855469.0625-1.664063.253906-2.453125.570313-1.496094.632812-2.953125 1.40625-4.476563 2.75 1.285157-3.605469 2.539063-7.230469 3.878907-10.8125l.046874-.140625c.765626-2.195313 2.652344-3.875 4.957032-4.203125.648437-.09375 1.28125-.246094 1.894531-.429688.898437-.285156 1.714844-.746093 2.441406-1.339843.722657-.609376 1.410157-1.25 2.121094-1.839844.714844-.585938 1.402344-1.207032 2.082031-1.828125.652344-.652344 1.304688-1.296875 1.914063-1.988281 1.230469-1.363282 2.339843-2.824219 3.320312-4.351563l-.355469-.34375c-1.519531.960937-2.976562 1.941406-4.515624 2.777344zm0 0" fill="url(#H)"/><path d="m204.277344 410.074219s-7.019532-84.542969-101.558594-33.003907c-3.945312 2.148438-5.460938 7.042969-3.476562 11.074219 9.554687 19.375 41.304687 67.59375 105.035156 21.929688zm0 0" fill="url(#I)"/><path d="m99.242188 388.144531c-1.101563-2.234375-1.121094-4.734375-.253907-6.882812 51.339844 7.5 105.289063 28.8125 105.289063 28.8125-63.730469 45.664062-95.480469-2.554688-105.035156-21.929688zm0 0" fill="url(#J)"/><path d="m129.171875 397.21875c.820313-.292969 1.617187-.644531 2.410156-.980469.796875-.332031 1.585938-.664062 2.355469-1.039062.777344-.355469 1.507812-.828125 2.234375-1.28125s1.492187-.777344 2.316406-.984375c.824219-.195313 1.65625-.359375 2.554688-.441406-1.113281-.378907-2.222657-.761719-3.335938-1.144532l-5.460937-1.792968c-1.820313-.609376-3.65625-1.101563-5.488282-1.683594-3.671874-1.09375-7.355468-2.042969-11.125-2.742188l.058594-.890625 2.917969.082031 1.472656.042969c.488281.023438.96875.085938 1.453125.125 1.929688.210938 3.894532.347657 5.804688.652344 3.859375.515625 7.671875 1.21875 11.496094 1.902344.734374.152343 1.46875.300781 2.199218.453125-.394531-.480469-.75-.992188-1.027344-1.5625-.378906-.765625-.75-1.554688-1.21875-2.269532-.457031-.722656-.953124-1.421874-1.449218-2.125-.496094-.707031-.988282-1.425781-1.53125-2.109374-1.027344-1.417969-2.183594-2.738282-3.335938-4.128907l.300782-.394531c1.636718.777344 3.230468 1.6875 4.738281 2.734375.761719.511719 1.484375 1.078125 2.21875 1.640625.699219.59375 1.40625 1.195312 2.078125 1.832031.679687.628907 1.402344 1.230469 2.101562 1.863281.679688.648438 1.242188 1.398438 1.636719 2.253907.078125.167969.148437.335937.21875.511719.765625 1.878906 2.429687 3.242187 4.40625 3.691406l.039063.011718c3.441406.78125 6.859374 1.640626 10.28125 2.484376-.539063-.691407-.988282-1.390626-1.402344-2.101563-.417969-.742187-.710938-1.519531-.882813-2.359375-.171875-.835938-.332031-1.691406-.613281-2.5-.257812-.816406-.5625-1.617188-.867188-2.421875-.304687-.808594-.601562-1.628906-.957031-2.421875-.636719-1.632812-1.425781-3.199219-2.191406-4.835938l.386719-.308593c1.390625 1.164062 2.703125 2.445312 3.90625 3.835937.609375.6875 1.167968 1.414063 1.738281 2.144532.527344.75 1.0625 1.507812 1.550781 2.292968.5.777344 1.050782 1.542969 1.566406 2.332032.5.796874.855469 1.660156 1.023438 2.589843.070312.410157.128906.824219.160156 1.246094.160156 2.058594 1.707032 3.746094 3.714844 4.210937 1.730469.402344 3.457031.800782 5.179688 1.210938 2.183593.523438 4.332031 1.152344 6.453124 1.863281-.449218-.605469-.839843-1.214843-1.203124-1.839843-.417969-.738282-.710938-1.519532-.882813-2.355469-.171875-.839844-.332031-1.695313-.609375-2.503907-.261719-.816406-.566406-1.617187-.871094-2.421874-.304687-.808594-.601562-1.628907-.953125-2.421876-.640625-1.632812-1.429687-3.195312-2.195312-4.832031l.386719-.308593c1.390624 1.164062 2.703124 2.445312 3.902343 3.832031.609375.6875 1.167969 1.417969 1.738281 2.144531.53125.753906 1.0625 1.511719 1.554688 2.292969.5.78125 1.046875 1.542969 1.566406 2.332031.5.796875.855469 1.664062 1.023438 2.589844.160156.921875.242187 1.875.164062 2.855468-.085937 1.125.515625 2.179688 1.546875 2.628907 2.671875 1.160156 7.484375 3.300781 9.964844 4.613281 3.441406 1.855469 6.828125 3.851562 10.035156 6.339844l-.296875.839844c-4.046875-.078126-7.933594-.582032-11.773437-1.222657-3.832031-.652343-7.601563-1.46875-11.320313-2.429687-.066406-.015625-.132812-.035156-.199218-.050782-1.199219-.308593-2.410157.273438-3.003907 1.359376-.4375.800781-.976562 1.515624-1.558593 2.167968-.632813.695313-1.394532 1.242188-2.238282 1.65625-.855468.394532-1.726562.753906-2.5625 1.152344-.832031.402344-1.683594.765625-2.53125 1.121094-.867187.316406-1.726562.640625-2.609375.902344-1.753906.546874-3.546875.9375-5.34375 1.191406l-.164062-.46875c1.515625-.984375 3.015625-1.894532 4.417969-2.941406.71875-.488282 1.40625-1.027344 2.089843-1.550782.683594-.523437 1.367188-1.042968 2.019531-1.597656.664063-.539062 1.253907-1.179688 1.84375-1.800781.585938-.621094 1.25-1.125 1.996094-1.535157.8125-.429687 1.660156-.816406 2.597656-1.136718-1.910156-.628906-3.804687-1.320313-5.675781-2.074219-1.488281-.613281-3.507812-1.417969-5.28125-2.121094-1.886719-.75-4.074219-.242187-5.355469 1.328125-.628906.773438-1.363281 1.441406-1.96875 2.125-.632812.695313-1.394531 1.242188-2.238281 1.65625-.855469.398438-1.726562.753906-2.5625 1.152344-.828125.402344-1.683593.765625-2.527343 1.121094-.871094.316406-1.730469.640625-2.609376.902344-1.753906.542968-3.546874.9375-5.34375 1.191406l-.164062-.46875c1.515625-.980469 3.011719-1.894532 4.417969-2.941406.71875-.488282 1.40625-1.027344 2.089843-1.550782.6875-.523437 1.367188-1.042968 2.019532-1.597656.664062-.539062 1.253906-1.179688 1.84375-1.800781.585937-.621094 1.25-1.125 1.992187-1.535157 1.4375-.757812 2.960938-1.394531 4.964844-1.722656-3.605469-1.289062-7.203125-2.613281-10.824219-3.847656l-.136718-.050781c-2.1875-.800781-4.679688-.402344-6.394532 1.171875-.484375.445312-1.003906.835937-1.53125 1.195312-.789062.515625-1.660156.855469-2.582031 1.042969-.929687.167969-1.863281.296875-2.769531.472656-.90625.183594-1.820313.320313-2.730469.457031-.921875.085938-1.832031.183594-2.753906.21875-1.832031.089844-3.667969.019532-5.46875-.1875l-.042969-.492187c1.714844-.5625 3.390625-1.070313 5.015625-1.734375zm0 0" fill="url(#K)"/></svg>