<svg height="512pt" viewBox="0 0 512 512" width="512pt" xmlns="http://www.w3.org/2000/svg" xmlns:xlink="http://www.w3.org/1999/xlink"><radialGradient id="a" cx="184.7214472156" cy="137.5371132156" gradientUnits="userSpaceOnUse" r="380.4785070162"><stop offset="0" stop-color="#8be1e2"/><stop offset=".2752" stop-color="#88e1e1"/><stop offset=".4407" stop-color="#80e1de"/><stop offset=".5772" stop-color="#72e2d9"/><stop offset=".698" stop-color="#5ee3d2"/><stop offset=".8083" stop-color="#43e4c9"/><stop offset=".9096" stop-color="#23e5be"/><stop offset="1" stop-color="#00e7b2"/></radialGradient><linearGradient id="b"><stop offset=".0029" stop-color="#00e7b2" stop-opacity="0"/><stop offset=".4308" stop-color="#1bc4b7" stop-opacity=".427451"/><stop offset="1" stop-color="#3b9abe"/></linearGradient><linearGradient id="c" gradientUnits="userSpaceOnUse" x1="529.125623437" x2="244.6695451314" xlink:href="#b" y1="491.4804558888" y2="207.0244779754"/><linearGradient id="d" gradientUnits="userSpaceOnUse" x1="214.8377017248" x2="215.5070165222" xlink:href="#b" y1="546.8908263646" y2="312.642393162"/><linearGradient id="e" gradientUnits="userSpaceOnUse" x1="528.3553140864" x2="367.5732904906" xlink:href="#b" y1="444.947265698" y2="284.1652421022"/><radialGradient id="f" cx="257.5959444112" cy="218.3549424518" gradientUnits="userSpaceOnUse" r="275.7063961146"><stop offset="0" stop-color="#ffd459"/><stop offset=".2794" stop-color="#ffd55b" stop-opacity=".721569"/><stop offset=".4354" stop-color="#ffd763" stop-opacity=".564706"/><stop offset=".5609" stop-color="#ffda71" stop-opacity=".439216"/><stop offset=".6702" stop-color="#ffdf85" stop-opacity=".329412"/><stop offset=".7691" stop-color="#ffe69e" stop-opacity=".231373"/><stop offset=".8603" stop-color="#ffeebe" stop-opacity=".141176"/><stop offset=".944" stop-color="#fff8e2" stop-opacity=".054902"/><stop offset="1" stop-color="#fff" stop-opacity="0"/></radialGradient><radialGradient id="g" cx="256.000611961" cy="219.1705286846" gradientUnits="userSpaceOnUse" r="185.7252688234"><stop offset="0" stop-color="#ffb400"/><stop offset=".3726" stop-color="#ffb502" stop-opacity=".627451"/><stop offset=".5069" stop-color="#ffb709" stop-opacity=".494118"/><stop offset=".6026" stop-color="#ffba14" stop-opacity=".396078"/><stop offset=".68" stop-color="#ffbf25" stop-opacity=".321569"/><stop offset=".7463" stop-color="#ffc53b" stop-opacity=".254902"/><stop offset=".805" stop-color="#ffcd57" stop-opacity=".196078"/><stop offset=".8581" stop-color="#ffd777" stop-opacity=".141176"/><stop offset=".9069" stop-color="#ffe29d" stop-opacity=".094118"/><stop offset=".9523" stop-color="#ffefc8" stop-opacity=".047059"/><stop offset=".9926" stop-color="#fffcf6" stop-opacity=".007843"/><stop offset="1" stop-color="#fff" stop-opacity="0"/></radialGradient><radialGradient id="h" cx="217.7899351502" cy="161.362390904" gradientUnits="userSpaceOnUse" r="193.6785396918"><stop offset="0" stop-color="#ffd459"/><stop offset=".2296" stop-color="#ffd355"/><stop offset=".4362" stop-color="#ffcf4a"/><stop offset=".634" stop-color="#ffc838"/><stop offset=".825" stop-color="#ffbf1f"/><stop offset="1" stop-color="#ffb400"/></radialGradient><linearGradient id="i" gradientUnits="userSpaceOnUse" x1="270.7666983058" x2="82.028458776" y1="233.9068989382" y2="35.1295398006"><stop offset="0" stop-color="#fff" stop-opacity="0"/><stop offset=".9286" stop-color="#fff" stop-opacity=".929412"/><stop offset="1" stop-color="#fff"/></linearGradient><linearGradient id="j"><stop offset="0" stop-color="#e58200" stop-opacity="0"/><stop offset=".0396" stop-color="#e27f04" stop-opacity=".039216"/><stop offset=".4671" stop-color="#c15d2f" stop-opacity=".466667"/><stop offset=".8016" stop-color="#ad4949" stop-opacity=".8"/><stop offset="1" stop-color="#a64153"/></linearGradient><linearGradient id="k" gradientUnits="userSpaceOnUse" x1="317.2645504422" x2="61.5989472526" xlink:href="#j" y1="474.2465284836" y2="235.3124901304"/><linearGradient id="l" gradientUnits="userSpaceOnUse" x1="434.843292729" x2="324.0774663108" xlink:href="#j" y1="409.3905570864" y2="265.495204276"/><linearGradient id="m" gradientUnits="userSpaceOnUse" x1="469.0011364258" x2="396.2171929946" xlink:href="#b" y1="495.34515402" y2="402.9846311966"/><linearGradient id="n"><stop offset=".0029" stop-color="#c2e0ff" stop-opacity="0"/><stop offset=".0763" stop-color="#bfdcfd" stop-opacity=".07451"/><stop offset="1" stop-color="#9eb2e7"/></linearGradient><linearGradient id="o" gradientUnits="userSpaceOnUse" x1="196.299880426" x2="212.6659172622" xlink:href="#n" y1="396.8822913196" y2="455.029152383"/><linearGradient id="p" gradientUnits="userSpaceOnUse" x1="163.3192356664" x2="153.7819766664" xlink:href="#n" y1="362.5369149932" y2="414.2386972088"/><path d="m512 256c0 141.386719-114.613281 256-256 256s-256-114.613281-256-256 114.613281-256 256-256 256 114.613281 256 256zm0 0" fill="url(#a)"/><path d="m512 256c0 140.339844-112.929688 254.304688-252.867188 255.980469l-181.460937-182.792969c-4.273437-.894531-7.257813-4.890625-7.257813-9.089844 0-2.246094.855469-4.554687 2.832032-6.460937 13.492187-13.0625 17.820312-30.683594 14.605468-46.734375-1.242187-1.265625-2.035156-2.839844-2.378906-4.515625-.097656-.023438-.199218-.054688-.300781-.082031l-34.785156-35.007813c-.101563-.027344-.199219-.050781-.300781-.078125-4.609376-1.15625-6.917969-5.011719-6.917969-8.867188 0-3.855468 2.308593-7.707031 6.917969-8.863281 24.527343-6.132812 38.78125-27.738281 38.78125-49.855469 0-13.019531-4.929688-26.222656-15.621094-36.5625-6.152344-5.941406-1.457032-15.730468 6.195312-15.730468.851563 0 1.746094.121094 2.660156.382812 33.769532 9.644532 65.292969-16.4375 65.292969-48.953125 0-4.667969-.640625-9.46875-2.027343-14.304687-1.855469-6.507813 3.355468-11.695313 8.886718-11.695313 2.246094 0 4.554688.851563 6.464844 2.828125 10.339844 10.691406 23.539062 15.621094 36.5625 15.621094 22.117188 0 43.71875-14.253906 49.855469-38.78125 1.152343-4.605469 5.007812-6.914062 8.863281-6.914062s7.710938 2.308593 8.863281 6.914062c.019531.101562.050781.203125.082031.304688l35.007813 34.785156c.019531.101562.046875.199218.078125.300781 1.675781.339844 3.253906 1.132813 4.519531 2.386719 16.050781 3.203125 33.671875-1.121094 46.730469-14.617188 5.472656-5.660156 14.1875-2.136718 15.539062 4.429688l130 128.921875c9.828126 27.175781 15.179688 56.480469 15.179688 87.050781zm0 0" fill="url(#c)"/><path d="m57.9375 417.191406h-.804688c46.933594 57.835938 118.578126 94.808594 198.867188 94.808594 52.152344 0 100.648438-15.609375 141.109375-42.386719l-89.910156-89.90625c-3.941407-4.910156-9.757813-8.246093-16.367188-8.917969l-38.808593-38.613281c-4.34375-5.429687-11.023438-8.914062-18.515626-8.914062h-176.007812c-13.332031 0-24.140625 10.808593-24.140625 24.140625 0 7.617187 3.527344 14.40625 9.039063 18.828125l36.667968 36.769531c-3.402344 8.324219-11.578125 14.191406-21.128906 14.191406zm0 0" fill="url(#d)"/><path d="m511.082031 277.640625c-.332031-.324219-.664062-.644531-1.011719-.949219-.773437-.878906-1.601562-1.707031-2.480468-2.480468-.773438-.878907-1.601563-1.707032-2.480469-2.480469-5.058594-5.742188-12.464844-9.371094-20.71875-9.371094h-112.609375c-14.136719 0-25.597656 11.460937-25.597656 25.601563 0 14.136718-11.460938 25.597656-25.597656 25.597656h-7.027344c-15.25 0-27.609375 12.359375-27.609375 27.605468 0 8.257813 3.628906 15.660157 9.371093 20.71875l105.347657 105.347657c61.644531-42.296875 103.824219-110.886719 110.414062-189.589844zm0 0" fill="url(#e)"/><path d="m264.863281 12.441406c9.746094 38.949219 58.503907 52.011719 86.417969 23.15625 6.613281-6.832031 17.964844-.28125 15.351562 8.859375-11.03125 38.605469 24.660157 74.296875 63.261719 63.265625 9.144531-2.613281 15.695313 8.742188 8.863281 15.351563-28.855468 27.914062-15.789062 76.667969 23.15625 86.417969 9.222657 2.308593 9.222657 15.417968 0 17.726562-38.945312 9.746094-52.011718 58.5-23.15625 86.417969 6.832032 6.609375.277344 17.964843-8.863281 15.351562-38.601562-11.03125-74.292969 24.660157-63.261719 63.261719 2.613282 9.140625-8.738281 15.695312-15.351562 8.863281-27.914062-28.855469-76.671875-15.792969-86.417969 23.15625-2.308593 9.222657-15.417969 9.222657-17.726562 0-9.746094-38.949219-58.5-52.011719-86.417969-23.15625-6.609375 6.832031-17.964844.277344-15.351562-8.863281 11.035156-38.601562-24.65625-74.292969-63.261719-63.261719-9.140625 2.613281-15.699219-8.742187-8.863281-15.351562 28.855468-27.917969 15.792968-76.671875-23.15625-86.417969-9.222657-2.308594-9.222657-15.417969 0-17.726562 38.949218-9.75 52.011718-58.503907 23.15625-86.417969-6.835938-6.609375-.277344-17.964844 8.863281-15.351563 38.601562 11.03125 74.296875-24.660156 63.261719-63.265625-2.613282-9.140625 8.742187-15.691406 15.351562-8.859375 27.917969 28.855469 76.671875 15.792969 86.417969-23.15625 2.308593-9.222656 15.417969-9.222656 17.726562 0zm0 0" fill="#fff"/><path d="m264.863281 12.441406c9.746094 38.949219 58.503907 52.011719 86.417969 23.15625 6.613281-6.832031 17.964844-.28125 15.351562 8.859375-11.03125 38.605469 24.660157 74.296875 63.261719 63.265625 9.144531-2.613281 15.695313 8.742188 8.863281 15.351563-28.855468 27.914062-15.789062 76.667969 23.15625 86.417969 9.222657 2.308593 9.222657 15.417968 0 17.726562-38.945312 9.746094-52.011718 58.5-23.15625 86.417969 6.832032 6.609375.277344 17.964843-8.863281 15.351562-38.601562-11.03125-74.292969 24.660157-63.261719 63.261719 2.613282 9.140625-8.738281 15.695312-15.351562 8.863281-27.914062-28.855469-76.671875-15.792969-86.417969 23.15625-2.308593 9.222657-15.417969 9.222657-17.726562 0-9.746094-38.949219-58.5-52.011719-86.417969-23.15625-6.609375 6.832031-17.964844.277344-15.351562-8.863281 11.035156-38.601562-24.65625-74.292969-63.261719-63.261719-9.140625 2.613281-15.699219-8.742187-8.863281-15.351562 28.855468-27.917969 15.792968-76.671875-23.15625-86.417969-9.222657-2.308594-9.222657-15.417969 0-17.726562 38.949218-9.75 52.011718-58.503907 23.15625-86.417969-6.835938-6.609375-.277344-17.964844 8.863281-15.351563 38.601562 11.03125 74.296875-24.660156 63.261719-63.265625-2.613282-9.140625 8.742187-15.691406 15.351562-8.859375 27.917969 28.855469 76.671875 15.792969 86.417969-23.15625 2.308593-9.222656 15.417969-9.222656 17.726562 0zm0 0" fill="url(#f)"/><path d="m429.5625 218.355469c0 95.855469-77.707031 173.558593-173.5625 173.558593s-173.558594-77.703124-173.558594-173.558593 77.703125-173.5625 173.558594-173.5625 173.5625 77.707031 173.5625 173.5625zm0 0" fill="url(#g)"/><path d="m399.589844 218.355469c0 79.300781-64.285156 143.589843-143.589844 143.589843-79.300781 0-143.585938-64.289062-143.585938-143.589843s64.285157-143.589844 143.585938-143.589844c79.304688 0 143.589844 64.289063 143.589844 143.589844zm0 0" fill="url(#h)"/><path d="m385.949219 218.355469c0 71.765625-58.179688 129.945312-129.949219 129.945312s-129.949219-58.179687-129.949219-129.945312c0-71.769531 58.179688-129.949219 129.949219-129.949219s129.949219 58.179688 129.949219 129.949219zm0 0" fill="url(#i)"/><path d="m307.199219 379.707031c-3.941407-4.910156-9.757813-8.246093-16.367188-8.917969l-38.808593-38.613281c-4.34375-5.429687-11.023438-8.914062-18.515626-8.914062h-162.523437c1.515625 4.144531 5.890625 7.21875 11.121094 5.726562 38.601562-11.03125 74.292969 24.65625 63.261719 63.261719-2.613282 9.140625 8.742187 15.695312 15.351562 8.863281 27.917969-28.855469 76.671875-15.792969 86.417969 23.15625 2.308593 9.222657 15.417969 9.222657 17.726562 0 5.980469-23.890625 26.632813-38.035156 48.152344-38.75zm0 0" fill="url(#k)"/><path d="m438.757812 313.636719c-14.785156-14.304688-18.5625-34.078125-13.492187-51.277344h-53.484375c-14.136719 0-25.597656 11.460937-25.597656 25.601563 0 14.136718-11.460938 25.597656-25.597656 25.597656h-7.027344c-15.246094 0-27.609375 12.359375-27.609375 27.605468 0 8.257813 3.628906 15.660157 9.371093 20.71875l23.792969 23.792969c11.558594.996094 22.988281 5.949219 32.167969 15.4375 6.613281 6.832031 17.964844.277344 15.351562-8.863281-11.03125-38.605469 24.660157-74.292969 63.261719-63.261719 9.140625 2.613281 15.695313-8.742187 8.863281-15.351562zm0 0" fill="url(#l)"/><path d="m468.910156 398.1875c-3.972656-2.214844-8.542968-3.484375-13.414062-3.484375h-85.378906c-15.246094 0-27.609376 12.363281-27.609376 27.609375 0 7.9375 3.359376 15.089844 8.726563 20.128906l34.367187 34.367188c33.339844-19.613282 61.851563-46.554688 83.308594-78.621094zm0 0" fill="url(#m)"/><path d="m246.234375 418.949219h42.136719c13.335937 0 24.144531-10.808594 24.144531-24.144531 0-13.332032-10.808594-24.140626-24.144531-24.140626h-7.460938c-13.089844 0-23.699218-10.609374-23.699218-23.699218s-10.613282-23.703125-23.703126-23.703125h-148.734374v95.707031h160.601562c.285156-.011719.570312-.019531.859375-.019531zm0 0" fill="url(#o)"/><path d="m288.371094 370.667969h-7.460938c-13.089844 0-23.699218-10.613281-23.699218-23.703125s-10.613282-23.699219-23.703126-23.699219h-176.007812c-13.332031 0-24.140625 10.804687-24.140625 24.140625 0 13.332031 10.808594 24.140625 24.140625 24.140625h237.320312c-2.050781-.570313-4.214843-.878906-6.449218-.878906zm0 0" fill="url(#p)"/></svg>