<svg height="512pt" viewBox="0 0 512.001 512" width="512pt" xmlns="http://www.w3.org/2000/svg" xmlns:xlink="http://www.w3.org/1999/xlink"><radialGradient id="a" cx="205.8041103922" cy="185.72607" gradientUnits="userSpaceOnUse" r="309.7956719388"><stop offset="0" stop-color="#3b395f"/><stop offset=".3952" stop-color="#39375d"/><stop offset=".6279" stop-color="#323154"/><stop offset=".8179" stop-color="#262846"/><stop offset=".9849" stop-color="#151a32"/><stop offset="1" stop-color="#131830"/></radialGradient><linearGradient id="b"><stop offset="0" stop-color="#131830" stop-opacity="0"/><stop offset=".8421" stop-color="#131830"/></linearGradient><linearGradient id="c" gradientUnits="userSpaceOnUse" x1="334.6497688928" x2="86.3204261104" xlink:href="#b" y1="585.9473054994" y2="337.617962717"/><linearGradient id="d" gradientUnits="userSpaceOnUse" x1="514.0309534216" x2="351.3765149036" xlink:href="#b" y1="404.0558140096" y2="241.4014758838"/><radialGradient id="e" cx="144.5643664312" cy="-13.0497832546" gradientUnits="userSpaceOnUse" r="332.0671795478"><stop offset="0" stop-color="#ff6e3a"/><stop offset=".2336" stop-color="#ff6b3c"/><stop offset=".418" stop-color="#ff6143"/><stop offset=".5857" stop-color="#ff504e"/><stop offset=".7434" stop-color="#ff395e"/><stop offset=".8928" stop-color="#ff1b72"/><stop offset="1" stop-color="#ff0084"/></radialGradient><radialGradient id="f" cx="188.737336" cy="82.321602039" gradientUnits="userSpaceOnUse" r="243.110755442"><stop offset="0" stop-color="#ffd459"/><stop offset=".2296" stop-color="#ffd355"/><stop offset=".4362" stop-color="#ffcf4a"/><stop offset=".634" stop-color="#ffc838"/><stop offset=".825" stop-color="#ffbf1f"/><stop offset="1" stop-color="#ffb400"/></radialGradient><radialGradient id="g" cx="202.7921436078" cy="83.3257248234" gradientUnits="userSpaceOnUse" r="223.8451910854"><stop offset="0" stop-color="#8be1e2"/><stop offset=".2752" stop-color="#88e1e1"/><stop offset=".4407" stop-color="#80e1de"/><stop offset=".5772" stop-color="#72e2d9"/><stop offset=".698" stop-color="#5ee3d2"/><stop offset=".8083" stop-color="#43e4c9"/><stop offset=".9096" stop-color="#23e5be"/><stop offset="1" stop-color="#00e7b2"/></radialGradient><radialGradient id="h" cx="79.8256531236" cy="281.649813178" gradientUnits="userSpaceOnUse" r="183.1577383084"><stop offset="0" stop-color="#ecf7ff"/><stop offset=".3473" stop-color="#e9f5ff"/><stop offset=".62" stop-color="#dff0ff"/><stop offset=".8666" stop-color="#cee7ff"/><stop offset="1" stop-color="#c2e0ff"/></radialGradient><linearGradient id="i"><stop offset=".0029" stop-color="#c2e0ff" stop-opacity="0"/><stop offset=".0763" stop-color="#bfdcfd" stop-opacity=".07451"/><stop offset="1" stop-color="#9eb2e7"/></linearGradient><linearGradient id="j" gradientUnits="userSpaceOnUse" x1="196.4415338202" x2="222.8422730074" xlink:href="#i" y1="403.9298217986" y2="324.2800558094"/><linearGradient id="k" gradientUnits="userSpaceOnUse" x1="166.2392431956" x2="200.1829503298" xlink:href="#i" y1="349.4400477968" y2="299.1132371524"/><linearGradient id="l" gradientUnits="userSpaceOnUse" x1="97.0966252506" x2="97.0966252506" xlink:href="#i" y1="357.396732" y2="260.8321854094"/><linearGradient id="m" gradientUnits="userSpaceOnUse" x1="45.234717476" x2="-8.34761143" xlink:href="#i" y1="403.1667406864" y2="352.5271079468"/><linearGradient id="n" gradientUnits="userSpaceOnUse" x1="120.6951169592" x2="120.6951169592" xlink:href="#i" y1="414.6592381736" y2="476.54721457"/><linearGradient id="o"><stop offset="0" stop-color="#ecf7ff"/><stop offset="1" stop-color="#c2e0ff"/></linearGradient><radialGradient id="p" cx="400.5320497506" cy="216.203134076" gradientUnits="userSpaceOnUse" r="131.6107608652" xlink:href="#o"/><linearGradient id="q" gradientUnits="userSpaceOnUse" x1="443.5886580554" x2="378.238154681" xlink:href="#i" y1="358.7497176794" y2="293.3993146972"/><radialGradient id="r" cx="347.7577776624" cy="272.7674124986" gradientUnits="userSpaceOnUse" r="97.1208197708" xlink:href="#o"/><path d="m512 256c0 141.386719-114.613281 256-256 256s-256-114.613281-256-256c0-141.382812 114.613281-256 256-256s256 114.617188 256 256zm0 0" fill="url(#a)"/><path d="m165.507812 319.089844c-6.394531 0-12.324218 1.9375-17.289062 5.214844-1.0625-1.136719-2.164062-2.234376-3.3125-3.289063-1.160156-1.261719-2.371094-2.476563-3.636719-3.632813-10.964843-11.929687-26.691406-19.410156-44.171875-19.410156-33.140625 0-60.003906 26.863282-60.003906 60.003906 0 .203126.003906.402344.007812.605469-4.847656.808594-9.429687 2.40625-13.613281 4.648438 40.574219 87.824219 129.417969 148.769531 232.511719 148.769531 34.128906 0 66.691406-6.695312 96.460938-18.816406l-162.988282-162.992188c-5.765625-6.785156-14.359375-11.101562-23.964844-11.101562zm0 0" fill="url(#c)"/><path d="m511.6875 268.636719-33.070312-33.074219c-9.148438-9.882812-22.230469-16.078125-36.761719-16.078125-23.488281 0-43.191407 16.167969-48.613281 37.980469-2.878907-.859375-5.929688-1.328125-9.089844-1.328125-16.792969 0-30.535156 13.035156-31.679688 29.539062-4.847656 4.722657-8.410156 10.757813-10.09375 17.539063-2.125-.632813-4.375-.976563-6.707031-.976563-12.949219 0-23.445313 10.496094-23.445313 23.441407 0 7.175781 3.226563 13.589843 8.300782 17.890624l104.59375 104.59375c50.316406-44.316406 83.09375-108.070312 86.566406-179.527343zm0 0" fill="url(#d)"/><path d="m263.359375 65.125c-131.542969 0-238.171875 106.628906-238.171875 238.171875 0 31.851563 6.253906 62.242187 17.601562 90.019531h142.867188c-25.25-21.804687-41.222656-54.050781-41.222656-90.019531 0-65.679687 53.25-118.925781 118.925781-118.925781 61.148437 0 111.523437 46.160156 118.171875 105.542968h119.636719c-6.9375-125.320312-110.753907-224.789062-237.808594-224.789062zm0 0" fill="url(#e)"/><path d="m263.359375 106.488281c-108.695313 0-196.808594 88.113281-196.808594 196.808594 0 32.433594 7.851563 63.046875 21.753907 90.019531h97.351562c-25.25-21.804687-41.222656-54.050781-41.222656-90.019531 0-65.679687 53.25-118.925781 118.925781-118.925781 61.148437 0 111.523437 46.160156 118.171875 105.542968h78.183594c-6.875-102.453124-92.160156-183.425781-196.355469-183.425781zm0 0" fill="url(#f)"/><path d="m263.359375 146.390625c-86.648437 0-156.902344 70.257813-156.902344 156.90625 0 33.5 10.5 64.539063 28.390625 90.019531h50.804688c-25.246094-21.804687-41.21875-54.050781-41.21875-90.019531 0-65.679687 53.246094-118.925781 118.925781-118.925781 61.148437 0 111.523437 46.160156 118.171875 105.542968h38.15625c-6.785156-80.382812-74.179688-143.523437-156.328125-143.523437zm0 0" fill="url(#g)"/><path d="m196.941406 357.976562c-.300781 0-.601562.003907-.898437.011719.582031-2.394531.898437-4.894531.898437-7.464843 0-17.359376-14.074218-31.433594-31.433594-31.433594-6.828124 0-13.140624 2.183594-18.296874 5.882812-10.734376-16.265625-29.167969-27-50.113282-27-33.140625 0-60.003906 26.863282-60.003906 60 0 .203125.003906.40625.007812.609375-21.050781 3.503907-37.101562 21.796875-37.101562 43.84375 0 24.546875 19.902344 44.449219 44.449219 44.449219h152.492187c24.546875 0 44.449219-19.902344 44.449219-44.449219 0-24.550781-19.902344-44.449219-44.449219-44.449219zm0 0" fill="url(#h)"/><path d="m241.390625 402.425781c0 24.546875-19.902344 44.449219-44.449219 44.449219-24.550781 0-44.449218-19.902344-44.449218-44.449219 0-24.550781 19.898437-44.449219 44.449218-44.449219 24.546875 0 44.449219 19.898438 44.449219 44.449219zm0 0" fill="url(#j)"/><path d="m196.941406 350.523438c0 17.355468-14.074218 31.429687-31.433594 31.429687-17.355468 0-31.429687-14.074219-31.429687-31.429687 0-17.359376 14.074219-31.433594 31.429687-31.433594 17.359376 0 31.433594 14.074218 31.433594 31.433594zm0 0" fill="url(#k)"/><path d="m157.101562 357.976562c0 33.136719-26.867187 60-60.003906 60-33.140625 0-60.003906-26.863281-60.003906-60 0-33.140624 26.863281-60.003906 60.003906-60.003906 33.136719 0 60.003906 26.863282 60.003906 60.003906zm0 0" fill="url(#l)"/><path d="m88.898438 402.425781c0 24.546875-19.898438 44.449219-44.449219 44.449219-24.546875 0-44.449219-19.902344-44.449219-44.449219 0-24.550781 19.902344-44.449219 44.449219-44.449219 24.550781 0 44.449219 19.898438 44.449219 44.449219zm0 0" fill="url(#m)"/><path d="m202.460938 408.480469h-202.050782c2.953125 21.683593 21.542969 38.394531 44.039063 38.394531h152.492187c22.492188 0 41.082032-16.710938 44.035156-38.394531z" fill="url(#n)"/><path d="m491.9375 269.988281c.003906-.136719.011719-.269531.011719-.410156 0-27.664063-22.429688-50.09375-50.09375-50.09375-23.488281 0-43.191407 16.167969-48.613281 37.980469-2.878907-.859375-5.929688-1.328125-9.089844-1.328125-17.542969 0-31.769532 14.226562-31.769532 31.769531 0 17.546875 14.226563 31.769531 31.769532 31.769531h102.753906c13.859375 0 25.09375-11.234375 25.09375-25.09375 0-12.136719-8.613281-22.261719-20.0625-24.59375zm0 0" fill="url(#p)"/><path d="m384.152344 319.675781h53.867187l-33.039062-33.039062c-6.734375-7.050781-16.214844-11.445313-26.730469-11.445313-10.03125 0-19.121094 4-25.78125 10.488282-.050781.734374-.085938 1.476562-.085938 2.226562 0 17.546875 14.226563 31.769531 31.769532 31.769531zm0 0" fill="url(#q)"/><path d="m415.210938 312.460938c0-.101563.007812-.203126.007812-.304688 0-20.417969-16.550781-36.964844-36.96875-36.964844-17.332031 0-31.871094 11.929688-35.871094 28.023438-2.125-.632813-4.375-.980469-6.707031-.980469-12.949219 0-23.445313 10.496094-23.445313 23.445313 0 12.949218 10.496094 23.445312 23.445313 23.445312h75.824219c10.226562 0 18.519531-8.292969 18.519531-18.519531 0-8.957031-6.359375-16.425781-14.804687-18.144531zm0 0" fill="url(#r)"/></svg>