<svg height="512pt" viewBox="0 0 512 512" width="512pt" xmlns="http://www.w3.org/2000/svg" xmlns:xlink="http://www.w3.org/1999/xlink"><radialGradient id="a" cx="184.7214472156" cy="137.5371132156" gradientUnits="userSpaceOnUse" r="380.4785070162"><stop offset="0" stop-color="#ff6e3a"/><stop offset=".2336" stop-color="#ff6b3c"/><stop offset=".418" stop-color="#ff6143"/><stop offset=".5857" stop-color="#ff504e"/><stop offset=".7434" stop-color="#ff395e"/><stop offset=".8928" stop-color="#ff1b72"/><stop offset="1" stop-color="#ff0084"/></radialGradient><linearGradient id="b" gradientUnits="userSpaceOnUse" x1="506.3113955948" x2="237.3531623798" y1="506.3113955948" y2="237.3531623798"><stop offset="0" stop-color="#ff0084" stop-opacity="0"/><stop offset=".0737" stop-color="#f4087e" stop-opacity=".07451"/><stop offset=".3347" stop-color="#d2216b" stop-opacity=".333333"/><stop offset=".583" stop-color="#ba335e" stop-opacity=".584314"/><stop offset=".8111" stop-color="#ab3d56" stop-opacity=".811765"/><stop offset="1" stop-color="#a64153"/></linearGradient><radialGradient id="c" cx="257.5959444112" cy="256.00011" gradientUnits="userSpaceOnUse" r="275.7069984678"><stop offset="0" stop-color="#ffd459"/><stop offset=".2794" stop-color="#ffd55b" stop-opacity=".721569"/><stop offset=".4354" stop-color="#ffd763" stop-opacity=".564706"/><stop offset=".5609" stop-color="#ffda71" stop-opacity=".439216"/><stop offset=".6702" stop-color="#ffdf85" stop-opacity=".329412"/><stop offset=".7691" stop-color="#ffe69e" stop-opacity=".231373"/><stop offset=".8603" stop-color="#ffeebe" stop-opacity=".141176"/><stop offset=".944" stop-color="#fff8e2" stop-opacity=".054902"/><stop offset="1" stop-color="#fff" stop-opacity="0"/></radialGradient><radialGradient id="d" cx="256.00011" cy="256.8151942718" gradientUnits="userSpaceOnUse" r="185.7263731376"><stop offset="0" stop-color="#ffb400"/><stop offset=".3726" stop-color="#ffb502" stop-opacity=".627451"/><stop offset=".5069" stop-color="#ffb709" stop-opacity=".494118"/><stop offset=".6026" stop-color="#ffba14" stop-opacity=".396078"/><stop offset=".68" stop-color="#ffbf25" stop-opacity=".321569"/><stop offset=".7463" stop-color="#ffc53b" stop-opacity=".254902"/><stop offset=".805" stop-color="#ffcd57" stop-opacity=".196078"/><stop offset=".8581" stop-color="#ffd777" stop-opacity=".141176"/><stop offset=".9069" stop-color="#ffe29d" stop-opacity=".094118"/><stop offset=".9523" stop-color="#ffefc8" stop-opacity=".047059"/><stop offset=".9926" stop-color="#fffcf6" stop-opacity=".007843"/><stop offset="1" stop-color="#fff" stop-opacity="0"/></radialGradient><radialGradient id="e" cx="217.7890316204" cy="199.0075584522" gradientUnits="userSpaceOnUse" r="193.6784392996"><stop offset="0" stop-color="#ffd459"/><stop offset=".2296" stop-color="#ffd355"/><stop offset=".4362" stop-color="#ffcf4a"/><stop offset=".634" stop-color="#ffc838"/><stop offset=".825" stop-color="#ffbf1f"/><stop offset="1" stop-color="#ffb400"/></radialGradient><linearGradient id="f" gradientUnits="userSpaceOnUse" x1="270.7663971292" x2="82.0286595604" y1="271.5519660942" y2="72.7750085254"><stop offset="0" stop-color="#fff" stop-opacity="0"/><stop offset=".9286" stop-color="#fff" stop-opacity=".929412"/><stop offset="1" stop-color="#fff"/></linearGradient><path d="m512 256c0 141.386719-114.613281 256-256 256s-256-114.613281-256-256 114.613281-256 256-256 256 114.613281 256 256zm0 0" fill="url(#a)"/><path d="m351.28125 73.242188c-13.058594 13.5-30.679688 17.824218-46.734375 14.613281-1.261719-1.246094-2.84375-2.039063-4.515625-2.378907-.023438-.101562-.054688-.199218-.082031-.300781l-35.003907-34.789062c-.027343-.101563-.054687-.199219-.082031-.300781-2.308593-9.222657-15.417969-9.222657-17.726562 0-9.746094 38.949218-58.5 52.011718-86.417969 23.15625-6.609375-6.832032-17.964844-.277344-15.351562 8.863281 11.03125 38.605469-24.660157 74.292969-63.261719 63.261719-9.140625-2.609376-15.695313 8.742187-8.863281 15.351562 28.855468 27.917969 15.792968 76.671875-23.15625 86.417969-9.222657 2.3125-9.222657 15.417969 0 17.726562.101562.027344.203124.054688.300781.082031l34.789062 35.007813c.101563.023437.199219.054687.300781.078125.339844 1.675781 1.132813 3.253906 2.382813 4.515625 3.207031 16.054687-1.117187 33.675781-14.617187 46.734375-5.65625 5.472656-2.136719 14.1875 4.429687 15.546875l140.777344 142.425781c12.257812 1.800782 24.792969 2.746094 37.550781 2.746094 141.382812 0 256-114.617188 256-256 0-12.566406-.921875-24.917969-2.671875-37l-142.5-141.328125c-1.359375-6.566406-10.074219-10.085937-15.546875-4.429687zm0 0" fill="url(#b)"/><path d="m264.863281 50.085938c9.746094 38.949218 58.5 52.011718 86.417969 23.15625 6.609375-6.832032 17.964844-.277344 15.351562 8.863281-11.03125 38.605469 24.660157 74.292969 63.261719 63.261719 9.144531-2.609376 15.695313 8.742187 8.863281 15.351562-28.855468 27.917969-15.792968 76.671875 23.15625 86.417969 9.222657 2.3125 9.222657 15.417969 0 17.726562-38.949218 9.75-52.011718 58.503907-23.15625 86.417969 6.832032 6.613281.277344 17.964844-8.863281 15.351562-38.601562-11.03125-74.292969 24.660157-63.261719 63.261719 2.613282 9.144531-8.742187 15.699219-15.351562 8.863281-27.917969-28.855468-76.671875-15.789062-86.417969 23.15625-2.308593 9.226563-15.417969 9.226563-17.726562 0-9.746094-38.945312-58.5-52.011718-86.417969-23.15625-6.609375 6.835938-17.964844.28125-15.351562-8.863281 11.03125-38.601562-24.660157-74.292969-63.261719-63.261719-9.140625 2.613282-15.695313-8.738281-8.863281-15.351562 28.855468-27.914062 15.792968-76.667969-23.15625-86.417969-9.222657-2.308593-9.222657-15.414062 0-17.726562 38.949218-9.746094 52.011718-58.5 23.15625-86.417969-6.832032-6.609375-.277344-17.960938 8.863281-15.351562 38.601562 11.035156 74.292969-24.65625 63.261719-63.261719-2.613282-9.140625 8.742187-15.695313 15.351562-8.863281 27.917969 28.855468 76.671875 15.792968 86.417969-23.15625 2.308593-9.222657 15.417969-9.222657 17.726562 0zm0 0" fill="#fff"/><path d="m264.863281 50.085938c9.746094 38.949218 58.5 52.011718 86.417969 23.15625 6.609375-6.832032 17.964844-.277344 15.351562 8.863281-11.03125 38.605469 24.660157 74.292969 63.261719 63.261719 9.144531-2.609376 15.695313 8.742187 8.863281 15.351562-28.855468 27.917969-15.792968 76.671875 23.15625 86.417969 9.222657 2.3125 9.222657 15.417969 0 17.726562-38.949218 9.75-52.011718 58.503907-23.15625 86.417969 6.832032 6.613281.277344 17.964844-8.863281 15.351562-38.601562-11.03125-74.292969 24.660157-63.261719 63.261719 2.613282 9.144531-8.742187 15.699219-15.351562 8.863281-27.917969-28.855468-76.671875-15.789062-86.417969 23.15625-2.308593 9.226563-15.417969 9.226563-17.726562 0-9.746094-38.945312-58.5-52.011718-86.417969-23.15625-6.609375 6.835938-17.964844.28125-15.351562-8.863281 11.03125-38.601562-24.660157-74.292969-63.261719-63.261719-9.140625 2.613282-15.695313-8.738281-8.863281-15.351562 28.855468-27.914062 15.792968-76.667969-23.15625-86.417969-9.222657-2.308593-9.222657-15.414062 0-17.726562 38.949218-9.746094 52.011718-58.5 23.15625-86.417969-6.832032-6.609375-.277344-17.960938 8.863281-15.351562 38.601562 11.035156 74.292969-24.65625 63.261719-63.261719-2.613282-9.140625 8.742187-15.695313 15.351562-8.863281 27.917969 28.855468 76.671875 15.792968 86.417969-23.15625 2.308593-9.222657 15.417969-9.222657 17.726562 0zm0 0" fill="url(#c)"/><path d="m429.5625 256c0 95.855469-77.707031 173.5625-173.5625 173.5625s-173.5625-77.707031-173.5625-173.5625 77.707031-173.5625 173.5625-173.5625 173.5625 77.707031 173.5625 173.5625zm0 0" fill="url(#d)"/><path d="m399.589844 256c0 79.300781-64.289063 143.589844-143.589844 143.589844s-143.589844-64.289063-143.589844-143.589844 64.289063-143.589844 143.589844-143.589844 143.589844 64.289063 143.589844 143.589844zm0 0" fill="url(#e)"/><path d="m385.945312 256c0 71.765625-58.179687 129.945312-129.945312 129.945312s-129.945312-58.179687-129.945312-129.945312 58.179687-129.945312 129.945312-129.945312 129.945312 58.179687 129.945312 129.945312zm0 0" fill="url(#f)"/></svg>