<svg height="512pt" viewBox="0 0 512 512.00036" width="512pt" xmlns="http://www.w3.org/2000/svg" xmlns:xlink="http://www.w3.org/1999/xlink"><radialGradient id="a" cx="192.252246922" cy="170.6678255298" gradientUnits="userSpaceOnUse" r="309.7954711544"><stop offset="0" stop-color="#ecf7ff"/><stop offset=".5353" stop-color="#eaf6ff"/><stop offset=".7282" stop-color="#e3f2ff"/><stop offset=".8651" stop-color="#d8ecff"/><stop offset=".9756" stop-color="#c7e3ff"/><stop offset="1" stop-color="#c2e0ff"/></radialGradient><linearGradient id="b"><stop offset=".0029" stop-color="#c2e0ff" stop-opacity="0"/><stop offset=".0763" stop-color="#bfdcfd" stop-opacity=".07451"/><stop offset="1" stop-color="#9eb2e7"/></linearGradient><linearGradient id="c" gradientUnits="userSpaceOnUse" x1="408.3505735022" x2="54.9701298944" xlink:href="#b" y1="320.2383494062" y2="187.721046975"/><linearGradient id="d" gradientUnits="userSpaceOnUse" x1="462.1208366066" x2="291.3506926406" xlink:href="#b" y1="288.8126794324" y2="118.0425354664"/><linearGradient id="e" gradientUnits="userSpaceOnUse" x1="458.7028837654" x2="304.7126936762" xlink:href="#b" y1="402.1608944112" y2="248.170704322"/><linearGradient id="f"><stop offset="0" stop-color="#ffd459"/><stop offset=".2296" stop-color="#ffd355"/><stop offset=".4362" stop-color="#ffcf4a"/><stop offset=".634" stop-color="#ffc838"/><stop offset=".825" stop-color="#ffbf1f"/><stop offset="1" stop-color="#ffb400"/></linearGradient><linearGradient id="g" gradientUnits="userSpaceOnUse" x1="347.3671308278" x2="411.5380258522" xlink:href="#f" y1="290.8244387282" y2="354.9953337526"/><linearGradient id="h" gradientUnits="userSpaceOnUse" x1="323.8092979602" x2="363.7912947478" xlink:href="#f" y1="150.5005384328" y2="190.4824348282"/><linearGradient id="i" gradientUnits="userSpaceOnUse" x1="116.13889657" x2="273.7567588062" xlink:href="#f" y1="185.0217015014" y2="342.6395637376"/><linearGradient id="j" gradientUnits="userSpaceOnUse" x1="214.0578343308" x2="-100.6991197398" y1="270.7194951874" y2="98.7212534388"><stop offset="0" stop-color="#e58200" stop-opacity="0"/><stop offset=".0396" stop-color="#e27f04" stop-opacity=".039216"/><stop offset=".4671" stop-color="#c15d2f" stop-opacity=".466667"/><stop offset=".8016" stop-color="#ad4949" stop-opacity=".8"/><stop offset="1" stop-color="#a64153"/></linearGradient><path d="m512 256c0 141.386719-114.613281 256-256 256-141.382812 0-256-114.613281-256-256 0-141.382812 114.617188-256 256-256 141.386719 0 256 114.617188 256 256zm0 0" fill="url(#a)"/><path d="m256 512c141.382812 0 256-114.613281 256-256 0-3.582031-.09375-7.148438-.238281-10.695312l-238.867188-238.867188c-1.546875-3.371094-4.800781-5.679688-8.363281-6.28125-.984375-.03125-1.964844-.0625-2.953125-.0859375-2.652344.2773435-5.273437 1.5507815-7.3125 4.0976565l-151.425781 200.449219c-4.695313 5.867187-2.144532 14.039062 3.957031 16.847656l31.0625 31.464844-61.320313 101.101562c-.761718 3.8125.382813 7.097656 2.5 9.4375.015626.015625.027344.03125.042969.046875.175781.195313.363281.378906.554688.5625l40.074219 39.234375-12.234376 61.21875c41.882813 29.882812 93.148438 47.46875 148.523438 47.46875zm0 0" fill="url(#c)"/><path d="m512 256c0-3.082031-.074219-6.148438-.183594-9.207031l-142.625-142.625c-.46875-3.542969-5.242187-5.261719-7.777344-2.09375l-55.660156 69.574219c-2.160156 2.699218-.484375 6.617187 2.78125 7.082031l13.585938 14.421875-7.636719 38.183594c-.550781 2.757812 1.394531 4.828124 3.640625 5.199218l155.046875 155.042969c24.59375-39.316406 38.828125-85.78125 38.828125-135.578125zm0 0" fill="url(#d)"/><path d="m507.796875 302.386719-88.464844-88.46875c-2.292969-3.839844-8.207031-5.070313-11.609375-.820313l-89.335937 111.667969c-2.839844 3.550781-1.539063 8.402344 1.898437 10.453125l24.148438 24.144531c.050781.089844.09375.179688.152344.265625l-12.183594 60.9375c-.65625 3.285156.894531 5.964844 3.210937 7.371094l49.28125 49.277344c63.261719-36.9375 109.246094-100.230469 122.902344-174.828125zm0 0" fill="url(#e)"/><path d="m428.644531 303.238281h-16.792969c-4.445312 0-7.777343-4.066406-6.90625-8.421875l15.179688-75.9375c1.445312-7.234375-7.792969-11.542968-12.402344-5.78125l-89.335937 111.667969c-3.6875 4.609375-.40625 11.441406 5.5 11.441406h16.792969c4.441406 0 7.773437 4.0625 6.902343 8.421875l-15.179687 75.9375c-1.445313 7.234375 7.796875 11.539063 12.40625 5.777344l89.335937-111.667969c3.6875-4.609375.402344-11.4375-5.5-11.4375zm0 0" fill="url(#g)"/><path d="m374.449219 158.234375h-10.464844c-2.765625 0-4.84375-2.53125-4.300781-5.246094l9.457031-47.3125c.902344-4.507812-4.855469-7.191406-7.726563-3.601562l-55.660156 69.574219c-2.296875 2.875-.253906 7.128906 3.425782 7.128906h10.460937c2.769531 0 4.84375 2.53125 4.304687 5.246094l-9.460937 47.316406c-.898437 4.503906 4.855469 7.1875 7.726563 3.597656l55.664062-69.574219c2.296875-2.875.253906-7.128906-3.425781-7.128906zm0 0" fill="url(#h)"/><path d="m250.730469 315.820312h-26.191407c-6.929687 0-12.128906-6.335937-10.769531-13.132812l71.835938-118.441406c.761719-3.808594-.382813-7.097656-2.503907-9.4375-.011718-.015625-.023437-.027344-.039062-.042969-.175781-.195313-.363281-.378906-.554688-.5625-1.917968-1.914063-4.5625-3.167969-7.699218-3.167969h-26.191406c-6.929688 0-12.128907-6.339844-10.769532-13.136718l35.765625-144.714844c2.253907-11.285156-12.15625-18-19.34375-9.015625l-151.429687 200.449219c-5.753906 7.1875-.632813 17.839843 8.578125 17.839843h26.1875c6.929687 0 12.128906 6.339844 10.769531 13.136719l-71.835938 118.4375c-.761718 3.8125.382813 7.097656 2.5 9.4375.015626.015625.027344.03125.042969.046875.175781.195313.363281.378906.554688.5625 1.917969 1.914063 4.5625 3.167969 7.699219 3.167969h26.191406c6.929687 0 12.128906 6.339844 10.769531 13.132812l-23.675781 118.441406c-2.253906 11.28125 12.15625 17.996094 19.347656 9.011719l139.335938-174.167969c5.753906-7.191406.632812-17.84375-8.574219-17.84375zm0 0" fill="url(#i)"/><path d="m250.730469 315.820312h-26.191407c-6.929687 0-12.128906-6.335937-10.769531-13.132812l71.835938-118.441406c.761719-3.808594-.382813-7.097656-2.503907-9.4375-.011718-.015625-.023437-.027344-.039062-.042969-.175781-.195313-.363281-.378906-.554688-.5625-1.917968-1.914063-4.5625-3.167969-7.699218-3.167969h-26.191406c-6.929688 0-12.128907-6.339844-10.769532-13.136718l35.765625-144.714844c1.300781-6.503906-2.9375-11.480469-8.132812-12.820313l-78.957031 183.253907c-3.824219 8.875 2.6875 18.769531 12.355468 18.769531h4.300782c10.628906 0 17.058593 11.742187 11.332031 20.695312l-62.980469 98.507813c-5.722656 8.953125.707031 20.695312 11.335938 20.695312h9.398437c10.109375 0 16.605469 10.734375 11.917969 19.6875l-77.863282 148.730469c4.277344 2.214844 9.925782 1.777344 13.648438-2.871094l139.335938-174.167969c5.753906-7.191406.632812-17.84375-8.574219-17.84375zm0 0" fill="url(#j)"/></svg>