<svg height="512pt" viewBox="0 0 512 512" width="512pt" xmlns="http://www.w3.org/2000/svg" xmlns:xlink="http://www.w3.org/1999/xlink"><radialGradient id="a" cx="184.721648" cy="137.537314" gradientUnits="userSpaceOnUse" r="380.4785070162"><stop offset="0" stop-color="#ff6e3a"/><stop offset=".2336" stop-color="#ff6b3c"/><stop offset=".418" stop-color="#ff6143"/><stop offset=".5857" stop-color="#ff504e"/><stop offset=".7434" stop-color="#ff395e"/><stop offset=".8928" stop-color="#ff1b72"/><stop offset="1" stop-color="#ff0084"/></radialGradient><linearGradient id="b"><stop offset="0" stop-color="#ff0084" stop-opacity="0"/><stop offset=".0737" stop-color="#f4087e" stop-opacity=".07451"/><stop offset=".3347" stop-color="#d2216b" stop-opacity=".333333"/><stop offset=".583" stop-color="#ba335e" stop-opacity=".584314"/><stop offset=".8111" stop-color="#ab3d56" stop-opacity=".811765"/><stop offset="1" stop-color="#a64153"/></linearGradient><linearGradient id="c" gradientUnits="userSpaceOnUse" x1="505.9604244636" x2="159.2719241234" xlink:href="#b" y1="469.751668513" y2="153.850042578"/><linearGradient id="d" gradientUnits="userSpaceOnUse" x1="311.7061355048" x2="181.3722630314" xlink:href="#b" y1="574.2547283186" y2="443.9208558452"/><linearGradient id="e" gradientUnits="userSpaceOnUse" x1="446.4208224096" x2="362.0911736252" xlink:href="#b" y1="460.65964892" y2="430.8765961226"/><linearGradient id="f" gradientUnits="userSpaceOnUse" x1="355.7758014998" x2="303.5722590686" xlink:href="#b" y1="501.160874166" y2="480.0787129504"/><linearGradient id="g" gradientUnits="userSpaceOnUse" x1="188.0555725698" x2="117.781132962" xlink:href="#b" y1="499.9108908838" y2="457.4115596812"/><linearGradient id="h"><stop offset="0" stop-color="#00c6f6"/><stop offset=".5169" stop-color="#00c4f6"/><stop offset=".7031" stop-color="#02bdf7"/><stop offset=".8359" stop-color="#05b2f9"/><stop offset=".9424" stop-color="#0aa1fc"/><stop offset="1" stop-color="#0d94fe"/></linearGradient><radialGradient id="i" cx="695.5447" cy="489.5002" gradientTransform="matrix(1.440427 0 0 1.003922 -796.906416 0)" gradientUnits="userSpaceOnUse" r="162.6389" xlink:href="#h"/><radialGradient id="j" cx="695.5447" cy="489.5" gradientTransform="matrix(1.440427 0 0 1.003922 -796.906416 0)" gradientUnits="userSpaceOnUse" r="162.6386" xlink:href="#h"/><radialGradient id="k" cx="695.5447" cy="489.4996" gradientTransform="matrix(1.440427 0 0 1.003922 -796.906416 0)" gradientUnits="userSpaceOnUse" r="162.6384" xlink:href="#h"/><radialGradient id="l" cx="695.5447" cy="489.5015" gradientTransform="matrix(1.440427 0 0 1.003922 -796.906416 0)" gradientUnits="userSpaceOnUse" r="162.6412" xlink:href="#h"/><radialGradient id="m" cx="695.5447" cy="489.5002" gradientTransform="matrix(1.440427 0 0 1.003922 -796.906416 0)" gradientUnits="userSpaceOnUse" r="162.6387" xlink:href="#h"/><radialGradient id="n" cx="695.5447" cy="446.4414" gradientTransform="matrix(1.440427 0 0 1.003922 -796.906416 0)" gradientUnits="userSpaceOnUse" r="141.657" xlink:href="#h"/><radialGradient id="o" cx="305.0344714616" cy="169.0806436322" gradientUnits="userSpaceOnUse" r="219.0309835266"><stop offset="0" stop-color="#ffd459"/><stop offset=".2794" stop-color="#ffd55b" stop-opacity=".721569"/><stop offset=".4354" stop-color="#ffd763" stop-opacity=".564706"/><stop offset=".5609" stop-color="#ffda71" stop-opacity=".439216"/><stop offset=".6702" stop-color="#ffdf85" stop-opacity=".329412"/><stop offset=".7691" stop-color="#ffe69e" stop-opacity=".231373"/><stop offset=".8603" stop-color="#ffeebe" stop-opacity=".141176"/><stop offset=".944" stop-color="#fff8e2" stop-opacity=".054902"/><stop offset="1" stop-color="#fff" stop-opacity="0"/></radialGradient><radialGradient id="p" cx="303.7674215054" cy="169.7286752832" gradientUnits="userSpaceOnUse" r="147.547420262"><stop offset="0" stop-color="#ffb400"/><stop offset=".3726" stop-color="#ffb502" stop-opacity=".627451"/><stop offset=".5069" stop-color="#ffb709" stop-opacity=".494118"/><stop offset=".6026" stop-color="#ffba14" stop-opacity=".396078"/><stop offset=".68" stop-color="#ffbf25" stop-opacity=".321569"/><stop offset=".7463" stop-color="#ffc53b" stop-opacity=".254902"/><stop offset=".805" stop-color="#ffcd57" stop-opacity=".196078"/><stop offset=".8581" stop-color="#ffd777" stop-opacity=".141176"/><stop offset=".9069" stop-color="#ffe29d" stop-opacity=".094118"/><stop offset=".9523" stop-color="#ffefc8" stop-opacity=".047059"/><stop offset=".9926" stop-color="#fffcf6" stop-opacity=".007843"/><stop offset="1" stop-color="#fff" stop-opacity="0"/></radialGradient><radialGradient id="q" cx="273.4115308148" cy="123.8037614322" gradientUnits="userSpaceOnUse" r="153.8653021924"><stop offset="0" stop-color="#ffd459"/><stop offset=".2296" stop-color="#ffd355"/><stop offset=".4362" stop-color="#ffcf4a"/><stop offset=".634" stop-color="#ffc838"/><stop offset=".825" stop-color="#ffbf1f"/><stop offset="1" stop-color="#ffb400"/></radialGradient><linearGradient id="r" gradientUnits="userSpaceOnUse" x1="315.4981496832" x2="165.557278981" y1="181.435811294" y2="23.5194830472"><stop offset="0" stop-color="#fff" stop-opacity="0"/><stop offset=".9286" stop-color="#fff" stop-opacity=".929412"/><stop offset="1" stop-color="#fff"/></linearGradient><linearGradient id="s" gradientUnits="userSpaceOnUse" x1="414.8631366928" x2="67.6310125896" y1="390.5896078314" y2="43.3574837282"><stop offset="0" stop-color="#e58200" stop-opacity="0"/><stop offset=".0396" stop-color="#e27f04" stop-opacity=".039216"/><stop offset=".4671" stop-color="#c15d2f" stop-opacity=".466667"/><stop offset=".8016" stop-color="#ad4949" stop-opacity=".8"/><stop offset="1" stop-color="#a64153"/></linearGradient><radialGradient id="t" cx="160.8638432388" cy="124.1107607798" gradientUnits="userSpaceOnUse" r="279.2628901918"><stop offset="0" stop-color="#ecf7ff"/><stop offset=".3473" stop-color="#e9f5ff"/><stop offset=".62" stop-color="#dff0ff"/><stop offset=".8666" stop-color="#cee7ff"/><stop offset="1" stop-color="#c2e0ff"/></radialGradient><linearGradient id="u"><stop offset=".0029" stop-color="#c2e0ff" stop-opacity="0"/><stop offset=".0763" stop-color="#bfdcfd" stop-opacity=".07451"/><stop offset="1" stop-color="#9eb2e7"/></linearGradient><linearGradient id="v" gradientUnits="userSpaceOnUse" x1="338.6687698354" x2="378.922327524" xlink:href="#u" y1="310.55323148" y2="189.1101926308"/><linearGradient id="w" gradientUnits="userSpaceOnUse" x1="292.6189680876" x2="344.3730546394" xlink:href="#u" y1="227.471658526" y2="150.7382859468"/><linearGradient id="x" gradientUnits="userSpaceOnUse" x1="187.1972192598" x2="187.1972192598" xlink:href="#u" y1="232.9101047844" y2="79.9840720152"/><linearGradient id="y" gradientUnits="userSpaceOnUse" x1="108.1231021454" x2="26.425234884" xlink:href="#u" y1="309.3899870586" y2="232.1788479996"/><linearGradient id="z" gradientUnits="userSpaceOnUse" x1="223.1781853086" x2="223.1781853086" xlink:href="#u" y1="326.9125420388" y2="421.274282977"/><linearGradient id="A" gradientUnits="userSpaceOnUse" x1="215.7346056396" x2="116.9702651626" xlink:href="#u" y1="419.1221753856" y2="320.3578349086"/><linearGradient id="B" gradientUnits="userSpaceOnUse" x1="382.0529578888" x2="230.795142307" y1="383.2023481866" y2="289.5028945918"><stop offset=".0029" stop-color="#c2e0ff" stop-opacity="0"/><stop offset=".188" stop-color="#b9d5f9" stop-opacity=".184314"/><stop offset=".695" stop-color="#a5bbec" stop-opacity=".694118"/><stop offset="1" stop-color="#9eb2e7"/></linearGradient><linearGradient id="C"><stop offset="0" stop-color="#00c6f6"/><stop offset=".8567" stop-color="#0b9cfd"/><stop offset="1" stop-color="#0d94fe"/></linearGradient><linearGradient id="D" gradientUnits="userSpaceOnUse" x1="200.9743420424" x2="281.6276284628" xlink:href="#C" y1="273.027631042" y2="353.6810178546"/><linearGradient id="E" gradientUnits="userSpaceOnUse" x1="232.6399493742" x2="313.2927338336" xlink:href="#C" y1="241.3630276322" y2="322.0158120916"/><linearGradient id="F" gradientUnits="userSpaceOnUse" x1="200.9750447878" x2="281.6275280706" xlink:href="#C" y1="273.0284341796" y2="353.6809174624"/><linearGradient id="G" gradientUnits="userSpaceOnUse" x1="232.639848982" x2="313.2926334414" xlink:href="#C" y1="241.3631280244" y2="322.0158120916"/><linearGradient id="H" gradientUnits="userSpaceOnUse" x1="194.4156192242" x2="275.0708130964" xlink:href="#C" y1="279.5838440552" y2="360.2391383196"/><linearGradient id="I" gradientUnits="userSpaceOnUse" x1="239.1952588576" x2="319.851055083" xlink:href="#C" y1="234.8029997154" y2="315.4587959408"/><linearGradient id="J" gradientUnits="userSpaceOnUse" x1="216.8075974732" x2="297.4604823248" xlink:href="#C" y1="257.1954799254" y2="337.8484651692"/><linearGradient id="K" gradientUnits="userSpaceOnUse" x1="216.8073966888" x2="297.4601811482" xlink:href="#C" y1="257.195781102" y2="337.8485655614"/><linearGradient id="L"><stop offset="0" stop-color="#0d94fe" stop-opacity="0"/><stop offset=".5142" stop-color="#0681cd" stop-opacity=".513725"/><stop offset="1" stop-color="#0070a2"/></linearGradient><linearGradient id="M" gradientUnits="userSpaceOnUse" x1="280.7697771138" x2="264.2902970916" xlink:href="#L" y1="332.7501476844" y2="316.2706676622"/><linearGradient id="N" gradientUnits="userSpaceOnUse" x1="280.2295666856" x2="264.8047067244" xlink:href="#L" y1="348.209843739" y2="332.7849837778"/><linearGradient id="O" gradientUnits="userSpaceOnUse" x1="292.3198997238" x2="275.8895114874" xlink:href="#L" y1="321.1108768008" y2="304.6804885644"/><linearGradient id="P" gradientUnits="userSpaceOnUse" x1="307.7334153664" x2="291.960094079" xlink:href="#L" y1="320.797251568" y2="305.0239302806"/><linearGradient id="Q" gradientUnits="userSpaceOnUse" x1="302.910373294" x2="268.4202314152" xlink:href="#L" y1="343.2987577072" y2="308.8086158284"/><linearGradient id="R" gradientUnits="userSpaceOnUse" x1="283.1512808822" x2="268.4886988956" xlink:href="#L" y1="278.7109338762" y2="264.0483518896"/><linearGradient id="S" gradientUnits="userSpaceOnUse" x1="314.2773805312" x2="287.8291558334" xlink:href="#L" y1="282.941360792" y2="277.6867326518"/><linearGradient id="T" gradientUnits="userSpaceOnUse" x1="257.0245120088" x2="343.4044706938" xlink:href="#C" y1="247.1283508938" y2="333.5083095788"/><linearGradient id="U" gradientUnits="userSpaceOnUse" x1="206.739665304" x2="293.1198247734" xlink:href="#C" y1="297.4120932844" y2="383.7922527538"/><linearGradient id="V" gradientUnits="userSpaceOnUse" x1="257.0238092634" x2="343.403567164" xlink:href="#C" y1="247.1283508938" y2="333.5082091866"/><linearGradient id="W" gradientUnits="userSpaceOnUse" x1="206.7407696182" x2="293.119623989" xlink:href="#C" y1="297.4131975986" y2="383.7920519694"/><linearGradient id="X" gradientUnits="userSpaceOnUse" x1="263.4660771296" x2="349.845232677" xlink:href="#C" y1="240.687287734" y2="327.0664432814"/><linearGradient id="Y" gradientUnits="userSpaceOnUse" x1="200.2988029286" x2="286.678460437" xlink:href="#C" y1="303.8541603662" y2="390.2338178746"/><linearGradient id="Z" gradientUnits="userSpaceOnUse" x1="231.8815866954" x2="318.2620473414" xlink:href="#C" y1="272.2697703242" y2="358.6502309702"/><linearGradient id="aa" gradientUnits="userSpaceOnUse" x1="231.8824902252" x2="318.2621477336" xlink:href="#C" y1="272.270673854" y2="358.6502309702"/><linearGradient id="ab" gradientUnits="userSpaceOnUse" x1="293.4728037486" x2="258.574667969" xlink:href="#L" y1="314.8768223574" y2="272.098501231"/><linearGradient id="ac" gradientUnits="userSpaceOnUse" x1="267.8266123366" x2="232.4404700728" xlink:href="#L" y1="336.6271940562" y2="293.25063581"/><linearGradient id="ad" gradientUnits="userSpaceOnUse" x1="296.2068849234" x2="260.6270861058" xlink:href="#L" y1="313.7710022744" y2="270.1570164752"/><linearGradient id="ae" gradientUnits="userSpaceOnUse" x1="280.4829565984" x2="244.903258173" xlink:href="#L" y1="326.5986156294" y2="282.9848306146"/><linearGradient id="af"><stop offset="0" stop-color="#ecf7ff"/><stop offset="1" stop-color="#c2e0ff"/></linearGradient><radialGradient id="ag" cx="269.4465408758" cy="309.8352264656" gradientUnits="userSpaceOnUse" r="14.2483637694" xlink:href="#af"/><linearGradient id="ah" gradientUnits="userSpaceOnUse" x1="259.913899917" x2="305.6770819338" xlink:href="#C" y1="300.3024851146" y2="346.0657675236"/><radialGradient id="ai" cx="247.457235741" cy="279.1506517122" gradientUnits="userSpaceOnUse" r="89.1740743954" xlink:href="#af"/><radialGradient id="aj" cx="247.4555290736" cy="279.1506517122" gradientUnits="userSpaceOnUse" r="89.1812022416" xlink:href="#af"/><radialGradient id="ak" cx="247.457235741" cy="279.1538642626" gradientUnits="userSpaceOnUse" r="89.1741747876" xlink:href="#af"/><radialGradient id="al" cx="247.4555290736" cy="279.1538642626" gradientUnits="userSpaceOnUse" r="89.1756806706" xlink:href="#af"/><radialGradient id="am" cx="247.459243585" cy="279.1492462214" gradientUnits="userSpaceOnUse" r="89.1754798862" xlink:href="#af"/><radialGradient id="an" cx="247.459243585" cy="279.1532619094" gradientUnits="userSpaceOnUse" r="89.1740743954" xlink:href="#af"/><radialGradient id="ao" cx="247.4570349566" cy="279.1492462214" gradientUnits="userSpaceOnUse" r="89.186924597" xlink:href="#af"/><radialGradient id="ap" cx="247.4570349566" cy="279.1532619094" gradientUnits="userSpaceOnUse" r="89.174375572" xlink:href="#af"/><linearGradient id="aq"><stop offset="0" stop-color="#fff" stop-opacity="0"/><stop offset="1" stop-color="#fff"/></linearGradient><linearGradient id="ar" gradientUnits="userSpaceOnUse" x1="299.2446525032" x2="203.1725296536" xlink:href="#aq" y1="348.5254768158" y2="223.7828475292"/><linearGradient id="as" gradientUnits="userSpaceOnUse" x1="306.7472627858" x2="210.675541505" xlink:href="#aq" y1="342.747002176" y2="218.004674066"/><linearGradient id="at" gradientUnits="userSpaceOnUse" x1="324.1477408508" x2="228.0763207466" xlink:href="#aq" y1="329.3454466136" y2="204.6035200724"/><linearGradient id="au" gradientUnits="userSpaceOnUse" x1="274.3514025912" x2="178.2832954296" xlink:href="#aq" y1="367.6958693668" y2="242.9582596902"/><linearGradient id="av" gradientUnits="userSpaceOnUse" x1="291.7524830094" x2="195.6845766322" xlink:href="#aq" y1="354.2950165498" y2="229.5577080498"/><linearGradient id="aw" gradientUnits="userSpaceOnUse" x1="326.9835193242" x2="230.9059752958" xlink:href="#aq" y1="327.1649280296" y2="202.4150705046"/><linearGradient id="ax" gradientUnits="userSpaceOnUse" x1="313.5807590554" x2="217.5105436576" xlink:href="#aq" y1="337.4840414832" y2="212.7438216094"/><linearGradient id="ay" gradientUnits="userSpaceOnUse" x1="284.9228016434" x2="188.8438521242" xlink:href="#aq" y1="359.5627960682" y2="234.8112318758"/><linearGradient id="az" gradientUnits="userSpaceOnUse" x1="271.5178327462" x2="175.4462118576" xlink:href="#aq" y1="369.8791989324" y2="245.137171999"/><linearGradient id="aA" gradientUnits="userSpaceOnUse" x1="17.8330680548" x2="149.046777769" xlink:href="#C" y1="358.4757493266" y2="489.6894590408"/><linearGradient id="aB" gradientUnits="userSpaceOnUse" x1="69.3486227394" x2="200.5631355912" xlink:href="#C" y1="306.9582871902" y2="438.172800042"/><linearGradient id="aC" gradientUnits="userSpaceOnUse" x1="17.8327668782" x2="149.0464765924" xlink:href="#C" y1="358.4752473656" y2="489.6889570798"/><linearGradient id="aD" gradientUnits="userSpaceOnUse" x1="69.349425877" x2="200.5632359834" xlink:href="#C" y1="306.9590903278" y2="438.1730008264"/><linearGradient id="aE" gradientUnits="userSpaceOnUse" x1="7.1618791558" x2="138.3788014204" xlink:href="#C" y1="369.1419186156" y2="500.358740488"/><linearGradient id="aF" gradientUnits="userSpaceOnUse" x1="80.0153943816" x2="211.2323166462" xlink:href="#C" y1="296.2879014288" y2="427.5048236934"/><linearGradient id="aG" gradientUnits="userSpaceOnUse" x1="43.5905944166" x2="174.8052076606" xlink:href="#C" y1="332.7165162974" y2="463.9311295414"/><linearGradient id="aH" gradientUnits="userSpaceOnUse" x1="43.5906948088" x2="174.8053080528" xlink:href="#C" y1="332.7171186506" y2="463.9317318946"/><linearGradient id="aI" gradientUnits="userSpaceOnUse" x1="147.651326189" x2="120.8406856492" xlink:href="#L" y1="455.6367259774" y2="428.8260854376"/><linearGradient id="aJ" gradientUnits="userSpaceOnUse" x1="146.7724928702" x2="121.6776554206" xlink:href="#L" y1="480.7889877654" y2="455.6940499236"/><linearGradient id="aK" gradientUnits="userSpaceOnUse" x1="166.4420354396" x2="139.7121102286" xlink:href="#L" y1="436.7001468602" y2="409.9703220414"/><linearGradient id="aL" gradientUnits="userSpaceOnUse" x1="191.5190030776" x2="165.8576524434" xlink:href="#L" y1="436.1898533076" y2="410.5285026734"/><linearGradient id="aM" gradientUnits="userSpaceOnUse" x1="183.6722483334" x2="127.5599355952" xlink:href="#L" y1="472.7987725674" y2="416.6864598292"/><linearGradient id="aN" gradientUnits="userSpaceOnUse" x1="151.5256619714" x2="127.671270545" xlink:href="#L" y1="367.7191603572" y2="343.864869323"/><linearGradient id="aO" gradientUnits="userSpaceOnUse" x1="202.1655958876" x2="159.13669583" xlink:href="#L" y1="374.6027523346" y2="366.0539549358"/><linearGradient id="aP" gradientUnits="userSpaceOnUse" x1="109.0202068446" x2="249.5520193862" xlink:href="#C" y1="316.3385327894" y2="456.8702449388"/><linearGradient id="aQ" gradientUnits="userSpaceOnUse" x1="27.211807771" x2="167.7436203126" xlink:href="#C" y1="398.145927941" y2="538.6777404826"/><linearGradient id="aR" gradientUnits="userSpaceOnUse" x1="109.02090959" x2="249.5512162486" xlink:href="#C" y1="316.3390347504" y2="456.8692410168"/><linearGradient id="aS" gradientUnits="userSpaceOnUse" x1="27.2125105164" x2="167.7424156062" xlink:href="#C" y1="398.1466306864" y2="538.6765357762"/><linearGradient id="aT" gradientUnits="userSpaceOnUse" x1="119.500349387" x2="260.0311580066" xlink:href="#C" y1="305.8591933846" y2="446.3900020042"/><linearGradient id="aU" gradientUnits="userSpaceOnUse" x1="16.732869935" x2="157.263879339" xlink:href="#C" y1="408.6262712678" y2="549.1572806718"/><linearGradient id="aV" gradientUnits="userSpaceOnUse" x1="68.1163084844" x2="208.6477194572" xlink:href="#C" y1="357.2424311496" y2="497.7738421224"/><linearGradient id="aW" gradientUnits="userSpaceOnUse" x1="68.1161077" x2="208.6477194572" xlink:href="#C" y1="357.2424311496" y2="497.7739425146"/><linearGradient id="aX" gradientUnits="userSpaceOnUse" x1="168.3184660498" x2="111.5419585164" xlink:href="#L" y1="426.559430346" y2="356.9623369116"/><linearGradient id="aY" gradientUnits="userSpaceOnUse" x1="126.5949657688" x2="69.0242555412" xlink:href="#L" y1="461.9449702566" y2="391.3742732666"/><linearGradient id="aZ" gradientUnits="userSpaceOnUse" x1="172.765940902" x2="114.8826093636" xlink:href="#L" y1="424.7587958468" y2="353.8050022216"/><linearGradient id="a0" gradientUnits="userSpaceOnUse" x1="147.1841008902" x2="89.3004681752" xlink:href="#L" y1="445.6281255984" y2="374.6739304044"/><radialGradient id="a1" cx="129.2295582734" cy="418.3557813308" gradientUnits="userSpaceOnUse" r="23.1808601566" xlink:href="#af"/><linearGradient id="a2" gradientUnits="userSpaceOnUse" x1="113.7206700408" x2="188.1734330126" xlink:href="#C" y1="402.8468930982" y2="477.29965607"/><radialGradient id="a3" cx="93.4542958424" cy="368.4355590964" gradientUnits="userSpaceOnUse" r="145.0855023414" xlink:href="#af"/><radialGradient id="a4" cx="93.4537938814" cy="368.4355590964" gradientUnits="userSpaceOnUse" r="145.085803518" xlink:href="#af"/><radialGradient id="a5" cx="93.4542958424" cy="368.4350571354" gradientUnits="userSpaceOnUse" r="145.0857031258" xlink:href="#af"/><radialGradient id="a6" cx="93.4537938814" cy="368.4350571354" gradientUnits="userSpaceOnUse" r="145.0852011648" xlink:href="#af"/><radialGradient id="a7" cx="93.4529907438" cy="368.4356594886" gradientUnits="userSpaceOnUse" r="145.08680744" xlink:href="#af"/><radialGradient id="a8" cx="93.4529907438" cy="368.434856351" gradientUnits="userSpaceOnUse" r="145.0869078322" xlink:href="#af"/><radialGradient id="a9" cx="93.4542958424" cy="368.4356594886" gradientUnits="userSpaceOnUse" r="145.0870082244" xlink:href="#af"/><radialGradient id="ba" cx="93.4542958424" cy="368.434856351" gradientUnits="userSpaceOnUse" r="145.0870082244" xlink:href="#af"/><linearGradient id="bb" gradientUnits="userSpaceOnUse" x1="177.7085500846" x2="21.4080342968" xlink:href="#aq" y1="481.3020922996" y2="278.3571517634"/><linearGradient id="bc" gradientUnits="userSpaceOnUse" x1="189.9103184648" x2="33.6180348374" xlink:href="#aq" y1="471.8953431596" y2="268.9610441966"/><linearGradient id="bd" gradientUnits="userSpaceOnUse" x1="218.2206176882" x2="61.9283340608" xlink:href="#aq" y1="450.0936710466" y2="247.1593720836"/><linearGradient id="be" gradientUnits="userSpaceOnUse" x1="137.2103366046" x2="-19.0892756534" xlink:href="#aq" y1="512.4917402112" y2="309.5477032048"/><linearGradient id="bf" gradientUnits="userSpaceOnUse" x1="165.5199330826" x2="9.2202204324" xlink:href="#aq" y1="490.6890641762" y2="287.7450271698"/><linearGradient id="bg" gradientUnits="userSpaceOnUse" x1="222.8358479066" x2="66.5322199606" xlink:href="#aq" y1="446.5483205036" y2="243.5993642794"/><linearGradient id="bh" gradientUnits="userSpaceOnUse" x1="201.0326699106" x2="44.7290419646" xlink:href="#aq" y1="463.3395183068" y2="260.3904616904"/><linearGradient id="bi" gradientUnits="userSpaceOnUse" x1="154.4038059532" x2="-1.8998219928" xlink:href="#aq" y1="499.2533219738" y2="296.3042653574"/><linearGradient id="bj" gradientUnits="userSpaceOnUse" x1="132.6006279572" x2="-23.7029999888" xlink:href="#aq" y1="516.0444193848" y2="313.0953627684"/><path d="m512 256c0 141.386719-114.613281 256-256 256s-256-114.613281-256-256 114.613281-256 256-256 256 114.613281 256 256zm0 0" fill="url(#a)"/><path d="m512 256c0-98.871094-56.058594-184.640625-138.117188-227.289062-9.546874 6.902343-21.027343 8.921874-31.644531 6.773437-.917969-.746094-1.992187-1.234375-3.125-1.460937-.027343-.105469-.066406-.207032-.089843-.3125l-27.980469-27.757813c-4.433594-.972656-8.910157-1.828125-13.421875-2.566406-.378906.621093-.695313 1.316406-.894532 2.109375-7.746093 30.941406-46.476562 41.320312-68.65625 18.394531-5.25-5.425781-14.269531-.222656-12.195312 7.042969 8.765625 30.667968-19.589844 59.023437-50.257812 50.257812-7.261719-2.074218-12.46875 6.941406-7.039063 12.195313 22.921875 22.175781 12.542969 60.910156-18.398437 68.652343-7.324219 1.835938-7.324219 12.25 0 14.082032.109374.027344.210937.0625.3125.089844.039062.195312.082031.394531.136718.585937-26.886718 15.933594-44.917968 45.230469-44.917968 78.746094 0 .3125.007812.617187.011718.929687-32.097656 5.339844-56.570312 33.230469-56.570312 66.84375 0 20.152344 8.804687 38.238282 22.765625 50.652344l33.855469 33.859375c.625.699219 1.261718 1.378906 1.910156 2.054687-.066406.691407-.113282 1.394532-.113282 2.105469 0 7.4375 3.75 13.980469 9.453126 17.882813l65.199218 68.089844c26.25 9.089843 54.433594 14.039062 83.777344 14.039062 141.386719 0 256-114.613281 256-256zm0 0" fill="url(#c)"/><path d="m335.339844 501.148438-1.253906-1.277344c-24.617188 7.882812-50.847657 12.128906-78.085938 12.128906-89.8125 0-168.820312-46.25-214.507812-116.234375.210937-.308594.460937-.601563.742187-.882813 2.863281-2.863281 7.511719-2.863281 10.371094 0l14.042969 14.042969h13.796874l-10.550781-11.082031c-.132812-.3125-.230469-.640625-.300781-.984375-.070312-.339844-.113281-.691406-.113281-1.054687 0-.351563.042969-.703126.113281-1.03125-.964844-.675782-1.769531-1.566407-2.320312-2.613282l-12.238282-12.234375c-2.328125-1.238281-3.914062-3.675781-3.914062-6.484375 0-4.058594 3.28125-7.339844 7.335937-7.339844h8.144531l-1.003906-1.003906c-2.863281-2.863281-2.863281-7.511718 0-10.371094 1.433594-1.4375 3.3125-2.148437 5.1875-2.148437 1.40625 0 2.8125.398437 4.039063 1.203125.410156.273438.792969.582031 1.152343.945312l.992188 1.003907v-8.152344c0-4.046875 3.285156-7.328125 7.339844-7.328125 2.8125 0 5.25 1.585938 6.484375 3.902344l12.25 12.25c1.035156.550781 1.925781 1.34375 2.589843 2.296875.339844-.066407.703126-.097657 1.0625-.097657.363282 0 .714844.027344 1.054688.097657.34375.070312.671875.171875.984375.3125.542969.230469 1.042969.554687 1.476563.941406l7.710937 8.234375c.539063.230469 1.03125.5625 1.472656.953125.140625.128906.273438.269531.402344.410156v-13.78125l-14.035156-14.035156c-2.871094-2.863281-2.871094-7.511719 0-10.371094 2.863281-2.871093 7.511719-2.871093 10.371093 0l3.0625 3.0625.632813.621094c0-.039063.011719-.078125.011719-.121094.007812-.179687.039062-.371093.058594-.550781.019531-.121094.039062-.242188.058593-.359375.03125-.183594.070313-.363281.113281-.535156.027344-.121094.058594-.238281.097657-.359375.042969-.171875.101562-.339844.160156-.511719.042969-.109375.082031-.230469.121094-.34375.070312-.167969.140625-.328125.210937-.480469.050782-.121094.101563-.230468.160156-.339844.082032-.152343.164063-.304687.242188-.453124.070312-.109376.132812-.21875.203125-.320313.089844-.140625.179687-.28125.277344-.421875.070312-.101562.152343-.210938.234375-.3125.097656-.128906.199218-.261719.308594-.382812.082031-.097657.183593-.199219.273437-.300782.109375-.109375.210937-.230468.328125-.328125.101562-.101562.203125-.191406.3125-.292969.109375-.101562.222656-.199218.34375-.292968.117188-.089844.230469-.179688.347656-.257813.121094-.09375.242188-.183593.375-.261719.117188-.082031.25-.160156.378906-.242187.132813-.070313.25-.140625.382813-.210937.128906-.078126.28125-.140626.421875-.210938.128906-.058594.25-.121094.378906-.171875.152344-.066406.3125-.117187.472656-.167969.121094-.050781.253907-.101562.382813-.140625.171875-.050781.339844-.09375.523437-.132812.117188-.027344.238282-.058594.359376-.089844.199218-.039063.402343-.058594.601562-.089844.113281-.011719.210938-.039062.3125-.050781.3125-.03125.632812-.039062.945312-.039062.320313 0 .640626.007812.953126.039062.097656.011719.199218.039062.308593.050781.203125.03125.402344.050781.605469.089844.117188.03125.238281.058594.359375.089844.179687.039062.351563.082031.523437.132812.128907.039063.25.089844.378907.140625.164062.050782.3125.101563.472656.167969.132813.050781.25.113281.382813.171875.140624.070312.28125.132812.421874.210938.128907.070312.25.140624.378907.210937.132812.082031.261719.160156.382812.242187.132813.078126.25.167969.371094.261719.109375.078125.230469.167969.351563.257813.109374.09375.230468.191406.34375.292968.109374.101563.210937.191407.308593.292969.121094.097657.222657.21875.332031.328125.089844.101563.191407.203125.269532.300782.113281.121093.210937.253906.3125.382812.082031.101562.160156.210938.230468.3125.101563.140625.191407.28125.28125.421875.019532.019531.03125.050781.050782.082031.070312.039063.140625.078125.210937.128906.128907.078126.25.171876.371094.261719.109375.078125.230469.160157.339844.25.121093.101563.242187.199219.351562.300781.113281.101563.210938.191407.3125.28125.121094.109376.222657.230469.332031.339844.089844.101563.191407.203125.269532.304688.113281.117187.210937.25.3125.378906.082031.101562.160156.210938.230468.3125.058594.082031.109376.160156.160157.242188l2.1875-2.1875c2.863281-2.871094 7.511719-2.871094 10.371093 0 .535157.527343.964844 1.121093 1.304688 1.753906l12.238281 12.246094c.273438.144531.53125.3125.785157.484374.78125-3.214843 3.671874-5.601562 7.125-5.601562 2.8125 0 5.253906 1.585938 6.488281 3.90625 0 0 93.753906 94.398438 135.335937 136.875 9.015625 9.203125 15.574219 15.96875 18.203125 18.8125.59375.632812.984375 1.074219 1.164063 1.304688zm0 0" fill="url(#d)"/><path d="m436.574219 437.449219c-17.808594 17.738281-38.21875 32.855469-60.605469 44.753906v-75.113281c0-6.925782 5.621094-12.546875 12.550781-12.546875 3.710938 0 7.046875 1.625 9.34375 4.195312zm0 0" fill="url(#e)"/><path d="m354.816406 492.222656c-14.414062 6.042969-29.496094 10.800782-45.105468 14.125v-28.984375c0-6.925781 5.621093-12.546875 12.546874-12.546875 3.714844 0 7.046876 1.625 9.347657 4.195313zm0 0" fill="url(#f)"/><path d="m180.59375 500.714844c-25.085938-7.71875-48.519531-19.195313-69.660156-33.761719v-5.652344c0-6.925781 5.621094-12.546875 12.546875-12.546875 3.714843 0 7.050781 1.625 9.347656 4.195313l41.753906 41.753906c.351563.3125.683594.644531.992188.992187.351562.3125.683593.644532.996093.996094.351563.308594.683594.640625.992188.992188.351562.3125.683594.644531.996094.996094.351562.308593.679687.640624.992187.992187.351563.3125.683594.640625.996094.992187zm0 0" fill="url(#g)"/><path d="m256 512c-6.929688 0-12.550781-5.617188-12.550781-12.550781v-95.871094c0-6.933594 5.621093-12.550781 12.550781-12.550781s12.550781 5.617187 12.550781 12.550781v95.871094c0 6.933593-5.621093 12.550781-12.550781 12.550781zm0 0" fill="url(#i)"/><path d="m322.257812 512c-6.929687 0-12.546874-5.617188-12.546874-12.550781v-22.085938c0-6.925781 5.617187-12.546875 12.546874-12.546875 6.929688 0 12.550782 5.621094 12.550782 12.546875v22.085938c0 6.933593-5.621094 12.550781-12.550782 12.550781zm0 0" fill="url(#j)"/><path d="m322.257812 458.792969c-6.929687 0-12.546874-5.617188-12.546874-12.550781v-67.765626c0-6.929687 5.617187-12.546874 12.546874-12.546874 6.929688 0 12.550782 5.617187 12.550782 12.546874v67.765626c0 6.933593-5.621094 12.550781-12.550782 12.550781zm0 0" fill="url(#k)"/><path d="m322.257812 360.40625c-6.929687 0-12.546874-5.617188-12.546874-12.546875v-79.308594c0-6.933593 5.617187-12.550781 12.546874-12.550781 6.929688 0 12.550782 5.617188 12.550782 12.550781v79.308594c0 6.929687-5.621094 12.546875-12.550782 12.546875zm0 0" fill="url(#l)"/><path d="m388.519531 512c-6.933593 0-12.550781-5.617188-12.550781-12.550781v-92.359375c0-6.929688 5.617188-12.546875 12.550781-12.546875 6.929688 0 12.546875 5.617187 12.546875 12.546875v92.359375c0 6.933593-5.617187 12.550781-12.546875 12.550781zm0 0" fill="url(#m)"/><path d="m388.519531 387.515625c-6.933593 0-12.550781-5.621094-12.550781-12.550781v-51.703125c0-6.929688 5.617188-12.546875 12.550781-12.546875 6.929688 0 12.546875 5.617187 12.546875 12.546875v51.703125c0 6.929687-5.617187 12.550781-12.546875 12.550781zm0 0" fill="url(#n)"/><path d="m310.808594 5.496094c7.742187 30.941406 46.476562 41.316406 68.652344 18.394531 5.253906-5.425781 14.273437-.222656 12.195312 7.042969-8.761719 30.667968 19.59375 59.023437 50.261719 50.257812 7.261719-2.074218 12.46875 6.941406 7.039062 12.195313-22.921875 22.175781-12.542969 60.90625 18.394531 68.652343 7.328126 1.835938 7.328126 12.25 0 14.082032-30.9375 7.746094-41.316406 46.476562-18.394531 68.65625 5.429688 5.25.222657 14.269531-7.039062 12.195312-30.667969-8.765625-59.023438 19.589844-50.261719 50.257813 2.074219 7.261719-6.941406 12.46875-12.195312 7.039062-22.175782-22.921875-60.910157-12.542969-68.652344 18.394531v.003907c-1.832032 7.324219-12.25 7.324219-14.082032 0v-.003907c-7.746093-30.9375-46.476562-41.316406-68.652343-18.394531-5.253907 5.429688-14.273438.222657-12.195313-7.039062 8.761719-30.667969-19.59375-59.023438-50.257812-50.257813-7.261719 2.074219-12.472656-6.945312-7.042969-12.195312 22.925781-22.179688 12.546875-60.910156-18.394531-68.65625-7.328125-1.832032-7.328125-12.246094 0-14.082032 30.941406-7.746093 41.320312-46.476562 18.394531-68.652343-5.429687-5.253907-.21875-14.273438 7.042969-12.195313 30.667968 8.765625 59.019531-19.589844 50.257812-50.257812-2.078125-7.265625 6.941406-12.46875 12.195313-7.042969 22.175781 22.921875 60.90625 12.546875 68.652343-18.394531 1.832032-7.328125 12.25-7.328125 14.082032 0zm0 0" fill="#fff"/><path d="m310.808594 5.496094c7.742187 30.941406 46.476562 41.316406 68.652344 18.394531 5.253906-5.425781 14.273437-.222656 12.195312 7.042969-8.761719 30.667968 19.59375 59.023437 50.261719 50.257812 7.261719-2.074218 12.46875 6.941406 7.039062 12.195313-22.921875 22.175781-12.542969 60.90625 18.394531 68.652343 7.328126 1.835938 7.328126 12.25 0 14.082032-30.9375 7.746094-41.316406 46.476562-18.394531 68.65625 5.429688 5.25.222657 14.269531-7.039062 12.195312-30.667969-8.765625-59.023438 19.589844-50.261719 50.257813 2.074219 7.261719-6.941406 12.46875-12.195312 7.039062-22.175782-22.921875-60.910157-12.542969-68.652344 18.394531v.003907c-1.832032 7.324219-12.25 7.324219-14.082032 0v-.003907c-7.746093-30.9375-46.476562-41.316406-68.652343-18.394531-5.253907 5.429688-14.273438.222657-12.195313-7.039062 8.761719-30.667969-19.59375-59.023438-50.257812-50.257813-7.261719 2.074219-12.472656-6.945312-7.042969-12.195312 22.925781-22.179688 12.546875-60.910156-18.394531-68.65625-7.328125-1.832032-7.328125-12.246094 0-14.082032 30.941406-7.746093 41.320312-46.476562 18.394531-68.652343-5.429687-5.253907-.21875-14.273438 7.042969-12.195313 30.667968 8.765625 59.019531-19.589844 50.257812-50.257812-2.078125-7.265625 6.941406-12.46875 12.195313-7.042969 22.175781 22.921875 60.90625 12.546875 68.652343-18.394531 1.832032-7.328125 12.25-7.328125 14.082032 0zm0 0" fill="url(#o)"/><path d="m441.652344 169.082031c0 76.148438-61.734375 137.882813-137.882813 137.882813-76.152343 0-137.886719-61.734375-137.886719-137.882813 0-76.152343 61.734376-137.886719 137.886719-137.886719 76.148438 0 137.882813 61.734376 137.882813 137.886719zm0 0" fill="url(#p)"/><path d="m417.839844 169.082031c0 63-51.070313 114.070313-114.070313 114.070313-63.003906 0-114.074219-51.070313-114.074219-114.070313 0-63.003906 51.070313-114.074219 114.074219-114.074219 63 0 114.070313 51.070313 114.070313 114.074219zm0 0" fill="url(#q)"/><path d="m407.003906 169.082031c0 57.015625-46.222656 103.234375-103.234375 103.234375-57.015625 0-103.238281-46.21875-103.238281-103.234375s46.222656-103.238281 103.238281-103.238281c57.011719 0 103.234375 46.222656 103.234375 103.238281zm0 0" fill="url(#r)"/><path d="m215.875 292.171875c-2.074219 7.261719 6.945312 12.46875 12.195312 7.039063 22.179688-22.921876 60.910157-12.542969 68.65625 18.398437 1.832032 7.324219 12.246094 7.324219 14.082032 0 7.742187-30.941406 46.476562-41.320313 68.652344-18.398437 5.253906 5.429687 14.273437.222656 12.195312-7.039063-2.898438-10.140625 5.058594-18.101563 8.125-22.503906l-73.417969-73.414063c-8.738281-9.265625-21.117187-15.054687-34.859375-15.054687-9.730468 0-18.773437 2.910156-26.332031 7.894531-.121094-.117188-11.628906-11.628906-12.300781-12.28125-16.628906-17.148438-39.902344-27.8125-65.675782-27.8125-16.742187 0-32.433593 4.5-45.929687 12.355469 30.09375 8.367187 39.964844 46.445312 17.3125 68.363281-5.429687 5.253906-.222656 14.269531 7.039063 12.195312 30.667968-8.765624 59.023437 19.589844 50.257812 50.257813zm0 0" fill="url(#s)"/><path d="m339.429688 240.484375c-.457032 0-.914063.007813-1.371094.019531.886718-3.652344 1.371094-7.460937 1.371094-11.382812 0-26.464844-21.457032-47.921875-47.925782-47.921875-10.410156 0-20.039062 3.332031-27.898437 8.96875-16.363281-24.800781-44.472657-41.167969-76.410157-41.167969-50.527343 0-91.484374 40.960938-91.484374 91.488281 0 .308594.007812.617188.011718.925781-32.097656 5.335938-56.570312 33.230469-56.570312 66.84375 0 37.429688 30.34375 67.773438 67.773437 67.773438h232.503907c37.429687 0 67.773437-30.34375 67.773437-67.773438 0-37.429687-30.34375-67.773437-67.773437-67.773437zm0 0" fill="url(#t)"/><path d="m407.203125 308.257812c0 37.433594-30.34375 67.773438-67.773437 67.773438-37.429688 0-67.773438-30.339844-67.773438-67.773438 0-37.429687 30.34375-67.773437 67.773438-67.773437 37.429687 0 67.773437 30.34375 67.773437 67.773437zm0 0" fill="url(#v)"/><path d="m339.429688 229.121094c0 26.46875-21.457032 47.925781-47.925782 47.925781-26.464844 0-47.921875-21.457031-47.921875-47.925781 0-26.464844 21.457031-47.921875 47.921875-47.921875 26.46875 0 47.925782 21.457031 47.925782 47.921875zm0 0" fill="url(#w)"/><path d="m278.683594 240.484375c0 50.527344-40.960938 91.488281-91.488282 91.488281-50.523437 0-91.484374-40.960937-91.484374-91.488281 0-50.523437 40.960937-91.484375 91.484374-91.484375 50.527344 0 91.488282 40.960938 91.488282 91.484375zm0 0" fill="url(#x)"/><path d="m174.699219 308.257812c0 37.433594-30.34375 67.773438-67.773438 67.773438-37.429687 0-67.773437-30.339844-67.773437-67.773438 0-37.429687 30.34375-67.773437 67.773437-67.773437 37.429688 0 67.773438 30.34375 67.773438 67.773437zm0 0" fill="url(#y)"/><path d="m39.78125 317.488281c4.503906 33.0625 32.847656 58.542969 67.144531 58.542969h232.503907c34.296874 0 62.640624-25.480469 67.144531-58.542969zm0 0" fill="url(#z)"/><path d="m231.863281 376.03125-3.535156-3.535156c-5.019531-5.421875-12.195313-8.820313-20.167969-8.820313-.09375 0-.1875.007813-.277344.011719-.058593-.054688-.109374-.109375-.164062-.160156l-18.140625-18.140625c-7.886719-8.261719-19.003906-13.414063-31.328125-13.414063-23.933594 0-43.335938 19.398438-43.335938 43.332032 0 .117187.011719.234374.011719.355468-.519531.105469-1.027343.230469-1.527343.371094zm0 0" fill="url(#A)"/><path d="m389.984375 353.378906c-12.398437 13.894532-30.449219 22.652344-50.558594 22.652344h-81.175781l-34.414062-34.597656c-1.066407-.5625-1.867188-1.535156-2.21875-2.710938-.121094-.398437-.183594-.832031-.183594-1.273437 0-2.128907 1.46875-3.90625 3.445312-4.378907-.109375-.15625-.210937-.320312-.300781-.480468l-7.53125-7.527344c-.378906-.203125-.753906-.472656-1.074219-.804688-1.765625-1.757812-1.765625-4.605468 0-6.375l1.347656-1.34375c-.050781-.03125-.101562-.0625-.152343-.09375-.058594-.046874-.128907-.097656-.191407-.148437-.078124-.0625-.160156-.121094-.230468-.179687-.070313-.0625-.128906-.113282-.191406-.171876-.070313-.070312-.140626-.128906-.199219-.199218-.0625-.0625-.121094-.132813-.179688-.191406-.0625-.070313-.121093-.140626-.183593-.222657-.058594-.070312-.109376-.140625-.160157-.210937-.050781-.070313-.109375-.148438-.160156-.21875-.03125-.050782-.050781-.089844-.078125-.140625-.011719-.011719-.03125-.023438-.050781-.03125-.082031-.050781-.171875-.109375-.253907-.171875-.066406-.039063-.128906-.089844-.199218-.140625-.070313-.058594-.148438-.121094-.230469-.191407-.058594-.050781-.121094-.109374-.179687-.167968-.070313-.0625-.140626-.132813-.210938-.203125-.0625-.058594-.113281-.121094-.171875-.191407-.058594-.066406-.128906-.140624-.179687-.207031-.0625-.070312-.109376-.144531-.160157-.222656-.0625-.070313-.113281-.140625-.160156-.222656-.050781-.078125-.101563-.160157-.152344-.238281-.039062-.070313-.089843-.152344-.128906-.230469-.042969-.082031-.082031-.171875-.132813-.261719-.03125-.082031-.070312-.152344-.101562-.230469-.039062-.101562-.070312-.191406-.109375-.292969-.027344-.078124-.058594-.148437-.078125-.230468-.03125-.109375-.0625-.210938-.082031-.320313-.019531-.070312-.039063-.148437-.058594-.222656-.019531-.128906-.042969-.25-.050781-.367187-.011719-.070313-.019532-.132813-.03125-.203126-.019532-.191406-.03125-.382812-.03125-.570312 0-.203125.011718-.394531.03125-.582031.011718-.070313.019531-.132813.03125-.191407.007812-.128906.03125-.25.050781-.371093.019531-.082031.039063-.152344.058594-.230469.019531-.101562.050781-.210938.082031-.320312.019531-.082032.050781-.152344.078125-.234376.039063-.097656.070313-.1875.109375-.289062.03125-.082031.070312-.152344.101562-.230469.050782-.089843.089844-.179687.132813-.261719.039063-.082031.089844-.160156.128906-.230468.050781-.082032.101563-.160156.152344-.242188.046875-.078125.097656-.148437.160156-.21875.050781-.070312.097657-.152344.160157-.222656.050781-.070312.121093-.140625.179687-.210938.058594-.0625.109375-.132812.171875-.191406.070312-.070312.140625-.140625.210938-.199218.058593-.058594.121093-.121094.179687-.171876.082031-.058593.160156-.128906.230469-.1875.070312-.050781.132812-.09375.199218-.144531.082032-.058593.171876-.117187.253907-.167969.070312-.042968.128906-.082031.199219-.121093.089843-.050781.179687-.101563.28125-.148438.070312-.042969.132812-.070312.203124-.101562.097657-.050781.199219-.09375.300782-.132813.070312-.019531.140625-.050781.210937-.070312.097657-.039063.210938-.070313.308594-.097656.082031-.023438.152344-.042969.222656-.0625.109375-.03125.21875-.050782.332031-.070313.070313-.011719.148438-.019531.21875-.03125.121094-.019531.230469-.039063.34375-.039063.027344-.007812.046876-.007812.070313-.007812l-2.261719-2.269531c-1.765625-1.769531-1.765625-4.621094 0-6.378907 1.757813-1.765624 4.609375-1.765624 6.375 0l8.625 8.625h8.484375l-6.488281-6.804687c-.078125-.191406-.140625-.394531-.179688-.605469-.050781-.210937-.070312-.429687-.070312-.648437 0-.222657.019531-.433594.058594-.636719-.589844-.410156-1.070313-.960938-1.414063-1.605469l-7.527343-7.527343c-1.425782-.753907-2.402344-2.25-2.402344-3.988282 0-2.488281 2.019531-4.503906 4.507812-4.503906h5l-.613281-.613281c-1.753906-1.757813-1.753906-4.617188 0-6.375.886719-.882813 2.039063-1.324219 3.195313-1.324219.863281 0 1.726562.25 2.476562.742188.253906.167968.484375.359374.703125.582031l.625.613281v-5.011719c0-2.488281 2.015625-4.507812 4.507813-4.507812 1.726562 0 3.222656.972656 3.984374 2.410156l7.519532 7.527344c.640625.332031 1.195312.824219 1.597656 1.40625.210938-.039063.429688-.058594.652344-.058594.21875 0 .441406.019531.652344.058594.210937.050781.410156.109375.601562.191406.339844.140625.640625.339844.902344.582031l4.738281 5.058594c.34375.152344.644531.34375.914063.582031.082031.082031.171874.171875.25.261719v-8.472656l-1.101563-1.105469-1.890625-1.875-1.875-1.886719-3.765625-3.765625c-1.757813-1.757812-1.757813-4.609375 0-6.375 1.757813-1.757812 4.617187-1.757812 6.375 0l2.269531 2.269531c0-.023437.011719-.050781.011719-.070312.007813-.121094.019531-.230469.039063-.34375.007812-.078125.019531-.148438.03125-.21875.019531-.113281.046874-.222656.066406-.332031.023437-.070313.042968-.152344.0625-.222657.03125-.109374.058594-.210937.101562-.3125.019532-.066406.046875-.140624.078125-.210937.039063-.097656.082031-.199219.121094-.300781.03125-.070313.070313-.140625.101563-.210938.050781-.089844.097656-.179687.148437-.269531.042969-.070313.082031-.140625.121094-.203125.0625-.089844.109375-.167969.171875-.257812.050781-.0625.097656-.132813.148437-.191407.0625-.082031.121094-.152343.183594-.230469.058594-.0625.109375-.121093.167969-.179687.070312-.070313.132812-.144531.203125-.210937.058593-.0625.128906-.121094.191406-.171876.070313-.070312.140625-.132812.21875-.191406.070313-.050781.140625-.109375.210937-.160156.070313-.050781.152344-.109375.222657-.160156.078125-.050782.160156-.089844.238281-.140625.082031-.050781.152344-.089844.230469-.132813.09375-.046875.183593-.089844.261719-.128906.082031-.039062.160156-.070312.242187-.109375.089844-.042969.191406-.070313.28125-.101563.078125-.03125.160156-.0625.242187-.082031.097657-.027343.207032-.058593.320313-.078125.070313-.019531.140625-.039062.21875-.058594.121094-.023437.253906-.042968.371094-.0625.0625 0 .132812-.019531.191406-.019531.191406-.019531.382813-.03125.582031-.03125.191406 0 .394532.011719.582032.03125.0625 0 .132812.019531.191406.019531.121094.019532.25.039063.371094.0625.082031.019532.152343.039063.222656.058594.109375.019532.21875.050782.320312.078125.082032.023438.160156.050781.242188.082031.089844.03125.191406.058594.28125.101563.078125.039063.160156.070313.238281.109375.082031.039062.171875.082031.261719.128906.082031.042969.152344.09375.230468.132813.082032.050781.160157.089843.230469.140625.082031.050781.152344.109375.234375.160156.070313.050781.140625.109375.207032.160156.082031.0625.152343.121094.222656.191406.058594.050782.121094.109376.191406.171876.070312.066406.128906.140624.199219.210937.050781.058594.113281.117187.171875.179687.058594.078126.121094.148438.179687.230469.050781.058594.101563.128907.152344.191407.058594.089843.109375.167968.167969.257812.011718.011719.023437.03125.03125.050781.039062.023438.089844.050781.132812.082031.078125.050782.148438.101563.21875.160157.070313.050781.152344.101562.222656.160156l.210938.179687c.058594.0625.128906.113282.1875.171876.070312.070312.140625.140624.203125.210937.058594.0625.121094.121094.171875.179687.058594.082032.128906.164063.1875.242188.050781.0625.09375.121094.140625.191406.03125.050782.070313.089844.101563.140625l1.34375-1.34375c1.757812-1.757812 4.609374-1.757812 6.375 0 .324218.328125.59375.691407.792968 1.082031l7.53125 7.527344c.171875.09375.332032.191406.480469.304688.484375-1.980469 2.261719-3.453125 4.378906-3.453125 1.738281 0 3.230469.972656 3.984375 2.40625 0 0 56.460938 56.53125 88.949219 89.148437zm0 0" fill="url(#B)"/><path d="m269.445312 366.433594c-3.199218 0-5.796874-2.59375-5.796874-5.792969v-38.28125c0-3.199219 2.597656-5.792969 5.796874-5.792969 3.203126 0 5.796876 2.59375 5.796876 5.792969v38.28125c0 3.199219-2.59375 5.792969-5.796876 5.792969zm0 0" fill="url(#D)"/><path d="m269.445312 303.105469c-3.199218 0-5.796874-2.59375-5.796874-5.796875v-38.277344c0-3.203125 2.597656-5.796875 5.796874-5.796875 3.203126 0 5.796876 2.59375 5.796876 5.796875v38.277344c0 3.203125-2.59375 5.796875-5.796876 5.796875zm0 0" fill="url(#E)"/><path d="m256.921875 315.632812h-38.277344c-3.203125 0-5.796875-2.597656-5.796875-5.796874 0-3.199219 2.59375-5.796876 5.796875-5.796876h38.277344c3.199219 0 5.796875 2.597657 5.796875 5.796876 0 3.199218-2.597656 5.796874-5.796875 5.796874zm0 0" fill="url(#F)"/><path d="m320.25 315.632812h-38.277344c-3.203125 0-5.796875-2.597656-5.796875-5.796874 0-3.199219 2.59375-5.796876 5.796875-5.796876h38.277344c3.203125 0 5.796875 2.597657 5.796875 5.796876 0 3.199218-2.59375 5.796874-5.796875 5.796874zm0 0" fill="url(#G)"/><path d="m233.523438 350.265625c-1.152344 0-2.308594-.4375-3.1875-1.320313-1.761719-1.761718-1.761719-4.617187 0-6.375l27.066406-27.066406c1.757812-1.761718 4.613281-1.761718 6.375 0 1.761718 1.761719 1.761718 4.617188 0 6.378906l-27.066406 27.0625c-.878907.878907-2.035157 1.320313-3.1875 1.320313zm0 0" fill="url(#H)"/><path d="m278.304688 305.484375c-1.152344 0-2.308594-.4375-3.1875-1.320313-1.761719-1.761718-1.761719-4.613281 0-6.375l27.0625-27.066406c1.761718-1.761718 4.617187-1.761718 6.378906 0 1.757812 1.761719 1.757812 4.617188-.003906 6.378906l-27.0625 27.0625c-.878907.882813-2.035157 1.320313-3.1875 1.320313zm0 0" fill="url(#I)"/><path d="m260.589844 305.484375c-1.15625 0-2.308594-.4375-3.1875-1.320313l-27.066406-27.0625c-1.761719-1.761718-1.761719-4.617187 0-6.378906 1.761718-1.761718 4.613281-1.761718 6.375 0l27.066406 27.066406c1.761718 1.761719 1.761718 4.613282 0 6.375-.878906.882813-2.035156 1.320313-3.1875 1.320313zm0 0" fill="url(#J)"/><path d="m305.367188 350.265625c-1.152344 0-2.304688-.4375-3.1875-1.320313l-27.0625-27.0625c-1.761719-1.761718-1.761719-4.617187 0-6.378906 1.757812-1.761718 4.613281-1.761718 6.375 0l27.066406 27.066406c1.757812 1.757813 1.757812 4.613282 0 6.375-.882813.878907-2.035156 1.320313-3.191406 1.320313zm0 0" fill="url(#K)"/><path d="m275.246094 322.359375v12.128906l-11.597656-11.597656v-.53125c0-3.199219 2.597656-5.792969 5.796874-5.792969 3.203126 0 5.800782 2.59375 5.800782 5.792969zm0 0" fill="url(#M)"/><path d="m263.648438 336.792969h11.597656v12.855469l-11.59375-11.589844h-.003906zm0 0" fill="url(#N)"/><path d="m282.445312 304.058594 11.578126 11.574218h-12.050782c-3.203125 0-5.796875-2.597656-5.796875-5.796874 0-3.203126 2.59375-5.796876 5.796875-5.796876h.542969zm0 0" fill="url(#O)"/><path d="m309.273438 315.632812h-13.410157v-11.59375h1.816407zm0 0" fill="url(#P)"/><path d="m305.367188 350.265625c-1.152344 0-2.304688-.4375-3.1875-1.320313l-27.0625-27.0625c-1.761719-1.761718-1.761719-4.617187 0-6.378906 1.757812-1.761718 4.613281-1.761718 6.375 0l27.066406 27.066406c1.757812 1.757813 1.757812 4.613282 0 6.375-.882813.878907-2.035156 1.320313-3.191406 1.320313zm0 0" fill="url(#Q)"/><path d="m275.242188 282.960938v-23.929688c0-.136719-.003907-.269531-.015626-.402344l-5.78125 5.78125-5.78125-5.78125c-.007812.132813-.015624.265625-.015624.402344v12.335938zm0 0" fill="url(#R)"/><path d="m307.941406 277.714844-10.882812 10.882812-3.113282-3.113281c-.859374-.820313-1.398437-1.976563-1.398437-3.257813v-1.871093l9.019531-9.015625zm0 0" fill="url(#S)"/><path d="m277.496094 256.363281-8.050782 8.046875-8.046874-8.046875c-1.761719-1.761719-4.617188-1.761719-6.378907 0-1.757812 1.761719-1.757812 4.613281 0 6.375l11.238281 11.238281c.878907.878907 2.035157 1.320313 3.1875 1.320313 1.152344 0 2.308594-.441406 3.1875-1.320313l11.238282-11.238281c1.761718-1.761719 1.761718-4.613281 0-6.375-1.761719-1.761719-4.613282-1.761719-6.375 0zm0 0" fill="url(#T)"/><path d="m272.632812 345.695312c-1.757812-1.761718-4.613281-1.761718-6.375 0l-11.238281 11.234376c-1.757812 1.761718-1.757812 4.617187 0 6.378906 1.761719 1.757812 4.617188 1.757812 6.378907 0l8.046874-8.050782 8.050782 8.050782c.878906.878906 2.03125 1.320312 3.1875 1.320312 1.152344 0 2.308594-.441406 3.1875-1.320312 1.761718-1.761719 1.761718-4.617188 0-6.378906zm0 0" fill="url(#U)"/><path d="m314.871094 309.835938 8.046875-8.050782c1.761719-1.761718 1.761719-4.617187 0-6.375-1.757813-1.761718-4.613281-1.761718-6.375 0l-11.238281 11.234375c-1.761719 1.761719-1.761719 4.617188 0 6.378907l11.238281 11.234374c.878906.882813 2.035156 1.320313 3.1875 1.320313 1.152343 0 2.308593-.4375 3.1875-1.320313 1.761719-1.757812 1.761719-4.613281 0-6.375zm0 0" fill="url(#V)"/><path d="m233.585938 313.023438c1.761718-1.761719 1.761718-4.617188 0-6.378907l-11.234376-11.234375c-1.761718-1.761718-4.617187-1.761718-6.378906 0-1.761718 1.761719-1.761718 4.613282 0 6.375l8.050782 8.050782-8.050782 8.046874c-1.761718 1.761719-1.761718 4.617188 0 6.378907.882813.878906 2.035156 1.320312 3.1875 1.320312 1.15625 0 2.308594-.441406 3.191406-1.320312zm0 0" fill="url(#W)"/><path d="m297.058594 286.734375h15.890625c2.488281 0 4.507812-2.019531 4.507812-4.511719 0-2.488281-2.019531-4.503906-4.507812-4.503906h-11.382813v-11.386719c0-2.488281-2.019531-4.507812-4.507812-4.507812-2.488282 0-4.507813 2.019531-4.507813 4.507812v15.890625c-.003906 2.492188 2.015625 4.511719 4.507813 4.511719zm0 0" fill="url(#X)"/><path d="m241.835938 332.9375h-15.890626c-2.492187 0-4.511718 2.019531-4.511718 4.507812 0 2.488282 2.019531 4.507813 4.511718 4.507813h11.382813v11.382813c0 2.488281 2.019531 4.507812 4.507813 4.507812 2.488281 0 4.507812-2.019531 4.507812-4.507812v-15.890626c0-2.488281-2.015625-4.507812-4.507812-4.507812zm0 0" fill="url(#Y)"/><path d="m312.949219 332.9375h-15.894531c-2.488282 0-4.507813 2.019531-4.507813 4.507812v15.890626c0 2.488281 2.019531 4.507812 4.507813 4.507812 2.492187 0 4.511718-2.019531 4.511718-4.507812v-11.382813h11.382813c2.488281 0 4.507812-2.019531 4.507812-4.507813 0-2.488281-2.019531-4.507812-4.507812-4.507812zm0 0" fill="url(#Z)"/><path d="m241.835938 261.824219c-2.488282 0-4.507813 2.019531-4.507813 4.507812v11.382813h-11.382813c-2.492187 0-4.507812 2.019531-4.507812 4.507812 0 2.492188 2.015625 4.507813 4.507812 4.507813h15.890626c2.492187 0 4.507812-2.015625 4.507812-4.507813v-15.890625c0-2.488281-2.015625-4.507812-4.507812-4.507812zm0 0" fill="url(#aa)"/><path d="m275.246094 281.601562v15.707032c0 .125-.007813.242187-.011719.363281-.054687.886719-.308594 1.710937-.714844 2.445313l-10.871093-10.871094v-7.644532zm0 0" fill="url(#ab)"/><path d="m259.636719 314.960938c-.8125.429687-1.734375.671874-2.714844.671874h-15.707031v-11.59375h7.496094zm0 0" fill="url(#ac)"/><path d="m292.597656 293.0625-5.335937 5.332031-5.769531 5.773438c-.882813.875-2.035157 1.316406-3.1875 1.316406-1.15625 0-2.308594-.441406-3.191407-1.316406-.835937-.839844-1.277343-1.929688-1.316406-3.03125-.042969-1.207031.398437-2.425781 1.316406-3.347657l.117188-.117187 5.65625-5.652344 5.332031-5.335937zm0 0" fill="url(#ad)"/><path d="m265.097656 301.136719c-.042968 1.101562-.484375 2.191406-1.320312 3.03125-.839844.835937-1.925782 1.277343-3.027344 1.316406-.050781.003906-.109375.003906-.160156.003906-1.152344 0-2.308594-.441406-3.1875-1.320312l-.121094-.117188-5.652344-5.65625-5.332031-5.332031 6.375-6.378906 5.332031 5.335937 5.65625 5.652344.117188.117187c.921875.921876 1.363281 2.140626 1.320312 3.347657zm0 0" fill="url(#ae)"/><path d="m269.445312 324.082031c-3.804687 0-7.382812-1.480469-10.074218-4.171875s-4.171875-6.269531-4.171875-10.074218c0-3.804688 1.480469-7.382813 4.171875-10.074219 2.691406-2.691407 6.269531-4.175781 10.074218-4.175781 3.808594 0 7.386719 1.484374 10.078126 4.175781 2.691406 2.691406 4.171874 6.269531 4.171874 10.074219 0 3.804687-1.480468 7.382812-4.171874 10.074218-2.691407 2.691406-6.269532 4.171875-10.078126 4.171875zm0-20.953125c-1.789062 0-3.472656.695313-4.742187 1.964844-1.265625 1.265625-1.960937 2.949219-1.960937 4.742188 0 1.789062.695312 3.476562 1.960937 4.742187 1.269531 1.265625 2.953125 1.964844 4.742187 1.964844 1.792969 0 3.476563-.699219 4.742188-1.964844 1.269531-1.265625 1.964844-2.953125 1.964844-4.742187 0-1.792969-.699219-3.476563-1.964844-4.742188-1.265625-1.269531-2.949219-1.964844-4.742188-1.964844zm0 0" fill="url(#ag)"/><path d="m279.578125 338.066406h-20.265625c-1 0-1.957031-.398437-2.664062-1.105468l-14.328126-14.328126c-.707031-.707031-1.105468-1.667968-1.105468-2.664062v-20.265625c0-1 .398437-1.960937 1.105468-2.667969l14.328126-14.328125c.707031-.707031 1.664062-1.105469 2.664062-1.105469h20.265625c1 0 1.960937.398438 2.667969 1.105469l14.328125 14.328125c.707031.707032 1.105469 1.667969 1.105469 2.667969v20.265625c0 .996094-.398438 1.957031-1.105469 2.664062l-14.328125 14.328126c-.707032.707031-1.667969 1.105468-2.667969 1.105468zm-18.699219-7.542968h17.136719l12.121094-12.117188v-17.140625l-12.121094-12.121094h-17.136719l-12.121094 12.121094v17.140625zm0 0" fill="url(#ah)"/><path d="m258.820312 276.328125c0 1.78125-1.445312 3.226563-3.226562 3.226563s-3.222656-1.445313-3.222656-3.226563 1.441406-3.222656 3.222656-3.222656 3.226562 1.441406 3.226562 3.222656zm0 0" fill="url(#ai)"/><path d="m286.542969 276.328125c0 1.78125-1.445313 3.226563-3.226563 3.226563s-3.226562-1.445313-3.226562-3.226563 1.445312-3.226563 3.226562-3.226563 3.226563 1.445313 3.226563 3.226563zm0 0" fill="url(#aj)"/><path d="m258.820312 343.339844c0 1.78125-1.445312 3.226562-3.226562 3.226562s-3.222656-1.445312-3.222656-3.226562 1.441406-3.222656 3.222656-3.222656 3.226562 1.441406 3.226562 3.222656zm0 0" fill="url(#ak)"/><path d="m286.542969 343.339844c0 1.78125-1.445313 3.226562-3.226563 3.226562s-3.226562-1.445312-3.226562-3.226562 1.445312-3.222656 3.226562-3.222656 3.226563 1.441406 3.226563 3.222656zm0 0" fill="url(#al)"/><path d="m306.1875 295.972656c0 1.78125-1.445312 3.226563-3.226562 3.226563s-3.226563-1.445313-3.226563-3.226563 1.445313-3.222656 3.226563-3.222656 3.226562 1.441406 3.226562 3.222656zm0 0" fill="url(#am)"/><path d="m306.1875 323.695312c0 1.78125-1.445312 3.226563-3.226562 3.226563s-3.222657-1.445313-3.222657-3.226563 1.441407-3.222656 3.222657-3.222656 3.226562 1.441406 3.226562 3.222656zm0 0" fill="url(#an)"/><path d="m239.175781 295.972656c0 1.78125-1.445312 3.226563-3.226562 3.226563s-3.226563-1.445313-3.226563-3.226563 1.445313-3.222656 3.226563-3.222656 3.226562 1.441406 3.226562 3.222656zm0 0" fill="url(#ao)"/><path d="m239.175781 323.695312c0 1.78125-1.445312 3.226563-3.226562 3.226563s-3.226563-1.445313-3.226563-3.226563 1.445313-3.226562 3.226563-3.226562 3.226562 1.445312 3.226562 3.226562zm0 0" fill="url(#ap)"/><path d="m326.046875 309.835938c0-3.070313-2.378906-5.578126-5.394531-5.785157l2.265625-2.265625c1.761719-1.761718 1.761719-4.617187 0-6.375-1.761719-1.761718-4.613281-1.761718-6.375 0l-8.628907 8.628906h-10.234374v-4.335937c0-1-.398438-1.960937-1.105469-2.664063l-3.976563-3.976562 4.460938-4.464844 1.867187-1.863281h14.023438c2.488281 0 4.507812-2.019531 4.507812-4.507813 0-2.492187-2.019531-4.507812-4.507812-4.507812h-5.007813l.617188-.617188c1.757812-1.761718 1.757812-4.613281 0-6.375-1.761719-1.761718-4.617188-1.761718-6.378906 0l-.613282.613282v-5.003906c0-2.492188-2.019531-4.511719-4.507812-4.511719-2.492188 0-4.511719 2.019531-4.511719 4.511719v14.023437l-6.324219 6.328125-3.976562-3.976562c-.707032-.707032-1.667969-1.105469-2.667969-1.105469h-4.332031v-10.238281l8.625-8.625c1.761718-1.761719 1.761718-4.617188 0-6.378907-1.757813-1.757812-4.613282-1.757812-6.375 0l-2.265625 2.269531c-.207031-3.015624-2.71875-5.398437-5.78125-5.398437-3.066407 0-5.578125 2.382813-5.785157 5.398437l-2.265624-2.269531c-1.761719-1.757812-4.617188-1.757812-6.375 0-1.761719 1.761719-1.761719 4.617188 0 6.378907l8.628906 8.625v10.238281h-4.335938c-1 0-1.960937.398437-2.667968 1.105469l-3.976563 3.976562-6.324219-6.328125v-14.023437c0-2.492188-2.019531-4.511719-4.511718-4.511719-2.488282 0-4.507813 2.019531-4.507813 4.511719v5.003906l-.613281-.613282c-1.761719-1.761718-4.617188-1.761718-6.378906 0-1.757813 1.761719-1.757813 4.613282 0 6.375l.617187.617188h-5.007813c-2.488281 0-4.507812 2.015625-4.507812 4.507812 0 2.488282 2.019531 4.507813 4.507812 4.507813h14.023438l6.328125 6.328125-3.976563 3.976562c-.707031.707032-1.101562 1.664063-1.101562 2.664063v4.335937h-10.238281l-8.625-8.628906c-1.761719-1.761718-4.617188-1.761718-6.378907 0-1.761718 1.761719-1.761718 4.617188 0 6.375l2.265626 2.269532c-3.011719.203124-5.394532 2.714843-5.394532 5.78125 0 3.066406 2.382813 5.574218 5.394532 5.78125l-2.265626 2.265624c-1.761718 1.761719-1.761718 4.617188 0 6.378907.878907.878906 2.035157 1.320312 3.1875 1.320312 1.15625 0 2.308594-.441406 3.191407-1.320312l8.625-8.628907h10.238281v4.335938c0 1 .394531 1.957031 1.101562 2.664062l3.976563 3.976563-6.328125 6.328125h-14.023438c-2.488281 0-4.507812 2.019531-4.507812 4.507812 0 2.492188 2.019531 4.507813 4.507812 4.507813h5.007813l-.617187.617187c-1.757813 1.757813-1.757813 4.613282 0 6.375.882812.882813 2.035156 1.320313 3.191406 1.320313 1.152344 0 2.304687-.4375 3.1875-1.320313l.613281-.613281v5.003907c0 2.492187 2.019531 4.511718 4.507813 4.511718 2.492187 0 4.511718-2.019531 4.511718-4.511718v-14.023438l6.324219-6.328125 3.976563 3.976563c.707031.707031 1.667968 1.105468 2.667968 1.105468h4.335938v10.234375l-8.628906 8.628907c-1.761719 1.761718-1.761719 4.617187 0 6.378906 1.757812 1.761718 4.613281 1.761718 6.375 0l2.265624-2.269532c.207032 3.015626 2.71875 5.398438 5.785157 5.398438 3.066406 0 5.574219-2.382812 5.78125-5.398438l2.265625 2.269532c.878906.878906 2.035156 1.320312 3.1875 1.320312 1.15625 0 2.308594-.441406 3.1875-1.320312 1.761718-1.761719 1.761718-4.617188 0-6.378906l-8.625-8.625v-10.238282h4.332031c1 0 1.960937-.398437 2.667969-1.105468l3.976562-3.976563 6.324219 6.328125v14.023438c0 2.492187 2.019531 4.511718 4.511719 4.511718 2.488281 0 4.507812-2.019531 4.507812-4.511718v-5.003907l.613282.613281c.882812.882813 2.035156 1.320313 3.191406 1.320313 1.152344 0 2.304687-.4375 3.1875-1.320313 1.757812-1.761718 1.757812-4.617187 0-6.375l-.617188-.617187h5.007813c2.488281 0 4.507812-2.015625 4.507812-4.507813 0-2.488281-2.019531-4.507812-4.507812-4.507812h-14.023438l-6.328125-6.328125 3.976563-3.976563c.707031-.707031 1.105469-1.664062 1.105469-2.664062v-4.335938h10.234374l8.628907 8.628907c.878906.878906 2.035156 1.320312 3.1875 1.320312 1.152343 0 2.304687-.441406 3.1875-1.320312 1.761719-1.761719 1.761719-4.617188 0-6.378907l-2.265625-2.265624c3.011718-.207032 5.394531-2.714844 5.394531-5.78125zm-65.167969-20.691407h2.769532v7.671875c-.191407.085938-.382813.175782-.574219.269532l-1.449219-1.445313-3.621094-3.621094zm-12.121094 12.121094 2.871094-2.871094 5.070313 5.070313c-.097657.1875-.1875.378906-.273438.574218h-7.671875v-2.773437zm2.871094 20.011719-2.871094-2.871094v-2.773438h7.667969c.089844.191407.179688.382813.273438.574219zm12.019532 9.246094h-2.769532l-2.875-2.871094 5.070313-5.070313c.191406.097657.382812.1875.574219.273438v.039062h.003906v7.628907zm10.539062-15.945313c-1.265625 1.265625-2.949219 1.964844-4.742188 1.964844-1.789062 0-3.476562-.699219-4.742187-1.964844-1.265625-1.269531-1.964844-2.953125-1.964844-4.742187 0-1.792969.699219-3.476563 1.964844-4.746094 1.269531-1.265625 2.953125-1.960938 4.742187-1.960938 1.792969 0 3.476563.695313 4.742188 1.960938 1.265625 1.269531 1.964844 2.953125 1.964844 4.746094 0 1.789062-.699219 3.472656-1.964844 4.742187zm3.828125 15.945313h-2.769531v-7.667969c.191406-.085938.382812-.179688.574218-.273438l5.066407 5.070313zm-.746094-34.886719-1.449219 1.449219c-.191406-.09375-.382812-.183594-.574218-.273438v-7.667969h2.769531l2.871094 2.871094zm12.867188 22.765625-2.871094 2.871094-5.070313-5.066407c.09375-.191406.1875-.382812.273438-.574219h7.667969zm0-14.363282h-7.625.003906-.050781c-.085938-.195312-.175782-.386718-.269532-.574218l5.070313-5.070313 2.871094 2.871094zm0 0" fill="url(#ar)"/><path d="m258.820312 276.328125c0 1.78125-1.445312 3.226563-3.226562 3.226563s-3.222656-1.445313-3.222656-3.226563 1.441406-3.222656 3.222656-3.222656 3.226562 1.441406 3.226562 3.222656zm0 0" fill="url(#as)"/><path d="m286.542969 276.328125c0 1.78125-1.445313 3.226563-3.226563 3.226563s-3.226562-1.445313-3.226562-3.226563 1.445312-3.226563 3.226562-3.226563 3.226563 1.445313 3.226563 3.226563zm0 0" fill="url(#at)"/><path d="m258.820312 343.339844c0 1.78125-1.445312 3.226562-3.226562 3.226562s-3.222656-1.445312-3.222656-3.226562 1.441406-3.222656 3.222656-3.222656 3.226562 1.441406 3.226562 3.222656zm0 0" fill="url(#au)"/><path d="m286.542969 343.339844c0 1.78125-1.445313 3.226562-3.226563 3.226562s-3.226562-1.445312-3.226562-3.226562 1.445312-3.222656 3.226562-3.222656 3.226563 1.441406 3.226563 3.222656zm0 0" fill="url(#av)"/><path d="m306.1875 295.972656c0 1.78125-1.445312 3.226563-3.226562 3.226563s-3.226563-1.445313-3.226563-3.226563 1.445313-3.222656 3.226563-3.222656 3.226562 1.441406 3.226562 3.222656zm0 0" fill="url(#aw)"/><path d="m306.1875 323.695312c0 1.78125-1.445312 3.226563-3.226562 3.226563s-3.222657-1.445313-3.222657-3.226563 1.441407-3.222656 3.222657-3.222656 3.226562 1.441406 3.226562 3.222656zm0 0" fill="url(#ax)"/><path d="m239.175781 295.972656c0 1.78125-1.445312 3.226563-3.226562 3.226563s-3.226563-1.445313-3.226563-3.226563 1.445313-3.222656 3.226563-3.222656 3.226562 1.441406 3.226562 3.222656zm0 0" fill="url(#ay)"/><path d="m239.175781 323.695312c0 1.78125-1.445312 3.226563-3.226562 3.226563s-3.226563-1.445313-3.226563-3.226563 1.445313-3.226562 3.226563-3.226562 3.226562 1.445312 3.226562 3.226562zm0 0" fill="url(#az)"/><path d="m129.230469 510.441406c-5.210938 0-9.429688-4.222656-9.429688-9.429687v-62.277344c0-5.207031 4.21875-9.429687 9.429688-9.429687 5.207031 0 9.429687 4.222656 9.429687 9.429687v62.277344c0 5.207031-4.222656 9.429687-9.429687 9.429687zm0 0" fill="url(#aA)"/><path d="m129.230469 407.40625c-5.210938 0-9.429688-4.222656-9.429688-9.429688v-62.273437c0-5.207031 4.21875-9.429687 9.429688-9.429687 5.207031 0 9.429687 4.21875 9.429687 9.429687v62.273437c0 5.207032-4.222656 9.429688-9.429687 9.429688zm0 0" fill="url(#aB)"/><path d="m108.851562 427.785156h-62.277343c-5.207031 0-9.429688-4.222656-9.429688-9.429687 0-5.210938 4.222657-9.433594 9.429688-9.433594h62.277343c5.207032 0 9.429688 4.222656 9.429688 9.433594 0 5.207031-4.222656 9.429687-9.429688 9.429687zm0 0" fill="url(#aC)"/><path d="m211.882812 427.785156h-62.273437c-5.207031 0-9.429687-4.222656-9.429687-9.429687 0-5.210938 4.222656-9.433594 9.429687-9.433594h62.273437c5.210938 0 9.433594 4.222656 9.433594 9.433594-.003906 5.207031-4.226562 9.429687-9.433594 9.429687zm0 0" fill="url(#aD)"/><path d="m70.785156 484.132812c-1.875 0-3.753906-.714843-5.1875-2.148437-2.863281-2.863281-2.863281-7.507813 0-10.375l44.035156-44.03125c2.863282-2.863281 7.507813-2.863281 10.371094 0 2.867188 2.867187 2.867188 7.507813 0 10.375l-44.03125 44.03125c-1.429687 1.433594-3.308594 2.148437-5.1875 2.148437zm0 0" fill="url(#aE)"/><path d="m143.640625 411.28125c-1.878906 0-3.753906-.71875-5.1875-2.148438-2.863281-2.867187-2.863281-7.511718 0-10.375l44.03125-44.03125c2.867187-2.867187 7.511719-2.863281 10.375 0 2.863281 2.863282 2.863281 7.507813 0 10.371094l-44.03125 44.035156c-1.433594 1.429688-3.3125 2.148438-5.1875 2.148438zm0 0" fill="url(#aF)"/><path d="m114.820312 411.28125c-1.878906 0-3.757812-.71875-5.1875-2.148438l-44.03125-44.035156c-2.867187-2.863281-2.867187-7.507812 0-10.371094 2.863282-2.867187 7.507813-2.867187 10.371094 0l44.03125 44.03125c2.867188 2.863282 2.867188 7.507813 0 10.375-1.429687 1.429688-3.308594 2.148438-5.183594 2.148438zm0 0" fill="url(#aG)"/><path d="m187.671875 484.132812c-1.875 0-3.753906-.714843-5.1875-2.148437l-44.03125-44.03125c-2.863281-2.867187-2.863281-7.507813 0-10.375 2.867187-2.863281 7.507813-2.863281 10.375 0l44.03125 44.03125c2.863281 2.867187 2.863281 7.511719 0 10.375-1.433594 1.433594-3.308594 2.148437-5.1875 2.148437zm0 0" fill="url(#aH)"/><path d="m138.660156 438.734375v19.730469l-18.863281-18.863282v-.867187c0-5.207031 4.226563-9.429687 9.433594-9.429687s9.429687 4.222656 9.429687 9.429687zm0 0" fill="url(#aI)"/><path d="m119.796875 462.214844h18.863281v20.917968l-18.859375-18.863281-.003906.003907zm0 0" fill="url(#aJ)"/><path d="m150.378906 408.957031 18.832032 18.832031h-19.605469c-5.207031 0-9.425781-4.226562-9.425781-9.433593s4.21875-9.433594 9.425781-9.433594h.886719zm0 0" fill="url(#aK)"/><path d="m194.023438 427.785156h-21.8125v-18.863281h2.949218zm0 0" fill="url(#aL)"/><path d="m187.671875 484.132812c-1.875 0-3.753906-.714843-5.1875-2.148437l-44.03125-44.03125c-2.863281-2.867187-2.863281-7.507813 0-10.375 2.867187-2.863281 7.507813-2.863281 10.375 0l44.03125 44.03125c2.863281 2.867187 2.863281 7.511719 0 10.375-1.433594 1.433594-3.308594 2.148437-5.1875 2.148437zm0 0" fill="url(#aM)"/><path d="m138.660156 374.632812v-38.929687c0-.21875-.007812-.4375-.023437-.652344l-9.40625 9.40625-9.40625-9.40625c-.015625.214844-.023438.433594-.023438.652344v20.070313zm0 0" fill="url(#aN)"/><path d="m191.859375 366.097656-17.703125 17.707032-5.066406-5.066407c-1.402344-1.335937-2.273438-3.214843-2.273438-5.300781v-3.039062l14.671875-14.667969zm0 0" fill="url(#aO)"/><path d="m142.324219 331.363281-13.09375 13.09375-13.097657-13.09375c-2.863281-2.867187-7.507812-2.867187-10.371093 0-2.863281 2.863281-2.863281 7.507813 0 10.371094l18.28125 18.28125c1.433593 1.433594 3.308593 2.148437 5.1875 2.148437 1.875 0 3.753906-.714843 5.1875-2.148437l18.28125-18.28125c2.863281-2.863281 2.863281-7.507813 0-10.371094-2.867188-2.867187-7.511719-2.867187-10.375 0zm0 0" fill="url(#aP)"/><path d="m134.417969 476.695312c-2.867188-2.867187-7.511719-2.867187-10.375 0l-18.28125 18.28125c-2.863281 2.863282-2.863281 7.507813 0 10.375 2.863281 2.863282 7.507812 2.863282 10.371093 0l13.097657-13.097656 13.09375 13.097656c1.433593 1.429688 3.308593 2.148438 5.1875 2.148438 1.875 0 3.753906-.71875 5.1875-2.148438 2.863281-2.867187 2.863281-7.511718 0-10.375zm0 0" fill="url(#aQ)"/><path d="m203.128906 418.355469 13.097656-13.09375c2.863282-2.863281 2.863282-7.511719 0-10.375-2.867187-2.863281-7.511718-2.863281-10.375 0l-18.28125 18.28125c-2.863281 2.863281-2.863281 7.507812 0 10.375l18.28125 18.28125c1.433594 1.433593 3.308594 2.148437 5.1875 2.148437 1.875 0 3.753907-.714844 5.1875-2.148437 2.863282-2.867188 2.863282-7.507813 0-10.375zm0 0" fill="url(#aR)"/><path d="m70.890625 423.542969c2.863281-2.863281 2.863281-7.507813 0-10.375l-18.28125-18.28125c-2.867187-2.863281-7.511719-2.863281-10.375 0s-2.863281 7.511719 0 10.375l13.097656 13.09375-13.097656 13.09375c-2.863281 2.867187-2.863281 7.507812 0 10.375 1.433594 1.433593 3.308594 2.148437 5.1875 2.148437s3.753906-.714844 5.1875-2.148437zm0 0" fill="url(#aS)"/><path d="m174.148438 380.769531h25.855468c4.050782 0 7.335938-3.28125 7.335938-7.335937 0-4.050782-3.285156-7.335938-7.335938-7.335938h-18.519531v-18.515625c0-4.050781-3.285156-7.335937-7.335937-7.335937-4.050782 0-7.335938 3.285156-7.335938 7.335937v25.851563c.003906 4.054687 3.285156 7.335937 7.335938 7.335937zm0 0" fill="url(#aT)"/><path d="m84.308594 455.941406h-25.851563c-4.054687 0-7.335937 3.28125-7.335937 7.335938 0 4.050781 3.28125 7.332031 7.335937 7.332031h18.519531v18.519531c0 4.050782 3.28125 7.335938 7.332032 7.335938 4.050781 0 7.335937-3.285156 7.335937-7.335938v-25.851562c0-4.050782-3.285156-7.335938-7.335937-7.335938zm0 0" fill="url(#aU)"/><path d="m200.003906 455.941406h-25.855468c-4.050782 0-7.335938 3.28125-7.335938 7.335938v25.851562c0 4.050782 3.285156 7.335938 7.335938 7.335938 4.050781 0 7.335937-3.285156 7.335937-7.335938v-18.519531h18.519531c4.050782 0 7.335938-3.28125 7.335938-7.332031 0-4.050782-3.285156-7.335938-7.335938-7.335938zm0 0" fill="url(#aV)"/><path d="m84.308594 340.246094c-4.050782 0-7.332032 3.285156-7.332032 7.335937v18.519531h-18.519531c-4.054687 0-7.335937 3.285157-7.335937 7.335938s3.28125 7.332031 7.335937 7.332031h25.851563c4.050781 0 7.335937-3.28125 7.335937-7.332031v-25.855469c0-4.050781-3.285156-7.335937-7.335937-7.335937zm0 0" fill="url(#aW)"/><path d="m138.660156 372.425781v25.550781c0 .199219-.003906.394532-.015625.589844-.089843 1.441406-.5 2.789063-1.164062 3.980469l-17.683594-17.683594v-12.4375zm0 0" fill="url(#aX)"/><path d="m113.269531 426.695312c-1.320312.695313-2.820312 1.09375-4.417969 1.09375h-25.550781v-18.863281h12.195313zm0 0" fill="url(#aY)"/><path d="m166.894531 391.066406-8.679687 8.675782-9.386719 9.390624c-1.433594 1.429688-3.3125 2.148438-5.1875 2.148438s-3.753906-.71875-5.1875-2.148438c-1.363281-1.363281-2.082031-3.136718-2.144531-4.925781-.070313-1.964843.644531-3.949219 2.144531-5.449219l18.066406-18.066406zm0 0" fill="url(#aZ)"/><path d="m122.152344 404.207031c-.066406 1.789063-.785156 3.5625-2.148438 4.925781-1.363281 1.359376-3.132812 2.078126-4.921875 2.144532-.085937.003906-.179687.003906-.265625.003906-1.875 0-3.75-.71875-5.183594-2.148438l-9.390624-9.390624-8.679688-8.675782 10.375-10.375 18.066406 18.066406c1.5 1.5 2.214844 3.484376 2.148438 5.449219zm0 0" fill="url(#a0)"/><path d="m129.230469 441.535156c-6.191407 0-12.011719-2.410156-16.394531-6.789062-4.375-4.378906-6.789063-10.199219-6.789063-16.390625 0-6.191407 2.414063-12.011719 6.789063-16.390625 4.378906-4.378906 10.199218-6.789063 16.394531-6.789063 6.191406 0 12.011719 2.410157 16.390625 6.789063 4.375 4.378906 6.789062 10.199218 6.789062 16.390625 0 6.191406-2.414062 12.011719-6.789062 16.390625-4.378906 4.378906-10.199219 6.789062-16.390625 6.789062zm0-34.089844c-2.914063 0-5.65625 1.132813-7.714844 3.195313-2.0625 2.0625-3.195313 4.800781-3.195313 7.714844 0 2.914062 1.132813 5.65625 3.195313 7.714843 2.058594 2.0625 4.800781 3.199219 7.714844 3.199219 2.914062 0 5.652343-1.136719 7.714843-3.199219 2.058594-2.058593 3.195313-4.796874 3.195313-7.714843 0-2.914063-1.132813-5.652344-3.195313-7.714844-2.0625-2.058594-4.800781-3.195313-7.714843-3.195313zm0 0" fill="url(#a1)"/><path d="m145.714844 464.285156h-32.96875c-1.628906 0-3.1875-.644531-4.335938-1.796875l-23.3125-23.3125c-1.152344-1.148437-1.796875-2.707031-1.796875-4.335937v-32.96875c0-1.625.644531-3.1875 1.796875-4.335938l23.3125-23.3125c1.148438-1.148437 2.710938-1.796875 4.335938-1.796875h32.96875c1.625 0 3.1875.648438 4.335937 1.796875l23.3125 23.3125c1.152344 1.148438 1.796875 2.710938 1.796875 4.335938v32.96875c0 1.628906-.644531 3.1875-1.796875 4.335937l-23.3125 23.3125c-1.148437 1.152344-2.710937 1.796875-4.335937 1.796875zm-30.425782-12.269531h27.882813l19.71875-19.71875v-27.882813l-19.71875-19.71875h-27.882813l-19.71875 19.71875v27.882813zm0 0" fill="url(#a2)"/><path d="m111.9375 363.84375c0 2.898438-2.347656 5.246094-5.246094 5.246094-2.894531 0-5.246094-2.347656-5.246094-5.246094s2.351563-5.246094 5.246094-5.246094c2.898438 0 5.246094 2.347656 5.246094 5.246094zm0 0" fill="url(#a3)"/><path d="m157.039062 363.84375c0 2.898438-2.347656 5.246094-5.246093 5.246094-2.898438 0-5.246094-2.347656-5.246094-5.246094s2.347656-5.246094 5.246094-5.246094c2.898437 0 5.246093 2.347656 5.246093 5.246094zm0 0" fill="url(#a4)"/><path d="m111.941406 472.867188c0 2.898437-2.351562 5.246093-5.25 5.246093-2.898437 0-5.246094-2.347656-5.246094-5.246093 0-2.898438 2.347657-5.246094 5.246094-5.246094 2.898438 0 5.25 2.347656 5.25 5.246094zm0 0" fill="url(#a5)"/><path d="m157.042969 472.867188c0 2.898437-2.351563 5.246093-5.25 5.246093-2.898438 0-5.246094-2.347656-5.246094-5.246093 0-2.898438 2.347656-5.246094 5.246094-5.246094 2.898437 0 5.25 2.347656 5.25 5.246094zm0 0" fill="url(#a6)"/><path d="m189.003906 395.804688c0 2.898437-2.351562 5.246093-5.25 5.246093-2.894531 0-5.246094-2.347656-5.246094-5.246093 0-2.898438 2.351563-5.246094 5.246094-5.246094 2.898438 0 5.25 2.347656 5.25 5.246094zm0 0" fill="url(#a7)"/><path d="m189.003906 440.90625c0 2.898438-2.351562 5.246094-5.25 5.246094-2.894531 0-5.246094-2.347656-5.246094-5.246094s2.351563-5.246094 5.246094-5.246094c2.898438 0 5.25 2.347656 5.25 5.246094zm0 0" fill="url(#a8)"/><path d="m79.980469 395.804688c0 2.898437-2.351563 5.246093-5.25 5.246093-2.898438 0-5.246094-2.347656-5.246094-5.246093 0-2.898438 2.347656-5.246094 5.246094-5.246094 2.898437 0 5.25 2.347656 5.25 5.246094zm0 0" fill="url(#a9)"/><path d="m79.980469 440.90625c0 2.898438-2.351563 5.246094-5.25 5.246094-2.898438 0-5.246094-2.347656-5.246094-5.246094s2.347656-5.246094 5.246094-5.246094c2.898437 0 5.25 2.347656 5.25 5.246094zm0 0" fill="url(#ba)"/><path d="m221.3125 418.355469c0-4.988281-3.875-9.070313-8.777344-9.40625l3.691406-3.6875c2.863282-2.863281 2.863282-7.511719 0-10.375-2.867187-2.863281-7.511718-2.863281-10.375 0l-14.039062 14.039062h-16.648438l-.003906-.003906v-7.050781c0-1.625-.644531-3.1875-1.796875-4.335938l-6.46875-6.46875 10.296875-10.296875h22.8125c4.054688 0 7.335938-3.28125 7.335938-7.332031s-3.28125-7.335938-7.335938-7.335938h-8.144531l1-1.003906c2.867187-2.863281 2.867187-7.507812.003906-10.371094-2.867187-2.863281-7.511719-2.867187-10.375 0l-1 1v-8.144531c0-4.050781-3.285156-7.335937-7.335937-7.335937-4.054688 0-7.335938 3.285156-7.335938 7.335937v22.816407l-10.296875 10.292968-6.46875-6.46875c-1.148437-1.148437-2.710937-1.796875-4.335937-1.796875h-7.054688v-16.652343l14.039063-14.039063c2.863281-2.863281 2.863281-7.507813 0-10.371094-2.863281-2.867187-7.507813-2.867187-10.375 0l-3.6875 3.6875c-.335938-4.902343-4.417969-8.777343-9.40625-8.777343s-9.070313 3.875-9.40625 8.777343l-3.6875-3.6875c-2.867188-2.867187-7.507813-2.867187-10.375 0-2.863281 2.863281-2.863281 7.507813 0 10.371094l14.039062 14.039063v16.652343h-7.054687c-1.625 0-3.1875.648438-4.335938 1.796875l-6.46875 6.46875-10.296875-10.292968v-22.816407c0-4.050781-3.285156-7.335937-7.335937-7.335937-4.050782 0-7.332032 3.285156-7.332032 7.335937v8.144531l-1.003906-1c-2.863281-2.867187-7.507812-2.867187-10.371094 0-2.867187 2.863282-2.867187 7.507813 0 10.371094l1 1h-8.144531c-4.054687 0-7.335937 3.285156-7.335937 7.335938 0 4.050781 3.28125 7.335937 7.335937 7.335937h22.8125l10.296875 10.296875-6.46875 6.464844c-1.152344 1.152344-1.796875 2.714844-1.796875 4.339844v7.050781h-16.65625l-14.035156-14.035156c-2.867187-2.863281-7.511719-2.863281-10.375 0s-2.863281 7.507812 0 10.375l3.6875 3.6875c-4.902344.335937-8.777344 4.417969-8.777344 9.40625s3.875 9.070312 8.777344 9.40625l-3.6875 3.6875c-2.863281 2.867187-2.863281 7.507812 0 10.375 1.433594 1.429687 3.308594 2.148437 5.1875 2.148437s3.753906-.71875 5.1875-2.148437l14.035156-14.039063h16.65625v7.050782c0 1.628906.644531 3.1875 1.796875 4.339843l6.46875 6.46875-10.296875 10.292969h-22.8125c-4.054687 0-7.335937 3.285156-7.335937 7.335938 0 4.050781 3.28125 7.335937 7.335937 7.335937h8.144531l-1 1c-2.867187 2.867187-2.867187 7.507813 0 10.375 1.429688 1.433594 3.308594 2.148437 5.1875 2.148437 1.875 0 3.753907-.714843 5.1875-2.148437l1-1v8.144531c0 4.050782 3.28125 7.335938 7.332032 7.335938 4.054687 0 7.335937-3.285156 7.335937-7.335938v-22.816406l10.296875-10.296875 6.46875 6.46875c1.148438 1.152344 2.710938 1.796875 4.335938 1.796875h7.054687v16.65625l-14.039062 14.035156c-2.863281 2.867188-2.863281 7.507813 0 10.375 2.863281 2.863282 7.507812 2.863282 10.371093 0l3.691407-3.691406c.335937 4.90625 4.417969 8.78125 9.40625 8.78125s9.070312-3.875 9.40625-8.78125l3.6875 3.691406c1.433593 1.433594 3.308593 2.148438 5.1875 2.148438 1.875 0 3.753906-.714844 5.1875-2.148438 2.863281-2.867187 2.863281-7.507812 0-10.375l-14.039063-14.035156v-16.65625h7.050782c1.628906 0 3.191406-.644531 4.339843-1.796875l6.46875-6.46875 10.292969 10.292969v22.816406c0 4.050781 3.285156 7.335938 7.335938 7.335938 4.050781 0 7.335937-3.28125 7.335937-7.335938v-8.144531l1 1.003906c1.433594 1.429687 3.3125 2.148437 5.1875 2.148437 1.878906 0 3.757813-.71875 5.1875-2.148437 2.863281-2.867187 2.863281-7.511719 0-10.375l-1-1h8.144531c4.050782 0 7.335938-3.285156 7.335938-7.335937 0-4.050782-3.285156-7.335938-7.335938-7.335938h-22.816406l-10.292969-10.292969 6.46875-6.46875c1.152344-1.152343 1.796875-2.710937 1.796875-4.339843v-7.050782h16.65625l14.035156 14.035156c1.433594 1.433594 3.308594 2.152344 5.1875 2.152344 1.875 0 3.753907-.71875 5.1875-2.152344 2.863282-2.863281 2.863282-7.507812 0-10.371093l-3.691406-3.6875c4.902344-.335938 8.777344-4.417969 8.777344-9.40625zm-106.023438-33.660157h4.507813v.167969h.003906v12.3125c-.316406.140625-.628906.285157-.9375.441407l-8.25-8.25zm-19.71875 19.71875 4.671876-4.671874 5.980468 5.980468 2.265625 2.269532c-.152343.308593-.300781.617187-.441406.933593h-12.476563zm4.671876 32.554688-4.671876-4.671875v-4.507813h12.476563c.140625.3125.289063.625.441406.933594zm19.558593 15.046875h-4.511719l-4.675781-4.671875 8.25-8.25c.308594.15625.621094.300781.933594.441406v.066406h.003906zm17.144531-25.945313c-2.0625 2.0625-4.800781 3.195313-7.714843 3.195313-2.914063 0-5.65625-1.132813-7.714844-3.195313-2.0625-2.058593-3.195313-4.800781-3.195313-7.714843 0-2.914063 1.132813-5.65625 3.195313-7.714844 2.058594-2.0625 4.800781-3.195313 7.714844-3.195313 2.914062 0 5.652343 1.132813 7.714843 3.195313 2.058594 2.058594 3.195313 4.800781 3.195313 7.714844 0 2.914062-1.136719 5.65625-3.195313 7.714843zm6.226563 25.945313h-4.511719v-12.480469c.316406-.140625.625-.285156.933594-.441406l8.25 8.25zm-1.21875-56.757813-2.359375 2.359376c-.308594-.15625-.617188-.304688-.929688-.441407v-12.480469h4.507813l4.671875 4.671876zm20.9375 37.039063-4.671875 4.671875-8.25-8.246094c.15625-.308594.300781-.621094.441406-.9375h12.480469zm0-23.371094h-12.402344l.003907-.003906h-.082032c-.140625-.3125-.285156-.625-.441406-.933594l2.179688-2.179687 6.070312-6.066406 4.671875 4.667968zm0 0" fill="url(#bb)"/><path d="m111.9375 363.84375c0 2.898438-2.347656 5.246094-5.246094 5.246094-2.894531 0-5.246094-2.347656-5.246094-5.246094s2.351563-5.246094 5.246094-5.246094c2.898438 0 5.246094 2.347656 5.246094 5.246094zm0 0" fill="url(#bc)"/><path d="m157.039062 363.84375c0 2.898438-2.347656 5.246094-5.246093 5.246094-2.898438 0-5.246094-2.347656-5.246094-5.246094s2.347656-5.246094 5.246094-5.246094c2.898437 0 5.246093 2.347656 5.246093 5.246094zm0 0" fill="url(#bd)"/><path d="m111.941406 472.867188c0 2.898437-2.351562 5.246093-5.25 5.246093-2.898437 0-5.246094-2.347656-5.246094-5.246093 0-2.898438 2.347657-5.246094 5.246094-5.246094 2.898438 0 5.25 2.347656 5.25 5.246094zm0 0" fill="url(#be)"/><path d="m157.042969 472.867188c0 2.898437-2.351563 5.246093-5.25 5.246093-2.898438 0-5.246094-2.347656-5.246094-5.246093 0-2.898438 2.347656-5.246094 5.246094-5.246094 2.898437 0 5.25 2.347656 5.25 5.246094zm0 0" fill="url(#bf)"/><path d="m189.003906 395.804688c0 2.898437-2.351562 5.246093-5.25 5.246093-2.894531 0-5.246094-2.347656-5.246094-5.246093 0-2.898438 2.351563-5.246094 5.246094-5.246094 2.898438 0 5.25 2.347656 5.25 5.246094zm0 0" fill="url(#bg)"/><path d="m189.003906 440.90625c0 2.898438-2.351562 5.246094-5.25 5.246094-2.894531 0-5.246094-2.347656-5.246094-5.246094s2.351563-5.246094 5.246094-5.246094c2.898438 0 5.25 2.347656 5.25 5.246094zm0 0" fill="url(#bh)"/><path d="m79.980469 395.804688c0 2.898437-2.351563 5.246093-5.25 5.246093-2.898438 0-5.246094-2.347656-5.246094-5.246093 0-2.898438 2.347656-5.246094 5.246094-5.246094 2.898437 0 5.25 2.347656 5.25 5.246094zm0 0" fill="url(#bi)"/><path d="m79.980469 440.90625c0 2.898438-2.351563 5.246094-5.25 5.246094-2.898438 0-5.246094-2.347656-5.246094-5.246094s2.347656-5.246094 5.246094-5.246094c2.898437 0 5.25 2.347656 5.25 5.246094zm0 0" fill="url(#bj)"/></svg>