<svg height="512pt" viewBox="0 0 512 512" width="512pt" xmlns="http://www.w3.org/2000/svg" xmlns:xlink="http://www.w3.org/1999/xlink"><radialGradient id="a" cx="215.8434307844" cy="185.72557" gradientUnits="userSpaceOnUse" r="336.6901399656"><stop offset="0" stop-color="#ecf7ff"/><stop offset=".5353" stop-color="#eaf6ff"/><stop offset=".7282" stop-color="#e3f2ff"/><stop offset=".8651" stop-color="#d8ecff"/><stop offset=".9756" stop-color="#c7e3ff"/><stop offset="1" stop-color="#c2e0ff"/></radialGradient><linearGradient id="b"><stop offset=".0029" stop-color="#c2e0ff" stop-opacity="0"/><stop offset=".0763" stop-color="#bfdcfd" stop-opacity=".07451"/><stop offset="1" stop-color="#9eb2e7"/></linearGradient><linearGradient id="c" gradientUnits="userSpaceOnUse" x1="317.0121644514" x2="220.0459486686" xlink:href="#b" y1="98.5624517628" y2="20.9893988228"/><linearGradient id="d" gradientUnits="userSpaceOnUse" x1="278.7666515472" x2="186.8498622478" xlink:href="#b" y1="181.7664028086" y2="108.2330316044"/><linearGradient id="e" gradientUnits="userSpaceOnUse" x1="384.2899972814" x2="293.8115270314" xlink:href="#b" y1="85.3789480588" y2="12.9960714666"/><linearGradient id="f" gradientUnits="userSpaceOnUse" x1="355.288497761" x2="261.8776717412" xlink:href="#b" y1="145.3801534484" y2="70.6514123188"/><linearGradient id="g" gradientUnits="userSpaceOnUse" x1="325.6636630708" x2="234.649700826" xlink:href="#b" y1="208.2393239876" y2="135.428073878"/><linearGradient id="h" gradientUnits="userSpaceOnUse" x1="424.4614341504" x2="330.3151348734" xlink:href="#b" y1="125.6392320248" y2="50.3221926032"/><linearGradient id="i" gradientUnits="userSpaceOnUse" x1="381.2461057774" x2="283.6913909182" xlink:href="#b" y1="215.8711390316" y2="137.827447458"/><linearGradient id="j" gradientUnits="userSpaceOnUse" x1="461.0284898628" x2="386.704228907" xlink:href="#b" y1="141.1932967474" y2="81.7339080612"/><linearGradient id="k" gradientUnits="userSpaceOnUse" x1="405.6694198012" x2="314.8506199932" xlink:href="#b" y1="293.152251454" y2="220.4972116076"/><linearGradient id="l" gradientUnits="userSpaceOnUse" x1="437.3037047666" x2="342.0572073698" xlink:href="#b" y1="223.5881870534" y2="147.3910092144"/><linearGradient id="m" gradientUnits="userSpaceOnUse" x1="461.6678877846" x2="384.7005009872" xlink:href="#b" y1="332.9717132698" y2="290.1376744724"/><linearGradient id="n" gradientUnits="userSpaceOnUse" x1="496.576966314" x2="441.6959639088" xlink:href="#b" y1="218.3747197152" y2="178.8870541204"/><linearGradient id="o" gradientUnits="userSpaceOnUse" x1="271.725042247" x2="184.6349091392" xlink:href="#b" y1="143.4520208552" y2="85.4756257474"/><linearGradient id="p" gradientUnits="userSpaceOnUse" x1="248.1806619342" x2="116.6515199276" xlink:href="#b" y1="200.5723716736" y2="69.043229667"/><linearGradient id="q" gradientUnits="userSpaceOnUse" x1="208.0188627164" x2="161.7281196886" xlink:href="#b" y1="415.4167996758" y2="369.126056648"/><linearGradient id="r" gradientUnits="userSpaceOnUse" x1="467.9387861654" x2="23.7060117548" xlink:href="#b" y1="535.983414619" y2="91.7507406006"/><linearGradient id="s"><stop offset="0" stop-color="#00c6f6"/><stop offset=".5169" stop-color="#00c4f6"/><stop offset=".7031" stop-color="#02bdf7"/><stop offset=".8359" stop-color="#05b2f9"/><stop offset=".9424" stop-color="#0aa1fc"/><stop offset="1" stop-color="#0d94fe"/></linearGradient><radialGradient id="t" cx="345.3493687844" cy="103.4040663922" gradientUnits="userSpaceOnUse" r="174.6069330656" xlink:href="#s"/><radialGradient id="u" cx="345.3489672156" cy="103.4043675688" gradientUnits="userSpaceOnUse" r="174.6063307124" xlink:href="#s"/><radialGradient id="v" cx="345.3494691766" cy="103.4041667844" gradientUnits="userSpaceOnUse" r="174.6072342422" xlink:href="#s"/><radialGradient id="w" cx="281.0983607844" cy="64.7532701766" gradientUnits="userSpaceOnUse" r="89.7658864144" xlink:href="#s"/><radialGradient id="x" cx="345.3493687844" cy="103.4040663922" gradientUnits="userSpaceOnUse" r="174.6073346344" xlink:href="#s"/><radialGradient id="y" cx="345.3492683922" cy="103.4037652156" gradientUnits="userSpaceOnUse" r="174.6072342422" xlink:href="#s"/><radialGradient id="z" cx="345.3490676078" cy="103.403966" gradientUnits="userSpaceOnUse" r="174.6075354188" xlink:href="#s"/><radialGradient id="A" cx="345.349168" cy="103.4030624702" gradientUnits="userSpaceOnUse" r="174.6077362032" xlink:href="#s"/><radialGradient id="B" cx="345.3493687844" cy="103.4037652156" gradientUnits="userSpaceOnUse" r="174.6070334578" xlink:href="#s"/><radialGradient id="C" cx="345.3490676078" cy="103.4038656078" gradientUnits="userSpaceOnUse" r="174.6073346344" xlink:href="#s"/><radialGradient id="D" cx="345.3492683922" cy="103.4041667844" gradientUnits="userSpaceOnUse" r="174.6072342422" xlink:href="#s"/><radialGradient id="E" cx="345.349168" cy="103.404467961" gradientUnits="userSpaceOnUse" r="174.6074350266" xlink:href="#s"/><linearGradient id="F"><stop offset="0" stop-color="#ffebc9"/><stop offset=".2771" stop-color="#ffe9c5"/><stop offset=".5263" stop-color="#fee2bb"/><stop offset=".7641" stop-color="#fdd7a8"/><stop offset=".9948" stop-color="#fbc78f"/><stop offset="1" stop-color="#fbc78e"/></linearGradient><radialGradient id="G" cx="296.8879456082" cy="215.508422013" gradientUnits="userSpaceOnUse" r="14.8554354028" xlink:href="#F"/><linearGradient id="H" gradientTransform="matrix(.709873 .709873 -.709873 .709873 -325.92123 -789.643244)" gradientUnits="userSpaceOnUse" x1="1149.2379" x2="1159.3955" y1="473.948" y2="473.948"><stop offset="0" stop-color="#ecf7ff"/><stop offset=".2926" stop-color="#e6f4ff"/><stop offset=".6915" stop-color="#d4eaff"/><stop offset="1" stop-color="#c2e0ff"/></linearGradient><linearGradient id="I" gradientTransform="matrix(.709873 .709873 -.709873 .709873 -325.92123 -789.643244)" gradientUnits="userSpaceOnUse" x1="1201.2588" x2="1177.5792" y1="476.941" y2="453.2615"><stop offset=".0029" stop-color="#c2e0ff" stop-opacity="0"/><stop offset=".188" stop-color="#b9d5f9" stop-opacity=".184314"/><stop offset=".695" stop-color="#a5bbec" stop-opacity=".694118"/><stop offset="1" stop-color="#9eb2e7"/></linearGradient><linearGradient id="J"><stop offset="0" stop-color="#ff6e3a"/><stop offset=".2336" stop-color="#ff6b3c"/><stop offset=".418" stop-color="#ff6143"/><stop offset=".5857" stop-color="#ff504e"/><stop offset=".7434" stop-color="#ff395e"/><stop offset=".8928" stop-color="#ff1b72"/><stop offset="1" stop-color="#ff0084"/></linearGradient><linearGradient id="K" gradientUnits="userSpaceOnUse" x1="154.0615689434" x2="180.1636413356" xlink:href="#J" y1="143.3812443542" y2="259.836095962"/><linearGradient id="L" gradientUnits="userSpaceOnUse" x1="231.3108570384" x2="321.6642386072" xlink:href="#J" y1="308.6614408632" y2="373.916772432"/><linearGradient id="M" gradientUnits="userSpaceOnUse" x1="170.7017768778" x2="209.8546344856" xlink:href="#J" y1="230.5303076834" y2="307.832100899"/><linearGradient id="N" gradientUnits="userSpaceOnUse" x1="280.8257959614" x2="409.3275107848" xlink:href="#J" y1="346.5527700858" y2="455.9801676936"/><radialGradient id="O" cx="29.448545987" cy="406.253602013" gradientUnits="userSpaceOnUse" r="71.4344714788" xlink:href="#F"/><linearGradient id="P"><stop offset="0" stop-color="#00c6f6"/><stop offset=".8567" stop-color="#0b9cfd"/><stop offset="1" stop-color="#0d94fe"/></linearGradient><linearGradient id="Q" gradientUnits="userSpaceOnUse" x1="163.593105588" x2="162.2545763854" xlink:href="#P" y1="98.1366884426" y2="149.0022036322"/><linearGradient id="R" gradientTransform="matrix(-.754748 -.661885 -.661885 .754748 1367.575492 510.379771)" gradientUnits="userSpaceOnUse" x1="804.944" x2="803.8478" xlink:href="#P" y1="484.3689" y2="526.0268"/><linearGradient id="S" gradientTransform="matrix(.691602 .727743 -.727743 .691602 510.413904 50.699244)" gradientUnits="userSpaceOnUse" x1="-181.6144" x2="-182.4316" xlink:href="#P" y1="230.8897" y2="261.9435"/><linearGradient id="T" gradientTransform="matrix(.0178698 -1.003721 -1.003721 -.0178698 1052.471617 1431.243093)" gradientUnits="userSpaceOnUse" x1="1027.936" x2="1027.1188" xlink:href="#P" y1="665.6517" y2="696.7084"/><path d="m512 256c0 141.386719-114.613281 256-256 256s-256-114.613281-256-256 114.613281-256 256-256 256 114.613281 256 256zm0 0" fill="url(#a)"/><path d="m360.960938 210.816406c1.167968 1.515625 2.699218 2.789063 4.546874 3.664063 6.265626 2.964843 13.746094.285156 16.710938-5.980469l34.320312-72.371094c2.574219-5.441406.890626-11.792968-3.699218-15.3125l-113.433594-113.429687c-1.171875-1.519531-2.699219-2.792969-4.546875-3.667969-6.265625-2.960938-13.746094-.285156-16.710937 5.980469l-34.320313 72.371093c-2.574219 5.441407-.890625 11.792969 3.699219 15.3125zm0 0" fill="url(#c)"/><path d="m332.289062 272.050781c1.171876 1.519531 2.699219 2.792969 4.546876 3.667969 6.265624 2.960938 13.75.285156 16.710937-5.980469l13.800781-29.535156c2.574219-5.441406.890625-11.792969-3.699218-15.3125l-113.433594-113.433594c-1.171875-1.515625-2.699219-2.792969-4.546875-3.667969-6.265625-2.960937-13.746094-.285156-16.710938 5.980469l-13.800781 29.539063c-2.574219 5.441406-.886719 11.792968 3.699219 15.3125zm0 0" fill="url(#d)"/><path d="m440.210938 169.820312c1.171874 1.515626 2.699218 2.789063 4.546874 3.664063 6.265626 2.964844 13.75.289063 16.710938-5.976563l8.613281-18.160156c2.574219-5.441406.890625-11.792968-3.699219-15.3125l-113.433593-113.433594c-1.171875-1.515624-2.695313-2.789062-4.546875-3.667968-6.265625-2.960938-13.75-.285156-16.710938 5.980468l-8.613281 18.160157c-2.574219 5.441406-.886719 11.792969 3.699219 15.3125zm0 0" fill="url(#e)"/><path d="m405.757812 242.4375c1.171876 1.515625 2.699219 2.792969 4.550782 3.667969 6.265625 2.960937 13.746094.285156 16.710937-5.980469l20.308594-42.757812c2.570313-5.441407.886719-11.792969-3.699219-15.3125l-113.433594-113.429688c-1.171874-1.519531-2.699218-2.792969-4.550781-3.667969-6.265625-2.960937-13.746093-.285156-16.707031 5.980469l-20.308594 42.757812c-2.574218 5.4375-.890625 11.789063 3.695313 15.3125zm0 0" fill="url(#f)"/><path d="m380.160156 295.519531c1.171875 1.519531 2.699219 2.792969 4.546875 3.667969 6.265625 2.960938 13.75.285156 16.710938-5.980469l11.609375-23.726562c2.570312-5.4375.886718-11.789063-3.699219-15.308594l-113.433594-113.433594c-1.171875-1.515625-2.699219-2.792969-4.550781-3.667969-6.265625-2.960937-13.746094-.285156-16.707031 5.980469l-11.609375 23.726563c-2.574219 5.4375-.886719 11.789062 3.699218 15.3125zm0 0" fill="url(#g)"/><path d="m505.894531 200.230469-11.28125 23.582031c-2.960937 6.265625-10.441406 8.945312-16.707031 5.972656-1.847656-.871094-3.382812-2.148437-4.546875-3.660156l-113.433594-113.433594c-4.585937-3.515625-6.273437-9.871094-3.703125-15.3125l23.660156-49.453125c2.902344-6.125 10.121094-8.824219 16.292969-6.164062.140625.050781.273438.121093.414063.183593 1.265625.601563 2.386718 1.394532 3.34375 2.316407.429687.421875.832031.875 1.203125 1.347656l66.882812 66.878906c4.527344 6.667969 8.742188 13.566407 12.628907 20.660157 11.382812 20.78125 19.976562 43.3125 25.246093 67.082031zm0 0" fill="url(#h)"/><path d="m424.332031 330.367188c1.171875 1.515624 2.699219 2.789062 4.550781 3.664062 6.265626 2.964844 13.746094.285156 16.707032-5.980469l36.207031-76.726562c2.570313-5.441407.886719-11.792969-3.699219-15.3125l-113.433594-113.433594c-1.171874-1.515625-2.699218-2.792969-4.550781-3.664063-6.265625-2.964843-13.746093-.289062-16.707031 5.976563l-36.207031 76.730469c-2.574219 5.441406-.886719 11.792968 3.699219 15.3125zm0 0" fill="url(#i)"/><path d="m510.332031 226.726562-97.71875-97.722656c-4.589843-3.523437-6.277343-9.867187-3.695312-15.308594l13.632812-29.625c2.960938-6.265624 10.441407-8.945312 16.703125-5.984374.675782.320312 1.296875.683593 1.878906 1.101562 15.402344 16.125 28.722657 34.253906 39.515626 53.960938 15.539062 28.363281 25.871093 59.984374 29.683593 93.578124zm0 0" fill="url(#j)"/><path d="m461.226562 378.722656c1.171876 1.515625 2.699219 2.789063 4.550782 3.664063 6.261718 2.964843 13.746094.285156 16.707031-5.980469l9.433594-20.339844c2.574219-5.441406.890625-11.792968-3.699219-15.3125l-113.433594-113.433594c-1.171875-1.515624-2.699218-2.789062-4.550781-3.664062-6.261719-2.964844-13.742187-.289062-16.707031 5.976562l-9.433594 20.34375c-2.574219 5.4375-.886719 11.789063 3.699219 15.3125zm0 0" fill="url(#k)"/><path d="m512 256c0 15.429688-1.367188 30.539062-3.976562 45.214844-.351563 1.9375-.710938 3.867187-1.101563 5.785156-1.847656 9.15625-4.1875 18.132812-7 26.90625-3.382813 1.824219-7.558594 2.066406-11.304687.289062-1.855469-.875-3.382813-2.148437-4.554688-3.664062l-113.433594-113.433594c-4.589844-3.511718-6.265625-9.867187-3.695312-15.308594l29.011718-61.5c2.964844-6.265624 10.441407-8.945312 16.707032-5.984374 1.847656.875 3.371094 2.148437 4.546875 3.664062l93.644531 93.644531c.765625 8.023438 1.15625 16.164063 1.15625 24.386719zm0 0" fill="url(#l)"/><path d="m506.921875 307c-8.152344 40.335938-25.792969 77.230469-50.5 108.261719l-80.957031-80.957031c-4.585938-3.523438-6.273438-9.867188-3.691406-15.308594l39.734374-83.835938c2.960938-6.265625 10.441407-8.945312 16.703126-5.984375 1.847656.871094 3.375 2.148438 4.550781 3.664063zm0 0" fill="url(#m)"/><path d="m512 256c0 15.429688-1.367188 30.539062-3.976562 45.214844l-79.347657-79.347656c-4.589843-3.523438-6.277343-9.867188-3.695312-15.308594l33.710937-71.792969c2.960938-6.261719 10.441406-8.945313 16.707032-5.984375 1.847656.875 3.371093 2.148438 4.546874 3.664062l.703126.703126c19.988281 36.472656 31.351562 78.328124 31.351562 122.851562zm0 0" fill="url(#n)"/><path d="m221.292969 67.3125c-1.753907-2.148438-4.085938-3.835938-7.035157-4.796875-8.652343-2.820313-17.949218 1.910156-20.765624 10.5625-4.296876 13.183594 16.339843 28.375 17.601562 35.96875.3125 1.890625 1.035156 2.246094 1.988281 1.558594.050781.191406 106.152344 106.433593 106.183594 106.613281 1.492187 8.976562 12.074219-16.363281 13.726563-25.765625 1.226562-7.003906-.648438-14.007813-5.648438-18.085937zm0 0" fill="url(#o)"/><path d="m176.023438 91.171875c-8.917969-9.773437-21.988282-14.105469-33.835938-7.695313-13.054688 7.0625-17.910156 23.375-10.847656 36.429688 1.191406 2.199219 2.769531 4.050781 4.621094 5.640625l117.675781 117.675781c.730469.867188 1.539062 1.660156 2.402343 2.402344 13.304688 15.832031 50.320313 9.742188 60.101563 16.367188 12.292969 8.324218-5.777344-32.667969-15.046875-45.191407-1.507812-2.035156-3.1875-3.894531-4.992188-5.550781zm0 0" fill="url(#p)"/><path d="m263.695312 511.875c1.453126-.042969 2.90625-.097656 4.355469-.164062.589844-.027344 1.179688-.054688 1.765625-.085938 1.929688-.101562 3.855469-.21875 5.773438-.363281.242187-.019531.480468-.042969.722656-.0625 1.691406-.132813 3.378906-.285157 5.0625-.449219.667969-.066406 1.332031-.136719 1.996094-.207031 1.3125-.140625 2.617187-.289063 3.921875-.449219.667969-.082031 1.335937-.160156 2.003906-.246094 1.8125-.234375 3.625-.484375 5.429687-.761718.523438-.078126 1.042969-.167969 1.570313-.253907 1.347656-.210937 2.695313-.433593 4.035156-.667969.78125-.136718 1.558594-.277343 2.332031-.421874 1.121094-.203126 2.238282-.421876 3.355469-.640626.773438-.15625 1.550781-.304687 2.324219-.464843 1.625-.339844 3.246094-.691407 4.859375-1.058594.804687-.183594 1.609375-.382813 2.410156-.574219 1.070313-.253906 2.144531-.511718 3.210938-.78125.863281-.21875 1.726562-.441406 2.589843-.667968.964844-.257813 1.925782-.519532 2.886719-.785157.847657-.230469 1.695313-.464843 2.539063-.707031 1.574218-.449219 3.144531-.917969 4.710937-1.398438.015625-.007812.035157-.011718.054688-.019531 26.105469-8.058593 50.429687-20.179687 72.230469-35.625-57.023438-61.964843-171.359376-179.761719-174.226563-182.628906-3.859375-3.859375-10.125-3.859375-13.984375 0l-147.488281 147.492187c1.449219 1.566407 2.921875 3.113282 4.410156 4.640626.023437.027343.046875.054687.074219.078124 1.464844 1.507813 2.949218 2.992188 4.453125 4.460938.042969.042969.085937.082031.125.125 1.492187 1.453125 3.003906 2.894531 4.527343 4.3125.050782.046875.097657.089844.148438.136719 1.527344 1.417969 3.070312 2.816406 4.632812 4.199219.046876.039062.09375.082031.136719.121093 1.574219 1.390625 3.167969 2.761719 4.777344 4.113281.03125.027344.058594.054688.089844.078126 16.464843 13.824218 34.691406 25.613281 54.296875 34.980468.046875.019532.09375.042969.136718.0625 1.867188.890625 3.746094 1.757813 5.640626 2.605469.285156.125.570312.25.859374.375 1.652344.734375 3.316407 1.453125 4.988282 2.152344.441406.1875.890625.363281 1.332031.546875 1.527344.625 3.054687 1.242187 4.59375 1.839844.554687.214843 1.109375.421874 1.660156.632812 1.441407.546875 2.886719 1.085938 4.339844 1.609375.632813.226563 1.269531.449219 1.90625.671875 1.382813.484375 2.769531.960938 4.164063 1.421875.699218.230469 1.398437.457031 2.101562.683594 1.339844.429687 2.683594.855469 4.03125 1.261719.753906.230468 1.507812.453124 2.265625.675781 1.308594.382812 2.621094.757812 3.9375 1.121093.796875.222657 1.597656.4375 2.398437.648438 1.285157.34375 2.578126.671875 3.871094.996094.835938.207031 1.671875.410156 2.511719.609375 1.269531.304687 2.542969.59375 3.820313.875.867187.191406 1.734374.386719 2.605468.570312 1.257813.265625 2.523438.515625 3.789063.761719.890625.175781 1.785156.351562 2.679687.515625 1.257813.230469 2.523438.445313 3.785156.65625.910157.152344 1.820313.308594 2.730469.453125 1.261719.199219 2.53125.378906 3.796875.558594.925782.132812 1.84375.265625 2.769532.390625 1.273437.164062 2.554687.308593 3.832031.457031.925781.109375 1.847656.222656 2.777343.316406 1.304688.136719 2.613282.25 3.925782.367188.90625.082031 1.816406.171875 2.726562.242187 1.363282.105469 2.734375.191407 4.105469.273438.863281.054687 1.726563.117187 2.589844.164062 1.507812.078125 3.023437.128907 4.539062.179688.734375.027343 1.464844.066406 2.203125.085937 2.253906.058594 4.511719.089844 6.777344.089844 1.984375 0 3.964844-.03125 5.9375-.074219.585938-.015625 1.171875-.03125 1.757812-.050781zm0 0" fill="url(#q)"/><path d="m473.210938 391.511719-176.363282-176.359375c-76.921875-76.925782-193.414062-90.128906-283.925781-39.625-2.527344 7.636718-4.710937 15.425781-6.519531 23.359375.03125.015625.054687.03125.085937.042969l48.5625 49.695312c2.078125 7.265625 3.023438 14.789062 2.808594 22.285156-.128906 4.574219 2.605469 8.507813 6.542969 10.152344l227.449218 228.425781c76.492188-10.722656 142.132813-55.234375 181.359376-117.976562zm0 0" fill="url(#r)"/><path d="m245.476562 107.664062c-6.265624-2.964843-13.75-.285156-16.710937 5.980469l-13.734375 29.042969c-2.960938 6.261719-.285156 13.746094 5.980469 16.707031 6.265625 2.964844 13.746093.285157 16.707031-5.976562l13.734375-29.046875c2.964844-6.265625.285156-13.746094-5.976563-16.707032zm0 0" fill="url(#t)"/><path d="m266.472656 92.613281 34.316406-72.503906c3.554688-7.503906-1.132812-16.332031-9.347656-17.558594-.113281-.019531-.230468-.035156-.34375-.054687-5.394531-.800782-10.671875 2.03125-13.007812 6.960937l-34.308594 72.421875c-2.960938 6.265625-.28125 13.746094 5.984375 16.707032 6.265625 2.960937 13.742187.289062 16.707031-5.972657zm0 0" fill="url(#u)"/><path d="m291.425781 137.160156c-6.265625-2.964844-13.75-.285156-16.710937 5.980469l-11.621094 23.488281c-2.960938 6.265625-.285156 13.746094 5.980469 16.710938 6.265625 2.960937 13.746093.285156 16.707031-5.980469l11.621094-23.492187c2.964844-6.261719.285156-13.746094-5.976563-16.707032zm0 0" fill="url(#v)"/><path d="m311.351562 124.375 20.171876-42.65625c2.964843-6.265625.285156-13.746094-5.980469-16.707031-6.265625-2.964844-13.742188-.289063-16.707031 5.976562l-20.171876 42.65625c-2.964843 6.265625-.285156 13.746094 5.980469 16.707031 6.265625 2.964844 13.746094.289063 16.707031-5.976562zm0 0" fill="url(#w)"/><path d="m328.757812 57.640625c6.308594 3.128906 13.9375.46875 16.933594-5.867187l8.527344-18.046876c3.101562-6.566406-.070312-14.351562-6.851562-16.941406-.078126-.027344-.15625-.058594-.234376-.089844-6.046874-2.300781-12.847656.476563-15.613281 6.324219l-8.34375 17.652344c-2.949219 6.242187-.601562 13.898437 5.582031 16.96875zm0 0" fill="url(#x)"/><path d="m359.90625 119.007812c-6.265625-2.960937-13.746094-.285156-16.707031 5.980469l-35.933594 76.445313c-2.960937 6.261718-.285156 13.742187 5.980469 16.707031s13.746094.285156 16.710937-5.980469l35.929688-76.441406c2.960937-6.265625.285156-13.746094-5.980469-16.710938zm0 0" fill="url(#y)"/><path d="m362.265625 114.015625c6.265625 2.960937 13.742187.289063 16.714844-5.972656l23.371093-49.414063c2.632813-5.5625.800782-12.226562-4.316406-15.644531-.070312-.046875-.140625-.09375-.210937-.140625-6.316407-4.210938-14.902344-1.84375-18.148438 5.019531l-23.382812 49.445313c-2.972657 6.265625-.292969 13.746094 5.972656 16.707031zm0 0" fill="url(#z)"/><path d="m370.1875 223.863281c-6.265625-2.964843-13.746094-.285156-16.707031 5.980469l-9.441407 19.964844c-2.964843 6.265625-.289062 13.746094 5.976563 16.710937 6.265625 2.960938 13.75.285157 16.710937-5.980469l9.441407-19.964843c2.964843-6.265625.285156-13.75-5.980469-16.710938zm0 0" fill="url(#A)"/><path d="m395.753906 140.449219-28.96875 61.257812c-2.964844 6.265625-.285156 13.746094 5.980469 16.710938 6.265625 2.960937 13.746094.285156 16.707031-5.980469l28.972656-61.257812c2.960938-6.265626.285157-13.746094-5.980468-16.710938s-13.746094-.285156-16.710938 5.980469zm0 0" fill="url(#B)"/><path d="m414.820312 129.476562c6.273438 2.960938 13.753907.289063 16.714844-5.984374l13.53125-28.621094c2.1875-4.625 1.304688-10.105469-2.191406-13.839844-.0625-.0625-.121094-.128906-.183594-.195312-5.984375-6.378907-16.527344-4.683594-20.265625 3.21875l-13.578125 28.714843c-2.960937 6.265625-.292968 13.746094 5.972656 16.707031zm0 0" fill="url(#C)"/><path d="m428.007812 229.269531c-6.265624-2.960937-13.75-.285156-16.710937 5.980469l-39.488281 83.492188c-2.960938 6.265624-.285156 13.75 5.980468 16.710937 6.265626 2.964844 13.746094.285156 16.710938-5.976563l39.484375-83.496093c2.964844-6.265625.285156-13.746094-5.976563-16.710938zm0 0" fill="url(#D)"/><path d="m481.226562 134.207031c-.046874-.089843-.097656-.175781-.144531-.265625-4.855469-8.941406-17.816406-8.585937-22.164062.613282l-33.886719 71.652343c-2.960938 6.261719-.28125 13.742188 5.980469 16.710938 6.265625 2.964843 13.746093.28125 16.707031-5.980469l33.808594-71.492188c1.695312-3.578124 1.585937-7.753906-.300782-11.238281zm0 0" fill="url(#E)"/><path d="m297.214844 230.363281-15.183594-15.179687 11.386719-11.386719c4.191406-4.191406 10.988281-4.191406 15.179687 0s4.191406 10.988281 0 15.179687zm0 0" fill="url(#G)"/><path d="m229.609375 296.375-149.390625 149.386719-13.980469-13.980469 149.386719-149.390625c3.859375-3.859375 10.125-3.859375 13.984375 0s3.859375 10.125 0 13.984375zm0 0" fill="url(#H)"/><path d="m229.609375 282.390625c-3.863281-3.863281-10.121094-3.863281-13.984375 0l-71.625 71.628906v27.964844l85.609375-85.609375c3.863281-3.863281 3.859375-10.121094 0-13.984375zm0 0" fill="url(#I)"/><path d="m331.929688 506.886719c-4.703126 7.71875-16.40625 6.457031-19.171876-2.148438-3.4375-10.6875-9.402343-20.738281-17.886718-29.222656-14.808594-14.808594-34.382813-21.933594-53.78125-21.375-6.148438.175781-11.152344-4.828125-10.976563-10.980469.558594-19.394531-6.566406-38.96875-21.367187-53.773437-14.808594-14.808594-34.386719-21.929688-53.78125-21.375-6.152344.179687-11.15625-4.824219-10.976563-10.976563.554688-19.394531-6.566406-38.972656-21.378906-53.78125-14.800781-14.800781-34.375-21.925781-53.769531-21.367187-6.152344.175781-11.15625-4.828125-10.980469-10.976563.558594-19.398437-6.566406-38.972656-21.375-53.78125-8.484375-8.484375-18.535156-14.449218-29.222656-17.886718-8.601563-2.769532-9.867188-14.46875-2.148438-19.171876 91.53125-55.769531 212.585938-44.074218 291.738281 35.078126 79.148438 79.152343 90.84375 200.207031 35.078126 291.738281zm0 0" fill="url(#K)"/><path d="m232.816406 450.597656c-1.746094-1.957031-2.78125-4.574218-2.703125-7.433594 0-.082031.003907-.160156.003907-.242187.015624-.421875.023437-.847656.023437-1.265625 0-.226562.007813-.441406-.007813-.652344.015626-.445312.007813-.902344-.007812-1.347656 0-.125 0-.253906-.011719-.378906 0-.53125-.023437-1.054688-.050781-1.570313-.082031-1.933593-.242188-3.867187-.496094-5.796875-.035156-.328125-.078125-.652344-.125-.980468-.0625-.453126-.132812-.914063-.203125-1.375-.140625-.894532-.300781-1.796876-.476562-2.6875-.132813-.675782-.285157-1.359376-.441407-2.046876-.136718-.644531-.292968-1.285156-.464843-1.921874-.035157-.175782-.078125-.328126-.121094-.496094-.152344-.589844-.320313-1.175782-.488281-1.761719-.023438-.078125-.042969-.167969-.078125-.246094-.175781-.621093-.363281-1.230469-.566407-1.839843-.019531-.074219-.035156-.144532-.0625-.214844-.230468-.695313-.460937-1.386719-.707031-2.0625-.285156-.789063-.585937-1.59375-.90625-2.378906-.21875-.550782-.441406-1.097657-.679687-1.640626-.042969-.113281-.089844-.21875-.140625-.324218-.195313-.472656-.40625-.933594-.628907-1.398438-.140624-.335937-.292968-.671875-.460937-.992187-.035156-.089844-.078125-.175781-.121094-.257813-.238281-.503906-.480469-1-.738281-1.496094-.503906-.992187-1.042969-1.980468-1.601562-2.957031-.078126-.148437-.167969-.292969-.261719-.441406-.25-.445313-.507813-.886719-.78125-1.3125-.050781-.09375-.105469-.191406-.167969-.28125-.285156-.480469-.585938-.949219-.894531-1.410156-.042969-.070313-.085938-.140625-.132813-.203125-.273437-.425782-.550781-.847656-.839844-1.273438-.25-.363281-.503906-.726562-.761718-1.082031-.511719-.734375-1.046875-1.453125-1.59375-2.167969-.246094-.328125-.503906-.65625-.761719-.972656-.203125-.257812-.40625-.519531-.617187-.769531-.195313-.238281-.390626-.476563-.59375-.707031-.285157-.355469-.578126-.703126-.886719-1.039063-.144531-.191406-.308594-.363281-.476563-.546875-.339844-.398438-.707031-.789062-1.070312-1.179688-.632813-.691406-1.292969-1.378906-1.96875-2.058593-.671875-.671875-1.351563-1.320313-2.042969-1.957031-.40625-.375-.804687-.746094-1.214844-1.105469-.164062-.144531-.316406-.285157-.484375-.425781-.371094-.328126-.753906-.65625-1.136718-.972657-.203126-.175781-.40625-.335937-.617188-.503906-.289062-.242187-.574219-.472656-.875-.703125-.292969-.238281-.601562-.476562-.898438-.707031-1.070312-.816407-2.15625-1.609375-3.253906-2.355469-.363281-.253906-.730468-.496094-1.105468-.730469-.160157-.117187-.320313-.222656-.496094-.328125-.382813-.257812-.769532-.5-1.167969-.734375-.207031-.136719-.417969-.261719-.640625-.390625-.324219-.210937-.65625-.402344-.996094-.601562-.222656-.125-.433594-.25-.664062-.371094-.929688-.535156-1.863282-1.039062-2.816406-1.53125-.496094-.257812-.992188-.5-1.496094-.738281-.085938-.042969-.167969-.085938-.257813-.121094-.320312-.164063-.652343-.3125-.992187-.460937-.460938-.222657-.921875-.433594-1.398438-.628907-.105468-.046875-.210937-.097656-.324218-.140625-.542969-.234375-1.089844-.460937-1.640626-.675781-.785156-.324219-1.589843-.621094-2.386718-.917969-.691406-.242187-1.390625-.480468-2.097656-.710937-.003907-.007813-.019532-.007813-.03125-.007813-.695313-.230468-1.402344-.449218-2.105469-.652344-.628907-.179687-1.253907-.355468-1.882813-.519531-.164062-.042969-.320312-.085937-.496094-.121093-.632812-.175782-1.277343-.328126-1.921874-.46875-.683594-.152344-1.367188-.308594-2.046876-.441407-.886718-.175781-1.789062-.335937-2.683593-.476562-.460938-.066407-.921875-.136719-1.378907-.199219-.328124-.050781-.648437-.09375-.976562-.128906-.566406-.074219-1.148438-.136719-1.726562-.203125-.699219-.066407-1.421876-.132813-2.125-.179688-1.300782-.097656-2.597657-.148437-3.894532-.175781-.449218-.015625-.902344-.023438-1.351562-.007812-.210938-.015626-.425782-.007813-.648438-.007813-.421875 0-.847656.007813-1.265625.023437-.085937 0-.160156.007813-.246093.007813-3.070313.089844-5.859376-1.121094-7.859376-3.121094l149.75-149.746093c41.96875 41.96875 12.976563 141.140624-64.035156 235.449218zm0 0" fill="url(#L)"/><path d="m296.851562 215.148438-149.746093 149.746093c-2-1.996093-3.210938-4.785156-3.121094-7.855469 0-.085937.007813-.160156.007813-.246093.015624-.417969.019531-.84375.019531-1.265625 0-.222656.007812-.4375-.003907-.648438.011719-.449218.003907-.902344-.007812-1.351562-.027344-1.296875-.078125-2.589844-.175781-3.894532-.046875-.703124-.109375-1.425781-.179688-2.125-.066406-.578124-.125-1.160156-.203125-1.726562-.035156-.328125-.078125-.648438-.128906-.976562-.0625-.457032-.132812-.917969-.203125-1.378907-.136719-.894531-.296875-1.796875-.472656-2.683593-.132813-.679688-.289063-1.363282-.441407-2.050782-.140624-.640625-.292968-1.285156-.46875-1.921875-.035156-.175781-.078124-.328125-.117187-.496093-.167969-.628907-.34375-1.25-.523437-1.878907-.203126-.707031-.421876-1.414062-.652344-2.105469 0-.015624 0-.027343-.007813-.035156-.230469-.707031-.46875-1.40625-.710937-2.097656-.292969-.796875-.59375-1.601562-.917969-2.382812-.214844-.554688-.4375-1.097657-.675781-1.644532-.042969-.113281-.089844-.21875-.140625-.320312-.195313-.476563-.40625-.9375-.628907-1.398438-.148437-.34375-.292968-.671875-.460937-.992187-.035156-.09375-.078125-.175781-.121094-.261719-.238281-.5-.480469-.996094-.738281-1.496094-.492188-.949218-.996094-1.886718-1.53125-2.816406-.121094-.230469-.246094-.441406-.371094-.664062-.195312-.335938-.390625-.671876-.601562-.992188-.128906-.222656-.253906-.433594-.390625-.644531-.234375-.398438-.476563-.78125-.734375-1.167969-.105469-.171875-.210938-.335938-.328125-.496094-.230469-.371094-.476563-.738281-.726563-1.105468-.75-1.097657-1.539062-2.179688-2.359375-3.25-.230469-.300782-.464843-.605469-.703125-.902344-.230468-.296875-.460937-.585938-.707031-.871094-.167969-.210938-.328125-.414062-.503906-.617188-.3125-.382812-.636719-.761718-.964844-1.132812-.140625-.167969-.285156-.328125-.433594-.488281-.355469-.410157-.726562-.8125-1.105469-1.214844-.636718-.691406-1.285156-1.371094-1.957031-2.042969-.675781-.679687-1.363281-1.335937-2.054687-1.972656-.390625-.363281-.78125-.726562-1.179688-1.066406-.183594-.167969-.359375-.328125-.546875-.476563-.335937-.308593-.683593-.601562-1.042969-.890625-.230468-.199218-.46875-.394531-.703124-.59375-.253907-.207031-.511719-.410156-.769532-.613281-.316406-.257813-.644531-.519531-.972656-.761719-.714844-.546875-1.433594-1.085937-2.167969-1.59375-.355469-.261718-.71875-.511718-1.082031-.765625-.429688-.285156-.847656-.5625-1.273438-.835937-.0625-.050782-.132812-.089844-.203124-.132813-.460938-.308593-.929688-.609375-1.414063-.898437-.089844-.0625-.1875-.117188-.277344-.164063-.429687-.273437-.867187-.53125-1.316406-.785156-.144531-.089844-.292969-.179687-.441406-.257813-.976563-.558593-1.964844-1.097656-2.953125-1.601562-.5-.257812-.996094-.503906-1.5-.742188-.082032-.042968-.167969-.082031-.257813-.117187-.320312-.167969-.65625-.320313-.992187-.460937-.460938-.226563-.921875-.433594-1.398438-.628907-.105468-.050781-.210937-.097656-.320312-.140625-.546875-.238281-1.089844-.460937-1.644532-.679687-.78125-.320313-1.585937-.621094-2.375-.910157-.679687-.242187-1.371093-.472656-2.0625-.703124-.070312-.027344-.140624-.042969-.21875-.0625-.609374-.203126-1.214843-.394532-1.839843-.566407-.074219-.035156-.167969-.058593-.242188-.078125-.589843-.167968-1.175781-.335937-1.761719-.488281-.167968-.042969-.324218-.085937-.496093-.121094-.636719-.171875-1.28125-.328125-1.925781-.464843-.683594-.15625-1.371094-.308594-2.046876-.441407-.890624-.175781-1.789062-.335937-2.683593-.476562-.464844-.070313-.921875-.140625-1.378907-.203125-.328124-.046875-.648437-.089844-.976562-.125-1.929688-.253906-3.867188-.414063-5.796875-.496094-.519531-.027344-1.042969-.050781-1.574219-.050781-.125-.011719-.25-.011719-.378906-.011719-.445312-.015625-.898438-.023438-1.347656-.007812-.210938-.015626-.425782-.007813-.648438-.007813-.421875 0-.847656.007813-1.265625.023437-.085937 0-.160156.003907-.246093.003907-2.859376.078125-5.472657-.957031-7.433594-2.703125 94.308594-77.011719 193.480468-106.003906 235.449218-64.035156zm0 0" fill="url(#M)"/><path d="m331.84375 507.015625c.027344-.042969.054688-.082031.082031-.125 1.066407-1.746094 2.105469-3.503906 3.121094-5.269531.320313-.5625.640625-1.121094.949219-1.679688 1.140625-2.019531 2.25-4.054687 3.328125-6.109375.386719-.722656.753906-1.441406 1.125-2.160156.015625-.027344.027343-.058594.042969-.085937.371093-.734376.734374-1.460938 1.097656-2.1875.378906-.742188.742187-1.484376 1.097656-2.230469 2.292969-4.710938 4.410156-9.488281 6.375-14.320313.625-1.515625 1.21875-3.03125 1.796875-4.5625.253906-.644531.488281-1.289062.726563-1.929687.246093-.652344.484374-1.292969.714843-1.945313.285157-.777344.550781-1.546875.824219-2.320312.246094-.679688.476562-1.359375.707031-2.050782.496094-1.433593.972657-2.886718 1.433594-4.339843.203125-.636719.40625-1.273438.601563-1.902344.101562-.34375.214843-.691406.3125-1.042969.476562-1.566406.9375-3.132812 1.386718-4.699218 1.011719-3.613282 1.941406-7.226563 2.78125-10.878907.160156-.664062.308594-1.328125.453125-1.992187.199219-.863282.386719-1.726563.5625-2.585938.152344-.699218.296875-1.390625.433594-2.082031.257813-1.292969.507813-2.578125.746094-3.878906.152343-.796875.292969-1.59375.425781-2.398438.910156-5.230469 1.652344-10.488281 2.203125-15.75.078125-.667969.140625-1.332031.210937-2 .054688-.617187.109376-1.21875.167969-1.832031.066407-.714844.125-1.425781.179688-2.15625.0625-.804688.132812-1.613281.183593-2.417969.097657-1.382812.179688-2.753906.257813-4.132812.042969-.796875.082031-1.59375.109375-2.390625.269531-6.234375.296875-12.472656.070312-18.707032-.027343-.882812-.0625-1.757812-.101562-2.636718-.023438-.539063-.058594-1.074219-.078125-1.613282-.042969-.699218-.078125-1.40625-.125-2.113281-.050781-.804687-.105469-1.613281-.160156-2.425781-.058594-.8125-.121094-1.613281-.191407-2.425781-.125-1.523438-.265624-3.0625-.417968-4.585938-.089844-.875-.183594-1.746093-.285156-2.621093-.601563-5.339844-1.386719-10.652344-2.351563-15.941407-.136719-.78125-.285156-1.570312-.441406-2.355469-.105469-.550781-.207031-1.105468-.320313-1.664062-.117187-.578125-.238281-1.160156-.363281-1.746094-.550781-2.652344-1.140625-5.292968-1.789063-7.929687-.320312-1.328125-.648437-2.648438-.992187-3.96875-1.167969-4.425781-2.460937-8.839844-3.882813-13.207031-.242187-.761719-.496093-1.519532-.753906-2.28125-2.726562-8.125-5.90625-16.128907-9.542968-23.972657-.238282-.515625-.476563-1.035156-.71875-1.542969-3.390626-7.179687-7.160157-14.238281-11.3125-21.128906-.40625-.671875-.820313-1.351562-1.230469-2.015625-.355469-.578125-.714844-1.160156-1.078125-1.730469-.300782-.484374-.601563-.953124-.902344-1.433593-.390625-.601563-.78125-1.21875-1.179688-1.824219-.328124-.511719-.664062-1.015625-1.007812-1.527344-2.144531-3.25-4.390625-6.460937-6.722656-9.632812-.9375-1.273438-1.890625-2.53125-2.855469-3.789063-.585937-.769531-1.179687-1.53125-1.78125-2.300781-.53125-.671875-1.0625-1.34375-1.601563-2.007812-.417968-.527344-.84375-1.054688-1.277343-1.570313-.378907-.460937-.757813-.921875-1.132813-1.386719-.503906-.601562-1.007812-1.199218-1.523437-1.800781-.546875-.644531-1.09375-1.289063-1.644531-1.925781-.671876-.765625-1.351563-1.542969-2.035157-2.3125-.59375-.679688-1.203125-1.34375-1.808593-2.007813-.359376-.398437-.714844-.796875-1.085938-1.179687-.417969-.460938-.832031-.917969-1.257812-1.371094-.621094-.664062-1.253907-1.320312-1.886719-1.984375-1.203125-1.261719-2.421875-2.503906-3.65625-3.742187 41.96875 41.96875 12.976562 141.140624-64.035157 235.449218 2.027344 2.25 4.984376 3.640625 8.269532 3.542969.128906 0 .261718-.007813.386718-.007813.320313-.015624.648438-.019531.976563-.015624.457031-.003907.917969-.003907 1.363281.007812.140625-.011719.28125-.015625.414063-.007812.691406.007812 1.398437.027343 2.089843.066406.734376.019531 1.460938.0625 2.203126.117187.742187.054688 1.472656.117188 2.203124.203125.664063.0625 1.328126.140625 1.976563.230469.140625.015625.28125.027344.414063.050781.664062.089844 1.335937.1875 1.992187.300782.734375.117187 1.460937.242187 2.183594.390624.035156.007813.066406.015626.097656.015626.683594.136718 1.375.285156 2.066406.445312.679688.148438 1.34375.308594 2.007813.480469.113281.027343.21875.050781.320312.085937.636719.160156 1.273438.335938 1.902344.53125.050781.007813.105469.019532.148438.035156.648437.1875 1.292968.382813 1.929687.601563 1.605469.515625 3.195313 1.082031 4.761719 1.726563.464844.175781.929687.371093 1.382812.574218.195313.070313.382813.160156.566406.242188.378907.15625.753907.320312 1.125.496094.382813.175781.769532.351562 1.140626.539062 1.136718.539062 2.257812 1.109375 3.371093 1.71875.265625.140625.535157.289062.792969.449219.386719.203125.769531.417969 1.148438.644531.222656.125.441406.257812.648437.398438.351563.195312.6875.402343 1.023437.613281.308594.183593.605469.371093.894532.574219.277344.167968.550781.34375.824218.53125.292969.179687.574219.375.859376.566406.449218.304687.902343.621094 1.351562.957031.671875.460937 1.328125.949219 1.976562 1.460937.257813.1875.519532.390626.769532.601563.347656.265625.691406.539063 1.027344.816406.179687.140625.355468.289063.523437.441407.398437.328124.796875.65625 1.183594 1 .167969.140624.320312.277343.480469.425781.414062.355469.816406.734375 1.214843 1.105469.695313.636718 1.371094 1.285156 2.042969 1.957031.46875.46875.921875.9375 1.371094 1.414062.230468.242188.460937.488281.6875.738281.339844.355469.675781.734376 1.003906 1.105469.433594.476563.855469.964844 1.257812 1.453125.148438.175782.292969.351563.441407.523438.300781.371094.59375.734375.886719 1.113281.183593.222656.359374.441406.527343.664063.179688.238281.367188.480468.542969.726562.253906.320312.496094.648438.734375.984375.355469.484375.707031.972656 1.046875 1.46875.28125.394531.539062.777344.796875 1.175781.484375.734375.953125 1.46875 1.40625 2.214844.292969.476562.578125.957031.851563 1.441406.066406.089844.113281.183594.160156.273438.15625.25.296875.5.429687.746094.25.445312.5.894531.734375 1.351562.257813.46875.5.949219.738282 1.425781.15625.308594.308593.613281.457031.929688.207031.40625.402343.824219.585937 1.242187.460938.964844.875 1.9375 1.273438 2.925782.195312.460937.378906.921874.558594 1.382812.460937 1.1875.894531 2.390625 1.277343 3.601562.035157.101563.078125.214844.113281.320313 2.746094 8.554687 14.339844 9.855469 19.085938 2.28125zm0 0" fill="url(#N)"/><path d="m64.609375 430.707031-23.476563 23.476563c-3.527343 3.527344-9.226562 4-13.066406.820312-4.410156-3.648437-4.636718-10.222656-.683594-14.175781l13.4375-13.4375c4.480469-4.480469 4.90625-11.777344.652344-16.472656-4.546875-5.015625-12.339844-5.160157-17.070312-.429688l-13.265625 13.265625c-13.113281 13.117188-13.339844 34.804688-.003907 47.691406 12.953126 12.515626 33.675782 12.382813 46.460938-.402343l23.675781-23.675781c3.949219-3.949219 3.949219-10.355469 0-14.304688l-2.355469-2.355469c-3.949218-3.949219-10.355468-3.949219-14.304687 0zm0 0" fill="url(#O)"/><path d="m178.617188 94.324219c-8.832032-11.929688-23.375-17.910157-36.429688-10.847657s-17.910156 23.375-10.847656 36.429688c10.769531 19.894531 51.925781 12.566406 62.324218 19.609375 12.289063 8.324219-5.78125-32.671875-15.046874-45.191406zm0 0" fill="url(#Q)"/><path d="m432.230469 332.675781c11.925781-2.585937 24.15625 1.597657 28.398437 13.042969 4.238282 11.441406-1.601562 24.15625-13.042968 28.394531-17.441407 6.464844-38.910157-20.378906-49.152344-21.660156-12.113282-1.515625 21.28125-17.0625 33.796875-19.777344zm0 0" fill="url(#R)"/><path d="m224.816406 83.28125c1.574219-8.964844-1.910156-17.949219-10.558594-20.765625-8.652343-2.820313-17.949218 1.910156-20.765624 10.5625-4.296876 13.183594 16.339843 28.375 17.601562 35.96875 1.488281 8.972656 12.074219-16.363281 13.722656-25.765625zm0 0" fill="url(#S)"/><path d="m405.210938 378.421875c7.214843 5.542969 10.722656 14.519531 6.25 22.441406-4.46875 7.921875-14.515626 10.722657-22.441407 6.253907-12.074219-6.816407-7.136719-31.960938-11.335937-38.410157-4.96875-7.621093 19.957031 3.898438 27.527344 9.714844zm0 0" fill="url(#T)"/></svg>