<svg height="512pt" viewBox="0 0 512 512" width="512pt" xmlns="http://www.w3.org/2000/svg" xmlns:xlink="http://www.w3.org/1999/xlink"><radialGradient id="a" cx="215.8434307844" cy="185.72557" gradientUnits="userSpaceOnUse" r="336.6901399656"><stop offset="0" stop-color="#3b395f"/><stop offset=".3952" stop-color="#39375d"/><stop offset=".6279" stop-color="#323154"/><stop offset=".8179" stop-color="#262846"/><stop offset=".9849" stop-color="#151a32"/><stop offset="1" stop-color="#131830"/></radialGradient><linearGradient id="b" gradientUnits="userSpaceOnUse" x1="492.4161111928" x2="222.8766071398" y1="403.7395805406" y2="245.6293949556"><stop offset="0" stop-color="#131830" stop-opacity="0"/><stop offset=".8421" stop-color="#131830"/></linearGradient><linearGradient id="c"><stop offset="0" stop-color="#ecf7ff"/><stop offset=".2926" stop-color="#e6f4ff"/><stop offset=".6915" stop-color="#d4eaff"/><stop offset="1" stop-color="#c2e0ff"/></linearGradient><linearGradient id="d" gradientUnits="userSpaceOnUse" x1="199.2772119014" x2="333.6762657294" xlink:href="#c" y1="225.6432153874" y2="225.6432153874"/><linearGradient id="e" gradientUnits="userSpaceOnUse" x1="321.5708738612" x2="224.5103898026" xlink:href="#c" y1="225.2050034344" y2="225.2050034344"/><linearGradient id="f"><stop offset="0" stop-color="#3b395f"/><stop offset=".0633" stop-color="#37355a"/><stop offset=".4033" stop-color="#232543"/><stop offset=".7232" stop-color="#171b35"/><stop offset="1" stop-color="#131830"/></linearGradient><linearGradient id="g" gradientUnits="userSpaceOnUse" x1="277.8566966464" x2="222.6664862652" xlink:href="#f" y1="225.205806572" y2="225.205806572"/><linearGradient id="h" gradientUnits="userSpaceOnUse" x1="293.5942783106" x2="327.9825221064" xlink:href="#f" y1="105.8666870582" y2="105.8666870582"/><linearGradient id="i" gradientUnits="userSpaceOnUse" x1="293.5942783106" x2="327.9825221064" xlink:href="#f" y1="145.5010256572" y2="145.5010256572"/><linearGradient id="j" gradientUnits="userSpaceOnUse" x1="293.5942783106" x2="327.9825221064" xlink:href="#f" y1="185.1343603342" y2="185.1343603342"/><linearGradient id="k" gradientUnits="userSpaceOnUse" x1="293.5942783106" x2="327.9825221064" xlink:href="#f" y1="224.7686989332" y2="224.7686989332"/><linearGradient id="l" gradientUnits="userSpaceOnUse" x1="293.5942783106" x2="327.9825221064" xlink:href="#f" y1="264.4030375322" y2="264.4030375322"/><linearGradient id="m" gradientUnits="userSpaceOnUse" x1="293.5942783106" x2="327.9825221064" xlink:href="#f" y1="304.0363722092" y2="304.0363722092"/><radialGradient id="n" cx="144.0923223068" cy="288.5376235888" gradientUnits="userSpaceOnUse" r="185.647264084"><stop offset="0" stop-color="#ff6e3a"/><stop offset=".2336" stop-color="#ff6b3c"/><stop offset=".418" stop-color="#ff6143"/><stop offset=".5857" stop-color="#ff504e"/><stop offset=".7434" stop-color="#ff395e"/><stop offset=".8928" stop-color="#ff1b72"/><stop offset="1" stop-color="#ff0084"/></radialGradient><linearGradient id="o"><stop offset="0" stop-color="#fff" stop-opacity="0"/><stop offset="1" stop-color="#fff"/></linearGradient><linearGradient id="p" gradientUnits="userSpaceOnUse" x1="257.266557603" x2="203.9353095892" xlink:href="#o" y1="296.1744582428" y2="270.3830997096"/><linearGradient id="q" gradientUnits="userSpaceOnUse" x1="263.1195232552" x2="161.2653116466" xlink:href="#o" y1="359.892484053" y2="418.4695256934"/><linearGradient id="r" gradientUnits="userSpaceOnUse" x1="331.057334408" x2="189.5006178966" y1="439.9550627686" y2="298.3983462572"><stop offset=".0029" stop-color="#c2e0ff" stop-opacity="0"/><stop offset=".0763" stop-color="#bfdcfd" stop-opacity=".07451"/><stop offset="1" stop-color="#9eb2e7"/></linearGradient><linearGradient id="s" gradientUnits="userSpaceOnUse" x1="304.4342264978" x2="237.0037975238" y1="403.6652903126" y2="336.2348613386"><stop offset="0" stop-color="#ff0084" stop-opacity="0"/><stop offset=".0737" stop-color="#f4087e" stop-opacity=".07451"/><stop offset=".3347" stop-color="#d2216b" stop-opacity=".333333"/><stop offset=".583" stop-color="#ba335e" stop-opacity=".584314"/><stop offset=".8111" stop-color="#ab3d56" stop-opacity=".811765"/><stop offset="1" stop-color="#a64153"/></linearGradient><linearGradient id="t"><stop offset="0" stop-color="#00c6f6"/><stop offset=".8567" stop-color="#0b9cfd"/><stop offset="1" stop-color="#0d94fe"/></linearGradient><linearGradient id="u" gradientUnits="userSpaceOnUse" x1="138.2848343212" x2="276.9415213512" xlink:href="#t" y1="334.805979156" y2="473.4627665782"/><linearGradient id="v" gradientUnits="userSpaceOnUse" x1="192.7228059478" x2="331.37959337" xlink:href="#t" y1="280.3675055684" y2="419.0241925984"/><linearGradient id="w" gradientUnits="userSpaceOnUse" x1="138.2843323602" x2="276.9420233122" xlink:href="#t" y1="334.8053768028" y2="473.4629673626"/><linearGradient id="x" gradientUnits="userSpaceOnUse" x1="192.7226051634" x2="331.3797941544" xlink:href="#t" y1="280.3672043918" y2="419.0243933828"/><linearGradient id="y" gradientUnits="userSpaceOnUse" x1="127.0080796718" x2="265.6689831742" xlink:href="#t" y1="346.0763087046" y2="484.737212207"/><linearGradient id="z" gradientUnits="userSpaceOnUse" x1="203.993938634" x2="342.6547417442" xlink:href="#t" y1="269.0905501346" y2="407.7513532448"/><linearGradient id="A" gradientUnits="userSpaceOnUse" x1="165.5042718994" x2="304.1603565762" xlink:href="#t" y1="307.58664197" y2="446.242827039"/><linearGradient id="B" gradientUnits="userSpaceOnUse" x1="165.5034687618" x2="304.1609589294" xlink:href="#t" y1="307.5864411856" y2="446.243830961"/><linearGradient id="C"><stop offset="0" stop-color="#0d94fe" stop-opacity="0"/><stop offset=".5142" stop-color="#0681cd" stop-opacity=".513725"/><stop offset="1" stop-color="#0070a2"/></linearGradient><linearGradient id="D" gradientUnits="userSpaceOnUse" x1="275.466659541" x2="247.1357799166" xlink:href="#C" y1="437.4783871946" y2="409.147407178"/><linearGradient id="E" gradientUnits="userSpaceOnUse" x1="274.538031691" x2="248.0198336298" xlink:href="#C" y1="464.0570213602" y2="437.538823299"/><linearGradient id="F" gradientUnits="userSpaceOnUse" x1="295.3236343478" x2="267.0775861324" xlink:href="#C" y1="417.4677119296" y2="389.2217641064"/><linearGradient id="G" gradientUnits="userSpaceOnUse" x1="321.8225571066" x2="294.7052183958" xlink:href="#C" y1="416.9290073844" y2="389.8116686736"/><linearGradient id="H" gradientUnits="userSpaceOnUse" x1="313.530864132" x2="254.235717085" xlink:href="#C" y1="455.6138365558" y2="396.3186895088"/><linearGradient id="I" gradientUnits="userSpaceOnUse" x1="279.5605530648" x2="254.3533767434" xlink:href="#C" y1="344.5747425692" y2="319.3675662478"/><linearGradient id="J" gradientUnits="userSpaceOnUse" x1="333.0734105684" x2="287.6032733834" xlink:href="#C" y1="351.8484586358" y2="342.8146665188"/><linearGradient id="K" gradientUnits="userSpaceOnUse" x1="234.644681216" x2="383.1470320844" xlink:href="#t" y1="290.2793278666" y2="438.781678735"/><linearGradient id="L" gradientUnits="userSpaceOnUse" x1="148.1962550506" x2="296.6988067034" xlink:href="#t" y1="376.7269508944" y2="525.2295025472"/><linearGradient id="M" gradientUnits="userSpaceOnUse" x1="234.643677294" x2="383.1466305156" xlink:href="#t" y1="290.278524729" y2="438.7814779506"/><linearGradient id="N" gradientUnits="userSpaceOnUse" x1="148.196455835" x2="296.6979031736" xlink:href="#t" y1="376.7275532476" y2="525.228900194"/><linearGradient id="O" gradientUnits="userSpaceOnUse" x1="245.7182420526" x2="394.2212956664" xlink:href="#t" y1="279.205265069" y2="427.7082182906"/><linearGradient id="P" gradientUnits="userSpaceOnUse" x1="137.1227946062" x2="285.6244427292" xlink:href="#t" y1="387.8018168296" y2="536.3034649526"/><linearGradient id="Q" gradientUnits="userSpaceOnUse" x1="191.4204179372" x2="339.9225680212" xlink:href="#t" y1="333.503390361" y2="482.005540445"/><linearGradient id="R" gradientUnits="userSpaceOnUse" x1="191.4204179372" x2="339.9231703744" xlink:href="#t" y1="333.503390361" y2="482.0062431904"/><linearGradient id="S" gradientUnits="userSpaceOnUse" x1="297.3055771602" x2="237.3094917728" xlink:href="#C" y1="406.7514469328" y2="333.2078357242"/><linearGradient id="T" gradientUnits="userSpaceOnUse" x1="253.2158327252" x2="192.3794646238" xlink:href="#C" y1="444.1443288824" y2="369.570794094"/><linearGradient id="U" gradientUnits="userSpaceOnUse" x1="302.0069438862" x2="240.8382776028" xlink:href="#C" y1="404.8502194492" y2="329.869192721"/><linearGradient id="V" gradientUnits="userSpaceOnUse" x1="274.9736334468" x2="213.8060714776" xlink:href="#C" y1="426.90277167" y2="351.9231504326"/><linearGradient id="W"><stop offset="0" stop-color="#ecf7ff"/><stop offset="1" stop-color="#c2e0ff"/></linearGradient><radialGradient id="X" cx="256.0003107844" cy="398.0829820316" gradientUnits="userSpaceOnUse" r="24.4956968" xlink:href="#W"/><linearGradient id="Y" gradientUnits="userSpaceOnUse" x1="239.6116857032" x2="318.2872457836" xlink:href="#t" y1="381.6945577348" y2="460.3701178152"/><radialGradient id="Z" cx="218.1956200304" cy="345.3313985806" gradientUnits="userSpaceOnUse" r="153.313446269" xlink:href="#W"/><radialGradient id="aa" cx="218.1957204226" cy="345.3313985806" gradientUnits="userSpaceOnUse" r="153.3137474456" xlink:href="#W"/><radialGradient id="ab" cx="218.1956200304" cy="345.3325028948" gradientUnits="userSpaceOnUse" r="153.3135466612" xlink:href="#W"/><radialGradient id="ac" cx="218.1957204226" cy="345.3325028948" gradientUnits="userSpaceOnUse" r="153.3130447002" xlink:href="#W"/><radialGradient id="ad" cx="218.1955196382" cy="345.332101326" gradientUnits="userSpaceOnUse" r="153.3132454846" xlink:href="#W"/><radialGradient id="ae" cx="218.1955196382" cy="345.3318001494" gradientUnits="userSpaceOnUse" r="153.3133458768" xlink:href="#W"/><radialGradient id="af" cx="218.195921207" cy="345.332101326" gradientUnits="userSpaceOnUse" r="153.3137474456" xlink:href="#W"/><radialGradient id="ag" cx="218.195921207" cy="345.3318001494" gradientUnits="userSpaceOnUse" r="153.3135466612" xlink:href="#W"/><linearGradient id="ah" gradientUnits="userSpaceOnUse" x1="307.2289445614" x2="142.0628939838" xlink:href="#o" y1="464.5997415934" y2="250.1434298364"/><linearGradient id="ai" gradientUnits="userSpaceOnUse" x1="320.1248246124" x2="154.963392076" xlink:href="#o" y1="454.6624196764" y2="240.2121314514"/><linearGradient id="aj" gradientUnits="userSpaceOnUse" x1="350.0412986436" x2="184.8778582632" xlink:href="#o" y1="431.6245180126" y2="217.1717199826"/><linearGradient id="ak" gradientUnits="userSpaceOnUse" x1="264.4336571532" x2="99.2686104976" xlink:href="#o" y1="497.55880203" y2="283.1038957638"/><linearGradient id="al" gradientUnits="userSpaceOnUse" x1="294.3491272624" x2="129.1820727628" xlink:href="#o" y1="474.5196956598" y2="260.0621791964"/><linearGradient id="am" gradientUnits="userSpaceOnUse" x1="354.9148379926" x2="189.747783493" xlink:href="#o" y1="427.874066205" y2="213.4165497416"/><linearGradient id="an" gradientUnits="userSpaceOnUse" x1="331.8752296614" x2="166.7081751618" xlink:href="#o" y1="445.6177852018" y2="231.1602687384"/><linearGradient id="ao" gradientUnits="userSpaceOnUse" x1="282.6003284886" x2="117.435281833" xlink:href="#o" y1="483.5663379784" y2="269.1114317122"/><linearGradient id="ap" gradientUnits="userSpaceOnUse" x1="259.561021334" x2="94.3959746784" xlink:href="#o" y1="501.310458544" y2="286.8554518856"/><path d="m512 256c0 141.386719-114.613281 256-256 256s-256-114.613281-256-256 114.613281-256 256-256 256 114.613281 256 256zm0 0" fill="url(#a)"/><path d="m512 256c0-4.660156-.132812-9.292969-.378906-13.890625l-195.910156-195.910156c-14.753907-16.242188-36.039063-26.4375-59.710938-26.4375-44.539062 0-80.648438 36.109375-80.648438 80.648437v245.140625c-1.175781 1.359375-1.890624 3.128907-1.890624 5.066407 0 2.015624.785156 3.839843 2.046874 5.21875.480469 7.894531 2.089844 15.480468 4.679688 22.601562l-1.917969-1.917969-3.238281-3.234375c-3.023438-3.027344-7.933594-3.027344-10.960938 0-3.027343 3.027344-3.027343 7.933594 0 10.960938l3.898438 3.898437c-.042969.003907-.082031.011719-.125.015625-.199219.015625-.390625.039063-.585938.066406-.128906.019532-.257812.035157-.386718.058594-.1875.035156-.375.078125-.5625.125-.125.027344-.253906.058594-.378906.09375-.179688.054688-.359376.109375-.535157.171875-.125.042969-.25.089844-.367187.136719-.171875.066406-.34375.140625-.507813.214844-.121093.054687-.242187.113281-.359375.175781-.160156.078125-.320312.164063-.476562.253906-.117188.070313-.230469.140625-.34375.210938-.148438.09375-.296875.191406-.441406.292969-.113282.078124-.222657.164062-.332032.25-.136718.105468-.269531.210937-.398437.320312-.109375.09375-.210938.191406-.316407.289062-.121093.113282-.242187.230469-.359374.351563-.101563.105469-.199219.214844-.296876.328125-.109374.121094-.214843.242188-.316406.367188-.097656.121093-.1875.246093-.277344.367187-.089843.128906-.1875.253906-.273437.386719-.085937.132812-.164063.273437-.246094.410156-.078125.132812-.160156.261719-.230469.398438-.078124.148437-.144531.296874-.21875.449218-.0625.132813-.128906.265625-.183593.402344-.066407.164062-.125.332031-.183594.496094-.046875.132812-.097656.265625-.140625.402344-.054688.179687-.09375.363281-.140625.550781-.03125.128906-.070313.253906-.09375.386719-.042969.207031-.070313.421874-.097656.636718-.015625.113282-.039063.21875-.050781.332032-.03125.328124-.046876.660156-.046876.996093 0 .339844.015626.671875.046876 1 .011718.109375.035156.21875.050781.332031.027343.210938.054687.425782.097656.636719.023437.132813.0625.257813.09375.386719.042969.183594.085937.371094.140625.550781.042969.136719.09375.269531.140625.402344.058594.164063.117187.332031.183594.496094.054687.136719.121093.265625.183593.402343.070313.148438.140626.300782.21875.449219.070313.136719.152344.265625.230469.398438.082031.136719.160157.273437.246094.40625.085937.132812.183594.261719.273437.386719.089844.125.179688.25.277344.371093.101563.125.207032.246094.316406.367188.097657.109375.195313.222656.296876.328125.117187.121094.238281.234375.359374.347656.105469.101562.207032.199219.316407.289062.128906.113282.261719.21875.398437.324219.109375.085938.21875.167969.332032.25.144531.101563.292968.199219.441406.292969.027344.015625.054687.03125.085937.050781.042969.078125.089844.152344.136719.230469.085938.128906.179688.257812.273438.386719.089843.121093.179687.246093.277343.367187.101563.125.207031.246094.316407.367188.097656.113281.195312.222656.296874.332031.117188.117187.238282.230469.359376.347656.101562.097657.207031.195313.316406.289063.128906.109375.265625.21875.398437.320312.109375.085938.222657.167969.335938.25.078125.058594.164062.109375.246093.164063l-2.3125 2.316406c-3.027343 3.023437-3.027343 7.933594 0 10.960937.5625.5625 1.191407 1.019532 1.863282 1.375l12.9375 12.9375c.152344.285157.328125.5625.515625.828126-3.398438.820312-5.925781 3.875-5.925781 7.527343 0 2.972657 1.675781 5.550781 4.132812 6.851563l57.871094 58.777344c6.777344.539062 13.621094.820312 20.535156.820312 20.753906 0 40.921875-2.484375 60.242188-7.144531.015624-.003907.03125-.007813.046874-.011719 1.757813-.425781 3.511719-.871094 5.253907-1.332031.125-.03125.25-.0625.375-.097657 1.6875-.449218 3.367187-.914062 5.039062-1.394531.167969-.050781.335938-.097656.503907-.148437 1.652343-.476563 3.296874-.972656 4.933593-1.484375.171875-.054688.347657-.109375.523438-.164063 1.644531-.519531 3.28125-1.050781 4.910156-1.597656.140625-.046875.277344-.09375.414063-.144531 1.675781-.566407 3.34375-1.148438 5-1.75.039062-.015625.078124-.027344.121093-.042969 12.175781-4.421875 23.925781-9.742188 35.164063-15.878906.109375-.0625.21875-.117188.328125-.179688 1.410156-.773437 2.8125-1.5625 4.207031-2.363281.265625-.148437.527344-.296875.792969-.449219 1.304687-.753906 2.601562-1.523437 3.890625-2.300781.34375-.207031.6875-.410156 1.03125-.621094 1.234375-.75 2.464844-1.511719 3.691406-2.285156.382812-.242187.765625-.484375 1.148438-.730469 1.191406-.761718 2.375-1.53125 3.554687-2.3125.398437-.265625.796875-.53125 1.195313-.796875 1.164062-.78125 2.320312-1.566406 3.464843-2.363281.398438-.277344.792969-.554688 1.1875-.832031 1.148438-.808594 2.292969-1.617188 3.429688-2.445313.363281-.265625.722656-.535156 1.085937-.804687 1.160156-.851563 2.316406-1.707031 3.460938-2.582031.289062-.21875.570312-.441407.855468-.660157 1.21875-.933593 2.429688-1.875 3.628907-2.828125.058593-.046875.117187-.097656.175781-.144531 4.226562-3.375 8.34375-6.882813 12.347656-10.515625.019532-.019531.042969-.035156.0625-.054688 1.023438-.929687 2.027344-1.871093 3.035156-2.816406.386719-.363281.78125-.726562 1.164063-1.089844.199219-.1875.398437-.367187.59375-.554687l-.011719-.007813c48.769532-46.605468 79.152344-112.285156 79.152344-185.070312zm0 0" fill="url(#b)"/><path d="m256 431.527344c-44.539062 0-80.648438-36.109375-80.648438-80.652344v-250.464844c0-44.542968 36.109376-80.648437 80.648438-80.648437s80.648438 36.105469 80.648438 80.648437v250.464844c0 44.542969-36.109376 80.652344-80.648438 80.652344zm0 0" fill="url(#d)"/><path d="m256.046875 418.855469c-14.550781 0-28.339844-5.75-38.824219-16.191407-10.511718-10.472656-16.304687-24.28125-16.304687-38.886718 0-15.460938 6.566406-30.308594 18.015625-40.726563 2.441406-2.222656 3.84375-5.445312 3.84375-8.835937v-249.441406c0-18.316407 14.902344-33.222657 33.222656-33.222657.308594 0 .617188.007813.925781.015625 17.808594.488282 32.296875 15.613282 32.296875 33.71875v248.921875c0 3.410157 1.351563 6.589844 3.710938 8.722657 11.53125 10.429687 18.144531 25.316406 18.144531 40.847656 0 14.398437-5.519531 28.015625-15.542969 38.347656-9.996094 10.308594-23.398437 16.242188-37.730468 16.703125-.585938.019531-1.171876.027344-1.757813.027344zm0 0" fill="url(#e)"/><path d="m280.480469 314.207031v-248.921875c0-13.339844-10.457031-24.617187-23.792969-24.980468-13.832031-.378907-25.167969 10.722656-25.167969 24.46875v249.441406c0 5.8125-2.402343 11.386718-6.703125 15.300781-9.304687 8.472656-15.152344 20.683594-15.152344 34.261719 0 25.890625 21.984376 47.148437 47.859376 46.3125 24.886718-.804688 44.8125-21.230469 44.8125-46.3125 0-13.632813-5.890626-25.886719-15.261719-34.363282-4.277344-3.863281-6.59375-9.441406-6.59375-15.207031zm0 0" fill="url(#g)"/><path d="m324.484375 109.363281h-27.394531c-1.929688 0-3.496094-1.566406-3.496094-3.496093 0-1.929688 1.566406-3.496094 3.496094-3.496094h27.394531c1.933594 0 3.496094 1.566406 3.496094 3.496094 0 1.929687-1.5625 3.496093-3.496094 3.496093zm0 0" fill="url(#h)"/><path d="m324.484375 148.996094h-27.394531c-1.929688 0-3.496094-1.5625-3.496094-3.496094 0-1.929688 1.566406-3.496094 3.496094-3.496094h27.394531c1.933594 0 3.496094 1.566406 3.496094 3.496094 0 1.933594-1.5625 3.496094-3.496094 3.496094zm0 0" fill="url(#i)"/><path d="m324.484375 188.632812h-27.394531c-1.929688 0-3.496094-1.566406-3.496094-3.496093 0-1.933594 1.566406-3.5 3.496094-3.5h27.394531c1.933594 0 3.496094 1.566406 3.496094 3.5 0 1.929687-1.5625 3.496093-3.496094 3.496093zm0 0" fill="url(#j)"/><path d="m324.484375 228.265625h-27.394531c-1.929688 0-3.496094-1.566406-3.496094-3.496094 0-1.933593 1.566406-3.496093 3.496094-3.496093h27.394531c1.933594 0 3.496094 1.566406 3.496094 3.496093 0 1.929688-1.5625 3.496094-3.496094 3.496094zm0 0" fill="url(#k)"/><path d="m324.484375 267.898438h-27.394531c-1.929688 0-3.496094-1.566407-3.496094-3.496094 0-1.929688 1.566406-3.496094 3.496094-3.496094h27.394531c1.933594 0 3.496094 1.566406 3.496094 3.496094 0 1.929687-1.5625 3.496094-3.496094 3.496094zm0 0" fill="url(#l)"/><path d="m324.484375 307.535156h-27.394531c-1.929688 0-3.496094-1.566406-3.496094-3.5 0-1.929687 1.566406-3.496094 3.496094-3.496094h27.394531c1.933594 0 3.496094 1.566407 3.496094 3.496094 0 1.933594-1.5625 3.5-3.496094 3.5zm0 0" fill="url(#m)"/><path d="m280.480469 314.207031v-39.3125c0-13.339843-10.457031-24.613281-23.792969-24.980469-13.832031-.378906-25.167969 10.722657-25.167969 24.46875v39.832032c0 5.8125-2.402343 11.386718-6.703125 15.300781-9.304687 8.472656-15.152344 20.683594-15.152344 34.261719 0 25.890625 21.984376 47.148437 47.859376 46.3125 24.886718-.804688 44.8125-21.230469 44.8125-46.3125 0-13.632813-5.890626-25.886719-15.261719-34.363282-4.277344-3.863281-6.59375-9.441406-6.59375-15.207031zm0 0" fill="url(#n)"/><path d="m275.234375 327.933594h-38.46875v-52.675782c0-10.621093 8.613281-19.234374 19.234375-19.234374s19.234375 8.613281 19.234375 19.234374zm0 0" fill="url(#p)"/><path d="m297.785156 363.988281c0 23.074219-18.707031 41.78125-41.785156 41.78125s-41.785156-18.707031-41.785156-41.78125c0-23.078125 18.707031-41.785156 41.785156-41.785156s41.785156 18.707031 41.785156 41.785156zm0 0" fill="url(#q)"/><path d="m310.320312 319.675781c-1.300781-2.457031-3.878906-4.132812-6.851562-4.132812-3.652344 0-6.707031 2.527343-7.527344 5.925781-.269531-.1875-.542968-.363281-.828125-.515625l-12.941406-12.9375c-.351563-.671875-.808594-1.300781-1.371094-1.863281-3.027343-3.027344-7.9375-3.027344-10.964843 0l-2.3125 2.316406c-.054688-.085938-.105469-.167969-.164063-.25-.082031-.113281-.164063-.226562-.25-.335938-.105469-.132812-.210937-.265624-.320313-.394531-.09375-.109375-.191406-.214843-.289062-.320312-.117188-.121094-.230469-.242188-.351562-.359375-.105469-.101563-.214844-.199219-.328126-.296875-.121093-.109375-.242187-.214844-.367187-.316407-.121094-.097656-.246094-.183593-.371094-.273437-.125-.09375-.253906-.191406-.386719-.277344-.074218-.046875-.148437-.09375-.226562-.136719-.019531-.03125-.035156-.058593-.054688-.085937-.09375-.148437-.1875-.296875-.289062-.441406-.082031-.113281-.164062-.222657-.25-.332031-.105469-.136719-.210938-.269532-.324219-.398438-.09375-.109375-.1875-.214844-.289062-.316406-.113281-.121094-.226563-.246094-.347657-.359375-.105468-.105469-.21875-.199219-.328124-.296875-.121094-.109375-.242188-.214844-.367188-.316406-.121094-.097657-.246094-.1875-.371094-.277344-.128906-.09375-.253906-.1875-.386718-.273438-.132813-.085937-.269532-.167968-.40625-.246094-.132813-.078124-.265626-.160156-.398438-.230468-.148438-.078125-.300781-.148438-.449219-.21875-.136719-.0625-.269531-.128906-.40625-.1875-.160156-.066406-.328125-.121094-.492187-.179688-.136719-.046875-.269532-.097656-.402344-.140625-.179688-.054687-.367188-.097656-.550781-.140625-.128907-.03125-.253907-.070312-.386719-.097656-.210938-.042969-.425781-.066406-.636719-.097656-.113281-.015625-.222656-.035156-.332031-.046875-.328125-.035157-.660156-.050781-1-.050781-.335938 0-.667969.015624-.996094.050781-.113281.011719-.21875.03125-.332031.046875-.214844.03125-.429687.054687-.636719.097656-.132812.027344-.261718.066406-.390625.097656-.183593.042969-.367187.085938-.546875.140625-.136718.042969-.269531.09375-.402344.140625-.167968.058594-.335937.113282-.496093.183594-.136719.054688-.269531.121094-.40625.183594-.148438.070312-.300781.140625-.449219.21875-.136719.070312-.265625.152344-.398438.230468-.136718.078126-.273437.160157-.410156.246094-.128906.085938-.257812.179688-.386718.273438-.121094.089844-.246094.179687-.367188.277344-.125.101562-.246094.207031-.367188.316406-.113281.097656-.226562.195312-.332031.296875-.117187.113281-.234375.234375-.347656.355469-.097656.105468-.195313.210937-.289063.320312-.109374.128906-.214843.261719-.320312.398438-.085938.109374-.171875.21875-.25.332031-.101562.144531-.199219.289062-.292969.4375-.070312.113281-.144531.230469-.210937.347656-.089844.15625-.175782.3125-.253906.476563-.0625.117187-.121094.234374-.175782.355468-.074218.167969-.148437.335938-.214844.507813-.046874.121093-.089843.242187-.132812.367187-.0625.179688-.121094.355469-.171875.539063-.035156.125-.066406.25-.097656.375-.046875.1875-.085938.375-.121094.566406-.023437.125-.042969.253906-.058594.386719-.027343.191406-.054687.386718-.070312.582031-.003907.042969-.011719.085937-.015625.128906l-.660156-.664062-3.238282-3.234375c-3.027344-3.027344-7.933594-3.027344-10.960937 0-3.027344 3.023437-3.027344 7.933594 0 10.960937l3.234375 3.234375 3.238281 3.234375v.003907l8.363281 8.363281v14.5625c-.136718-.152344-.277344-.300781-.429687-.4375-.457031-.410157-.980469-.753907-1.558594-1l-8.148437-8.703125c-.457032-.414063-.980469-.757813-1.554688-1-.332031-.140625-.679688-.25-1.042969-.324219-.359375-.074219-.734375-.113281-1.117187-.113281-.382813 0-.753906.039062-1.113282.113281-.707031-1.011719-1.648437-1.851563-2.746093-2.429687l-12.9375-12.941407c-1.300781-2.457031-3.878907-4.132812-6.855469-4.132812-4.28125 0-7.75 3.46875-7.75 7.75v8.609375l-1.058594-1.058594c-.378906-.378906-.785156-.710938-1.214844-.992188-1.289062-.851562-2.777343-1.277343-4.265624-1.277343-1.984376 0-3.96875.757812-5.480469 2.269531-3.027344 3.027344-3.027344 7.9375 0 10.960938l1.058593 1.058593h-8.609374c-2.34375 0-4.4375 1.046875-5.859376 2.6875v5.328125c0 1.667969.066407 3.324219.167969 4.96875.59375.648438 1.289063 1.207032 2.074219 1.621094l12.941406 12.941406c.582032 1.101563 1.421875 2.042969 2.441406 2.75-.070312.355469-.109374.71875-.109374 1.09375 0 .382813.039062.757813.113281 1.117188s.183593.710937.324219 1.042968l11.148437 11.703126h-14.585937l-9.679688-9.679688c11.261719 30.96875 40.953125 53.085938 75.8125 53.085938 44.539062 0 80.648438-36.105469 80.648438-80.648438v-5.117188zm0 0" fill="url(#r)"/><path d="m302.335938 363.777344c0-13.632813-5.890626-25.886719-15.261719-34.363282-4.277344-3.863281-6.59375-9.441406-6.59375-15.203124v-8.347657c-3.042969-2.722656-7.71875-2.632812-10.644531.289063l-2.3125 2.316406c-.054688-.085938-.105469-.167969-.164063-.25-.082031-.113281-.164063-.226562-.25-.335938-.105469-.132812-.210937-.265624-.320313-.394531-.09375-.109375-.191406-.214843-.289062-.320312-.117188-.121094-.230469-.242188-.351562-.359375-.105469-.101563-.214844-.199219-.328126-.296875-.121093-.109375-.242187-.214844-.367187-.316407-.121094-.097656-.246094-.183593-.371094-.273437-.125-.09375-.253906-.191406-.386719-.277344-.074218-.046875-.148437-.09375-.226562-.136719-.019531-.03125-.035156-.058593-.054688-.085937-.09375-.148437-.1875-.296875-.289062-.441406-.082031-.113281-.164062-.222657-.25-.332031-.105469-.136719-.210938-.269532-.324219-.398438-.09375-.109375-.1875-.214844-.289062-.316406-.113281-.121094-.226563-.246094-.347657-.359375-.105468-.105469-.21875-.199219-.328124-.296875-.121094-.109375-.242188-.214844-.367188-.316406-.121094-.097657-.246094-.1875-.371094-.277344-.128906-.09375-.253906-.1875-.386718-.273438-.132813-.085937-.269532-.167968-.40625-.246094-.132813-.078124-.265626-.160156-.398438-.230468-.148438-.078125-.300781-.148438-.449219-.21875-.136719-.0625-.269531-.128906-.40625-.1875-.160156-.066406-.328125-.121094-.492187-.179688-.136719-.046875-.269532-.097656-.402344-.140625-.179688-.054687-.367188-.097656-.550781-.140625-.128907-.03125-.253907-.070312-.386719-.097656-.210938-.042969-.425781-.066406-.636719-.097656-.113281-.015625-.222656-.035156-.332031-.046875-.328125-.035157-.660156-.050781-1-.050781-.335938 0-.667969.015624-.996094.050781-.113281.011719-.21875.03125-.332031.046875-.214844.03125-.429687.054687-.636719.097656-.132812.027344-.261718.066406-.390625.097656-.183593.042969-.367187.085938-.546875.140625-.136718.042969-.269531.09375-.402344.140625-.167968.058594-.335937.113282-.496093.183594-.136719.054688-.269531.121094-.40625.183594-.148438.070312-.300781.140625-.449219.21875-.136719.070312-.265625.152344-.398438.230468-.136718.078126-.273437.160157-.410156.246094-.128906.085938-.257812.179688-.386718.273438-.121094.089844-.246094.179687-.367188.277344-.125.101562-.246094.207031-.367188.316406-.113281.097656-.226562.195312-.332031.296875-.117187.113281-.234375.234375-.347656.355469-.097656.105468-.195313.210937-.289063.320312-.109374.128906-.214843.261719-.320312.398438-.085938.109374-.171875.21875-.25.332031-.101562.144531-.199219.289062-.292969.4375-.070312.113281-.144531.230469-.210937.347656-.089844.15625-.175782.3125-.253906.476563-.0625.117187-.121094.234374-.175782.355468-.074218.167969-.148437.335938-.214844.507813-.046874.121093-.089843.242187-.132812.367187-.0625.179688-.121094.355469-.171875.539063-.035156.125-.066406.25-.097656.375-.046875.1875-.085938.375-.121094.566406-.023437.125-.042969.253906-.058594.386719-.027343.191406-.054687.386718-.070312.582031-.003907.042969-.011719.085937-.015625.128906l-.660156-.664062-3.238282-3.234375c-2.921875-2.925782-7.597656-3.015625-10.640625-.289063v8.347657c0 1.003906-.097656 2-.238281 2.980468l3.152344 3.15625 3.238281 3.234375v.003907l8.363281 8.363281v14.5625c-.136718-.152344-.277344-.300781-.429687-.4375-.457031-.410157-.980469-.753907-1.558594-1l-8.148437-8.703125c-.457032-.414063-.980469-.757813-1.554688-1-.332031-.140625-.679688-.25-1.042969-.324219-.359375-.074219-.734375-.113281-1.117187-.113281-.382813 0-.753906.039062-1.113282.113281-.707031-1.011719-1.648437-1.851563-2.746093-2.429687l-3.304688-3.308594c-.070312.066406-.128906.140625-.203125.207031-9.308594 8.472656-15.152344 20.683594-15.152344 34.261719 0 25.890625 21.984376 47.148437 47.859376 46.3125 24.886718-.804688 44.8125-21.230469 44.8125-46.3125zm0 0" fill="url(#s)"/><path d="m256 495.390625c-5.503906 0-9.964844-4.460937-9.964844-9.964844v-65.808593c0-5.503907 4.460938-9.964844 9.964844-9.964844s9.964844 4.460937 9.964844 9.964844v65.808593c0 5.503907-4.460938 9.964844-9.964844 9.964844zm0 0" fill="url(#u)"/><path d="m256 386.515625c-5.503906 0-9.964844-4.464844-9.964844-9.96875v-65.804687c0-5.503907 4.460938-9.96875 9.964844-9.96875s9.964844 4.464843 9.964844 9.96875v65.804687c0 5.503906-4.460938 9.96875-9.964844 9.96875zm0 0" fill="url(#v)"/><path d="m234.464844 408.050781h-65.804688c-5.503906 0-9.96875-4.464843-9.96875-9.96875 0-5.503906 4.464844-9.964843 9.96875-9.964843h65.804688c5.503906 0 9.964844 4.460937 9.964844 9.964843 0 5.503907-4.460938 9.96875-9.964844 9.96875zm0 0" fill="url(#w)"/><path d="m343.339844 408.050781h-65.804688c-5.503906 0-9.964844-4.464843-9.964844-9.96875 0-5.503906 4.460938-9.964843 9.964844-9.964843h65.804688c5.503906 0 9.96875 4.460937 9.96875 9.964843 0 5.503907-4.464844 9.96875-9.96875 9.96875zm0 0" fill="url(#x)"/><path d="m194.242188 467.59375c-1.984376 0-3.96875-.757812-5.480469-2.273438-3.027344-3.027343-3.027344-7.933593 0-10.960937l46.53125-46.53125c3.027343-3.027344 7.933593-3.027344 10.960937 0s3.027344 7.9375 0 10.964844l-46.53125 46.527343c-1.511718 1.515626-3.496094 2.273438-5.480468 2.273438zm0 0" fill="url(#y)"/><path d="m271.226562 390.605469c-1.984374 0-3.964843-.757813-5.480468-2.269531-3.027344-3.027344-3.027344-7.933594 0-10.960938l46.53125-46.53125c3.027344-3.027344 7.933594-3.027344 10.960937 0 3.027344 3.027344 3.027344 7.933594 0 10.960938l-46.53125 46.53125c-1.511719 1.511718-3.496093 2.269531-5.480469 2.269531zm0 0" fill="url(#z)"/><path d="m240.773438 390.605469c-1.984376 0-3.96875-.757813-5.480469-2.269531l-46.53125-46.53125c-3.027344-3.027344-3.027344-7.933594 0-10.960938 3.027343-3.027344 7.933593-3.027344 10.960937 0l46.53125 46.53125c3.027344 3.027344 3.027344 7.933594 0 10.960938-1.515625 1.511718-3.496094 2.269531-5.480468 2.269531zm0 0" fill="url(#A)"/><path d="m317.757812 467.59375c-1.984374 0-3.96875-.757812-5.480468-2.273438l-46.53125-46.527343c-3.027344-3.027344-3.027344-7.9375 0-10.964844s7.933594-3.027344 10.960937 0l46.53125 46.53125c3.027344 3.027344 3.027344 7.933594 0 10.960937-1.511719 1.515626-3.496093 2.273438-5.480469 2.273438zm0 0" fill="url(#B)"/><path d="m265.96875 419.617188v20.851562l-19.9375-19.9375v-.914062c0-5.503907 4.464844-9.964844 9.96875-9.964844s9.96875 4.460937 9.96875 9.964844zm0 0" fill="url(#D)"/><path d="m246.03125 444.429688h19.9375v22.105468l-19.933594-19.933594-.003906.003907zm0 0" fill="url(#E)"/><path d="m278.351562 388.148438 19.898438 19.902343h-20.71875c-5.5 0-9.960938-4.464843-9.960938-9.96875 0-5.5 4.460938-9.96875 9.960938-9.96875h.9375zm0 0" fill="url(#F)"/><path d="m324.46875 408.050781h-23.050781v-19.933593h3.117187zm0 0" fill="url(#G)"/><path d="m317.757812 467.59375c-1.984374 0-3.96875-.757812-5.480468-2.273438l-46.53125-46.527343c-3.027344-3.027344-3.027344-7.9375 0-10.964844s7.933594-3.027344 10.960937 0l46.53125 46.53125c3.027344 3.027344 3.027344 7.933594 0 10.960937-1.511719 1.515626-3.496093 2.273438-5.480469 2.273438zm0 0" fill="url(#H)"/><path d="m265.964844 351.882812v-41.140624c0-.230469-.011719-.460938-.023438-.691407l-9.941406 9.941407-9.9375-9.941407c-.015625.230469-.027344.460938-.027344.691407v21.207031zm0 0" fill="url(#I)"/><path d="m322.179688 342.859375-18.707032 18.710937-5.351562-5.351562c-1.480469-1.414062-2.40625-3.398438-2.40625-5.601562v-3.214844l15.503906-15.5zm0 0" fill="url(#J)"/><path d="m269.835938 306.152344-13.835938 13.839844-13.839844-13.839844c-3.023437-3.027344-7.933594-3.027344-10.960937 0-3.027344 3.027344-3.027344 7.9375 0 10.964844l19.320312 19.316406c1.511719 1.515625 3.496094 2.269531 5.480469 2.269531s3.96875-.753906 5.480469-2.269531l19.320312-19.316406c3.027344-3.027344 3.027344-7.9375 0-10.964844-3.027343-3.027344-7.9375-3.027344-10.964843 0zm0 0" fill="url(#K)"/><path d="m261.480469 459.730469c-3.027344-3.027344-7.933594-3.027344-10.960938 0l-19.320312 19.320312c-3.027344 3.023438-3.027344 7.933594 0 10.960938 3.027343 3.027343 7.9375 3.027343 10.960937 0l13.839844-13.835938 13.835938 13.835938c1.515624 1.515625 3.5 2.269531 5.484374 2.269531 1.980469 0 3.964844-.753906 5.480469-2.269531 3.027344-3.027344 3.027344-7.933594 0-10.960938zm0 0" fill="url(#L)"/><path d="m334.09375 398.082031 13.835938-13.835937c3.027343-3.027344 3.027343-7.933594 0-10.964844-3.027344-3.027344-7.933594-3.027344-10.964844 0l-19.316406 19.320312c-3.027344 3.027344-3.027344 7.933594 0 10.960938l19.316406 19.320312c1.515625 1.511719 3.5 2.269532 5.484375 2.269532s3.964843-.757813 5.480469-2.269532c3.027343-3.027343 3.027343-7.9375 0-10.960937zm0 0" fill="url(#M)"/><path d="m194.351562 403.5625c3.027344-3.027344 3.027344-7.933594 0-10.960938l-19.320312-19.320312c-3.023438-3.027344-7.933594-3.027344-10.960938 0-3.027343 3.03125-3.027343 7.9375 0 10.964844l13.839844 13.835937-13.839844 13.839844c-3.027343 3.023437-3.027343 7.933594 0 10.960937 1.515626 1.511719 3.496094 2.269532 5.480469 2.269532s3.96875-.757813 5.480469-2.269532zm0 0" fill="url(#N)"/><path d="m303.46875 358.367188h27.320312c4.28125 0 7.75-3.472657 7.75-7.753907s-3.46875-7.75-7.75-7.75h-19.570312v-19.570312c0-4.28125-3.46875-7.75-7.75-7.75s-7.753906 3.46875-7.753906 7.75v27.320312c0 4.28125 3.472656 7.753907 7.753906 7.753907zm0 0" fill="url(#O)"/><path d="m208.53125 437.800781h-27.320312c-4.28125 0-7.75 3.46875-7.75 7.75s3.46875 7.75 7.75 7.75h19.570312v19.570313c0 4.28125 3.46875 7.753906 7.75 7.753906s7.753906-3.472656 7.753906-7.753906v-27.320313c-.003906-4.28125-3.472656-7.75-7.753906-7.75zm0 0" fill="url(#P)"/><path d="m330.789062 437.800781h-27.320312c-4.28125 0-7.753906 3.46875-7.753906 7.75v27.320313c0 4.28125 3.472656 7.753906 7.753906 7.753906s7.75-3.472656 7.75-7.753906v-19.570313h19.570312c4.28125 0 7.75-3.46875 7.75-7.75s-3.46875-7.75-7.75-7.75zm0 0" fill="url(#Q)"/><path d="m208.53125 315.542969c-4.28125 0-7.75 3.46875-7.75 7.75v19.570312h-19.570312c-4.28125 0-7.75 3.46875-7.75 7.75s3.46875 7.753907 7.75 7.753907h27.320312c4.28125 0 7.753906-3.472657 7.753906-7.753907v-27.320312c-.003906-4.277344-3.472656-7.75-7.753906-7.75zm0 0" fill="url(#R)"/><path d="m265.96875 349.546875v27.003906c0 .207031-.007812.414063-.019531.621094-.097657 1.523437-.527344 2.945313-1.230469 4.203125l-18.6875-18.683594v-13.144531zm0 0" fill="url(#S)"/><path d="m239.132812 406.894531c-1.390624.734375-2.980468 1.15625-4.664062 1.15625h-27.003906v-19.933593h12.890625zm0 0" fill="url(#T)"/><path d="m295.800781 369.246094-9.171875 9.167968-9.921875 9.925782c-1.515625 1.507812-3.496093 2.269531-5.480469 2.269531-1.980468 0-3.964843-.761719-5.480468-2.269531-1.441406-1.445313-2.199219-3.316406-2.269532-5.207032-.070312-2.078124.683594-4.175781 2.269532-5.757812l.199218-.203125 9.722657-9.71875 9.167969-9.171875zm0 0" fill="url(#U)"/><path d="m248.519531 383.132812c-.066406 1.890626-.828125 3.761719-2.265625 5.207032-1.441406 1.4375-3.3125 2.195312-5.207031 2.265625-.089844.003906-.183594.003906-.277344.003906-1.980469 0-3.964843-.761719-5.476562-2.269531l-.203125-.203125-9.71875-9.722657-9.171875-9.167968 10.964843-10.964844 9.164063 9.171875 9.722656 9.71875.203125.203125c1.585938 1.582031 2.339844 3.679688 2.265625 5.757812zm0 0" fill="url(#V)"/><path d="m256 422.578125c-6.542969 0-12.695312-2.546875-17.320312-7.171875-4.625-4.628906-7.175782-10.777344-7.175782-17.324219 0-6.542969 2.550782-12.695312 7.175782-17.320312s10.777343-7.175781 17.320312-7.175781 12.695312 2.550781 17.320312 7.175781c4.628907 4.625 7.175782 10.777343 7.175782 17.320312 0 6.546875-2.546875 12.695313-7.175782 17.324219-4.625 4.625-10.777343 7.171875-17.320312 7.171875zm0-36.023437c-3.078125 0-5.972656 1.199218-8.152344 3.375-2.179687 2.179687-3.375 5.074218-3.375 8.152343s1.199219 5.976563 3.375 8.152344c2.179688 2.179687 5.074219 3.375 8.152344 3.375s5.976562-1.195313 8.152344-3.375c2.179687-2.175781 3.378906-5.074219 3.378906-8.152344s-1.199219-5.972656-3.378906-8.152343c-2.179688-2.175782-5.074219-3.375-8.152344-3.375zm0 0" fill="url(#X)"/><path d="m273.417969 446.617188h-34.835938c-1.71875 0-3.371093-.683594-4.582031-1.898438l-24.636719-24.632812c-1.214843-1.214844-1.898437-2.867188-1.898437-4.582032v-34.839844c0-1.71875.683594-3.367187 1.898437-4.585937l24.636719-24.632813c1.214844-1.214843 2.863281-1.898437 4.582031-1.898437h34.835938c1.722656 0 3.371093.683594 4.585937 1.898437l24.632813 24.632813c1.214843 1.21875 1.898437 2.867187 1.898437 4.585937v34.839844c0 1.71875-.683594 3.367188-1.898437 4.582032l-24.632813 24.632812c-1.214844 1.214844-2.867187 1.898438-4.585937 1.898438zm-32.152344-12.964844h29.46875l20.835937-20.835938v-29.46875l-20.835937-20.835937h-29.46875l-20.835937 20.835937v29.46875zm0 0" fill="url(#Y)"/><path d="m237.730469 340.480469c0 3.0625-2.484375 5.542969-5.546875 5.542969s-5.542969-2.480469-5.542969-5.542969 2.480469-5.546875 5.542969-5.546875 5.546875 2.484375 5.546875 5.546875zm0 0" fill="url(#Z)"/><path d="m285.390625 340.480469c0 3.0625-2.484375 5.542969-5.546875 5.542969s-5.542969-2.480469-5.542969-5.542969 2.480469-5.546875 5.542969-5.546875 5.546875 2.484375 5.546875 5.546875zm0 0" fill="url(#aa)"/><path d="m237.730469 455.6875c0 3.0625-2.484375 5.542969-5.546875 5.542969s-5.542969-2.480469-5.542969-5.542969 2.480469-5.546875 5.542969-5.546875 5.546875 2.484375 5.546875 5.546875zm0 0" fill="url(#ab)"/><path d="m285.390625 455.6875c0 3.0625-2.484375 5.542969-5.546875 5.542969s-5.542969-2.480469-5.542969-5.542969 2.480469-5.546875 5.542969-5.546875 5.546875 2.484375 5.546875 5.546875zm0 0" fill="url(#ac)"/><path d="m319.164062 374.253906c0 3.0625-2.484374 5.542969-5.546874 5.542969s-5.542969-2.480469-5.542969-5.542969 2.480469-5.546875 5.542969-5.546875 5.546874 2.484375 5.546874 5.546875zm0 0" fill="url(#ad)"/><path d="m319.164062 421.910156c0 3.0625-2.484374 5.546875-5.546874 5.546875s-5.542969-2.484375-5.542969-5.546875c0-3.058594 2.480469-5.542968 5.542969-5.542968s5.546874 2.484374 5.546874 5.542968zm0 0" fill="url(#ae)"/><path d="m203.957031 374.253906c0 3.0625-2.484375 5.542969-5.546875 5.542969-3.058594 0-5.542968-2.480469-5.542968-5.542969s2.484374-5.546875 5.542968-5.546875c3.0625 0 5.546875 2.484375 5.546875 5.546875zm0 0" fill="url(#af)"/><path d="m203.957031 421.910156c0 3.0625-2.484375 5.546875-5.546875 5.546875-3.058594 0-5.542968-2.484375-5.542968-5.546875 0-3.058594 2.484374-5.542968 5.542968-5.542968 3.0625 0 5.546875 2.484374 5.546875 5.542968zm0 0" fill="url(#ag)"/><path d="m353.308594 398.082031c0-5.273437-4.09375-9.585937-9.277344-9.9375l3.898438-3.898437c3.027343-3.027344 3.027343-7.933594 0-10.964844-3.027344-3.027344-7.933594-3.027344-10.960938 0l-14.835938 14.835938h-17.59375l-.003906-.003907v-7.449219c0-1.71875-.683594-3.367187-1.898437-4.585937l-6.835938-6.835937 7.671875-7.671876h.003906l3.203126-3.203124h24.109374c4.28125 0 7.753907-3.472657 7.753907-7.753907s-3.472657-7.75-7.753907-7.75h-8.605468l1.058594-1.058593c3.023437-3.027344 3.023437-7.933594 0-10.960938-3.027344-3.027344-7.9375-3.027344-10.964844 0l-1.054688 1.058594v-8.609375c0-4.28125-3.472656-7.75-7.753906-7.75s-7.75 3.46875-7.75 7.75v24.109375l-10.878906 10.878906-6.835938-6.835938c-1.214844-1.214843-2.867187-1.898437-4.585937-1.898437h-7.453125v-17.597656l14.835937-14.835938c3.027344-3.027343 3.027344-7.933593 0-10.960937-3.027343-3.027344-7.9375-3.027344-10.964843 0l-3.898438 3.898437c-.351562-5.183593-4.664062-9.277343-9.9375-9.277343s-9.585938 4.09375-9.9375 9.277343l-3.898438-3.898437c-3.027343-3.027344-7.9375-3.027344-10.964843 0-3.023438 3.027344-3.023438 7.933594 0 10.960937l14.835937 14.835938v17.597656h-7.453125c-1.71875 0-3.371093.683594-4.582031 1.898437l-6.835938 6.835938-10.878906-10.878906v-24.109375c0-4.28125-3.472656-7.75-7.75-7.75-4.28125 0-7.753906 3.46875-7.753906 7.75v8.609375l-1.054688-1.058594c-3.027343-3.027344-7.9375-3.027344-10.964843 0-3.027344 3.027344-3.027344 7.933594 0 10.960938l1.058593 1.058593h-8.609374c-4.277344 0-7.75 3.46875-7.75 7.75s3.472656 7.753907 7.75 7.753907h24.113281l10.878906 10.875-6.835937 6.835937c-1.21875 1.21875-1.902344 2.867187-1.902344 4.585937v7.453126h-17.597656l-14.832032-14.835938c-3.027344-3.027344-7.933594-3.027344-10.960937 0-3.027344 3.03125-3.027344 7.9375 0 10.964844l3.898437 3.898437c-5.183594.351563-9.277344 4.664063-9.277344 9.9375 0 5.273438 4.09375 9.585938 9.277344 9.941407l-3.898437 3.898437c-3.027344 3.023437-3.027344 7.933594 0 10.960937 1.511719 1.511719 3.496093 2.269532 5.480469 2.269532 1.980468 0 3.964843-.757813 5.480468-2.269532l14.832032-14.832031h17.597656v7.453125c0 1.71875.683594 3.367188 1.902344 4.582032l6.835937 6.835937-10.878906 10.878906h-24.113281c-4.277344 0-7.75 3.46875-7.75 7.75s3.472656 7.75 7.75 7.75h8.609374l-1.058593 1.058594c-3.027344 3.027344-3.027344 7.933594 0 10.964844 1.515625 1.511719 3.5 2.269531 5.480469 2.269531 1.984374 0 3.96875-.757812 5.484374-2.269531l1.054688-1.058594v8.605469c0 4.28125 3.472656 7.753906 7.753906 7.753906 4.277344 0 7.75-3.472656 7.75-7.753906v-24.109375l10.878906-10.878907 6.835938 6.835938c1.214844 1.214844 2.863281 1.898438 4.582031 1.898438h7.453125v17.597656l-14.835937 14.835937c-3.023438 3.023438-3.023438 7.933594 0 10.960938 3.027343 3.027343 7.9375 3.027343 10.964843 0l3.898438-3.898438c.351562 5.183594 4.664062 9.277344 9.9375 9.277344s9.585938-4.09375 9.9375-9.277344l3.898438 3.898438c1.515624 1.511719 3.5 2.269531 5.484374 2.269531 1.980469 0 3.964844-.757812 5.480469-2.269531 3.027344-3.027344 3.027344-7.9375 0-10.960938l-14.832031-14.832031v-17.601562h7.449219c1.722656 0 3.371093-.683594 4.585937-1.898438l6.835938-6.835938 10.878906 10.878907v24.109375c0 4.28125 3.46875 7.753906 7.75 7.753906s7.753906-3.472656 7.753906-7.753906v-8.605469l1.054688 1.058594c1.515625 1.511719 3.5 2.269531 5.480468 2.269531 1.984376 0 3.96875-.757812 5.484376-2.269531 3.023437-3.03125 3.023437-7.9375 0-10.964844l-1.058594-1.058594h8.605468c4.28125 0 7.753907-3.46875 7.753907-7.75s-3.472657-7.75-7.753907-7.75h-24.109374l-10.878907-10.878906 6.835938-6.835937c1.214843-1.214844 1.898437-2.867188 1.898437-4.582032v-7.453125h17.601563l14.828125 14.832031c1.515625 1.511719 3.5 2.269532 5.484375 2.269532s3.964843-.757813 5.480469-2.269532c3.027343-3.027343 3.027343-7.9375 0-10.960937l-3.898438-3.898437c5.183594-.355469 9.277344-4.667969 9.277344-9.941407zm-112.042969-35.566406h4.765625v.175781h.003906v13.007813c-.335937.148437-.664062.304687-.988281.46875l-2.492187-2.492188-6.226563-6.222656zm-20.835937 20.835937 4.9375-4.9375 8.714843 8.714844c-.164062.328125-.316406.65625-.464843.988282h-13.1875zm4.9375 34.402344-4.933594-4.9375v-4.765625h13.183594c.148437.332031.304687.660157.46875.984375zm20.667968 15.898438h-4.769531l-4.933594-4.9375 8.714844-8.714844c.324219.160156.652344.316406.984375.464844v.066406h.003906zm18.117188-27.417969c-2.179688 2.179687-5.074219 3.375-8.152344 3.375s-5.972656-1.195313-8.152344-3.375c-2.179687-2.175781-3.378906-5.074219-3.378906-8.152344s1.199219-5.972656 3.378906-8.152343c2.175782-2.175782 5.074219-3.375 8.152344-3.375s5.972656 1.199218 8.152344 3.375c2.175781 2.179687 3.375 5.074218 3.375 8.152343 0 3.082031-1.199219 5.976563-3.375 8.152344zm6.582031 27.417969h-4.765625v-13.1875c.332031-.148438.660156-.304688.984375-.464844l8.714844 8.714844zm-1.289063-59.976563-2.492187 2.492188c-.324219-.164063-.652344-.320313-.984375-.46875v-13.1875h4.765625l4.933594 4.9375zm22.125 39.140625-4.9375 4.9375-8.71875-8.71875c.164063-.324218.320313-.652344.46875-.984375h13.1875zm0-24.699218h-13.105468.003906-.085938c-.148437-.332032-.304687-.660157-.464843-.988282l8.714843-8.714844 4.9375 4.9375zm0 0" fill="url(#ah)"/><path d="m237.730469 340.480469c0 3.0625-2.484375 5.542969-5.546875 5.542969s-5.542969-2.480469-5.542969-5.542969 2.480469-5.546875 5.542969-5.546875 5.546875 2.484375 5.546875 5.546875zm0 0" fill="url(#ai)"/><path d="m285.390625 340.480469c0 3.0625-2.484375 5.542969-5.546875 5.542969s-5.542969-2.480469-5.542969-5.542969 2.480469-5.546875 5.542969-5.546875 5.546875 2.484375 5.546875 5.546875zm0 0" fill="url(#aj)"/><path d="m237.730469 455.6875c0 3.0625-2.484375 5.542969-5.546875 5.542969s-5.542969-2.480469-5.542969-5.542969 2.480469-5.546875 5.542969-5.546875 5.546875 2.484375 5.546875 5.546875zm0 0" fill="url(#ak)"/><path d="m285.390625 455.6875c0 3.0625-2.484375 5.542969-5.546875 5.542969s-5.542969-2.480469-5.542969-5.542969 2.480469-5.546875 5.542969-5.546875 5.546875 2.484375 5.546875 5.546875zm0 0" fill="url(#al)"/><path d="m319.164062 374.253906c0 3.0625-2.484374 5.542969-5.546874 5.542969s-5.542969-2.480469-5.542969-5.542969 2.480469-5.546875 5.542969-5.546875 5.546874 2.484375 5.546874 5.546875zm0 0" fill="url(#am)"/><path d="m319.164062 421.910156c0 3.0625-2.484374 5.546875-5.546874 5.546875s-5.542969-2.484375-5.542969-5.546875c0-3.058594 2.480469-5.542968 5.542969-5.542968s5.546874 2.484374 5.546874 5.542968zm0 0" fill="url(#an)"/><path d="m203.957031 374.253906c0 3.0625-2.484375 5.542969-5.546875 5.542969-3.058594 0-5.542968-2.480469-5.542968-5.542969s2.484374-5.546875 5.542968-5.546875c3.0625 0 5.546875 2.484375 5.546875 5.546875zm0 0" fill="url(#ao)"/><path d="m203.957031 421.910156c0 3.0625-2.484375 5.546875-5.546875 5.546875-3.058594 0-5.542968-2.484375-5.542968-5.546875 0-3.058594 2.484374-5.542968 5.542968-5.542968 3.0625 0 5.546875 2.484374 5.546875 5.542968zm0 0" fill="url(#ap)"/></svg>