<svg height="512pt" viewBox="0 0 512.00007 512" width="512pt" xmlns="http://www.w3.org/2000/svg" xmlns:xlink="http://www.w3.org/1999/xlink"><linearGradient id="a"><stop offset="0" stop-color="#ecf7ff"/><stop offset=".5353" stop-color="#eaf6ff"/><stop offset=".7282" stop-color="#e3f2ff"/><stop offset=".8651" stop-color="#d8ecff"/><stop offset=".9756" stop-color="#c7e3ff"/><stop offset="1" stop-color="#c2e0ff"/></linearGradient><radialGradient id="b" cx="184.7214472156" cy="137.5371482156" gradientUnits="userSpaceOnUse" r="380.4785070162" xlink:href="#a"/><linearGradient id="c"><stop offset=".0029" stop-color="#c2e0ff" stop-opacity="0"/><stop offset=".0763" stop-color="#bfdcfd" stop-opacity=".07451"/><stop offset="1" stop-color="#9eb2e7"/></linearGradient><linearGradient id="d" gradientUnits="userSpaceOnUse" x1="471.3296331126" x2="380.582814512" xlink:href="#c" y1="156.7250090094" y2="65.978290801"/><linearGradient id="e" gradientUnits="userSpaceOnUse" x1="476.1091049702" x2="333.6095049164" xlink:href="#c" y1="268.1319400168" y2="125.6324403552"/><linearGradient id="f" gradientUnits="userSpaceOnUse" x1="330.7470221178" x2="142.6793020918" xlink:href="#c" y1="491.8857742002" y2="251.6138089976"/><linearGradient id="g" gradientUnits="userSpaceOnUse" x1="499.0239257968" x2="318.2907595106" xlink:href="#c" y1="473.018465701" y2="292.2852994148"/><linearGradient id="h" gradientUnits="userSpaceOnUse" x1="414.5773200994" x2="387.1367185046" xlink:href="#c" y1="451.9919217642" y2="439.9448577642"/><linearGradient id="i" gradientUnits="userSpaceOnUse" x1="423.0368688324" x2="391.5806796298" xlink:href="#c" y1="378.5532204046" y2="367.175471202"/><linearGradient id="j" gradientUnits="userSpaceOnUse" x1="236.8646539346" x2="173.2828603398" xlink:href="#c" y1="477.0912768628" y2="450.3199900654"/><linearGradient id="k" gradientUnits="userSpaceOnUse" x1="229.0700027422" x2="179.5433179318" xlink:href="#c" y1="402.8161076928" y2="376.0449212876"/><linearGradient id="l" gradientUnits="userSpaceOnUse" x1="295.9360267678" x2="254.4406175652" xlink:href="#c" y1="463.1224049782" y2="451.0753409782"/><linearGradient id="m" gradientUnits="userSpaceOnUse" x1="291.2088592464" x2="245.0284472464" xlink:href="#c" y1="385.3932421672" y2="367.9919609646"/><linearGradient id="n" gradientUnits="userSpaceOnUse" x1="164.3009709902" x2="123.474876585" xlink:href="#c" y1="445.149590981" y2="421.055462981"/><linearGradient id="o" gradientUnits="userSpaceOnUse" x1="157.5613414276" x2="128.7820098458" xlink:href="#c" y1="477.967801161" y2="464.5821075662"/><linearGradient id="p" gradientUnits="userSpaceOnUse" x1="348.2777088662" x2="318.1600488662" xlink:href="#c" y1="433.3214823692" y2="422.6129475718"/><linearGradient id="q" gradientUnits="userSpaceOnUse" x1="372.064536342" x2="284.2206585966" xlink:href="#c" y1="505.0578331934" y2="471.4261450168"/><linearGradient id="r"><stop offset="0" stop-color="#00c6f6"/><stop offset=".5169" stop-color="#00c4f6"/><stop offset=".7031" stop-color="#02bdf7"/><stop offset=".8359" stop-color="#05b2f9"/><stop offset=".9424" stop-color="#0aa1fc"/><stop offset="1" stop-color="#0d94fe"/></linearGradient><radialGradient id="s" cx="211.8948" cy="489.4999" gradientTransform="matrix(1.440427 0 0 1.003922 -100.244179 .000035)" gradientUnits="userSpaceOnUse" r="162.6396" xlink:href="#r"/><radialGradient id="t" cx="211.8948" cy="489.4986" gradientTransform="matrix(1.440427 0 0 1.003922 -100.244179 .000035)" gradientUnits="userSpaceOnUse" r="162.6382" xlink:href="#r"/><radialGradient id="u" cx="211.8948" cy="489.5" gradientTransform="matrix(1.440427 0 0 1.003922 -100.244179 .000035)" gradientUnits="userSpaceOnUse" r="162.6408" xlink:href="#r"/><radialGradient id="v" cx="211.8947" cy="489.5" gradientTransform="matrix(1.440427 0 0 1.003922 -100.244179 .000035)" gradientUnits="userSpaceOnUse" r="162.6412" xlink:href="#r"/><radialGradient id="w" cx="211.8947" cy="489.5002" gradientTransform="matrix(1.440427 0 0 1.003922 -100.244179 .000035)" gradientUnits="userSpaceOnUse" r="162.6407" xlink:href="#r"/><radialGradient id="x" cx="211.8947" cy="489.5" gradientTransform="matrix(1.440427 0 0 1.003922 -100.244179 .000035)" gradientUnits="userSpaceOnUse" r="162.6406" xlink:href="#r"/><radialGradient id="y" cx="211.8948" cy="489.4999" gradientTransform="matrix(1.440427 0 0 1.003922 -100.244179 .000035)" gradientUnits="userSpaceOnUse" r="162.6389" xlink:href="#r"/><radialGradient id="z" cx="211.8948" cy="489.5014" gradientTransform="matrix(1.440427 0 0 1.003922 -100.244179 .000035)" gradientUnits="userSpaceOnUse" r="162.6418" xlink:href="#r"/><radialGradient id="A" cx="211.8948" cy="489.4998" gradientTransform="matrix(1.440427 0 0 1.003922 -100.244179 .000035)" gradientUnits="userSpaceOnUse" r="162.6386" xlink:href="#r"/><radialGradient id="B" cx="211.8948" cy="489.4993" gradientTransform="matrix(1.440427 0 0 1.003922 -100.244179 .000035)" gradientUnits="userSpaceOnUse" r="162.6384" xlink:href="#r"/><radialGradient id="C" cx="211.8948" cy="489.5013" gradientTransform="matrix(1.440427 0 0 1.003922 -100.244179 .000035)" gradientUnits="userSpaceOnUse" r="162.6412" xlink:href="#r"/><radialGradient id="D" cx="211.8948" cy="489.5" gradientTransform="matrix(1.440427 0 0 1.003922 -100.244179 .000035)" gradientUnits="userSpaceOnUse" r="162.6387" xlink:href="#r"/><radialGradient id="E" cx="211.8948" cy="446.4411" gradientTransform="matrix(1.440427 0 0 1.003922 -100.244179 .000035)" gradientUnits="userSpaceOnUse" r="141.657" xlink:href="#r"/><linearGradient id="F"><stop offset="0" stop-color="#cfced3"/><stop offset=".8111" stop-color="#a5abbd"/><stop offset="1" stop-color="#9aa2b7"/></linearGradient><radialGradient id="G" cx="185.9712297134" cy="18.5263111958" gradientUnits="userSpaceOnUse" r="313.8369599498" xlink:href="#F"/><linearGradient id="H"><stop offset=".0018" stop-color="#9aa2b7" stop-opacity="0"/><stop offset=".3682" stop-color="#848a9c" stop-opacity=".368627"/><stop offset="1" stop-color="#606572"/></linearGradient><linearGradient id="I" gradientUnits="userSpaceOnUse" x1="385.789154004" x2="431.0262808928" xlink:href="#H" y1="228.0512576966" y2="91.5730814066"/><linearGradient id="J" gradientUnits="userSpaceOnUse" x1="334.0380792182" x2="392.1989951896" xlink:href="#H" y1="134.6840018916" y2="48.451318564"/><linearGradient id="K" gradientUnits="userSpaceOnUse" x1="215.5648424294" x2="215.5648424294" xlink:href="#H" y1="116.454987" y2="-58.3312465348"/><linearGradient id="L" gradientUnits="userSpaceOnUse" x1="126.7010803242" x2="34.888799305" xlink:href="#H" y1="226.743850076" y2="139.9737673018"/><linearGradient id="M" gradientUnits="userSpaceOnUse" x1="256.00011" x2="256.00011" xlink:href="#H" y1="246.4358804982" y2="352.4801613582"/><radialGradient id="N" cx="368.6634493904" cy="9.6298556084" gradientUnits="userSpaceOnUse" r="90.9009206276" xlink:href="#F"/><linearGradient id="O" gradientUnits="userSpaceOnUse" x1="247.635431896" x2="136.6427191058" xlink:href="#H" y1="350.062114829" y2="239.0694020388"/><radialGradient id="P" cx="160.6988988542" cy="247.3918150266" gradientUnits="userSpaceOnUse" r="132.381672569" xlink:href="#F"/><linearGradient id="Q" gradientTransform="matrix(1.003118 .0375467 -.0375467 1.003118 -289.339934 575.415351)" gradientUnits="userSpaceOnUse" x1="706.6759" x2="728.1347" y1="-296.2787" y2="-211.2385"><stop offset="0" stop-color="#8be1e2"/><stop offset=".1873" stop-color="#87e1e1"/><stop offset=".3558" stop-color="#7ce2dd"/><stop offset=".5172" stop-color="#6ae2d7"/><stop offset=".6741" stop-color="#50e4ce"/><stop offset=".8278" stop-color="#2fe5c2"/><stop offset=".9772" stop-color="#07e7b4"/><stop offset="1" stop-color="#00e7b2"/></linearGradient><linearGradient id="R" gradientTransform="matrix(.916078 -.410704 .410704 .916078 931.184941 20.316797)" gradientUnits="userSpaceOnUse" x1="-541.8845" x2="-580.967" y1="106.3106" y2="71.4976"><stop offset=".0029" stop-color="#00e7b2" stop-opacity="0"/><stop offset=".4308" stop-color="#1bc4b7" stop-opacity=".427451"/><stop offset="1" stop-color="#3b9abe"/></linearGradient><radialGradient id="S" cx="400.0611" cy="390.0516" gradientTransform="matrix(.547639 .841387 .841387 -.547639 -114.715106 210.327527)" gradientUnits="userSpaceOnUse" r="33.4878"><stop offset="0" stop-color="#3b395f"/><stop offset=".3952" stop-color="#39375d"/><stop offset=".6279" stop-color="#323154"/><stop offset=".8179" stop-color="#262846"/><stop offset=".9849" stop-color="#151a32"/><stop offset="1" stop-color="#131830"/></radialGradient><linearGradient id="T" gradientUnits="userSpaceOnUse" x1="387.5787453612" x2="353.445296969" xlink:href="#H" y1="342.47296647" y2="206.4414350778"/><radialGradient id="U" cx="365.721757146" cy="105.1179970306" gradientUnits="userSpaceOnUse" r="166.6707288712" xlink:href="#a"/><linearGradient id="V" gradientUnits="userSpaceOnUse" x1="288.3626399842" x2="230.386044092" xlink:href="#H" y1="188.4383026362" y2="143.7637736362"/><radialGradient id="W" cx="241.4428394312" cy="121.4749985688" gradientUnits="userSpaceOnUse" r="43.101383226" xlink:href="#a"/><linearGradient id="X" gradientUnits="userSpaceOnUse" x1="335.6928438508" x2="224.2167426176" xlink:href="#H" y1="342.2889475674" y2="230.8128463342"/><radialGradient id="Y" cx="212.6388113682" cy="324.7143894276" gradientUnits="userSpaceOnUse" r="175.0471528626" xlink:href="#a"/><linearGradient id="Z" gradientUnits="userSpaceOnUse" x1="170.8385110542" x2="168.5714543938" xlink:href="#c" y1="392.849270469" y2="350.0988583742"/><linearGradient id="aa" gradientUnits="userSpaceOnUse" x1="129.7657530136" x2="129.7657530136" xlink:href="#c" y1="324.5250497384" y2="363.512661785"/><path d="m512 256c0 141.386719-114.613281 256-256 256s-256-114.613281-256-256 114.613281-256 256-256 256 114.613281 256 256zm0 0" fill="url(#b)"/><path d="m511.738281 244.375-157.054687-157.042969-11.0625-11.0625c-5.007813-4.027343-8.210938-10.191406-8.210938-17.117187 0-12.117188 9.816406-21.9375 21.9375-21.9375 2.1875 0 4.296875.320312 6.28125.914062 1.074219-4.328125 2.964844-8.332031 5.503906-11.835937 79.921876 39.433593 136.28125 119.347656 142.324219 212.960937.109375 1.707032.210938 3.414063.28125 5.121094zm0 0" fill="url(#d)"/><path d="m463.125 406.453125c30.730469-42.238281 48.875-94.222656 48.875-150.453125 0-59.324219-20.1875-113.933594-54.058594-157.339844-4.484375-.507812-8.992187-.507812-13.398437-.003906-2.917969.332031-5.789063.925781-8.585938 1.695312-2.800781.757813-5.523437 1.726563-8.136719 2.90625-2.617187 1.171876-5.125 2.539063-7.496093 4.085938-1.203125.742188-2.335938 1.589844-3.472657 2.410156-1.101562.882813-2.199218 1.75-3.226562 2.699219-4.175781 3.707031-7.683594 8.042969-10.398438 12.71875-.695312 1.15625-1.28125 2.378906-1.890624 3.566406-.542969 1.222657-1.128907 2.445313-1.585938 3.648438-.972656 2.410156-1.925781 4.835937-2.855469 7.273437l61.820313 61.820313-25.015625 20.960937c-16.128907 8.792969-34.234375 13.996094-52.714844 15.160156-18.480469 1.210938-37.347656-1.644531-55.007813-8.574218-1.109374-.417969-2.210937-.859375-3.300781-1.328125-1.105469-.445313-2.1875-.9375-3.273437-1.425781-1.097656-.472657-2.15625-1.015626-3.238282-1.523438-1.082031-.515625-2.3125-1.140625-3.367187-1.6875-4.414063-2.214844-8.78125-4.570312-13.066406-7.085938-4.273438-2.53125-8.539063-5.121093-12.699219-7.878906-2.082031-1.378906-4.140625-2.796875-6.183594-4.242187-1.921875-1.347657-3.832031-2.722657-5.714844-4.128907-.125-.175781-.257812-.347656-.378906-.523437.035156.113281.082032.222656.121094.332031-.039062-.027344-.078125-.054687-.113281-.082031-.847657-.636719-1.691407-1.28125-2.53125-1.929687-.753907-1.015626-1.5-2.039063-2.234375-3.074219.21875.625.457031 1.246093.6875 1.867187-.421875-.328125-.84375-.660156-1.261719-.992187-1.425781-1.84375-2.824219-3.714844-4.179687-5.632813.347656 1.011719.726562 2.011719 1.105468 3.011719-2.015625-2.523437-3.976562-5.105469-5.863281-7.765625.351563 1.007812.726563 2.011719 1.109375 3.007812-2.015625-2.519531-3.976562-5.101562-5.867188-7.761718.351563 1.007812.730469 2.007812 1.109376 3.007812-2.015626-2.519531-3.976563-5.101562-5.863282-7.765625.351563 1.011719.726563 2.011719 1.109375 3.011719-2.015625-2.523438-3.976562-5.101562-5.867187-7.765625.351562 1.011719.730468 2.011719 1.109375 3.011719-2.015625-2.523438-3.976563-5.105469-5.863281-7.765625.351562 1.007812.726562 2.011719 1.109374 3.007812-2.015624-2.519531-3.976562-5.101562-5.867187-7.765625.351563 1.011719.730469 2.011719 1.109375 3.011719-2.015625-2.523437-3.976562-5.101563-5.863281-7.765625 3.414062 9.835938 8.355469 19.222656 14.15625 28.054688 2.902343 4.421874 6.042969 8.695312 9.382812 12.820312 3.316407 4.148438 6.839844 8.132812 10.515625 11.980469zm0 0" fill="url(#e)"/><path d="m256 512c77.222656 0 146.457031-34.195312 193.390625-88.261719l-203.878906-203.882812c-5.847657-6.394531-12.761719-11.820313-20.324219-16.085938-10.050781-5.667969-21.359375-9.199219-32.898438-10.191406-11.53125-.976563-23.222656.484375-34.199218 4.3125-10.949219 3.828125-21.109375 9.960937-29.492188 17.96875-8.375 8.011719-15.050781 17.773437-19.453125 28.507813-4.386719 10.726562-6.476562 22.429687-6.019531 33.964843l.09375 2.164063c.039062.703125.113281 1.304687.171875 1.960937l.363281 3.867188.371094 3.863281.550781 3.84375.558594 3.839844.289063 1.917968.375 1.90625c.507812 2.539063.984374 5.082032 1.527343 7.609376 2.308594 10.097656 5.457031 19.996093 9.449219 29.53125 1.53125 3.707031 3.1875 7.351562 4.964844 10.9375-2.222656-.09375-4.441406-.230469-6.660156-.40625-9.214844-.6875-18.414063-2.042969-27.503907-4.046876-9.089843-2.003906-18.050781-4.714843-26.847656-8-8.769531-3.347656-17.328125-7.242187-25.210937-12.34375-3.675782-2.34375-7.191407-4.972656-10.511719-7.867187-.675781-.769531-1.34375-1.542969-2-2.335937.230469.402343.476562.792968.710937 1.191406-.3125-.289063-.625-.582032-.9375-.875-1.40625-1.5-2.777344-3.039063-4.09375-4.636719.285156.503906.59375.996094.894532 1.496094-1.808594-1.863281-3.550782-3.800781-5.214844-5.816407 4.164062 7.367188 9.613281 14.078126 15.914062 19.972657l182.210938 182.210937c14.109375 2.410156 28.613281 3.683594 43.410156 3.683594zm0 0" fill="url(#f)"/><path d="m512 256c0 129.90625-96.769531 237.226562-222.15625 253.78125l-164.886719-164.882812c-6.121093-4.429688-10.117187-11.636719-10.117187-19.777344 0-.792969.050781-1.578125.128906-2.351563-.722656-.742187-1.433594-1.484375-2.128906-2.246093l-38.519532-38.523438c-15.429687-13.933594-25.128906-34.09375-25.128906-56.527344 0-37.78125 27.5-69.121094 63.578125-75.125-.007812-.339844-.019531-.691406-.019531-1.035156 0-56.78125 46.03125-102.820312 102.8125-102.820312 29.734375 0 56.507812 12.640624 75.28125 32.816406 1.910156 1.769531 3.734375 3.605468 5.503906 5.503906 1.90625 1.765625 3.734375 3.601562 5.5 5.5.441406.410156.882813.84375 1.316406 1.253906 8.503907-5.613281 18.671876-8.882812 29.625-8.882812 7.800782 0 15.210938 1.652344 21.894532 4.648437 7.269531 3.242188 13.683594 8.050781 18.824218 13.984375l137.949219 137.9375c.109375 1.707032.210938 3.410156.28125 5.121094.171875 3.855469.261719 7.730469.261719 11.625zm0 0" fill="url(#g)"/><path d="m436.523438 437.507812c-.5.503907-1.011719 1.003907-1.535157 1.515626-5.84375 5.714843-11.957031 11.144531-18.320312 16.273437-12.640625 10.210937-26.253907 19.238281-40.699219 26.90625v-75.113281c0-6.925782 5.621094-12.546875 12.550781-12.546875.742188 0 1.464844.070312 2.175781.1875 3.132813.554687 5.863282 2.269531 7.742188 4.691406zm0 0" fill="url(#h)"/><path d="m473.660156 390.816406c-10.542968 16.996094-23.019531 32.65625-37.132812 46.691406-.503906.503907-1.015625 1.003907-1.539063 1.515626l-54.140625-54.140626c-2.960937-2.296874-4.878906-5.882812-4.878906-9.917968v-51.703125c0-6.925781 5.621094-12.546875 12.550781-12.546875 4.035157 0 7.617188 1.917968 9.917969 4.878906zm0 0" fill="url(#i)"/><path d="m293.015625 509.339844c-12.089844 1.757812-24.445313 2.660156-37.015625 2.660156-25.914062 0-50.929688-3.84375-74.5-11.011719-2.632812-2.300781-4.308594-5.683593-4.308594-9.449219v-67.882812c0-6.929688 5.621094-12.550781 12.550782-12.550781 4.035156 0 7.617187 1.917969 9.917968 4.878906zm0 0" fill="url(#j)"/><path d="m316.738281 437.085938v67.65625c-2.332031.570312-4.667969 1.105468-7.027343 1.605468-5.503907 1.1875-11.074219 2.179688-16.695313 2.992188-.605469.089844-1.195313.171875-1.796875.25l-109.148438-109.144532c-2.960937-2.300781-4.878906-5.882812-4.878906-9.917968v-67.886719c0-6.9375 5.621094-12.550781 12.550782-12.550781 4.035156 0 7.617187 1.910156 9.917968 4.871094l112.199219 112.207031c2.960937 2.300781 4.878906 5.875 4.878906 9.917969zm0 0" fill="url(#k)"/><path d="m359.996094 489.984375c-1.734375.78125-3.492188 1.546875-5.25 2.277344-.984375.414062-1.96875.816406-2.960938 1.214843-13.492187 5.453126-27.558594 9.78125-42.074218 12.871094-5.5 1.183594-11.074219 2.179688-16.695313 2.992188-12.089844 1.757812-24.445313 2.660156-37.015625 2.660156-.042969 0-.085938 0-.125 0-6.878906-.003906-12.425781-5.644531-12.425781-12.523438v-95.53125c0-6.660156 5.035156-12.4375 11.679687-12.890624 4.386719-.296876 8.328125 1.679687 10.789063 4.851562zm0 0" fill="url(#l)"/><path d="m382.996094 419.015625v59.3125c-2.320313 1.324219-4.660156 2.621094-7.027344 3.875-5.21875 2.769531-10.542969 5.371094-15.972656 7.78125-.933594.421875-1.878906.832031-2.820313 1.234375l-108.847656-108.84375c-2.960937-2.300781-4.878906-5.882812-4.878906-9.921875v-67.882813c0-6.9375 5.625-12.550781 12.550781-12.550781 4.035156 0 7.621094 1.910157 9.917969 4.871094l112.199219 112.207031c2.960937 2.300782 4.878906 5.875 4.878906 9.917969zm0 0" fill="url(#m)"/><path d="m250.476562 505.472656v6.457032c-2.347656-.039063-4.695312-.121094-7.027343-.230469-20.117188-.972657-39.613281-4.257813-58.246094-9.617188l-69.390625-69.390625c-2.960938-2.300781-4.878906-5.882812-4.878906-9.917968v-31.746094c0-6.925782 5.621094-12.550782 12.546875-12.550782 4.039062 0 7.621093 1.917969 9.921875 4.882813l112.195312 112.195313c2.964844 2.300781 4.878906 5.882812 4.878906 9.917968zm0 0" fill="url(#n)"/><path d="m180.433594 500.664062c-25.027344-7.71875-48.410156-19.171874-69.5-33.710937v-5.652344c0-6.925781 5.621094-12.546875 12.546875-12.546875 4.039062 0 7.621093 1.917969 9.921875 4.878906zm0 0" fill="url(#o)"/><path d="m416.667969 455.296875c-12.640625 10.210937-26.253907 19.238281-40.699219 26.90625-6.898438 3.664063-13.976562 7.027344-21.222656 10.0625-.984375.410156-1.96875.8125-2.960938 1.214844l-37.195312-37.195313c-2.960938-2.300781-4.878906-5.882812-4.878906-9.921875v-67.886719c0-6.925781 5.621093-12.546874 12.546874-12.546874 4.035157 0 7.621094 1.917968 9.917969 4.878906zm0 0" fill="url(#p)"/><path d="m354.746094 492.261719c-.984375.414062-1.96875.816406-2.960938 1.214843-11.382812 4.597657-23.167968 8.398438-35.292968 11.328126-3.453126.835937-6.78125-1.792969-6.78125-5.351563v-22.089844c0-6.925781 5.621093-12.546875 12.546874-12.546875.300782 0 .601563.007813.894532.03125 3.664062.257813 6.898437 2.105469 9.023437 4.847656zm0 0" fill="url(#q)"/><path d="m123.480469 512c-6.929688 0-12.546875-5.617188-12.546875-12.550781v-38.148438c0-6.929687 5.617187-12.546875 12.546875-12.546875 6.933593 0 12.550781 5.617188 12.550781 12.546875v38.148438c0 6.933593-5.617188 12.550781-12.550781 12.550781zm0 0" fill="url(#s)"/><path d="m123.480469 435.703125c-6.929688 0-12.546875-5.617187-12.546875-12.550781v-32.125c0-6.929688 5.617187-12.550782 12.546875-12.550782 6.933593 0 12.550781 5.621094 12.550781 12.550782v32.125c0 6.933594-5.617188 12.550781-12.550781 12.550781zm0 0" fill="url(#t)"/><path d="m123.480469 368.4375c-6.929688 0-12.546875-5.617188-12.546875-12.546875v-87.339844c0-6.933593 5.617187-12.550781 12.546875-12.550781 6.933593 0 12.550781 5.617188 12.550781 12.550781v87.339844c0 6.929687-5.617188 12.546875-12.550781 12.546875zm0 0" fill="url(#u)"/><path d="m189.742188 512c-6.929688 0-12.550782-5.617188-12.550782-12.550781v-75.792969c0-6.929688 5.621094-12.550781 12.550782-12.550781 6.929687 0 12.546874 5.621093 12.546874 12.550781v75.792969c0 6.933593-5.617187 12.550781-12.546874 12.550781zm0 0" fill="url(#v)"/><path d="m189.742188 403.578125c-6.929688 0-12.550782-5.621094-12.550782-12.550781v-47.183594c0-6.933594 5.621094-12.550781 12.550782-12.550781 6.929687 0 12.546874 5.617187 12.546874 12.550781v47.183594c0 6.929687-5.617187 12.550781-12.546874 12.550781zm0 0" fill="url(#w)"/><path d="m189.742188 323.261719c-6.929688 0-12.550782-5.617188-12.550782-12.546875v-42.164063c0-6.933593 5.621094-12.550781 12.550782-12.550781 6.929687 0 12.546874 5.617188 12.546874 12.550781v42.164063c0 6.929687-5.617187 12.546875-12.546874 12.546875zm0 0" fill="url(#x)"/><path d="m256 512c-6.929688 0-12.550781-5.617188-12.550781-12.550781v-95.871094c0-6.933594 5.621093-12.550781 12.550781-12.550781s12.550781 5.617187 12.550781 12.550781v95.871094c0 6.933593-5.621093 12.550781-12.550781 12.550781zm0 0" fill="url(#y)"/><path d="m256 385.507812c-6.929688 0-12.550781-5.621093-12.550781-12.550781v-104.40625c0-6.933593 5.621093-12.550781 12.550781-12.550781s12.550781 5.617188 12.550781 12.550781v104.40625c0 6.929688-5.621093 12.550781-12.550781 12.550781zm0 0" fill="url(#z)"/><path d="m322.257812 512c-6.929687 0-12.546874-5.617188-12.546874-12.550781v-22.085938c0-6.925781 5.617187-12.546875 12.546874-12.546875 6.929688 0 12.550782 5.621094 12.550782 12.546875v22.085938c0 6.933593-5.621094 12.550781-12.550782 12.550781zm0 0" fill="url(#A)"/><path d="m322.257812 458.792969c-6.929687 0-12.546874-5.617188-12.546874-12.550781v-67.765626c0-6.929687 5.617187-12.546874 12.546874-12.546874 6.929688 0 12.550782 5.617187 12.550782 12.546874v67.765626c0 6.933593-5.621094 12.550781-12.550782 12.550781zm0 0" fill="url(#B)"/><path d="m322.257812 360.40625c-6.929687 0-12.546874-5.617188-12.546874-12.546875v-79.308594c0-6.933593 5.617187-12.550781 12.546874-12.550781 6.929688 0 12.550782 5.617188 12.550782 12.550781v79.308594c0 6.929687-5.621094 12.546875-12.550782 12.546875zm0 0" fill="url(#C)"/><path d="m388.519531 512c-6.933593 0-12.550781-5.617188-12.550781-12.550781v-92.359375c0-6.929688 5.617188-12.546875 12.550781-12.546875 6.929688 0 12.546875 5.617187 12.546875 12.546875v92.359375c0 6.933593-5.617187 12.550781-12.546875 12.550781zm0 0" fill="url(#D)"/><path d="m388.519531 387.515625c-6.933593 0-12.550781-5.621094-12.550781-12.550781v-51.703125c0-6.929688 5.617188-12.546875 12.550781-12.546875 6.929688 0 12.546875 5.617187 12.546875 12.546875v51.703125c0 6.929687-5.617187 12.550781-12.546875 12.550781zm0 0" fill="url(#E)"/><path d="m386.644531 149.308594c-.515625 0-1.027343.007812-1.542969.019531 1-4.101563 1.542969-8.378906 1.542969-12.789063 0-29.742187-24.113281-53.855468-53.859375-53.855468-11.699218 0-22.519531 3.742187-31.351562 10.078125-18.390625-27.871094-49.976563-46.265625-85.867188-46.265625-56.78125 0-102.8125 46.03125-102.8125 102.8125 0 .347656.007813.695312.011719 1.042968-36.070313 6-63.574219 37.347657-63.574219 75.121094 0 42.0625 34.101563 76.164063 76.164063 76.164063h261.289062c42.0625 0 76.164063-34.101563 76.164063-76.164063s-34.101563-76.164062-76.164063-76.164062zm0 0" fill="url(#G)"/><path d="m462.808594 225.472656c0 42.066406-34.101563 76.164063-76.164063 76.164063-42.066406 0-76.164062-34.097657-76.164062-76.164063 0-42.0625 34.097656-76.164062 76.164062-76.164062 42.0625 0 76.164063 34.101562 76.164063 76.164062zm0 0" fill="url(#I)"/><path d="m386.644531 136.539062c0 29.742188-24.113281 53.855469-53.859375 53.855469-29.742187 0-53.855468-24.113281-53.855468-53.855469 0-29.746093 24.113281-53.855468 53.855468-53.855468 29.746094 0 53.859375 24.109375 53.859375 53.855468zm0 0" fill="url(#J)"/><path d="m318.375 149.308594c0 56.78125-46.027344 102.8125-102.808594 102.8125s-102.8125-46.03125-102.8125-102.8125 46.03125-102.8125 102.8125-102.8125 102.808594 46.03125 102.808594 102.8125zm0 0" fill="url(#K)"/><path d="m201.519531 225.472656c0 42.066406-34.097656 76.164063-76.164062 76.164063-42.0625 0-76.164063-34.097657-76.164063-76.164063 0-42.0625 34.101563-76.164062 76.164063-76.164062 42.066406 0 76.164062 34.101562 76.164062 76.164062zm0 0" fill="url(#L)"/><path d="m49.898438 235.847656c5.058593 37.15625 36.914062 65.789063 75.457031 65.789063h261.289062c38.542969 0 70.398438-28.632813 75.457031-65.789063zm0 0" fill="url(#M)"/><path d="m431.792969 46.78125c.003906-.097656.007812-.1875.007812-.285156 0-19.105469-15.488281-34.597656-34.597656-34.597656-16.222656 0-29.832031 11.164062-33.574219 26.230468-1.988281-.59375-4.09375-.917968-6.277344-.917968-12.117187 0-21.945312 9.824218-21.945312 21.945312 0 12.117188 9.824219 21.941406 21.945312 21.941406h70.96875c9.570313 0 17.332032-7.761718 17.332032-17.335937 0-8.378907-5.949219-15.371094-13.859375-16.980469zm0 0" fill="url(#N)"/><path d="m265.761719 301.636719-3.972657-3.972657c-5.640624-6.09375-13.707031-9.914062-22.667968-9.914062-.105469 0-.207032.011719-.3125.011719-.0625-.058594-.121094-.121094-.183594-.179688l-20.382812-20.382812c-8.867188-9.285157-21.355469-15.078125-35.210938-15.078125-26.894531 0-48.695312 21.800781-48.695312 48.695312 0 .132813.007812.265625.007812.398438-.578125.121094-1.148438.261718-1.714844.421875zm0 0" fill="url(#O)"/><path d="m134.34375 301.214844c0-.132813-.011719-.265625-.011719-.398438 0-26.894531 21.804688-48.695312 48.699219-48.695312 22.832031 0 41.984375 15.714844 47.253906 36.917968 2.800782-.835937 5.765625-1.289062 8.835938-1.289062 17.054687 0 30.882812 13.824219 30.882812 30.882812 0 17.054688-13.828125 30.882813-30.882812 30.882813-9.863282 0-92.921875 0-99.882813 0-13.476562 0-24.398437-10.921875-24.398437-24.394531.003906-11.796875 8.375-21.636719 19.503906-23.90625zm0 0" fill="url(#P)"/><path d="m415.394531 377.207031s-60.972656-58.984375 38.789063-99.492187c4.164062-1.691406 8.910156.234375 10.769531 4.324218 8.9375 19.667969 26.140625 74.777344-49.558594 95.167969zm0 0" fill="url(#Q)"/><path d="m464.953125 282.039062c-1.03125-2.265624-2.949219-3.867187-5.164063-4.554687-26.714843 44.476563-44.398437 99.722656-44.398437 99.722656 75.703125-20.390625 58.5-75.5 49.5625-95.167969zm0 0" fill="url(#R)"/><path d="m453.019531 310.945312c-.746093.449219-1.523437.847657-2.285156 1.246094-.765625.402344-1.519531.804688-2.296875 1.164063-.769531.375-1.597656.640625-2.40625.917969-.8125.273437-1.546875.660156-2.230469 1.164062-.671875.515625-1.328125 1.058594-1.960937 1.699219.410156-1.101563.820312-2.203125 1.230468-3.304688l2.070313-5.359375c.679687-1.796875 1.464844-3.53125 2.171875-5.3125 1.480469-3.535156 3.082031-6.988281 4.925781-10.347656l-.722656-.519531-1.789063 2.3125-.898437 1.164062c-.289063.394531-.546875.804688-.824219 1.203125-1.054687 1.625-2.199218 3.230469-3.167968 4.90625-2.050782 3.308594-3.917969 6.707032-5.8125 10.101563-.347657.660156-.695313 1.324219-1.042969 1.988281-.125-.613281-.289063-1.210938-.554688-1.789062-.355469-.777344-.730469-1.5625-.984375-2.378907-.273437-.8125-.5-1.636719-.730468-2.46875-.230469-.828125-.476563-1.667969-.660157-2.515625-.445312-1.695312-.734375-3.425781-1.082031-5.199218l-.496094-.019532c-.433594 1.757813-.738281 3.570313-.886718 5.398438-.085938.917968-.105469 1.832031-.132813 2.757812.015625.917969.03125 1.84375.097656 2.769532.058594.921874.066407 1.863281.113281 2.804687.070313.9375.292969 1.847656.703126 2.695313.082031.164062.167968.332031.257812.496093.96875 1.78125.972656 3.933594.066406 5.75l-.015625.03125c-1.570312 3.160157-3.070312 6.347657-4.589843 9.53125-.191407-.855469-.449219-1.644531-.738282-2.417969-.308594-.792968-.722656-1.511718-1.265625-2.175781-.535156-.664062-1.097656-1.332031-1.546875-2.058593-.464844-.71875-.894531-1.460938-1.324218-2.207032-.433594-.746094-.878907-1.496094-1.269532-2.273437-.859375-1.527344-1.570312-3.128907-2.351562-4.757813l-.480469.101563c.019531 1.816406.175781 3.644531.492187 5.449219.144532.910156.355469 1.800781.558594 2.707031.246094.882812.492188 1.777343.789063 2.652343.289062.878907.527343 1.789063.8125 2.691407.300781.890625.746093 1.714843 1.355469 2.433593.273437.3125.5625.617188.867187.910157 1.488281 1.429687 1.816406 3.695312.902344 5.546875-.78125 1.589844-1.570313 3.179687-2.339844 4.773437-.984375 2.019531-1.859375 4.078125-2.652344 6.171875-.183593-.730468-.40625-1.421875-.65625-2.097656-.3125-.789062-.726562-1.511719-1.269531-2.175781-.535156-.664063-1.097656-1.328125-1.546875-2.054688-.464844-.71875-.894531-1.464843-1.324219-2.210937-.433594-.746094-.878906-1.496094-1.269531-2.269532-.859375-1.53125-1.570313-3.132812-2.351563-4.761718l-.480468.105468c.019531 1.8125.175781 3.640626.488281 5.449219.148437.90625.359375 1.800781.5625 2.703125.246094.886719.492187 1.777344.789063 2.652344.289062.882812.527343 1.789062.8125 2.691406.300781.890625.746093 1.714844 1.355468 2.433594.613282.707031 1.300782 1.375 2.105469 1.933594.925781.644531 1.363281 1.777344 1.054687 2.859375-.792968 2.804687-2.183593 7.882812-2.738281 10.636719-.742187 3.835937-1.347656 7.722656-1.453125 11.78125l.839844.300781c2.5-3.183594 4.574219-6.507813 6.507812-9.882813 1.925782-3.378906 3.679688-6.8125 5.292969-10.300781.027344-.0625.058594-.125.085938-.183594.523437-1.125 1.738281-1.695312 2.953125-1.464843.902344.167968 1.792968.199218 2.664062.164062.941406-.046875 1.847656-.289062 2.703125-.679688.847657-.410156 1.675781-.859374 2.511719-1.253906.839844-.386718 1.660156-.816406 2.472656-1.246094.796875-.472656 1.589844-.933593 2.351563-1.449218 1.53125-1.011719 2.972656-2.148438 4.304687-3.378906l-.257812-.421876c-1.71875.550782-3.375 1.132813-5.074219 1.554688-.832031.25-1.6875.4375-2.523437.632812-.839844.199219-1.675782.398438-2.515626.554688-.839843.171875-1.707031.21875-2.5625.285156-.851562.058594-1.660156.253906-2.449218.570313-.847656.359375-1.6875.769531-2.527344 1.289062.726562-1.875 1.390625-3.777343 1.992188-5.703125.46875-1.542968 1.121093-3.613281 1.699218-5.433594.621094-1.933593 2.394532-3.304687 4.425782-3.300781.992187.003907 1.976562-.140625 2.886718-.175781.941406-.050781 1.847656-.292969 2.699219-.683594.851563-.410156 1.675781-.859375 2.515625-1.253906.839844-.386719 1.65625-.816406 2.472656-1.246094.796875-.472656 1.589844-.929687 2.351563-1.445312 1.53125-1.011719 2.96875-2.152344 4.304687-3.382813l-.257812-.421875c-1.722656.550782-3.375 1.132813-5.078125 1.554688-.832031.25-1.683594.4375-2.523438.636718-.839843.195313-1.671875.398438-2.515625.550782-.835937.171875-1.707031.21875-2.558594.285156-.855468.0625-1.664062.253906-2.453124.570312-1.496094.632813-2.949219 1.40625-4.476563 2.75 1.285156-3.605468 2.539063-7.230468 3.878906-10.8125l.050781-.140624c.765626-2.195313 2.652344-3.875 4.953126-4.203126.652343-.09375 1.28125-.246093 1.894531-.433593.898437-.28125 1.714843-.742188 2.445312-1.335938.71875-.609375 1.40625-1.25 2.121094-1.84375.714844-.582031 1.402344-1.207031 2.078125-1.824219.65625-.65625 1.308594-1.300781 1.917969-1.988281 1.226562-1.363281 2.335937-2.828125 3.320312-4.351562l-.355469-.347657c-1.523437.96875-2.980468 1.945313-4.519531 2.78125zm0 0" fill="url(#S)"/><path d="m462.808594 225.472656c0 4.625-.414063 9.164063-1.207032 13.570313-6.402343 35.589843-37.523437 62.597656-74.960937 62.597656h-28.289063l-85.253906-85.285156-7.089844-7.097657c-3.675781-3.84375-7.199218-7.828124-10.511718-11.976562-3.34375-4.125-6.484375-8.402344-9.386719-12.820312-5.800781-8.835938-10.742187-18.21875-14.15625-28.058594.753906 1.0625 1.515625 2.109375 2.289063 3.140625.773437 1.046875 1.558593 2.070312 2.351562 3.082031.390625.511719.792969 1.023438 1.214844 1.527344 9.375 11.753906 20.097656 22.035156 31.613281 31.171875.421875.34375.84375.671875 1.261719.992187.925781.746094 1.867187 1.46875 2.800781 2.171875.421875.328125.855469.652344 1.277344.972657.039062.03125.070312.050781.109375.078124.089844.070313.171875.132813.261718.191407.945313.703125 1.886719 1.394531 2.839844 2.089843.953125.683594 1.910156 1.363282 2.871094 2.035157 2.050781 1.445312 4.105469 2.863281 6.183594 4.238281 4.167968 2.761719 8.425781 5.351562 12.699218 7.882812 4.289063 2.519532 8.65625 4.878907 13.074219 7.085938 1.054688.542969 2.289063 1.175781 3.363281 1.6875 1.082032.511719 2.136719 1.054688 3.242188 1.527344 1.082031.480468 2.167969.984375 3.273438 1.425781 1.082031.472656 2.1875.910156 3.300781 1.324219 17.660156 6.9375 36.523437 9.789062 55.003906 8.574218 18.484375-1.164062 36.585937-6.367187 52.71875-15.160156 10.066406-5.472656 19.355469-12.320312 27.578125-20.328125.824219 2.828125 1.527344 9.34375 1.527344 23.359375zm0 0" fill="url(#T)"/><path d="m231.953125 156.40625c12.03125 16.964844 26.773437 31.007812 42.808594 43.050781 2.003906 1.503907 4.042969 2.964844 6.089843 4.402344 2.039063 1.445313 4.097657 2.859375 6.179688 4.238281 4.164062 2.761719 8.429688 5.347656 12.699219 7.878906 4.285156 2.519532 8.652343 4.875 13.066406 7.085938 1.058594.546875 2.289063 1.171875 3.367187 1.691406 1.082032.507813 2.144532 1.050782 3.238282 1.519532 1.089844.488281 2.167968.980468 3.273437 1.429687 1.09375.464844 2.195313.90625 3.304688 1.328125 17.65625 6.925781 36.527343 9.785156 55.003906 8.574219 18.480469-1.164063 36.589844-6.371094 52.71875-15.160157 16.136719-8.773437 30.289063-21.078124 41.207031-35.984374 1.382813-1.851563 2.691406-3.757813 3.972656-5.6875l1.84375-2.902344c.480469-.832032 1.007813-1.644532 1.433594-2.507813.480469-.835937.855469-1.722656 1.277344-2.585937.351562-.894532.765625-1.773438 1.058594-2.691406.65625-1.8125 1.199218-3.671876 1.585937-5.578126.414063-1.898437.65625-3.839843.765625-5.796874.128906-1.957032.09375-3.933594-.09375-5.90625-.066406-.988282-.234375-1.964844-.34375-2.957032-.175781-.980468-.320312-1.96875-.5625-2.941406-.4375-1.949219-1.007812-3.886719-1.75-5.757812-.734375-1.878907-1.574218-3.730469-2.597656-5.488282-.996094-1.769531-2.078125-3.519531-3.34375-5.136718-2.480469-3.285157-5.507812-6.191407-8.914062-8.703126-1.695313-1.277343-3.503907-2.410156-5.390626-3.414062-1.878906-1.035156-3.859374-1.871094-5.890624-2.617188-4.054688-1.511718-8.402344-2.433593-12.859376-2.683593-2.230468-.175781-4.488281-.144531-6.75.03125-2.269531.15625-4.53125.527343-6.78125 1.03125-2.261718.476562-4.503906 1.136719-6.691406 1.984375-2.195312.835937-4.359375 1.8125-6.449218 2.96875-2.105469 1.140625-4.132813 2.453125-6.074219 3.925781-1.960938 1.449219-3.832031 3.0625-5.574219 4.835937-.90625.855469-1.722656 1.800782-2.578125 2.726563-.804687.972656-1.609375 1.917969-2.417969 2.957031-1.609375 2.046875-3.238281 4.078125-4.890625 6.09375.933594-2.4375 1.882813-4.859375 2.855469-7.269531.460938-1.207031 1.042969-2.429687 1.585938-3.648437.609374-1.191407 1.195312-2.410157 1.890624-3.566407 2.714844-4.679687 6.222657-9.015625 10.398438-12.71875 1.027344-.953125 2.125-1.816406 3.226562-2.699219 1.136719-.820312 2.269532-1.671874 3.472657-2.414062 2.371093-1.546875 4.878906-2.910156 7.496093-4.082031 2.613282-1.183594 5.339844-2.152344 8.136719-2.910157 2.796875-.769531 5.667969-1.363281 8.585938-1.695312 5.832031-.664062 11.835937-.457031 17.738281.652344 2.945312.574218 5.867188 1.355468 8.707031 2.390625 2.855469 1.007812 5.640625 2.226562 8.320313 3.664062 10.734375 5.730469 19.980468 14.921875 25.65625 26.128907 1.453125 2.785156 2.667968 5.695312 3.6875 8.679687 1.023437 2.984375 1.847656 6.054687 2.371094 9.183594.558593 3.125.882812 6.300781.949218 9.492187.089844 3.1875-.046875 6.398438-.453125 9.582032-.390625 3.183593-.980469 6.363281-1.886719 9.457031-.410156 1.5625-.960937 3.078125-1.476562 4.605469-.585938 1.5-1.148438 3.019531-1.835938 4.476562-.640624 1.484375-1.390624 2.910156-2.140624 4.339844-.71875 1.308594-1.394532 2.488281-2.109376 3.734375-1.441406 2.441406-2.925781 4.859375-4.503906 7.222656-12.585937 18.941406-30.050781 34.761719-50.171875 45.539063-20.105469 10.832031-42.847656 16.605468-65.539062 16.746093-11.351563.097657-22.667969-1.308593-33.625-3.949219-5.480469-1.304687-10.847657-3.042968-16.089844-5.027343-5.238281-2-10.359375-4.273438-15.265625-6.925781-1.234375-.652344-2.453125-1.324219-3.65625-2.023438-1.214844-.679688-2.402344-1.402344-3.585938-2.125-1.195312-.703125-2.347656-1.480469-3.519531-2.21875l-3.316406-2.183594c-4.464844-3.003906-8.816406-6.144531-13.042969-9.421875-4.246094-3.257812-8.316406-6.726562-12.285156-10.285156-1.984375-1.78125-3.933594-3.601563-5.855469-5.441406-1.898437-1.871094-3.773437-3.761719-5.605469-5.691407-3.675781-3.847656-7.199218-7.832031-10.515624-11.980468-3.335938-4.121094-6.476563-8.398438-9.382813-12.820313-5.796875-8.828125-10.738281-18.214843-14.15625-28.050781zm0 0" fill="url(#U)"/><path d="m229.292969 120.074219c-.496094 4.949219.496093 9.589843 1.898437 13.992187 1.449219 4.402344 3.507813 8.550782 6.058594 12.367188 2.160156 3.230468 4.640625 6.246094 7.484375 8.933594l93.746094 93.746093c1.09375 1.160157 2.222656 2.285157 3.441406 3.328125 3.480469 3.039063 7.4375 5.636719 12.09375 7.246094-.699219-2.429688-1.699219-4.480469-2.621094-6.570312-.945312-2.066407-2.003906-3.988282-3.019531-5.925782-2.109375-3.808594-4.320312-7.445312-6.6875-10.984375-2.386719-3.527343-4.824219-7.011719-7.550781-10.410156-2.460938-3.054687-5.007813-6.0625-8.113281-9.050781zm0 0" fill="url(#V)"/><path d="m229.292969 120.074219c3.621093 3.332031 6.46875 6.6875 9.21875 10.097656 2.730469 3.398437 5.167969 6.882813 7.550781 10.414063 2.367188 3.535156 4.578125 7.171874 6.691406 10.980468 1.011719 1.941406 2.074219 3.859375 3.015625 5.929688.921875 2.085937 1.925781 4.136718 2.621094 6.566406-4.65625-1.609375-8.609375-4.203125-12.09375-7.246094-3.527344-3.015625-6.496094-6.566406-9.050781-10.382812-2.550782-3.820313-4.605469-7.964844-6.054688-12.367188-1.402344-4.402344-2.394531-9.042968-1.898437-13.992187zm0 0" fill="url(#W)"/><path d="m265.316406 291.078125c.972656-5.472656 1.445313-11.042969 1.425782-16.59375-.03125-1.398437-.019532-2.773437-.101563-4.1875-.109375-1.414063-.179687-2.839844-.339844-4.257813-.324219-2.828124-.765625-5.660156-1.367187-8.453124-2.398438-11.191407-7.226563-21.894532-14.035156-31.148438-1.675782-2.289062-3.472657-4.488281-5.390626-6.578125l81.78125 81.78125h-64.492187c1.054687-3.464844 1.886719-7 2.519531-10.5625zm0 0" fill="url(#X)"/><path d="m366.140625 417.859375c-16.605469 8.523437-34.664063 13.675781-52.835937 15.316406l-3.402344.316407-3.414063.152343c-2.28125.089844-4.5.214844-6.945312.230469l-6.867188-.070312-1.714843-.019532-1.710938-.105468-3.417969-.207032c-9.097656-.644531-18.125-1.855468-26.949219-3.914062-17.605468-4.203125-34.5-10.992188-49.703124-20.476563-7.617188-4.707031-14.828126-10.023437-21.554688-15.871093l-2.488281-2.226563c-.824219-.75-1.695313-1.445313-2.472657-2.242187l-4.789062-4.648438-4.558594-4.867188c-1.515625-1.621093-2.894531-3.367187-4.351562-5.039062-2.183594-2.652344-4.285156-5.367188-6.3125-8.140625l9.566406-.21875 7.183594-.164063 4-.203124c1.339844-.070313 2.675781-.265626 4.015625-.394532 5.347656-.644531 10.660156-1.765625 15.84375-3.363281 5.183593-1.597656 10.238281-3.671875 15.074219-6.191406 4.832031-2.519531 9.414062-5.535157 13.710937-8.917969 8.589844-6.773438 15.976563-15.121094 21.691406-24.558594 5.710938-9.441406 9.648438-20.007812 11.574219-30.957031.972656-5.472656 1.445312-11.039063 1.429688-16.597656-.03125-1.394531-.023438-2.769531-.101563-4.183594-.109375-1.417969-.179687-2.839844-.34375-4.253906-.316406-2.835938-.757813-5.660157-1.359375-8.457031-2.402344-11.191407-7.230469-21.894532-14.042969-31.152344-6.777343-9.296875-15.671875-17-25.710937-22.664063-10.046875-5.664062-21.355469-9.195312-32.898438-10.1875-11.527344-.980469-23.222656.480469-34.195312 4.308594-10.953125 3.828125-21.113282 9.964844-29.496094 17.96875-8.371094 8.011719-15.046875 17.773437-19.449219 28.507813-4.390625 10.730468-6.480469 22.433593-6.023437 33.96875l.097656 2.160156c.039062.707031.113281 1.308594.167969 1.964844l.734375 7.726562.550781 3.84375.5625 3.839844.285156 1.921875.375 1.902343c.507813 2.539063.988281 5.085938 1.527344 7.613282 2.308594 10.09375 5.460937 19.992187 9.453125 29.53125 1.527344 3.703125 3.1875 7.351562 4.960938 10.9375-2.21875-.097656-4.4375-.230469-6.65625-.410156-9.21875-.6875-18.414063-2.042969-27.503907-4.042969-9.09375-2.003907-18.050781-4.71875-26.847656-8.003907-8.773437-3.347656-17.332031-7.242187-25.210937-12.339843-3.957032-2.523438-7.734376-5.355469-11.269532-8.515625-3.519531-3.164063-6.828125-6.625-9.886718-10.328125 4.730468 8.371093 11.125 15.902343 18.535156 22.335937 7.453125 6.402344 15.859375 11.65625 24.523437 16.183594 8.675781 4.550781 17.773438 8.367188 27.117188 11.550781 9.355469 3.152344 19 5.503907 28.777343 7.234375 5.71875 1.003906 11.496094 1.710938 17.300782 2.179688 16.609375 26.40625 39.976562 48.390625 67.160156 63.050781 8.929688 4.949219 18.355469 8.9375 27.976562 12.1875 9.628907 3.242187 19.5 5.699219 29.492188 7.253906 19.996094 3.03125 40.363281 2.640625 59.945312-.960937 9.863282-1.886719 19.515626-4.679688 28.734376-8.441406 9.222656-3.742188 18.007812-8.445313 26.175781-13.953126 8.183593-5.484374 15.746093-11.792968 22.570312-18.734374 6.769531-6.996094 12.902344-14.539063 18.039063-22.664063-12.832032 14.304687-28.0625 25.996094-44.667969 34.5zm-230.476563-162.570313c2.917969-6.96875 7.320313-13.324218 12.816407-18.519531 5.449219-5.25 12.03125-9.277343 19.132812-11.808593 7.089844-2.535157 14.804688-3.53125 22.363281-2.972657 7.554688.503907 14.980469 2.667969 21.683594 6.285157 6.707032 3.601562 12.671875 8.644531 17.398438 14.664062 4.726562 6.03125 8.175781 13.054688 10.023437 20.539062.46875 1.871094.820313 3.773438 1.101563 5.6875.144531.960938.207031 1.929688.324218 2.894532.097657.972656.125 1.996094.199219 2.992187.179688 4.011719.007813 8.035157-.519531 12.019531-.53125 3.980469-1.421875 7.925782-2.664062 11.765626-1.25 3.839843-2.882813 7.558593-4.792969 11.144531-3.824219 7.167969-8.972657 13.6875-15.140625 19.121093-6.167969 5.425782-13.308594 9.828126-21.082032 12.773438-3.878906 1.484375-7.910156 2.617188-12.027343 3.390625-1.035157.164063-2.0625.402344-3.105469.515625l-3.160156.402344-7.152344.710937-14.300781 1.421875-3.578125.355469-1.578125.148437c-3.613281-6.492187-6.773438-13.222656-9.386719-20.164062-3.117188-8.238281-5.679688-16.679688-7.488281-25.292969l-1.175781-6.496093-.296876-1.621094-.207031-1.636719-.417969-3.273437-.414062-3.273438-.25-3.292969-.253906-3.289062c-.035156-.535157-.097656-1.125-.113282-1.613281l-.03125-1.429688c-.164062-7.601562 1.175782-15.171875 4.09375-22.148438zm0 0" fill="url(#Y)"/><path d="m169.804688 409.832031h40.609374c-.410156-.253906-.824218-.496093-1.234374-.753906-7.617188-4.707031-14.828126-10.019531-21.554688-15.867187l-2.488281-2.230469c-.824219-.75-1.695313-1.445313-2.472657-2.242188l-4.789062-4.648437-4.558594-4.867188c-1.515625-1.621094-2.894531-3.367187-4.351562-5.039062-2.183594-2.652344-4.285156-5.367188-6.3125-8.140625l-31.933594-.429688c10.550781 16.777344 23.835938 31.757813 39.085938 44.21875zm0 0" fill="url(#Z)"/><path d="m142.214844 328.652344c-2.136719-5.65625-4.007813-11.414063-5.5625-17.253906h-28.726563c2.257813 9.367187 5.234375 18.5625 8.949219 27.4375 1.53125 3.707031 3.1875 7.351562 4.964844 10.9375l29.765625-.953126c-3.613281-6.496093-6.773438-13.222656-9.390625-20.167968zm0 0" fill="url(#aa)"/></svg>