<svg height="512pt" viewBox="0 0 512 512.00076" width="512pt" xmlns="http://www.w3.org/2000/svg" xmlns:xlink="http://www.w3.org/1999/xlink"><radialGradient id="a" cx="215.8438107844" cy="185.726332" gradientUnits="userSpaceOnUse" r="336.6901399656"><stop offset="0" stop-color="#3b395f"/><stop offset=".3952" stop-color="#39375d"/><stop offset=".6279" stop-color="#323154"/><stop offset=".8179" stop-color="#262846"/><stop offset=".9849" stop-color="#151a32"/><stop offset="1" stop-color="#131830"/></radialGradient><linearGradient id="b"><stop offset="0" stop-color="#131830" stop-opacity="0"/><stop offset=".8421" stop-color="#131830"/></linearGradient><linearGradient id="c" gradientUnits="userSpaceOnUse" x1="499.9792364032" x2="27.1329783252" xlink:href="#b" y1="459.903453732" y2="54.3201704384"/><linearGradient id="d" gradientUnits="userSpaceOnUse" x1="311.706615897" x2="181.3726430314" xlink:href="#b" y1="574.2555907108" y2="443.921517453"/><linearGradient id="e" gradientUnits="userSpaceOnUse" x1="446.4211020174" x2="362.0913528408" xlink:href="#b" y1="460.6602101356" y2="430.8771573382"/><linearGradient id="f" gradientUnits="userSpaceOnUse" x1="355.7759807154" x2="303.572337892" xlink:href="#b" y1="501.1614353816" y2="480.0791737738"/><linearGradient id="g" gradientUnits="userSpaceOnUse" x1="188.0553502166" x2="117.7812117854" xlink:href="#b" y1="499.9113517072" y2="457.4121208968"/><linearGradient id="h"><stop offset="0" stop-color="#00c6f6"/><stop offset=".5169" stop-color="#00c4f6"/><stop offset=".7031" stop-color="#02bdf7"/><stop offset=".8359" stop-color="#05b2f9"/><stop offset=".9424" stop-color="#0aa1fc"/><stop offset="1" stop-color="#0d94fe"/></linearGradient><radialGradient id="i" cx="50.6781" cy="489.4999" gradientTransform="matrix(1.440427 0 0 1.003922 131.976913 .000762)" gradientUnits="userSpaceOnUse" r="162.6389" xlink:href="#h"/><radialGradient id="j" cx="50.6781" cy="489.4998" gradientTransform="matrix(1.440427 0 0 1.003922 131.976913 .000762)" gradientUnits="userSpaceOnUse" r="162.6386" xlink:href="#h"/><radialGradient id="k" cx="50.6781" cy="489.4993" gradientTransform="matrix(1.440427 0 0 1.003922 131.976913 .000762)" gradientUnits="userSpaceOnUse" r="162.6384" xlink:href="#h"/><radialGradient id="l" cx="50.6781" cy="489.5013" gradientTransform="matrix(1.440427 0 0 1.003922 131.976913 .000762)" gradientUnits="userSpaceOnUse" r="162.6412" xlink:href="#h"/><radialGradient id="m" cx="50.6781" cy="489.5" gradientTransform="matrix(1.440427 0 0 1.003922 131.976913 .000762)" gradientUnits="userSpaceOnUse" r="162.6387" xlink:href="#h"/><radialGradient id="n" cx="50.6781" cy="446.4411" gradientTransform="matrix(1.440427 0 0 1.003922 131.976913 .000762)" gradientUnits="userSpaceOnUse" r="141.657" xlink:href="#h"/><radialGradient id="o" cx="352.5394365796" cy="73.6693614976" gradientUnits="userSpaceOnUse" r="194.3880113692"><stop offset="0" stop-color="#ffebc9"/><stop offset=".2771" stop-color="#ffe9c5"/><stop offset=".5263" stop-color="#fee2bb"/><stop offset=".7641" stop-color="#fdd7a8"/><stop offset=".9948" stop-color="#fbc78f"/><stop offset="1" stop-color="#fbc78e"/></radialGradient><linearGradient id="p" gradientUnits="userSpaceOnUse" x1="436.130700733" x2="153.1375375658" y1="357.398499883" y2="74.4053367158"><stop offset="0" stop-color="#e58200" stop-opacity="0"/><stop offset=".0396" stop-color="#e27f04" stop-opacity=".039216"/><stop offset=".4671" stop-color="#c15d2f" stop-opacity=".466667"/><stop offset=".8016" stop-color="#ad4949" stop-opacity=".8"/><stop offset="1" stop-color="#a64153"/></linearGradient><radialGradient id="q" cx="160.8642232388" cy="124.1113219954" gradientUnits="userSpaceOnUse" r="279.2630909762"><stop offset="0" stop-color="#ecf7ff"/><stop offset=".3473" stop-color="#e9f5ff"/><stop offset=".62" stop-color="#dff0ff"/><stop offset=".8666" stop-color="#cee7ff"/><stop offset="1" stop-color="#c2e0ff"/></radialGradient><linearGradient id="r"><stop offset=".0029" stop-color="#c2e0ff" stop-opacity="0"/><stop offset=".0763" stop-color="#bfdcfd" stop-opacity=".07451"/><stop offset="1" stop-color="#9eb2e7"/></linearGradient><linearGradient id="s" gradientUnits="userSpaceOnUse" x1="338.669451012" x2="378.9230087006" xlink:href="#r" y1="310.5537926956" y2="189.1108542386"/><linearGradient id="t" gradientUnits="userSpaceOnUse" x1="292.6192476954" x2="344.3735350316" xlink:href="#r" y1="227.4722197416" y2="150.7384455936"/><linearGradient id="u" gradientUnits="userSpaceOnUse" x1="187.1980008286" x2="187.1980008286" xlink:href="#r" y1="240.942042" y2="108.4242376078"/><linearGradient id="v" gradientUnits="userSpaceOnUse" x1="108.1233817532" x2="26.4255144918" xlink:href="#r" y1="309.390447882" y2="232.179308823"/><linearGradient id="w" gradientUnits="userSpaceOnUse" x1="223.1784649164" x2="223.1784649164" xlink:href="#r" y1="326.9131032544" y2="421.2748441926"/><linearGradient id="x" gradientUnits="userSpaceOnUse" x1="215.7348852474" x2="116.9704443782" xlink:href="#r" y1="419.1227366012" y2="320.358295732"/><linearGradient id="y" gradientUnits="userSpaceOnUse" x1="382.0531371044" x2="230.7956226992" y1="383.2029094022" y2="289.5036565918"><stop offset=".0029" stop-color="#c2e0ff" stop-opacity="0"/><stop offset=".188" stop-color="#b9d5f9" stop-opacity=".184314"/><stop offset=".695" stop-color="#a5bbec" stop-opacity=".694118"/><stop offset="1" stop-color="#9eb2e7"/></linearGradient><linearGradient id="z"><stop offset="0" stop-color="#00c6f6"/><stop offset=".8567" stop-color="#0b9cfd"/><stop offset="1" stop-color="#0d94fe"/></linearGradient><linearGradient id="A" gradientUnits="userSpaceOnUse" x1="200.9744208658" x2="281.6279080706" xlink:href="#z" y1="273.0280918654" y2="353.6815790702"/><linearGradient id="B" gradientUnits="userSpaceOnUse" x1="232.6401285898" x2="313.2930134414" xlink:href="#z" y1="241.3634884556" y2="322.0164736994"/><linearGradient id="C" gradientUnits="userSpaceOnUse" x1="200.9749228268" x2="281.6278076784" xlink:href="#z" y1="273.0287946108" y2="353.6816794624"/><linearGradient id="D" gradientUnits="userSpaceOnUse" x1="232.6401285898" x2="313.2927122648" xlink:href="#z" y1="241.3637896322" y2="322.0163733072"/><linearGradient id="E" gradientUnits="userSpaceOnUse" x1="194.415396871" x2="275.0705907432" xlink:href="#z" y1="279.5844052708" y2="360.239599143"/><linearGradient id="F" gradientUnits="userSpaceOnUse" x1="239.195337681" x2="319.8512342986" xlink:href="#z" y1="234.803560931" y2="315.4594575486"/><linearGradient id="G" gradientUnits="userSpaceOnUse" x1="216.80737512" x2="297.4602599716" xlink:href="#z" y1="257.196041141" y2="337.8489259926"/><linearGradient id="H" gradientUnits="userSpaceOnUse" x1="216.8081782576" x2="297.4602599716" xlink:href="#z" y1="257.1967438864" y2="337.8489259926"/><linearGradient id="I"><stop offset="0" stop-color="#0d94fe" stop-opacity="0"/><stop offset=".5142" stop-color="#0681cd" stop-opacity=".513725"/><stop offset="1" stop-color="#0070a2"/></linearGradient><linearGradient id="J" gradientUnits="userSpaceOnUse" x1="280.7699563294" x2="264.2905766994" xlink:href="#I" y1="332.7507089" y2="316.2712288778"/><linearGradient id="K" gradientUnits="userSpaceOnUse" x1="280.2298462934" x2="264.8052875088" xlink:href="#I" y1="348.2102041702" y2="332.7856453856"/><linearGradient id="L" gradientUnits="userSpaceOnUse" x1="292.319878155" x2="275.8898914874" xlink:href="#I" y1="321.1110364476" y2="304.68104978"/><linearGradient id="M" gradientUnits="userSpaceOnUse" x1="307.7341969352" x2="291.9608756478" xlink:href="#I" y1="320.7978127836" y2="305.0244914962"/><linearGradient id="N" gradientUnits="userSpaceOnUse" x1="302.9104521174" x2="268.420511023" xlink:href="#I" y1="343.2991181384" y2="308.809177044"/><linearGradient id="O" gradientUnits="userSpaceOnUse" x1="283.1514600978" x2="268.488777719" xlink:href="#I" y1="278.711595484" y2="264.0490134974"/><linearGradient id="P" gradientUnits="userSpaceOnUse" x1="314.277660139" x2="287.8294354412" xlink:href="#I" y1="282.9419220076" y2="277.6872938674"/><linearGradient id="Q" gradientUnits="userSpaceOnUse" x1="257.024992401" x2="343.4036459874" xlink:href="#z" y1="247.1293136782" y2="333.5079672646"/><linearGradient id="R" gradientUnits="userSpaceOnUse" x1="206.7392421664" x2="293.1204055578" xlink:href="#z" y1="297.411650578" y2="383.7928139694"/><linearGradient id="S" gradientUnits="userSpaceOnUse" x1="257.0250927932" x2="343.4036459874" xlink:href="#z" y1="247.1299160314" y2="333.5084692256"/><linearGradient id="T" gradientUnits="userSpaceOnUse" x1="206.7414507948" x2="293.1178957528" xlink:href="#z" y1="297.4139595986" y2="383.7904045566"/><linearGradient id="U" gradientUnits="userSpaceOnUse" x1="263.4665575218" x2="349.845110716" xlink:href="#z" y1="240.6879493418" y2="327.066502536"/><linearGradient id="V" gradientUnits="userSpaceOnUse" x1="200.2991829286" x2="286.6779369072" xlink:href="#z" y1="303.8550227584" y2="390.233776737"/><linearGradient id="W" gradientUnits="userSpaceOnUse" x1="231.8824686564" x2="318.2619253804" xlink:href="#z" y1="272.2710342852" y2="358.6504910092"/><linearGradient id="X" gradientUnits="userSpaceOnUse" x1="231.8826694408" x2="318.2606202818" xlink:href="#z" y1="272.2712350696" y2="358.6492863028"/><linearGradient id="Y" gradientUnits="userSpaceOnUse" x1="293.4725813954" x2="258.5753491456" xlink:href="#I" y1="314.8764800432" y2="272.0993636232"/><linearGradient id="Z" gradientUnits="userSpaceOnUse" x1="267.8268919444" x2="232.4407496806" xlink:href="#I" y1="336.6277552718" y2="293.2511970256"/><linearGradient id="aa" gradientUnits="userSpaceOnUse" x1="296.2074657078" x2="260.6268637526" xlink:href="#I" y1="313.7716638822" y2="270.1567745532"/><linearGradient id="ab" gradientUnits="userSpaceOnUse" x1="280.4833365984" x2="244.903638173" xlink:href="#I" y1="326.5989760606" y2="282.9851910458"/><linearGradient id="ac"><stop offset="0" stop-color="#ecf7ff"/><stop offset="1" stop-color="#c2e0ff"/></linearGradient><radialGradient id="ad" cx="269.447021268" cy="309.835687289" gradientUnits="userSpaceOnUse" r="14.2485645538" xlink:href="#ac"/><linearGradient id="ae" gradientUnits="userSpaceOnUse" x1="259.9144807014" x2="305.6773615416" xlink:href="#z" y1="300.3031467224" y2="346.0660275626"/><radialGradient id="af" cx="247.4562102502" cy="279.1511125356" gradientUnits="userSpaceOnUse" r="89.187928519" xlink:href="#ac"/><radialGradient id="ag" cx="247.4588204474" cy="279.1511125356" gradientUnits="userSpaceOnUse" r="89.1742751798" xlink:href="#ac"/><radialGradient id="ah" cx="247.4562102502" cy="279.154325086" gradientUnits="userSpaceOnUse" r="89.1745763564" xlink:href="#ac"/><radialGradient id="ai" cx="247.4588204474" cy="279.154325086" gradientUnits="userSpaceOnUse" r="89.173873611" xlink:href="#ac"/><radialGradient id="aj" cx="247.4595231928" cy="279.1497070448" gradientUnits="userSpaceOnUse" r="89.1754798862" xlink:href="#ac"/><radialGradient id="ak" cx="247.4595231928" cy="279.1537227328" gradientUnits="userSpaceOnUse" r="89.1740743954" xlink:href="#ac"/><radialGradient id="al" cx="247.4564110346" cy="279.1497070448" gradientUnits="userSpaceOnUse" r="89.1861214594" xlink:href="#ac"/><radialGradient id="am" cx="247.4564110346" cy="279.1537227328" gradientUnits="userSpaceOnUse" r="89.1741747876" xlink:href="#ac"/><linearGradient id="an"><stop offset="0" stop-color="#fff" stop-opacity="0"/><stop offset="1" stop-color="#fff"/></linearGradient><linearGradient id="ao" gradientUnits="userSpaceOnUse" x1="299.2447313266" x2="203.1729096536" xlink:href="#an" y1="348.5261384236" y2="223.7837099214"/><linearGradient id="ap" gradientUnits="userSpaceOnUse" x1="306.7493494532" x2="210.6741144454" xlink:href="#an" y1="342.7498724122" y2="218.0031270454"/><linearGradient id="aq" gradientUnits="userSpaceOnUse" x1="324.1468157522" x2="228.0785078062" xlink:href="#an" y1="329.3441003774" y2="204.6063903086"/><linearGradient id="ar" gradientUnits="userSpaceOnUse" x1="274.3523849444" x2="178.2807640558" xlink:href="#an" y1="367.69723372" y2="242.9552067866"/><linearGradient id="as" gradientUnits="userSpaceOnUse" x1="291.7525618328" x2="195.6879683982" xlink:href="#an" y1="354.2951761966" y2="229.562084169"/><linearGradient id="at" gradientUnits="userSpaceOnUse" x1="326.9833973632" x2="230.9076603944" xlink:href="#an" y1="327.1647864998" y2="202.4174387798"/><linearGradient id="au" gradientUnits="userSpaceOnUse" x1="313.5807374866" x2="217.5125299328" xlink:href="#an" y1="337.4843015222" y2="212.7465914534"/><linearGradient id="av" gradientUnits="userSpaceOnUse" x1="284.9232820356" x2="188.8437301632" xlink:href="#an" y1="359.5637588526" y2="234.8113915226"/><linearGradient id="aw" gradientUnits="userSpaceOnUse" x1="271.5183131384" x2="175.4460898966" xlink:href="#an" y1="369.8800613246" y2="245.1373316458"/><linearGradient id="ax" gradientUnits="userSpaceOnUse" x1="17.8326449172" x2="149.0472581612" xlink:href="#z" y1="358.4755074046" y2="489.6901206486"/><linearGradient id="ay" gradientUnits="userSpaceOnUse" x1="69.3485007784" x2="200.56391716" xlink:href="#z" y1="306.9583464448" y2="438.1738632186"/><linearGradient id="az" gradientUnits="userSpaceOnUse" x1="17.833046486" x2="149.0470573768" xlink:href="#z" y1="358.4756077968" y2="489.6896186876"/><linearGradient id="aA" gradientUnits="userSpaceOnUse" x1="69.3489023472" x2="200.563415199" xlink:href="#z" y1="306.9591495824" y2="438.173562042"/><linearGradient id="aB" gradientUnits="userSpaceOnUse" x1="7.1645681764" x2="138.3781774984" xlink:href="#z" y1="369.1444876752" y2="500.3580969972"/><linearGradient id="aC" gradientUnits="userSpaceOnUse" x1="80.0138669298" x2="211.2339013526" xlink:href="#z" y1="296.2863544082" y2="427.506388831"/><linearGradient id="aD" gradientUnits="userSpaceOnUse" x1="43.5909744166" x2="174.8059892294" xlink:href="#z" y1="332.7169771208" y2="463.9319919336"/><linearGradient id="aE" gradientUnits="userSpaceOnUse" x1="43.59067324" x2="174.805788445" xlink:href="#z" y1="332.7172782974" y2="463.9322931102"/><linearGradient id="aF" gradientUnits="userSpaceOnUse" x1="147.6516057968" x2="120.8407644726" xlink:href="#I" y1="455.637287193" y2="428.826546261"/><linearGradient id="aG" gradientUnits="userSpaceOnUse" x1="146.772772478" x2="121.6779350284" xlink:href="#I" y1="480.7894485888" y2="455.6946111392"/><linearGradient id="aH" gradientUnits="userSpaceOnUse" x1="166.4424154396" x2="139.7124902286" xlink:href="#I" y1="436.7006076836" y2="409.9706824726"/><linearGradient id="aI" gradientUnits="userSpaceOnUse" x1="191.519583862" x2="165.8576308746" xlink:href="#I" y1="436.1907156998" y2="410.5286623202"/><linearGradient id="aJ" gradientUnits="userSpaceOnUse" x1="183.6728291178" x2="127.5603155952" xlink:href="#I" y1="472.799333783" y2="416.6868202604"/><linearGradient id="aK" gradientUnits="userSpaceOnUse" x1="151.5259415792" x2="127.6714497606" xlink:href="#I" y1="367.7200227494" y2="343.8655309308"/><linearGradient id="aL" gradientUnits="userSpaceOnUse" x1="202.1648715734" x2="159.1377785754" xlink:href="#I" y1="374.6030123736" y2="366.0546165436"/><linearGradient id="aM" gradientUnits="userSpaceOnUse" x1="109.0203860602" x2="249.5521986018" xlink:href="#z" y1="316.3389936128" y2="456.8708061544"/><linearGradient id="aN" gradientUnits="userSpaceOnUse" x1="27.2118865944" x2="167.7438999204" xlink:href="#z" y1="398.1462883722" y2="538.6783016982"/><linearGradient id="aO" gradientUnits="userSpaceOnUse" x1="109.0200848836" x2="249.5514958564" xlink:href="#z" y1="316.3386924362" y2="456.870103409"/><linearGradient id="aP" gradientUnits="userSpaceOnUse" x1="27.2123885554" x2="167.7448034502" xlink:href="#z" y1="398.1467903332" y2="538.679205228"/><linearGradient id="aQ" gradientUnits="userSpaceOnUse" x1="119.5001270338" x2="260.0316383988" xlink:href="#z" y1="305.8594534236" y2="446.3909647886"/><linearGradient id="aR" gradientUnits="userSpaceOnUse" x1="16.732747974" x2="157.2639581624" xlink:href="#z" y1="408.6267320912" y2="549.1579422796"/><linearGradient id="aS" gradientUnits="userSpaceOnUse" x1="68.1155841702" x2="208.6480994572" xlink:href="#z" y1="357.2420888354" y2="497.7745037302"/><linearGradient id="aT" gradientUnits="userSpaceOnUse" x1="68.1160861312" x2="208.647999065" xlink:href="#z" y1="357.242891973" y2="497.7748049068"/><linearGradient id="aU" gradientUnits="userSpaceOnUse" x1="168.3191472264" x2="111.5420373398" xlink:href="#I" y1="426.5604935226" y2="356.962797735"/><linearGradient id="aV" gradientUnits="userSpaceOnUse" x1="126.5947434156" x2="69.0239327958" xlink:href="#I" y1="461.94543108" y2="391.3748344822"/><linearGradient id="aW" gradientUnits="userSpaceOnUse" x1="172.766822863" x2="114.8819854416" xlink:href="#I" y1="424.7598590234" y2="353.8042583386"/><linearGradient id="aX" gradientUnits="userSpaceOnUse" x1="147.1844808902" x2="89.3005469986" xlink:href="#I" y1="445.6289879906" y2="374.67449162"/><radialGradient id="aY" cx="129.2298378812" cy="418.3563425464" gradientUnits="userSpaceOnUse" r="23.181060941" xlink:href="#ac"/><linearGradient id="aZ" gradientUnits="userSpaceOnUse" x1="113.721150433" x2="188.1736122282" xlink:href="#z" y1="402.847554706" y2="477.3001168934"/><radialGradient id="a0" cx="93.454475058" cy="368.4360199198" gradientUnits="userSpaceOnUse" r="145.0855023414" xlink:href="#ac"/><radialGradient id="a1" cx="93.4540734892" cy="368.4360199198" gradientUnits="userSpaceOnUse" r="145.085803518" xlink:href="#ac"/><radialGradient id="a2" cx="93.454475058" cy="368.4355179588" gradientUnits="userSpaceOnUse" r="145.0857031258" xlink:href="#ac"/><radialGradient id="a3" cx="93.4540734892" cy="368.4355179588" gradientUnits="userSpaceOnUse" r="145.0852011648" xlink:href="#ac"/><radialGradient id="a4" cx="93.4527683906" cy="368.436120312" gradientUnits="userSpaceOnUse" r="145.08680744" xlink:href="#ac"/><radialGradient id="a5" cx="93.4527683906" cy="368.4354175666" gradientUnits="userSpaceOnUse" r="145.0869078322" xlink:href="#ac"/><radialGradient id="a6" cx="93.4527683906" cy="368.436120312" gradientUnits="userSpaceOnUse" r="145.0850003804" xlink:href="#ac"/><radialGradient id="a7" cx="93.4527683906" cy="368.4354175666" gradientUnits="userSpaceOnUse" r="145.0866066556" xlink:href="#ac"/><linearGradient id="a8" gradientUnits="userSpaceOnUse" x1="177.7087293002" x2="21.4082135124" xlink:href="#an" y1="481.3026535152" y2="278.3576125868"/><linearGradient id="a9" gradientUnits="userSpaceOnUse" x1="189.9117023868" x2="33.6175113076" xlink:href="#an" y1="471.897309866" y2="268.9604007058"/><linearGradient id="ba" gradientUnits="userSpaceOnUse" x1="218.2214996492" x2="61.9276097466" xlink:href="#an" y1="450.0950353998" y2="247.1587285928"/><linearGradient id="bb" gradientUnits="userSpaceOnUse" x1="137.2111181734" x2="-19.0905019286" xlink:href="#an" y1="512.4927029956" y2="309.5462565764"/><linearGradient id="bc" gradientUnits="userSpaceOnUse" x1="165.5202126904" x2="9.2189941572" xlink:href="#an" y1="490.689725784" y2="287.7437813258"/><linearGradient id="bd" gradientUnits="userSpaceOnUse" x1="222.8362279066" x2="66.5305921166" xlink:href="#an" y1="446.5494840724" y2="243.597917651"/><linearGradient id="be" gradientUnits="userSpaceOnUse" x1="201.032748734" x2="44.7272133362" xlink:href="#an" y1="463.3402803068" y2="260.3887138854"/><linearGradient id="bf" gradientUnits="userSpaceOnUse" x1="154.4012745794" x2="-1.89703258" xlink:href="#an" y1="499.2502690702" y2="296.3081395156"/><linearGradient id="bg" gradientUnits="userSpaceOnUse" x1="132.5987993288" x2="-23.6995078306" xlink:href="#an" y1="516.0423704032" y2="313.1002408486"/><path d="m512 256c0 141.386719-114.613281 256-256 256-141.382812 0-256-114.613281-256-256 0-141.382812 114.617188-256 256-256 141.386719 0 256 114.617188 256 256zm0 0" fill="url(#a)"/><path d="m512 256c0-20.65625-2.464844-40.734375-7.082031-59.972656l-187.464844-188.582032c-5.105469-1.257812-10.265625-2.375-15.484375-3.320312-51.71875 29.402344-84.636719 88.082031-75.90625 153.523438-11.792969-5.546876-24.964844-8.648438-38.863281-8.648438-50.527344 0-91.488281 40.960938-91.488281 91.484375 0 .3125.007812.621094.011718.929687-32.097656 5.339844-56.570312 33.230469-56.570312 66.847657 0 20.46875 9.089844 38.804687 23.4375 51.234375l148.589844 148.589844c14.554687 2.570312 29.53125 3.914062 44.820312 3.914062 141.382812 0 256-114.613281 256-256zm0 0" fill="url(#c)"/><path d="m335.339844 501.148438-1.253906-1.273438c-24.617188 7.878906-50.847657 12.125-78.085938 12.125-89.808594 0-168.820312-46.25-214.507812-116.234375.210937-.308594.460937-.601563.742187-.882813 2.863281-2.859374 7.507813-2.859374 10.371094 0l14.042969 14.046876h13.796874l-10.554687-11.085938c-.128906-.308594-.230469-.640625-.300781-.984375-.070313-.339844-.109375-.691406-.109375-1.050781 0-.351563.039062-.703125.109375-1.035156-.960938-.671876-1.765625-1.566407-2.320313-2.609376l-12.234375-12.238281c-2.332031-1.234375-3.917968-3.675781-3.917968-6.484375 0-4.058594 3.285156-7.339844 7.339843-7.339844h8.140625l-1.003906-1.003906c-2.859375-2.863281-2.859375-7.511718 0-10.371094 1.4375-1.4375 3.3125-2.148437 5.191406-2.148437 1.40625 0 2.8125.402344 4.035156 1.203125.410157.273438.792969.582031 1.15625.945312l.992188 1.003907v-8.152344c0-4.046875 3.28125-7.328125 7.339844-7.328125 2.8125 0 5.25 1.585938 6.484375 3.902344l12.246093 12.25c1.035157.550781 1.929688 1.34375 2.59375 2.296875.339844-.066407.699219-.097657 1.0625-.097657.359376 0 .714844.027344 1.054688.097657.339844.070312.671875.171875.984375.3125.539063.230469 1.042969.554687 1.476563.945312l7.710937 8.230469c.539063.230469 1.03125.5625 1.472656.953125.144531.132813.273438.273437.402344.414063v-13.785157l-14.035156-14.035156c-2.871094-2.863281-2.871094-7.507813 0-10.371094 2.863281-2.871093 7.507812-2.871093 10.371093 0l3.0625 3.0625.632813.621094c0-.039063.007813-.078125.007813-.117187.011718-.183594.042968-.375.0625-.554688.019531-.121094.039062-.238281.058593-.359375.03125-.183594.070313-.363281.113281-.53125.027344-.121094.058594-.242187.097657-.363281.042969-.167969.101562-.339844.164062-.511719.039063-.109375.078125-.230469.117188-.339844.070312-.171875.140625-.332031.210937-.484375.050782-.117187.101563-.230468.160156-.339844.082032-.152343.160157-.300781.242188-.453124.070312-.109376.128906-.21875.199219-.320313.089843-.140625.183593-.28125.28125-.421875.070312-.097656.152343-.210938.230469-.308594.101562-.132812.203124-.265625.3125-.382812.078124-.101563.179687-.203125.269531-.300782.113281-.109374.210937-.230468.332031-.332031.101562-.101562.203125-.191406.3125-.292969.109375-.101562.222656-.199218.34375-.289062.117188-.089844.226562-.183594.351562-.261719.117188-.089843.238282-.179687.371094-.261719.117188-.082031.25-.160156.378906-.242187.132813-.066406.253907-.140625.382813-.210937.128906-.078126.28125-.140626.421875-.210938.128906-.058594.25-.117188.382812-.167969.148438-.070312.308594-.121093.472657-.171875.117187-.050781.25-.101562.378906-.140625.171875-.050781.34375-.089843.523437-.132812.121094-.027344.242188-.058594.359376-.089844.203124-.039063.402343-.058594.605468-.089844.109375-.007812.210938-.039062.3125-.050781.308594-.027344.628906-.039062.941406-.039062.320313 0 .644532.011718.953126.039062.101562.011719.199218.042969.3125.050781.199218.03125.402343.050781.601562.089844.121094.03125.242188.0625.359375.089844.183594.042969.355469.082031.523437.132812.132813.039063.253907.089844.382813.140625.160156.050782.3125.101563.472656.171875.128907.050781.25.109375.378907.167969.144531.070312.28125.132812.425781.210938.128906.070312.25.144531.378906.210937.132813.082031.261719.160156.382813.242187.128906.082032.25.171876.371093.261719.109375.078125.230469.171875.351563.261719.109375.089844.230468.1875.339844.289062.113281.101563.210937.191407.3125.292969.121093.101563.222656.222657.332031.332031.089843.097657.191406.199219.273437.300782.109375.117187.210938.25.308594.382812.082031.097656.160156.210938.230469.308594.101562.140625.191406.28125.28125.421875.019531.019531.03125.050781.050781.082031.070312.039063.140625.078125.210938.128906.132812.082032.25.171876.371093.261719.109375.078125.230469.160157.34375.25.117188.101563.238281.203125.351563.304688.109375.097656.207031.1875.308594.277343.121093.113282.222656.230469.332031.34375.089843.101563.191406.199219.273437.300782.109375.121094.210938.25.3125.382812.078125.097656.160156.210938.230469.308594.058594.082031.109375.160156.160156.242188l2.1875-2.1875c2.863281-2.871094 7.507813-2.871094 10.371094 0 .53125.53125.964844 1.121093 1.304687 1.753906l12.238282 12.25c.273437.140625.53125.3125.78125.480468.785156-3.210937 3.675781-5.601562 7.128906-5.601562 2.8125 0 5.25 1.585938 6.484375 3.90625 0 0 93.757813 94.398438 135.339844 136.875 9.015625 9.207031 15.570312 15.972656 18.203125 18.8125.585937.632812.976562 1.074219 1.15625 1.304688zm0 0" fill="url(#d)"/><path d="m436.574219 437.449219c-17.808594 17.738281-38.21875 32.859375-60.605469 44.753906v-75.113281c0-6.925782 5.621094-12.546875 12.550781-12.546875 3.714844 0 7.046875 1.625 9.347657 4.195312zm0 0" fill="url(#e)"/><path d="m354.816406 492.222656c-14.414062 6.046875-29.496094 10.804688-45.105468 14.125v-28.980468c0-6.929688 5.621093-12.550782 12.546874-12.550782 3.714844 0 7.050782 1.625 9.347657 4.195313zm0 0" fill="url(#f)"/><path d="m180.597656 500.714844c-25.089844-7.71875-48.519531-19.191406-69.664062-33.761719v-5.652344c0-6.925781 5.621094-12.546875 12.550781-12.546875 3.710937 0 7.046875 1.625 9.34375 4.195313l41.753906 41.753906c.351563.3125.683594.644531.996094.992187.351563.3125.683594.644532.992187.996094.351563.3125.683594.640625.992188.992188.351562.3125.683594.644531.996094.996094.351562.308593.683594.640624.992187.992187.351563.3125.683594.644531.992188.992187zm0 0" fill="url(#g)"/><path d="m256 512c-6.929688 0-12.546875-5.617188-12.546875-12.546875v-95.875c0-6.929687 5.617187-12.550781 12.546875-12.550781s12.550781 5.621094 12.550781 12.550781v95.875c0 6.929687-5.621093 12.546875-12.550781 12.546875zm0 0" fill="url(#i)"/><path d="m322.257812 512c-6.929687 0-12.546874-5.617188-12.546874-12.546875v-22.085937c0-6.929688 5.617187-12.550782 12.546874-12.550782 6.929688 0 12.550782 5.621094 12.550782 12.550782v22.085937c0 6.929687-5.621094 12.546875-12.550782 12.546875zm0 0" fill="url(#j)"/><path d="m322.257812 458.792969c-6.929687 0-12.546874-5.617188-12.546874-12.550781v-67.761719c0-6.933594 5.617187-12.550781 12.546874-12.550781 6.929688 0 12.550782 5.617187 12.550782 12.550781v67.761719c0 6.933593-5.621094 12.550781-12.550782 12.550781zm0 0" fill="url(#k)"/><path d="m322.257812 360.410156c-6.929687 0-12.546874-5.621094-12.546874-12.550781v-79.308594c0-6.929687 5.617187-12.550781 12.546874-12.550781 6.929688 0 12.550782 5.621094 12.550782 12.550781v79.308594c0 6.929687-5.621094 12.550781-12.550782 12.550781zm0 0" fill="url(#l)"/><path d="m388.519531 512c-6.929687 0-12.550781-5.617188-12.550781-12.546875v-92.363281c0-6.929688 5.621094-12.546875 12.550781-12.546875 6.929688 0 12.546875 5.617187 12.546875 12.546875v92.363281c0 6.929687-5.617187 12.546875-12.546875 12.546875zm0 0" fill="url(#m)"/><path d="m388.519531 387.515625c-6.929687 0-12.550781-5.621094-12.550781-12.550781v-51.703125c0-6.929688 5.621094-12.546875 12.550781-12.546875 6.929688 0 12.546875 5.617187 12.546875 12.546875v51.703125c0 6.929687-5.617187 12.550781-12.546875 12.550781zm0 0" fill="url(#n)"/><path d="m450.878906 214.636719c-83.460937-.203125-151.695312-68.4375-151.902344-151.898438-.050781-21.753906 4.464844-42.441406 12.632813-61.175781.457031-1.050781-.835937-2.089844-2.488281-1.265625-59.589844 29.804687-97.042969 97.382813-80.5625 171.386719 11.289062 50.691406 62.683594 102.082031 113.375 113.375 72.652344 16.179687 139.199218-19.582032 169.722656-77.324219 1.257812-2.386719-1.160156-5.03125-3.664062-4.023437-17.640626 7.089843-36.917969 10.976562-57.113282 10.925781zm0 0" fill="url(#o)"/><path d="m326.363281 196.253906c-8.738281-9.265625-21.117187-15.054687-34.855469-15.054687-9.734374 0-18.777343 2.910156-26.335937 7.894531-.121094-.117188-11.628906-11.628906-12.300781-12.285156-7.660156-7.898438-16.730469-14.414063-26.804688-19.152344.617188 4.644531 1.445313 9.320312 2.492188 14.027344 11.292968 50.691406 62.683594 102.085937 113.375 113.375 3.070312.683594 6.128906 1.265625 9.171875 1.765625 3.171875.054687 6.347656.460937 9.46875 1.273437 18.726562 1.949219 36.851562.511719 53.84375-3.789062zm0 0" fill="url(#p)"/><path d="m339.429688 240.484375c-.457032 0-.914063.011719-1.371094.019531.890625-3.648437 1.371094-7.457031 1.371094-11.382812 0-26.464844-21.457032-47.921875-47.921876-47.921875-10.414062 0-20.039062 3.332031-27.898437 8.972656-16.367187-24.800781-44.476563-41.171875-76.410156-41.171875-50.527344 0-91.484375 40.960938-91.484375 91.488281 0 .308594.007812.617188.011718.925781-32.101562 5.339844-56.574218 33.230469-56.574218 66.847657 0 37.429687 30.34375 67.773437 67.773437 67.773437h232.503907c37.429687 0 67.773437-30.34375 67.773437-67.773437 0-37.433594-30.34375-67.777344-67.773437-67.777344zm0 0" fill="url(#q)"/><path d="m407.203125 308.261719c0 37.429687-30.34375 67.773437-67.773437 67.773437-37.429688 0-67.773438-30.34375-67.773438-67.773437 0-37.433594 30.34375-67.777344 67.773438-67.777344 37.429687 0 67.773437 30.34375 67.773437 67.777344zm0 0" fill="url(#s)"/><path d="m339.429688 229.121094c0 26.46875-21.457032 47.925781-47.921876 47.925781-26.46875 0-47.925781-21.457031-47.925781-47.925781 0-26.464844 21.457031-47.921875 47.925781-47.921875 26.464844 0 47.921876 21.457031 47.921876 47.921875zm0 0" fill="url(#t)"/><path d="m278.683594 240.484375c0 50.527344-40.960938 91.488281-91.484375 91.488281-50.527344 0-91.488281-40.960937-91.488281-91.488281 0-50.523437 40.960937-91.484375 91.488281-91.484375 50.523437 0 91.484375 40.960938 91.484375 91.484375zm0 0" fill="url(#u)"/><path d="m174.699219 308.261719c0 37.429687-30.339844 67.773437-67.773438 67.773437-37.429687 0-67.773437-30.34375-67.773437-67.773437 0-37.433594 30.34375-67.777344 67.773437-67.777344 37.433594 0 67.773438 30.34375 67.773438 67.777344zm0 0" fill="url(#v)"/><path d="m39.78125 317.488281c4.503906 33.066407 32.847656 58.546875 67.144531 58.546875h232.503907c34.296874 0 62.640624-25.480468 67.144531-58.546875zm0 0" fill="url(#w)"/><path d="m231.863281 376.035156-3.535156-3.539062c-5.019531-5.421875-12.195313-8.820313-20.167969-8.820313-.09375 0-.1875.007813-.277344.011719-.054687-.054688-.109374-.109375-.164062-.160156l-18.140625-18.136719c-7.886719-8.265625-19.003906-13.417969-31.328125-13.417969-23.933594 0-43.332031 19.402344-43.332031 43.332032 0 .117187.007812.234374.007812.355468-.515625.105469-1.023437.234375-1.527343.375zm0 0" fill="url(#x)"/><path d="m389.984375 353.382812c-12.398437 13.894532-30.449219 22.648438-50.558594 22.648438h-81.175781l-34.414062-34.597656c-1.066407-.5625-1.867188-1.535156-2.21875-2.707032-.121094-.402343-.183594-.835937-.183594-1.277343 0-2.128907 1.46875-3.90625 3.445312-4.375-.109375-.160157-.210937-.320313-.300781-.480469l-7.53125-7.53125c-.378906-.199219-.75-.472656-1.074219-.804688-1.765625-1.753906-1.765625-4.605468 0-6.375l1.347656-1.34375c-.050781-.03125-.101562-.0625-.152343-.089843-.058594-.050781-.128907-.101563-.1875-.152344-.082031-.058594-.164063-.121094-.230469-.179687-.070312-.0625-.132812-.109376-.191406-.171876-.070313-.070312-.140625-.128906-.199219-.199218-.0625-.0625-.121094-.132813-.183594-.191406-.058593-.070313-.121093-.140626-.179687-.222657-.0625-.066406-.109375-.140625-.160156-.210937-.050782-.066406-.109376-.148438-.160157-.21875-.03125-.050782-.050781-.089844-.082031-.140625-.007812-.011719-.03125-.023438-.050781-.03125-.078125-.050781-.167969-.109375-.25-.171875-.070313-.039063-.128907-.089844-.199219-.140625-.070312-.058594-.152344-.117188-.230469-.191407-.0625-.046874-.121093-.109374-.183593-.167968-.070313-.0625-.140626-.132813-.210938-.203125-.058594-.058594-.109375-.121094-.167969-.1875-.0625-.070313-.132812-.140625-.183593-.210938-.058594-.070312-.109376-.140625-.160157-.222656-.058593-.070313-.109375-.140625-.160156-.222656-.050781-.078125-.101563-.160157-.148437-.238281-.042969-.070313-.09375-.152344-.132813-.230469-.039063-.082031-.078125-.171875-.128906-.261719-.03125-.078125-.070313-.148438-.101563-.230469-.039062-.101562-.070312-.191406-.109375-.292969-.03125-.078124-.058593-.148437-.082031-.226562-.027344-.113281-.058594-.214844-.078125-.324219-.019531-.070312-.042969-.148437-.0625-.21875-.019531-.132812-.039063-.253906-.050781-.371093-.007813-.070313-.019532-.132813-.027344-.203126-.023438-.191406-.03125-.378906-.03125-.570312 0-.203125.011719-.390625.03125-.582031.007812-.070313.019531-.132813.027344-.191407.011718-.128906.03125-.25.050781-.371093.019531-.078125.042969-.148438.0625-.230469.019531-.101562.050781-.210938.078125-.320312.023438-.082032.050781-.152344.082031-.230469.039063-.101563.070313-.191407.109375-.292969.03125-.078125.070313-.148438.101563-.230469.050781-.089843.089843-.179687.128906-.261719.039063-.078124.089844-.160156.132813-.230468.050781-.078125.101562-.160156.148437-.242188.050781-.078125.101563-.148437.160156-.21875.050781-.070312.101563-.152344.160157-.222656.050781-.070312.121093-.140625.183593-.210938.058594-.058593.109375-.128906.167969-.1875.070312-.070312.140625-.140624.210938-.203124.0625-.058594.121093-.121094.183593-.171876.078125-.058593.160157-.128906.230469-.1875.070312-.050781.128906-.09375.199219-.140624.082031-.0625.171875-.121094.25-.171876.070312-.039062.132812-.082031.203125-.121093.089844-.050781.179687-.101563.277344-.148438.070312-.042969.132812-.070312.203124-.101562.101563-.050781.199219-.089844.300782-.132813.070312-.019531.140625-.046875.210937-.070312.101563-.039063.210938-.066406.3125-.097656.078125-.019532.148438-.042969.21875-.0625.113281-.027344.222657-.050782.332031-.070313.070313-.011719.152344-.019531.222657-.027344.121093-.023437.230469-.042969.339843-.042969.03125-.007812.050782-.007812.070313-.007812l-2.257813-2.269531c-1.765624-1.769531-1.765624-4.621094 0-6.375 1.757813-1.769531 4.609376-1.769531 6.375 0l8.625 8.621093h8.480469l-6.484375-6.804687c-.078125-.191406-.140625-.390625-.179687-.601563-.050781-.210937-.070313-.433593-.070313-.652343 0-.222657.019532-.433594.058594-.632813-.589844-.410156-1.074219-.964844-1.414062-1.609375l-7.53125-7.527343c-1.421876-.753907-2.398438-2.25-2.398438-3.984376 0-2.492187 2.019531-4.507812 4.507812-4.507812h5l-.613281-.613281c-1.757812-1.757813-1.757812-4.617188 0-6.375.882813-.882813 2.039063-1.324219 3.195313-1.324219.859375 0 1.726562.25 2.476562.742188.253906.171874.480469.359374.703125.582031l.625.613281v-5.011719c0-2.488281 2.015625-4.507812 4.503907-4.507812 1.730468 0 3.222656.976562 3.988281 2.410156l7.519531 7.53125c.640625.328125 1.191406.820313 1.59375 1.402344.210938-.039063.433594-.058594.652344-.058594.222656 0 .445312.019531.652344.058594.210937.050781.414062.109375.601562.191406.34375.140625.644531.339844.90625.582031l4.738281 5.058594c.339844.152344.640625.34375.914063.582031.078125.082031.167968.171875.25.261719v-8.472656l-1.105469-1.105469-1.886719-1.875-1.878906-1.886719-3.765625-3.765625c-1.753906-1.757812-1.753906-4.609375 0-6.375 1.757813-1.757812 4.621094-1.757812 6.378906 0l2.269531 2.269531c0-.023437.007813-.050781.007813-.070312.011719-.121094.023437-.230469.039063-.34375.011718-.078125.023437-.148438.03125-.21875.023437-.109375.050781-.222656.070312-.332031.019531-.070313.039062-.148438.0625-.222657.027344-.109374.058594-.207031.097656-.308593.019532-.070313.050782-.140625.082032-.210938.039062-.101562.078124-.203125.121093-.300781.027344-.070312.070313-.140625.101563-.210938.046875-.09375.097656-.183593.148437-.273437.039063-.070313.078125-.140625.121094-.199219.058594-.09375.109375-.171875.167969-.261718.054687-.0625.101562-.132813.152344-.191407.058593-.078125.121093-.148437.179687-.230469.0625-.058593.109375-.121093.171875-.179687.070312-.070313.128906-.140625.199219-.210937.0625-.0625.132812-.121094.191406-.171876.070313-.070312.140625-.128906.222656-.191406.070313-.050781.140625-.109375.210938-.160156.070312-.050781.148437-.109375.21875-.160156.082031-.050782.160156-.089844.242187-.140625.078125-.050781.148438-.089844.230469-.128907.089844-.050781.183594-.09375.261719-.132812.082031-.039062.160156-.070312.238281-.109375.09375-.039063.191406-.070313.28125-.101563.082031-.027343.164063-.058593.242187-.078124.101563-.03125.210938-.0625.320313-.082032.070313-.019531.140625-.039062.222656-.058594.121094-.019531.25-.039062.371094-.0625.058594 0 .128906-.019531.191406-.019531.1875-.019531.378907-.03125.582031-.03125.191407 0 .390626.011719.582032.03125.058594 0 .128906.019531.191406.019531.121094.023438.25.042969.371094.0625.078125.019532.148437.039063.21875.058594.113281.019532.222656.050782.324218.082032.078126.019531.160157.050781.238282.078124.089844.03125.191406.058594.28125.101563.082031.039063.160156.070313.242187.109375.078125.039062.167969.082031.261719.132812.078125.039063.148438.089844.230469.128907.078125.050781.160156.089843.230469.140625.078124.050781.148437.109375.230468.160156.066406.050781.140625.109375.210938.160156.078125.0625.148437.121094.21875.191406.0625.050782.121094.109376.191406.171876.070312.070312.128906.140624.199219.210937.050781.058594.109375.121094.171875.179687.058594.082032.121094.152344.179687.230469.050781.0625.101563.132813.152344.191407.058594.089843.109375.167968.167969.261718.011718.007813.023437.027344.03125.050782.039062.019531.089844.046874.128906.078124.082031.050782.152344.101563.222656.160157.070313.050781.152344.101562.222656.160156l.210938.183594c.058594.058593.128906.109375.1875.167969.070312.070312.144531.140624.203125.210937.058594.0625.121094.121094.167969.183594.0625.078125.132812.160156.191406.238281.050781.0625.09375.121094.140625.191406.03125.050782.070313.089844.101563.140625l1.347656-1.34375c1.757812-1.757812 4.605468-1.757812 6.375 0 .320312.328125.589844.691407.792968 1.082031l7.527344 7.53125c.171875.089844.332032.1875.484375.300782.480469-1.980469 2.257813-3.453125 4.375-3.453125 1.738281 0 3.234375.972656 3.984375 2.410156 0 0 56.460938 56.53125 88.949219 89.148437zm0 0" fill="url(#y)"/><path d="m269.445312 366.4375c-3.199218 0-5.796874-2.597656-5.796874-5.796875v-38.277344c0-3.203125 2.597656-5.796875 5.796874-5.796875 3.203126 0 5.796876 2.59375 5.796876 5.796875v38.277344c0 3.199219-2.59375 5.796875-5.796876 5.796875zm0 0" fill="url(#A)"/><path d="m269.445312 303.105469c-3.199218 0-5.796874-2.59375-5.796874-5.796875v-38.277344c0-3.199219 2.597656-5.796875 5.796874-5.796875 3.203126 0 5.796876 2.597656 5.796876 5.796875v38.277344c0 3.203125-2.59375 5.796875-5.796876 5.796875zm0 0" fill="url(#B)"/><path d="m256.921875 315.632812h-38.28125c-3.199219 0-5.792969-2.597656-5.792969-5.796874 0-3.203126 2.59375-5.796876 5.792969-5.796876h38.28125c3.199219 0 5.792969 2.59375 5.792969 5.796876 0 3.203124-2.59375 5.796874-5.792969 5.796874zm0 0" fill="url(#C)"/><path d="m320.25 315.632812h-38.277344c-3.199218 0-5.796875-2.597656-5.796875-5.796874 0-3.203126 2.597657-5.796876 5.796875-5.796876h38.277344c3.203125 0 5.796875 2.59375 5.796875 5.796876 0 3.203124-2.59375 5.796874-5.796875 5.796874zm0 0" fill="url(#D)"/><path d="m233.523438 350.265625c-1.152344 0-2.308594-.4375-3.1875-1.320313-1.761719-1.761718-1.761719-4.617187 0-6.375l27.066406-27.066406c1.757812-1.761718 4.613281-1.761718 6.375 0 1.761718 1.761719 1.761718 4.617188 0 6.378906l-27.066406 27.0625c-.878907.882813-2.03125 1.320313-3.1875 1.320313zm0 0" fill="url(#E)"/><path d="m278.304688 305.484375c-1.152344 0-2.308594-.4375-3.1875-1.320313-1.761719-1.757812-1.761719-4.613281 0-6.375l27.0625-27.066406c1.761718-1.757812 4.617187-1.757812 6.378906 0 1.761718 1.761719 1.761718 4.617188 0 6.378906l-27.066406 27.0625c-.878907.882813-2.035157 1.320313-3.1875 1.320313zm0 0" fill="url(#F)"/><path d="m260.589844 305.484375c-1.152344 0-2.308594-.4375-3.1875-1.320313l-27.066406-27.0625c-1.761719-1.761718-1.761719-4.617187 0-6.378906 1.761718-1.757812 4.613281-1.757812 6.375 0l27.066406 27.066406c1.761718 1.761719 1.761718 4.617188 0 6.375-.882813.882813-2.035156 1.320313-3.1875 1.320313zm0 0" fill="url(#G)"/><path d="m305.371094 350.265625c-1.15625 0-2.308594-.4375-3.191406-1.320313l-27.0625-27.0625c-1.761719-1.761718-1.761719-4.617187 0-6.378906 1.757812-1.761718 4.613281-1.761718 6.375 0l27.066406 27.066406c1.761718 1.757813 1.761718 4.613282 0 6.375-.882813.882813-2.035156 1.320313-3.1875 1.320313zm0 0" fill="url(#H)"/><path d="m275.246094 322.359375v12.128906l-11.597656-11.59375v-.535156c0-3.199219 2.597656-5.792969 5.796874-5.792969 3.203126 0 5.800782 2.59375 5.800782 5.792969zm0 0" fill="url(#J)"/><path d="m263.648438 336.796875h11.597656v12.855469l-11.59375-11.59375h-.003906zm0 0" fill="url(#K)"/><path d="m282.449219 304.058594 11.574219 11.574218h-12.050782c-3.203125 0-5.796875-2.597656-5.796875-5.796874 0-3.203126 2.59375-5.796876 5.796875-5.796876h.542969zm0 0" fill="url(#L)"/><path d="m309.273438 315.632812h-13.410157v-11.59375h1.816407zm0 0" fill="url(#M)"/><path d="m305.371094 350.265625c-1.15625 0-2.308594-.4375-3.191406-1.320313l-27.0625-27.0625c-1.761719-1.761718-1.761719-4.617187 0-6.378906 1.757812-1.761718 4.613281-1.761718 6.375 0l27.066406 27.066406c1.761718 1.757813 1.761718 4.613282 0 6.375-.882813.882813-2.035156 1.320313-3.1875 1.320313zm0 0" fill="url(#N)"/><path d="m275.242188 282.960938v-23.929688c0-.136719-.003907-.269531-.015626-.402344l-5.78125 5.78125-5.78125-5.78125c-.007812.132813-.015624.265625-.015624.402344v12.335938zm0 0" fill="url(#O)"/><path d="m307.941406 277.714844-10.878906 10.882812-3.117188-3.113281c-.859374-.820313-1.398437-1.976563-1.398437-3.257813v-1.867187l9.019531-9.019531zm0 0" fill="url(#P)"/><path d="m277.496094 256.363281-8.050782 8.046875-8.046874-8.046875c-1.761719-1.761719-4.617188-1.761719-6.375 0-1.761719 1.761719-1.761719 4.613281 0 6.375l11.234374 11.238281c.878907.878907 2.035157 1.320313 3.1875 1.320313 1.152344 0 2.308594-.441406 3.1875-1.320313l11.238282-11.238281c1.761718-1.761719 1.761718-4.613281 0-6.375-1.757813-1.761719-4.613282-1.761719-6.375 0zm0 0" fill="url(#Q)"/><path d="m272.632812 345.695312c-1.757812-1.761718-4.613281-1.761718-6.375 0l-11.234374 11.234376c-1.761719 1.761718-1.761719 4.617187 0 6.378906 1.757812 1.761718 4.613281 1.761718 6.375 0l8.046874-8.050782 8.050782 8.050782c.878906.878906 2.03125 1.320312 3.1875 1.320312 1.152344 0 2.308594-.441406 3.1875-1.320312 1.761718-1.761719 1.761718-4.617188 0-6.378906zm0 0" fill="url(#R)"/><path d="m314.871094 309.835938 8.046875-8.050782c1.761719-1.761718 1.761719-4.613281 0-6.375-1.757813-1.761718-4.613281-1.761718-6.375 0l-11.234375 11.234375c-1.761719 1.761719-1.761719 4.617188 0 6.378907l11.234375 11.234374c.882812.882813 2.035156 1.320313 3.1875 1.320313 1.15625 0 2.308593-.4375 3.1875-1.320313 1.761719-1.757812 1.761719-4.613281 0-6.375zm0 0" fill="url(#S)"/><path d="m233.585938 313.023438c1.761718-1.761719 1.761718-4.617188 0-6.375l-11.234376-11.238282c-1.761718-1.761718-4.617187-1.761718-6.375 0-1.761718 1.761719-1.761718 4.617188 0 6.375l8.046876 8.050782-8.046876 8.050781c-1.761718 1.757812-1.761718 4.613281 0 6.375.878907.882812 2.03125 1.320312 3.1875 1.320312 1.152344 0 2.308594-.4375 3.1875-1.320312zm0 0" fill="url(#T)"/><path d="m297.058594 286.734375h15.890625c2.492187 0 4.507812-2.019531 4.507812-4.511719 0-2.488281-2.019531-4.507812-4.507812-4.507812h-11.382813v-11.382813c0-2.488281-2.019531-4.507812-4.507812-4.507812-2.492188 0-4.507813 2.019531-4.507813 4.507812v15.890625c-.003906 2.492188 2.015625 4.511719 4.507813 4.511719zm0 0" fill="url(#U)"/><path d="m241.835938 332.9375h-15.890626c-2.488281 0-4.507812 2.019531-4.507812 4.507812 0 2.492188 2.019531 4.507813 4.507812 4.507813h11.382813v11.382813c0 2.492187 2.019531 4.507812 4.507813 4.507812 2.488281 0 4.507812-2.015625 4.507812-4.507812v-15.890626c0-2.488281-2.019531-4.507812-4.507812-4.507812zm0 0" fill="url(#V)"/><path d="m312.949219 332.9375h-15.890625c-2.492188 0-4.507813 2.019531-4.507813 4.507812v15.890626c0 2.492187 2.015625 4.507812 4.507813 4.507812 2.488281 0 4.507812-2.015625 4.507812-4.507812v-11.382813h11.382813c2.492187 0 4.507812-2.015625 4.507812-4.507813 0-2.488281-2.019531-4.507812-4.507812-4.507812zm0 0" fill="url(#W)"/><path d="m241.835938 261.824219c-2.488282 0-4.507813 2.019531-4.507813 4.507812v11.382813h-11.382813c-2.488281 0-4.507812 2.019531-4.507812 4.507812 0 2.492188 2.019531 4.511719 4.507812 4.511719h15.890626c2.488281 0 4.507812-2.019531 4.507812-4.511719v-15.890625c0-2.488281-2.019531-4.507812-4.507812-4.507812zm0 0" fill="url(#X)"/><path d="m275.246094 281.605469v15.703125c0 .125-.007813.242187-.011719.363281-.058594.886719-.308594 1.714844-.714844 2.445313l-10.871093-10.871094v-7.640625zm0 0" fill="url(#Y)"/><path d="m259.636719 314.960938c-.8125.429687-1.734375.671874-2.714844.671874h-15.707031v-11.59375h7.5zm0 0" fill="url(#Z)"/><path d="m292.597656 293.0625-5.335937 5.332031-5.769531 5.773438c-.882813.878906-2.035157 1.320312-3.1875 1.320312-1.152344 0-2.308594-.441406-3.191407-1.320312-.835937-.839844-1.277343-1.925781-1.316406-3.027344-.042969-1.210937.398437-2.429687 1.316406-3.351563l.121094-.117187 5.652344-5.652344 5.332031-5.335937zm0 0" fill="url(#aa)"/><path d="m265.097656 301.140625c-.039062 1.101563-.484375 2.1875-1.320312 3.027344-.835938.835937-1.925782 1.277343-3.027344 1.316406-.054688.003906-.109375.003906-.160156.003906-1.152344 0-2.308594-.441406-3.1875-1.320312l-11.105469-11.105469 6.375-6.378906 5.332031 5.335937 5.65625 5.652344.117188.117187c.921875.921876 1.363281 2.140626 1.320312 3.351563zm0 0" fill="url(#ab)"/><path d="m269.445312 324.082031c-3.804687 0-7.382812-1.480469-10.074218-4.171875s-4.171875-6.269531-4.171875-10.074218c0-3.808594 1.480469-7.382813 4.171875-10.078126 2.691406-2.6875 6.269531-4.171874 10.074218-4.171874 3.808594 0 7.386719 1.484374 10.078126 4.171874 2.691406 2.695313 4.171874 6.269532 4.171874 10.078126 0 3.804687-1.484374 7.382812-4.171874 10.074218-2.691407 2.691406-6.269532 4.171875-10.078126 4.171875zm0-20.953125c-1.789062 0-3.472656.695313-4.742187 1.964844-1.265625 1.265625-1.960937 2.949219-1.960937 4.742188 0 1.789062.695312 3.476562 1.960937 4.742187 1.269531 1.265625 2.953125 1.964844 4.742187 1.964844 1.792969 0 3.476563-.699219 4.742188-1.964844 1.269531-1.265625 1.964844-2.953125 1.964844-4.742187 0-1.792969-.695313-3.476563-1.964844-4.742188-1.265625-1.265625-2.949219-1.964844-4.742188-1.964844zm0 0" fill="url(#ad)"/><path d="m279.578125 338.066406h-20.265625c-1 0-1.957031-.398437-2.664062-1.105468l-14.328126-14.328126c-.710937-.707031-1.105468-1.664062-1.105468-2.664062v-20.265625c0-1 .394531-1.960937 1.105468-2.667969l14.328126-14.324218c.707031-.710938 1.664062-1.105469 2.664062-1.105469h20.265625c1 0 1.960937.394531 2.664063 1.105469l14.332031 14.324218c.707031.707032 1.105469 1.667969 1.105469 2.667969v20.265625c0 1-.398438 1.957031-1.105469 2.664062l-14.332031 14.328126c-.703126.707031-1.664063 1.105468-2.664063 1.105468zm-18.703125-7.542968h17.140625l12.117187-12.117188v-17.140625l-12.117187-12.121094h-17.140625l-12.117188 12.121094v17.140625zm0 0" fill="url(#ae)"/><path d="m258.820312 276.328125c0 1.78125-1.445312 3.226563-3.226562 3.226563s-3.222656-1.445313-3.222656-3.226563 1.441406-3.222656 3.222656-3.222656 3.226562 1.441406 3.226562 3.222656zm0 0" fill="url(#af)"/><path d="m286.539062 276.328125c0 1.78125-1.441406 3.226563-3.222656 3.226563s-3.226562-1.445313-3.226562-3.226563 1.445312-3.222656 3.226562-3.222656 3.222656 1.441406 3.222656 3.222656zm0 0" fill="url(#ag)"/><path d="m258.820312 343.34375c0 1.78125-1.445312 3.222656-3.226562 3.222656s-3.222656-1.441406-3.222656-3.222656c0-1.785156 1.441406-3.226562 3.222656-3.226562s3.226562 1.441406 3.226562 3.226562zm0 0" fill="url(#ah)"/><path d="m286.539062 343.34375c0 1.777344-1.441406 3.222656-3.222656 3.222656s-3.226562-1.445312-3.226562-3.222656c0-1.78125 1.445312-3.226562 3.226562-3.226562s3.222656 1.445312 3.222656 3.226562zm0 0" fill="url(#ai)"/><path d="m306.1875 295.972656c0 1.78125-1.445312 3.226563-3.226562 3.226563s-3.226563-1.445313-3.226563-3.226563 1.445313-3.222656 3.226563-3.222656 3.226562 1.441406 3.226562 3.222656zm0 0" fill="url(#aj)"/><path d="m306.1875 323.695312c0 1.78125-1.445312 3.226563-3.226562 3.226563s-3.222657-1.445313-3.222657-3.226563 1.441407-3.222656 3.222657-3.222656 3.226562 1.441406 3.226562 3.222656zm0 0" fill="url(#ak)"/><path d="m239.175781 295.972656c0 1.78125-1.445312 3.226563-3.226562 3.226563s-3.226563-1.445313-3.226563-3.226563 1.445313-3.222656 3.226563-3.222656 3.226562 1.441406 3.226562 3.222656zm0 0" fill="url(#al)"/><path d="m239.171875 323.695312c0 1.78125-1.441406 3.226563-3.222656 3.226563s-3.226563-1.445313-3.226563-3.226563 1.445313-3.222656 3.226563-3.222656 3.222656 1.441406 3.222656 3.222656zm0 0" fill="url(#am)"/><path d="m326.046875 309.835938c0-3.066407-2.382813-5.578126-5.394531-5.78125l2.265625-2.269532c1.761719-1.761718 1.761719-4.613281 0-6.375-1.761719-1.761718-4.613281-1.761718-6.375 0l-8.628907 8.628906h-10.234374v-4.335937c0-1-.398438-1.960937-1.105469-2.667969l-3.976563-3.976562 6.324219-6.324219h14.027344c2.488281 0 4.507812-2.019531 4.507812-4.507813 0-2.492187-2.019531-4.507812-4.507812-4.507812h-5.007813l.613282-.617188c1.761718-1.761718 1.761718-4.617187 0-6.375-1.761719-1.761718-4.613282-1.761718-6.375 0l-.617188.613282v-5.003906c0-2.492188-2.015625-4.511719-4.507812-4.511719-2.488282 0-4.507813 2.019531-4.507813 4.511719v14.023437l-6.328125 6.328125-3.976562-3.976562c-.707032-.707032-1.664063-1.105469-2.664063-1.105469h-4.335937v-10.238281l8.628906-8.628907c1.761718-1.757812 1.761718-4.613281 0-6.375-1.761719-1.761719-4.617188-1.761719-6.375 0l-2.269532 2.269531c-.207031-3.015624-2.714843-5.398437-5.78125-5.398437-3.066406 0-5.578124 2.382813-5.78125 5.398437l-2.269531-2.269531c-1.761719-1.761719-4.613281-1.761719-6.375 0s-1.761719 4.617188 0 6.375l8.628907 8.628907v10.238281h-4.335938c-1 0-1.957031.398437-2.664062 1.105469l-3.976563 3.976562-6.328125-6.328125v-14.023437c0-2.492188-2.019531-4.511719-4.507812-4.511719-2.492188 0-4.507813 2.019531-4.507813 4.511719v5.003906l-.617187-.613282c-1.761719-1.761718-4.617188-1.761718-6.375 0-1.761719 1.757813-1.761719 4.613282 0 6.375l.613281.617188h-5.007813c-2.488281 0-4.507812 2.015625-4.507812 4.507812 0 2.488282 2.019531 4.507813 4.507812 4.507813h14.027344l6.324219 6.328125-3.972657 3.976562c-.710937.707032-1.105468 1.664063-1.105468 2.664063v4.335937h-10.234375l-8.628907-8.628906c-1.761718-1.761718-4.617187-1.761718-6.375 0-1.761718 1.761719-1.761718 4.617188 0 6.375l2.265626 2.269532c-3.015626.207031-5.394532 2.714843-5.394532 5.78125 0 3.066406 2.378906 5.574218 5.394532 5.78125l-2.265626 2.269531c-1.761718 1.757812-1.761718 4.613281 0 6.375.878907.882812 2.03125 1.320312 3.1875 1.320312 1.152344 0 2.304688-.4375 3.1875-1.320312l8.628907-8.628907h10.234375v4.335938c0 1 .398437 1.957031 1.105468 2.667969l3.976563 3.972656-6.328125 6.328125h-14.023438c-2.492187 0-4.511718 2.019531-4.511718 4.507812 0 2.492188 2.019531 4.511719 4.511718 4.511719h5.003907l-.613281.613281c-1.761719 1.761719-1.761719 4.617188 0 6.375.878906.882813 2.03125 1.320313 3.1875 1.320313s2.308593-.4375 3.1875-1.320313l.617187-.613281v5.007813c0 2.488281 2.019531 4.507812 4.507813 4.507812 2.488281 0 4.507812-2.019531 4.507812-4.507812v-14.027344l6.328125-6.324219 3.976563 3.976563c.707031.703125 1.664062 1.101562 2.664062 1.101562h4.335938v10.238282l-8.628907 8.628906c-1.761719 1.757812-1.761719 4.613281 0 6.375 1.761719 1.761718 4.617188 1.761718 6.375 0l2.269531-2.265625c.207032 3.011719 2.714844 5.394531 5.78125 5.394531 3.066407 0 5.578126-2.382812 5.78125-5.394531l2.269532 2.265625c.878906.878906 2.03125 1.320312 3.1875 1.320312 1.152344 0 2.308594-.441406 3.1875-1.320312 1.761718-1.761719 1.761718-4.617188 0-6.375l-8.625-8.628906v-10.238282h4.332031c1 0 1.960937-.398437 2.664063-1.101562l3.976562-3.976563 6.328125 6.324219v14.027344c0 2.488281 2.019531 4.507812 4.511719 4.507812 2.488281 0 4.507812-2.019531 4.507812-4.507812v-5.007813l.613282.613281c.878906.882813 2.035156 1.320313 3.1875 1.320313 1.15625 0 2.308593-.4375 3.191406-1.320313 1.757812-1.757812 1.757812-4.613281 0-6.375l-.617188-.613281h5.007813c2.488281 0 4.507812-2.019531 4.507812-4.511719 0-2.488281-2.019531-4.507812-4.507812-4.507812h-14.023438l-6.328125-6.328125 3.976563-3.972656c.707031-.710938 1.105469-1.667969 1.105469-2.667969v-4.335938h10.234374l8.628907 8.628907c.878906.882812 2.03125 1.320312 3.1875 1.320312 1.152343 0 2.308593-.4375 3.1875-1.320312 1.761719-1.761719 1.761719-4.617188 0-6.375l-2.265625-2.269531c3.011718-.207032 5.394531-2.714844 5.394531-5.78125zm-65.171875-20.691407h2.773438v7.671875c-.191407.085938-.382813.175782-.574219.273438l-1.449219-1.449219-3.617188-3.621094zm-12.117188 12.121094 2.871094-2.871094 5.070313 5.070313c-.09375.1875-.1875.378906-.273438.574218h-7.667969zm2.871094 20.011719-2.871094-2.871094v-2.773438h7.671876c.085937.195313.175781.386719.269531.574219zm12.019532 9.246094h-2.773438l-2.871094-2.871094 5.070313-5.070313c.191406.097657.382812.1875.574219.273438zm10.539062-15.945313c-1.265625 1.265625-2.949219 1.964844-4.742188 1.964844-1.789062 0-3.476562-.699219-4.742187-1.964844s-1.964844-2.953125-1.964844-4.742187c0-1.792969.699219-3.476563 1.964844-4.742188 1.265625-1.269531 2.953125-1.964844 4.742187-1.964844 1.792969 0 3.476563.695313 4.742188 1.964844 1.269531 1.265625 1.964844 2.949219 1.964844 4.742188 0 1.789062-.695313 3.476562-1.964844 4.742187zm3.828125 15.945313h-2.769531v-7.667969c.191406-.089844.382812-.179688.570312-.273438l5.070313 5.070313zm-.746094-34.886719-1.449219 1.449219c-.191406-.09375-.382812-.183594-.574218-.273438v-7.667969h2.769531l2.871094 2.871094zm12.867188 22.769531-2.871094 2.871094-5.070313-5.070313c.09375-.191406.183594-.382812.269532-.574219h7.671875zm0-14.367188h-7.625.003906-.050781c-.085938-.195312-.175782-.386718-.269532-.574218l1.335938-1.339844 3.730469-3.730469 2.871093 2.871094v2.773437zm0 0" fill="url(#ao)"/><path d="m258.820312 276.328125c0 1.78125-1.445312 3.226563-3.226562 3.226563s-3.222656-1.445313-3.222656-3.226563 1.441406-3.222656 3.222656-3.222656 3.226562 1.441406 3.226562 3.222656zm0 0" fill="url(#ap)"/><path d="m286.539062 276.328125c0 1.78125-1.441406 3.226563-3.222656 3.226563s-3.226562-1.445313-3.226562-3.226563 1.445312-3.222656 3.226562-3.222656 3.222656 1.441406 3.222656 3.222656zm0 0" fill="url(#aq)"/><path d="m258.820312 343.34375c0 1.78125-1.445312 3.222656-3.226562 3.222656s-3.222656-1.441406-3.222656-3.222656c0-1.785156 1.441406-3.226562 3.222656-3.226562s3.226562 1.441406 3.226562 3.226562zm0 0" fill="url(#ar)"/><path d="m286.539062 343.34375c0 1.777344-1.441406 3.222656-3.222656 3.222656s-3.226562-1.445312-3.226562-3.222656c0-1.78125 1.445312-3.226562 3.226562-3.226562s3.222656 1.445312 3.222656 3.226562zm0 0" fill="url(#as)"/><path d="m306.1875 295.972656c0 1.78125-1.445312 3.226563-3.226562 3.226563s-3.226563-1.445313-3.226563-3.226563 1.445313-3.222656 3.226563-3.222656 3.226562 1.441406 3.226562 3.222656zm0 0" fill="url(#at)"/><path d="m306.1875 323.695312c0 1.78125-1.445312 3.226563-3.226562 3.226563s-3.222657-1.445313-3.222657-3.226563 1.441407-3.222656 3.222657-3.222656 3.226562 1.441406 3.226562 3.222656zm0 0" fill="url(#au)"/><path d="m239.175781 295.972656c0 1.78125-1.445312 3.226563-3.226562 3.226563s-3.226563-1.445313-3.226563-3.226563 1.445313-3.222656 3.226563-3.222656 3.226562 1.441406 3.226562 3.222656zm0 0" fill="url(#av)"/><path d="m239.171875 323.695312c0 1.78125-1.441406 3.226563-3.222656 3.226563s-3.226563-1.445313-3.226563-3.226563 1.445313-3.222656 3.226563-3.222656 3.222656 1.441406 3.222656 3.222656zm0 0" fill="url(#aw)"/><path d="m129.230469 510.441406c-5.210938 0-9.433594-4.222656-9.433594-9.429687v-62.277344c0-5.207031 4.222656-9.429687 9.433594-9.429687 5.207031 0 9.429687 4.222656 9.429687 9.429687v62.277344c0 5.207031-4.222656 9.429687-9.429687 9.429687zm0 0" fill="url(#ax)"/><path d="m129.230469 407.40625c-5.210938 0-9.433594-4.222656-9.433594-9.429688v-62.273437c0-5.207031 4.222656-9.433594 9.433594-9.433594 5.207031 0 9.429687 4.222657 9.429687 9.433594v62.273437c0 5.207032-4.222656 9.429688-9.429687 9.429688zm0 0" fill="url(#ay)"/><path d="m108.851562 427.785156h-62.273437c-5.210937 0-9.433594-4.222656-9.433594-9.429687s4.222657-9.429688 9.433594-9.429688h62.273437c5.207032 0 9.429688 4.222657 9.429688 9.429688s-4.222656 9.429687-9.429688 9.429687zm0 0" fill="url(#az)"/><path d="m211.882812 427.785156h-62.273437c-5.207031 0-9.429687-4.222656-9.429687-9.429687s4.222656-9.429688 9.429687-9.429688h62.273437c5.210938 0 9.433594 4.222657 9.433594 9.429688-.003906 5.207031-4.226562 9.429687-9.433594 9.429687zm0 0" fill="url(#aA)"/><path d="m70.785156 484.132812c-1.875 0-3.75-.714843-5.183594-2.148437-2.867187-2.863281-2.867187-7.507813 0-10.371094l44.03125-44.035156c2.863282-2.863281 7.507813-2.863281 10.375 0 2.863282 2.867187 2.863282 7.511719 0 10.375l-44.035156 44.03125c-1.429687 1.433594-3.308594 2.148437-5.1875 2.148437zm0 0" fill="url(#aB)"/><path d="m143.640625 411.28125c-1.878906 0-3.753906-.714844-5.1875-2.148438-2.863281-2.863281-2.863281-7.507812 0-10.375l44.03125-44.03125c2.867187-2.867187 7.511719-2.863281 10.375 0 2.863281 2.863282 2.863281 7.507813 0 10.375l-44.03125 44.03125c-1.433594 1.433594-3.3125 2.148438-5.1875 2.148438zm0 0" fill="url(#aC)"/><path d="m114.820312 411.28125c-1.878906 0-3.753906-.714844-5.1875-2.148438l-44.03125-44.03125c-2.867187-2.867187-2.867187-7.511718 0-10.375 2.863282-2.867187 7.507813-2.867187 10.371094 0l44.035156 44.03125c2.863282 2.867188 2.863282 7.511719 0 10.375-1.433593 1.433594-3.3125 2.148438-5.1875 2.148438zm0 0" fill="url(#aD)"/><path d="m187.671875 484.132812c-1.875 0-3.753906-.714843-5.1875-2.148437l-44.03125-44.03125c-2.863281-2.863281-2.863281-7.507813 0-10.375 2.867187-2.863281 7.507813-2.863281 10.375 0l44.03125 44.035156c2.863281 2.863281 2.863281 7.507813 0 10.371094-1.429687 1.433594-3.308594 2.148437-5.1875 2.148437zm0 0" fill="url(#aE)"/><path d="m138.660156 438.734375v19.730469l-18.863281-18.863282v-.867187c0-5.207031 4.226563-9.429687 9.433594-9.429687s9.429687 4.222656 9.429687 9.429687zm0 0" fill="url(#aF)"/><path d="m119.796875 462.21875h18.863281v20.914062l-18.859375-18.863281-.003906.003907zm0 0" fill="url(#aG)"/><path d="m150.378906 408.957031 18.832032 18.832031h-19.601563c-5.207031 0-9.429687-4.226562-9.429687-9.433593s4.222656-9.433594 9.429687-9.433594h.882813zm0 0" fill="url(#aH)"/><path d="m194.023438 427.789062h-21.8125v-18.863281h2.949218zm0 0" fill="url(#aI)"/><path d="m187.671875 484.132812c-1.875 0-3.753906-.714843-5.1875-2.148437l-44.03125-44.03125c-2.863281-2.863281-2.863281-7.507813 0-10.375 2.867187-2.863281 7.507813-2.863281 10.375 0l44.03125 44.035156c2.863281 2.863281 2.863281 7.507813 0 10.371094-1.429687 1.433594-3.308594 2.148437-5.1875 2.148437zm0 0" fill="url(#aJ)"/><path d="m138.660156 374.632812v-38.929687c0-.21875-.011718-.4375-.023437-.652344l-9.40625 9.40625-9.40625-9.40625c-.015625.214844-.023438.433594-.023438.652344v20.070313zm0 0" fill="url(#aK)"/><path d="m191.855469 366.097656-17.699219 17.707032-5.066406-5.066407c-1.402344-1.335937-2.277344-3.214843-2.277344-5.300781v-3.039062l14.671875-14.667969zm0 0" fill="url(#aL)"/><path d="m142.324219 331.359375-13.09375 13.097656-13.09375-13.097656c-2.867188-2.863281-7.511719-2.863281-10.375 0-2.867188 2.867187-2.867188 7.511719 0 10.375l18.28125 18.28125c1.433593 1.433594 3.308593 2.148437 5.1875 2.148437 1.878906 0 3.753906-.714843 5.1875-2.148437l18.28125-18.28125c2.863281-2.863281 2.863281-7.507813 0-10.375-2.867188-2.863281-7.507813-2.863281-10.375 0zm0 0" fill="url(#aM)"/><path d="m134.417969 476.695312c-2.867188-2.863281-7.511719-2.863281-10.375 0l-18.28125 18.28125c-2.867188 2.867188-2.867188 7.507813 0 10.375 2.863281 2.863282 7.507812 2.863282 10.375 0l13.09375-13.097656 13.09375 13.097656c1.433593 1.433594 3.3125 2.148438 5.1875 2.148438 1.878906 0 3.753906-.714844 5.1875-2.148438 2.863281-2.867187 2.863281-7.507812 0-10.375zm0 0" fill="url(#aN)"/><path d="m203.128906 418.355469 13.097656-13.09375c2.863282-2.863281 2.863282-7.507813 0-10.375-2.867187-2.863281-7.511718-2.863281-10.375 0l-18.28125 18.28125c-2.867187 2.867187-2.867187 7.511719 0 10.375l18.28125 18.28125c1.433594 1.433593 3.308594 2.148437 5.1875 2.148437 1.875 0 3.753907-.714844 5.1875-2.148437 2.863282-2.863281 2.863282-7.507813 0-10.375zm0 0" fill="url(#aO)"/><path d="m70.890625 423.542969c2.863281-2.863281 2.863281-7.507813 0-10.375l-18.28125-18.28125c-2.867187-2.863281-7.511719-2.863281-10.375 0-2.863281 2.867187-2.863281 7.511719 0 10.375l13.09375 13.09375-13.09375 13.09375c-2.863281 2.867187-2.863281 7.511719 0 10.375 1.433594 1.433593 3.308594 2.148437 5.1875 2.148437 1.875 0 3.753906-.714844 5.1875-2.148437zm0 0" fill="url(#aP)"/><path d="m174.148438 380.769531h25.855468c4.050782 0 7.335938-3.28125 7.335938-7.335937 0-4.050782-3.285156-7.332032-7.335938-7.332032h-18.519531v-18.519531c0-4.050781-3.28125-7.335937-7.335937-7.335937-4.050782 0-7.335938 3.285156-7.335938 7.335937v25.851563c0 4.054687 3.285156 7.335937 7.335938 7.335937zm0 0" fill="url(#aQ)"/><path d="m84.308594 455.941406h-25.851563c-4.050781 0-7.335937 3.28125-7.335937 7.335938 0 4.050781 3.28125 7.335937 7.335937 7.335937h18.519531v18.515625c0 4.050782 3.28125 7.335938 7.335938 7.335938 4.050781 0 7.332031-3.28125 7.332031-7.335938v-25.851562c0-4.050782-3.28125-7.335938-7.335937-7.335938zm0 0" fill="url(#aR)"/><path d="m200.003906 455.941406h-25.855468c-4.050782 0-7.335938 3.28125-7.335938 7.335938v25.851562c0 4.050782 3.285156 7.335938 7.335938 7.335938 4.054687 0 7.335937-3.28125 7.335937-7.335938v-18.515625h18.519531c4.050782 0 7.335938-3.285156 7.335938-7.335937 0-4.050782-3.285156-7.335938-7.335938-7.335938zm0 0" fill="url(#aS)"/><path d="m84.308594 340.246094c-4.050782 0-7.335938 3.285156-7.335938 7.335937v18.519531h-18.515625c-4.050781 0-7.335937 3.285157-7.335937 7.335938s3.28125 7.335938 7.335937 7.335938h25.851563c4.050781 0 7.335937-3.285157 7.335937-7.335938v-25.855469c0-4.050781-3.28125-7.335937-7.335937-7.335937zm0 0" fill="url(#aT)"/><path d="m138.660156 372.425781v25.550781c0 .199219-.003906.394532-.015625.589844-.089843 1.441406-.5 2.789063-1.164062 3.980469l-17.683594-17.683594v-12.4375zm0 0" fill="url(#aU)"/><path d="m113.269531 426.695312c-1.320312.695313-2.820312 1.09375-4.417969 1.09375h-25.550781v-18.863281h12.199219zm0 0" fill="url(#aV)"/><path d="m166.894531 391.066406-8.679687 8.675782-9.386719 9.390624c-1.4375 1.429688-3.3125 2.148438-5.1875 2.148438-1.878906 0-3.753906-.71875-5.1875-2.148438-1.363281-1.363281-2.082031-3.132812-2.148437-4.925781-.066407-1.964843.648437-3.949219 2.148437-5.449219l.191406-.191406 9.199219-9.195312 8.675781-8.679688zm0 0" fill="url(#aW)"/><path d="m122.152344 404.207031c-.066406 1.792969-.785156 3.5625-2.144532 4.925781-1.367187 1.363282-3.136718 2.082032-4.925781 2.144532-.085937.003906-.179687.003906-.265625.003906-1.871094 0-3.75-.71875-5.183594-2.148438l-18.066406-18.066406 10.375-10.375 8.671875 8.679688 9.203125 9.195312.191406.191406c1.496094 1.5 2.214844 3.484376 2.144532 5.449219zm0 0" fill="url(#aX)"/><path d="m129.230469 441.535156c-6.191407 0-12.015625-2.410156-16.390625-6.789062-4.378906-4.378906-6.792969-10.199219-6.792969-16.390625 0-6.191407 2.414063-12.011719 6.792969-16.390625 4.375-4.378906 10.199218-6.789063 16.390625-6.789063 6.191406 0 12.011719 2.410157 16.390625 6.789063s6.789062 10.199218 6.789062 16.390625c0 6.191406-2.410156 12.011719-6.789062 16.390625s-10.199219 6.789062-16.390625 6.789062zm0-34.089844c-2.914063 0-5.65625 1.136719-7.714844 3.195313-2.0625 2.0625-3.195313 4.800781-3.195313 7.714844 0 2.914062 1.132813 5.65625 3.195313 7.714843 2.058594 2.0625 4.800781 3.199219 7.714844 3.199219 2.914062 0 5.652343-1.136719 7.714843-3.199219 2.0625-2.058593 3.195313-4.796874 3.195313-7.714843 0-2.910157-1.132813-5.652344-3.195313-7.710938-2.0625-2.0625-4.800781-3.199219-7.714843-3.199219zm0 0" fill="url(#aY)"/><path d="m145.714844 464.285156h-32.96875c-1.625 0-3.1875-.644531-4.335938-1.796875l-23.3125-23.308593c-1.152344-1.152344-1.796875-2.710938-1.796875-4.339844v-32.96875c0-1.625.644531-3.1875 1.796875-4.335938l23.3125-23.3125c1.148438-1.148437 2.710938-1.796875 4.335938-1.796875h32.96875c1.625 0 3.1875.648438 4.335937 1.796875l23.3125 23.3125c1.152344 1.152344 1.796875 2.710938 1.796875 4.335938v32.96875c0 1.628906-.644531 3.1875-1.796875 4.339844l-23.3125 23.308593c-1.148437 1.152344-2.710937 1.796875-4.335937 1.796875zm-30.425782-12.269531h27.882813l19.71875-19.71875v-27.882813l-19.71875-19.71875h-27.882813l-19.71875 19.71875v27.882813zm0 0" fill="url(#aZ)"/><path d="m111.941406 363.84375c0 2.898438-2.351562 5.246094-5.25 5.246094-2.894531 0-5.246094-2.347656-5.246094-5.246094s2.351563-5.246094 5.246094-5.246094c2.898438 0 5.25 2.347656 5.25 5.246094zm0 0" fill="url(#a0)"/><path d="m157.039062 363.84375c0 2.898438-2.347656 5.246094-5.246093 5.246094-2.894531 0-5.246094-2.347656-5.246094-5.246094s2.351563-5.246094 5.246094-5.246094c2.898437 0 5.246093 2.347656 5.246093 5.246094zm0 0" fill="url(#a1)"/><path d="m111.941406 472.867188c0 2.898437-2.351562 5.25-5.25 5.25-2.894531 0-5.246094-2.351563-5.246094-5.25 0-2.898438 2.351563-5.246094 5.246094-5.246094 2.898438 0 5.25 2.347656 5.25 5.246094zm0 0" fill="url(#a2)"/><path d="m157.042969 472.867188c0 2.898437-2.351563 5.25-5.25 5.25-2.898438 0-5.246094-2.351563-5.246094-5.25 0-2.898438 2.347656-5.246094 5.246094-5.246094 2.898437 0 5.25 2.347656 5.25 5.246094zm0 0" fill="url(#a3)"/><path d="m189.003906 395.804688c0 2.898437-2.351562 5.25-5.25 5.25-2.898437 0-5.246094-2.351563-5.246094-5.25 0-2.898438 2.347657-5.246094 5.246094-5.246094 2.898438 0 5.25 2.347656 5.25 5.246094zm0 0" fill="url(#a4)"/><path d="m189.003906 440.90625c0 2.898438-2.351562 5.25-5.25 5.25-2.898437 0-5.246094-2.351562-5.246094-5.25s2.347657-5.246094 5.246094-5.246094c2.898438 0 5.25 2.347656 5.25 5.246094zm0 0" fill="url(#a5)"/><path d="m79.980469 395.804688c0 2.898437-2.351563 5.246093-5.25 5.246093-2.894531 0-5.246094-2.347656-5.246094-5.246093 0-2.894532 2.351563-5.246094 5.246094-5.246094 2.898437 0 5.25 2.351562 5.25 5.246094zm0 0" fill="url(#a6)"/><path d="m79.980469 440.90625c0 2.898438-2.351563 5.246094-5.25 5.246094-2.894531 0-5.246094-2.347656-5.246094-5.246094s2.351563-5.246094 5.246094-5.246094c2.898437 0 5.25 2.347656 5.25 5.246094zm0 0" fill="url(#a7)"/><path d="m221.3125 418.355469c0-4.988281-3.871094-9.070313-8.777344-9.40625l3.691406-3.6875c2.863282-2.863281 2.863282-7.507813 0-10.375-2.867187-2.863281-7.511718-2.863281-10.375 0l-14.035156 14.039062h-16.65625v-7.054687c0-1.625-.644531-3.1875-1.796875-4.335938l-6.46875-6.46875 7.261719-7.261718 3.035156-3.03125h22.8125c4.050782 0 7.335938-3.285157 7.335938-7.335938s-3.28125-7.335938-7.335938-7.335938h-8.144531l1-1c2.867187-2.867187 2.867187-7.511718.003906-10.375-2.867187-2.863281-7.511719-2.867187-10.375 0l-1.003906 1v-8.144531c0-4.050781-3.28125-7.335937-7.332031-7.335937-4.050782 0-7.335938 3.285156-7.335938 7.335937v22.816407l-10.296875 10.292968-6.46875-6.46875c-1.148437-1.148437-2.707031-1.796875-4.335937-1.796875h-7.050782v-16.652343l14.035157-14.035157c2.867187-2.867187 2.867187-7.511719 0-10.375-2.863281-2.867187-7.507813-2.867187-10.371094 0l-3.691406 3.6875c-.335938-4.902343-4.417969-8.777343-9.40625-8.777343s-9.070313 3.875-9.40625 8.777343l-3.6875-3.6875c-2.867188-2.867187-7.507813-2.867187-10.375 0-2.863281 2.863281-2.863281 7.507813 0 10.375l14.039062 14.035157v16.652343h-7.054687c-1.625 0-3.1875.648438-4.335938 1.796875l-6.46875 6.46875-10.296875-10.292968v-22.816407c0-4.050781-3.285156-7.335937-7.335937-7.335937-4.050782 0-7.335938 3.285156-7.335938 7.335937v8.144531l-1-1c-2.863281-2.867187-7.507812-2.867187-10.371094 0-2.867187 2.863282-2.867187 7.507813 0 10.371094l1 1.003906h-8.148437c-4.050781 0-7.335937 3.28125-7.335937 7.332032 0 4.050781 3.285156 7.335937 7.335937 7.335937h22.816406l10.292969 10.296875-6.464844 6.46875c-1.152344 1.148438-1.800781 2.710938-1.800781 4.335938v7.054687h-16.652344l-14.035156-14.039062c-2.867187-2.863281-7.511719-2.863281-10.375 0s-2.863281 7.511719 0 10.375l3.6875 3.6875c-4.902344.335937-8.777344 4.417969-8.777344 9.40625s3.875 9.070312 8.777344 9.40625l-3.6875 3.6875c-2.863281 2.867187-2.863281 7.507812 0 10.375 1.433594 1.433593 3.308594 2.148437 5.1875 2.148437 1.875 0 3.753906-.714844 5.1875-2.148437l14.035156-14.039063h16.65625v7.054688c0 1.625.644531 3.1875 1.796875 4.335937l6.46875 6.46875-10.296875 10.292969h-22.8125c-4.050781 0-7.335937 3.285156-7.335937 7.335938 0 4.050781 3.28125 7.335937 7.335937 7.335937h8.144531l-1 1c-2.867187 2.867187-2.867187 7.511719 0 10.375 1.433594 1.433594 3.308594 2.148437 5.183594 2.148437 1.878906 0 3.757813-.714843 5.1875-2.148437l1.003906-1v8.144531c0 4.050782 3.28125 7.335938 7.335938 7.335938 4.050781 0 7.332031-3.285156 7.332031-7.335938v-22.816406l10.296875-10.292969 6.46875 6.46875c1.148438 1.148438 2.710938 1.796875 4.335938 1.796875h7.050781v16.652344l-14.035156 14.035156c-2.867188 2.867188-2.867188 7.511719 0 10.375 2.863281 2.863282 7.507812 2.863282 10.375 0l3.6875-3.6875c.335937 4.902344 4.417969 8.777344 9.40625 8.777344s9.070312-3.875 9.40625-8.777344l3.6875 3.6875c1.433593 1.433594 3.3125 2.148438 5.1875 2.148438 1.878906 0 3.753906-.714844 5.1875-2.148438 2.863281-2.863281 2.863281-7.507812 0-10.375l-14.039063-14.035156v-16.65625h7.050782c1.628906 0 3.191406-.644531 4.339843-1.796875l6.46875-6.46875 10.292969 10.296875v22.816406c0 4.050782 3.285156 7.335938 7.335938 7.335938 4.050781 0 7.335937-3.285156 7.335937-7.335938v-8.144531l1 1c1.433594 1.433594 3.3125 2.148437 5.1875 2.148437 1.878906 0 3.753906-.714843 5.1875-2.148437 2.863281-2.867187 2.863281-7.511719 0-10.375l-1-1h8.144531c4.050782 0 7.335938-3.285156 7.335938-7.335937 0-4.050782-3.285156-7.335938-7.335938-7.335938h-22.816406l-10.292969-10.292969 6.46875-6.46875c1.148438-1.152343 1.796875-2.710937 1.796875-4.339843v-7.050782h16.652344l14.039062 14.039063c1.429688 1.429687 3.308594 2.148437 5.183594 2.148437 1.878906 0 3.757813-.71875 5.1875-2.148437 2.867188-2.867188 2.867188-7.511719 0-10.375l-3.6875-3.6875c4.90625-.335938 8.777344-4.417969 8.777344-9.40625zm-106.023438-33.660157h4.507813v12.480469c-.3125.140625-.625.285157-.933594.441407l-2.359375-2.359376-5.886718-5.890624zm-19.71875 19.71875 4.671876-4.671874 5.980468 5.984374 2.265625 2.265626c-.152343.308593-.300781.617187-.441406.933593h-12.476563zm4.671876 32.554688-4.671876-4.667969v-4.511719h12.480469c.140625.316407.285157.625.441407.933594zm19.554687 15.046875h-4.507813l-4.671874-4.671875 8.246093-8.246094c.308594.152344.621094.300782.933594.441406v.0625h.003906v12.414063zm17.148437-25.945313c-2.0625 2.0625-4.800781 3.195313-7.714843 3.195313-2.914063 0-5.65625-1.132813-7.714844-3.195313-2.0625-2.058593-3.199219-4.800781-3.199219-7.714843 0-2.914063 1.136719-5.65625 3.199219-7.714844 2.058594-2.0625 4.796875-3.195313 7.714844-3.195313 2.914062 0 5.652343 1.132813 7.714843 3.195313 2.058594 2.058594 3.195313 4.800781 3.195313 7.714844 0 2.914062-1.136719 5.65625-3.195313 7.714843zm6.226563 25.945313h-4.511719v-12.480469c.316406-.140625.628906-.285156.933594-.4375l8.25 8.246094zm-1.21875-56.757813-2.359375 2.359376c-.308594-.15625-.617188-.300782-.933594-.441407v-12.476562h4.511719l4.671875 4.667969zm20.9375 37.039063-4.671875 4.671875-8.25-8.246094c.15625-.308594.300781-.621094.441406-.9375h12.480469zm0-23.371094h-12.402344.003907-.082032c-.140625-.316406-.285156-.628906-.441406-.933593l8.25-8.25 4.671875 4.671874zm0 0" fill="url(#a8)"/><path d="m111.941406 363.84375c0 2.898438-2.351562 5.246094-5.25 5.246094-2.894531 0-5.246094-2.347656-5.246094-5.246094s2.351563-5.246094 5.246094-5.246094c2.898438 0 5.25 2.347656 5.25 5.246094zm0 0" fill="url(#a9)"/><path d="m157.039062 363.84375c0 2.898438-2.347656 5.246094-5.246093 5.246094-2.894531 0-5.246094-2.347656-5.246094-5.246094s2.351563-5.246094 5.246094-5.246094c2.898437 0 5.246093 2.347656 5.246093 5.246094zm0 0" fill="url(#ba)"/><path d="m111.941406 472.867188c0 2.898437-2.351562 5.25-5.25 5.25-2.894531 0-5.246094-2.351563-5.246094-5.25 0-2.898438 2.351563-5.246094 5.246094-5.246094 2.898438 0 5.25 2.347656 5.25 5.246094zm0 0" fill="url(#bb)"/><path d="m157.042969 472.867188c0 2.898437-2.351563 5.25-5.25 5.25-2.898438 0-5.246094-2.351563-5.246094-5.25 0-2.898438 2.347656-5.246094 5.246094-5.246094 2.898437 0 5.25 2.347656 5.25 5.246094zm0 0" fill="url(#bc)"/><path d="m189.003906 395.804688c0 2.898437-2.351562 5.25-5.25 5.25-2.898437 0-5.246094-2.351563-5.246094-5.25 0-2.898438 2.347657-5.246094 5.246094-5.246094 2.898438 0 5.25 2.347656 5.25 5.246094zm0 0" fill="url(#bd)"/><path d="m189.003906 440.90625c0 2.898438-2.351562 5.25-5.25 5.25-2.898437 0-5.246094-2.351562-5.246094-5.25s2.347657-5.246094 5.246094-5.246094c2.898438 0 5.25 2.347656 5.25 5.246094zm0 0" fill="url(#be)"/><path d="m79.980469 395.804688c0 2.898437-2.351563 5.246093-5.25 5.246093-2.894531 0-5.246094-2.347656-5.246094-5.246093 0-2.894532 2.351563-5.246094 5.246094-5.246094 2.898437 0 5.25 2.351562 5.25 5.246094zm0 0" fill="url(#bf)"/><path d="m79.980469 440.90625c0 2.898438-2.351563 5.246094-5.25 5.246094-2.894531 0-5.246094-2.347656-5.246094-5.246094s2.351563-5.246094 5.246094-5.246094c2.898437 0 5.25 2.347656 5.25 5.246094zm0 0" fill="url(#bg)"/></svg>