<svg height="512pt" viewBox="0 0 512 512" width="512pt" xmlns="http://www.w3.org/2000/svg" xmlns:xlink="http://www.w3.org/1999/xlink"><radialGradient id="a" cx="215.8434307844" cy="185.72557" gradientUnits="userSpaceOnUse" r="336.6901399656"><stop offset="0" stop-color="#3b395f"/><stop offset=".3952" stop-color="#39375d"/><stop offset=".6279" stop-color="#323154"/><stop offset=".8179" stop-color="#262846"/><stop offset=".9849" stop-color="#151a32"/><stop offset="1" stop-color="#131830"/></radialGradient><linearGradient id="b" gradientUnits="userSpaceOnUse" x1="291.745756732" x2="224.1482751372" y1="468.464138548" y2="239.5697217636"><stop offset="0" stop-color="#131830" stop-opacity="0"/><stop offset=".8421" stop-color="#131830"/></linearGradient><linearGradient id="c"><stop offset="0" stop-color="#ff6e3a"/><stop offset=".2336" stop-color="#ff6b3c"/><stop offset=".418" stop-color="#ff6143"/><stop offset=".5857" stop-color="#ff504e"/><stop offset=".7434" stop-color="#ff395e"/><stop offset=".8928" stop-color="#ff1b72"/><stop offset="1" stop-color="#ff0084"/></linearGradient><linearGradient id="d" gradientUnits="userSpaceOnUse" x1="205.182080321" x2="217.4486016702" xlink:href="#c" y1="469.7681328338" y2="483.787000034"/><linearGradient id="e" gradientTransform="matrix(-1.003922 0 0 1.003922 3610.770573 0)" gradientUnits="userSpaceOnUse" x1="3291.0466" x2="3303.2651" xlink:href="#c" y1="467.9329" y2="481.897"/><linearGradient id="f" gradientUnits="userSpaceOnUse" x1="253.0386404922" x2="280.7902571226" xlink:href="#c" y1="409.2074417136" y2="409.2074417136"/><linearGradient id="g"><stop offset="0" stop-color="#ecf7ff"/><stop offset=".2926" stop-color="#e6f4ff"/><stop offset=".6915" stop-color="#d4eaff"/><stop offset="1" stop-color="#c2e0ff"/></linearGradient><linearGradient id="h" gradientUnits="userSpaceOnUse" x1="256.00011" x2="256.00011" xlink:href="#g" y1="211.4438430116" y2="432.1877182546"/><linearGradient id="i"><stop offset=".0029" stop-color="#c2e0ff" stop-opacity="0"/><stop offset=".0763" stop-color="#bfdcfd" stop-opacity=".07451"/><stop offset="1" stop-color="#9eb2e7"/></linearGradient><linearGradient id="j" gradientUnits="userSpaceOnUse" x1="269.4941267786" x2="236.6391730534" xlink:href="#i" y1="236.0608135892" y2="-63.5785810444"/><linearGradient id="k" gradientUnits="userSpaceOnUse" x1="47.6929208852" x2="47.6929208852" xlink:href="#c" y1="92.3434561494" y2="121.7999331202"/><linearGradient id="l" gradientTransform="matrix(-1.003922 0 0 1.003922 4136.156863 0)" gradientUnits="userSpaceOnUse" x1="3657.5066" x2="3657.5066" xlink:href="#c" y1="91.9827" y2="121.3241"/><linearGradient id="m"><stop offset="0" stop-color="#ff0084" stop-opacity="0"/><stop offset=".0737" stop-color="#f4087e" stop-opacity=".07451"/><stop offset=".3347" stop-color="#d2216b" stop-opacity=".333333"/><stop offset=".583" stop-color="#ba335e" stop-opacity=".584314"/><stop offset=".8111" stop-color="#ab3d56" stop-opacity=".811765"/><stop offset="1" stop-color="#a64153"/></linearGradient><linearGradient id="n" gradientUnits="userSpaceOnUse" x1="472.7698596138" x2="437.2766992648" xlink:href="#m" y1="118.6047505708" y2="83.111690614"/><linearGradient id="o" gradientUnits="userSpaceOnUse" x1="256.00011" x2="256.00011" xlink:href="#g" y1="101.9465724326" y2="133.5375883598"/><linearGradient id="p" gradientUnits="userSpaceOnUse" x1="290.063685421" x2="261.143704367" xlink:href="#m" y1="412.5152643114" y2="383.5952832574"/><linearGradient id="q" gradientUnits="userSpaceOnUse" x1="47.6929208852" x2="47.6929208852" xlink:href="#c" y1="355.1853949716" y2="384.6410688048"/><linearGradient id="r" gradientTransform="matrix(-1.003922 0 0 1.003922 4136.156863 0)" gradientUnits="userSpaceOnUse" x1="3657.5066" x2="3657.5066" xlink:href="#c" y1="353.7978" y2="383.1384"/><linearGradient id="s" gradientUnits="userSpaceOnUse" x1="472.7695584372" x2="437.2770004414" xlink:href="#m" y1="381.4462878242" y2="345.9537298284"/><linearGradient id="t" gradientUnits="userSpaceOnUse" x1="256.00011" x2="256.00011" xlink:href="#g" y1="356.915855323" y2="391.18824652"/><linearGradient id="u" gradientUnits="userSpaceOnUse" x1="321.5633444462" x2="165.621028028" xlink:href="#i" y1="312.1338062768" y2="230.4815170742"/><radialGradient id="v" cx="201.6351235028" cy="211.031431854" gradientUnits="userSpaceOnUse" r="92.7421135756"><stop offset="0" stop-color="#ffd459"/><stop offset=".2794" stop-color="#ffd55b"/><stop offset=".4354" stop-color="#ffd763"/><stop offset=".5609" stop-color="#ffda71"/><stop offset=".6702" stop-color="#ffdf85"/><stop offset=".7691" stop-color="#ffe69e"/><stop offset=".8603" stop-color="#ffeebe"/><stop offset=".944" stop-color="#fff8e2"/><stop offset="1" stop-color="#fff"/></radialGradient><radialGradient id="w" cx="201.098627586" cy="211.3061049132" gradientUnits="userSpaceOnUse" r="62.474568021"><stop offset="0" stop-color="#ffb400"/><stop offset=".3726" stop-color="#ffb502" stop-opacity=".627451"/><stop offset=".5069" stop-color="#ffb709" stop-opacity=".494118"/><stop offset=".6026" stop-color="#ffba14" stop-opacity=".396078"/><stop offset=".68" stop-color="#ffbf25" stop-opacity=".321569"/><stop offset=".7463" stop-color="#ffc53b" stop-opacity=".254902"/><stop offset=".805" stop-color="#ffcd57" stop-opacity=".196078"/><stop offset=".8581" stop-color="#ffd777" stop-opacity=".141176"/><stop offset=".9069" stop-color="#ffe29d" stop-opacity=".094118"/><stop offset=".9523" stop-color="#ffefc8" stop-opacity=".047059"/><stop offset=".9926" stop-color="#fffcf6" stop-opacity=".007843"/><stop offset="1" stop-color="#fff" stop-opacity="0"/></radialGradient><radialGradient id="x" cx="188.2452134356" cy="191.860537342" gradientUnits="userSpaceOnUse" r="65.1491166212"><stop offset="0" stop-color="#ffd459"/><stop offset=".2296" stop-color="#ffd355"/><stop offset=".4362" stop-color="#ffcf4a"/><stop offset=".634" stop-color="#ffc838"/><stop offset=".825" stop-color="#ffbf1f"/><stop offset="1" stop-color="#ffb400"/></radialGradient><linearGradient id="y" gradientUnits="userSpaceOnUse" x1="248.1390995634" x2="101.1141203102" y1="311.1989541104" y2="164.1739748572"><stop offset="0" stop-color="#e58200" stop-opacity="0"/><stop offset=".0396" stop-color="#e27f04" stop-opacity=".039216"/><stop offset=".4671" stop-color="#c15d2f" stop-opacity=".466667"/><stop offset=".8016" stop-color="#ad4949" stop-opacity=".8"/><stop offset="1" stop-color="#a64153"/></linearGradient><radialGradient id="z" cx="140.5905419786" cy="198.3667550396" gradientUnits="userSpaceOnUse" r="118.2453464948"><stop offset="0" stop-color="#ecf7ff"/><stop offset=".3473" stop-color="#e9f5ff"/><stop offset=".62" stop-color="#dff0ff"/><stop offset=".8666" stop-color="#cee7ff"/><stop offset="1" stop-color="#c2e0ff"/></radialGradient><linearGradient id="A" gradientUnits="userSpaceOnUse" x1="215.8766606026" x2="232.9210475342" xlink:href="#i" y1="277.3096595486" y2="225.8875700022"/><linearGradient id="B" gradientUnits="userSpaceOnUse" x1="196.3784875186" x2="218.2920969346" xlink:href="#i" y1="242.1316303154" y2="209.6412006684"/><linearGradient id="C" gradientUnits="userSpaceOnUse" x1="151.7407020638" x2="151.7407020638" xlink:href="#i" y1="233.5786164442" y2="177.354868364"/><linearGradient id="D" gradientUnits="userSpaceOnUse" x1="118.2592006184" x2="83.6664579112" xlink:href="#i" y1="276.8171354154" y2="244.124214701"/><linearGradient id="E" gradientUnits="userSpaceOnUse" x1="166.9757203748" x2="166.9757203748" xlink:href="#i" y1="284.2370225252" y2="324.1916122422"/><linearGradient id="F" gradientUnits="userSpaceOnUse" x1="163.8241080402" x2="122.0052351692" xlink:href="#i" y1="323.2802518506" y2="281.4613789796"/><linearGradient id="G" gradientUnits="userSpaceOnUse" x1="346.2650460406" x2="291.0493360406" xlink:href="#i" y1="219.110494149" y2="175.4397867568"/><linearGradient id="H" gradientUnits="userSpaceOnUse" x1="384.6385589998" x2="316.3718629998" xlink:href="#i" y1="218.8667418874" y2="175.1961348874"/><linearGradient id="I" gradientUnits="userSpaceOnUse" x1="427.5343390002" x2="373.824411608" xlink:href="#i" y1="202.6871333666" y2="174.0752559744"/><linearGradient id="J" gradientUnits="userSpaceOnUse" x1="403.249365428" x2="380.159159428" xlink:href="#i" y1="173.8329092036" y2="154.2564302036"/><linearGradient id="K" gradientUnits="userSpaceOnUse" x1="313.932934893" x2="313.932934893" xlink:href="#c" y1="160.422217951" y2="219.3836613252"/><linearGradient id="L" gradientUnits="userSpaceOnUse" x1="352.2047505536" x2="352.2047505536" xlink:href="#c" y1="160.422217951" y2="219.3836613252"/><linearGradient id="M" gradientUnits="userSpaceOnUse" x1="405.3357161284" x2="405.3357161284" xlink:href="#c" y1="160.4223183432" y2="219.383560933"/><linearGradient id="N" gradientUnits="userSpaceOnUse" x1="382.1866802992" x2="382.1866802992" xlink:href="#c" y1="160.4225191276" y2="219.3869742678"/><linearGradient id="O"><stop offset="0" stop-color="#cfced3"/><stop offset=".8111" stop-color="#a5abbd"/><stop offset="1" stop-color="#9aa2b7"/></linearGradient><linearGradient id="P" gradientUnits="userSpaceOnUse" x1="298.1383304592" x2="422.985969987" xlink:href="#O" y1="228.5143319152" y2="228.5143319152"/><linearGradient id="Q" gradientUnits="userSpaceOnUse" x1="298.1383304592" x2="422.985969987" xlink:href="#O" y1="268.0335206608" y2="268.0335206608"/><linearGradient id="R" gradientUnits="userSpaceOnUse" x1="298.1383304592" x2="397.554115922" xlink:href="#O" y1="307.552508622" y2="307.552508622"/><path d="m512 256c0 141.386719-114.613281 256-256 256s-256-114.613281-256-256 114.613281-256 256-256 256 114.613281 256 256zm0 0" fill="url(#a)"/><path d="m256 512c104.445312 0 194.265625-62.554688 234.082031-152.238281l-12.242187-12.238281c-1.828125-2.917969-5.066406-4.863282-8.765625-4.863282h-5.308594c-.832031-1.207031-8.371094-8.746094-9.683594-9.597656-1.984375-3.050781-5.414062-5.074219-9.324219-5.074219h-377.515624c-6.140626 0-11.117188 4.976563-11.117188 11.117188v3.554687h-13.199219c-5.71875 0-10.351562 4.632813-10.351562 10.351563v16.648437c0 3.699219 1.945312 6.9375 4.863281 8.765625l108.988281 108.988281c33.21875 15.757813 70.363281 24.585938 109.574219 24.585938zm0 0" fill="url(#b)"/><path d="m164.457031 507.589844c-3.613281-4.851563-2.609375-11.710938 2.238281-15.324219l71.808594-53.503906c4.847656-3.613281 11.710938-2.613281 15.324219 2.238281 3.617187 4.847656 2.613281 11.710938-2.238281 15.328125l-71.804688 53.5c-4.851562 3.617187-11.710937 2.613281-15.328125-2.238281zm0 0" fill="url(#d)"/><path d="m347.542969 507.589844c3.613281-4.851563 2.609375-11.710938-2.238281-15.324219l-71.808594-53.503906c-4.847656-3.613281-11.710938-2.613281-15.324219 2.238281-3.617187 4.847656-2.613281 11.710938 2.238281 15.328125l71.804688 53.5c4.851562 3.617187 11.710937 2.613281 15.328125-2.238281zm0 0" fill="url(#e)"/><path d="m268.476562 455.519531c-7.742187 4.371094-17.210937 4.371094-24.953124 0-2.355469-1.332031-3.8125-3.824219-3.8125-6.527343v-89.375h32.578124v89.375c0 2.703124-1.457031 5.195312-3.8125 6.527343zm0 0" fill="url(#f)"/><path d="m67.410156 91.292969h377.179688v279.925781h-377.179688zm0 0" fill="url(#h)"/><path d="m67.410156 134.695312 236.523438 236.523438h140.65625v-279.925781h-377.179688zm0 0" fill="url(#j)"/><path d="m62.8125 117.171875h-19.886719c-5.71875 0-10.351562-4.632813-10.351562-10.351563v-16.652343c0-5.714844 4.632812-10.351563 10.351562-10.351563h19.886719zm0 0" fill="url(#k)"/><path d="m449.1875 117.171875h19.886719c5.71875 0 10.351562-4.632813 10.351562-10.351563v-16.652343c0-5.714844-4.632812-10.351563-10.351562-10.351563h-19.886719zm0 0" fill="url(#l)"/><path d="m479.425781 106.820312v-3.707031l-23.292969-23.296875h-6.945312v37.355469h19.886719c5.71875 0 10.351562-4.632813 10.351562-10.351563zm0 0" fill="url(#n)"/><path d="m444.757812 134.523438h-377.515624c-6.140626 0-11.117188-4.976563-11.117188-11.113282v-47.148437c0-6.136719 4.976562-11.113281 11.117188-11.113281h377.515624c6.140626 0 11.117188 4.976562 11.117188 11.113281v47.148437c0 6.136719-4.976562 11.113282-11.117188 11.113282zm0 0" fill="url(#o)"/><path d="m239.710938 397.285156 32.578124 32.578125v-70.246093h-32.578124zm0 0" fill="url(#p)"/><path d="m62.8125 380.011719h-19.886719c-5.71875 0-10.351562-4.632813-10.351562-10.351563v-16.648437c0-5.71875 4.632812-10.351563 10.351562-10.351563h19.886719zm0 0" fill="url(#q)"/><path d="m449.1875 380.011719h19.886719c5.71875 0 10.351562-4.632813 10.351562-10.351563v-16.648437c0-5.71875-4.632812-10.351563-10.351562-10.351563h-19.886719zm0 0" fill="url(#r)"/><path d="m479.425781 369.660156v-3.703125l-23.292969-23.296875h-6.945312v37.351563h19.886719c5.71875 0 10.351562-4.632813 10.351562-10.351563zm0 0" fill="url(#s)"/><path d="m444.757812 397.367188h-377.515624c-6.140626 0-11.117188-4.976563-11.117188-11.117188v-47.144531c0-6.140625 4.976562-11.117188 11.117188-11.117188h377.515624c6.140626 0 11.117188 4.976563 11.117188 11.117188v47.144531c0 6.140625-4.976562 11.117188-11.117188 11.117188zm0 0" fill="url(#t)"/><path d="m100.003906 298.878906c1.402344 1.777344 12.277344 12.660156 13.851563 13.960938-.039063.34375-.0625.691406-.0625 1.042968 0 3.78125 2.28125 7.023438 5.542969 8.433594l5.671874 5.671875h290.523438l-177.21875-175.453125c.878906-3.074218-2.9375-5.277344-5.164062-2.980468-4.40625 4.554687-10.351563 6.003906-15.765626 4.90625-.648437-.507813-1.476562-.714844-2.273437-.625-.246094-.085938-.492187-.175782-.734375-.273438-.28125-.707031-10.066406-10.882812-10.292969-11.796875-.777343-3.101563-5.1875-3.101563-5.964843 0-3.277344 13.101563-19.675782 17.496094-29.066407 7.789063-2.226562-2.296876-6.042969-.09375-5.164062 2.984374 3.710937 12.984376-8.296875 24.988282-21.28125 21.277344-3.074219-.878906-5.28125 2.941406-2.980469 5.164063 9.707031 9.390625 5.3125 25.789062-7.789062 29.070312-3.105469.777344-3.105469 5.1875 0 5.960938.15625.039062.304687.089843.460937.132812-11.53125 6.710938-19.292969 19.195313-19.292969 33.496094 0 .132813.003906.261719.007813.394531-13.59375 2.261719-23.953125 14.070313-23.953125 28.304688-.003906 9.144531 4.28125 17.285156 10.945312 22.539062zm0 0" fill="url(#u)"/><path d="m204.082031 141.765625c3.277344 13.101563 19.675781 17.496094 29.066407 7.789063 2.226562-2.296876 6.042968-.09375 5.164062 2.984374-3.710938 12.984376 8.296875 24.988282 21.28125 21.277344 3.074219-.878906 5.277344 2.941406 2.980469 5.164063-9.707031 9.390625-5.3125 25.789062 7.789062 29.070312 3.101563.777344 3.101563 5.1875 0 5.960938-13.101562 3.28125-17.496093 19.679687-7.789062 29.070312 2.300781 2.222657.09375 6.042969-2.980469 5.164063-12.988281-3.710938-24.992188 8.296875-21.28125 21.28125.878906 3.074218-2.9375 5.277344-5.164062 2.980468-9.390626-9.707031-25.789063-5.3125-29.066407 7.789063-.777343 3.101563-5.1875 3.101563-5.964843 0-3.277344-13.101563-19.679688-17.496094-29.070313-7.789063-2.222656 2.296876-6.042969.09375-5.160156-2.980468 3.707031-12.984375-8.296875-24.992188-21.28125-21.28125-3.074219.878906-5.28125-2.941406-2.980469-5.164063 9.707031-9.390625 5.308594-25.789062-7.792969-29.070312-3.101562-.773438-3.101562-5.183594 0-5.960938 13.101563-3.28125 17.496094-19.679687 7.792969-29.070312-2.300781-2.222657-.097656-6.042969 2.980469-5.164063 12.984375 3.710938 24.988281-8.292968 21.28125-21.277344-.882813-3.078124 2.9375-5.28125 5.160156-2.984374 9.390625 9.707031 25.792969 5.3125 29.070313-7.789063.777343-3.101563 5.1875-3.101563 5.964843 0zm0 0" fill="#fff"/><path d="m204.082031 141.765625c3.277344 13.101563 19.675781 17.496094 29.066407 7.789063 2.226562-2.296876 6.042968-.09375 5.164062 2.984374-3.710938 12.984376 8.296875 24.988282 21.28125 21.277344 3.074219-.878906 5.277344 2.941406 2.980469 5.164063-9.707031 9.390625-5.3125 25.789062 7.789062 29.070312 3.101563.777344 3.101563 5.1875 0 5.960938-13.101562 3.28125-17.496093 19.679687-7.789062 29.070312 2.300781 2.222657.09375 6.042969-2.980469 5.164063-12.988281-3.710938-24.992188 8.296875-21.28125 21.28125.878906 3.074218-2.9375 5.277344-5.164062 2.980468-9.390626-9.707031-25.789063-5.3125-29.066407 7.789063-.777343 3.101563-5.1875 3.101563-5.964843 0-3.277344-13.101563-19.679688-17.496094-29.070313-7.789063-2.222656 2.296876-6.042969.09375-5.160156-2.980468 3.707031-12.984375-8.296875-24.992188-21.28125-21.28125-3.074219.878906-5.28125-2.941406-2.980469-5.164063 9.707031-9.390625 5.308594-25.789062-7.792969-29.070312-3.101562-.773438-3.101562-5.183594 0-5.960938 13.101563-3.28125 17.496094-19.679687 7.792969-29.070312-2.300781-2.222657-.097656-6.042969 2.980469-5.164063 12.984375 3.710938 24.988281-8.292968 21.28125-21.277344-.882813-3.078124 2.9375-5.28125 5.160156-2.984374 9.390625 9.707031 25.792969 5.3125 29.070313-7.789063.777343-3.101563 5.1875-3.101563 5.964843 0zm0 0" fill="url(#v)"/><path d="m259.480469 211.03125c0 32.246094-26.136719 58.382812-58.382813 58.382812-32.242187 0-58.382812-26.136718-58.382812-58.382812 0-32.242188 26.140625-58.382812 58.382812-58.382812 32.246094 0 58.382813 26.140624 58.382813 58.382812zm0 0" fill="url(#w)"/><path d="m249.398438 211.03125c0 26.675781-21.625 48.300781-48.300782 48.300781-26.675781 0-48.300781-21.625-48.300781-48.300781s21.625-48.300781 48.300781-48.300781c26.675782 0 48.300782 21.625 48.300782 48.300781zm0 0" fill="url(#x)"/><path d="m163.882812 269.527344c-.878906 3.074218 2.941407 5.277344 5.164063 2.980468 9.390625-9.707031 25.792969-5.3125 29.070313 7.789063.777343 3.101563 5.183593 3.101563 5.960937 0 3.28125-13.101563 19.679687-17.496094 29.070313-7.789063 2.222656 2.296876 6.042968.09375 5.164062-2.980468-1.226562-4.292969-.734375-8.480469.941406-12.027344l-28.589844-28.585938c-3.699218-3.921874-8.941406-6.375-14.757812-6.375-4.121094 0-7.949219 1.230469-11.152344 3.34375-.046875-.050781-4.921875-4.925781-5.207031-5.203124-7.039063-7.261719-16.894531-11.777344-27.808594-11.777344-7.085937 0-13.730469 1.90625-19.449219 5.234375 12.746094 3.542969 16.921876 19.664062 7.332032 28.945312-2.296875 2.222657-.09375 6.042969 2.980468 5.164063 12.988282-3.710938 24.992188 8.296875 21.28125 21.28125zm0 0" fill="url(#y)"/><path d="m216.199219 247.640625c-.195313 0-.386719.003906-.582031.007813.378906-1.542969.582031-3.15625.582031-4.816407 0-11.207031-9.085938-20.292969-20.292969-20.292969-4.40625 0-8.484375 1.410157-11.8125 3.796876-6.929688-10.5-18.832031-17.429688-32.351562-17.429688-21.394532 0-38.738282 17.339844-38.738282 38.734375 0 .132813.003906.261719.003906.394531-13.589843 2.261719-23.949218 14.070313-23.949218 28.304688 0 15.847656 12.847656 28.695312 28.695312 28.695312h98.445313c15.847656 0 28.695312-12.847656 28.695312-28.695312 0-15.851563-12.847656-28.699219-28.695312-28.699219zm0 0" fill="url(#z)"/><path d="m244.894531 276.339844c0 15.847656-12.847656 28.695312-28.695312 28.695312-15.851563 0-28.699219-12.847656-28.699219-28.695312 0-15.851563 12.847656-28.699219 28.699219-28.699219 15.847656 0 28.695312 12.847656 28.695312 28.699219zm0 0" fill="url(#A)"/><path d="m216.199219 242.832031c0 11.207031-9.085938 20.289063-20.292969 20.289063s-20.289062-9.082032-20.289062-20.289063 9.082031-20.292969 20.289062-20.292969 20.292969 9.085938 20.292969 20.292969zm0 0" fill="url(#B)"/><path d="m190.476562 247.640625c0 21.394531-17.34375 38.738281-38.734374 38.738281-21.394532 0-38.738282-17.34375-38.738282-38.738281s17.34375-38.734375 38.738282-38.734375c21.390624 0 38.734374 17.339844 38.734374 38.734375zm0 0" fill="url(#C)"/><path d="m146.449219 276.339844c0 15.847656-12.847657 28.695312-28.695313 28.695312-15.851562 0-28.699218-12.847656-28.699218-28.695312 0-15.851563 12.847656-28.699219 28.699218-28.699219 15.847656 0 28.695313 12.847656 28.695313 28.699219zm0 0" fill="url(#D)"/><path d="m89.320312 280.246094c1.910157 14 13.910157 24.789062 28.433594 24.789062h98.445313c14.523437 0 26.523437-10.789062 28.429687-24.789062zm0 0" fill="url(#E)"/><path d="m170.652344 305.035156-1.496094-1.496094c-2.125-2.296874-5.164062-3.734374-8.539062-3.734374-.039063 0-.078126.003906-.121094.003906-.019532-.023438-.042969-.046875-.066406-.070313l-7.679688-7.679687c-3.339844-3.496094-8.046875-5.679688-13.265625-5.679688-10.132813 0-18.347656 8.214844-18.347656 18.347656 0 .050782 0 .101563.003906.148438-.21875.046875-.433594.101562-.648437.160156zm0 0" fill="url(#F)"/><path d="m444.585938 276.972656v60.765625c-4.394532-.210937-7.800782-1.464843-10.210938-3.773437l-132.265625-132.265625c-2.648437-2.53125-3.976563-5.390625-3.976563-8.585938 0-1.214843.261719-2.046875.773438-2.488281.523438-.453125 1.417969-.671875 2.683594-.671875 1.492187 0 2.519531.21875 3.058594.671875l7.78125 7.78125c.152343.121094.28125.28125.390624.449219.304688.019531.613282.03125.933594.03125 2.914063 0 5.0625-.691407 6.4375-2.078125 1.292969-1.285156 1.96875-3.300782 2.058594-6.035156-.253906-.308594-.414062-.742188-.503906-1.265626-.429688-.117187-.78125-.269531-.992188-.480468-.070312-.058594-.121094-.152344-.171875-.230469l-20.582031-20.511719c-.488281-.46875-.730469-1.382812-.730469-2.75 0-1.265625.230469-2.53125.703125-3.792968.460938-1.265626 1.222656-2.53125 2.277344-3.804688 1.054688-1.265625 2.609375-2.300781 4.648438-3.09375 2.039062-.792969 4.417968-1.195312 7.136718-1.195312 5.914063 0 9.96875 1.648437 12.167969 4.953124l10.222656 10.21875zm0 0" fill="url(#G)"/><path d="m444.585938 238.550781v66.863281l-103.886719-103.714843c-2.859375-2.53125-4.285157-6.496094-4.285157-11.886719v-20.472656c0-.167969 0-.351563.011719-.519532.078125-5.132812 1.503907-8.914062 4.273438-11.375 2.863281-2.53125 6.6875-3.796874 11.464843-3.796874 4.789063 0 8.625 1.269531 11.507813 3.796874l25.6875 25.75zm0 0" fill="url(#H)"/><path d="m444.585938 184.480469v67.925781l-50.878907-50.75c-2.902343-2.558594-4.347656-6.5625-4.347656-12.027344v-20.699218c0-5.449219 1.46875-9.457032 4.378906-12.015626 1.003907-.882812 2.109375-1.605468 3.3125-2.179687 2.320313-1.113281 5.019531-1.667969 8.101563-1.667969 4.839844 0 8.746094 1.195313 11.707031 3.59375.882813.714844 1.617187 1.496094 2.238281 2.332032zm0 0" fill="url(#I)"/><path d="m444.585938 202.269531v22.1875l-66.648438-66.652343c-2.289062-1.425782-3.816406-3.953126-3.816406-6.84375 0-4.449219 3.613281-8.074219 8.0625-8.074219 2.890625 0 5.421875 1.539062 6.847656 3.828125zm0 0" fill="url(#J)"/><path d="m298.136719 193.117188c0-1.21875.257812-2.050782.777343-2.496094.515626-.445313 1.40625-.667969 2.671876-.667969 1.5 0 2.519531.222656 3.058593.667969.539063.445312.8125 1.160156.8125 2.144531 0 1.691406.710938 3.128906 2.144531 4.328125 1.429688 1.195312 3.480469 1.792969 6.15625 1.792969 2.90625 0 5.050782-.691407 6.4375-2.074219 1.382813-1.382812 2.074219-3.601562 2.074219-6.648438v-1.335937c0-5.113281-2.863281-7.671875-8.582031-7.671875-1.597656 0-2.394531-.972656-2.394531-2.917969 0-1.992187.796875-2.988281 2.394531-2.988281 2.390625 0 4.207031-.539062 5.449219-1.617188 1.242187-1.078124 1.867187-3.121093 1.867187-6.121093 0-4.832031-2.347656-7.246094-7.035156-7.246094-2.628906 0-4.503906.546875-5.628906 1.640625-1.125 1.089844-1.6875 2.453125-1.6875 4.082031 0 2-1.175782 3-3.519532 3-1.59375 0-2.636718-.234375-3.128906-.703125-.492187-.46875-.738281-1.382812-.738281-2.746094 0-1.265624.230469-2.53125.703125-3.796874.46875-1.265626 1.230469-2.535157 2.285156-3.800782 1.054688-1.265625 2.601563-2.296875 4.644532-3.09375 2.039062-.796875 4.417968-1.195312 7.140624-1.195312 9.425782 0 14.140626 4.195312 14.140626 12.59375 0 2.851562-.503907 5.308594-1.511719 7.367187-1.011719 2.058594-2.382813 3.507813-4.117188 4.347657 4.785157 1.875 7.175781 5.503906 7.175781 10.890624v1.335938c0 5.292969-1.476562 9.167969-4.433593 11.625-2.953125 2.460938-6.824219 3.691406-11.605469 3.691406-5.066406 0-8.925781-1.269531-11.574219-3.800781-2.652343-2.535156-3.976562-5.394531-3.976562-8.585937zm0 0" fill="url(#K)"/><path d="m336.410156 189.808594v-20.472656c0-5.390626 1.429688-9.355469 4.292969-11.890626 2.859375-2.53125 6.683594-3.796874 11.464844-3.796874 4.785156 0 8.621093 1.265624 11.503906 3.796874 2.886719 2.535157 4.328125 6.5 4.328125 11.890626v20.472656c0 5.394531-1.441406 9.359375-4.328125 11.890625-2.882813 2.535156-6.71875 3.800781-11.503906 3.800781-4.78125 0-8.605469-1.265625-11.464844-3.800781-2.863281-2.53125-4.292969-6.496094-4.292969-11.890625zm7.457032 0c0 6.050781 2.765624 9.078125 8.300781 9.078125 2.675781 0 4.738281-.75 6.191406-2.25 1.457031-1.5 2.183594-3.777344 2.183594-6.828125v-20.472656c0-3.046876-.730469-5.320313-2.183594-6.824219-1.453125-1.5-3.515625-2.25-6.191406-2.25-5.53125 0-8.300781 3.023437-8.300781 9.074219zm0 0" fill="url(#L)"/><path d="m389.363281 189.636719v-20.703125c0-5.453125 1.460938-9.460938 4.375-12.023438 2.917969-2.5625 6.722657-3.839844 11.417969-3.839844 4.839844 0 8.742188 1.195313 11.703125 3.589844 2.964844 2.398438 4.449219 5.492188 4.449219 9.285156 0 1.519532-.285156 2.550782-.855469 3.09375-.570313.546876-1.542969.820313-2.917969.820313-2.464844 0-3.722656-.832031-3.769531-2.492187-.285156-5.074219-3.058594-7.609376-8.324219-7.609376-5.691406 0-8.535156 3.058594-8.535156 9.175782v20.703125c0 6.117187 2.890625 9.175781 8.679688 9.175781 1.707031 0 3.128906-.246094 4.265624-.746094 1.140626-.496094 1.957032-1.21875 2.457032-2.167968.496094-.949219.839844-1.78125 1.03125-2.492188.1875-.710938.328125-1.585938.425781-2.632812.140625-1.65625 1.375-2.488282 3.699219-2.488282 1.375 0 2.359375.273438 2.953125.820313.589843.542969.890625 1.574219.890625 3.09375 0 3.9375-1.496094 7.136719-4.484375 9.601562-2.988281 2.46875-6.902344 3.699219-11.738281 3.699219-4.695313 0-8.488282-1.277344-11.382813-3.839844-2.890625-2.5625-4.339844-6.570312-4.339844-12.023437zm0 0" fill="url(#M)"/><path d="m382.1875 159.027344c-4.449219 0-8.070312-3.621094-8.070312-8.070313 0-4.445312 3.621093-8.066406 8.070312-8.066406s8.066406 3.621094 8.066406 8.066406c0 4.449219-3.617187 8.070313-8.066406 8.070313zm0-11.75c-2.03125 0-3.683594 1.652344-3.683594 3.679687 0 2.03125 1.652344 3.683594 3.683594 3.683594s3.683594-1.652344 3.683594-3.683594c0-2.027343-1.652344-3.679687-3.683594-3.679687zm0 0" fill="url(#N)"/><path d="m298.136719 220.515625h124.847656v15.996094h-124.847656zm0 0" fill="url(#P)"/><path d="m298.136719 260.039062h124.847656v15.992188h-124.847656zm0 0" fill="url(#Q)"/><path d="m298.136719 299.554688h99.417969v15.996093h-99.417969zm0 0" fill="url(#R)"/></svg>