<svg height="512pt" viewBox="0 0 512 512.001" width="512pt" xmlns="http://www.w3.org/2000/svg" xmlns:xlink="http://www.w3.org/1999/xlink"><linearGradient id="a"><stop offset="0" stop-color="#3b395f"/><stop offset=".3952" stop-color="#39375d"/><stop offset=".6279" stop-color="#323154"/><stop offset=".8179" stop-color="#262846"/><stop offset=".9849" stop-color="#151a32"/><stop offset="1" stop-color="#131830"/></linearGradient><radialGradient id="b" cx="215.8439307844" cy="185.7256703922" gradientUnits="userSpaceOnUse" r="336.6901399656" xlink:href="#a"/><linearGradient id="c"><stop offset="0" stop-color="#131830" stop-opacity="0"/><stop offset=".8421" stop-color="#131830"/></linearGradient><linearGradient id="d" gradientUnits="userSpaceOnUse" x1="468.246787474" x2="44.5925066116" xlink:href="#c" y1="274.1909758556" y2="189.8616282478"/><linearGradient id="e" gradientUnits="userSpaceOnUse" x1="436.4682389172" x2="383.5949801198" xlink:href="#c" y1="244.690426709" y2="108.1568339246"/><linearGradient id="f" gradientUnits="userSpaceOnUse" x1="208.019161932" x2="161.7284189042" xlink:href="#c" y1="415.4165988914" y2="369.1258558636"/><linearGradient id="g"><stop offset="0" stop-color="#ecf7ff"/><stop offset=".5353" stop-color="#eaf6ff"/><stop offset=".7282" stop-color="#e3f2ff"/><stop offset=".8651" stop-color="#d8ecff"/><stop offset=".9756" stop-color="#c7e3ff"/><stop offset="1" stop-color="#c2e0ff"/></linearGradient><radialGradient id="h" cx="386.2069843794" cy="23.0398091156" gradientUnits="userSpaceOnUse" r="135.8917854498" xlink:href="#g"/><linearGradient id="i"><stop offset="0" stop-color="#ffebc9"/><stop offset=".2771" stop-color="#ffe9c5"/><stop offset=".5263" stop-color="#fee2bb"/><stop offset=".7641" stop-color="#fdd7a8"/><stop offset=".9948" stop-color="#fbc78f"/><stop offset="1" stop-color="#fbc78e"/></linearGradient><radialGradient id="j" cx="336.4707810476" cy="175.9261869658" gradientUnits="userSpaceOnUse" r="14.8554354028" xlink:href="#i"/><linearGradient id="k" gradientTransform="matrix(.709873 .709873 -.709873 .709873 -1016.440774 -190.772304)" gradientUnits="userSpaceOnUse" x1="1213.791" x2="1223.9482" y1="-489.9954" y2="-489.9954"><stop offset="0" stop-color="#ecf7ff"/><stop offset=".2926" stop-color="#e6f4ff"/><stop offset=".6915" stop-color="#d4eaff"/><stop offset="1" stop-color="#c2e0ff"/></linearGradient><linearGradient id="l" gradientTransform="matrix(.709873 .709873 -.709873 .709873 -1016.440774 -190.772304)" gradientUnits="userSpaceOnUse" x1="1253.8326" x2="1235.8312" y1="-516.2916" y2="-534.2931"><stop offset=".0029" stop-color="#c2e0ff" stop-opacity="0"/><stop offset=".188" stop-color="#b9d5f9" stop-opacity=".184314"/><stop offset=".695" stop-color="#a5bbec" stop-opacity=".694118"/><stop offset="1" stop-color="#9eb2e7"/></linearGradient><linearGradient id="m"><stop offset="0" stop-color="#ff6e3a"/><stop offset=".2336" stop-color="#ff6b3c"/><stop offset=".418" stop-color="#ff6143"/><stop offset=".5857" stop-color="#ff504e"/><stop offset=".7434" stop-color="#ff395e"/><stop offset=".8928" stop-color="#ff1b72"/><stop offset="1" stop-color="#ff0084"/></linearGradient><linearGradient id="n" gradientTransform="matrix(0 1.003922 1.003922 0 -145.495142 145.495642)" gradientUnits="userSpaceOnUse" x1="8.5324" x2="34.5324" xlink:href="#m" y1="287.7485" y2="403.7484"/><linearGradient id="o" gradientTransform="matrix(0 1.003922 1.003922 0 -145.495142 145.495642)" gradientUnits="userSpaceOnUse" x1="85.4802" x2="175.48" xlink:href="#m" y1="452.3828" y2="517.3827"/><linearGradient id="p" gradientTransform="matrix(0 1.003922 1.003922 0 -145.495142 145.495642)" gradientUnits="userSpaceOnUse" x1="25.1078" x2="64.1077" xlink:href="#m" y1="374.5571" y2="451.557"/><linearGradient id="q" gradientTransform="matrix(0 1.003922 1.003922 0 -145.495142 145.495642)" gradientUnits="userSpaceOnUse" x1="134.8013" x2="262.8013" xlink:href="#m" y1="490.1261" y2="599.1262"/><radialGradient id="r" cx="69.0308794654" cy="366.6721701034" gradientUnits="userSpaceOnUse" r="71.4344714788" xlink:href="#i"/><linearGradient id="s" gradientUnits="userSpaceOnUse" x1="303.7467387512" x2="223.4327779668" y1="381.0934092412" y2="115.0537780646"><stop offset="0" stop-color="#ff0084" stop-opacity="0"/><stop offset=".0737" stop-color="#f4087e" stop-opacity=".07451"/><stop offset=".3347" stop-color="#d2216b" stop-opacity=".333333"/><stop offset=".583" stop-color="#ba335e" stop-opacity=".584314"/><stop offset=".8111" stop-color="#ab3d56" stop-opacity=".811765"/><stop offset="1" stop-color="#a64153"/></linearGradient><linearGradient id="t" gradientUnits="userSpaceOnUse" x1="111.4224898374" x2="40.3711149938" xlink:href="#c" y1="291.8202477444" y2="220.7688729008"/><radialGradient id="u" cx="212.6393113682" cy="324.7144548198" gradientUnits="userSpaceOnUse" r="175.0471528626" xlink:href="#g"/><linearGradient id="v"><stop offset=".0029" stop-color="#c2e0ff" stop-opacity="0"/><stop offset=".0763" stop-color="#bfdcfd" stop-opacity=".07451"/><stop offset="1" stop-color="#9eb2e7"/></linearGradient><linearGradient id="w" gradientUnits="userSpaceOnUse" x1="170.8390110542" x2="168.5719543938" xlink:href="#v" y1="392.8493358612" y2="350.0989237664"/><linearGradient id="x" gradientUnits="userSpaceOnUse" x1="129.7662530136" x2="129.7662530136" xlink:href="#v" y1="324.5251151306" y2="363.5127271772"/><linearGradient id="y" gradientTransform="matrix(1.003118 .0375467 -.0375467 1.003118 -309.314261 574.988047)" gradientUnits="userSpaceOnUse" x1="338.2015" x2="359.6604" y1="-377.0052" y2="-291.9646"><stop offset="0" stop-color="#8be1e2"/><stop offset=".1873" stop-color="#87e1e1"/><stop offset=".3558" stop-color="#7ce2dd"/><stop offset=".5172" stop-color="#6ae2d7"/><stop offset=".6741" stop-color="#50e4ce"/><stop offset=".8278" stop-color="#2fe5c2"/><stop offset=".9772" stop-color="#07e7b4"/><stop offset="1" stop-color="#00e7b2"/></linearGradient><linearGradient id="z" gradientTransform="matrix(.916078 -.410704 .410704 .916078 1149.680036 -26.415787)" gradientUnits="userSpaceOnUse" x1="-1072.0697" x2="-1111.1526" y1="-184.3379" y2="-219.1513"><stop offset=".0029" stop-color="#00e7b2" stop-opacity="0"/><stop offset=".4308" stop-color="#1bc4b7" stop-opacity=".427451"/><stop offset="1" stop-color="#3b9abe"/></linearGradient><radialGradient id="A" cx="556.3752" cy="-703.1302" gradientTransform="matrix(.547639 .841387 .841387 -.547639 332.903 -615.102745)" gradientUnits="userSpaceOnUse" r="33.4876" xlink:href="#a"/><radialGradient id="B" cx="-72.6504" cy="625.9624" gradientTransform="matrix(.480678 -.881343 .881343 .480678 -238.608767 -77.382576)" gradientUnits="userSpaceOnUse" r="162.3989" xlink:href="#g"/><path d="m512 256c0 141.386719-114.613281 256-256 256-141.382812 0-256-114.613281-256-256s114.617188-256 256-256c141.386719 0 256 114.613281 256 256zm0 0" fill="url(#b)"/><path d="m509.492188 291.84375-228.757813-228.148438c-1.800781-3.554687-5.53125-5.960937-9.824219-5.835937-7.492187.214844-15.007812-.726563-22.269531-2.804687l-49.457031-48.714844c-8.035156 1.820312-15.925782 4.023437-23.65625 6.582031-50.503906 90.511719-37.300782 207.007813 39.625 283.929687l176.359375 176.359376c62.742187-39.226563 107.257812-104.871094 117.980469-181.367188zm0 0" fill="url(#d)"/><path d="m512 256c0 18.351562-1.945312 36.242188-5.613281 53.488281l-195.84375-195.882812-5.640625-5.652344c-2.992188-3.144531-5.863282-6.386719-8.5625-9.769531-2.734375-3.363282-5.292969-6.847656-7.652344-10.449219-4.726562-7.210937-8.761719-14.859375-11.542969-22.882813.449219.636719.902344 1.269532 1.375 1.890626 8.53125 11.636718 18.660157 21.554687 29.644531 30.207031.921876.742187 1.867188 1.476562 2.8125 2.179687.351563.28125.710938.550782 1.074219.824219 1.625 1.230469 3.292969 2.417969 4.957031 3.589844 1.667969 1.175781 3.34375 2.332031 5.039063 3.453125 3.394531 2.25 6.867187 4.367187 10.351563 6.425781 3.496093 2.058594 7.058593 3.976563 10.664062 5.785156.851562.441407 1.855469.953125 2.738281 1.375.882813.410157 1.746094.851563 2.640625 1.234375.882813.398438 1.765625.800782 2.671875 1.164063.890625.378906 1.785157.742187 2.6875 1.082031 14.398438 5.652344 29.789063 7.980469 44.847657 7 15.066406-.957031 29.835937-5.203125 42.988281-12.367188.722656-.394531 1.433593-.796874 2.148437-1.207031.773438-.441406 1.535156-.894531 2.296875-1.355469.273438-.171874.53125-.332031.804688-.503906 1.457031-.902344 2.890625-1.84375 4.296875-2.828125.542968-.371093 1.082031-.753906 1.617187-1.15625.5-.351562.992188-.710937 1.484375-1.09375.300782-.21875.601563-.449219.894532-.671875.5625-.433594 1.113281-.875 1.664062-1.316406.210938-.171875.421875-.339844.632812-.511719.523438-.421875 1.046876-.863281 1.566407-1.316406 1.023437-.851563 2.027343-1.746094 3.011719-2.648437 4.65625 6.304687 9.035156 12.839843 13.109374 19.574218 23.375 38.625 36.835938 83.902344 36.835938 132.339844zm0 0" fill="url(#e)"/><path d="m263.695312 511.875c1.453126-.042969 2.90625-.097656 4.355469-.164062.589844-.027344 1.179688-.054688 1.765625-.085938 1.929688-.101562 3.855469-.21875 5.777344-.363281.238281-.019531.480469-.042969.71875-.0625 1.691406-.132813 3.378906-.285157 5.0625-.449219.667969-.066406 1.332031-.136719 1.996094-.207031 1.3125-.140625 2.617187-.289063 3.921875-.449219.667969-.082031 1.335937-.160156 2-.246094 1.816406-.234375 3.628906-.484375 5.433593-.761718.523438-.078126 1.042969-.167969 1.566407-.253907 1.351562-.210937 2.695312-.433593 4.039062-.667969.777344-.136718 1.554688-.277343 2.332031-.421874 1.121094-.203126 2.238282-.421876 3.351563-.640626.777344-.15625 1.554687-.304687 2.328125-.464843 1.625-.339844 3.242188-.691407 4.859375-1.058594.804687-.183594 1.605469-.382813 2.410156-.574219 1.070313-.253906 2.140625-.511718 3.207031-.78125.867188-.21875 1.730469-.441406 2.589844-.667968.964844-.257813 1.929688-.519532 2.890625-.785157.847657-.230469 1.695313-.464843 2.539063-.707031 1.574218-.449219 3.144531-.917969 4.707031-1.398438.019531-.007812.039063-.011718.058594-.015624 26.105469-8.058594 50.429687-20.179688 72.226562-35.628907-57.019531-61.964843-171.359375-179.761719-174.226562-182.628906-3.859375-3.859375-10.121094-3.859375-13.980469 0l-147.488281 147.492187c1.449219 1.566407 2.921875 3.113282 4.410156 4.640626.023437.027343.050781.054687.074219.078124 1.464844 1.507813 2.953125 2.992188 4.453125 4.460938.042969.042969.085937.082031.125.125 1.492187 1.453125 3.003906 2.894531 4.53125 4.3125.046875.046875.097656.089844.144531.136719 1.527344 1.417969 3.074219 2.816406 4.632812 4.199219.046876.039062.09375.082031.140626.121093 1.574218 1.390625 3.164062 2.761719 4.773437 4.113281.03125.027344.0625.054688.09375.078126 16.460937 13.824218 34.6875 25.613281 54.292969 34.980468.046875.019532.09375.042969.140625.0625 1.867187.890625 3.746093 1.757813 5.636719 2.605469.285156.128906.574218.25.859374.375 1.65625.734375 3.316407 1.453125 4.992188 2.152344.441406.1875.886719.363281 1.332031.546875 1.523438.625 3.054688 1.242187 4.59375 1.839844.550781.214843 1.105469.421874 1.65625.632812 1.441407.546875 2.886719 1.085938 4.339844 1.609375.632813.230469 1.273437.449219 1.90625.671875 1.382813.484375 2.769531.960938 4.164063 1.421875.695312.234375 1.398437.457031 2.097656.683594 1.34375.433593 2.6875.855469 4.035156 1.265625.753906.226562 1.507812.449218 2.265625.671875 1.308594.386719 2.621094.757812 3.9375 1.121093.796875.222657 1.597656.4375 2.398437.652344 1.285157.339844 2.574219.671875 3.871094.992188.832032.207031 1.671875.414062 2.507813.613281 1.269531.300781 2.546875.589844 3.820312.875.871094.191406 1.738281.382813 2.609375.566406 1.257813.265625 2.523438.515625 3.789063.761719.890625.175781 1.785156.351562 2.679687.515625 1.257813.230469 2.523438.445313 3.785156.660156.910157.152344 1.820313.308594 2.730469.449219 1.261719.199219 2.53125.378906 3.796875.558594.925782.132812 1.84375.269531 2.769532.390625 1.273437.164062 2.554687.3125 3.832031.460937.925781.105469 1.847656.21875 2.777343.316406 1.304688.136719 2.617188.25 3.925782.363282.90625.082031 1.816406.171875 2.726562.242187 1.363282.105469 2.734375.191407 4.105469.273438.863281.054687 1.726563.121093 2.59375.164062 1.507813.078125 3.019531.128907 4.535156.183594.734375.023437 1.46875.0625 2.203125.082031 2.253906.058594 4.511719.089844 6.78125.089844 1.984375 0 3.960938-.027344 5.9375-.074219.582032-.015625 1.167969-.03125 1.753906-.050781zm0 0" fill="url(#f)"/><path d="m277.144531 64.855469c9.804688 13.832031 21.824219 25.285156 34.902344 35.101562 1.632813 1.226563 3.292969 2.414063 4.960937 3.589844 1.664063 1.175781 3.34375 2.332031 5.042969 3.453125 3.390625 2.25 6.871094 4.363281 10.351563 6.425781 3.496094 2.050781 7.054687 3.972657 10.652344 5.777344.863281.445313 1.867187.953125 2.746093 1.375.882813.414063 1.75.859375 2.640625 1.242187.886719.398438 1.769532.800782 2.667969 1.160157.890625.382812 1.789063.742187 2.695313 1.085937 14.398437 5.648438 29.78125 7.976563 44.847656 6.988282 15.066406-.945313 29.832031-5.191407 42.980468-12.359376 13.160157-7.152343 24.695313-17.183593 33.597657-29.335937 1.128906-1.511719 2.195312-3.066406 3.242187-4.636719l1.5-2.367187c.390625-.679688.820313-1.34375 1.171875-2.042969.390625-.683594.695313-1.40625 1.042969-2.113281.285156-.726563.621094-1.441407.859375-2.191407.535156-1.476562.976563-2.996093 1.292969-4.546874.339844-1.550782.535156-3.132813.625-4.726563.105468-1.597656.074218-3.210937-.078125-4.816406-.054688-.808594-.1875-1.605469-.277344-2.414063-.144531-.796875-.261719-1.605468-.460937-2.394531-.355469-1.589844-.820313-3.167969-1.425782-4.699219-.597656-1.53125-1.285156-3.039062-2.117187-4.472656-.8125-1.441406-1.691407-2.867188-2.726563-4.1875-2.023437-2.675781-4.492187-5.046875-7.269531-7.097656-1.378906-1.039063-2.855469-1.964844-4.394531-2.78125-1.527344-.84375-3.144532-1.527344-4.800782-2.136719-3.304687-1.230469-6.851562-1.984375-10.484374-2.1875-1.816407-.140625-3.65625-.117187-5.503907.027344-1.847656.128906-3.695312.429687-5.527343.839843-1.84375.390626-3.671876.929688-5.457032 1.617188-1.789062.683594-3.554687 1.480469-5.257812 2.421875-1.714844.929687-3.371094 2-4.953125 3.199219-1.597657 1.183594-3.125 2.496094-4.542969 3.945312-.742188.699219-1.402344 1.46875-2.105469 2.222656-.65625.792969-1.308593 1.566407-1.96875 2.410157-1.3125 1.667969-2.640625 3.324219-3.988281 4.96875.757812-1.984375 1.535156-3.960938 2.328125-5.925781.375-.984376.851563-1.980469 1.292969-2.976563.496094-.96875.972656-1.964844 1.542968-2.90625 2.210938-3.816406 5.074219-7.347656 8.476563-10.371094.835937-.773437 1.730469-1.480469 2.628906-2.199219.925781-.667968 1.851563-1.359374 2.832031-1.964843 1.933594-1.261719 3.976563-2.375 6.113282-3.332031 2.128906-.964844 4.351562-1.753907 6.632812-2.371094 2.28125-.625 4.621094-1.109375 7-1.382813 4.753906-.539062 9.648438-.371093 14.460938.53125 2.402344.46875 4.785156 1.105469 7.101562 1.949219 2.324219.824219 4.597656 1.816406 6.78125 2.988281 8.753906 4.671875 16.292969 12.167969 20.917969 21.304688 1.1875 2.269531 2.175781 4.644531 3.007813 7.078125.832031 2.433594 1.507812 4.9375 1.933593 7.488281.453125 2.546875.71875 5.136719.773438 7.738281.074219 2.601563-.039063 5.21875-.371094 7.8125-.316406 2.597656-.796875 5.1875-1.539063 7.710938-.332031 1.273437-.78125 2.507812-1.203124 3.757812-.476563 1.222656-.933594 2.460938-1.496094 3.648438-.523438 1.210937-1.132813 2.371094-1.746094 3.535156-.582031 1.066406-1.136719 2.03125-1.714844 3.046875-1.175781 1.988281-2.386718 3.960937-3.675781 5.886719-10.261719 15.445312-24.5 28.34375-40.90625 37.132812-16.394531 8.828125-34.933594 13.539063-53.4375 13.652344-9.253906.078125-18.480469-1.070312-27.414063-3.21875-4.46875-1.066406-8.84375-2.480469-13.117187-4.101562-4.273437-1.628907-8.449219-3.484376-12.449219-5.648438-1.003906-.527344-1.996094-1.078125-2.976562-1.648438-.992188-.550781-1.960938-1.144531-2.925782-1.730468-.976562-.574219-1.914062-1.207032-2.871093-1.808594l-2.699219-1.78125c-3.644531-2.449219-7.191406-5.007812-10.636719-7.683594-3.460937-2.65625-6.78125-5.484375-10.019531-8.386718-1.617188-1.453126-3.203125-2.933594-4.773438-4.4375-1.546874-1.523438-3.078124-3.0625-4.570312-4.636719-2.996094-3.136719-5.867188-6.386719-8.570312-9.769531-2.722657-3.359376-5.285157-6.847657-7.652344-10.449219-4.726563-7.203125-8.757813-14.855469-11.539063-22.875zm0 0" fill="url(#h)"/><path d="m336.796875 190.78125-15.183594-15.179688 11.386719-11.386718c4.191406-4.191406 10.988281-4.191406 15.179688 0 4.195312 4.191406 4.195312 10.988281 0 15.179687zm0 0" fill="url(#j)"/><path d="m269.191406 256.792969-149.390625 149.390625-13.980469-13.984375 149.386719-149.390625c3.859375-3.859375 10.125-3.859375 13.984375 0s3.859375 10.125 0 13.984375zm0 0" fill="url(#k)"/><path d="m269.191406 242.808594c-3.863281-3.859375-10.121094-3.859375-13.984375 0l-47.050781 47.050781v27.96875l61.035156-61.035156c3.863282-3.863281 3.859375-10.125 0-13.984375zm0 0" fill="url(#l)"/><path d="m506.886719 331.929688c7.71875-4.703126 6.457031-16.40625-2.148438-19.171876-10.6875-3.4375-20.738281-9.402343-29.222656-17.886718-14.808594-14.808594-21.933594-34.382813-21.375-53.78125.175781-6.148438-4.828125-11.152344-10.976563-10.976563-19.398437.558594-38.972656-6.566406-53.777343-21.367187-14.808594-14.808594-21.929688-34.386719-21.371094-53.78125.175781-6.152344-4.828125-11.152344-10.980469-10.976563-19.394531.554688-38.96875-6.566406-53.78125-21.375-14.800781-14.804687-21.921875-34.378906-21.367187-53.773437.175781-6.152344-4.828125-11.15625-10.976563-10.980469-19.398437.558594-38.972656-6.566406-53.78125-21.375-8.484375-8.484375-14.449218-18.535156-17.886718-29.222656-2.765626-8.605469-14.46875-9.867188-19.171876-2.148438-55.765624 91.53125-44.074218 212.585938 35.078126 291.738281 79.152343 79.148438 200.207031 90.84375 291.738281 35.078126zm0 0" fill="url(#n)"/><path d="m450.597656 232.816406c-1.957031-1.746094-4.574218-2.78125-7.433594-2.703125-.082031 0-.160156.003907-.242187.003907-.417969.015624-.847656.023437-1.265625.023437-.222656 0-.441406.007813-.652344-.007813-.445312.015626-.898437.007813-1.347656-.007812-.125 0-.253906 0-.378906-.015625-.53125 0-1.054688-.019531-1.570313-.046875-1.929687-.085938-3.867187-.246094-5.796875-.496094-.328125-.035156-.648437-.078125-.980468-.125-.453126-.0625-.914063-.132812-1.375-.203125-.894532-.140625-1.796876-.300781-2.6875-.476562-.675782-.132813-1.359376-.285157-2.046876-.441407-.644531-.140624-1.285156-.292968-1.921874-.46875-.175782-.035156-.328126-.074218-.496094-.117187-.589844-.152344-1.175782-.320313-1.761719-.488281-.078125-.023438-.167969-.042969-.246094-.078125-.621093-.175781-1.230469-.363281-1.839843-.566407-.074219-.019531-.144532-.035156-.214844-.0625-.691406-.230468-1.382813-.460937-2.0625-.707031-.789063-.285156-1.59375-.585937-2.378906-.90625-.550782-.21875-1.097657-.441406-1.640626-.679687-.113281-.042969-.21875-.089844-.320312-.140625-.476562-.195313-.9375-.40625-1.398438-.628907-.339843-.140624-.671874-.292968-.996093-.460937-.089844-.035156-.171875-.078125-.257813-.117187-.503906-.238282-1-.484376-1.496094-.742188-.992187-.503906-1.976562-1.042969-2.957031-1.601562-.148437-.078126-.292969-.167969-.441406-.257813-.445313-.253906-.886719-.511719-1.3125-.785156-.089844-.046875-.191406-.105469-.28125-.167969-.480469-.285156-.949219-.585938-1.410156-.894531-.070313-.042969-.140625-.082031-.203125-.132813-.425782-.273437-.847656-.554687-1.273438-.839844-.363281-.25-.726562-.503906-1.082031-.761718-.734375-.511719-1.453125-1.046875-2.167969-1.59375-.328125-.246094-.65625-.503906-.972656-.761719-.257812-.203125-.515625-.40625-.769531-.617187-.238281-.195313-.476563-.390626-.707031-.59375-.355469-.285157-.703126-.578126-1.039063-.886719-.1875-.148438-.363281-.308594-.546875-.476563-.398438-.34375-.789062-.707031-1.179688-1.070312-.691406-.636719-1.378906-1.292969-2.058593-1.972656-.667969-.667969-1.320313-1.347657-1.957031-2.039063-.375-.40625-.746094-.804687-1.101563-1.21875-.148437-.160156-.289063-.3125-.429687-.480469-.328126-.371094-.65625-.753906-.972657-1.140625-.171875-.203125-.332031-.40625-.5-.613281-.246093-.289062-.476562-.574219-.707031-.875-.238281-.292969-.476562-.601562-.707031-.902344-.816407-1.070312-1.609375-2.152344-2.355469-3.25-.253906-.363281-.496094-.734375-.730469-1.105468-.117187-.160157-.222656-.320313-.328125-.496094-.257812-.382813-.5-.769532-.730468-1.167969-.140626-.207031-.265626-.417969-.394532-.640625-.207031-.324219-.402344-.660156-.601562-.996094-.125-.222656-.25-.433594-.367188-.660156-.539062-.933594-1.042968-1.867188-1.53125-2.820312-.261718-.496094-.503906-.992188-.742187-1.496094-.042969-.082032-.082031-.167969-.117188-.257813-.167969-.320312-.316406-.652343-.464843-.992187-.222657-.460938-.433594-.921875-.625-1.398438-.050782-.105468-.101563-.210937-.140626-.324218-.238281-.542969-.464843-1.089844-.679687-1.640626-.320313-.78125-.621094-1.589843-.917969-2.386718-.242187-.691406-.480468-1.390625-.710937-2.097656-.007813-.003907-.007813-.019532-.007813-.03125-.230468-.695313-.445312-1.402344-.648437-2.105469-.183594-.628907-.355469-1.253907-.523438-1.882813-.042969-.164062-.085937-.320312-.121093-.496094-.175782-.636718-.328126-1.277343-.46875-1.921874-.152344-.683594-.308594-1.367188-.441407-2.046876-.171875-.890624-.335937-1.789062-.476562-2.683593-.066407-.464844-.136719-.925781-.199219-1.378907-.050781-.328124-.09375-.652343-.128906-.980468-.074219-.566406-.136719-1.144532-.203125-1.726563-.066407-.699219-.128907-1.417969-.179688-2.125-.097656-1.300781-.148437-2.59375-.175781-3.894531-.015625-.449219-.019531-.902344-.007812-1.347656-.011719-.210938-.007813-.429688-.007813-.652344 0-.417969.007813-.847656.023437-1.265625 0-.082031.007813-.160156.007813-.242187.089844-3.070313-1.117187-5.859376-3.117187-7.859376l-149.75 149.75c41.96875 41.96875 141.140624 12.976563 235.449218-64.035156zm0 0" fill="url(#o)"/><path d="m215.148438 296.851562 149.75-149.746093c-2-2-4.789063-3.210938-7.859376-3.117188-.085937 0-.160156.003907-.246093.003907-.417969.015624-.84375.023437-1.265625.023437-.222656 0-.4375.007813-.648438-.007813-.445312.015626-.902344.007813-1.347656-.007812-1.300781-.027344-2.59375-.078125-3.894531-.175781-.707031-.046875-1.429688-.109375-2.125-.179688-.582031-.066406-1.164063-.128906-1.726563-.203125-.332031-.035156-.652344-.078125-.980468-.128906-.453126-.0625-.917969-.132812-1.378907-.199219-.894531-.140625-1.796875-.300781-2.683593-.476562-.679688-.132813-1.363282-.289063-2.046876-.441407-.644531-.140624-1.289062-.292968-1.925781-.46875-.175781-.035156-.328125-.078124-.496093-.117187-.628907-.167969-1.25-.34375-1.878907-.523437-.707031-.203126-1.414062-.421876-2.105469-.652344-.015624 0-.027343 0-.035156-.007813-.707031-.230469-1.402344-.464843-2.097656-.710937-.796875-.292969-1.601562-.59375-2.382812-.914063-.554688-.21875-1.097657-.441406-1.644532-.679687-.109375-.042969-.214844-.09375-.320312-.140625-.476563-.195313-.9375-.40625-1.398438-.628907-.34375-.148437-.671875-.292968-.992187-.460937-.09375-.035156-.175781-.078125-.261719-.121094-.5-.234375-.996094-.480469-1.496094-.738281-.949218-.488281-1.886718-.992188-2.816406-1.53125-.230469-.117188-.441406-.246094-.664062-.371094-.335938-.195312-.671876-.390625-.992188-.601562-.222656-.125-.433594-.25-.644531-.390625-.398438-.230469-.78125-.476563-1.167969-.734375-.171875-.105469-.332031-.210938-.496094-.328125-.367187-.230469-.738281-.476563-1.105468-.726563-1.09375-.75-2.179688-1.539062-3.25-2.359375-.300782-.230469-.605469-.46875-.902344-.707031-.296875-.226562-.585938-.457031-.871094-.703125-.210938-.167969-.414062-.328125-.617188-.503906-.382812-.3125-.761718-.636719-1.132812-.964844-.164062-.140625-.328125-.285156-.488281-.433594-.410157-.355469-.808594-.726562-1.214844-1.105469-.691406-.636718-1.371094-1.285156-2.042969-1.957031-.675781-.679687-1.335937-1.363281-1.96875-2.054687-.363281-.394532-.730468-.785156-1.070312-1.183594-.167969-.179688-.328125-.355469-.476563-.542969-.308593-.335937-.601562-.6875-.886719-1.042969-.203124-.230468-.398437-.46875-.597656-.707031-.207031-.25-.410156-.507812-.613281-.769531-.257813-.3125-.515625-.644531-.761719-.972656-.546875-.710938-1.082031-1.433594-1.59375-2.164063-.261718-.359375-.511718-.722656-.761718-1.085937-.289063-.425782-.566407-.84375-.839844-1.273438-.050782-.0625-.09375-.132812-.132813-.203125-.308593-.460937-.609375-.929687-.894531-1.410156-.066406-.089844-.121094-.1875-.167969-.28125-.273437-.425781-.53125-.863281-.785156-1.3125-.089844-.148437-.183594-.292969-.257813-.441406-.558593-.976563-1.097656-1.964844-1.601562-2.957031-.257812-.496094-.503906-.992188-.742188-1.496094-.039062-.082032-.082031-.167969-.117187-.257813-.167969-.320312-.320313-.65625-.460937-.992187-.226563-.460938-.433594-.921875-.628907-1.398438-.050781-.105468-.097656-.210937-.140625-.320312-.238281-.546875-.460937-1.09375-.679687-1.644532-.320313-.785156-.621094-1.585937-.90625-2.378906-.246094-.675781-.476563-1.367187-.707031-2.0625-.027344-.066406-.042969-.140625-.0625-.214844-.203126-.609374-.394532-1.21875-.566407-1.839843-.035156-.074219-.058593-.167969-.078125-.242188-.167968-.589843-.335937-1.175781-.488281-1.761719-.042969-.171874-.085937-.324218-.121094-.5-.171875-.636718-.328125-1.277343-.46875-1.921874-.152343-.683594-.304687-1.371094-.4375-2.046876-.175781-.890624-.335937-1.789062-.476562-2.6875-.070313-.460937-.140625-.921874-.203125-1.375-.046875-.328124-.089844-.648437-.125-.980468-.25-1.929688-.414063-3.863282-.496094-5.792969-.027344-.519531-.050781-1.042969-.050781-1.574219-.011719-.125-.011719-.25-.011719-.378906-.015625-.445312-.023438-.898438-.007812-1.347656-.015626-.210938-.007813-.425782-.007813-.648438 0-.421875.007813-.847656.023437-1.265625 0-.085937.003907-.160156.003907-.246093.078125-2.859376-.957031-5.472657-2.703125-7.429688-77.011719 94.304688-106.003906 193.476562-64.035156 235.445312zm0 0" fill="url(#p)"/><path d="m507.015625 331.84375c-.039063.027344-.082031.054688-.125.082031-1.746094 1.066407-3.5 2.105469-5.269531 3.117188-.5625.324219-1.121094.644531-1.679688.953125-2.019531 1.140625-4.054687 2.25-6.109375 3.328125-.722656.382812-1.441406.753906-2.160156 1.125-.027344.015625-.058594.027343-.085937.039062-.730469.371094-1.460938.734375-2.1875 1.101563-.738282.375-1.480469.738281-2.230469 1.097656-4.710938 2.292969-9.488281 4.410156-14.320313 6.375-1.515625.621094-3.03125 1.214844-4.5625 1.796875-.644531.253906-1.289062.488281-1.929687.726563-.652344.246093-1.292969.480468-1.945313.714843-.777344.285157-1.542968.550781-2.320312.824219-.679688.246094-1.359375.476562-2.050782.707031-1.433593.496094-2.886718.972657-4.339843 1.433594-.636719.199219-1.273438.402344-1.902344.601563-.34375.101562-.691406.214843-1.039063.3125-1.566406.476562-3.132812.9375-4.699218 1.386718-3.617188 1.011719-7.230469 1.941406-10.878906 2.78125-.664063.160156-1.328126.308594-1.992188.453125-.867188.195313-1.726562.386719-2.585938.5625-.699218.152344-1.394531.300781-2.085937.433594-1.292969.257813-2.578125.507813-3.878906.746094-.796875.152343-1.59375.292969-2.398438.425781-5.230469.910156-10.488281 1.652344-15.75 2.203125-.664062.078125-1.328125.140625-2 .210937-.617187.054688-1.214843.109376-1.832031.167969-.710938.070313-1.425781.125-2.152344.179688-.804687.0625-1.617187.132812-2.417968.183593-1.386719.097657-2.757813.183594-4.132813.257813-.796875.042969-1.59375.085937-2.390625.113281-6.238281.265625-12.472656.292969-18.710938.070313-.878906-.03125-1.753906-.066407-2.636718-.105469-.535156-.023438-1.074219-.054688-1.613282-.078125-.699218-.042969-1.40625-.074219-2.109374-.125-.804688-.050781-1.617188-.105469-2.429688-.160156-.808594-.058594-1.613281-.117188-2.421875-.1875-1.527344-.128907-3.066406-.269531-4.585937-.421875-.875-.089844-1.75-.179688-2.621094-.285156-5.34375-.601563-10.65625-1.386719-15.941406-2.351563-.785157-.136719-1.574219-.285156-2.359376-.4375-.550781-.105469-1.101562-.210937-1.660156-.320313-.582031-.121093-1.164062-.238281-1.75-.363281-2.648437-.554687-5.292968-1.140625-7.925781-1.792969-1.328125-.320312-2.652344-.648437-3.972656-.992187-4.425781-1.164063-8.835938-2.460937-13.207031-3.878906-.761719-.246094-1.515626-.496094-2.277344-.753907-8.125-2.726562-16.128906-5.910156-23.976563-9.542968-.515625-.238282-1.03125-.476563-1.542969-.722656-7.179687-3.390626-14.234374-7.15625-21.128906-11.3125-.671875-.402344-1.347656-.816407-2.011718-1.230469-.582032-.355469-1.164063-.710938-1.734376-1.074219-.480468-.300781-.949218-.601562-1.433593-.902344-.601563-.390625-1.21875-.78125-1.824219-1.179687-.511719-.332031-1.015625-.667969-1.523438-1.011719-3.253906-2.144531-6.460937-4.386719-9.636718-6.722656-1.269532-.9375-2.53125-1.886719-3.789063-2.851563-.769531-.589843-1.53125-1.183593-2.300781-1.785156-.667969-.53125-1.339844-1.0625-2.003906-1.601563-.53125-.417968-1.054688-.84375-1.574219-1.277343-.460937-.378907-.921875-.753907-1.382813-1.132813-.601562-.503906-1.203124-1.007812-1.804687-1.523437-.644531-.546875-1.285156-1.089844-1.921875-1.644531-.769531-.671876-1.546875-1.347657-2.316406-2.03125-.675782-.597657-1.339844-1.203126-2.003906-1.8125-.398438-.355469-.796876-.714844-1.183594-1.085938-.460938-.417969-.914063-.832031-1.371094-1.257812-.664062-.621094-1.320312-1.25-1.984375-1.886719-1.257813-1.203125-2.503906-2.417969-3.742187-3.65625 41.96875 41.96875 141.144531 12.976562 235.449218-64.035157 2.25 2.027344 3.640625 4.984376 3.542969 8.269532 0 .128906-.007813.261718-.007813.386718-.011718.320313-.019531.648438-.011718.980469-.007813.453125-.007813.914063.007812 1.363281-.015625.136719-.015625.277344-.007812.410157.007812.691406.027344 1.398437.0625 2.089843.019531.734376.0625 1.460938.117187 2.203126.058594.742187.121094 1.476562.203125 2.203124.0625.664063.140625 1.328126.230469 1.976563.015625.140625.03125.28125.050781.414063.089844.664062.1875 1.335937.300782 1.992187.117187.734375.246093 1.460937.390624 2.179687.007813.035157.015626.070313.015626.097657.140624.6875.285156 1.378906.445312 2.070312.148438.679688.308594 1.34375.484375 2.007813.027344.109375.046875.214844.082031.320312.160156.636719.335938 1.273438.53125 1.902344.007813.050781.023438.105469.035156.148438.1875.648437.386719 1.292968.601563 1.929687.519531 1.605469 1.082031 3.195313 1.726563 4.757813.175781.46875.371093.933593.574218 1.386718.070313.195313.160156.382813.246094.566406.152344.375.320312.753907.496094 1.125.175781.382813.347656.769532.535156 1.136719.539062 1.140625 1.113281 2.261719 1.722656 3.371094.140625.265625.285156.539063.445313.796875.203125.386719.421875.769531.644531 1.148438.125.222656.257812.441406.398438.648437.195312.351563.40625.6875.617187 1.019531.179687.308594.367187.609375.570313.898438.167968.277344.34375.550781.53125.824218.183593.292969.378906.574219.566406.859376.308594.445312.625.902343.957031 1.347656.464844.671875.953125 1.328125 1.464844 1.980468.1875.257813.390625.519532.597656.769532.269531.347656.539063.691406.820313 1.027344.140624.179687.285156.355468.441406.523437.328125.398437.65625.796875.996094 1.183594.140624.167969.28125.320312.425781.480469.359375.414062.734375.816406 1.105469 1.214843.636718.695313 1.289062 1.371094 1.960937 2.042969.46875.46875.9375.921875 1.410156 1.371094.246094.230468.488281.460937.742188.683594.355469.34375.730469.679687 1.105469 1.007812.472656.433594.964843.855469 1.453124 1.257812.171876.148438.347657.292969.523438.441407.371094.300781.734375.59375 1.109375.886719.226563.183593.441406.359374.664063.527343.238281.179688.484374.367188.730468.542969.320313.253906.648438.496094.984375.734375.480469.355469.972657.707031 1.46875 1.050781.390625.277344.773438.535156 1.175781.796875.730469.480469 1.464844.949219 2.214844 1.402344.476563.292969.957032.582031 1.441406.855469.089844.0625.179688.109375.269532.160156.253906.152344.503906.292969.75.425781.445312.25.894531.503907 1.347656.734375.46875.257813.953125.503906 1.425781.738282.308594.15625.617188.308593.933594.457031.402344.207031.824219.402343 1.242187.585937.964844.460938 1.9375.875 2.921876 1.273438.460937.195312.921874.378906 1.386718.558594 1.1875.460937 2.390625.898437 3.597656 1.28125.105469.035156.21875.074218.320313.109374 8.554687 2.746094 9.855469 14.339844 2.28125 19.085938zm0 0" fill="url(#q)"/><path d="m104.191406 391.125-23.476562 23.476562c-3.527344 3.527344-9.226563 4-13.066406.820313-4.410157-3.648437-4.636719-10.222656-.683594-14.175781l13.4375-13.4375c4.480468-4.480469 4.902344-11.773438.648437-16.46875-4.546875-5.019532-12.335937-5.164063-17.066406-.433594l-13.265625 13.265625c-13.113281 13.113281-13.339844 34.804687-.003906 47.691406 12.953125 12.519531 33.671875 12.382813 46.457031-.402343l23.675781-23.675782c3.953125-3.953125 3.953125-10.355468 0-14.304687l-2.351562-2.355469c-3.949219-3.949219-10.355469-3.949219-14.304688 0zm0 0" fill="url(#r)"/><path d="m158.089844 197.890625c-.707032.246094-1.402344.53125-2.109375.796875 11.027343 35.917969 30.75 69.742188 59.171875 98.160156 48.644531 48.648438 113.117187 71.804688 176.839844 69.488282l-146.480469-146.480469c-5.847657-6.394531-12.761719-11.820313-20.324219-16.085938-10.050781-5.667969-21.359375-9.199219-32.898438-10.191406-11.53125-.976563-23.222656.484375-34.199218 4.3125zm0 0" fill="url(#s)"/><path d="m77.574219 185.386719c-2.210938-3.097657-6.308594-4.394531-9.957031-2.914063-99.761719 40.511719-38.792969 99.492188-38.792969 99.492188.03125-.007813.058593-.015625.085937-.023438l98.160156 98.269532c75.703126-20.386719 58.5-75.496094 49.5625-95.164063-.628906-1.382813-1.589843-2.507813-2.742187-3.339844zm0 0" fill="url(#t)"/><path d="m366.140625 417.859375c-16.605469 8.523437-34.664063 13.675781-52.835937 15.316406l-3.402344.316407-3.414063.152343c-2.28125.089844-4.5.214844-6.945312.230469l-6.867188-.070312-1.710937-.019532-1.714844-.105468-3.417969-.207032c-9.097656-.644531-18.125-1.855468-26.945312-3.914062-17.609375-4.203125-34.5-10.992188-49.707031-20.476563-7.613282-4.710937-14.828126-10.023437-21.550782-15.871093l-2.492187-2.226563c-.824219-.75-1.695313-1.445313-2.472657-2.242187l-4.789062-4.648438-4.554688-4.867188c-1.519531-1.621093-2.898437-3.367187-4.355468-5.039062-2.183594-2.652344-4.285156-5.371094-6.3125-8.140625l9.566406-.21875 7.183594-.164063 4-.207031c1.34375-.066406 2.675781-.261719 4.015625-.394531 5.347656-.640625 10.664062-1.761719 15.84375-3.363281 5.183593-1.597657 10.238281-3.667969 15.074219-6.1875 4.832031-2.523438 9.414062-5.535157 13.710937-8.917969 8.589844-6.773438 15.976563-15.121094 21.691406-24.5625 5.710938-9.4375 9.648438-20.007812 11.578125-30.953125.96875-5.472656 1.441406-11.039063 1.429688-16.601563-.035156-1.390624-.027344-2.765624-.105469-4.179687-.109375-1.417969-.179687-2.839844-.34375-4.257813-.316406-2.832031-.757813-5.65625-1.359375-8.453124-2.402344-11.191407-7.230469-21.898438-14.042969-31.152344-6.777343-9.296875-15.671875-17-25.710937-22.664063-10.046875-5.667969-21.355469-9.199219-32.898438-10.191406-11.527344-.976563-23.21875.484375-34.195312 4.3125-10.953125 3.828125-21.113282 9.960937-29.492188 17.96875-8.375 8.011719-15.050781 17.773437-19.453125 28.507813-4.390625 10.730468-6.480469 22.429687-6.023437 33.96875l.097656 2.160156c.039062.707031.113281 1.304687.167969 1.964844l.734375 7.726562.550781 3.84375.5625 3.839844.285156 1.921875.375 1.902343c.507813 2.539063.988281 5.082032 1.527344 7.613282 2.308594 10.09375 5.460937 19.992187 9.453125 29.527344 1.527344 3.707031 3.1875 7.355468 4.960938 10.941406-2.21875-.097656-4.4375-.230469-6.65625-.410156-9.21875-.6875-18.414063-2.042969-27.503907-4.046876-9.09375-2.003906-18.050781-4.714843-26.847656-8-8.773437-3.347656-17.328125-7.242187-25.210937-12.339843-3.953126-2.527344-7.734376-5.359375-11.265626-8.515625-3.523437-3.164063-6.832031-6.625-9.886718-10.332032 4.730468 8.375 11.121094 15.902344 18.53125 22.339844 7.453125 6.402344 15.859375 11.652344 24.523437 16.183594 8.675781 4.550781 17.773438 8.367188 27.117188 11.550781 9.355469 3.152344 19 5.503907 28.777343 7.234375 5.722657 1.003906 11.496094 1.707032 17.300782 2.175782 16.609375 26.40625 39.976562 48.394531 67.160156 63.054687 8.929688 4.949219 18.355469 8.9375 27.976562 12.1875 9.628907 3.242187 19.5 5.699219 29.492188 7.253906 19.996094 3.03125 40.363281 2.640625 59.945312-.964843 9.863282-1.886719 19.515626-4.679688 28.734376-8.4375 9.222656-3.746094 18.007812-8.445313 26.175781-13.953126 8.183593-5.484374 15.746093-11.792968 22.570312-18.734374 6.769531-7 12.902344-14.539063 18.039063-22.667969-12.832032 14.308593-28.0625 26-44.667969 34.503906zm-230.472656-162.570313c2.914062-6.96875 7.316406-13.324218 12.8125-18.519531 5.449219-5.25 12.03125-9.277343 19.132812-11.808593 7.089844-2.535157 14.804688-3.53125 22.363281-2.972657 7.554688.503907 14.984376 2.667969 21.683594 6.285157 6.710938 3.601562 12.671875 8.644531 17.398438 14.664062 4.726562 6.03125 8.175781 13.054688 10.027344 20.539062.464843 1.871094.816406 3.773438 1.097656 5.6875.144531.960938.207031 1.929688.324218 2.894532.097657.972656.125 1.996094.199219 2.992187.179688 4.011719.011719 8.035157-.519531 12.019531-.53125 3.980469-1.421875 7.925782-2.664062 11.765626-1.25 3.839843-2.882813 7.558593-4.792969 11.144531-3.824219 7.167969-8.972657 13.6875-15.140625 19.121093-6.167969 5.425782-13.308594 9.828126-21.082032 12.773438-3.878906 1.484375-7.910156 2.617188-12.027343 3.390625-1.035157.164063-2.0625.402344-3.105469.515625l-3.160156.402344-7.148438.710937-14.304687 1.421875-3.574219.355469-1.578125.148437c-3.617187-6.492187-6.777344-13.222656-9.390625-20.164062-3.117188-8.242188-5.679688-16.679688-7.484375-25.296875l-1.179687-6.492187-.292969-1.621094-.210938-1.636719-.417969-3.273437-.414062-3.273438-.246094-3.292969-.253906-3.289062c-.039062-.535157-.101562-1.125-.117188-1.613281l-.03125-1.429688c-.164062-7.601562 1.175782-15.171875 4.097657-22.148438zm0 0" fill="url(#u)"/><path d="m169.804688 409.832031h40.609374c-.410156-.25-.824218-.496093-1.234374-.753906-7.613282-4.707031-14.828126-10.019531-21.550782-15.867187l-2.492187-2.226563c-.824219-.75-1.695313-1.445313-2.472657-2.246094l-4.789062-4.644531-4.554688-4.867188c-1.519531-1.621093-2.898437-3.371093-4.355468-5.042968-2.183594-2.652344-4.285156-5.367188-6.3125-8.136719l-31.933594-.429687c10.550781 16.773437 23.835938 31.753906 39.085938 44.214843zm0 0" fill="url(#w)"/><path d="m142.21875 328.652344c-2.140625-5.65625-4.011719-11.414063-5.566406-17.253906h-28.726563c2.257813 9.367187 5.234375 18.5625 8.953125 27.4375 1.527344 3.707031 3.183594 7.351562 4.960938 10.9375l29.765625-.953126c-3.613281-6.496093-6.773438-13.222656-9.386719-20.167968zm0 0" fill="url(#x)"/><path d="m28.824219 281.964844s-60.96875-58.980469 38.792969-99.492188c4.164062-1.691406 8.910156.238282 10.769531 4.328125 8.9375 19.664063 26.140625 74.777344-49.5625 95.164063zm0 0" fill="url(#y)"/><path d="m78.386719 186.800781c-1.03125-2.269531-2.949219-3.867187-5.164063-4.558593-26.71875 44.480468-44.398437 99.722656-44.398437 99.722656 75.703125-20.386719 58.5-75.5 49.5625-95.164063zm0 0" fill="url(#z)"/><path d="m66.449219 215.707031c-.742188.449219-1.519531.84375-2.28125 1.246094-.765625.402344-1.519531.804687-2.296875 1.160156-.769532.378907-1.597656.644531-2.40625.917969-.8125.273438-1.546875.664062-2.230469 1.167969-.675781.515625-1.328125 1.058593-1.960937 1.699219.410156-1.101563.820312-2.203126 1.230468-3.304688l2.070313-5.363281c.679687-1.792969 1.464843-3.527344 2.171875-5.3125 1.480468-3.535157 3.082031-6.988281 4.925781-10.347657l-.722656-.515624-1.789063 2.308593-.898437 1.167969c-.289063.394531-.546875.800781-.824219 1.203125-1.054688 1.625-2.199219 3.230469-3.167969 4.902344-2.050781 3.3125-3.917969 6.710937-5.8125 10.101562-.347656.664063-.695312 1.328125-1.042969 1.988281-.121093-.609374-.289062-1.207031-.554687-1.785156-.355469-.777344-.730469-1.5625-.984375-2.378906-.273438-.8125-.5-1.640625-.730469-2.46875-.230469-.832031-.476562-1.667969-.660156-2.519531-.445313-1.695313-.734375-3.425781-1.082031-5.195313l-.496094-.023437c-.433594 1.761719-.738281 3.574219-.886719 5.402343-.085937.917969-.105469 1.832032-.136719 2.757813.019532.917969.035157 1.84375.101563 2.765625.058594.925781.066406 1.867188.113281 2.808594.070313.9375.292969 1.847656.703125 2.695312.082031.164063.167969.332032.257813.496094.96875 1.777344.972656 3.929688.066406 5.746094l-.015625.035156c-1.570313 3.160156-3.074219 6.347656-4.589844 9.53125-.191406-.855469-.449219-1.644531-.738281-2.417969-.308594-.792969-.722656-1.511719-1.265625-2.175781-.535156-.664062-1.097656-1.332031-1.546875-2.058594-.46875-.71875-.894531-1.460937-1.324219-2.207031-.433593-.746094-.878906-1.496094-1.269531-2.273437-.859375-1.527344-1.570312-3.128907-2.347656-4.761719l-.484375.105469c.019531 1.8125.175781 3.644531.492187 5.449218.148438.910156.355469 1.804688.558594 2.707032.246094.882812.492188 1.777343.789062 2.652343.289063.882813.527344 1.789063.8125 2.691407.304688.890624.746094 1.714843 1.355469 2.433593.273438.3125.5625.617188.867188.910157 1.488281 1.429687 1.816406 3.695312.902343 5.546874-.78125 1.585938-1.566406 3.175782-2.339843 4.769532-.980469 2.023437-1.855469 4.082031-2.652344 6.175781-.179687-.734375-.40625-1.421875-.65625-2.097656-.3125-.789063-.726563-1.511719-1.265625-2.175781-.539062-.664063-1.097656-1.328126-1.550781-2.058594-.464844-.71875-.890625-1.460938-1.320313-2.207032-.433594-.746093-.878906-1.496093-1.269531-2.273437-.859375-1.527344-1.570313-3.128906-2.351563-4.757813l-.484374.101563c.019531 1.816406.179687 3.644531.492187 5.453125.148437.90625.359375 1.800781.558594 2.703125.246093.886719.496093 1.777344.789062 2.65625.289063.878906.53125 1.789063.816407 2.6875.300781.890625.742187 1.714844 1.355468 2.433594.613282.707031 1.300782 1.375 2.105469 1.933593.925781.644532 1.359375 1.777344 1.054687 2.859376-.792968 2.804687-2.1875 7.886718-2.738281 10.636718-.746093 3.835938-1.347656 7.722656-1.453125 11.78125l.835938.300782c2.503906-3.179688 4.578125-6.507813 6.511718-9.882813 1.921876-3.378906 3.679688-6.8125 5.292969-10.300781.027344-.0625.054688-.121094.085938-.183594.519531-1.125 1.734375-1.695312 2.953125-1.464844.898437.167969 1.789062.203125 2.664062.167969.941406-.050781 1.84375-.292969 2.699219-.683594.851563-.410156 1.675781-.859375 2.515625-1.253906.839844-.386719 1.660156-.816406 2.472656-1.246094.792969-.472656 1.589844-.933593 2.351563-1.445312 1.53125-1.015625 2.96875-2.152344 4.300781-3.382813l-.253906-.421875c-1.722656.550781-3.375 1.132813-5.078125 1.554688-.832031.25-1.683594.4375-2.523438.636719-.839843.195312-1.671875.398437-2.515625.550781-.835937.171875-1.707031.21875-2.558594.285156-.855468.0625-1.664062.253906-2.449218.570313-.851563.359374-1.6875.765624-2.53125 1.289062.726562-1.875 1.390625-3.777344 1.992187-5.703125.46875-1.542969 1.121094-3.613281 1.703125-5.433594.617188-1.933593 2.394532-3.304687 4.421875-3.300781.992188.003906 1.980469-.140625 2.886719-.175781.941406-.046875 1.847656-.292969 2.703125-.683594.847656-.410156 1.675781-.859375 2.511719-1.253906.839844-.386719 1.660156-.816407 2.472656-1.246094.796875-.472656 1.589844-.929687 2.351562-1.445313 1.53125-1.011718 2.972657-2.152343 4.304688-3.382812l-.257812-.421875c-1.71875.550781-3.375 1.132813-5.074219 1.554687-.835938.25-1.6875.4375-2.527344.636719-.835937.195313-1.671875.398438-2.511719.550781-.839844.171876-1.707031.21875-2.5625.285157-.851562.0625-1.660156.253906-2.449218.570312-1.496094.632813-2.953126 1.40625-4.476563 2.75 1.285156-3.605469 2.539063-7.230469 3.878906-10.8125l.046875-.140625c.765625-2.195312 2.652344-3.875 4.957032-4.203125.648437-.09375 1.28125-.246093 1.894531-.433593.898437-.28125 1.714843-.742188 2.441406-1.335938.722656-.609375 1.410156-1.25 2.121094-1.84375.71875-.582031 1.402343-1.207031 2.082031-1.824219.652344-.65625 1.308594-1.300781 1.914062-1.988281 1.230469-1.363281 2.339844-2.824219 3.320313-4.351562l-.351563-.34375c-1.527343.964843-2.984374 1.941406-4.527343 2.777343zm0 0" fill="url(#A)"/><path d="m275.980469 417.742188c6.773437-1.402344 13.246093-2.8125 19.632812-4.394532 6.375-1.558594 12.625-3.199218 18.753907-5.058594 12.265624-3.644531 24.015624-8.09375 35.335937-13.320312 5.636719-2.667969 11.132813-5.585938 16.5625-8.679688 5.40625-3.136718 10.65625-6.5625 15.894531-10.152343l3.859375-2.796875c1.304688-.929688 2.597657-1.871094 3.855469-2.867188 1.277344-.976562 2.539062-1.980468 3.84375-2.949218 1.296875-.984376 2.503906-2.058594 3.785156-3.078126 2.621094-1.996093 5.027344-4.21875 7.636719-6.339843 1.320313-1.050781 2.535156-2.195313 3.824219-3.304688 1.292968-1.105469 2.589844-2.222656 3.976562-3.296875-2.082031 6.585938-4.992187 12.914063-8.640625 18.816406-.917969 1.46875-1.824219 2.960938-2.804687 4.402344-1.007813 1.417969-2.058594 2.804688-3.09375 4.214844-.53125.691406-1.019532 1.429688-1.59375 2.082031l-1.707032 1.992188c-1.148437 1.316406-2.257812 2.6875-3.480468 3.945312l-3.710938 3.738281c-1.234375 1.265626-2.589844 2.378907-3.910156 3.546876-2.605469 2.382812-5.4375 4.488281-8.273438 6.597656-5.769531 4.066406-11.878906 7.675781-18.269531 10.679687-12.808593 5.941407-26.582031 9.644531-40.460937 10.851563-6.941406.59375-13.910156.585937-20.800782-.105469-3.445312-.34375-6.871093-.859375-10.253906-1.585937-3.378906-.726563-6.738281-1.613282-9.960937-2.9375zm0 0" fill="url(#B)"/></svg>