<svg height="512pt" viewBox="0 0 512 512.001" width="512pt" xmlns="http://www.w3.org/2000/svg" xmlns:xlink="http://www.w3.org/1999/xlink"><radialGradient id="a" cx="205.8046103922" cy="185.72557" gradientUnits="userSpaceOnUse" r="309.7956719388"><stop offset="0" stop-color="#ecf7ff"/><stop offset=".5353" stop-color="#eaf6ff"/><stop offset=".7282" stop-color="#e3f2ff"/><stop offset=".8651" stop-color="#d8ecff"/><stop offset=".9756" stop-color="#c7e3ff"/><stop offset="1" stop-color="#c2e0ff"/></radialGradient><linearGradient id="b" gradientUnits="userSpaceOnUse" x1="467.5005722514" x2="126.8072933108" y1="467.1512093564" y2="126.4579304158"><stop offset=".0029" stop-color="#c2e0ff" stop-opacity="0"/><stop offset=".6417" stop-color="#a8bfee" stop-opacity=".639216"/><stop offset="1" stop-color="#9eb2e7"/></linearGradient><linearGradient id="c"><stop offset="0" stop-color="#00c6f6"/><stop offset=".8567" stop-color="#0b9cfd"/><stop offset="1" stop-color="#0d94fe"/></linearGradient><linearGradient id="d" gradientUnits="userSpaceOnUse" x1="24.6395568616" x2="297.159404156" xlink:href="#c" y1="131.633750679" y2="404.1535979734"/><linearGradient id="e" gradientUnits="userSpaceOnUse" x1="131.6338491102" x2="404.1535960124" xlink:href="#c" y1="24.6385549006" y2="297.1583018028"/><linearGradient id="f" gradientUnits="userSpaceOnUse" x1="24.6393560772" x2="297.1591029794" xlink:href="#c" y1="131.6334495024" y2="404.1530960124"/><linearGradient id="g" gradientUnits="userSpaceOnUse" x1="131.6348530322" x2="404.1537967968" xlink:href="#c" y1="24.6396592148" y2="297.1587033716"/><linearGradient id="h" gradientUnits="userSpaceOnUse" x1="2.4812916542" x2="275.000837772" xlink:href="#c" y1="153.7906103956" y2="426.3101565134"/><linearGradient id="i" gradientUnits="userSpaceOnUse" x1="153.7896045126" x2="426.3116604354" xlink:href="#c" y1="2.4787838102" y2="275.000839733"/><linearGradient id="j" gradientUnits="userSpaceOnUse" x1="78.1368535742" x2="350.656901653" xlink:href="#c" y1="78.1361527898" y2="350.6562008686"/><linearGradient id="k" gradientUnits="userSpaceOnUse" x1="78.1371547508" x2="350.6573032218" xlink:href="#c" y1="78.136755143" y2="350.656903614"/><linearGradient id="l"><stop offset="0" stop-color="#0d94fe" stop-opacity="0"/><stop offset=".5142" stop-color="#0681cd" stop-opacity=".513725"/><stop offset="1" stop-color="#0070a2"/></linearGradient><linearGradient id="m" gradientUnits="userSpaceOnUse" x1="294.260579381" x2="238.5781460432" xlink:href="#l" y1="333.4289997408" y2="277.746566403"/><linearGradient id="n" gradientUnits="userSpaceOnUse" x1="292.4357503616" x2="240.3160354174" xlink:href="#l" y1="385.667679442" y2="333.5479644978"/><linearGradient id="o" gradientUnits="userSpaceOnUse" x1="333.2887498764" x2="277.7719636686" xlink:href="#l" y1="294.1002549986" y2="238.5834687908"/><linearGradient id="p" gradientUnits="userSpaceOnUse" x1="385.3707173534" x2="332.0731007266" xlink:href="#l" y1="293.0407157198" y2="239.7431994852"/><linearGradient id="q" gradientUnits="userSpaceOnUse" x1="369.0732483898" x2="252.5332641964" xlink:href="#l" y1="369.072848782" y2="252.5328645886"/><linearGradient id="r" gradientUnits="userSpaceOnUse" x1="302.3073153876" x2="252.7641662564" xlink:href="#l" y1="150.8328553992" y2="101.2898066602"/><linearGradient id="s" gradientUnits="userSpaceOnUse" x1="407.4821997956" x2="318.1153723762" xlink:href="#l" y1="165.1290058558" y2="147.3741433248"/><linearGradient id="t" gradientUnits="userSpaceOnUse" x1="214.0277354942" x2="505.898882084" xlink:href="#c" y1="44.1195609184" y2="335.9907075082"/><linearGradient id="u" gradientUnits="userSpaceOnUse" x1="44.1195589574" x2="335.990605155" xlink:href="#c" y1="214.0264323566" y2="505.8975789464"/><linearGradient id="v" gradientUnits="userSpaceOnUse" x1="214.0264303956" x2="505.8986812996" xlink:href="#c" y1="44.1177538588" y2="335.990105155"/><linearGradient id="w" gradientUnits="userSpaceOnUse" x1="44.1201613106" x2="335.990605155" xlink:href="#c" y1="214.027135102" y2="505.8975789464"/><linearGradient id="x" gradientUnits="userSpaceOnUse" x1="235.7929652386" x2="527.6638106518" xlink:href="#c" y1="22.3547327428" y2="314.225578156"/><linearGradient id="y" gradientUnits="userSpaceOnUse" x1="22.3555339194" x2="314.2258773716" xlink:href="#c" y1="235.7924652386" y2="527.662909083"/><linearGradient id="z" gradientUnits="userSpaceOnUse" x1="129.0736472258" x2="420.944492639" xlink:href="#c" y1="129.0730468336" y2="420.9438922468"/><linearGradient id="A" gradientUnits="userSpaceOnUse" x1="129.0741491868" x2="420.9451953844" xlink:href="#c" y1="129.0733480102" y2="420.9444946"/><linearGradient id="B" gradientUnits="userSpaceOnUse" x1="337.1839672364" x2="219.2651965682" xlink:href="#l" y1="273.037168301" y2="128.4915752112"/><linearGradient id="C" gradientUnits="userSpaceOnUse" x1="250.5284319624" x2="130.9585107808" xlink:href="#l" y1="346.5305834096" y2="199.9608827834"/><linearGradient id="D" gradientUnits="userSpaceOnUse" x1="346.422358657" x2="226.2017956272" xlink:href="#l" y1="269.2996670872" y2="121.9325512164"/><linearGradient id="E" gradientUnits="userSpaceOnUse" x1="293.2910919056" x2="173.071131229" xlink:href="#l" y1="312.6429955152" y2="165.2765823898"/><linearGradient id="F"><stop offset="0" stop-color="#ecf7ff"/><stop offset="1" stop-color="#c2e0ff"/></linearGradient><radialGradient id="G" cx="256.0008107844" cy="256.00011" gradientUnits="userSpaceOnUse" r="48.1449869618" xlink:href="#F"/><linearGradient id="H" gradientUnits="userSpaceOnUse" x1="223.7903749832" x2="378.4214688772" xlink:href="#c" y1="223.7898749832" y2="378.4209688772"/><radialGradient id="I" cx="181.6987365048" cy="152.3212701564" gradientUnits="userSpaceOnUse" r="301.3258832014" xlink:href="#F"/><radialGradient id="J" cx="181.6985357204" cy="152.3212701564" gradientUnits="userSpaceOnUse" r="301.3284933986" xlink:href="#F"/><radialGradient id="K" cx="181.6987365048" cy="152.3222740784" gradientUnits="userSpaceOnUse" r="301.3265859468" xlink:href="#F"/><radialGradient id="L" cx="181.6985357204" cy="152.3222740784" gradientUnits="userSpaceOnUse" r="301.3259835936" xlink:href="#F"/><radialGradient id="M" cx="181.6989372892" cy="152.3226756472" gradientUnits="userSpaceOnUse" r="301.3264855546" xlink:href="#F"/><radialGradient id="N" cx="181.6989372892" cy="152.325587021" gradientUnits="userSpaceOnUse" r="301.3240761418" xlink:href="#F"/><radialGradient id="O" cx="181.6995396424" cy="152.3226756472" gradientUnits="userSpaceOnUse" r="301.3219679056" xlink:href="#F"/><radialGradient id="P" cx="181.6995396424" cy="152.325587021" gradientUnits="userSpaceOnUse" r="301.3199600616" xlink:href="#F"/><linearGradient id="Q"><stop offset="0" stop-color="#fff" stop-opacity="0"/><stop offset="1" stop-color="#fff"/></linearGradient><linearGradient id="R" gradientUnits="userSpaceOnUse" x1="356.6871599304" x2="32.0651663268" xlink:href="#Q" y1="386.7339449982" y2="-34.7645137614"/><linearGradient id="S" gradientUnits="userSpaceOnUse" x1="382.0391018042" x2="57.4154015332" xlink:href="#Q" y1="367.2103726876" y2="-54.290093916"/><linearGradient id="T" gradientUnits="userSpaceOnUse" x1="440.8349984406" x2="116.2108966008" xlink:href="#Q" y1="321.92766774" y2="-99.5734012168"/><linearGradient id="U" gradientUnits="userSpaceOnUse" x1="272.5767677108" x2="-52.046832168" xlink:href="#Q" y1="451.5130159702" y2="30.0125493666"/><linearGradient id="V" gradientUnits="userSpaceOnUse" x1="331.3726643472" x2="6.7485625074" xlink:href="#Q" y1="406.2302106304" y2="-15.2708583264"/><linearGradient id="W" gradientUnits="userSpaceOnUse" x1="450.4113100064" x2="125.7872081666" xlink:href="#Q" y1="314.5519531982" y2="-106.9490153664"/><linearGradient id="X" gradientUnits="userSpaceOnUse" x1="405.1286050588" x2="80.5046036112" xlink:href="#Q" y1="349.4263964186" y2="-72.074572146"/><linearGradient id="Y" gradientUnits="userSpaceOnUse" x1="308.282859916" x2="-16.3406395706" xlink:href="#Q" y1="424.0135845462" y2="2.513318727"/><linearGradient id="Z" gradientUnits="userSpaceOnUse" x1="263.0003557528" x2="-61.6231437338" xlink:href="#Q" y1="458.8881281588" y2="37.3877619474"/><path d="m512 256c0 141.386719-114.613281 256-256 256-141.382812 0-256-114.613281-256-256s114.617188-256 256-256c141.386719 0 256 114.613281 256 256zm0 0" fill="url(#a)"/><path d="m511.863281 248.007812-149.097656-146.109374c-2.554687-4.832032-7.625-8.125-13.46875-8.125-7.179687 0-13.179687 4.96875-14.792969 11.648437-.527344-.371094-1.066406-.714844-1.628906-1.011719l-25.429688-25.433594c-.695312-1.3125-1.59375-2.550781-2.703124-3.65625-5.949219-5.949218-15.59375-5.949218-21.542969 0l-4.546875 4.542969c-.105469-.160156-.210938-.324219-.324219-.484375-.15625-.222656-.320313-.441406-.492187-.65625-.203126-.265625-.410157-.527344-.628907-.785156-.1875-.210938-.378906-.417969-.570312-.625-.222657-.238281-.449219-.476562-.683594-.703125-.210937-.203125-.429687-.394531-.648437-.585937-.238282-.210938-.476563-.421876-.726563-.621094-.234375-.191406-.480469-.367188-.722656-.542969-.253907-.183594-.5-.367187-.761719-.539063-.144531-.09375-.296875-.183593-.445312-.269531-.035157-.058593-.066407-.113281-.105469-.171875-.183594-.289062-.375-.578125-.570313-.859375-.160156-.222656-.324218-.441406-.492187-.65625-.207031-.265625-.414063-.527343-.636719-.785156-.183594-.210937-.375-.417969-.566406-.621094-.222656-.242187-.449219-.480469-.683594-.707031-.210938-.203125-.429688-.394531-.648438-.585938-.238281-.210937-.476562-.421874-.726562-.621093-.234375-.191407-.476562-.367188-.722656-.542969-.25-.183594-.5-.367188-.761719-.539062-.261719-.171876-.53125-.328126-.800781-.488282-.261719-.152344-.515625-.308594-.785156-.449218-.289063-.152344-.585938-.289063-.882813-.425782-.265625-.125-.523437-.253906-.796875-.367187-.316406-.132813-.644531-.242188-.96875-.355469-.265625-.09375-.523438-.195312-.792969-.277344-.355469-.105468-.71875-.1875-1.078125-.277344-.253906-.0625-.503906-.132812-.761718-.1875-.414063-.082031-.832032-.136718-1.253907-.191406-.21875-.027344-.429687-.074218-.652343-.09375-.644532-.066406-1.296876-.101562-1.960938-.101562-.660156 0-1.316406.035156-1.960938.101562-.21875.019532-.433593.066406-.652343.09375-.417969.054688-.839844.109375-1.253907.191406-.257812.050782-.507812.125-.761718.1875-.359375.085938-.722656.167969-1.078125.277344-.269531.082032-.527344.183594-.789063.277344-.328125.113281-.65625.222656-.972656.355469-.273438.109375-.53125.242187-.796875.363281-.296875.140625-.597656.273438-.882813.425781-.269531.144531-.523437.300781-.785156.453125-.269531.160156-.542968.316406-.804687.488282-.257813.171874-.507813.355468-.757813.539062-.242187.175781-.488281.351562-.722656.539062-.25.203126-.488281.414063-.726562.625-.21875.191407-.4375.382813-.648438.585938-.234375.226562-.460938.464844-.683594.703125-.191406.207031-.382812.410156-.566406.625-.222656.253906-.429688.519531-.636719.785156-.164062.214844-.332031.433594-.488281.65625-.199219.28125-.390625.566407-.574219.859375-.144531.222656-.28125.449219-.414062.679688-.179688.308594-.34375.617187-.503907.933594-.121093.234374-.234374.464843-.339843.703124-.152344.332032-.292969.660157-.425781 1-.09375.238282-.179688.480469-.265626.722657-.121093.351562-.234374.699219-.335937 1.054687-.070313.246094-.128906.496094-.191406.746094-.085938.363281-.171875.730469-.238281 1.105469-.046876.25-.082032.503906-.117188.761719-.050781.378906-.101562.761718-.132812 1.148437-.007813.082031-.023438.164063-.027344.246094l-1.304688-1.300781-6.359375-6.359376c-5.949219-5.949218-15.59375-5.949218-21.542969 0-5.949218 5.949219-5.949218 15.59375 0 21.546876l6.359376 6.355468 6.355468 6.359375 6.359375 6.355469v.003906l6.359375 6.355469 3.71875 3.722656v28.628907c-.265625-.300782-.542968-.59375-.839844-.863282-.902343-.8125-1.925781-1.488281-3.058593-1.96875l-16.015625-17.105468c-.902344-.8125-1.925782-1.488282-3.058594-1.96875-.652344-.273438-1.335938-.488282-2.046875-.632813-.710937-.148437-1.445313-.222656-2.195313-.222656-.753906 0-1.488281.074219-2.195312.21875-1.386719-1.988281-3.234375-3.632813-5.394531-4.777344l-25.429688-25.429687c-2.554687-4.832032-7.625-8.125-13.46875-8.125-8.414062 0-15.234375 6.820312-15.234375 15.234374v16.917969l-2.078125-2.078125c-.746093-.742187-1.546875-1.394531-2.390625-1.953125-2.535156-1.671875-5.457031-2.507812-8.382812-2.507812-3.898438 0-7.796875 1.484375-10.773438 4.460937-5.949218 5.949219-5.949218 15.59375 0 21.542969l2.082032 2.082031h-16.917969c-8.414063 0-15.234375 6.820313-15.234375 15.234375 0 5.84375 3.292968 10.914063 8.121094 13.46875l25.433593 25.433594c1.144531 2.164063 2.796875 4.019531 4.800781 5.40625-.140624.695313-.214843 1.414063-.214843 2.152344 0 .75.074219 1.484375.222656 2.195312.144531.710938.359375 1.394531.632813 2.046875l21.917968 23.003906h-28.667968l-3.722657-3.722656-6.359375-6.355468-6.359375-6.359376-6.355469-6.359374-6.359374-6.359376c-5.949219-5.949218-15.59375-5.949218-21.542969 0-5.949219 5.949219-5.949219 15.597657 0 21.546876l7.660156 7.660156c-.085937.007812-.164063.023437-.246094.03125-.390625.03125-.769531.078125-1.148437.132812-.257813.035156-.511719.070313-.761719.117188-.375.066406-.742187.148437-1.105469.238281-.25.0625-.5.121094-.746094.191406-.355468.101563-.707031.214844-1.054687.335938-.242187.085937-.484375.171875-.726563.265625-.335937.132812-.667968.273437-.996093.425781-.238281.105469-.472657.21875-.703125.335937-.316406.160157-.628906.328126-.933594.503907-.230469.136719-.457031.273437-.679688.417969-.292968.183593-.582031.371093-.863281.574218-.222656.15625-.4375.320313-.65625.488282-.265625.207031-.527343.414062-.78125.632812-.214843.183594-.417969.378906-.625.570312-.238281.222657-.476562.449219-.703125.683594-.203125.210938-.394531.429688-.589844.648438-.210937.238281-.421874.476562-.621093.726562-.1875.234375-.363281.476563-.539063.722656-.183594.25-.367187.5-.539062.757813-.171875.261719-.328125.535156-.488282.804687-.152343.257813-.308593.515626-.453124.78125-.152344.289063-.285157.589844-.421876.882813-.125.265625-.253906.523437-.367187.796875-.132813.316406-.242187.648438-.355469.972656-.09375.265625-.195312.523438-.277344.789063-.105468.355469-.1875.71875-.277343 1.082031-.0625.253906-.132813.5-.1875.761719-.082031.410156-.132813.832031-.191407 1.253906-.027343.21875-.074218.429687-.09375.648437-.066406.644532-.101562 1.300782-.101562 1.960938 0 .664062.035156 1.316406.101562 1.960938.019532.222656.066407.433593.09375.652343.058594.417969.109376.84375.191407 1.253907.050781.257812.125.507812.1875.761718.089843.359375.171875.726563.277343 1.078125.082032.269531.183594.527344.277344.792969.113282.324219.226563.652344.355469.972656.109375.269532.242187.53125.367187.792969.136719.296875.269532.597656.421876.882813.144531.269531.300781.523437.453124.785156.160157.269531.316407.542968.488282.800781.171875.261719.355468.507813.539062.761719.175782.242187.351563.488281.539063.722656.199219.25.410156.488281.621093.726562.195313.21875.386719.4375.589844.648438.226563.234375.460938.457031.703125.683594.207031.191406.410157.382812.625.566406.253907.21875.515625.429688.78125.632812.21875.167969.433594.335938.65625.492188.28125.199219.570313.390625.863281.574219.054688.035156.113282.066406.167969.101562.089844.152344.175781.304688.273438.449219.167969.261719.355469.507812.535156.761719.179687.242187.355469.488281.542969.722656.199218.25.410156.488281.621094.726563.191406.21875.382812.4375.585937.648437.226563.234375.464844.457031.703125.683594.207031.191406.414062.382812.625.566406.257812.21875.519531.429687.785156.636719.214844.167968.433594.332031.65625.488281.160156.113281.324219.21875.488282.328125l-4.546876 4.542969c-5.949218 5.949219-5.949218 15.59375 0 21.546875 1.109376 1.105468 2.34375 2.003906 3.65625 2.699218l25.433594 25.433594c.296875.558594.644532 1.097656 1.011719 1.625-6.679687 1.613282-11.648437 7.617188-11.648437 14.792969 0 5.84375 3.296874 10.914063 8.125 13.46875l146.835937 149.128906c2.414063.066407 4.835937.105469 7.265625.105469 141.382812 0 256-114.613281 256-256 0-2.675781-.054688-5.335938-.136719-7.992188zm0 0" fill="url(#b)"/><path d="m256 447.25c-10.816406 0-19.585938-8.769531-19.585938-19.585938v-129.335937c0-10.820313 8.769532-19.589844 19.585938-19.589844s19.589844 8.769531 19.589844 19.589844v129.335937c0 10.816407-8.773438 19.585938-19.589844 19.585938zm0 0" fill="url(#d)"/><path d="m256 233.261719c-10.816406 0-19.585938-8.769531-19.585938-19.589844v-129.335937c0-10.816407 8.769532-19.585938 19.585938-19.585938s19.589844 8.769531 19.589844 19.585938v129.335937c0 10.820313-8.773438 19.589844-19.589844 19.589844zm0 0" fill="url(#e)"/><path d="m213.675781 275.585938h-129.339843c-10.816407 0-19.585938-8.769532-19.585938-19.585938s8.769531-19.585938 19.585938-19.585938h129.339843c10.816407 0 19.585938 8.769532 19.585938 19.585938s-8.769531 19.585938-19.585938 19.585938zm0 0" fill="url(#f)"/><path d="m427.664062 275.585938h-129.335937c-10.820313 0-19.589844-8.769532-19.589844-19.585938s8.769531-19.585938 19.589844-19.585938h129.335937c10.816407 0 19.585938 8.769532 19.585938 19.585938s-8.769531 19.585938-19.585938 19.585938zm0 0" fill="url(#g)"/><path d="m134.621094 392.613281c-3.898438 0-7.796875-1.484375-10.773438-4.460937-5.949218-5.949219-5.949218-15.59375 0-21.542969l91.449219-91.453125c5.949219-5.949219 15.597656-5.949219 21.546875 0s5.949219 15.597656 0 21.546875l-91.453125 91.449219c-2.972656 2.976562-6.871094 4.460937-10.769531 4.460937zm0 0" fill="url(#h)"/><path d="m285.929688 241.304688c-3.902344 0-7.796876-1.488282-10.773438-4.460938-5.949219-5.949219-5.949219-15.597656 0-21.546875l91.453125-91.449219c5.949219-5.949218 15.597656-5.949218 21.546875 0 5.949219 5.949219 5.949219 15.597656-.003906 21.542969l-91.449219 91.453125c-2.976563 2.972656-6.875 4.460938-10.773437 4.460938zm0 0" fill="url(#i)"/><path d="m226.070312 241.304688c-3.898437 0-7.796874-1.488282-10.773437-4.460938l-91.449219-91.453125c-5.949218-5.949219-5.949218-15.59375 0-21.542969 5.949219-5.949218 15.59375-5.949218 21.542969 0l91.453125 91.449219c5.949219 5.949219 5.949219 15.597656 0 21.546875-2.976562 2.972656-6.875 4.460938-10.773438 4.460938zm0 0" fill="url(#j)"/><path d="m377.378906 392.613281c-3.898437 0-7.796875-1.484375-10.769531-4.460937l-91.453125-91.449219c-5.949219-5.949219-5.949219-15.597656 0-21.546875 5.953125-5.949219 15.597656-5.949219 21.546875 0l91.449219 91.449219c5.953125 5.949219 5.953125 15.597656.003906 21.546875-2.976562 2.976562-6.875 4.460937-10.777344 4.460937zm0 0" fill="url(#k)"/><path d="m275.589844 298.324219v40.976562l-39.179688-39.179687v-1.796875c0-10.816407 8.777344-19.585938 19.589844-19.585938 10.816406 0 19.589844 8.769531 19.589844 19.585938zm0 0" fill="url(#m)"/><path d="m236.410156 347.09375h39.179688v43.441406l-39.171875-39.171875-.007813.007813zm0 0" fill="url(#n)"/><path d="m299.929688 236.476562 39.109374 39.113282h-40.714843c-10.816407 0-19.582031-8.773438-19.582031-19.589844s8.765624-19.589844 19.582031-19.589844h1.835937zm0 0" fill="url(#o)"/><path d="m390.574219 275.589844h-45.308594v-39.179688h6.128906zm0 0" fill="url(#p)"/><path d="m377.378906 392.613281c-3.898437 0-7.796875-1.484375-10.769531-4.460937l-91.453125-91.449219c-5.949219-5.949219-5.949219-15.597656 0-21.546875 5.953125-5.949219 15.597656-5.949219 21.546875 0l91.449219 91.449219c5.953125 5.949219 5.953125 15.597656.003906 21.546875-2.976562 2.976562-6.875 4.460937-10.777344 4.460937zm0 0" fill="url(#q)"/><path d="m275.589844 165.191406v-80.855468c0-.457032-.023438-.90625-.054688-1.355469l-19.535156 19.535156-19.535156-19.535156c-.03125.449219-.050782.898437-.050782 1.355469v41.683593zm0 0" fill="url(#r)"/><path d="m386.074219 147.46875-36.765625 36.769531-10.523438-10.519531c-2.90625-2.777344-4.722656-6.675781-4.722656-11.011719v-6.316406l30.472656-30.464844zm0 0" fill="url(#s)"/><path d="m283.199219 75.320312-27.199219 27.195313-27.195312-27.195313c-5.949219-5.949218-15.597657-5.949218-21.546876 0-5.949218 5.949219-5.949218 15.59375 0 21.546876l37.96875 37.96875c2.976563 2.972656 6.875 4.460937 10.773438 4.460937 3.902344 0 7.800781-1.488281 10.773438-4.460937l37.96875-37.96875c5.949218-5.953126 5.949218-15.597657 0-21.546876-5.949219-5.949218-15.59375-5.949218-21.542969 0zm0 0" fill="url(#t)"/><path d="m266.773438 377.164062c-5.949219-5.949218-15.597657-5.949218-21.546876 0l-37.96875 37.96875c-5.949218 5.949219-5.949218 15.597657 0 21.546876 5.949219 5.949218 15.597657 5.949218 21.546876 0l27.195312-27.195313 27.195312 27.195313c2.976563 2.972656 6.875 4.460937 10.773438 4.460937s7.796875-1.484375 10.773438-4.460937c5.949218-5.949219 5.949218-15.597657 0-21.546876zm0 0" fill="url(#u)"/><path d="m409.484375 256 27.199219-27.195312c5.945312-5.949219 5.945312-15.597657 0-21.546876-5.953125-5.949218-15.597656-5.949218-21.546875 0l-37.96875 37.96875c-5.949219 5.949219-5.949219 15.597657 0 21.546876l37.96875 37.96875c2.976562 2.976562 6.875 4.460937 10.769531 4.460937 3.902344 0 7.800781-1.484375 10.773438-4.460937 5.949218-5.949219 5.949218-15.59375 0-21.546876zm0 0" fill="url(#v)"/><path d="m134.835938 266.773438c5.949218-5.953126 5.949218-15.597657 0-21.546876l-37.96875-37.96875c-5.949219-5.949218-15.597657-5.949218-21.546876 0-5.949218 5.949219-5.949218 15.59375 0 21.542969l27.195313 27.199219-27.195313 27.195312c-5.949218 5.949219-5.949218 15.597657 0 21.546876 2.976563 2.976562 6.875 4.460937 10.773438 4.460937s7.796875-1.484375 10.769531-4.460937zm0 0" fill="url(#w)"/><path d="m349.296875 177.941406h53.695313c8.414062 0 15.234374-6.820312 15.234374-15.234375 0-8.414062-6.820312-15.234375-15.234374-15.234375h-38.460938v-38.464844c0-8.414062-6.820312-15.234374-15.234375-15.234374s-15.238281 6.820312-15.238281 15.234374v53.699219c0 8.414063 6.824218 15.234375 15.238281 15.234375zm0 0" fill="url(#x)"/><path d="m162.707031 334.058594h-53.699219c-8.414062 0-15.234374 6.820312-15.234374 15.234375 0 8.414062 6.820312 15.234375 15.234374 15.234375h38.464844v38.460937c0 8.414063 6.820313 15.238281 15.234375 15.238281 8.414063 0 15.234375-6.824218 15.234375-15.238281v-53.695312c0-8.414063-6.820312-15.234375-15.234375-15.234375zm0 0" fill="url(#y)"/><path d="m402.992188 334.058594h-53.695313c-8.414063 0-15.238281 6.820312-15.238281 15.234375v53.699219c0 8.414062 6.824218 15.234374 15.238281 15.234374s15.234375-6.820312 15.234375-15.234374v-38.460938h38.460938c8.414062 0 15.234374-6.820312 15.234374-15.234375 0-8.417969-6.820312-15.238281-15.234374-15.238281zm0 0" fill="url(#z)"/><path d="m162.707031 93.773438c-8.414062 0-15.234375 6.820312-15.234375 15.234374v38.464844h-38.464844c-8.414062 0-15.234374 6.820313-15.234374 15.234375 0 8.414063 6.820312 15.234375 15.234374 15.234375h53.699219c8.414063 0 15.234375-6.820312 15.234375-15.234375v-53.699219c0-8.414062-6.820312-15.234374-15.234375-15.234374zm0 0" fill="url(#A)"/><path d="m275.589844 160.605469v53.070312c0 .414063-.015625.820313-.035156 1.226563-.191407 2.988281-1.035157 5.789062-2.417969 8.261718l-36.726563-36.726562v-25.832031zm0 0" fill="url(#B)"/><path d="m222.851562 273.316406c-2.738281 1.449219-5.859374 2.273438-9.175781 2.273438h-53.066406v-39.179688h25.332031zm0 0" fill="url(#C)"/><path d="m334.226562 199.324219-18.023437 18.011719-19.5 19.507812c-2.976563 2.972656-6.878906 4.464844-10.769531 4.464844-3.902344 0-7.800782-1.492188-10.777344-4.464844-2.828125-2.832031-4.320312-6.507812-4.457031-10.230469-.140625-4.078125 1.34375-8.203125 4.457031-11.316406l.398438-.394531 19.109374-19.105469 18.011719-18.019531zm0 0" fill="url(#D)"/><path d="m241.300781 226.613281c-.136719 3.722657-1.628906 7.398438-4.457031 10.230469-2.835938 2.828125-6.507812 4.320312-10.230469 4.457031-.179687.007813-.367187.007813-.546875.007813-3.890625 0-7.792968-1.492188-10.769531-4.464844l-.398437-.394531-19.101563-19.113281-18.023437-18.011719 21.546874-21.546875 18.015626 18.019531 19.109374 19.105469.398438.394531c3.113281 3.113281 4.597656 7.238281 4.457031 11.316406zm0 0" fill="url(#E)"/><path d="m256 304.144531c-12.859375 0-24.949219-5.007812-34.042969-14.101562s-14.101562-21.183594-14.101562-34.042969 5.007812-24.949219 14.101562-34.042969 21.183594-14.101562 34.042969-14.101562 24.949219 5.007812 34.042969 14.101562 14.101562 21.183594 14.101562 34.042969-5.007812 24.949219-14.101562 34.042969-21.183594 14.101562-34.042969 14.101562zm0-70.804687c-6.050781 0-11.742188 2.359375-16.023438 6.636718-4.28125 4.28125-6.636718 9.972657-6.636718 16.023438s2.359375 11.742188 6.636718 16.023438c4.28125 4.28125 9.972657 6.636718 16.023438 6.636718 6.054688 0 11.742188-2.359375 16.023438-6.636718 4.28125-4.28125 6.636718-9.972657 6.636718-16.023438s-2.355468-11.742188-6.636718-16.023438c-4.28125-4.277343-9.96875-6.636718-16.023438-6.636718zm0 0" fill="url(#G)"/><path d="m290.234375 351.394531h-68.46875c-3.378906 0-6.621094-1.34375-9.011719-3.734375l-48.414062-48.414062c-2.390625-2.390625-3.730469-5.632813-3.730469-9.011719v-68.46875c0-3.378906 1.339844-6.621094 3.730469-9.011719l48.414062-48.414062c2.390625-2.390625 5.632813-3.734375 9.011719-3.734375h68.46875c3.382813 0 6.621094 1.34375 9.011719 3.734375l48.417968 48.414062c2.390626 2.390625 3.730469 5.632813 3.730469 9.011719v68.46875c0 3.378906-1.339843 6.621094-3.730469 9.011719l-48.417968 48.414062c-2.390625 2.390625-5.628906 3.734375-9.011719 3.734375zm-63.191406-25.488281h57.914062l40.953125-40.949219v-57.914062l-40.953125-40.949219h-57.914062l-40.949219 40.949219v57.914062zm0 0" fill="url(#H)"/><path d="m220.09375 142.785156c0 6.019532-4.878906 10.898438-10.898438 10.898438-6.019531 0-10.898437-4.878906-10.898437-10.898438 0-6.019531 4.878906-10.898437 10.898437-10.898437 6.019532 0 10.898438 4.878906 10.898438 10.898437zm0 0" fill="url(#I)"/><path d="m313.761719 142.785156c0 6.019532-4.878907 10.898438-10.894531 10.898438-6.019532 0-10.898438-4.878906-10.898438-10.898438 0-6.019531 4.878906-10.898437 10.898438-10.898437 6.015624 0 10.894531 4.878906 10.894531 10.898437zm0 0" fill="url(#J)"/><path d="m220.09375 369.214844c0 6.019531-4.878906 10.898437-10.898438 10.898437-6.019531 0-10.898437-4.878906-10.898437-10.898437 0-6.019532 4.878906-10.898438 10.898437-10.898438 6.019532 0 10.898438 4.878906 10.898438 10.898438zm0 0" fill="url(#K)"/><path d="m313.761719 369.214844c0 6.019531-4.878907 10.898437-10.894531 10.898437-6.019532 0-10.898438-4.878906-10.898438-10.898437 0-6.019532 4.878906-10.898438 10.898438-10.898438 6.015624 0 10.894531 4.878906 10.894531 10.898438zm0 0" fill="url(#L)"/><path d="m380.144531 209.164062c0 6.019532-4.878906 10.898438-10.898437 10.898438-6.019532 0-10.898438-4.878906-10.898438-10.898438 0-6.015624 4.878906-10.898437 10.898438-10.898437 6.019531 0 10.898437 4.882813 10.898437 10.898437zm0 0" fill="url(#M)"/><path d="m380.144531 302.835938c0 6.015624-4.878906 10.898437-10.898437 10.898437-6.019532 0-10.898438-4.882813-10.898438-10.898437 0-6.019532 4.878906-10.898438 10.898438-10.898438 6.019531 0 10.898437 4.878906 10.898437 10.898438zm0 0" fill="url(#N)"/><path d="m153.710938 209.164062c0 6.019532-4.878907 10.898438-10.898438 10.898438-6.015625 0-10.894531-4.878906-10.894531-10.898438 0-6.015624 4.878906-10.898437 10.894531-10.898437 6.019531 0 10.898438 4.882813 10.898438 10.898437zm0 0" fill="url(#O)"/><path d="m153.710938 302.835938c0 6.015624-4.878907 10.898437-10.898438 10.898437-6.015625 0-10.894531-4.882813-10.894531-10.898437 0-6.019532 4.878906-10.898438 10.894531-10.898438 6.019531 0 10.898438 4.878906 10.898438 10.898438zm0 0" fill="url(#P)"/><path d="m447.25 256c0-10.363281-8.046875-18.839844-18.230469-19.535156l7.664063-7.660156c5.945312-5.949219 5.945312-15.597657 0-21.546876-5.953125-5.949218-15.597656-5.949218-21.546875 0l-29.15625 29.15625h-34.585938v-14.648437c0-3.378906-1.34375-6.621094-3.734375-9.011719l-13.433594-13.433594 15.082032-15.082031 6.300781-6.296875h47.382813c8.414062 0 15.234374-6.820312 15.234374-15.234375 0-8.414062-6.820312-15.234375-15.234374-15.234375h-16.917969l2.078125-2.082031c5.949218-5.949219 5.949218-15.59375 0-21.542969-5.949219-5.949218-15.59375-5.949218-21.542969 0l-2.078125 2.078125v-16.917969c0-8.414062-6.824219-15.234374-15.234375-15.234374-8.417969 0-15.238281 6.820312-15.238281 15.234374v47.386719l-21.378906 21.378907-13.433594-13.433594c-2.390625-2.390625-5.632813-3.734375-9.011719-3.734375h-14.648437v-34.585938l29.15625-29.152343c5.949218-5.953126 5.949218-15.597657 0-21.546876-5.953126-5.949218-15.597657-5.949218-21.546876 0l-7.660156 7.660157c-.699218-10.183594-9.175781-18.230469-19.535156-18.230469-10.363281 0-18.839844 8.046875-19.535156 18.230469l-7.664063-7.660157c-5.949219-5.949218-15.59375-5.949218-21.542969 0-5.949218 5.949219-5.949218 15.597657 0 21.546876l29.152344 29.152343v34.585938h-14.644531c-3.378906 0-6.621094 1.34375-9.011719 3.734375l-13.433594 13.4375-21.378906-21.382813v-47.382812c0-8.414063-6.824218-15.238281-15.238281-15.238281-8.410156 0-15.234375 6.824218-15.234375 15.238281v16.917969l-2.078125-2.082032c-5.949219-5.949218-15.59375-5.949218-21.542969 0-5.949218 5.949219-5.949218 15.597656 0 21.546875l2.078125 2.078125h-16.917969c-8.414062 0-15.234374 6.820313-15.234374 15.234375 0 8.414063 6.820312 15.234375 15.234374 15.234375h47.386719l21.378907 21.378906-13.433594 13.433594c-2.390625 2.390625-3.734375 5.632813-3.734375 9.011719v14.648437h-34.585938l-29.15625-29.15625c-5.949219-5.949218-15.59375-5.949218-21.542969 0-5.949218 5.949219-5.949218 15.597657 0 21.546876l7.660157 7.660156c-10.183594.695312-18.230469 9.171875-18.230469 19.535156s8.046875 18.839844 18.230469 19.535156l-7.660157 7.660156c-5.949218 5.949219-5.949218 15.597657 0 21.546876 2.972657 2.976562 6.875 4.460937 10.769532 4.460937 3.898437 0 7.800781-1.484375 10.773437-4.460937l29.15625-29.15625h34.585938v14.648437c0 3.378906 1.34375 6.621094 3.734375 9.011719l13.433594 13.433594-21.378907 21.382812h-47.386719c-8.414062 0-15.234374 6.820312-15.234374 15.234375s6.820312 15.234375 15.234374 15.234375h16.917969l-2.078125 2.078125c-5.949218 5.949219-5.949218 15.59375 0 21.542969 2.972656 2.976562 6.875 4.460937 10.773438 4.460937 3.898437 0 7.796875-1.484375 10.769531-4.460937l2.078125-2.078125v16.917969c0 8.414062 6.824219 15.234374 15.234375 15.234374 8.414063 0 15.238281-6.820312 15.238281-15.234374v-47.386719l21.378906-21.378907 13.433594 13.433594c2.390625 2.390625 5.632813 3.734375 9.011719 3.734375h14.644531v34.585938l-29.152344 29.15625c-5.949218 5.949219-5.949218 15.59375 0 21.542969 5.949219 5.949218 15.59375 5.949218 21.542969 0l7.664063-7.660157c.695312 10.183594 9.171875 18.234375 19.535156 18.234375 10.359375 0 18.835938-8.050781 19.535156-18.234375l7.660156 7.660157c2.976563 2.976562 6.875 4.464843 10.773438 4.464843s7.796875-1.488281 10.769531-4.464843c5.949219-5.949219 5.949219-15.59375 0-21.542969l-29.148437-29.152344v-34.589844h14.644531c3.378906 0 6.621094-1.34375 9.007813-3.734375l13.4375-13.433594 21.378906 21.378907v47.386719c0 8.414062 6.820312 15.234374 15.234375 15.234374 8.414062 0 15.234375-6.820312 15.234375-15.234374v-16.917969l2.078125 2.078125c2.976562 2.976562 6.875 4.464844 10.773437 4.464844 3.898438 0 7.796875-1.488282 10.773438-4.464844 5.949218-5.949219 5.949218-15.59375 0-21.542969l-2.078125-2.078125h16.914062c8.417969 0 15.238281-6.820312 15.238281-15.234375s-6.820312-15.234375-15.238281-15.234375h-47.382812l-21.382813-21.378906 13.4375-13.4375c2.390625-2.386719 3.730469-5.628906 3.730469-9.007813v-14.648437h34.589844l29.152343 29.152344c2.976563 2.976562 6.875 4.464843 10.773438 4.464843s7.796875-1.488281 10.773438-4.464843c5.949218-5.949219 5.949218-15.59375 0-21.542969l-7.664063-7.664063c10.1875-.695312 18.234375-9.171875 18.234375-19.535156zm-220.207031-69.90625h9.367187v.34375l.003906.003906v25.566406c-.65625.289063-1.300781.597657-1.941406.917969l-4.898437-4.898437-12.234375-12.230469zm-40.949219 40.949219 9.703125-9.703125 12.421875 12.425781 4.707031 4.707031c-.320312.640625-.628906 1.285156-.917969 1.941406h-25.917968v-9.371093zm9.703125 67.617187-9.703125-9.703125v-9.367187h25.914062c.292969.652344.597657 1.300781.917969 1.941406zm40.617187 31.246094h-9.371093l-9.703125-9.699219 17.132812-17.132812c.636719.320312 1.285156.625 1.9375.917969v.128906l.003906.003906zm35.609376-53.882812c-4.28125 4.277343-9.96875 6.636718-16.023438 6.636718-6.050781 0-11.742188-2.359375-16.023438-6.636718-4.277343-4.28125-6.636718-9.972657-6.636718-16.023438s2.359375-11.742188 6.636718-16.023438c4.28125-4.277343 9.972657-6.636718 16.023438-6.636718 6.054688 0 11.742188 2.359375 16.023438 6.636718 4.28125 4.28125 6.636718 9.972657 6.636718 16.023438s-2.355468 11.742188-6.636718 16.023438zm12.933593 53.882812h-9.367187v-25.914062c.652344-.292969 1.300781-.597657 1.941406-.917969l17.128906 17.132812zm-2.53125-117.878906-4.898437 4.898437c-.640625-.320312-1.285156-.625-1.9375-.917969v-25.914062h9.367187l9.703125 9.703125zm43.484375 76.929687-9.703125 9.703125-17.132812-17.128906c.320312-.640625.628906-1.289062.917969-1.941406h25.917968zm0-48.542969h-25.757812l.007812-.003906h-.167968c-.289063-.652344-.597657-1.296875-.917969-1.9375l17.132812-17.132812 9.703125 9.703125zm0 0" fill="url(#R)"/><path d="m220.09375 142.785156c0 6.019532-4.878906 10.898438-10.898438 10.898438-6.019531 0-10.898437-4.878906-10.898437-10.898438 0-6.019531 4.878906-10.898437 10.898437-10.898437 6.019532 0 10.898438 4.878906 10.898438 10.898437zm0 0" fill="url(#S)"/><path d="m313.761719 142.785156c0 6.019532-4.878907 10.898438-10.894531 10.898438-6.019532 0-10.898438-4.878906-10.898438-10.898438 0-6.019531 4.878906-10.898437 10.898438-10.898437 6.015624 0 10.894531 4.878906 10.894531 10.898437zm0 0" fill="url(#T)"/><path d="m220.09375 369.214844c0 6.019531-4.878906 10.898437-10.898438 10.898437-6.019531 0-10.898437-4.878906-10.898437-10.898437 0-6.019532 4.878906-10.898438 10.898437-10.898438 6.019532 0 10.898438 4.878906 10.898438 10.898438zm0 0" fill="url(#U)"/><path d="m313.761719 369.214844c0 6.019531-4.878907 10.898437-10.894531 10.898437-6.019532 0-10.898438-4.878906-10.898438-10.898437 0-6.019532 4.878906-10.898438 10.898438-10.898438 6.015624 0 10.894531 4.878906 10.894531 10.898438zm0 0" fill="url(#V)"/><path d="m380.144531 209.164062c0 6.019532-4.878906 10.898438-10.898437 10.898438-6.019532 0-10.898438-4.878906-10.898438-10.898438 0-6.015624 4.878906-10.898437 10.898438-10.898437 6.019531 0 10.898437 4.882813 10.898437 10.898437zm0 0" fill="url(#W)"/><path d="m380.144531 302.835938c0 6.015624-4.878906 10.898437-10.898437 10.898437-6.019532 0-10.898438-4.882813-10.898438-10.898437 0-6.019532 4.878906-10.898438 10.898438-10.898438 6.019531 0 10.898437 4.878906 10.898437 10.898438zm0 0" fill="url(#X)"/><path d="m153.710938 209.164062c0 6.019532-4.878907 10.898438-10.898438 10.898438-6.015625 0-10.894531-4.878906-10.894531-10.898438 0-6.015624 4.878906-10.898437 10.894531-10.898437 6.019531 0 10.898438 4.882813 10.898438 10.898437zm0 0" fill="url(#Y)"/><path d="m153.710938 302.835938c0 6.015624-4.878907 10.898437-10.898438 10.898437-6.015625 0-10.894531-4.882813-10.894531-10.898437 0-6.019532 4.878906-10.898438 10.894531-10.898438 6.019531 0 10.898438 4.878906 10.898438 10.898438zm0 0" fill="url(#Z)"/></svg>