<svg height="512pt" viewBox="0 0 512 512" width="512pt" xmlns="http://www.w3.org/2000/svg" xmlns:xlink="http://www.w3.org/1999/xlink"><radialGradient id="a" cx="184.7214472156" cy="137.5371132156" gradientUnits="userSpaceOnUse" r="380.4785070162"><stop offset="0" stop-color="#ff6e3a"/><stop offset=".2336" stop-color="#ff6b3c"/><stop offset=".418" stop-color="#ff6143"/><stop offset=".5857" stop-color="#ff504e"/><stop offset=".7434" stop-color="#ff395e"/><stop offset=".8928" stop-color="#ff1b72"/><stop offset="1" stop-color="#ff0084"/></radialGradient><radialGradient id="b" cx="345.8597627292" cy="135.0276093922" gradientUnits="userSpaceOnUse" r="174.9177473168"><stop offset="0" stop-color="#ffd459"/><stop offset=".2794" stop-color="#ffd55b" stop-opacity=".721569"/><stop offset=".4354" stop-color="#ffd763" stop-opacity=".564706"/><stop offset=".5609" stop-color="#ffda71" stop-opacity=".439216"/><stop offset=".6702" stop-color="#ffdf85" stop-opacity=".329412"/><stop offset=".7691" stop-color="#ffe69e" stop-opacity=".231373"/><stop offset=".8603" stop-color="#ffeebe" stop-opacity=".141176"/><stop offset=".944" stop-color="#fff8e2" stop-opacity=".054902"/><stop offset="1" stop-color="#fff" stop-opacity="0"/></radialGradient><radialGradient id="c" cx="344.848210922" cy="135.5446292222" gradientUnits="userSpaceOnUse" r="117.8310278854"><stop offset="0" stop-color="#ffb400"/><stop offset=".3726" stop-color="#ffb502" stop-opacity=".627451"/><stop offset=".5069" stop-color="#ffb709" stop-opacity=".494118"/><stop offset=".6026" stop-color="#ffba14" stop-opacity=".396078"/><stop offset=".68" stop-color="#ffbf25" stop-opacity=".321569"/><stop offset=".7463" stop-color="#ffc53b" stop-opacity=".254902"/><stop offset=".805" stop-color="#ffcd57" stop-opacity=".196078"/><stop offset=".8581" stop-color="#ffd777" stop-opacity=".141176"/><stop offset=".9069" stop-color="#ffe29d" stop-opacity=".094118"/><stop offset=".9523" stop-color="#ffefc8" stop-opacity=".047059"/><stop offset=".9926" stop-color="#fffcf6" stop-opacity=".007843"/><stop offset="1" stop-color="#fff" stop-opacity="0"/></radialGradient><radialGradient id="d" cx="320.6057032504" cy="98.8693507182" gradientUnits="userSpaceOnUse" r="122.8764386808"><stop offset="0" stop-color="#ffd459"/><stop offset=".2296" stop-color="#ffd355"/><stop offset=".4362" stop-color="#ffcf4a"/><stop offset=".634" stop-color="#ffc838"/><stop offset=".825" stop-color="#ffbf1f"/><stop offset="1" stop-color="#ffb400"/></radialGradient><linearGradient id="e" gradientUnits="userSpaceOnUse" x1="354.2160078884" x2="234.474014476" y1="144.8942552004" y2="18.7830794434"><stop offset="0" stop-color="#fff" stop-opacity="0"/><stop offset=".9286" stop-color="#fff" stop-opacity=".929412"/><stop offset="1" stop-color="#fff"/></linearGradient><linearGradient id="f"><stop offset="0" stop-color="#ff0084" stop-opacity="0"/><stop offset=".0737" stop-color="#f4087e" stop-opacity=".07451"/><stop offset=".3347" stop-color="#d2216b" stop-opacity=".333333"/><stop offset=".583" stop-color="#ba335e" stop-opacity=".584314"/><stop offset=".8111" stop-color="#ab3d56" stop-opacity=".811765"/><stop offset="1" stop-color="#a64153"/></linearGradient><linearGradient id="g" gradientUnits="userSpaceOnUse" x1="321.1067607206" x2="154.6572962582" xlink:href="#f" y1="502.9429361082" y2="290.2901702242"/><linearGradient id="h" gradientUnits="userSpaceOnUse" x1="420.190549178" x2="305.7430396092" xlink:href="#f" y1="362.1190826568" y2="38.8555963036"/><linearGradient id="i" gradientUnits="userSpaceOnUse" x1="386.0565988248" x2="153.1734995422" xlink:href="#f" y1="407.710794796" y2="174.8275951212"/><radialGradient id="j" cx="190.1052801172" cy="91.1297144514" gradientUnits="userSpaceOnUse" r="267.6630734428"><stop offset="0" stop-color="#ecf7ff"/><stop offset=".3473" stop-color="#e9f5ff"/><stop offset=".62" stop-color="#dff0ff"/><stop offset=".8666" stop-color="#cee7ff"/><stop offset="1" stop-color="#c2e0ff"/></radialGradient><linearGradient id="k"><stop offset=".0029" stop-color="#c2e0ff" stop-opacity="0"/><stop offset=".0763" stop-color="#bfdcfd" stop-opacity=".07451"/><stop offset="1" stop-color="#9eb2e7"/></linearGradient><linearGradient id="l" gradientUnits="userSpaceOnUse" x1="360.5248545208" x2="399.1065809028" xlink:href="#k" y1="269.8272280982" y2="153.427893377"/><linearGradient id="m" gradientUnits="userSpaceOnUse" x1="316.3879257518" x2="365.9920129484" xlink:href="#k" y1="190.1969381958" y2="116.6511183588"/><linearGradient id="n" gradientUnits="userSpaceOnUse" x1="215.3456862568" x2="215.3456862568" xlink:href="#k" y1="210.82362" y2="80.31376"/><linearGradient id="o" gradientUnits="userSpaceOnUse" x1="139.5553980044" x2="61.2509878874" xlink:href="#k" y1="268.712272325" y2="194.7082624872"/><linearGradient id="p" gradientUnits="userSpaceOnUse" x1="249.831511271" x2="249.831511271" xlink:href="#k" y1="285.5072850318" y2="375.9499152664"/><linearGradient id="q" gradientUnits="userSpaceOnUse" x1="242.6974407546" x2="148.034824393" xlink:href="#k" y1="373.8873575174" y2="279.224841548"/><linearGradient id="r" gradientTransform="matrix(1.003118 .0375467 -.0375467 1.003118 -309.74203 594.962874)" gradientUnits="userSpaceOnUse" x1="695.6711" x2="713.9727" y1="-284.9559" y2="-212.4277"><stop offset="0" stop-color="#8be1e2"/><stop offset=".1873" stop-color="#87e1e1"/><stop offset=".3558" stop-color="#7ce2dd"/><stop offset=".5172" stop-color="#6ae2d7"/><stop offset=".6741" stop-color="#50e4ce"/><stop offset=".8278" stop-color="#2fe5c2"/><stop offset=".9772" stop-color="#07e7b4"/><stop offset="1" stop-color="#00e7b2"/></linearGradient><linearGradient id="s" gradientTransform="matrix(.916078 -.410704 .410704 .916078 1102.947087 -244.910482)" gradientUnits="userSpaceOnUse" x1="-851.7299" x2="-885.0624" y1="284.5049" y2="254.8137"><stop offset=".0029" stop-color="#00e7b2" stop-opacity="0"/><stop offset=".4308" stop-color="#1bc4b7" stop-opacity=".427451"/><stop offset="1" stop-color="#3b9abe"/></linearGradient><radialGradient id="t" cx="608.629" cy="-27.4025" gradientTransform="matrix(.547639 .841387 .841387 -.547639 90.160389 -167.485139)" gradientUnits="userSpaceOnUse" r="28.5609"><stop offset="0" stop-color="#3b395f"/><stop offset=".3952" stop-color="#39375d"/><stop offset=".6279" stop-color="#323154"/><stop offset=".8179" stop-color="#262846"/><stop offset=".9849" stop-color="#151a32"/><stop offset="1" stop-color="#131830"/></radialGradient><linearGradient id="u" gradientUnits="userSpaceOnUse" x1="362.0512175296" x2="332.9395877658" xlink:href="#k" y1="367.4152731678" y2="251.39712763"/><linearGradient id="v"><stop offset="0" stop-color="#ffebc9"/><stop offset=".2771" stop-color="#ffe9c5"/><stop offset=".5263" stop-color="#fee2bb"/><stop offset=".7641" stop-color="#fdd7a8"/><stop offset=".9948" stop-color="#fbc78f"/><stop offset="1" stop-color="#fbc78e"/></linearGradient><radialGradient id="w" cx="343.410092657" cy="164.981027753" gradientUnits="userSpaceOnUse" r="142.1496328446" xlink:href="#v"/><linearGradient id="x" gradientUnits="userSpaceOnUse" x1="277.432338817" x2="227.98566659" xlink:href="#k" y1="236.0424418166" y2="197.9406905428"/><radialGradient id="y" cx="237.416007897" cy="178.931025904" gradientUnits="userSpaceOnUse" r="36.7599091286" xlink:href="#v"/><linearGradient id="z" gradientUnits="userSpaceOnUse" x1="317.799540476" x2="222.7238102114" xlink:href="#k" y1="367.2583601592" y2="272.1827302868"/><radialGradient id="A" cx="212.8496349882" cy="352.2689011694" gradientUnits="userSpaceOnUse" r="149.2928390512" xlink:href="#v"/><linearGradient id="B"><stop offset="0" stop-color="#e58200" stop-opacity="0"/><stop offset=".0396" stop-color="#e27f04" stop-opacity=".039216"/><stop offset=".4671" stop-color="#c15d2f" stop-opacity=".466667"/><stop offset=".8016" stop-color="#ad4949" stop-opacity=".8"/><stop offset="1" stop-color="#a64153"/></linearGradient><linearGradient id="C" gradientUnits="userSpaceOnUse" x1="177.1990596696" x2="175.2656062898" xlink:href="#B" y1="410.3793198642" y2="373.9191818448"/><linearGradient id="D" gradientUnits="userSpaceOnUse" x1="142.1692093236" x2="142.1692093236" xlink:href="#B" y1="352.1076712962" y2="385.36047931"/><linearGradient id="E" gradientUnits="userSpaceOnUse" x1="270.6369915834" x2="252.352861374" xlink:href="#f" y1="534.1273636254" y2="490.7764053902"/><radialGradient id="F" cx="-259.1872" cy="896.9256" gradientTransform="matrix(.927925 -.383096 .383096 .927925 138.67269 -567.860806)" gradientUnits="userSpaceOnUse" r="138.5133" xlink:href="#v"/><path d="m512 256c0 141.386719-114.613281 256-256 256s-256-114.613281-256-256 114.613281-256 256-256 256 114.613281 256 256zm0 0" fill="url(#a)"/><path d="m350.472656 4.390625c6.179688 24.707031 37.117188 32.996094 54.824219 14.6875 4.195313-4.332031 11.398437-.175781 9.742187 5.625-7 24.492187 15.640626 47.136719 40.132813 40.136719 5.800781-1.65625 9.960937 5.542968 5.625 9.738281-18.304687 17.710937-10.019531 48.640625 14.691406 54.828125 5.851563 1.460938 5.851563 9.777344 0 11.246094-24.710937 6.183594-32.996093 37.113281-14.691406 54.824218 4.335937 4.195313.175781 11.398438-5.625 9.738282-24.492187-6.996094-47.132813 15.644531-40.132813 40.136718 1.65625 5.800782-5.546874 9.957032-9.742187 5.625-17.710937-18.308593-48.644531-10.019531-54.824219 14.6875v.003907c-1.464844 5.851562-9.78125 5.851562-11.246094 0v-.003907c-6.1875-24.707031-37.117187-32.996093-54.828124-14.6875-4.195313 4.332032-11.398438.175782-9.738282-5.625 7-24.492187-15.644531-47.132812-40.136718-40.136718-5.800782 1.65625-9.960938-5.542969-5.621094-9.738282 18.304687-17.710937 10.015625-48.640624-14.691406-54.824218-5.851563-1.46875-5.851563-9.785156 0-11.246094 24.707031-6.1875 32.996093-37.117188 14.691406-54.828125-4.339844-4.195313-.179688-11.398437 5.621094-9.738281 24.492187 7 47.136718-15.644532 40.136718-40.136719-1.65625-5.800781 5.542969-9.957031 9.738282-5.625 17.710937 18.308594 48.640624 10.019531 54.828124-14.6875 1.460938-5.851563 9.78125-5.851563 11.246094 0zm0 0" fill="#fff"/><path d="m350.472656 4.390625c6.179688 24.707031 37.117188 32.996094 54.824219 14.6875 4.195313-4.332031 11.398437-.175781 9.742187 5.625-7 24.492187 15.640626 47.136719 40.132813 40.136719 5.800781-1.65625 9.960937 5.542968 5.625 9.738281-18.304687 17.710937-10.019531 48.640625 14.691406 54.828125 5.851563 1.460938 5.851563 9.777344 0 11.246094-24.710937 6.183594-32.996093 37.113281-14.691406 54.824218 4.335937 4.195313.175781 11.398438-5.625 9.738282-24.492187-6.996094-47.132813 15.644531-40.132813 40.136718 1.65625 5.800782-5.546874 9.957032-9.742187 5.625-17.710937-18.308593-48.644531-10.019531-54.824219 14.6875v.003907c-1.464844 5.851562-9.78125 5.851562-11.246094 0v-.003907c-6.1875-24.707031-37.117187-32.996093-54.828124-14.6875-4.195313 4.332032-11.398438.175782-9.738282-5.625 7-24.492187-15.644531-47.132812-40.136718-40.136718-5.800782 1.65625-9.960938-5.542969-5.621094-9.738282 18.304687-17.710937 10.015625-48.640624-14.691406-54.824218-5.851563-1.46875-5.851563-9.785156 0-11.246094 24.707031-6.1875 32.996093-37.117188 14.691406-54.828125-4.339844-4.195313-.179688-11.398437 5.621094-9.738281 24.492187 7 47.136718-15.644532 40.136718-40.136719-1.65625-5.800781 5.542969-9.957031 9.738282-5.625 17.710937 18.308594 48.640624 10.019531 54.828124-14.6875 1.460938-5.851563 9.78125-5.851563 11.246094 0zm0 0" fill="url(#b)"/><path d="m454.960938 135.027344c0 60.816406-49.296876 110.113281-110.113282 110.113281-60.8125 0-110.113281-49.296875-110.113281-110.113281 0-60.8125 49.300781-110.113282 110.113281-110.113282 60.816406 0 110.113282 49.300782 110.113282 110.113282zm0 0" fill="url(#c)"/><path d="m435.945312 135.027344c0 50.3125-40.785156 91.097656-91.097656 91.097656s-91.097656-40.785156-91.097656-91.097656 40.785156-91.097656 91.097656-91.097656 91.097656 40.785156 91.097656 91.097656zm0 0" fill="url(#d)"/><path d="m427.292969 135.027344c0 45.53125-36.914063 82.441406-82.445313 82.441406s-82.441406-36.910156-82.441406-82.441406 36.910156-82.441406 82.441406-82.441406 82.445313 36.910156 82.445313 82.441406zm0 0" fill="url(#e)"/><path d="m255.375 511.992188c.570312-.003907 1.144531-.003907 1.714844-.007813 64.679687-.269531 123.6875-24.527344 168.609375-64.332031l-184.816407-184.816406c-4.988281-5.449219-10.882812-10.078126-17.332031-13.71875-8.570312-4.832032-18.214843-7.847657-28.058593-8.691407-9.832032-.832031-19.804688.414063-29.167969 3.675781-9.339844 3.265626-18.003907 8.496094-25.152344 15.328126-7.140625 6.832031-12.835937 15.15625-16.589844 24.3125-3.742187 9.148437-5.527343 19.128906-5.136719 28.96875l.082032 1.84375c.035156.601562.097656 1.113281.144531 1.675781l.3125 3.292969.316406 3.296874.46875 3.277344.480469 3.277344.242188 1.636719.320312 1.625c.433594 2.164062.84375 4.332031 1.304688 6.492187 1.964843 8.609375 4.652343 17.050782 8.058593 25.183594 1.304688 3.160156 2.71875 6.273438 4.230469 9.332031-1.890625-.085937-3.785156-.199219-5.675781-.351562-7.863281-.585938-15.703125-1.742188-23.457031-3.449219-7.753907-1.710938-15.394532-4.027344-22.898438-6.824219-7.480469-2.859375-14.777344-6.175781-21.5-10.527343-3.136719-2-6.136719-4.242188-8.964844-6.710938-.578125-.652344-1.148437-1.316406-1.707031-1.992188.195313.34375.40625.675782.605469 1.015626-.265625-.242188-.53125-.496094-.796875-.746094-1.199219-1.277344-2.371094-2.589844-3.492188-3.953125.242188.429687.507813.851562.757813 1.277343-1.539063-1.589843-3.027344-3.242187-4.445313-4.960937 3.550781 6.285156 8.203125 12.007813 13.574219 17.035156l154.792969 154.796875c14.035156 2.417969 28.457031 3.703125 43.175781 3.738282zm0 0" fill="url(#g)"/><path d="m440.285156 165.191406c-2.285156-1.230468-4.664062-2.265625-7.09375-3.128906-2.421875-.882812-4.917968-1.546875-7.429687-2.035156-5.03125-.945313-10.152344-1.125-15.125-.554688-2.492188.28125-4.9375.789063-7.324219 1.441406-2.386719.648438-4.710938 1.472657-6.9375 2.480469-2.234375 1-4.371094 2.167969-6.394531 3.484375-1.027344.632813-1.992188 1.359375-2.960938 2.058594-.941406.753906-1.875 1.488281-2.753906 2.300781-3.558594 3.160157-6.550781 6.859375-8.863281 10.847657-.597656.984374-1.09375 2.027343-1.617188 3.042968-.460937 1.039063-.960937 2.085938-1.351562 3.113282-.828125 2.054687-1.640625 4.121093-2.433594 6.199218l54.773438 53.40625c-6.972657 6.761719-14.851563 12.558594-23.382813 17.199219-13.757813 7.496094-29.199219 11.933594-44.960937 12.925781-15.761719 1.035156-31.855469-1.398437-46.914063-7.308594-.945313-.359374-1.886719-.738281-2.816406-1.136718-.941407-.378906-1.863281-.800782-2.792969-1.214844-.933594-.402344-1.835938-.867188-2.761719-1.296875-.917969-.441406-1.96875-.976563-2.871093-1.441406-3.761719-1.890625-7.488282-3.898438-11.144532-6.042969-3.644531-2.160156-7.28125-4.367188-10.828125-6.722656-1.777343-1.171875-3.535156-2.382813-5.273437-3.613282-1.6875-1.1875-3.367188-2.390624-5.019532-3.628906-.140624-.195312-.285156-.386718-.425781-.582031.042969.121094.09375.242187.136719.367187-.3125-.238281-.625-.480468-.9375-.71875-.40625-.550781-.8125-1.105468-1.210938-1.664062.117188.34375.253907.6875.378907 1.03125-.132813-.101562-.265625-.203125-.398438-.304688-.675781-.902343-1.339843-1.816406-1.996093-2.742187.171874.488281.359374.972656.539062 1.457031-.863281-1.140625-1.71875-2.296875-2.550781-3.472656.167969.488281.355469.972656.535156 1.460938-.863281-1.144532-1.71875-2.296876-2.550781-3.472657.167968.488281.359375.96875.535156 1.457031-.863281-1.144531-1.71875-2.296874-2.550781-3.472656.171875.488282.359375.972656.539062 1.457032-.863281-1.140626-1.71875-2.296876-2.554687-3.472657.171875.488281.359375.972657.539062 1.457031-.863281-1.140624-1.71875-2.296874-2.550781-3.46875.167969.488282.355469.96875.535156 1.457032-.863281-1.144532-1.71875-2.296875-2.550781-3.472656.167969.488281.359375.972656.535156 1.457031-.863281-1.144531-1.71875-2.296875-2.550781-3.472657.171875.488282.359375.972657.539063 1.457032-.863282-1.140625-1.71875-2.296875-2.550782-3.472656.167969.492187.355469.972656.535156 1.460937-.863281-1.144531-1.71875-2.296875-2.550781-3.472656.167969.488281.359375.972656.535157 1.457031-.863282-1.144531-1.71875-2.296875-2.550782-3.472656.167969.488281.359375.972656.535156 1.457031-.863281-1.144531-1.714843-2.296875-2.550781-3.472656.171875.488281.359375.972656.539063 1.457031-.863282-1.140625-1.71875-2.292969-2.550782-3.472656.167969.492187.355469.972656.535157 1.460937-.863281-1.144531-1.71875-2.296875-2.550781-3.472656.167968.488281.359374.972656.535156 1.457031-.863282-1.144531-1.714844-2.296875-2.550782-3.472656.171876.488281.359376.972656.535157 1.457031-.863281-1.144531-1.714844-2.296875-2.550781-3.472656.171874.488281.359374.972656.539062 1.457031-.863281-1.140625-1.71875-2.292968-2.550781-3.46875 2.910156 8.386719 7.125 16.394532 12.070312 23.925782 2.476563 3.769531 5.15625 7.417968 8.003907 10.933593 2.828124 3.539063 5.832031 6.9375 8.96875 10.21875 1.5625 1.644531 3.160156 3.253907 4.78125 4.851563.113281.109375.234374.21875.351562.328125l88.28125 88.304687c.117188.113282.238281.21875.351562.328125.558594.558594 1.101563 1.132813 1.664063 1.6875.113281.109375.234375.21875.351563.328125.558593.558594 1.097656 1.132813 1.660156 1.6875.117187.109375.238281.214844.355468.328125.554688.558594 1.097657 1.128907 1.660157 1.6875.117187.109375.238281.214844.351562.324219.558594.558594 1.101563 1.132812 1.664063 1.6875.113281.113281.234375.21875.351562.328125.558594.558594 1.097656 1.132813 1.660156 1.6875.117188.109375.238282.21875.351563.328125.558594.558594 1.101563 1.132812 1.664063 1.6875.113281.109375.234374.214844.355468.328125.554688.558594 1.097656 1.128906 1.660156 1.683594 1.636719 1.570312 3.300782 3.121093 4.992188 4.644531 3.386719 3.035156 6.859375 5.992188 10.476562 8.769531 3.609376 2.796875 7.320313 5.472657 11.125 8.035157l2.828126 1.863281c1 .632812 1.984374 1.292969 3 1.894531 1.015624.613281 2.027343 1.230469 3.0625 1.808594 1.023437.597656 2.066406 1.171875 3.113281 1.726562 4.1875 2.261719 8.554687 4.203125 13.023437 5.90625 4.46875 1.695313 9.046875 3.175782 13.722656 4.289063 9.34375 2.25 18.996094 3.453125 28.675782 3.367187 1.777344-.007812 3.554687-.074218 5.328125-.167968 29.457031-41.699219 46.769531-92.585938 46.769531-147.523438 0-7.855469-.375-15.621094-1.066406-23.296875l-57.421875-57.421875c-3.875-4.070312-8.371094-7.5-13.226563-10.089844zm0 0" fill="url(#h)"/><path d="m504.792969 316.472656-154.742188-154.734375c-4.382812-5.058593-9.855469-9.164062-16.054687-11.929687-5.703125-2.550782-12.019532-3.960938-18.671875-3.960938-9.34375 0-18.015625 2.789063-25.269531 7.578125-.367188-.351562-.742188-.722656-1.121094-1.070312-1.507813-1.617188-3.066406-3.1875-4.691406-4.695313-1.507813-1.617187-3.066407-3.183594-4.691407-4.691406-16.011719-17.210938-38.847656-27.988281-64.207031-27.988281-48.429688 0-87.6875 39.265625-87.6875 87.691406 0 .292969.007812.59375.015625.882813-30.769531 5.121093-54.222656 31.851562-54.222656 64.070312 0 19.136719 8.269531 36.332031 21.429687 48.214844l32.855469 32.851562c.589844.652344 1.199219 1.285156 1.816406 1.917969-.070312.660156-.113281 1.328125-.113281 2.003906 0 6.945313 3.410156 13.09375 8.632812 16.867188l141.429688 141.433593c110.015625-10.015624 199.90625-89.621093 225.292969-194.441406zm0 0" fill="url(#i)"/><path d="m361.253906 202.667969c-.441406 0-.878906.011719-1.316406.019531.855469-3.496094 1.316406-7.148438 1.316406-10.910156 0-25.367188-20.5625-45.929688-45.933594-45.929688-9.976562 0-19.207031 3.191406-26.738281 8.59375-15.6875-23.769531-42.628906-39.457031-73.238281-39.457031-48.425781 0-87.683594 39.257813-87.683594 87.683594 0 .300781.007813.59375.011719.890625-30.765625 5.121094-54.222656 31.855468-54.222656 64.070312 0 35.875 29.085937 64.957032 64.960937 64.957032h222.84375c35.875 0 64.957032-29.082032 64.957032-64.957032s-29.082032-64.960937-64.957032-64.960937zm0 0" fill="url(#j)"/><path d="m426.214844 267.628906c0 35.875-29.085938 64.957032-64.960938 64.957032s-64.957031-29.082032-64.957031-64.957032 29.082031-64.960937 64.957031-64.960937 64.960938 29.085937 64.960938 64.960937zm0 0" fill="url(#l)"/><path d="m361.253906 191.777344c0 25.367187-20.5625 45.933594-45.933594 45.933594-25.367187 0-45.929687-20.566407-45.929687-45.933594 0-25.367188 20.5625-45.929688 45.929687-45.929688 25.371094 0 45.933594 20.5625 45.933594 45.929688zm0 0" fill="url(#m)"/><path d="m303.03125 202.667969c0 48.429687-39.257812 87.6875-87.6875 87.6875-48.425781 0-87.683594-39.257813-87.683594-87.6875 0-48.425781 39.257813-87.683594 87.683594-87.683594 48.429688 0 87.6875 39.257813 87.6875 87.683594zm0 0" fill="url(#n)"/><path d="m203.367188 267.628906c0 35.875-29.082032 64.957032-64.957032 64.957032-35.878906 0-64.960937-29.082032-64.960937-64.957032s29.082031-64.960937 64.960937-64.960937c35.875 0 64.957032 29.085937 64.957032 64.960937zm0 0" fill="url(#o)"/><path d="m74.054688 276.476562c4.3125 31.6875 31.480468 56.113282 64.355468 56.113282h222.84375c32.875 0 60.039063-24.421875 64.355469-56.113282zm0 0" fill="url(#p)"/><path d="m258.15625 332.585938-3.390625-3.386719c-4.808594-5.199219-11.6875-8.457031-19.328125-8.457031-.09375 0-.179688.007812-.269531.011718-.050781-.050781-.105469-.101562-.15625-.152344l-17.382813-17.386718c-7.5625-7.917969-18.214844-12.859375-30.03125-12.859375-22.9375 0-41.53125 18.59375-41.53125 41.53125 0 .113281.007813.230469.007813.34375-.496094.101562-.984375.222656-1.464844.355469zm0 0" fill="url(#q)"/><path d="m385.773438 397.039062s-52.003907-50.304687 33.082031-84.855468c3.550781-1.441406 7.601562.199218 9.1875 3.691406 7.625 16.769531 22.292969 63.773438-42.269531 81.164062zm0 0" fill="url(#r)"/><path d="m428.042969 315.875c-.878907-1.9375-2.519531-3.300781-4.40625-3.886719-22.785157 37.933594-37.863281 85.050781-37.863281 85.050781 64.5625-17.390624 49.894531-64.394531 42.269531-81.164062zm0 0" fill="url(#s)"/><path d="m417.863281 340.527344c-.636719.382812-1.300781.71875-1.949219 1.0625-.648437.34375-1.296874.6875-1.960937.992187-.652344.320313-1.359375.546875-2.050781.78125s-1.316406.566407-1.902344.996094c-.574219.4375-1.128906.902344-1.671875 1.449219.351563-.941406.699219-1.878906 1.050781-2.820313l1.765625-4.574219c.578125-1.527343 1.246094-3.007812 1.851563-4.53125 1.261718-3.011718 2.628906-5.960937 4.203125-8.824218l-.617188-.441406-1.523437 1.972656-.769532.992187c-.246093.335938-.464843.683594-.703124 1.027344-.898438 1.386719-1.871094 2.753906-2.699219 4.183594-1.75 2.824219-3.34375 5.71875-4.960938 8.613281-.292969.566406-.589843 1.132812-.886719 1.695312-.105468-.519531-.246093-1.03125-.476562-1.523437-.300781-.664063-.621094-1.332031-.835938-2.027344-.234374-.691406-.425781-1.398437-.621093-2.105469-.199219-.710937-.410157-1.421874-.566407-2.148437-.382812-1.445313-.628906-2.921875-.921874-4.433594l-.421876-.015625c-.371093 1.5-.632812 3.042969-.757812 4.605469-.070312.78125-.089844 1.5625-.113281 2.351563.011719.78125.027343 1.574218.082031 2.359374.050781.789063.058594 1.589844.097656 2.394532.058594.800781.25 1.574218.601563 2.296875.070312.144531.144531.28125.21875.421875.828125 1.519531.828125 3.355468.058593 4.90625l-.015624.027344c-1.339844 2.695312-2.617188 5.414062-3.914063 8.128906-.164063-.730469-.382813-1.402344-.628906-2.0625-.261719-.675782-.617188-1.289063-1.078125-1.855469-.460938-.566406-.9375-1.136719-1.320313-1.757813-.398437-.609374-.761719-1.246093-1.128906-1.882812s-.75-1.273438-1.082031-1.9375c-.730469-1.300781-1.339844-2.667969-2.003906-4.058594l-.414063.089844c.019531 1.546875.152344 3.105469.421875 4.648438.125.773437.304688 1.535156.476562 2.304687.210938.753906.421876 1.515625.671876 2.265625.246093.75.453124 1.523438.691406 2.292969.257812.757812.636718 1.460937 1.15625 2.074219.234375.265624.480468.527343.738281.777343 1.273437 1.21875 1.550781 3.148438.773437 4.726563-.667968 1.359375-1.339843 2.710937-2 4.074218-.835937 1.722657-1.582031 3.480469-2.257812 5.265626-.15625-.625-.347656-1.214844-.5625-1.789063-.265625-.675781-.617188-1.289063-1.082031-1.855469-.457031-.566406-.933594-1.132812-1.316407-1.753906-.398437-.613281-.761718-1.246094-1.128906-1.886719-.371094-.636719-.75-1.273437-1.082031-1.933593-.734375-1.304688-1.34375-2.671876-2.007813-4.0625l-.410156.089843c.015625 1.546875.148438 3.105469.417969 4.648438.125.773437.304687 1.535156.480469 2.304687.207031.753906.421875 1.515625.671875 2.265625.246093.75.453125 1.523438.691406 2.292969.257813.757812.636719 1.460938 1.15625 2.074219.523437.601562 1.109375 1.171875 1.796875 1.648437.789062.546875 1.160156 1.515625.898438 2.441406-.675782 2.390626-1.863282 6.722657-2.335938 9.066407-.632812 3.277343-1.148438 6.589843-1.238281 10.050781l.714843.257812c2.132813-2.714843 3.902344-5.550781 5.550782-8.429687 1.640625-2.882813 3.140625-5.8125 4.515625-8.785156.023437-.054688.046875-.105469.074219-.160157.441406-.957031 1.480468-1.441406 2.519531-1.246093.765625.144531 1.527343.171875 2.273437.140625.800782-.039063 1.570313-.246094 2.300782-.578125.726562-.351563 1.429687-.734375 2.144531-1.070313.71875-.328125 1.414062-.695312 2.109375-1.0625.679687-.402344 1.355468-.796875 2.007812-1.234375 1.304688-.863281 2.53125-1.835937 3.667969-2.882812l-.21875-.359375c-1.46875.46875-2.878906.964844-4.328125 1.324218-.710938.210938-1.4375.371094-2.152344.542969-.714844.167969-1.425781.339844-2.148437.46875-.714844.148438-1.453125.1875-2.179688.242188-.730469.054687-1.417969.21875-2.089843.488281-.726563.304688-1.441407.652344-2.15625 1.101562.617187-1.601562 1.183593-3.222656 1.699218-4.867187.398438-1.3125.953125-3.082031 1.449219-4.632813.527344-1.648437 2.042969-2.820312 3.773437-2.816406.847657.003906 1.6875-.117187 2.460938-.148437.804688-.042969 1.574219-.25 2.304688-.582031.722656-.351563 1.429687-.734376 2.144531-1.070313.714843-.328125 1.414062-.695313 2.109375-1.0625.679687-.402344 1.355468-.792969 2.003906-1.234375 1.308594-.863281 2.535156-1.832031 3.671875-2.882812l-.21875-.359376c-1.46875.46875-2.878906.964844-4.332031 1.324219-.710938.210938-1.433594.375-2.152344.539063-.714844.171875-1.425781.34375-2.144531.472656-.714844.148438-1.453125.1875-2.183594.242188-.726563.054687-1.417969.21875-2.089844.488281-1.277343.539062-2.519531 1.199219-3.820312 2.34375 1.097656-3.074219 2.167969-6.164063 3.308593-9.21875l.042969-.121094c.652344-1.875 2.261719-3.304687 4.226563-3.585937.554687-.078126 1.09375-.207032 1.613281-.367188.769531-.238281 1.464844-.632812 2.085937-1.136719.613282-.523437 1.199219-1.070312 1.808594-1.574219.609375-.496093 1.195313-1.027343 1.773438-1.554687.558594-.5625 1.113281-1.109375 1.632812-1.699219 1.050782-1.160156 1.996094-2.410156 2.832032-3.710937l-.300782-.292969c-1.304687.824219-2.546875 1.65625-3.859375 2.371094zm0 0" fill="url(#t)"/><path d="m426.210938 267.625c0 3.949219-.351563 7.820312-1.027344 11.578125-5.460938 30.351563-32.003906 53.386719-63.933594 53.386719h-24.128906l-72.707032-72.738282-6.046874-6.050781c-3.132813-3.28125-6.140626-6.679687-8.964844-10.214843-2.851563-3.519532-5.53125-7.167969-8.007813-10.9375-4.949219-7.53125-9.160156-15.539063-12.070312-23.929688.640625.90625 1.292969 1.796875 1.953125 2.679688.65625.890624 1.324218 1.765624 2 2.628906.335937.4375.679687.875 1.039062 1.300781 7.996094 10.027344 17.140625 18.792969 26.960938 26.585937.359375.292969.71875.574219 1.078125.847657.789062.632812 1.59375 1.25 2.390625 1.851562.359375.28125.726562.554688 1.085937.828125.035157.027344.0625.042969.09375.070313.078125.058593.148438.109375.222657.160156.804687.601563 1.613281 1.191406 2.421874 1.78125.816407.582031 1.628907 1.164063 2.449219 1.738281 1.746094 1.234375 3.503907 2.441406 5.277344 3.613282 3.550781 2.355468 7.179687 4.5625 10.828125 6.71875 3.65625 2.152343 7.382812 4.164062 11.148438 6.046874.898437.460938 1.953124 1.003907 2.867187 1.4375.925781.4375 1.824219.902344 2.765625 1.304688.925781.410156 1.851562.835938 2.792969 1.214844.925781.402344 1.867187.777344 2.816406 1.128906 15.0625 5.917969 31.148437 8.347656 46.914063 7.3125 15.761718-.992188 31.199218-5.429688 44.957031-12.929688 8.589843-4.664062 16.507812-10.503906 23.523437-17.335937.703125 2.414063 1.300782 7.96875 1.300782 19.921875zm0 0" fill="url(#u)"/><path d="m229.324219 208.722656c10.257812 14.46875 22.832031 26.445313 36.507812 36.714844 1.710938 1.285156 3.449219 2.527344 5.195313 3.757812 1.738281 1.230469 3.492187 2.4375 5.269531 3.613282 3.550781 2.355468 7.1875 4.5625 10.832031 6.71875 3.65625 2.148437 7.378906 4.15625 11.144532 6.046875.902343.464843 1.949218.996093 2.871093 1.4375.921875.433593 1.828125.898437 2.761719 1.300781.929688.414062 1.851562.835938 2.792969 1.214844.929687.398437 1.867187.777344 2.816406 1.132812 15.0625 5.910156 31.152344 8.347656 46.914063 7.3125 15.761718-.992187 31.203124-5.429687 44.957031-12.929687 13.765625-7.480469 25.835937-17.976563 35.148437-30.6875 1.175782-1.578125 2.292969-3.203125 3.386719-4.847657l1.570313-2.476562c.410156-.710938.859374-1.40625 1.226562-2.140625.410156-.714844.726562-1.46875 1.089844-2.207031.300781-.761719.648437-1.507813.902344-2.292969.558593-1.542969 1.019531-3.132813 1.351562-4.757813.355469-1.617187.5625-3.273437.652344-4.945312.109375-1.667969.078125-3.355469-.082032-5.035156-.054687-.84375-.195312-1.679688-.289062-2.523438-.152344-.835937-.273438-1.679687-.480469-2.507812-.375-1.664063-.859375-3.3125-1.496093-4.914063-.621094-1.601562-1.339844-3.179687-2.214844-4.679687-.847656-1.507813-1.769532-3-2.851563-4.378906-2.113281-2.800782-4.695312-5.28125-7.601562-7.425782-1.445313-1.085937-2.988281-2.054687-4.597657-2.910156-1.601562-.882812-3.289062-1.597656-5.023437-2.234375-3.457031-1.289063-7.167969-2.074219-10.964844-2.285156-1.902343-.148438-3.828125-.125-5.757812.023437-1.9375.136719-3.863281.453125-5.785157.882813-1.929687.40625-3.839843.96875-5.707031 1.691406-1.867187.710937-3.714843 1.546875-5.5 2.53125-1.792969.972656-3.523437 2.09375-5.179687 3.347656-1.671875 1.238281-3.269532 2.613281-4.75 4.125-.777344.730469-1.472656 1.535157-2.203125 2.324219-.6875.828125-1.371094 1.636719-2.0625 2.523438-1.367188 1.742187-2.761719 3.476562-4.167969 5.199218.792969-2.078125 1.605469-4.148437 2.433594-6.203125.390625-1.027343.890625-2.070312 1.355468-3.113281.519532-1.011719 1.015626-2.054688 1.613282-3.039062 2.3125-3.992188 5.304687-7.6875 8.863281-10.847657.878906-.8125 1.816406-1.550781 2.753906-2.300781.96875-.703125 1.933594-1.425781 2.960938-2.058594 2.019531-1.320312 4.160156-2.484375 6.394531-3.484375 2.226562-1.011719 4.550781-1.835937 6.9375-2.480469 2.386719-.65625 4.832031-1.164062 7.324219-1.445312 4.972656-.566406 10.09375-.390625 15.125.554688 2.511719.492187 5.007812 1.15625 7.429687 2.039062 2.429688.859375 4.808594 1.898438 7.09375 3.125 9.15625 4.886719 17.042969 12.726562 21.882813 22.285156 1.238281 2.375 2.273437 4.859375 3.140625 7.40625.875 2.542969 1.578125 5.160156 2.023437 7.832032.476563 2.664062.753907 5.371093.8125 8.09375.078125 2.71875-.039062 5.457031-.386719 8.171874-.332031 2.71875-.835937 5.429688-1.609374 8.066407-.351563 1.332031-.820313 2.625-1.257813 3.929687-.503906 1.28125-.980469 2.574219-1.570313 3.816406-.542968 1.265626-1.183593 2.484376-1.824218 3.703126-.613282 1.113281-1.1875 2.121093-1.796875 3.183593-1.230469 2.082031-2.496094 4.144531-3.84375 6.160157-10.730469 16.15625-25.625 29.648437-42.789063 38.839843-17.148437 9.238281-36.542968 14.164063-55.898437 14.28125-9.679688.085938-19.332031-1.117187-28.671875-3.367187-4.679688-1.113282-9.253906-2.59375-13.726563-4.289063-4.46875-1.703125-8.835937-3.644531-13.019531-5.90625-1.054688-.554687-2.089844-1.128906-3.117188-1.726562-1.039062-.578125-2.050781-1.195313-3.0625-1.808594-1.019531-.601563-2-1.261719-3-1.894531l-2.828124-1.863282c-3.808594-2.5625-7.519532-5.238281-11.125-8.035156-3.617188-2.78125-7.089844-5.734375-10.476563-8.769531-1.691406-1.523437-3.355469-3.074219-4.996094-4.644531-1.617187-1.59375-3.21875-3.207032-4.78125-4.851563-3.132812-3.28125-6.136719-6.679687-8.964843-10.21875-2.847657-3.515625-5.527344-7.160156-8.003907-10.933593-4.945312-7.53125-9.160156-15.535157-12.070312-23.925782zm0 0" fill="url(#w)"/><path d="m227.054688 177.738281c-.425782 4.21875.421874 8.179688 1.617187 11.933594 1.234375 3.753906 2.992187 7.292969 5.167969 10.546875 1.839844 2.753906 3.960937 5.328125 6.382812 7.617188l79.957032 79.957031c.929687.988281 1.894531 1.949219 2.933593 2.835937 2.96875 2.59375 6.339844 4.808594 10.3125 6.179688-.59375-2.070313-1.449219-3.820313-2.238281-5.601563-.800781-1.765625-1.707031-3.402343-2.570312-5.054687-1.800782-3.25-3.683594-6.351563-5.703126-9.367188-2.035156-3.007812-4.117187-5.980468-6.441406-8.882812-2.101562-2.605469-4.273437-5.167969-6.921875-7.71875zm0 0" fill="url(#x)"/><path d="m227.054688 177.738281c3.085937 2.84375 5.519531 5.703125 7.859374 8.609375 2.328126 2.898438 4.410157 5.875 6.441407 8.882813 2.019531 3.015625 3.90625 6.117187 5.707031 9.363281.863281 1.65625 1.769531 3.292969 2.570312 5.058594.789063 1.78125 1.644532 3.53125 2.238282 5.601562-3.972656-1.371094-7.34375-3.585937-10.3125-6.179687-3.007813-2.570313-5.539063-5.601563-7.71875-8.855469-2.175782-3.253906-3.929688-6.796875-5.164063-10.546875-1.199219-3.753906-2.046875-7.714844-1.621093-11.933594zm0 0" fill="url(#y)"/><path d="m257.777344 323.578125c.832031-4.664063 1.230468-9.414063 1.214844-14.152344-.023438-1.191406-.015626-2.363281-.085938-3.570312-.09375-1.207031-.152344-2.421875-.289062-3.628907-.273438-2.414062-.652344-4.828124-1.164063-7.210937-2.046875-9.546875-6.167969-18.675781-11.972656-26.566406-1.429688-1.953125-2.960938-3.828125-4.597657-5.609375l69.75 69.746094h-55.003906c.898438-2.953126 1.609375-5.964844 2.148438-9.007813zm0 0" fill="url(#z)"/><path d="m343.765625 431.710938c-14.160156 7.265624-29.5625 11.660156-45.0625 13.058593l-2.902344.269531-2.910156.132813c-1.945313.078125-3.835937.1875-5.921875.195313l-5.859375-.058594-1.460937-.019532-1.457032-.089843-2.917968-.175781c-7.757813-.546876-15.457032-1.582032-22.980469-3.339844-15.019531-3.582032-29.425781-9.371094-42.394531-17.460938-6.492188-4.015625-12.644532-8.550781-18.382813-13.539062l-2.125-1.898438c-.699219-.636718-1.441406-1.230468-2.105469-1.910156l-4.085937-3.964844-3.886719-4.152344c-1.292969-1.382812-2.46875-2.871093-3.710938-4.296874-1.863281-2.261719-3.65625-4.578126-5.382812-6.941407l8.15625-.1875 6.128906-.140625 3.410156-.175781c1.144532-.058594 2.28125-.226563 3.425782-.335937 4.5625-.550782 9.09375-1.507813 13.515625-2.867188 4.417969-1.363281 8.730469-3.132812 12.851562-5.28125 4.125-2.148438 8.03125-4.71875 11.695313-7.605469 7.324218-5.777343 13.628906-12.894531 18.503906-20.945312 4.867188-8.050781 8.226562-17.0625 9.871094-26.402344.824218-4.667969 1.230468-9.414063 1.21875-14.15625-.027344-1.191406-.019532-2.363281-.085938-3.566406-.097656-1.210938-.15625-2.421875-.296875-3.632813-.269531-2.414062-.644531-4.824218-1.160156-7.210937-2.042969-9.542969-6.164063-18.675781-11.972656-26.566407-5.78125-7.929687-13.367188-14.5-21.929688-19.332031-8.570312-4.832031-18.214843-7.84375-28.058593-8.691406-9.832032-.832031-19.804688.414063-29.164063 3.679687-9.34375 3.265626-18.007813 8.496094-25.15625 15.324219-7.140625 6.835938-12.835937 15.160157-16.589844 24.3125-3.742187 9.152344-5.523437 19.132813-5.132812 28.96875l.082031 1.84375c.03125.605469.09375 1.117188.144531 1.675781l.308594 3.296876.316406 3.292968.46875 3.28125.480469 3.273438.242188 1.636718.320312 1.625c.433594 2.164063.84375 4.335938 1.304688 6.492188 1.96875 8.609375 4.65625 17.050781 8.058593 25.1875 1.304688 3.160156 2.71875 6.269531 4.234375 9.328125-1.894531-.082031-3.785156-.195313-5.679687-.347656-7.859375-.589844-15.703125-1.742188-23.457031-3.453125-7.753907-1.707032-15.394532-4.023438-22.898438-6.824219-7.480469-2.855469-14.777344-6.175781-21.5-10.523437-3.371094-2.152344-6.59375-4.570313-9.609375-7.261719-3.003906-2.699219-5.824219-5.652344-8.429687-8.8125 4.035156 7.140625 9.484374 13.5625 15.804687 19.050781 6.355469 5.460938 13.527344 9.941406 20.917969 13.804688 7.398437 3.882812 15.15625 7.136718 23.125 9.851562 7.980468 2.6875 16.203125 4.691406 24.542968 6.171875 4.878907.851563 9.804688 1.453125 14.757813 1.855469 14.160156 22.519531 34.09375 41.269531 57.277344 53.773437 7.617187 4.222657 15.652343 7.625 23.863281 10.394531 8.210938 2.765626 16.628906 4.859376 25.152344 6.1875 17.050781 2.585938 34.425781 2.25 51.125-.820312 8.410156-1.609375 16.644531-3.992188 24.503906-7.199219 7.867188-3.195312 15.359375-7.203125 22.324219-11.898437 6.984375-4.679688 13.433593-10.058594 19.253906-15.980469 5.773437-5.964844 11.003906-12.398437 15.382813-19.332031-10.949219 12.207031-23.9375 22.179687-38.101563 29.433594zm-196.566406-138.652344c2.488281-5.945313 6.246093-11.363282 10.929687-15.796875 4.648438-4.472657 10.261719-7.910157 16.320313-10.066407 6.042969-2.167968 12.625-3.011718 19.070312-2.535156 6.445313.425782 12.78125 2.273438 18.496094 5.355469 5.71875 3.074219 10.804687 7.375 14.835937 12.511719 4.03125 5.140625 6.972657 11.132812 8.554688 17.515625.394531 1.59375.695312 3.214843.933594 4.851562.125.816407.179687 1.644531.277344 2.464844.085937.832031.109374 1.703125.171874 2.554687.152344 3.417969.007813 6.851563-.445312 10.25-.453125 3.394532-1.210938 6.757813-2.273438 10.03125-1.066406 3.277344-2.457031 6.449219-4.085937 9.503907-3.261719 6.113281-7.652344 11.675781-12.914063 16.308593-5.257812 4.628907-11.347656 8.382813-17.976562 10.898438-3.3125 1.261719-6.75 2.230469-10.261719 2.890625-.882812.140625-1.757812.339844-2.648437.4375l-2.691406.34375-6.101563.605469-12.199219 1.214844-3.046875.300781-1.347656.128906c-3.082031-5.539063-5.777344-11.277344-8.007813-17.199219-2.65625-7.027344-4.84375-14.226562-6.382812-21.570312l-1.007812-5.539063-.25-1.382812-.175782-1.398438-.355468-2.789062-.355469-2.792969-.210938-2.808594-.21875-2.804687c-.03125-.457031-.085937-.960938-.097656-1.378907l-.027344-1.214843c-.140625-6.484375 1.003907-12.941407 3.492188-18.890625zm0 0" fill="url(#A)"/><path d="m176.316406 424.863281h34.636719c-.351563-.214843-.707031-.425781-1.054687-.640625-6.492188-4.015625-12.644532-8.550781-18.382813-13.539062l-2.125-1.898438c-.699219-.636718-1.441406-1.230468-2.105469-1.910156l-4.085937-3.964844-3.886719-4.152344c-1.292969-1.382812-2.46875-2.871093-3.710938-4.296874-1.863281-2.261719-3.65625-4.578126-5.382812-6.941407l-27.238281-.367187c9 14.308594 20.328125 27.082031 33.335937 37.710937zm0 0" fill="url(#C)"/><path d="m152.789062 355.628906c-1.824218-4.828125-3.421874-9.738281-4.746093-14.71875h-24.5c1.925781 7.992188 4.464843 15.832032 7.632812 23.402344 1.304688 3.160156 2.71875 6.269531 4.230469 9.328125l25.390625-.816406c-3.082031-5.535157-5.777344-11.273438-8.007813-17.195313zm0 0" fill="url(#D)"/><path d="m296.863281 478.421875c-1.5-.03125-2.957031.011719-4.40625.050781-1.449219.046875-2.867187.152344-4.308593.144532-2.867188.007812-5.65625.1875-8.464844.109374-1.398438-.011718-2.777344.050782-4.160156.011719-1.386719-.058593-2.761719-.070312-4.132813-.105469-1.367187-.015624-2.730469-.082031-4.089844-.167968l-4.0625-.214844c-5.402343-.425781-10.71875-.972656-15.988281-1.789062-5.257812-.859376-10.46875-1.871094-15.636719-3.128907-10.3125-2.601562-20.488281-5.953125-30.578125-10.113281-5.0625-2.054688-10.085937-4.320312-15.148437-6.703125-5.082031-2.378906-10.132813-4.914063-15.375-7.613281 1.425781 2.605468 3.179687 4.992187 5.03125 7.289062 1.851562 2.292969 3.847656 4.476563 5.945312 6.550782.089844.085937.183594.167968.273438.253906l47.601562 47.613281c8.554688.886719 17.230469 1.363281 26.011719 1.382813.570312 0 1.144531-.003907 1.714844-.003907 22.390625-.09375 44.097656-3.066406 64.777344-8.558593zm0 0" fill="url(#E)"/><path d="m170.511719 448.902344c5.242187 2.695312 10.292969 5.234375 15.375 7.609375 5.0625 2.386719 10.089843 4.652343 15.148437 6.703125 10.089844 4.164062 20.269532 7.515625 30.578125 10.117187 5.167969 1.253907 10.378907 2.265625 15.640625 3.128907 5.265625.816406 10.585938 1.363281 15.984375 1.789062l4.0625.214844c1.359375.085937 2.726563.152344 4.09375.164062 1.367188.039063 2.742188.050782 4.128907.109375 1.386718.039063 2.761718-.023437 4.160156-.011719 2.808594.078126 5.597656-.105468 8.46875-.113281 1.4375.011719 2.855468-.09375 4.304687-.140625 1.449219-.039062 2.90625-.082031 4.40625-.050781-4.914062 3.25-10.238281 5.886719-15.820312 7.84375-1.398438.480469-2.800781.984375-4.222657 1.414063-1.425781.402343-2.867187.757812-4.3125 1.136718-.722656.175782-1.441406.402344-2.175781.527344l-2.195312.402344c-1.46875.257812-2.941407.570312-4.425781.75l-4.46875.488281c-1.492188.179687-2.988282.191406-4.492188.257813-3.007812.183593-6.011719.0625-9.023438-.0625-6.007812-.398438-11.996093-1.277344-17.84375-2.714844-11.679687-2.929688-22.800781-7.859375-32.652343-14.503906-4.921875-3.328126-9.539063-7.070313-13.738281-11.222657-2.097657-2.074219-4.09375-4.253906-5.949219-6.550781-1.851563-2.292969-3.605469-4.679688-5.03125-7.285156zm0 0" fill="url(#F)"/></svg>