<svg height="512pt" viewBox="0 0 512 512" width="512pt" xmlns="http://www.w3.org/2000/svg" xmlns:xlink="http://www.w3.org/1999/xlink"><linearGradient id="a"><stop offset="0" stop-color="#3b395f"/><stop offset=".3952" stop-color="#39375d"/><stop offset=".6279" stop-color="#323154"/><stop offset=".8179" stop-color="#262846"/><stop offset=".9849" stop-color="#151a32"/><stop offset="1" stop-color="#131830"/></linearGradient><radialGradient id="b" cx="215.8434307844" cy="185.72557" gradientUnits="userSpaceOnUse" r="336.6901399656" xlink:href="#a"/><linearGradient id="c"><stop offset="0" stop-color="#131830" stop-opacity="0"/><stop offset=".8421" stop-color="#131830"/></linearGradient><linearGradient id="d" gradientUnits="userSpaceOnUse" x1="476.866965688" x2="109.1928814286" xlink:href="#c" y1="291.4677707302" y2="-76.206213137"/><linearGradient id="e"><stop offset="0" stop-color="#ffebc9"/><stop offset=".2771" stop-color="#ffe9c5"/><stop offset=".5263" stop-color="#fee2bb"/><stop offset=".7641" stop-color="#fdd7a8"/><stop offset=".9948" stop-color="#fbc78f"/><stop offset="1" stop-color="#fbc78e"/></linearGradient><radialGradient id="f" cx="314.360103704" cy="51.6741743606" gradientUnits="userSpaceOnUse" r="136.3513809414" xlink:href="#e"/><linearGradient id="g" gradientUnits="userSpaceOnUse" x1="321.1066603284" x2="154.6572962582" xlink:href="#c" y1="502.9429361082" y2="290.2901702242"/><linearGradient id="h" gradientUnits="userSpaceOnUse" x1="420.1908503546" x2="305.7432403936" xlink:href="#c" y1="362.1190826568" y2="38.8554959114"/><linearGradient id="i" gradientUnits="userSpaceOnUse" x1="386.0567996092" x2="153.1737003266" xlink:href="#c" y1="407.7105940116" y2="174.8275951212"/><radialGradient id="j" cx="190.1053805094" cy="91.1297144514" gradientUnits="userSpaceOnUse" r="267.6632742272"><stop offset="0" stop-color="#ecf7ff"/><stop offset=".3473" stop-color="#e9f5ff"/><stop offset=".62" stop-color="#dff0ff"/><stop offset=".8666" stop-color="#cee7ff"/><stop offset="1" stop-color="#c2e0ff"/></radialGradient><linearGradient id="k"><stop offset=".0029" stop-color="#c2e0ff" stop-opacity="0"/><stop offset=".0763" stop-color="#bfdcfd" stop-opacity=".07451"/><stop offset="1" stop-color="#9eb2e7"/></linearGradient><linearGradient id="l" gradientUnits="userSpaceOnUse" x1="360.5250553052" x2="399.1062797262" xlink:href="#k" y1="269.8272280982" y2="153.4294996522"/><linearGradient id="m" gradientUnits="userSpaceOnUse" x1="316.3881265362" x2="365.9921133406" xlink:href="#k" y1="190.197038588" y2="116.6514195354"/><linearGradient id="n" gradientUnits="userSpaceOnUse" x1="215.3451842958" x2="215.3451842958" xlink:href="#k" y1="194.7609683922" y2="71.233787471"/><linearGradient id="o" gradientUnits="userSpaceOnUse" x1="139.5554983966" x2="61.2513894562" xlink:href="#k" y1="268.712272325" y2="194.7085636638"/><linearGradient id="p" gradientUnits="userSpaceOnUse" x1="249.8313104866" x2="249.8313104866" xlink:href="#k" y1="285.5072850318" y2="375.9499152664"/><linearGradient id="q" gradientUnits="userSpaceOnUse" x1="242.6970391858" x2="148.0347240008" xlink:href="#k" y1="373.887156733" y2="279.224841548"/><linearGradient id="r" gradientTransform="matrix(1.003118 .0375467 -.0375467 1.003118 -328.00778 514.636298)" gradientUnits="userSpaceOnUse" x1="716.8477" x2="735.1493" y1="-205.6717" y2="-133.1434"><stop offset="0" stop-color="#8be1e2"/><stop offset=".1873" stop-color="#87e1e1"/><stop offset=".3558" stop-color="#7ce2dd"/><stop offset=".5172" stop-color="#6ae2d7"/><stop offset=".6741" stop-color="#50e4ce"/><stop offset=".8278" stop-color="#2fe5c2"/><stop offset=".9772" stop-color="#07e7b4"/><stop offset="1" stop-color="#00e7b2"/></linearGradient><linearGradient id="s" gradientTransform="matrix(.916078 -.410704 .410704 .916078 1508.371978 582.335749)" gradientUnits="userSpaceOnUse" x1="-883.1297" x2="-916.4625" y1="-632.6024" y2="-662.2938"><stop offset=".0029" stop-color="#00e7b2" stop-opacity="0"/><stop offset=".4308" stop-color="#1bc4b7" stop-opacity=".427451"/><stop offset="1" stop-color="#3b9abe"/></linearGradient><radialGradient id="t" cx="2021.6613" cy="-2633.123" gradientTransform="matrix(.547639 .841387 .841387 -.547639 1508.746943 -2783.386303)" gradientUnits="userSpaceOnUse" r="28.5607" xlink:href="#a"/><linearGradient id="u" gradientUnits="userSpaceOnUse" x1="362.0515187062" x2="332.9398889424" xlink:href="#k" y1="367.4152731678" y2="251.39712763"/><radialGradient id="v" cx="343.4099922648" cy="164.981027753" gradientUnits="userSpaceOnUse" r="142.1495324524" xlink:href="#e"/><linearGradient id="w" gradientUnits="userSpaceOnUse" x1="277.432338817" x2="227.98566659" xlink:href="#k" y1="236.0424418166" y2="197.9406905428"/><radialGradient id="x" cx="237.416007897" cy="178.931025904" gradientUnits="userSpaceOnUse" r="36.7599091286" xlink:href="#e"/><linearGradient id="y" gradientUnits="userSpaceOnUse" x1="317.7997412604" x2="222.7243121724" xlink:href="#k" y1="367.2580589826" y2="272.1827302868"/><radialGradient id="z" cx="212.8498357726" cy="352.2689011694" gradientUnits="userSpaceOnUse" r="149.2930398356" xlink:href="#e"/><linearGradient id="A"><stop offset="0" stop-color="#e58200" stop-opacity="0"/><stop offset=".0396" stop-color="#e27f04" stop-opacity=".039216"/><stop offset=".4671" stop-color="#c15d2f" stop-opacity=".466667"/><stop offset=".8016" stop-color="#ad4949" stop-opacity=".8"/><stop offset="1" stop-color="#a64153"/></linearGradient><linearGradient id="B" gradientUnits="userSpaceOnUse" x1="177.199260454" x2="175.2658070742" xlink:href="#A" y1="410.3793198642" y2="373.9191818448"/><linearGradient id="C" gradientUnits="userSpaceOnUse" x1="142.1692093236" x2="142.1692093236" xlink:href="#A" y1="352.1076712962" y2="385.36047931"/><linearGradient id="D" gradientUnits="userSpaceOnUse" x1="270.6374935444" x2="252.353363335" xlink:href="#c" y1="534.1273636254" y2="490.7764053902"/><radialGradient id="E" cx="-301.2197" cy="44.5924" gradientTransform="matrix(.927925 -.383096 .383096 .927925 504.201336 206.938152)" gradientUnits="userSpaceOnUse" r="138.5128" xlink:href="#e"/><path d="m512 256c0 141.386719-114.613281 256-256 256s-256-114.613281-256-256 114.613281-256 256-256 256 114.613281 256 256zm0 0" fill="url(#b)"/><path d="m512 256c0-9.941406-.585938-19.746094-1.691406-29.394531l-223.960938-224.804688c-1.496094-.179687-2.996094-.359375-4.5-.507812-40.59375 21.417969-65.820312 68.085937-54.453125 119.132812 4.183594 18.773438 16.210938 37.683594 31.863281 52.515625l215.726563 215.726563c23.488281-38.691407 37.015625-84.097657 37.015625-132.667969zm0 0" fill="url(#d)"/><path d="m383.339844 150.554688c-58.542969-.144532-106.40625-48.003907-106.550782-106.546876-.035156-15.261718 3.132813-29.773437 8.859376-42.910156.320312-.738281-.582032-1.46875-1.742188-.886718-41.800781 20.90625-68.070312 68.304687-56.511719 120.214843 7.917969 35.558594 43.96875 71.605469 79.523438 79.523438 50.964843 11.351562 97.644531-13.734375 119.050781-54.238281.882812-1.671876-.8125-3.527344-2.566406-2.820313-12.375 4.972656-25.898438 7.699219-40.0625 7.664063zm0 0" fill="url(#f)"/><path d="m255.375 511.992188c.570312-.003907 1.140625-.003907 1.714844-.007813 64.679687-.269531 123.6875-24.527344 168.609375-64.332031l-184.8125-184.816406c-4.988281-5.449219-10.882813-10.078126-17.335938-13.71875-8.570312-4.832032-18.214843-7.847657-28.058593-8.691407-9.832032-.832031-19.804688.414063-29.164063 3.675781-9.34375 3.265626-18.007813 8.496094-25.15625 15.328126-7.140625 6.832031-12.835937 15.15625-16.589844 24.3125-3.742187 9.148437-5.523437 19.128906-5.136719 28.96875l.082032 1.84375c.035156.601562.097656 1.113281.144531 1.675781l.3125 3.292969.316406 3.296874.46875 3.277344.480469 3.277344.242188 1.636719.320312 1.625c.433594 2.164062.839844 4.332031 1.300781 6.492187 1.96875 8.609375 4.65625 17.050782 8.0625 25.183594 1.304688 3.160156 2.71875 6.273438 4.230469 9.332031-1.890625-.085937-3.785156-.199219-5.675781-.351562-7.863281-.585938-15.707031-1.742188-23.457031-3.449219-7.753907-1.710938-15.394532-4.027344-22.898438-6.824219-7.480469-2.859375-14.777344-6.175781-21.5-10.527343-3.136719-2-6.136719-4.242188-8.964844-6.710938-.578125-.652344-1.148437-1.316406-1.707031-1.992188.195313.34375.40625.675782.605469 1.015626-.269532-.242188-.53125-.496094-.796875-.746094-1.199219-1.277344-2.371094-2.589844-3.492188-3.953125.242188.429687.507813.851562.761719 1.277343-1.542969-1.589843-3.027344-3.242187-4.445312-4.960937 3.546874 6.285156 8.199218 12.007813 13.570312 17.035156l154.796875 154.796875c14.03125 2.417969 28.453125 3.703125 43.171875 3.738282zm0 0" fill="url(#g)"/><path d="m440.285156 165.191406c-2.285156-1.230468-4.664062-2.269531-7.097656-3.128906-2.421875-.882812-4.914062-1.546875-7.425781-2.035156-5.03125-.945313-10.152344-1.125-15.128907-.554688-2.488281.28125-4.9375.789063-7.320312 1.441406-2.386719.648438-4.710938 1.472657-6.941406 2.480469-2.230469 1-4.371094 2.167969-6.394532 3.484375-1.023437.632813-1.992187 1.359375-2.960937 2.058594-.9375.753906-1.875 1.488281-2.75 2.300781-3.5625 3.160157-6.554687 6.859375-8.867187 10.847657-.597657.984374-1.09375 2.027343-1.613282 3.042968-.464844 1.039063-.964844 2.085938-1.351562 3.113282-.832032 2.054687-1.644532 4.121093-2.4375 6.199218l54.777344 53.40625c-6.976563 6.761719-14.855469 12.558594-23.386719 17.199219-13.753907 7.496094-29.199219 11.933594-44.960938 12.925781-15.761719 1.035156-31.851562-1.398437-46.910156-7.308594-.949219-.359374-1.886719-.738281-2.820313-1.136718-.941406-.378906-1.863281-.800782-2.789062-1.214844-.9375-.402344-1.839844-.867188-2.761719-1.296875-.921875-.441406-1.972656-.976563-2.871093-1.441406-3.765626-1.890625-7.492188-3.898438-11.144532-6.042969-3.644531-2.160156-7.28125-4.367188-10.832031-6.722656-1.777344-1.171875-3.53125-2.382813-5.273437-3.613282-1.6875-1.1875-3.367188-2.390624-5.019532-3.628906-.140625-.195312-.285156-.386718-.421875-.582031.039063.121094.089844.242187.132813.367187-.3125-.238281-.625-.480468-.9375-.71875-.40625-.550781-.8125-1.105468-1.210938-1.664062.121094.34375.253906.6875.378906 1.03125-.132812-.101562-.265624-.203125-.398437-.304688-.675781-.902343-1.339844-1.816406-1.996094-2.742187.171875.488281.359375.972656.539063 1.457031-.863282-1.140625-1.71875-2.296875-2.554688-3.472656.171875.488281.359375.972656.539063 1.460938-.863281-1.144532-1.71875-2.296876-2.550781-3.472657.167968.488281.355468.96875.535156 1.457031-.863282-1.144531-1.71875-2.296874-2.550782-3.472656.167969.488282.359376.972656.535157 1.457032-.863281-1.140626-1.714844-2.296876-2.550781-3.472657.171874.488281.359374.972657.539062 1.457031-.863281-1.140624-1.71875-2.296874-2.554688-3.46875.171876.488282.359376.96875.539063 1.457032-.863281-1.144532-1.71875-2.296875-2.550781-3.472656.167968.488281.355468.972656.535156 1.457031-.863281-1.144531-1.71875-2.296875-2.550781-3.472657.167969.488282.359375.972657.535156 1.457032-.863281-1.144532-1.714844-2.296875-2.550781-3.472656.167968.492187.359375.972656.539062 1.460937-.863281-1.144531-1.71875-2.296875-2.554687-3.472656.171875.488281.359375.972656.539062 1.457031-.863281-1.144531-1.71875-2.296875-2.554687-3.472656.171875.488281.359375.972656.539062 1.457031-.863281-1.144531-1.71875-2.296875-2.550781-3.472656.167969.488281.355469.972656.535156 1.457031-.863281-1.140625-1.71875-2.292969-2.550781-3.472656.167969.492187.359375.972656.535156 1.460937-.863281-1.144531-1.714844-2.296875-2.550781-3.472656.167969.488281.359375.972656.535156 1.457031-.863281-1.144531-1.714843-2.296875-2.550781-3.472656.171875.488281.359375.972656.539062 1.457031-.863281-1.144531-1.71875-2.296875-2.554687-3.472656.171875.488281.359375.972656.539063 1.457031-.863282-1.140625-1.71875-2.292968-2.550782-3.46875 2.910156 8.386719 7.125 16.394532 12.074219 23.925782 2.472656 3.769531 5.152344 7.417968 8 10.933593 2.828125 3.539063 5.832031 6.9375 8.96875 10.21875 1.5625 1.644531 3.160156 3.253907 4.78125 4.851563.117187.109375.234375.21875.351563.328125l88.28125 88.304687c.117187.113282.238281.21875.355468.328125.554688.558594 1.097656 1.132813 1.660156 1.6875.117188.109375.234376.21875.351563.328125.558594.558594 1.101563 1.132813 1.664063 1.6875.113281.109375.234374.214844.351562.328125.554688.558594 1.097656 1.128907 1.660156 1.6875.117188.109375.238282.214844.355469.324219.554687.558594 1.097656 1.132812 1.660156 1.6875.117188.113281.238281.21875.351563.328125.558594.558594 1.101562 1.132813 1.664062 1.6875.117188.109375.234375.21875.351563.328125.558593.558594 1.097656 1.132812 1.660156 1.6875.117187.109375.238281.214844.355469.328125.558594.558594 1.097656 1.128906 1.660156 1.683594 1.640625 1.570312 3.300781 3.121093 4.992188 4.644531 3.390624 3.035156 6.859374 5.992188 10.480468 8.769531 3.605469 2.796875 7.316406 5.472657 11.125 8.035157l2.828125 1.863281c1 .632812 1.980469 1.292969 3 1.894531 1.011719.613281 2.023438 1.230469 3.058594 1.808594 1.027344.597656 2.066406 1.171875 3.117187 1.726562 4.183594 2.261719 8.554688 4.203125 13.019532 5.90625 4.472656 1.695313 9.050781 3.175782 13.726562 4.289063 9.34375 2.25 18.996094 3.453125 28.675782 3.367187 1.777343-.007812 3.554687-.074218 5.328124-.167968 29.460938-41.699219 46.773438-92.585938 46.773438-147.523438 0-7.855469-.375-15.621094-1.066406-23.296875l-57.421875-57.421875c-3.878907-4.070312-8.371094-7.5-13.226563-10.089844zm0 0" fill="url(#h)"/><path d="m504.796875 316.472656-154.746094-154.734375c-4.382812-5.058593-9.855469-9.164062-16.054687-11.929687-5.699219-2.550782-12.019532-3.960938-18.671875-3.960938-9.34375 0-18.015625 2.789063-25.265625 7.578125-.371094-.351562-.746094-.722656-1.121094-1.070312-1.507812-1.617188-3.066406-3.1875-4.695312-4.695313-1.503907-1.617187-3.0625-3.183594-4.691407-4.691406-16.011719-17.210938-38.847656-27.988281-64.207031-27.988281-48.429688 0-87.6875 39.265625-87.6875 87.691406 0 .292969.007812.59375.019531.882813-30.773437 5.121093-54.226562 31.851562-54.226562 64.070312 0 19.136719 8.273437 36.332031 21.433593 48.214844l32.851563 32.851562c.589844.652344 1.199219 1.285156 1.816406 1.917969-.070312.660156-.113281 1.328125-.113281 2.003906 0 6.945313 3.410156 13.09375 8.632812 16.867188l141.429688 141.433593c110.015625-10.015624 199.90625-89.621093 225.296875-194.441406zm0 0" fill="url(#i)"/><path d="m361.253906 202.671875c-.441406 0-.878906.007813-1.3125.015625.851563-3.496094 1.3125-7.148438 1.3125-10.910156 0-25.367188-20.5625-45.929688-45.933594-45.929688-9.976562 0-19.203124 3.191406-26.738281 8.59375-15.683593-23.769531-42.625-39.457031-73.234375-39.457031-48.429687 0-87.6875 39.257813-87.6875 87.6875 0 .296875.007813.589844.011719.886719-30.765625 5.117187-54.222656 31.855468-54.222656 64.070312 0 35.875 29.085937 64.957032 64.960937 64.957032h222.84375c35.875 0 64.960938-29.082032 64.960938-64.957032-.003906-35.875-29.085938-64.957031-64.960938-64.957031zm0 0" fill="url(#j)"/><path d="m426.210938 267.628906c0 35.875-29.082032 64.957032-64.957032 64.957032s-64.957031-29.082032-64.957031-64.957032 29.082031-64.957031 64.957031-64.957031 64.957032 29.082031 64.957032 64.957031zm0 0" fill="url(#l)"/><path d="m361.253906 191.777344c0 25.367187-20.5625 45.933594-45.933594 45.933594-25.367187 0-45.929687-20.566407-45.929687-45.933594 0-25.367188 20.5625-45.929688 45.929687-45.929688 25.371094 0 45.933594 20.5625 45.933594 45.929688zm0 0" fill="url(#m)"/><path d="m303.03125 202.671875c0 48.425781-39.257812 87.683594-87.6875 87.683594-48.425781 0-87.683594-39.257813-87.683594-87.683594 0-48.429687 39.257813-87.6875 87.683594-87.6875 48.429688 0 87.6875 39.257813 87.6875 87.6875zm0 0" fill="url(#n)"/><path d="m203.367188 267.628906c0 35.875-29.082032 64.957032-64.957032 64.957032s-64.960937-29.082032-64.960937-64.957032 29.085937-64.957031 64.960937-64.957031 64.957032 29.082031 64.957032 64.957031zm0 0" fill="url(#o)"/><path d="m74.050781 276.476562c4.316407 31.6875 31.484375 56.113282 64.359375 56.113282h222.84375c32.875 0 60.039063-24.421875 64.355469-56.113282zm0 0" fill="url(#p)"/><path d="m258.15625 332.585938-3.390625-3.386719c-4.808594-5.199219-11.6875-8.457031-19.328125-8.457031-.089844 0-.179688.007812-.269531.011718-.050781-.050781-.101563-.101562-.15625-.152344l-17.382813-17.386718c-7.5625-7.917969-18.214844-12.859375-30.03125-12.859375-22.9375 0-41.53125 18.59375-41.53125 41.53125 0 .113281.007813.230469.007813.34375-.492188.101562-.980469.222656-1.460938.355469zm0 0" fill="url(#q)"/><path d="m385.773438 397.039062s-52-50.304687 33.082031-84.855468c3.550781-1.441406 7.601562.199218 9.1875 3.691406 7.621093 16.773438 22.292969 63.773438-42.269531 81.164062zm0 0" fill="url(#r)"/><path d="m428.042969 315.875c-.878907-1.9375-2.515625-3.300781-4.40625-3.886719-22.785157 37.933594-37.863281 85.050781-37.863281 85.050781 64.5625-17.390624 49.890624-64.390624 42.269531-81.164062zm0 0" fill="url(#s)"/><path d="m417.863281 340.527344c-.636719.382812-1.296875.71875-1.949219 1.0625-.648437.34375-1.296874.6875-1.960937.992187-.652344.320313-1.359375.546875-2.050781.78125s-1.320313.566407-1.902344.996094c-.574219.4375-1.128906.902344-1.667969 1.449219.347657-.941406.699219-1.878906 1.046875-2.820313l1.765625-4.574219c.578125-1.527343 1.25-3.007812 1.855469-4.53125 1.257812-3.015624 2.625-5.960937 4.199219-8.820312l-.617188-.445312-1.527343 1.972656-.765626.992187c-.246093.335938-.464843.683594-.703124 1.027344-.898438 1.386719-1.875 2.753906-2.703126 4.183594-1.746093 2.824219-3.339843 5.71875-4.957031 8.613281-.292969.566406-.589843 1.132812-.886719 1.695312-.105468-.519531-.246093-1.03125-.476562-1.523437-.300781-.664063-.621094-1.332031-.835938-2.027344-.230468-.691406-.425781-1.398437-.621093-2.105469-.199219-.710937-.410157-1.421874-.566407-2.148437-.382812-1.445313-.628906-2.921875-.921874-4.433594l-.421876-.015625c-.371093 1.5-.632812 3.042969-.757812 4.605469-.074219.78125-.089844 1.5625-.113281 2.351563.011719.78125.027343 1.574218.082031 2.359374.050781.789063.058594 1.589844.097656 2.394532.058594.800781.25 1.574218.601563 2.296875.070312.144531.144531.28125.21875.421875.828125 1.519531.828125 3.355468.058593 4.90625l-.015624.027344c-1.339844 2.695312-2.617188 5.414062-3.914063 8.128906-.164063-.730469-.382813-1.402344-.628906-2.0625-.261719-.675782-.617188-1.289063-1.078125-1.855469-.460938-.566406-.9375-1.136719-1.320313-1.757813-.398437-.609374-.761719-1.246093-1.128906-1.882812-.371094-.636719-.75-1.273438-1.082031-1.9375-.734375-1.300781-1.339844-2.667969-2.007813-4.058594l-.410156.089844c.015625 1.546875.148437 3.105469.417969 4.648438.125.773437.304687 1.535156.476562 2.304687.210938.753906.421875 1.515625.675782 2.265625.246093.75.449218 1.523438.691406 2.292969.257812.757812.636718 1.460937 1.15625 2.074219.234375.265624.476562.527343.738281.777343 1.269531 1.21875 1.550781 3.148438.773437 4.726563-.667968 1.359375-1.339843 2.714844-2 4.074218-.835937 1.722657-1.582031 3.480469-2.257812 5.265626-.15625-.625-.347656-1.214844-.5625-1.789063-.265625-.675781-.621094-1.289063-1.082031-1.855469-.457031-.566406-.9375-1.132812-1.320313-1.757812-.398437-.609375-.761718-1.242188-1.128906-1.878906-.367188-.640626-.75-1.277344-1.082031-1.9375-.734375-1.304688-1.339844-2.671876-2.003907-4.0625l-.414062.089843c.015625 1.546875.152344 3.105469.417969 4.648438.125.773437.304687 1.535156.480469 2.304687.207031.753906.421874 1.515625.671874 2.265625.246094.75.453126 1.523438.691407 2.292969.257812.757812.636719 1.460938 1.15625 2.074219.527343.601562 1.109375 1.171875 1.796875 1.648437.789062.546875 1.160156 1.515625.898437 2.441406-.675781 2.390626-1.863281 6.722657-2.335937 9.066407-.632813 3.277343-1.148438 6.589843-1.238282 10.050781l.714844.257812c2.132813-2.714843 3.902344-5.550781 5.550782-8.429687 1.640624-2.882813 3.140624-5.8125 4.515624-8.785156.023438-.054688.050782-.105469.074219-.15625.441407-.960938 1.480469-1.445313 2.519531-1.25.765626.144531 1.527344.171875 2.273438.140625.800781-.039063 1.574219-.246094 2.300781-.578125.726563-.351563 1.429688-.734375 2.144531-1.070313.714844-.328125 1.414063-.695312 2.109376-1.0625.675781-.402344 1.355468-.796875 2.003906-1.234375 1.308594-.863281 2.535156-1.835937 3.671875-2.882812l-.21875-.359375c-1.46875.46875-2.878907.964844-4.332031 1.324218-.707032.210938-1.433594.371094-2.148438.542969-.714844.167969-1.429688.339844-2.148438.46875-.714843.148438-1.453124.1875-2.179687.242188-.730469.054687-1.417969.21875-2.09375.488281-.722656.304688-1.4375.652344-2.15625 1.101562.621094-1.601562 1.1875-3.222656 1.699219-4.867187.398437-1.3125.957031-3.082031 1.453125-4.632813.523437-1.648437 2.042969-2.820312 3.773437-2.816406.84375.003906 1.6875-.117187 2.460938-.148437.800781-.042969 1.574218-.25 2.304687-.582031.722657-.351563 1.429688-.734376 2.144531-1.070313.714844-.328125 1.414063-.695313 2.105469-1.0625.679688-.402344 1.355469-.792969 2.007813-1.234375 1.304687-.863281 2.53125-1.832031 3.671875-2.882812l-.21875-.359376c-1.46875.46875-2.878907.964844-4.332031 1.324219-.710938.210938-1.4375.375-2.152344.539063-.714844.171875-1.425782.34375-2.144532.472656-.714843.148438-1.457031.1875-2.183593.242188-.726563.054687-1.417969.21875-2.089844.488281-1.273437.539062-2.515625 1.199219-3.816406 2.34375 1.09375-3.074219 2.164062-6.164063 3.308593-9.21875l.039063-.121094c.652344-1.875 2.261719-3.304687 4.226563-3.585937.554687-.078126 1.09375-.207032 1.617187-.367188.765625-.238281 1.460937-.632812 2.082031-1.136719.613282-.523437 1.203125-1.070312 1.808594-1.574219.613281-.496093 1.195312-1.027343 1.777344-1.554687.554687-.5625 1.113281-1.109375 1.632812-1.699219 1.046875-1.160156 1.992188-2.410156 2.832032-3.710937l-.304688-.292969c-1.300781.824219-2.542969 1.65625-3.855469 2.371094zm0 0" fill="url(#t)"/><path d="m426.210938 267.625c0 3.949219-.351563 7.820312-1.027344 11.578125-5.460938 30.351563-32.003906 53.386719-63.933594 53.386719h-24.128906l-72.707032-72.738282-6.046874-6.050781c-3.132813-3.28125-6.140626-6.679687-8.964844-10.214843-2.851563-3.519532-5.53125-7.167969-8.003906-10.9375-4.949219-7.53125-9.164063-15.539063-12.074219-23.929688.640625.90625 1.292969 1.796875 1.953125 2.679688.660156.890624 1.328125 1.765624 2.003906 2.628906.332031.4375.675781.875 1.035156 1.300781 7.996094 10.027344 17.140625 18.792969 26.960938 26.585937.359375.292969.71875.574219 1.082031.847657.785156.632812 1.589844 1.25 2.386719 1.851562.359375.28125.726562.554688 1.085937.828125.035157.027344.0625.042969.097657.070313.074218.058593.144531.109375.222656.160156.800781.601563 1.609375 1.191406 2.421875 1.78125.8125.582031 1.625 1.164063 2.449219 1.738281 1.746093 1.234375 3.5 2.441406 5.273437 3.613282 3.554687 2.355468 7.183594 4.5625 10.832031 6.722656 3.65625 2.148437 7.378906 4.160156 11.148438 6.042968.898437.460938 1.953125 1.003907 2.867187 1.4375.925781.4375 1.824219.902344 2.765625 1.304688.925782.410156 1.847656.835938 2.792969 1.214844.921875.402344 1.863281.777344 2.816406 1.128906 15.058594 5.917969 31.148438 8.347656 46.910157 7.3125 15.765624-.992188 31.203124-5.429688 44.960937-12.929688 8.589844-4.664062 16.507813-10.503906 23.519531-17.335937.703125 2.414063 1.300782 7.972656 1.300782 19.921875zm0 0" fill="url(#u)"/><path d="m229.324219 208.722656c10.257812 14.46875 22.832031 26.445313 36.511719 36.714844 1.707031 1.285156 3.445312 2.527344 5.191406 3.757812 1.738281 1.230469 3.492187 2.4375 5.269531 3.613282 3.550781 2.355468 7.1875 4.5625 10.832031 6.71875 3.65625 2.148437 7.378906 4.15625 11.144532 6.046875.898437.464843 1.949218.996093 2.871093 1.441406.921875.429687 1.828125.894531 2.761719 1.296875.925781.414062 1.851562.835938 2.789062 1.214844.933594.398437 1.871094.777344 2.820313 1.132812 15.058594 5.910156 31.152344 8.347656 46.914063 7.3125 15.761718-.992187 31.203124-5.429687 44.960937-12.929687 13.761719-7.480469 25.832031-17.976563 35.144531-30.6875 1.175782-1.578125 2.292969-3.203125 3.386719-4.847657l1.574219-2.476562c.40625-.714844.855468-1.40625 1.222656-2.140625.410156-.714844.726562-1.46875 1.089844-2.207031.300781-.761719.648437-1.507813.902344-2.292969.558593-1.542969 1.019531-3.132813 1.351562-4.757813.355469-1.617187.5625-3.273437.652344-4.945312.109375-1.667969.078125-3.355469-.082032-5.035156-.054687-.84375-.195312-1.679688-.289062-2.523438-.152344-.835937-.273438-1.679687-.480469-2.507812-.375-1.664063-.859375-3.3125-1.492187-4.914063-.625-1.601562-1.34375-3.179687-2.214844-4.679687-.847656-1.511719-1.773438-3-2.851562-4.378906-2.117188-2.800782-4.699219-5.28125-7.605469-7.421876-1.445313-1.089843-2.988281-2.058593-4.597657-2.914062-1.597656-.882812-3.289062-1.597656-5.019531-2.234375-3.460937-1.289063-7.167969-2.074219-10.96875-2.285156-1.902343-.148438-3.828125-.125-5.757812.023437-1.933594.136719-3.863281.453125-5.785157.882813-1.925781.40625-3.839843.96875-5.703124 1.691406-1.871094.710937-3.71875 1.546875-5.503907 2.53125-1.792969.972656-3.523437 2.09375-5.175781 3.347656-1.675781 1.234375-3.269531 2.613281-4.753906 4.125-.777344.730469-1.472656 1.535157-2.203125 2.324219-.683594.828125-1.371094 1.636719-2.0625 2.523438-1.367188 1.742187-2.757813 3.476562-4.167969 5.199218.792969-2.078125 1.605469-4.148437 2.4375-6.203125.386719-1.027343.886719-2.070312 1.351562-3.113281.519532-1.011719 1.015626-2.054688 1.613282-3.039062 2.3125-3.992188 5.304687-7.6875 8.867187-10.847657.875-.8125 1.8125-1.550781 2.75-2.300781.96875-.703125 1.9375-1.425781 2.960938-2.058594 2.023437-1.320312 4.164062-2.484375 6.394531-3.484375 2.226562-1.011719 4.554688-1.835937 6.941406-2.480469 2.382813-.65625 4.832032-1.164062 7.320313-1.445312 4.976562-.566406 10.097656-.390625 15.128906.554688 2.511719.492187 5.003906 1.15625 7.425781 2.039062 2.433594.859375 4.808594 1.898438 7.097656 3.125 9.15625 4.886719 17.039063 12.726562 21.878907 22.285156 1.238281 2.375 2.277343 4.859375 3.144531 7.40625.875 2.542969 1.578125 5.160156 2.023438 7.832032.476562 2.664062.753906 5.371093.8125 8.09375.074218 2.71875-.039063 5.457031-.386719 8.171874-.335938 2.71875-.835938 5.429688-1.613281 8.066407-.347657 1.332031-.816407 2.625-1.257813 3.929687-.5 1.277344-.976563 2.574219-1.566406 3.820313-.546875 1.261719-1.183594 2.480469-1.824219 3.699219-.613281 1.113281-1.1875 2.121093-1.796875 3.183593-1.230469 2.082031-2.496094 4.144531-3.84375 6.160157-10.734375 16.15625-25.628906 29.648437-42.789063 38.839843-17.148437 9.238281-36.542968 14.164063-55.898437 14.28125-9.679687.085938-19.332031-1.117187-28.675781-3.367187-4.675782-1.113282-9.253906-2.59375-13.722656-4.289063-4.46875-1.703125-8.839844-3.644531-13.023438-5.90625-1.050781-.554687-2.089844-1.128906-3.117188-1.726562-1.035156-.578125-2.046874-1.195313-3.058593-1.808594-1.019531-.601563-2.003907-1.261719-3-1.894531l-2.828125-1.863282c-3.808594-2.5625-7.519532-5.238281-11.125-8.035156-3.617188-2.78125-7.09375-5.734375-10.480469-8.769531-1.691406-1.523437-3.351563-3.074219-4.992187-4.644531-1.621094-1.59375-3.21875-3.207032-4.78125-4.851563-3.136719-3.28125-6.140626-6.679687-8.96875-10.21875-2.847657-3.515625-5.527344-7.160156-8-10.933593-4.949219-7.53125-9.164063-15.535157-12.074219-23.925782zm0 0" fill="url(#v)"/><path d="m227.054688 177.738281c-.425782 4.21875.421874 8.179688 1.617187 11.933594 1.234375 3.753906 2.992187 7.292969 5.167969 10.546875 1.839844 2.753906 3.960937 5.328125 6.382812 7.617188l79.953125 79.957031c.933594.988281 1.894531 1.949219 2.933594 2.835937 2.972656 2.59375 6.34375 4.808594 10.316406 6.179688-.59375-2.070313-1.449219-3.820313-2.238281-5.601563-.804688-1.765625-1.707031-3.402343-2.574219-5.054687-1.796875-3.25-3.683593-6.351563-5.703125-9.367188-2.035156-3.007812-4.113281-5.980468-6.441406-8.882812-2.097656-2.605469-4.269531-5.167969-6.917969-7.71875zm0 0" fill="url(#w)"/><path d="m227.054688 177.738281c3.089843 2.84375 5.519531 5.703125 7.863281 8.609375 2.324219 2.898438 4.40625 5.875 6.441406 8.882813 2.019531 3.015625 3.902344 6.117187 5.703125 9.363281.863281 1.65625 1.769531 3.292969 2.574219 5.058594.789062 1.78125 1.640625 3.53125 2.234375 5.601562-3.972656-1.371094-7.34375-3.585937-10.3125-6.179687-3.007813-2.570313-5.539063-5.601563-7.71875-8.855469-2.175782-3.253906-3.929688-6.796875-5.164063-10.546875-1.199219-3.753906-2.046875-7.714844-1.621093-11.933594zm0 0" fill="url(#x)"/><path d="m257.777344 323.578125c.828125-4.664063 1.230468-9.414063 1.214844-14.152344-.023438-1.191406-.015626-2.363281-.085938-3.570312-.09375-1.207031-.152344-2.421875-.289062-3.628907-.273438-2.414062-.652344-4.828124-1.164063-7.210937-2.046875-9.546875-6.167969-18.675781-11.972656-26.566406-1.429688-1.953125-2.960938-3.828125-4.597657-5.609375l69.75 69.746094h-55.003906c.898438-2.953126 1.609375-5.964844 2.148438-9.007813zm0 0" fill="url(#y)"/><path d="m343.765625 431.710938c-14.160156 7.265624-29.5625 11.660156-45.0625 13.058593l-2.902344.269531-2.910156.132813c-1.945313.078125-3.835937.1875-5.921875.195313l-5.859375-.058594-1.460937-.019532-1.457032-.089843-2.917968-.175781c-7.757813-.546876-15.457032-1.582032-22.980469-3.339844-15.019531-3.582032-29.425781-9.371094-42.394531-17.460938-6.492188-4.015625-12.644532-8.550781-18.382813-13.539062l-2.125-1.898438c-.699219-.636718-1.441406-1.230468-2.105469-1.910156l-4.085937-3.964844-3.886719-4.152344c-1.292969-1.382812-2.46875-2.871093-3.710938-4.296874-1.863281-2.261719-3.65625-4.578126-5.382812-6.941407l8.15625-.1875 6.125-.140625 3.410156-.175781c1.148438-.058594 2.285156-.226563 3.429688-.335937 4.558594-.550782 9.09375-1.503907 13.511718-2.867188 4.421876-1.363281 8.730469-3.132812 12.855469-5.28125 4.121094-2.148438 8.03125-4.71875 11.691407-7.605469 7.328124-5.777343 13.628906-12.894531 18.503906-20.945312 4.867187-8.050781 8.226562-17.0625 9.871094-26.402344.828124-4.667969 1.230468-9.414063 1.21875-14.15625-.027344-1.191406-.019532-2.363281-.085938-3.566406-.09375-1.210938-.152344-2.421875-.292969-3.632813-.269531-2.414062-.648437-4.824218-1.160156-7.210937-2.046875-9.542969-6.167969-18.675781-11.976563-26.566407-5.777343-7.929687-13.363281-14.5-21.929687-19.332031s-18.214844-7.84375-28.058594-8.691406c-9.828125-.832031-19.800781.414063-29.164062 3.679687-9.339844 3.265626-18.003907 8.496094-25.152344 15.324219-7.144531 6.832031-12.835937 15.160157-16.589844 24.3125-3.746093 9.152344-5.527343 19.132813-5.136719 28.96875l.082032 1.84375c.03125.605469.097656 1.117188.144531 1.675781l.3125 3.296876.3125 3.292968.46875 3.28125.480469 3.273438.246094 1.636718.316406 1.625c.433594 2.164063.84375 4.335938 1.304687 6.492188 1.96875 8.609375 4.65625 17.050781 8.0625 25.1875 1.300781 3.160156 2.714844 6.269531 4.230469 9.328125-1.894531-.082031-3.789062-.195313-5.679688-.347656-7.859374-.589844-15.703124-1.742188-23.457031-3.453125-7.753906-1.707032-15.394531-4.023438-22.898437-6.824219-7.480469-2.855469-14.777344-6.175781-21.5-10.523437-3.371094-2.152344-6.59375-4.570313-9.609375-7.261719-3.003907-2.699219-5.824219-5.652344-8.429688-8.8125 4.035157 7.140625 9.484375 13.5625 15.804688 19.050781 6.359375 5.460938 13.527343 9.941406 20.914062 13.804688 7.402344 3.882812 15.160157 7.136718 23.128907 9.851562 7.980468 2.6875 16.203124 4.691406 24.542968 6.167969 4.878906.855469 9.808594 1.457031 14.757813 1.859375 14.164062 22.519531 34.097656 41.269531 57.277343 53.773437 7.617188 4.222657 15.65625 7.625 23.863282 10.394531 8.210937 2.765626 16.628906 4.859376 25.152344 6.1875 17.050781 2.585938 34.425781 2.25 51.125-.820312 8.410156-1.609375 16.644531-3.992188 24.507812-7.199219 7.863281-3.195312 15.355469-7.203125 22.324219-11.898437 6.980469-4.679688 13.429687-10.058594 19.25-15.980469 5.773437-5.964844 11.003906-12.398437 15.382812-19.332031-10.945312 12.207031-23.933593 22.179687-38.097656 29.433594zm-196.566406-138.652344c2.488281-5.945313 6.246093-11.363282 10.929687-15.796875 4.648438-4.472657 10.261719-7.910157 16.316406-10.066407 6.046876-2.167968 12.628907-3.011718 19.074219-2.535156 6.445313.425782 12.78125 2.273438 18.496094 5.355469 5.71875 3.074219 10.804687 7.375 14.835937 12.511719 4.03125 5.140625 6.972657 11.132812 8.550782 17.515625.398437 1.59375.699218 3.214843.9375 4.851562.125.816407.175781 1.644531.277344 2.464844.085937.832031.109374 1.703125.167968 2.554687.15625 3.417969.011719 6.851563-.441406 10.25-.453125 3.394532-1.210938 6.757813-2.273438 10.03125-1.066406 3.277344-2.457031 6.449219-4.085937 9.503907-3.261719 6.113281-7.652344 11.675781-12.914063 16.308593-5.257812 4.628907-11.347656 8.382813-17.980468 10.898438-3.308594 1.261719-6.746094 2.230469-10.257813 2.890625-.882812.140625-1.757812.339844-2.648437.4375l-2.695313.34375-6.097656.605469-12.199219 1.214844-3.050781.300781-1.34375.128906c-3.082031-5.539063-5.777344-11.277344-8.007813-17.199219-2.65625-7.027344-4.84375-14.226562-6.382812-21.570312l-1.007812-5.539063-.25-1.382812-.175782-1.398438-.355468-2.789062-.355469-2.792969-.210938-2.808594-.21875-2.804687c-.03125-.457031-.085937-.960938-.097656-1.378907l-.027344-1.214843c-.140625-6.484375 1.003907-12.941407 3.492188-18.890625zm0 0" fill="url(#z)"/><path d="m176.316406 424.863281h34.636719c-.351563-.214843-.707031-.425781-1.054687-.640625-6.492188-4.015625-12.644532-8.550781-18.378907-13.539062l-2.125-1.898438c-.703125-.636718-1.445312-1.230468-2.109375-1.910156l-4.085937-3.964844-3.886719-4.152344c-1.292969-1.382812-2.46875-2.871093-3.710938-4.296874-1.863281-2.261719-3.65625-4.578126-5.382812-6.941407l-27.238281-.367187c9 14.308594 20.328125 27.082031 33.335937 37.710937zm0 0" fill="url(#B)"/><path d="m152.789062 355.628906c-1.824218-4.828125-3.421874-9.738281-4.746093-14.71875h-24.5c1.925781 7.992188 4.464843 15.832032 7.632812 23.402344 1.304688 3.160156 2.71875 6.269531 4.230469 9.328125l25.390625-.816406c-3.082031-5.535157-5.777344-11.273438-8.007813-17.195313zm0 0" fill="url(#C)"/><path d="m296.863281 478.421875c-1.5-.03125-2.957031.011719-4.40625.050781-1.449219.046875-2.867187.152344-4.304687.144532-2.871094.007812-5.660156.1875-8.46875.109374-1.398438-.011718-2.773438.050782-4.160156.011719-1.386719-.058593-2.761719-.070312-4.128907-.105469-1.367187-.015624-2.734375-.082031-4.09375-.167968l-4.0625-.214844c-5.398437-.425781-10.71875-.972656-15.984375-1.789062-5.261718-.859376-10.46875-1.871094-15.640625-3.128907-10.308593-2.601562-20.484375-5.953125-30.574219-10.113281-5.0625-2.054688-10.085937-4.320312-15.148437-6.703125-5.085937-2.378906-10.132813-4.914063-15.378906-7.613281 1.425781 2.605468 3.183593 4.992187 5.03125 7.289062 1.855469 2.292969 3.851562 4.476563 5.949219 6.550782.089843.085937.183593.167968.273437.253906l47.597656 47.613281c8.554688.886719 17.230469 1.363281 26.015625 1.382813.566406 0 1.140625-.003907 1.710938-.003907 22.390625-.09375 44.097656-3.066406 64.78125-8.558593zm0 0" fill="url(#D)"/><path d="m170.511719 448.902344c5.242187 2.695312 10.292969 5.234375 15.375 7.609375 5.0625 2.386719 10.085937 4.652343 15.148437 6.703125 10.089844 4.164062 20.265625 7.515625 30.578125 10.117187 5.167969 1.253907 10.378907 2.265625 15.636719 3.128907 5.269531.816406 10.585938 1.363281 15.988281 1.789062l4.0625.214844c1.359375.085937 2.722657.152344 4.09375.164062 1.367188.039063 2.742188.050782 4.128907.109375 1.386718.039063 2.761718-.023437 4.160156-.011719 2.808594.078126 5.597656-.105468 8.464844-.113281 1.441406.011719 2.859374-.09375 4.308593-.140625 1.449219-.039062 2.90625-.082031 4.40625-.050781-4.914062 3.25-10.238281 5.886719-15.824219 7.84375-1.398437.480469-2.800781.984375-4.222656 1.414063-1.425781.402343-2.867187.757812-4.308594 1.136718-.726562.175782-1.445312.402344-2.175781.527344l-2.199219.402344c-1.46875.257812-2.941406.570312-4.421874.75l-4.46875.488281c-1.496094.179687-2.992188.191406-4.496094.257813-3.007813.183593-6.011719.0625-9.023438-.0625-6.007812-.398438-11.996094-1.277344-17.84375-2.714844-11.679687-2.929688-22.800781-7.859375-32.652344-14.503906-4.921874-3.328126-9.539062-7.070313-13.738281-11.222657-2.097656-2.074219-4.09375-4.253906-5.949219-6.550781-1.847656-2.292969-3.601562-4.679688-5.027343-7.285156zm0 0" fill="url(#E)"/></svg>