<svg height="512pt" viewBox="0 0 512 512.00119" width="512pt" xmlns="http://www.w3.org/2000/svg" xmlns:xlink="http://www.w3.org/1999/xlink"><radialGradient id="a" cx="215.84389696" cy="185.726788568" gradientUnits="userSpaceOnUse" r="336.689469216"><stop offset="0" stop-color="#3b395f"/><stop offset=".3952" stop-color="#39375d"/><stop offset=".6279" stop-color="#323154"/><stop offset=".8179" stop-color="#262846"/><stop offset=".9849" stop-color="#151a32"/><stop offset="1" stop-color="#131830"/></radialGradient><linearGradient id="b"><stop offset="0" stop-color="#131830" stop-opacity="0"/><stop offset=".8421" stop-color="#131830"/></linearGradient><linearGradient id="c" gradientUnits="userSpaceOnUse" x1="499.978756528" x2="27.133440448" xlink:href="#b" y1="459.903364088" y2="54.320888792"/><linearGradient id="d" gradientUnits="userSpaceOnUse" x1="311.706410704" x2="181.372697488" xlink:href="#b" y1="574.255373648" y2="443.92156004"/><linearGradient id="e" gradientUnits="userSpaceOnUse" x1="355.77578812" x2="303.572349688" xlink:href="#b" y1="501.161263544" y2="480.079144328"/><linearGradient id="f" gradientUnits="userSpaceOnUse" x1="188.055491752" x2="117.78149332" xlink:href="#b" y1="499.91118236" y2="457.412036216"/><radialGradient id="g" cx="352.53915004" cy="73.669740128" gradientUnits="userSpaceOnUse" r="194.387724504"><stop offset="0" stop-color="#ffebc9"/><stop offset=".2771" stop-color="#ffe9c5"/><stop offset=".5263" stop-color="#fee2bb"/><stop offset=".7641" stop-color="#fdd7a8"/><stop offset=".9948" stop-color="#fbc78f"/><stop offset="1" stop-color="#fbc78e"/></radialGradient><linearGradient id="h" gradientUnits="userSpaceOnUse" x1="287.91129808" x2="350.548276288" y1="377.110784432" y2="439.74776264"><stop offset="0" stop-color="#ffd459"/><stop offset=".2296" stop-color="#ffd355"/><stop offset=".4362" stop-color="#ffcf4a"/><stop offset=".634" stop-color="#ffc838"/><stop offset=".825" stop-color="#ffbf1f"/><stop offset="1" stop-color="#ffb400"/></linearGradient><linearGradient id="i"><stop offset="0" stop-color="#e58200" stop-opacity="0"/><stop offset=".0396" stop-color="#e27f04" stop-opacity=".039216"/><stop offset=".4671" stop-color="#c15d2f" stop-opacity=".466667"/><stop offset=".8016" stop-color="#ad4949" stop-opacity=".8"/><stop offset="1" stop-color="#a64153"/></linearGradient><linearGradient id="j" gradientUnits="userSpaceOnUse" x1="377.653614328" x2="312.892542184" xlink:href="#i" y1="392.73669884" y2="327.975526304"/><linearGradient id="k" gradientUnits="userSpaceOnUse" x1="436.130348056" x2="153.137748664" xlink:href="#i" y1="357.398614448" y2="74.406015056"/><radialGradient id="l" cx="160.864418944" cy="124.111901312" gradientUnits="userSpaceOnUse" r="279.262534632"><stop offset="0" stop-color="#ecf7ff"/><stop offset=".3473" stop-color="#e9f5ff"/><stop offset=".62" stop-color="#dff0ff"/><stop offset=".8666" stop-color="#cee7ff"/><stop offset="1" stop-color="#c2e0ff"/></radialGradient><linearGradient id="m"><stop offset=".0029" stop-color="#c2e0ff" stop-opacity="0"/><stop offset=".0763" stop-color="#bfdcfd" stop-opacity=".07451"/><stop offset="1" stop-color="#9eb2e7"/></linearGradient><linearGradient id="n" gradientUnits="userSpaceOnUse" x1="338.669292496" x2="378.922769992" xlink:href="#m" y1="310.554000584" y2="189.111304064"/><linearGradient id="o" gradientUnits="userSpaceOnUse" x1="292.61918092" x2="344.37326476" xlink:href="#m" y1="227.472593144" y2="150.738971864"/><linearGradient id="p" gradientUnits="userSpaceOnUse" x1="187.198144072" x2="187.198144072" xlink:href="#m" y1="236.926708568" y2="84.212104832"/><linearGradient id="q" gradientUnits="userSpaceOnUse" x1="108.123682528" x2="26.425877632" xlink:href="#m" y1="309.39075848" y2="232.179672848"/><linearGradient id="r" gradientUnits="userSpaceOnUse" x1="223.178436088" x2="223.178436088" xlink:href="#m" y1="326.913278552" y2="421.274831504"/><linearGradient id="s" gradientUnits="userSpaceOnUse" x1="215.73497164" x2="116.970727528" xlink:href="#m" y1="419.1227282" y2="320.358484088"/><linearGradient id="t" gradientUnits="userSpaceOnUse" x1="382.05289216" x2="230.795679088" y1="383.20297256" y2="289.503906416"><stop offset=".0029" stop-color="#c2e0ff" stop-opacity="0"/><stop offset=".188" stop-color="#b9d5f9" stop-opacity=".184314"/><stop offset=".695" stop-color="#a5bbec" stop-opacity=".694118"/><stop offset="1" stop-color="#9eb2e7"/></linearGradient><linearGradient id="u"><stop offset="0" stop-color="#00c6f6"/><stop offset=".8567" stop-color="#0b9cfd"/><stop offset="1" stop-color="#0d94fe"/></linearGradient><linearGradient id="v" gradientUnits="userSpaceOnUse" x1="200.974536664" x2="281.627863192" xlink:href="#u" y1="273.028374512" y2="353.68170104"/><linearGradient id="w" gradientUnits="userSpaceOnUse" x1="232.640181304" x2="313.29290548" xlink:href="#u" y1="241.363934576" y2="322.016658752"/><linearGradient id="x" gradientUnits="userSpaceOnUse" x1="200.975038624" x2="281.6277628" xlink:href="#u" y1="273.029077256" y2="353.681801432"/><linearGradient id="y" gradientUnits="userSpaceOnUse" x1="232.640181304" x2="313.292604304" xlink:href="#u" y1="241.36413536" y2="322.01655836"/><linearGradient id="z" gradientUnits="userSpaceOnUse" x1="194.415425344" x2="275.070458536" xlink:href="#u" y1="279.584674856" y2="360.239708048"/><linearGradient id="A" gradientUnits="userSpaceOnUse" x1="239.195377336" x2="319.851113272" xlink:href="#u" y1="234.80402012" y2="315.459655664"/><linearGradient id="B" gradientUnits="userSpaceOnUse" x1="216.807459376" x2="297.460183552" xlink:href="#u" y1="257.196355328" y2="337.849079504"/><linearGradient id="C" gradientUnits="userSpaceOnUse" x1="216.80816212" x2="297.460183552" xlink:href="#u" y1="257.197058072" y2="337.849079504"/><linearGradient id="D"><stop offset="0" stop-color="#0d94fe" stop-opacity="0"/><stop offset=".5142" stop-color="#0681cd" stop-opacity=".513725"/><stop offset="1" stop-color="#0070a2"/></linearGradient><linearGradient id="E" gradientUnits="userSpaceOnUse" x1="280.76991316" x2="264.290465968" xlink:href="#D" y1="332.750872568" y2="316.271425376"/><linearGradient id="F" gradientUnits="userSpaceOnUse" x1="280.2298042" x2="264.805276144" xlink:href="#D" y1="348.21033704" y2="332.785808984"/><linearGradient id="G" gradientUnits="userSpaceOnUse" x1="292.319811976" x2="275.88985804" xlink:href="#D" y1="321.111223304" y2="304.681269368"/><linearGradient id="H" gradientUnits="userSpaceOnUse" x1="307.734100048" x2="291.960810184" xlink:href="#D" y1="320.798000264" y2="305.0247104"/><linearGradient id="I" gradientUnits="userSpaceOnUse" x1="302.91036484" x2="268.420492456" xlink:href="#D" y1="343.299260792" y2="308.809388408"/><linearGradient id="J" gradientUnits="userSpaceOnUse" x1="283.151311792" x2="268.488759016" xlink:href="#D" y1="278.711866808" y2="264.049314032"/><linearGradient id="K" gradientUnits="userSpaceOnUse" x1="314.277550216" x2="287.829378208" xlink:href="#D" y1="282.942184904" y2="277.687567232"/><linearGradient id="L" gradientUnits="userSpaceOnUse" x1="257.024996536" x2="343.40347804" xlink:href="#u" y1="247.12964792" y2="333.508129424"/><linearGradient id="M" gradientUnits="userSpaceOnUse" x1="206.741153536" x2="293.119936216" xlink:href="#u" y1="297.413792096" y2="383.792574776"/><linearGradient id="N" gradientUnits="userSpaceOnUse" x1="257.024996536" x2="343.40347804" xlink:href="#u" y1="247.130250272" y2="333.508631384"/><linearGradient id="O" gradientUnits="userSpaceOnUse" x1="206.741555104" x2="293.117827984" xlink:href="#u" y1="297.414193664" y2="383.790466544"/><linearGradient id="P" gradientUnits="userSpaceOnUse" x1="263.466548824" x2="349.844929936" xlink:href="#u" y1="240.688396808" y2="327.06677792"/><linearGradient id="Q" gradientUnits="userSpaceOnUse" x1="200.299300072" x2="286.677881968" xlink:href="#u" y1="303.855344384" y2="390.233825888"/><linearGradient id="R" gradientUnits="userSpaceOnUse" x1="231.88252288" x2="318.26180752" xlink:href="#u" y1="272.271418832" y2="358.65060308"/><linearGradient id="S" gradientUnits="userSpaceOnUse" x1="231.882723664" x2="318.260502424" xlink:href="#u" y1="272.271619616" y2="358.649398376"/><linearGradient id="T" gradientUnits="userSpaceOnUse" x1="293.472412528" x2="258.575350192" xlink:href="#D" y1="314.876779712" y2="272.09964812"/><linearGradient id="U" gradientUnits="userSpaceOnUse" x1="267.82687456" x2="232.440802792" xlink:href="#D" y1="336.627911216" y2="293.251439384"/><linearGradient id="V" gradientUnits="userSpaceOnUse" x1="296.207391784" x2="260.626860712" xlink:href="#D" y1="313.77186536" y2="270.15706292"/><linearGradient id="W" gradientUnits="userSpaceOnUse" x1="280.483294" x2="244.903666456" xlink:href="#D" y1="326.599252376" y2="282.985554248"/><linearGradient id="X"><stop offset="0" stop-color="#ecf7ff"/><stop offset="1" stop-color="#c2e0ff"/></linearGradient><radialGradient id="Y" cx="269.447000656" cy="309.835896608" gradientUnits="userSpaceOnUse" r="14.248536168" xlink:href="#X"/><linearGradient id="Z" gradientUnits="userSpaceOnUse" x1="259.914278296" x2="305.677770712" xlink:href="#u" y1="300.302672288" y2="346.066164704"/><radialGradient id="aa" cx="247.456233448" cy="279.151382984" gradientUnits="userSpaceOnUse" r="89.18775084" xlink:href="#X"/><radialGradient id="ab" cx="247.45884364" cy="279.151382984" gradientUnits="userSpaceOnUse" r="89.174097528" xlink:href="#X"/><radialGradient id="ac" cx="247.456233448" cy="279.15469592" gradientUnits="userSpaceOnUse" r="89.174398704" xlink:href="#X"/><radialGradient id="ad" cx="247.45884364" cy="279.15469592" gradientUnits="userSpaceOnUse" r="89.17369596" xlink:href="#X"/><radialGradient id="ae" cx="247.459546384" cy="279.152085728" gradientUnits="userSpaceOnUse" r="89.173796352" xlink:href="#X"/><radialGradient id="af" cx="247.459546384" cy="279.154093568" gradientUnits="userSpaceOnUse" r="89.173896744" xlink:href="#X"/><radialGradient id="ag" cx="247.45633384" cy="279.152085728" gradientUnits="userSpaceOnUse" r="89.174097528" xlink:href="#X"/><radialGradient id="ah" cx="247.45633384" cy="279.154093568" gradientUnits="userSpaceOnUse" r="89.173997136" xlink:href="#X"/><linearGradient id="ai"><stop offset="0" stop-color="#fff" stop-opacity="0"/><stop offset="1" stop-color="#fff"/></linearGradient><linearGradient id="aj" gradientUnits="userSpaceOnUse" x1="299.244651352" x2="203.17292068" xlink:href="#ai" y1="348.526270664" y2="223.784090672"/><linearGradient id="ak" gradientUnits="userSpaceOnUse" x1="306.749254528" x2="210.67421092" xlink:href="#ai" y1="342.75001616" y2="218.003519312"/><linearGradient id="al" gradientUnits="userSpaceOnUse" x1="324.146686168" x2="228.078569608" xlink:href="#ai" y1="329.344371224" y2="204.606809264"/><linearGradient id="am" gradientUnits="userSpaceOnUse" x1="274.35235456" x2="178.280925064" xlink:href="#ai" y1="367.69742816" y2="242.955649736"/><linearGradient id="an" gradientUnits="userSpaceOnUse" x1="291.752496784" x2="195.687994336" xlink:href="#ai" y1="354.295296944" y2="229.562453408"/><linearGradient id="ao" gradientUnits="userSpaceOnUse" x1="326.981254288" x2="230.91323812" xlink:href="#ai" y1="327.162351104" y2="202.424889536"/><linearGradient id="ap" gradientUnits="userSpaceOnUse" x1="313.580628952" x2="217.512512392" xlink:href="#ai" y1="337.484556152" y2="212.747094584"/><linearGradient id="aq" gradientUnits="userSpaceOnUse" x1="284.919415696" x2="188.84748424" xlink:href="#ai" y1="359.558749112" y2="234.816167552"/><linearGradient id="ar" gradientUnits="userSpaceOnUse" x1="271.518188008" x2="175.446256552" xlink:href="#ai" y1="369.880251416" y2="245.137770248"/><linearGradient id="as" gradientUnits="userSpaceOnUse" x1="17.832724" x2="149.047477408" xlink:href="#u" y1="358.475218256" y2="489.689971664"/><linearGradient id="at" gradientUnits="userSpaceOnUse" x1="69.3488788" x2="200.564033776" xlink:href="#u" y1="306.958661888" y2="438.173816864"/><linearGradient id="au" gradientUnits="userSpaceOnUse" x1="17.833527136" x2="149.047176232" xlink:href="#u" y1="358.475820608" y2="489.689469704"/><linearGradient id="av" gradientUnits="userSpaceOnUse" x1="69.349280368" x2="200.563431424" xlink:href="#u" y1="306.959364632" y2="438.17361608"/><linearGradient id="aw" gradientUnits="userSpaceOnUse" x1="7.164969688" x2="138.378418" xlink:href="#u" y1="369.14457884" y2="500.358027152"/><linearGradient id="ax" gradientUnits="userSpaceOnUse" x1="80.014123312" x2="211.233996712" xlink:href="#u" y1="296.28659072" y2="427.506363728"/><linearGradient id="ay" gradientUnits="userSpaceOnUse" x1="43.591403752" x2="174.80615716" xlink:href="#u" y1="332.717140856" y2="463.931894264"/><linearGradient id="az" gradientUnits="userSpaceOnUse" x1="43.591102576" x2="174.805956376" xlink:href="#u" y1="332.717442032" y2="463.93219544"/><linearGradient id="aA" gradientUnits="userSpaceOnUse" x1="147.651727432" x2="120.841039912" xlink:href="#D" y1="455.63730644" y2="428.826518528"/><linearGradient id="aB" gradientUnits="userSpaceOnUse" x1="146.772996256" x2="121.6782088" xlink:href="#D" y1="480.789417728" y2="455.69452988"/><linearGradient id="aC" gradientUnits="userSpaceOnUse" x1="166.4430016" x2="139.712527288" xlink:href="#D" y1="436.701267008" y2="409.970792696"/><linearGradient id="aD" gradientUnits="userSpaceOnUse" x1="191.519818888" x2="165.85721428" xlink:href="#D" y1="436.191777608" y2="410.529173"/><linearGradient id="aE" gradientUnits="userSpaceOnUse" x1="183.672979384" x2="127.560477256" xlink:href="#D" y1="472.799218448" y2="416.686816712"/><linearGradient id="aF" gradientUnits="userSpaceOnUse" x1="151.526155888" x2="127.671711592" xlink:href="#D" y1="367.720116752" y2="343.865672456"/><linearGradient id="aG" gradientUnits="userSpaceOnUse" x1="202.164985" x2="159.13797772" xlink:href="#D" y1="374.603193056" y2="366.054713864"/><linearGradient id="aH" gradientUnits="userSpaceOnUse" x1="109.020685048" x2="249.552217624" xlink:href="#u" y1="316.339189976" y2="456.870722552"/><linearGradient id="aI" gradientUnits="userSpaceOnUse" x1="27.21234856" x2="167.74408192" xlink:href="#u" y1="398.14632176" y2="538.67805512"/><linearGradient id="aJ" gradientUnits="userSpaceOnUse" x1="109.02028348" x2="249.55151488" xlink:href="#u" y1="316.3388888" y2="456.8701202"/><linearGradient id="aK" gradientUnits="userSpaceOnUse" x1="27.21285052" x2="167.744885056" xlink:href="#u" y1="398.146924112" y2="538.678958648"/><linearGradient id="aL" gradientUnits="userSpaceOnUse" x1="119.500003576" x2="260.03193772" xlink:href="#u" y1="305.859269096" y2="446.39120324"/><linearGradient id="aM" gradientUnits="userSpaceOnUse" x1="16.733230816" x2="157.26416104" xlink:href="#u" y1="408.6267446" y2="549.157775216"/><linearGradient id="aN" gradientUnits="userSpaceOnUse" x1="68.115964648" x2="208.648099576" xlink:href="#u" y1="357.242203712" y2="497.774439032"/><linearGradient id="aO" gradientUnits="userSpaceOnUse" x1="68.116567" x2="208.648199968" xlink:href="#u" y1="357.242906456" y2="497.774539424"/><linearGradient id="aP" gradientUnits="userSpaceOnUse" x1="168.31932808" x2="111.542331304" xlink:href="#D" y1="426.560470304" y2="356.962913168"/><linearGradient id="aQ" gradientUnits="userSpaceOnUse" x1="126.594806608" x2="69.02411068" xlink:href="#D" y1="461.945538152" y2="391.375082144"/><linearGradient id="aR" gradientUnits="userSpaceOnUse" x1="172.766994856" x2="114.882272752" xlink:href="#D" y1="424.759939784" y2="353.804380064"/><linearGradient id="aS" gradientUnits="userSpaceOnUse" x1="147.184603456" x2="89.30078488" xlink:href="#D" y1="445.629027176" y2="374.674571768"/><radialGradient id="aT" cx="129.230096608" cy="418.356335672" gradientUnits="userSpaceOnUse" r="23.18101476" xlink:href="#X"/><linearGradient id="aU" gradientUnits="userSpaceOnUse" x1="113.721339664" x2="188.173753528" xlink:href="#u" y1="402.84767912" y2="477.299992592"/><radialGradient id="aV" cx="93.454805056" cy="368.436112496" gradientUnits="userSpaceOnUse" r="145.085213304" xlink:href="#X"/><radialGradient id="aW" cx="93.454403488" cy="368.436112496" gradientUnits="userSpaceOnUse" r="145.08551448" xlink:href="#X"/><radialGradient id="aX" cx="93.454805056" cy="368.435610536" gradientUnits="userSpaceOnUse" r="145.085414088" xlink:href="#X"/><radialGradient id="aY" cx="93.454403488" cy="368.435610536" gradientUnits="userSpaceOnUse" r="145.084912128" xlink:href="#X"/><radialGradient id="aZ" cx="93.453098392" cy="368.43631328" gradientUnits="userSpaceOnUse" r="145.0865184" xlink:href="#X"/><radialGradient id="a0" cx="93.453098392" cy="368.435510144" gradientUnits="userSpaceOnUse" r="145.086618792" xlink:href="#X"/><radialGradient id="a1" cx="93.453098392" cy="368.43631328" gradientUnits="userSpaceOnUse" r="145.084711344" xlink:href="#X"/><radialGradient id="a2" cx="93.453098392" cy="368.435510144" gradientUnits="userSpaceOnUse" r="145.086317616" xlink:href="#X"/><linearGradient id="a3" gradientUnits="userSpaceOnUse" x1="177.708891448" x2="21.408385864" xlink:href="#ai" y1="481.302621632" y2="278.357683832"/><linearGradient id="a4" gradientUnits="userSpaceOnUse" x1="189.915755512" x2="33.6143464" xlink:href="#ai" y1="471.902015144" y2="268.955973032"/><linearGradient id="a5" gradientUnits="userSpaceOnUse" x1="218.224592848" x2="61.923685696" xlink:href="#ai" y1="450.098780192" y2="247.15324004"/><linearGradient id="a6" gradientUnits="userSpaceOnUse" x1="137.212063744" x2="-19.092859088" xlink:href="#ai" y1="512.49331172" y2="309.542551184"/><linearGradient id="a7" gradientUnits="userSpaceOnUse" x1="165.520800688" x2="9.216279424" xlink:href="#ai" y1="490.689775592" y2="287.739617408"/><linearGradient id="a8" gradientUnits="userSpaceOnUse" x1="222.83619976" x2="66.530975752" xlink:href="#ai" y1="446.549521424" y2="243.59835932"/><linearGradient id="a9" gradientUnits="userSpaceOnUse" x1="201.032864416" x2="44.727540016" xlink:href="#ai" y1="463.340183816" y2="260.389122104"/><linearGradient id="ba" gradientUnits="userSpaceOnUse" x1="154.401382768" x2="-1.896613016" xlink:href="#ai" y1="499.250201432" y2="296.308375784"/><linearGradient id="bb" gradientUnits="userSpaceOnUse" x1="132.599051344" x2="-23.69894444" xlink:href="#ai" y1="516.042269312" y2="313.100443664"/><path d="m512 256c0 141.386719-114.617188 256-256 256s-256-114.613281-256-256c0-141.382812 114.617188-256 256-256s256 114.617188 256 256zm0 0" fill="url(#a)"/><path d="m512 256c0-20.65625-2.464844-40.734375-7.082031-59.972656l-187.464844-188.582032c-5.105469-1.257812-10.265625-2.375-15.484375-3.320312-51.71875 29.402344-84.636719 88.082031-75.90625 153.523438-11.792969-5.542969-24.964844-8.648438-38.863281-8.648438-50.527344 0-91.488281 40.960938-91.488281 91.488281 0 .308594.007812.617188.011718.925781-32.097656 5.339844-56.570312 33.230469-56.570312 66.84375 0 20.472657 9.089844 38.808594 23.4375 51.238282l148.589844 148.589844c14.554687 2.570312 29.53125 3.914062 44.820312 3.914062 141.382812 0 256-114.617188 256-256zm0 0" fill="url(#c)"/><path d="m335.339844 501.148438-1.253906-1.277344c-24.617188 7.882812-50.847657 12.128906-78.085938 12.128906-89.8125 0-168.820312-46.25-214.507812-116.234375.210937-.308594.460937-.601563.742187-.882813 2.863281-2.859374 7.507813-2.859374 10.371094 0l14.042969 14.046876h13.796874l-10.554687-11.085938c-.128906-.308594-.230469-.640625-.300781-.980469-.070313-.34375-.109375-.695312-.109375-1.058593 0-.347657.039062-.699219.109375-1.03125-.960938-.671876-1.765625-1.566407-2.320313-2.609376l-12.234375-12.238281c-2.332031-1.234375-3.917968-3.675781-3.917968-6.484375 0-4.058594 3.285156-7.339844 7.339843-7.339844h8.140625l-1.003906-1.003906c-2.859375-2.863281-2.859375-7.511718 0-10.371094 1.4375-1.4375 3.3125-2.148437 5.191406-2.148437 1.40625 0 2.8125.398437 4.035156 1.203125.410157.273438.792969.582031 1.15625.945312l.992188 1.003907v-8.152344c0-4.046875 3.28125-7.328125 7.339844-7.328125 2.8125 0 5.25 1.585938 6.484375 3.90625l12.246093 12.246094c1.035157.550781 1.929688 1.34375 2.59375 2.296875.339844-.066407.699219-.097657 1.0625-.097657.359376 0 .714844.027344 1.054688.097657.339844.070312.671875.171875.984375.3125.539063.230469 1.042969.554687 1.476563.945312l7.710937 8.230469c.539063.230469 1.03125.5625 1.472656.953125.144531.132813.273438.273437.402344.410156v-13.78125l-14.035156-14.035156c-2.871094-2.859375-2.871094-7.507813 0-10.371094 2.863281-2.871093 7.507812-2.871093 10.371093 0l3.0625 3.0625.632813.625c0-.042969.007813-.082031.007813-.121093.011718-.183594.042968-.371094.0625-.554688.019531-.117188.039062-.238281.058593-.359375.03125-.179687.070313-.363281.113281-.53125.027344-.121094.058594-.242187.097657-.363281.042969-.167969.101562-.339844.164062-.511719.039063-.109375.078125-.230469.117188-.339844.070312-.171875.140625-.332031.210937-.480469.050782-.121093.101563-.230468.160156-.34375.082032-.148437.160157-.300781.242188-.449218.070312-.113282.128906-.222656.199219-.324219.089843-.140625.183593-.28125.28125-.421875.070312-.101562.152343-.210938.230469-.308594.101562-.132812.203124-.261718.3125-.382812.078124-.101563.179687-.199219.269531-.300782.109375-.113281.210937-.230468.332031-.332031.101562-.101562.199219-.191406.3125-.292969.109375-.097656.21875-.199218.339844-.289062s.230468-.179688.351562-.261719c.121094-.089843.242188-.179687.371094-.261719.121094-.078124.253906-.160156.382812-.238281.128907-.070312.25-.140625.382813-.210937.128906-.082032.28125-.140625.421875-.210938.128906-.0625.25-.121094.378906-.171875.152344-.070312.3125-.121093.472656-.171875.121094-.050781.253907-.101562.382813-.140625.171875-.050781.339844-.089843.523437-.128906.117188-.03125.238282-.0625.359376-.09375.203124-.039063.402343-.058594.601562-.089844.113281-.007812.210938-.039062.3125-.050781.3125-.027344.632812-.039062.945312-.039062.320313 0 .640626.011718.953126.039062.097656.011719.199218.042969.3125.050781.199218.03125.398437.050781.601562.089844.121094.03125.242188.0625.359375.09375.183594.039063.351563.078125.523437.128906.128907.039063.25.089844.378907.140625.164062.050782.3125.101563.472656.171875.132813.050781.253906.109375.382813.171875.140624.070313.28125.128906.421874.210938.132813.070312.25.140625.382813.210937.128906.078125.261719.160157.378906.238281.132813.082032.253907.171876.375.261719.109375.082031.230469.171875.347657.261719.113281.089844.234374.191406.34375.289062.109374.101563.210937.191407.3125.292969.121093.101563.21875.21875.332031.332031.089843.101563.1875.199219.269531.300782.109375.121094.210938.25.3125.382812.078125.097656.160156.207032.230469.308594.101562.140625.191406.28125.28125.421875.019531.019531.027343.050781.050781.082031.070312.039063.140625.078125.210938.128906.128906.082032.25.171876.371093.261719.109375.082031.230469.160157.339844.25.121094.101563.242187.203125.355469.304688.109375.097656.207031.1875.308594.277343.121093.113282.21875.234376.332031.34375.089843.101563.191406.199219.269531.300782.109375.121094.210938.25.3125.382812.082031.101563.160156.210938.230469.3125.0625.078125.109375.160156.160156.238282l2.1875-2.1875c2.863281-2.871094 7.511719-2.871094 10.371094 0 .53125.53125.964843 1.125 1.308593 1.757812l12.234376 12.246094c.273437.140625.53125.3125.785156.480468.78125-3.210937 3.671875-5.601562 7.125-5.601562 2.8125 0 5.25 1.585938 6.488281 3.90625 0 0 93.753906 94.398438 135.335937 136.875 9.015626 9.207031 15.574219 15.972656 18.203126 18.8125.589843.632812.980468 1.074219 1.160156 1.304688zm0 0" fill="url(#d)"/><path d="m354.816406 492.222656c-14.414062 6.042969-29.496094 10.804688-45.105468 14.125v-28.984375c0-6.925781 5.621093-12.546875 12.546874-12.546875 3.714844 0 7.046876 1.625 9.347657 4.195313zm0 0" fill="url(#e)"/><path d="m180.59375 500.714844c-25.085938-7.71875-48.515625-19.195313-69.660156-33.761719v-5.652344c0-6.925781 5.621094-12.546875 12.550781-12.546875 3.710937 0 7.046875 1.625 9.34375 4.195313l41.753906 41.753906c.351563.3125.683594.644531.992188.992187.355469.3125.683593.644532.996093.996094.351563.3125.683594.640625.992188.992188.351562.3125.683594.644531.996094.996094.351562.308593.683594.640624.992187.992187.351563.3125.683594.640625.992188.992187zm0 0" fill="url(#f)"/><path d="m450.878906 214.636719c-83.460937-.203125-151.695312-68.4375-151.902344-151.902344-.050781-21.75 4.464844-42.4375 12.628907-61.171875.460937-1.050781-.832031-2.089844-2.484375-1.265625-59.589844 29.804687-97.042969 97.382813-80.5625 171.386719 11.289062 50.691406 62.683594 102.082031 113.375 113.375 72.652344 16.179687 139.199218-19.582032 169.71875-77.324219 1.261718-2.386719-1.15625-5.03125-3.660156-4.023437-17.644532 7.089843-36.917969 10.976562-57.113282 10.925781zm0 0" fill="url(#g)"/><path d="m367.246094 389.226562h-16.390625c-4.335938 0-7.589844-3.96875-6.742188-8.222656l14.820313-74.121094c1.410156-7.0625-7.609375-11.265624-12.109375-5.640624l-87.199219 109c-3.601562 4.5-.398438 11.167968 5.367188 11.167968h16.390624c4.335938 0 7.589844 3.964844 6.738282 8.21875l-14.816406 74.125c-1.410157 7.058594 7.609374 11.261719 12.105468 5.640625l87.203125-109c3.597657-4.5.394531-11.167969-5.367187-11.167969zm0 0" fill="url(#h)"/><path d="m367.246094 389.226562h-16.390625c-4.335938 0-7.589844-3.96875-6.742188-8.222656l14.820313-74.121094c1.410156-7.0625-7.609375-11.265624-12.109375-5.640624l-58.734375 73.417968 58.390625 58.394532 26.132812-32.660157c3.597657-4.5.394531-11.167969-5.367187-11.167969zm0 0" fill="url(#j)"/><path d="m326.363281 196.253906c-8.738281-9.261718-21.117187-15.054687-34.859375-15.054687-9.730468 0-18.773437 2.910156-26.332031 7.894531-.121094-.117188-11.628906-11.628906-12.304687-12.28125-7.65625-7.898438-16.730469-14.417969-26.804688-19.15625.621094 4.644531 1.449219 9.324219 2.496094 14.027344 11.289062 50.695312 62.683594 102.085937 113.375 113.375 3.070312.683594 6.125 1.265625 9.171875 1.765625 3.167969.054687 6.347656.460937 9.464843 1.273437 18.726563 1.953125 36.855469.511719 53.84375-3.789062zm0 0" fill="url(#k)"/><path d="m339.429688 240.484375c-.457032 0-.914063.011719-1.371094.019531.890625-3.648437 1.371094-7.457031 1.371094-11.382812 0-26.464844-21.457032-47.921875-47.921876-47.921875-10.414062 0-20.039062 3.332031-27.898437 8.972656-16.367187-24.800781-44.476563-41.171875-76.410156-41.171875-50.527344 0-91.484375 40.960938-91.484375 91.488281 0 .308594.007812.617188.011718.925781-32.101562 5.339844-56.574218 33.230469-56.574218 66.84375 0 37.433594 30.34375 67.777344 67.773437 67.777344h232.503907c37.429687 0 67.773437-30.34375 67.773437-67.777344 0-37.429687-30.34375-67.773437-67.773437-67.773437zm0 0" fill="url(#l)"/><path d="m407.203125 308.257812c0 37.433594-30.34375 67.777344-67.773437 67.777344-37.429688 0-67.773438-30.34375-67.773438-67.777344 0-37.429687 30.34375-67.773437 67.773438-67.773437 37.429687 0 67.773437 30.34375 67.773437 67.773437zm0 0" fill="url(#n)"/><path d="m339.429688 229.121094c0 26.46875-21.457032 47.925781-47.925782 47.925781-26.464844 0-47.921875-21.457031-47.921875-47.925781 0-26.464844 21.457031-47.921875 47.921875-47.921875 26.46875 0 47.925782 21.457031 47.925782 47.921875zm0 0" fill="url(#o)"/><path d="m278.683594 240.484375c0 50.527344-40.960938 91.488281-91.484375 91.488281-50.527344 0-91.488281-40.960937-91.488281-91.488281 0-50.523437 40.960937-91.484375 91.488281-91.484375 50.523437 0 91.484375 40.960938 91.484375 91.484375zm0 0" fill="url(#p)"/><path d="m174.699219 308.257812c0 37.433594-30.34375 67.777344-67.773438 67.777344-37.429687 0-67.773437-30.34375-67.773437-67.777344 0-37.429687 30.34375-67.773437 67.773437-67.773437 37.429688 0 67.773438 30.34375 67.773438 67.773437zm0 0" fill="url(#q)"/><path d="m39.78125 317.488281c4.503906 33.066407 32.847656 58.546875 67.144531 58.546875h232.503907c34.296874 0 62.640624-25.480468 67.144531-58.546875zm0 0" fill="url(#r)"/><path d="m231.863281 376.035156-3.535156-3.539062c-5.019531-5.421875-12.195313-8.820313-20.167969-8.820313-.09375 0-.1875.007813-.277344.011719-.058593-.054688-.109374-.109375-.164062-.160156l-18.140625-18.136719c-7.886719-8.265625-19.003906-13.417969-31.328125-13.417969-23.933594 0-43.332031 19.402344-43.332031 43.332032 0 .117187.007812.234374.007812.355468-.515625.105469-1.023437.234375-1.527343.375zm0 0" fill="url(#s)"/><path d="m389.984375 353.382812c-12.402344 13.890626-30.449219 22.648438-50.558594 22.648438h-81.175781l-34.414062-34.597656c-1.066407-.5625-1.867188-1.535156-2.21875-2.707032-.121094-.402343-.183594-.835937-.183594-1.277343 0-2.128907 1.46875-3.90625 3.445312-4.375-.109375-.164063-.210937-.320313-.300781-.484375l-7.53125-7.527344c-.378906-.199219-.75-.472656-1.074219-.804688-1.765625-1.753906-1.765625-4.605468 0-6.375l1.347656-1.34375c-.050781-.03125-.101562-.0625-.152343-.089843-.058594-.050781-.128907-.101563-.1875-.152344-.082031-.058594-.164063-.121094-.234375-.179687-.070313-.0625-.128906-.109376-.1875-.171876-.070313-.070312-.140625-.128906-.203125-.199218-.058594-.0625-.121094-.132813-.179688-.191406-.0625-.070313-.121093-.140626-.179687-.222657-.0625-.066406-.113282-.140625-.160156-.210937-.054688-.066406-.113282-.148438-.164063-.21875-.027344-.050782-.046875-.089844-.078125-.140625-.011719-.011719-.03125-.023438-.050781-.03125-.082031-.050781-.171875-.109375-.25-.171875-.070313-.039063-.132813-.089844-.203125-.140625-.070313-.058594-.148438-.117188-.230469-.191407-.058594-.046874-.117187-.109374-.179687-.167968-.070313-.0625-.140626-.132813-.210938-.203125-.058594-.058594-.109375-.121094-.171875-.191407-.058594-.066406-.128906-.140624-.179687-.207031-.0625-.070312-.109376-.140625-.160157-.222656-.058593-.070313-.109375-.140625-.160156-.222656-.050781-.078125-.101563-.160157-.152344-.238281-.039062-.070313-.089843-.152344-.128906-.230469-.039063-.082031-.082031-.171875-.132813-.261719-.027343-.082031-.066406-.152344-.097656-.230469-.039062-.101562-.070312-.191406-.109375-.292969-.03125-.078124-.0625-.148437-.082031-.226562-.027344-.113281-.058594-.214844-.082031-.324219-.019531-.070312-.039063-.148437-.058594-.21875-.019531-.132812-.039063-.253906-.050781-.371093-.011719-.070313-.019532-.132813-.03125-.203126-.019532-.191406-.027344-.378906-.027344-.570312 0-.203125.007812-.390625.027344-.582031.011718-.070313.023437-.132813.03125-.191407.011718-.128906.03125-.25.050781-.371093.019531-.082031.039063-.148438.058594-.230469.023437-.101562.054687-.210938.082031-.320312.019531-.082032.050781-.152344.082031-.230469.039063-.101563.070313-.191407.109375-.292969.027344-.078125.070313-.148438.097656-.230469.050782-.089843.09375-.179687.132813-.261719.039063-.078124.089844-.160156.128906-.230468.050781-.078125.101563-.160156.152344-.238282.050781-.082031.101563-.152343.160156-.222656.050781-.070312.101563-.148437.160157-.222656.050781-.066406.121093-.140625.179687-.207031.0625-.0625.113281-.132813.171875-.191407.070312-.070312.140625-.140624.210938-.203124.0625-.058594.121093-.121094.179687-.167969.082031-.0625.160156-.132813.230469-.191407.070312-.050781.132812-.089843.203125-.140624.078125-.0625.167969-.121094.25-.171876.070312-.039062.128906-.078124.199219-.121093.09375-.050781.183593-.097657.28125-.148438.070312-.042969.132812-.070312.203124-.101562.101563-.050781.199219-.089844.300782-.128907.070312-.023437.140625-.050781.210937-.070312.101563-.042969.210938-.070312.3125-.101562.078125-.019532.148438-.039063.21875-.0625.109375-.027344.222657-.050782.332031-.066407.070313-.011719.148438-.023437.21875-.03125.121094-.019531.234376-.039062.34375-.039062.03125-.011719.050782-.011719.070313-.011719l-2.257813-2.269531c-1.769531-1.765625-1.769531-4.617188 0-6.375 1.753907-1.765625 4.605469-1.765625 6.375 0l8.621094 8.625h8.484375l-6.484375-6.808594c-.082031-.1875-.140625-.390625-.183594-.601563-.046874-.210937-.070312-.433593-.070312-.652343 0-.222657.023438-.433594.0625-.632813-.59375-.410156-1.074219-.964844-1.417969-1.605468l-7.527343-7.53125c-1.425782-.753907-2.398438-2.25-2.398438-3.984376 0-2.488281 2.015625-4.507812 4.503906-4.507812h5l-.613281-.613281c-1.753906-1.757813-1.753906-4.617188 0-6.375.886719-.882813 2.039063-1.324219 3.195313-1.324219.863281 0 1.726562.25 2.480468.742188.25.171874.480469.363281.703125.582031l.621094.613281v-5.007812c0-2.492188 2.019531-4.507813 4.507813-4.507813 1.726562 0 3.222656.972656 3.984374 2.40625l7.519532 7.53125c.644531.332031 1.195312.820313 1.597656 1.402344.210938-.039063.429688-.058594.652344-.058594.21875 0 .441406.019531.652344.058594.210937.054687.410156.113281.601562.191406.339844.140625.644531.34375.902344.582031l4.738281 5.0625c.34375.148438.644531.339844.914063.582032.082031.078124.171874.167968.25.261718v-8.472656l-1.105469-1.105469-1.886719-1.878906-1.875-1.886719-3.765625-3.765625c-1.757813-1.757812-1.757813-4.605469 0-6.375 1.757813-1.757812 4.617187-1.757812 6.375 0l2.269531 2.269531c0-.019531.011719-.050781.011719-.070312.007813-.121094.019531-.230469.039063-.339844.007812-.082031.019531-.152344.03125-.222656.019531-.109375.046874-.222656.070312-.332031.019531-.070313.039062-.148438.058594-.21875.03125-.109375.0625-.210938.101562-.3125.019532-.070313.050782-.140625.078125-.210938.039063-.101562.082031-.203125.121094-.300781.03125-.070312.070313-.140625.101563-.210938.050781-.089843.101562-.179687.148437-.273437.042969-.070313.082031-.140625.121094-.199219.0625-.089844.109375-.171875.171875-.261718.050781-.058594.101562-.128907.148437-.191407.0625-.078125.121094-.148437.183594-.230469.058594-.058593.109375-.121093.167969-.179687.070312-.070313.132812-.140625.203125-.210937.058593-.058594.128906-.121094.191406-.171876.066406-.070312.140625-.128906.21875-.191406.070313-.046875.140625-.109375.210937-.160156.070313-.046875.152344-.109375.222657-.160156.078125-.050782.160156-.089844.238281-.140625.082031-.050781.152344-.089844.230469-.128907.09375-.050781.183593-.089843.261719-.132812.082031-.039062.160156-.070312.242187-.109375.089844-.039063.1875-.070313.28125-.101563.078125-.027343.160156-.058593.238281-.078124.101563-.03125.210938-.0625.324219-.082032.066406-.019531.136719-.039062.21875-.058594.121094-.019531.25-.039062.371094-.0625.0625 0 .132812-.019531.191406-.019531.191406-.019531.378906-.03125.582031-.03125.191406 0 .390625.011719.582032.03125.0625 0 .128906.019531.191406.019531.121094.019532.25.042969.371094.0625.082031.019532.148437.039063.222656.058594.109375.023438.21875.050782.320312.082032.078125.019531.160156.050781.238282.078124.09375.03125.191406.0625.28125.101563.082031.039063.160156.070313.242187.109375.078125.042969.171875.082031.261719.132812.078125.039063.148437.089844.230468.128907.078126.050781.160157.089843.230469.140625.078125.050781.148438.113281.230469.160156.070312.050781.140625.113281.210938.160156.078124.0625.148437.121094.21875.191406.058593.050782.121093.113282.191406.171876.070312.070312.132812.140624.199218.210937.050782.058594.113282.121094.171876.179687.0625.082032.121093.152344.179687.230469.050781.0625.101563.132813.152344.191407.058593.089843.109375.171874.167969.261718.011718.011719.023437.027344.03125.050782.039062.019531.089843.050781.132812.078124.078125.050782.148438.101563.21875.164063.070312.046875.152344.097656.222656.15625l.210938.183594c.058594.058593.128906.109375.1875.171875.070312.070312.144531.140625.203125.210937.0625.058594.121093.117188.171875.179688.058594.078125.128906.160156.1875.242187.050781.058594.09375.117188.140625.1875.03125.050782.070312.089844.101562.140625l1.347657-1.34375c1.753906-1.757812 4.605468-1.757812 6.375 0 .320312.332031.589843.691407.792968 1.082031l7.527344 7.53125c.171875.089844.332031.191407.484375.300782.480469-1.976563 2.257813-3.453125 4.375-3.453125 1.734375 0 3.230469.972656 3.984375 2.410156.003906 0 56.464844 56.527344 88.953125 89.148437zm0 0" fill="url(#t)"/><path d="m269.445312 366.4375c-3.199218 0-5.796874-2.597656-5.796874-5.796875v-38.277344c0-3.203125 2.597656-5.800781 5.796874-5.800781 3.203126 0 5.796876 2.597656 5.796876 5.800781v38.277344c0 3.199219-2.59375 5.796875-5.796876 5.796875zm0 0" fill="url(#v)"/><path d="m269.445312 303.105469c-3.199218 0-5.796874-2.59375-5.796874-5.796875v-38.277344c0-3.203125 2.597656-5.796875 5.796874-5.796875 3.203126 0 5.796876 2.59375 5.796876 5.796875v38.277344c0 3.203125-2.59375 5.796875-5.796876 5.796875zm0 0" fill="url(#w)"/><path d="m256.917969 315.632812h-38.277344c-3.199219 0-5.796875-2.59375-5.796875-5.796874 0-3.199219 2.597656-5.796876 5.796875-5.796876h38.277344c3.203125 0 5.796875 2.597657 5.796875 5.796876.003906 3.203124-2.59375 5.796874-5.796875 5.796874zm0 0" fill="url(#x)"/><path d="m320.25 315.632812h-38.277344c-3.199218 0-5.796875-2.59375-5.796875-5.796874 0-3.199219 2.597657-5.796876 5.796875-5.796876h38.277344c3.199219 0 5.796875 2.597657 5.796875 5.796876 0 3.203124-2.59375 5.796874-5.796875 5.796874zm0 0" fill="url(#y)"/><path d="m233.523438 350.265625c-1.152344 0-2.308594-.4375-3.1875-1.320313-1.761719-1.757812-1.761719-4.613281 0-6.375l27.066406-27.066406c1.761718-1.761718 4.613281-1.761718 6.375 0 1.761718 1.761719 1.761718 4.617188 0 6.378906l-27.066406 27.0625c-.878907.878907-2.03125 1.320313-3.1875 1.320313zm0 0" fill="url(#z)"/><path d="m278.304688 305.484375c-1.152344 0-2.308594-.4375-3.1875-1.320313-1.761719-1.757812-1.761719-4.613281 0-6.375l27.0625-27.066406c1.761718-1.757812 4.617187-1.757812 6.378906 0 1.757812 1.761719 1.757812 4.617188 0 6.378906l-27.066406 27.0625c-.878907.882813-2.035157 1.320313-3.1875 1.320313zm0 0" fill="url(#A)"/><path d="m260.589844 305.484375c-1.152344 0-2.308594-.4375-3.1875-1.320313l-27.066406-27.0625c-1.761719-1.761718-1.761719-4.617187 0-6.378906 1.761718-1.757812 4.617187-1.757812 6.375 0l27.066406 27.066406c1.761718 1.761719 1.761718 4.617188 0 6.375-.882813.882813-2.035156 1.320313-3.1875 1.320313zm0 0" fill="url(#B)"/><path d="m305.367188 350.265625c-1.152344 0-2.304688-.4375-3.1875-1.320313l-27.0625-27.0625c-1.761719-1.761718-1.761719-4.617187 0-6.378906 1.757812-1.761718 4.613281-1.761718 6.375 0l27.066406 27.066406c1.757812 1.761719 1.757812 4.617188 0 6.375-.882813.878907-2.035156 1.320313-3.191406 1.320313zm0 0" fill="url(#C)"/><path d="m275.246094 322.359375v12.128906l-11.597656-11.59375v-.535156c0-3.199219 2.597656-5.792969 5.796874-5.792969 3.203126 0 5.800782 2.59375 5.800782 5.792969zm0 0" fill="url(#E)"/><path d="m263.648438 336.796875h11.597656v12.855469l-11.59375-11.59375h-.003906zm0 0" fill="url(#F)"/><path d="m282.449219 304.058594 11.574219 11.574218h-12.050782c-3.203125 0-5.796875-2.597656-5.796875-5.796874 0-3.199219 2.59375-5.796876 5.796875-5.796876h.542969zm0 0" fill="url(#G)"/><path d="m309.273438 315.632812h-13.410157v-11.59375h1.816407zm0 0" fill="url(#H)"/><path d="m305.367188 350.265625c-1.152344 0-2.304688-.4375-3.1875-1.320313l-27.0625-27.0625c-1.761719-1.761718-1.761719-4.617187 0-6.378906 1.757812-1.761718 4.613281-1.761718 6.375 0l27.066406 27.066406c1.757812 1.761719 1.757812 4.617188 0 6.375-.882813.878907-2.035156 1.320313-3.191406 1.320313zm0 0" fill="url(#I)"/><path d="m275.242188 282.960938v-23.929688c0-.132812-.007813-.269531-.015626-.402344l-5.78125 5.78125-5.78125-5.78125c-.007812.132813-.015624.269532-.015624.402344v12.335938zm0 0" fill="url(#J)"/><path d="m307.941406 277.714844-10.878906 10.882812-3.117188-3.113281c-.859374-.820313-1.398437-1.976563-1.398437-3.257813v-1.871093l9.019531-9.015625zm0 0" fill="url(#K)"/><path d="m277.496094 256.363281-8.050782 8.050781-8.046874-8.050781c-1.761719-1.761719-4.617188-1.761719-6.378907 0-1.757812 1.761719-1.757812 4.617188 0 6.375l11.238281 11.238281c.878907.878907 2.035157 1.320313 3.1875 1.320313 1.152344 0 2.308594-.441406 3.1875-1.320313l11.238282-11.238281c1.761718-1.757812 1.761718-4.613281 0-6.375-1.761719-1.761719-4.613282-1.761719-6.375 0zm0 0" fill="url(#L)"/><path d="m272.636719 345.695312c-1.761719-1.761718-4.617188-1.761718-6.378907 0l-11.234374 11.234376c-1.761719 1.761718-1.761719 4.617187 0 6.378906 1.757812 1.761718 4.613281 1.761718 6.375 0l8.050781-8.050782 8.046875 8.050782c.878906.878906 2.035156 1.320312 3.1875 1.320312 1.15625 0 2.308594-.441406 3.1875-1.320312 1.761718-1.761719 1.761718-4.617188 0-6.378906zm0 0" fill="url(#M)"/><path d="m314.871094 309.835938 8.046875-8.050782c1.761719-1.761718 1.761719-4.613281 0-6.375-1.757813-1.761718-4.613281-1.761718-6.375 0l-11.238281 11.234375c-1.757813 1.761719-1.757813 4.617188 0 6.378907l11.238281 11.234374c.882812.882813 2.035156 1.320313 3.1875 1.320313 1.15625 0 2.308593-.441406 3.1875-1.320313 1.761719-1.757812 1.761719-4.613281 0-6.375zm0 0" fill="url(#N)"/><path d="m233.585938 313.023438c1.761718-1.761719 1.761718-4.617188 0-6.378907l-11.234376-11.234375c-1.761718-1.761718-4.617187-1.761718-6.375 0-1.761718 1.761719-1.761718 4.617188 0 6.375l8.046876 8.050782-8.046876 8.050781c-1.761718 1.757812-1.761718 4.613281 0 6.375.878907.882812 2.03125 1.320312 3.1875 1.320312 1.152344 0 2.304688-.441406 3.1875-1.320312zm0 0" fill="url(#O)"/><path d="m297.058594 286.734375h15.890625c2.488281 0 4.507812-2.019531 4.507812-4.507813 0-2.492187-2.019531-4.507812-4.507812-4.507812h-11.382813v-11.382812c0-2.492188-2.019531-4.511719-4.507812-4.511719-2.492188 0-4.511719 2.019531-4.511719 4.511719v15.890624c0 2.488282 2.019531 4.507813 4.511719 4.507813zm0 0" fill="url(#P)"/><path d="m241.835938 332.9375h-15.890626c-2.492187 0-4.507812 2.019531-4.507812 4.507812 0 2.488282 2.015625 4.507813 4.507812 4.507813h11.382813v11.382813c0 2.492187 2.019531 4.507812 4.507813 4.507812 2.488281 0 4.507812-2.015625 4.507812-4.507812v-15.890626c0-2.488281-2.019531-4.507812-4.507812-4.507812zm0 0" fill="url(#Q)"/><path d="m312.949219 332.9375h-15.890625c-2.492188 0-4.511719 2.019531-4.511719 4.507812v15.890626c0 2.492187 2.019531 4.507812 4.511719 4.507812 2.488281 0 4.507812-2.015625 4.507812-4.507812v-11.382813h11.382813c2.488281 0 4.507812-2.019531 4.507812-4.507813 0-2.488281-2.019531-4.507812-4.507812-4.507812zm0 0" fill="url(#R)"/><path d="m241.835938 261.824219c-2.488282 0-4.507813 2.019531-4.507813 4.507812v11.382813h-11.382813c-2.492187 0-4.507812 2.019531-4.507812 4.507812 0 2.492188 2.015625 4.511719 4.507812 4.511719h15.890626c2.488281 0 4.507812-2.019531 4.507812-4.511719v-15.890625c0-2.488281-2.019531-4.507812-4.507812-4.507812zm0 0" fill="url(#S)"/><path d="m275.246094 281.605469v15.703125c0 .125-.007813.242187-.011719.363281-.058594.886719-.308594 1.714844-.71875 2.445313l-10.867187-10.871094v-7.640625zm0 0" fill="url(#T)"/><path d="m259.636719 314.960938c-.8125.429687-1.734375.671874-2.714844.671874h-15.707031v-11.59375h7.496094zm0 0" fill="url(#U)"/><path d="m292.597656 293.0625-5.335937 5.332031-5.769531 5.773438c-.882813.878906-2.035157 1.320312-3.1875 1.320312-1.152344 0-2.308594-.441406-3.191407-1.320312-.835937-.839844-1.277343-1.929688-1.316406-3.027344-.042969-1.210937.394531-2.429687 1.316406-3.351563l.117188-.117187 5.65625-5.652344 5.332031-5.335937zm0 0" fill="url(#V)"/><path d="m265.097656 301.140625c-.042968 1.097656-.484375 2.1875-1.320312 3.027344-.839844.835937-1.925782 1.277343-3.027344 1.316406-.054688.003906-.109375.003906-.160156.003906-1.152344 0-2.308594-.441406-3.1875-1.320312l-.121094-.117188-5.652344-5.65625-5.332031-5.332031 6.375-6.378906 5.332031 5.335937 5.65625 5.652344.117188.117187c.921875.921876 1.363281 2.140626 1.320312 3.351563zm0 0" fill="url(#W)"/><path d="m269.445312 324.085938c-3.804687 0-7.382812-1.484376-10.074218-4.175782s-4.171875-6.269531-4.171875-10.074218c0-3.804688 1.480469-7.382813 4.171875-10.074219 2.691406-2.691407 6.269531-4.171875 10.074218-4.171875 3.808594 0 7.386719 1.480468 10.078126 4.171875 2.691406 2.691406 4.171874 6.269531 4.171874 10.074219 0 3.804687-1.484374 7.382812-4.171874 10.074218-2.691407 2.691406-6.269532 4.175782-10.078126 4.175782zm0-20.957032c-1.789062 0-3.472656.699219-4.742187 1.964844-1.265625 1.265625-1.960937 2.949219-1.960937 4.742188 0 1.789062.695312 3.476562 1.960937 4.742187 1.269531 1.265625 2.953125 1.964844 4.742187 1.964844 1.792969 0 3.476563-.699219 4.742188-1.964844 1.269531-1.265625 1.964844-2.949219 1.964844-4.742187 0-1.792969-.695313-3.476563-1.964844-4.742188-1.265625-1.265625-2.949219-1.964844-4.742188-1.964844zm0 0" fill="url(#Y)"/><path d="m279.578125 338.066406h-20.261719c-1 0-1.960937-.394531-2.667968-1.105468l-14.328126-14.324219c-.707031-.710938-1.105468-1.667969-1.105468-2.667969v-20.265625c0-1 .398437-1.957031 1.105468-2.667969l14.328126-14.324218c.707031-.707032 1.667968-1.105469 2.667968-1.105469h20.261719c1 0 1.960937.398437 2.667969 1.105469l14.328125 14.324218c.707031.710938 1.105469 1.667969 1.105469 2.667969v20.265625c0 1-.398438 1.957031-1.105469 2.667969l-14.328125 14.324219c-.707032.707031-1.667969 1.105468-2.667969 1.105468zm-18.699219-7.542968h17.136719l12.121094-12.117188v-17.140625l-12.121094-12.117187h-17.136719l-12.121094 12.117187v17.140625zm0 0" fill="url(#Z)"/><path d="m258.820312 276.328125c0 1.78125-1.445312 3.226563-3.226562 3.226563s-3.226562-1.445313-3.226562-3.226563 1.445312-3.226563 3.226562-3.226563 3.226562 1.445313 3.226562 3.226563zm0 0" fill="url(#aa)"/><path d="m286.542969 276.328125c0 1.78125-1.445313 3.226563-3.226563 3.226563s-3.222656-1.445313-3.222656-3.226563 1.441406-3.222656 3.222656-3.222656 3.226563 1.441406 3.226563 3.222656zm0 0" fill="url(#ab)"/><path d="m258.820312 343.339844c0 1.785156-1.445312 3.226562-3.226562 3.226562s-3.226562-1.441406-3.226562-3.226562c0-1.78125 1.445312-3.222656 3.226562-3.222656s3.226562 1.441406 3.226562 3.222656zm0 0" fill="url(#ac)"/><path d="m286.542969 343.339844c0 1.78125-1.445313 3.226562-3.226563 3.226562s-3.222656-1.445312-3.222656-3.226562c0-1.777344 1.441406-3.222656 3.222656-3.222656s3.226563 1.445312 3.226563 3.222656zm0 0" fill="url(#ad)"/><path d="m306.1875 295.976562c0 1.777344-1.445312 3.222657-3.226562 3.222657s-3.222657-1.445313-3.222657-3.222657c0-1.78125 1.441407-3.226562 3.222657-3.226562s3.226562 1.445312 3.226562 3.226562zm0 0" fill="url(#ae)"/><path d="m306.1875 323.695312c0 1.78125-1.445312 3.226563-3.226562 3.226563s-3.222657-1.445313-3.222657-3.226563c0-1.777343 1.441407-3.222656 3.222657-3.222656s3.226562 1.445313 3.226562 3.222656zm0 0" fill="url(#af)"/><path d="m239.171875 295.976562c0 1.777344-1.441406 3.222657-3.222656 3.222657s-3.226563-1.445313-3.226563-3.222657c0-1.78125 1.445313-3.226562 3.226563-3.226562s3.222656 1.445312 3.222656 3.226562zm0 0" fill="url(#ag)"/><path d="m239.171875 323.695312c0 1.78125-1.441406 3.226563-3.222656 3.226563s-3.226563-1.445313-3.226563-3.226563c0-1.777343 1.445313-3.222656 3.226563-3.222656s3.222656 1.445313 3.222656 3.222656zm0 0" fill="url(#ah)"/><path d="m326.046875 309.835938c0-3.066407-2.378906-5.578126-5.394531-5.78125l2.265625-2.269532c1.761719-1.761718 1.761719-4.613281 0-6.375-1.757813-1.761718-4.613281-1.761718-6.375 0l-8.628907 8.628906h-10.234374v-4.335937c0-1-.398438-1.960937-1.105469-2.667969l-3.976563-3.976562 6.324219-6.324219h14.027344c2.488281 0 4.507812-2.019531 4.507812-4.507813 0-2.492187-2.019531-4.507812-4.507812-4.507812h-5.007813l.613282-.617188c1.761718-1.761718 1.761718-4.617187 0-6.375-1.757813-1.761718-4.613282-1.761718-6.375 0l-.613282.613282v-5.003906c0-2.492188-2.019531-4.511719-4.511718-4.511719-2.488282 0-4.507813 2.019531-4.507813 4.511719v14.023437l-6.328125 6.324219-3.976562-3.972656c-.707032-.707032-1.664063-1.105469-2.664063-1.105469h-4.335937v-10.238281l8.628906-8.628907c1.761718-1.757812 1.761718-4.613281 0-6.375-1.761719-1.761719-4.613282-1.761719-6.375 0l-2.269532 2.269531c-.207031-3.015624-2.714843-5.398437-5.78125-5.398437-3.066406 0-5.574218 2.382813-5.78125 5.398437l-2.269531-2.269531c-1.757812-1.761719-4.613281-1.761719-6.375 0s-1.761719 4.617188 0 6.375l8.628907 8.628907v10.238281h-4.335938c-1 0-1.957031.398437-2.664062 1.105469l-3.976563 3.972656-6.328125-6.324219v-14.023437c0-2.492188-2.019531-4.511719-4.507812-4.511719-2.492188 0-4.507813 2.019531-4.507813 4.511719v5.003906l-.617187-.613282c-1.761719-1.761718-4.613282-1.761718-6.375 0-1.761719 1.757813-1.761719 4.613282 0 6.375l.613281.617188h-5.003907c-2.492187 0-4.511718 2.015625-4.511718 4.507812 0 2.488282 2.019531 4.507813 4.511718 4.507813h14.023438l6.328125 6.328125-3.976563 3.976562c-.707031.707032-1.105468 1.664063-1.105468 2.664063v4.335937h-10.238282l-8.625-8.628906c-1.761718-1.761718-4.617187-1.761718-6.378906 0-1.761718 1.761719-1.761718 4.617188 0 6.375l2.269532 2.269532c-3.015626.207031-5.398438 2.714843-5.398438 5.78125 0 3.066406 2.382812 5.574218 5.398438 5.78125l-2.269532 2.269531c-1.761718 1.757812-1.761718 4.613281 0 6.375.878906.882812 2.035156 1.320312 3.191406 1.320312 1.152344 0 2.304688-.441406 3.1875-1.320312l8.625-8.628907h10.238282v4.335938c0 1 .398437 1.957031 1.105468 2.667969l3.976563 3.972656-6.328125 6.328125h-14.023438c-2.492187 0-4.511718 2.019531-4.511718 4.507812 0 2.492188 2.019531 4.511719 4.511718 4.511719h5.003907l-.613281.613281c-1.761719 1.761719-1.761719 4.617188 0 6.375.878906.882813 2.03125 1.320313 3.1875 1.320313s2.308593-.4375 3.1875-1.320313l.617187-.613281v5.003907c0 2.492187 2.019531 4.511718 4.507813 4.511718 2.488281 0 4.507812-2.019531 4.507812-4.511718v-14.023438l6.328125-6.328125 3.976563 3.976563c.707031.707031 1.664062 1.105468 2.664062 1.105468h4.335938v10.238282l-8.628907 8.628906c-1.761719 1.757812-1.761719 4.613281 0 6.375 1.761719 1.761718 4.617188 1.761718 6.375 0l2.269531-2.269532c.207032 3.015626 2.714844 5.398438 5.78125 5.398438 3.066407 0 5.574219-2.382812 5.78125-5.398438l2.269532 2.269532c.878906.878906 2.03125 1.320312 3.1875 1.320312 1.152344 0 2.308594-.441406 3.1875-1.320312 1.761718-1.761719 1.761718-4.617188 0-6.375l-8.625-8.628906v-10.238282h4.332031c1 0 1.957031-.394531 2.664063-1.105468l3.976562-3.976563 6.328125 6.328125v14.023438c0 2.492187 2.019531 4.511718 4.507813 4.511718 2.492187 0 4.511718-2.019531 4.511718-4.511718v-5.003907l.613282.613281c.878906.882813 2.035156 1.320313 3.1875 1.320313 1.152343 0 2.308593-.4375 3.1875-1.320313 1.761718-1.757812 1.761718-4.613281 0-6.375l-.613282-.613281h5.007813c2.488281 0 4.507812-2.019531 4.507812-4.511719 0-2.488281-2.019531-4.507812-4.507812-4.507812h-14.027344l-6.324219-6.328125 3.976563-3.972656c.703125-.710938 1.105469-1.667969 1.105469-2.667969v-4.335938h10.234374l8.628907 8.628907c.878906.878906 2.03125 1.320312 3.1875 1.320312 1.152343 0 2.308593-.441406 3.1875-1.320312 1.761719-1.761719 1.761719-4.617188 0-6.378907l-2.265625-2.265624c3.015625-.207032 5.394531-2.714844 5.394531-5.78125zm-65.167969-20.691407h2.769532v7.671875c-.191407.085938-.382813.175782-.574219.273438l-1.445313-1.449219-3.621094-3.621094zm-12.121094 12.121094 2.871094-2.871094 5.070313 5.070313c-.097657.1875-.1875.378906-.273438.574218h-7.671875v-2.773437zm2.871094 20.011719-2.871094-2.871094v-2.773438h7.671876c.085937.195313.175781.386719.269531.574219zm12.019532 9.246094h-2.773438l-2.871094-2.871094 5.070313-5.070313c.191406.097657.382812.1875.574219.273438zm10.539062-15.945313c-1.265625 1.265625-2.949219 1.964844-4.742188 1.964844-1.789062 0-3.476562-.699219-4.742187-1.964844-1.265625-1.269531-1.964844-2.953125-1.964844-4.742187 0-1.792969.699219-3.476563 1.964844-4.742188 1.265625-1.269531 2.949219-1.964844 4.742187-1.964844 1.792969 0 3.476563.695313 4.742188 1.964844 1.265625 1.265625 1.964844 2.949219 1.964844 4.742188 0 1.789062-.699219 3.472656-1.964844 4.742187zm3.828125 15.945313h-2.769531v-7.667969c.191406-.085938.382812-.175781.570312-.273438l5.070313 5.070313zm-.746094-34.886719-1.449219 1.449219c-.191406-.09375-.382812-.183594-.574218-.269532v-7.671875h2.769531l2.871094 2.871094zm12.867188 22.769531-2.871094 2.871094-5.070313-5.070313c.09375-.191406.183594-.378906.269532-.574219h7.671875zm0-14.367188h-7.625.003906-.050781c-.085938-.195312-.175782-.386718-.273438-.574218l5.070313-5.070313 2.871093 2.871094v2.773437zm0 0" fill="url(#aj)"/><path d="m258.820312 276.328125c0 1.78125-1.445312 3.226563-3.226562 3.226563s-3.226562-1.445313-3.226562-3.226563 1.445312-3.226563 3.226562-3.226563 3.226562 1.445313 3.226562 3.226563zm0 0" fill="url(#ak)"/><path d="m286.542969 276.328125c0 1.78125-1.445313 3.226563-3.226563 3.226563s-3.222656-1.445313-3.222656-3.226563 1.441406-3.222656 3.222656-3.222656 3.226563 1.441406 3.226563 3.222656zm0 0" fill="url(#al)"/><path d="m258.820312 343.339844c0 1.785156-1.445312 3.226562-3.226562 3.226562s-3.226562-1.441406-3.226562-3.226562c0-1.78125 1.445312-3.222656 3.226562-3.222656s3.226562 1.441406 3.226562 3.222656zm0 0" fill="url(#am)"/><path d="m286.542969 343.339844c0 1.78125-1.445313 3.226562-3.226563 3.226562s-3.222656-1.445312-3.222656-3.226562c0-1.777344 1.441406-3.222656 3.222656-3.222656s3.226563 1.445312 3.226563 3.222656zm0 0" fill="url(#an)"/><path d="m306.1875 295.976562c0 1.777344-1.445312 3.222657-3.226562 3.222657s-3.222657-1.445313-3.222657-3.222657c0-1.78125 1.441407-3.226562 3.222657-3.226562s3.226562 1.445312 3.226562 3.226562zm0 0" fill="url(#ao)"/><path d="m306.1875 323.695312c0 1.78125-1.445312 3.226563-3.226562 3.226563s-3.222657-1.445313-3.222657-3.226563c0-1.777343 1.441407-3.222656 3.222657-3.222656s3.226562 1.445313 3.226562 3.222656zm0 0" fill="url(#ap)"/><path d="m239.171875 295.976562c0 1.777344-1.441406 3.222657-3.222656 3.222657s-3.226563-1.445313-3.226563-3.222657c0-1.78125 1.445313-3.226562 3.226563-3.226562s3.222656 1.445312 3.222656 3.226562zm0 0" fill="url(#aq)"/><path d="m239.171875 323.695312c0 1.78125-1.441406 3.226563-3.222656 3.226563s-3.226563-1.445313-3.226563-3.226563c0-1.777343 1.445313-3.222656 3.226563-3.222656s3.222656 1.445313 3.222656 3.222656zm0 0" fill="url(#ar)"/><path d="m129.230469 510.441406c-5.207031 0-9.433594-4.222656-9.433594-9.433594v-62.273437c0-5.207031 4.222656-9.429687 9.433594-9.429687 5.210937 0 9.429687 4.222656 9.429687 9.429687v62.273437c0 5.210938-4.222656 9.433594-9.429687 9.433594zm0 0" fill="url(#as)"/><path d="m129.230469 407.40625c-5.207031 0-9.433594-4.222656-9.433594-9.429688v-62.273437c0-5.207031 4.222656-9.429687 9.433594-9.429687 5.210937 0 9.429687 4.222656 9.429687 9.429687v62.273437c0 5.207032-4.222656 9.429688-9.429687 9.429688zm0 0" fill="url(#at)"/><path d="m108.851562 427.789062h-62.273437c-5.210937 0-9.433594-4.222656-9.433594-9.433593 0-5.207031 4.222657-9.429688 9.433594-9.429688h62.273437c5.207032 0 9.429688 4.222657 9.429688 9.429688 0 5.210937-4.222656 9.433593-9.429688 9.433593zm0 0" fill="url(#au)"/><path d="m211.882812 427.789062h-62.273437c-5.210937 0-9.429687-4.222656-9.429687-9.433593 0-5.207031 4.21875-9.429688 9.429687-9.429688h62.273437c5.210938 0 9.433594 4.222657 9.433594 9.429688-.003906 5.210937-4.226562 9.433593-9.433594 9.433593zm0 0" fill="url(#av)"/><path d="m70.785156 484.132812c-1.875 0-3.75-.714843-5.183594-2.148437-2.867187-2.863281-2.867187-7.507813 0-10.371094l44.03125-44.03125c2.863282-2.867187 7.507813-2.867187 10.375 0 2.863282 2.863281 2.863282 7.507813 0 10.371094l-44.035156 44.03125c-1.429687 1.433594-3.308594 2.148437-5.1875 2.148437zm0 0" fill="url(#aw)"/><path d="m143.640625 411.28125c-1.878906 0-3.753906-.71875-5.1875-2.148438-2.863281-2.867187-2.863281-7.507812 0-10.375l44.03125-44.03125c2.867187-2.867187 7.511719-2.867187 10.375 0 2.863281 2.863282 2.863281 7.507813 0 10.375l-44.03125 44.03125c-1.433594 1.429688-3.3125 2.148438-5.1875 2.148438zm0 0" fill="url(#ax)"/><path d="m114.820312 411.28125c-1.878906 0-3.753906-.71875-5.1875-2.148438l-44.03125-44.03125c-2.867187-2.867187-2.867187-7.511718 0-10.375 2.863282-2.867187 7.507813-2.867187 10.371094 0l44.035156 44.03125c2.863282 2.867188 2.863282 7.507813 0 10.375-1.433593 1.429688-3.3125 2.148438-5.1875 2.148438zm0 0" fill="url(#ay)"/><path d="m187.671875 484.132812c-1.875 0-3.753906-.714843-5.1875-2.148437l-44.03125-44.03125c-2.863281-2.863281-2.863281-7.507813 0-10.371094 2.867187-2.867187 7.507813-2.867187 10.375 0l44.03125 44.03125c2.867187 2.863281 2.867187 7.507813 0 10.371094-1.429687 1.433594-3.308594 2.148437-5.1875 2.148437zm0 0" fill="url(#az)"/><path d="m138.660156 438.734375v19.730469l-18.863281-18.863282v-.867187c0-5.207031 4.226563-9.429687 9.433594-9.429687s9.429687 4.222656 9.429687 9.429687zm0 0" fill="url(#aA)"/><path d="m119.796875 462.21875h18.863281v20.914062l-18.859375-18.863281-.003906.003907zm0 0" fill="url(#aB)"/><path d="m150.378906 408.957031 18.832032 18.832031h-19.601563c-5.210937 0-9.429687-4.226562-9.429687-9.433593s4.21875-9.429688 9.429687-9.429688h.882813zm0 0" fill="url(#aC)"/><path d="m194.023438 427.789062h-21.816407v-18.863281h2.953125zm0 0" fill="url(#aD)"/><path d="m187.671875 484.132812c-1.875 0-3.753906-.714843-5.1875-2.148437l-44.03125-44.03125c-2.863281-2.863281-2.863281-7.507813 0-10.371094 2.867187-2.867187 7.507813-2.867187 10.375 0l44.03125 44.03125c2.867187 2.863281 2.867187 7.507813 0 10.371094-1.429687 1.433594-3.308594 2.148437-5.1875 2.148437zm0 0" fill="url(#aE)"/><path d="m138.660156 374.632812v-38.929687c0-.21875-.011718-.4375-.023437-.652344l-9.40625 9.40625-9.40625-9.40625c-.015625.214844-.023438.433594-.023438.652344v20.070313zm0 0" fill="url(#aF)"/><path d="m191.859375 366.097656-17.703125 17.707032-5.066406-5.066407c-1.402344-1.335937-2.273438-3.214843-2.273438-5.300781v-3.039062l14.667969-14.667969zm0 0" fill="url(#aG)"/><path d="m142.324219 331.363281-13.09375 13.09375-13.09375-13.09375c-2.867188-2.867187-7.511719-2.867187-10.375 0-2.867188 2.863281-2.867188 7.507813 0 10.371094l18.28125 18.28125c1.433593 1.433594 3.308593 2.152344 5.1875 2.152344 1.878906 0 3.753906-.71875 5.1875-2.152344l18.28125-18.28125c2.863281-2.863281 2.863281-7.507813 0-10.371094-2.867188-2.867187-7.507813-2.867187-10.375 0zm0 0" fill="url(#aH)"/><path d="m134.417969 476.695312c-2.867188-2.863281-7.511719-2.863281-10.375 0l-18.28125 18.28125c-2.867188 2.867188-2.867188 7.507813 0 10.375 2.863281 2.863282 7.507812 2.863282 10.375 0l13.09375-13.097656 13.09375 13.097656c1.433593 1.429688 3.3125 2.148438 5.1875 2.148438 1.878906 0 3.753906-.71875 5.1875-2.148438 2.863281-2.867187 2.863281-7.507812 0-10.375zm0 0" fill="url(#aI)"/><path d="m203.128906 418.355469 13.097656-13.09375c2.863282-2.867188 2.863282-7.507813 0-10.375-2.867187-2.863281-7.511718-2.863281-10.375 0l-18.28125 18.28125c-2.863281 2.867187-2.863281 7.511719 0 10.375l18.28125 18.28125c1.433594 1.433593 3.308594 2.148437 5.1875 2.148437 1.875 0 3.753907-.714844 5.1875-2.148437 2.863282-2.863281 2.863282-7.507813 0-10.375zm0 0" fill="url(#aJ)"/><path d="m70.890625 423.542969c2.867187-2.863281 2.867187-7.507813 0-10.375l-18.28125-18.28125c-2.867187-2.863281-7.507813-2.863281-10.375 0-2.863281 2.867187-2.863281 7.507812 0 10.375l13.097656 13.09375-13.097656 13.09375c-2.863281 2.867187-2.863281 7.511719 0 10.375 1.433594 1.433593 3.3125 2.148437 5.1875 2.148437 1.878906 0 3.753906-.714844 5.1875-2.148437zm0 0" fill="url(#aK)"/><path d="m174.148438 380.773438h25.855468c4.050782 0 7.335938-3.285157 7.335938-7.335938s-3.285156-7.335938-7.335938-7.335938h-18.519531v-18.519531c0-4.050781-3.28125-7.335937-7.335937-7.335937-4.050782 0-7.335938 3.285156-7.335938 7.335937v25.855469c0 4.050781 3.285156 7.335938 7.335938 7.335938zm0 0" fill="url(#aL)"/><path d="m84.3125 455.941406h-25.855469c-4.050781 0-7.335937 3.285156-7.335937 7.335938 0 4.050781 3.28125 7.335937 7.335937 7.335937h18.519531v18.519531c0 4.050782 3.28125 7.332032 7.335938 7.332032 4.050781 0 7.332031-3.28125 7.332031-7.332032v-25.855468c0-4.050782-3.28125-7.335938-7.332031-7.335938zm0 0" fill="url(#aM)"/><path d="m200.003906 455.941406h-25.855468c-4.050782 0-7.335938 3.285156-7.335938 7.335938v25.855468c0 4.050782 3.285156 7.332032 7.335938 7.332032 4.054687 0 7.335937-3.28125 7.335937-7.332032v-18.519531h18.519531c4.050782 0 7.335938-3.285156 7.335938-7.335937 0-4.050782-3.285156-7.335938-7.335938-7.335938zm0 0" fill="url(#aN)"/><path d="m84.3125 340.246094c-4.054688 0-7.335938 3.285156-7.335938 7.335937v18.519531h-18.519531c-4.050781 0-7.335937 3.285157-7.335937 7.335938s3.28125 7.335938 7.335937 7.335938h25.855469c4.050781 0 7.332031-3.285157 7.332031-7.335938v-25.855469c0-4.050781-3.28125-7.335937-7.332031-7.335937zm0 0" fill="url(#aO)"/><path d="m138.660156 372.425781v25.550781c0 .199219-.003906.394532-.015625.589844-.089843 1.441406-.5 2.789063-1.164062 3.980469l-17.683594-17.683594v-12.4375zm0 0" fill="url(#aP)"/><path d="m113.269531 426.695312c-1.320312.695313-2.820312 1.09375-4.417969 1.09375h-25.550781v-18.863281h12.199219zm0 0" fill="url(#aQ)"/><path d="m166.894531 391.066406-8.679687 8.675782-9.386719 9.390624c-1.4375 1.429688-3.3125 2.148438-5.1875 2.148438-1.878906 0-3.753906-.71875-5.191406-2.148438-1.359375-1.363281-2.078125-3.132812-2.144531-4.925781-.066407-1.964843.648437-3.949219 2.144531-5.449219l.195312-.191406 9.199219-9.195312 8.675781-8.679688zm0 0" fill="url(#aR)"/><path d="m122.152344 404.207031c-.066406 1.792969-.785156 3.5625-2.144532 4.925781-1.367187 1.359376-3.136718 2.078126-4.925781 2.144532-.085937.003906-.179687.003906-.265625.003906-1.871094 0-3.75-.71875-5.183594-2.148438l-18.066406-18.066406 10.375-10.375 8.671875 8.679688 9.203125 9.195312.191406.191406c1.5 1.5 2.214844 3.484376 2.144532 5.449219zm0 0" fill="url(#aS)"/><path d="m129.230469 441.535156c-6.191407 0-12.015625-2.410156-16.390625-6.789062-4.378906-4.375-6.792969-10.199219-6.792969-16.390625 0-6.191407 2.414063-12.011719 6.792969-16.390625 4.375-4.378906 10.199218-6.789063 16.390625-6.789063 6.191406 0 12.011719 2.410157 16.390625 6.789063s6.789062 10.199218 6.789062 16.390625c0 6.191406-2.410156 12.015625-6.789062 16.390625-4.378906 4.378906-10.199219 6.789062-16.390625 6.789062zm0-34.089844c-2.914063 0-5.65625 1.136719-7.714844 3.195313-2.0625 2.0625-3.195313 4.800781-3.195313 7.714844 0 2.914062 1.132813 5.65625 3.195313 7.71875 2.058594 2.058593 4.800781 3.195312 7.714844 3.195312 2.914062 0 5.652343-1.136719 7.714843-3.195312 2.0625-2.0625 3.195313-4.800781 3.195313-7.71875 0-2.914063-1.132813-5.652344-3.195313-7.714844-2.0625-2.058594-4.800781-3.195313-7.714843-3.195313zm0 0" fill="url(#aT)"/><path d="m145.714844 464.285156h-32.96875c-1.625 0-3.1875-.644531-4.335938-1.796875l-23.3125-23.308593c-1.152344-1.152344-1.796875-2.710938-1.796875-4.339844v-32.96875c0-1.625.644531-3.1875 1.796875-4.335938l23.3125-23.3125c1.148438-1.152344 2.710938-1.796875 4.335938-1.796875h32.96875c1.625 0 3.1875.648438 4.335937 1.796875l23.3125 23.3125c1.152344 1.152344 1.796875 2.710938 1.796875 4.335938v32.96875c0 1.628906-.644531 3.1875-1.796875 4.339844l-23.3125 23.308593c-1.148437 1.152344-2.710937 1.796875-4.335937 1.796875zm-30.425782-12.269531h27.882813l19.71875-19.71875v-27.882813l-19.71875-19.71875h-27.882813l-19.71875 19.71875v27.882813zm0 0" fill="url(#aU)"/><path d="m111.941406 363.84375c0 2.898438-2.347656 5.246094-5.246094 5.246094-2.898437 0-5.25-2.347656-5.25-5.246094s2.351563-5.246094 5.25-5.246094c2.898438 0 5.246094 2.347656 5.246094 5.246094zm0 0" fill="url(#aV)"/><path d="m157.042969 363.84375c0 2.898438-2.351563 5.246094-5.25 5.246094-2.898438 0-5.246094-2.347656-5.246094-5.246094s2.347656-5.246094 5.246094-5.246094c2.898437 0 5.25 2.347656 5.25 5.246094zm0 0" fill="url(#aW)"/><path d="m111.941406 472.867188c0 2.898437-2.347656 5.246093-5.246094 5.246093-2.898437 0-5.25-2.347656-5.25-5.246093 0-2.898438 2.351563-5.246094 5.25-5.246094 2.898438 0 5.246094 2.347656 5.246094 5.246094zm0 0" fill="url(#aX)"/><path d="m157.042969 472.867188c0 2.898437-2.351563 5.246093-5.25 5.246093-2.898438 0-5.246094-2.347656-5.246094-5.246093 0-2.898438 2.347656-5.246094 5.246094-5.246094 2.898437 0 5.25 2.347656 5.25 5.246094zm0 0" fill="url(#aY)"/><path d="m189.003906 395.804688c0 2.898437-2.351562 5.25-5.25 5.25-2.898437 0-5.246094-2.351563-5.246094-5.25 0-2.898438 2.347657-5.246094 5.246094-5.246094 2.898438 0 5.25 2.347656 5.25 5.246094zm0 0" fill="url(#aZ)"/><path d="m189.003906 440.90625c0 2.898438-2.351562 5.246094-5.25 5.246094-2.898437 0-5.246094-2.347656-5.246094-5.246094s2.347657-5.246094 5.246094-5.246094c2.898438 0 5.25 2.347656 5.25 5.246094zm0 0" fill="url(#a0)"/><path d="m79.980469 395.804688c0 2.898437-2.351563 5.246093-5.25 5.246093-2.894531 0-5.246094-2.347656-5.246094-5.246093 0-2.898438 2.351563-5.246094 5.246094-5.246094 2.898437 0 5.25 2.347656 5.25 5.246094zm0 0" fill="url(#a1)"/><path d="m79.980469 440.90625c0 2.898438-2.351563 5.246094-5.25 5.246094-2.894531 0-5.246094-2.347656-5.246094-5.246094s2.351563-5.246094 5.246094-5.246094c2.898437 0 5.25 2.347656 5.25 5.246094zm0 0" fill="url(#a2)"/><path d="m221.3125 418.355469c0-4.988281-3.871094-9.070313-8.777344-9.40625l3.691406-3.6875c2.863282-2.867188 2.863282-7.507813 0-10.375-2.867187-2.863281-7.511718-2.863281-10.375 0l-14.035156 14.039062h-16.65625v-7.054687c0-1.625-.644531-3.1875-1.796875-4.335938l-6.46875-6.46875 10.292969-10.292968h22.816406c4.050782 0 7.335938-3.285157 7.335938-7.335938s-3.285156-7.335938-7.335938-7.335938h-8.144531l1-1c2.867187-2.863281 2.867187-7.511718 0-10.375-2.863281-2.863281-7.507813-2.863281-10.375 0l-1 1v-8.144531c0-4.050781-3.28125-7.335937-7.335937-7.335937-4.050782 0-7.335938 3.285156-7.335938 7.335937v22.816407l-10.292969 10.296874-6.46875-6.472656c-1.148437-1.148437-2.710937-1.792968-4.335937-1.792968h-7.054688v-16.65625l14.039063-14.035157c2.863281-2.867187 2.863281-7.511719 0-10.375-2.867188-2.863281-7.507813-2.863281-10.375 0l-3.6875 3.6875c-.335938-4.902343-4.417969-8.777343-9.40625-8.777343-4.992188 0-9.070313 3.875-9.40625 8.777343l-3.691407-3.6875c-2.863281-2.863281-7.507812-2.863281-10.371093 0-2.867188 2.863281-2.867188 7.507813 0 10.375l14.035156 14.035157v16.65625h-7.050781c-1.628906 0-3.1875.644531-4.339844 1.792968l-6.46875 6.472656-10.292969-10.296874v-22.816407c0-4.050781-3.285156-7.335937-7.335937-7.335937-4.050782 0-7.335938 3.285156-7.335938 7.335937v8.144531l-1-1c-2.863281-2.863281-7.507812-2.863281-10.371094 0-2.867187 2.867188-2.867187 7.507813 0 10.375l1 1h-8.148437c-4.050781 0-7.332031 3.285157-7.332031 7.335938s3.28125 7.335938 7.332031 7.335938h22.816406l10.296875 10.292968-6.46875 6.46875c-1.152344 1.152344-1.796875 2.710938-1.796875 4.339844v7.050781h-16.65625l-14.035156-14.035156c-2.867187-2.867187-7.507813-2.867187-10.375 0-2.863281 2.863281-2.863281 7.507813 0 10.371094l3.691406 3.6875c-4.90625.335937-8.78125 4.417969-8.78125 9.40625 0 4.992187 3.875 9.070312 8.78125 9.40625l-3.691406 3.691406c-2.863281 2.863281-2.863281 7.507813 0 10.371094 1.433594 1.433593 3.308594 2.148437 5.1875 2.148437 1.875 0 3.753906-.714844 5.1875-2.148437l14.035156-14.035157h16.65625v7.050782c0 1.628906.644531 3.1875 1.796875 4.339844l6.46875 6.46875-10.296875 10.292968h-22.8125c-4.050781 0-7.335937 3.285156-7.335937 7.335938 0 4.050781 3.28125 7.335937 7.335937 7.335937h8.144531l-1 1c-2.867187 2.867188-2.867187 7.507813 0 10.375 1.433594 1.429688 3.308594 2.148438 5.183594 2.148438 1.878906 0 3.757813-.71875 5.1875-2.148438l1.003906-1.003906v8.148437c0 4.050782 3.28125 7.332032 7.335938 7.332032 4.050781 0 7.332031-3.28125 7.332031-7.332032v-22.816406l10.296875-10.296875 6.46875 6.46875c1.148438 1.152344 2.710938 1.796875 4.335938 1.796875h7.050781v16.65625l-14.035156 14.035156c-2.867188 2.867188-2.867188 7.507813 0 10.375 2.863281 2.863282 7.507812 2.863282 10.375 0l3.6875-3.691406c.335937 4.90625 4.417969 8.777344 9.40625 8.777344s9.070312-3.871094 9.40625-8.777344l3.6875 3.691406c1.433593 1.429688 3.3125 2.148438 5.1875 2.148438 1.878906 0 3.753906-.71875 5.1875-2.148438 2.863281-2.867187 2.863281-7.507812 0-10.375l-14.039063-14.035156v-16.65625h7.054688c1.625 0 3.1875-.648437 4.335937-1.796875l6.46875-6.46875 10.292969 10.292969v22.816406c0 4.050782 3.285156 7.335938 7.335938 7.335938 4.054687 0 7.335937-3.28125 7.335937-7.335938v-8.144531l1 1c1.433594 1.433594 3.3125 2.148437 5.1875 2.148437 1.878906 0 3.757813-.714843 5.1875-2.148437 2.867187-2.863281 2.867187-7.507813 0-10.371094l-1-1h8.144531c4.050782 0 7.335938-3.285156 7.335938-7.335937 0-4.050782-3.285156-7.335938-7.335938-7.335938h-22.816406l-10.292969-10.296875 6.46875-6.464843c1.148438-1.152344 1.796875-2.710938 1.796875-4.339844v-7.050782h16.65625l14.035156 14.035157c1.429688 1.433593 3.308594 2.148437 5.183594 2.148437 1.878906 0 3.757813-.714844 5.1875-2.148437 2.867188-2.863281 2.867188-7.507813 0-10.375l-3.6875-3.6875c4.90625-.335938 8.777344-4.417969 8.777344-9.40625zm-106.023438-33.660157h4.507813v12.480469c-.3125.140625-.625.285157-.933594.441407l-2.359375-2.359376-5.886718-5.890624zm-19.71875 19.71875 4.671876-4.671874 5.984374 5.980468 2.261719 2.269532c-.152343.308593-.300781.617187-.441406.933593h-12.476563zm4.671876 32.554688-4.671876-4.667969v-4.511719h12.480469c.140625.316407.285157.625.441407.933594zm19.554687 15.046875h-4.507813l-4.671874-4.671875 8.246093-8.25c.308594.15625.621094.304688.933594.445312v.0625h.003906v12.414063zm17.148437-25.945313c-2.0625 2.0625-4.800781 3.195313-7.714843 3.195313-2.914063 0-5.65625-1.132813-7.714844-3.195313-2.0625-2.058593-3.199219-4.800781-3.199219-7.714843 0-2.914063 1.136719-5.652344 3.199219-7.714844 2.058594-2.058594 4.796875-3.195313 7.714844-3.195313 2.914062 0 5.652343 1.136719 7.714843 3.195313 2.058594 2.0625 3.195313 4.800781 3.195313 7.714844 0 2.914062-1.136719 5.65625-3.195313 7.714843zm6.226563 25.945313h-4.507813v-12.480469c.3125-.140625.625-.285156.933594-.441406l8.246094 8.25zm-1.21875-56.757813-2.359375 2.359376c-.304688-.15625-.617188-.304688-.933594-.441407v-12.480469h4.511719l4.671875 4.671876zm20.9375 37.042969-4.671875 4.667969-8.25-8.246094c.15625-.308594.300781-.621094.441406-.933594h12.480469zm0-23.375h-12.402344.003907-.082032c-.140625-.316406-.285156-.625-.4375-.933593l2.175782-2.179688 6.070312-6.070312 4.671875 4.671874zm0 0" fill="url(#a3)"/><path d="m111.941406 363.84375c0 2.898438-2.347656 5.246094-5.246094 5.246094-2.898437 0-5.25-2.347656-5.25-5.246094s2.351563-5.246094 5.25-5.246094c2.898438 0 5.246094 2.347656 5.246094 5.246094zm0 0" fill="url(#a4)"/><path d="m157.042969 363.84375c0 2.898438-2.351563 5.246094-5.25 5.246094-2.898438 0-5.246094-2.347656-5.246094-5.246094s2.347656-5.246094 5.246094-5.246094c2.898437 0 5.25 2.347656 5.25 5.246094zm0 0" fill="url(#a5)"/><path d="m111.941406 472.867188c0 2.898437-2.347656 5.246093-5.246094 5.246093-2.898437 0-5.25-2.347656-5.25-5.246093 0-2.898438 2.351563-5.246094 5.25-5.246094 2.898438 0 5.246094 2.347656 5.246094 5.246094zm0 0" fill="url(#a6)"/><path d="m157.042969 472.867188c0 2.898437-2.351563 5.246093-5.25 5.246093-2.898438 0-5.246094-2.347656-5.246094-5.246093 0-2.898438 2.347656-5.246094 5.246094-5.246094 2.898437 0 5.25 2.347656 5.25 5.246094zm0 0" fill="url(#a7)"/><path d="m189.003906 395.804688c0 2.898437-2.351562 5.25-5.25 5.25-2.898437 0-5.246094-2.351563-5.246094-5.25 0-2.898438 2.347657-5.246094 5.246094-5.246094 2.898438 0 5.25 2.347656 5.25 5.246094zm0 0" fill="url(#a8)"/><path d="m189.003906 440.90625c0 2.898438-2.351562 5.246094-5.25 5.246094-2.898437 0-5.246094-2.347656-5.246094-5.246094s2.347657-5.246094 5.246094-5.246094c2.898438 0 5.25 2.347656 5.25 5.246094zm0 0" fill="url(#a9)"/><path d="m79.980469 395.804688c0 2.898437-2.351563 5.246093-5.25 5.246093-2.894531 0-5.246094-2.347656-5.246094-5.246093 0-2.898438 2.351563-5.246094 5.246094-5.246094 2.898437 0 5.25 2.347656 5.25 5.246094zm0 0" fill="url(#ba)"/><path d="m79.980469 440.90625c0 2.898438-2.351563 5.246094-5.25 5.246094-2.894531 0-5.246094-2.347656-5.246094-5.246094s2.351563-5.246094 5.246094-5.246094c2.898437 0 5.25 2.347656 5.25 5.246094zm0 0" fill="url(#bb)"/></svg>