<svg height="512pt" viewBox="0 0 512 512" width="512pt" xmlns="http://www.w3.org/2000/svg" xmlns:xlink="http://www.w3.org/1999/xlink"><radialGradient id="a" cx="184.7214472156" cy="137.5371132156" gradientUnits="userSpaceOnUse" r="380.4785070162"><stop offset="0" stop-color="#ff6e3a"/><stop offset=".2336" stop-color="#ff6b3c"/><stop offset=".418" stop-color="#ff6143"/><stop offset=".5857" stop-color="#ff504e"/><stop offset=".7434" stop-color="#ff395e"/><stop offset=".8928" stop-color="#ff1b72"/><stop offset="1" stop-color="#ff0084"/></radialGradient><linearGradient id="b"><stop offset="0" stop-color="#ff0084" stop-opacity="0"/><stop offset=".0737" stop-color="#f4087e" stop-opacity=".07451"/><stop offset=".3347" stop-color="#d2216b" stop-opacity=".333333"/><stop offset=".583" stop-color="#ba335e" stop-opacity=".584314"/><stop offset=".8111" stop-color="#ab3d56" stop-opacity=".811765"/><stop offset="1" stop-color="#a64153"/></linearGradient><linearGradient id="c" gradientUnits="userSpaceOnUse" x1="509.586791512" x2="209.7089654034" xlink:href="#b" y1="455.0685061254" y2="163.2951415384"/><radialGradient id="d" cx="305.034170285" cy="169.0807440244" gradientUnits="userSpaceOnUse" r="219.0308831344"><stop offset="0" stop-color="#ffd459"/><stop offset=".2794" stop-color="#ffd55b" stop-opacity=".721569"/><stop offset=".4354" stop-color="#ffd763" stop-opacity=".564706"/><stop offset=".5609" stop-color="#ffda71" stop-opacity=".439216"/><stop offset=".6702" stop-color="#ffdf85" stop-opacity=".329412"/><stop offset=".7691" stop-color="#ffe69e" stop-opacity=".231373"/><stop offset=".8603" stop-color="#ffeebe" stop-opacity=".141176"/><stop offset=".944" stop-color="#fff8e2" stop-opacity=".054902"/><stop offset="1" stop-color="#fff" stop-opacity="0"/></radialGradient><radialGradient id="e" cx="303.7678230742" cy="169.7279725378" gradientUnits="userSpaceOnUse" r="147.547922223"><stop offset="0" stop-color="#ffb400"/><stop offset=".3726" stop-color="#ffb502" stop-opacity=".627451"/><stop offset=".5069" stop-color="#ffb709" stop-opacity=".494118"/><stop offset=".6026" stop-color="#ffba14" stop-opacity=".396078"/><stop offset=".68" stop-color="#ffbf25" stop-opacity=".321569"/><stop offset=".7463" stop-color="#ffc53b" stop-opacity=".254902"/><stop offset=".805" stop-color="#ffcd57" stop-opacity=".196078"/><stop offset=".8581" stop-color="#ffd777" stop-opacity=".141176"/><stop offset=".9069" stop-color="#ffe29d" stop-opacity=".094118"/><stop offset=".9523" stop-color="#ffefc8" stop-opacity=".047059"/><stop offset=".9926" stop-color="#fffcf6" stop-opacity=".007843"/><stop offset="1" stop-color="#fff" stop-opacity="0"/></radialGradient><radialGradient id="f" cx="273.4109284616" cy="123.8034602556" gradientUnits="userSpaceOnUse" r="153.8653021924"><stop offset="0" stop-color="#ffd459"/><stop offset=".2296" stop-color="#ffd355"/><stop offset=".4362" stop-color="#ffcf4a"/><stop offset=".634" stop-color="#ffc838"/><stop offset=".825" stop-color="#ffbf1f"/><stop offset="1" stop-color="#ffb400"/></radialGradient><linearGradient id="g" gradientUnits="userSpaceOnUse" x1="315.4979488988" x2="165.557278981" y1="181.4357109018" y2="23.5195834394"><stop offset="0" stop-color="#fff" stop-opacity="0"/><stop offset=".9286" stop-color="#fff" stop-opacity=".929412"/><stop offset="1" stop-color="#fff"/></linearGradient><linearGradient id="h" gradientUnits="userSpaceOnUse" x1="414.862735124" x2="67.6305106286" y1="355.5318484538" y2="8.2996239584"><stop offset="0" stop-color="#e58200" stop-opacity="0"/><stop offset=".0396" stop-color="#e27f04" stop-opacity=".039216"/><stop offset=".4671" stop-color="#c15d2f" stop-opacity=".466667"/><stop offset=".8016" stop-color="#ad4949" stop-opacity=".8"/><stop offset="1" stop-color="#a64153"/></linearGradient><radialGradient id="i" cx="160.8636424544" cy="89.0538045398" gradientUnits="userSpaceOnUse" r="279.2622878386"><stop offset="0" stop-color="#ecf7ff"/><stop offset=".3473" stop-color="#e9f5ff"/><stop offset=".62" stop-color="#dff0ff"/><stop offset=".8666" stop-color="#cee7ff"/><stop offset="1" stop-color="#c2e0ff"/></radialGradient><linearGradient id="j"><stop offset=".0029" stop-color="#c2e0ff" stop-opacity="0"/><stop offset=".0763" stop-color="#bfdcfd" stop-opacity=".07451"/><stop offset="1" stop-color="#9eb2e7"/></linearGradient><linearGradient id="k" gradientUnits="userSpaceOnUse" x1="338.6686694432" x2="378.9222271318" xlink:href="#j" y1="275.4951709258" y2="154.0520316844"/><linearGradient id="l" gradientUnits="userSpaceOnUse" x1="292.6188676954" x2="344.3725526784" xlink:href="#j" y1="192.414200325" y2="115.6812293146"/><linearGradient id="m" gradientUnits="userSpaceOnUse" x1="187.1971188676" x2="187.1971188676" xlink:href="#j" y1="176.6903723922" y2="70.1988442812"/><linearGradient id="n" gradientUnits="userSpaceOnUse" x1="108.1230017532" x2="26.4250340996" xlink:href="#j" y1="274.3318261122" y2="197.1206870532"/><linearGradient id="o" gradientUnits="userSpaceOnUse" x1="223.1780849164" x2="223.1780849164" xlink:href="#j" y1="291.8544814846" y2="386.2161220306"/><linearGradient id="p" gradientUnits="userSpaceOnUse" x1="215.7344048552" x2="116.970465947" xlink:href="#j" y1="384.0640144392" y2="285.2999751388"/><linearGradient id="q" gradientUnits="userSpaceOnUse" x1="191.2212398124" x2="117.1303907216" xlink:href="#b" y1="436.9034410652" y2="362.8125919744"/><linearGradient id="r" gradientUnits="userSpaceOnUse" x1="366.8174376168" x2="308.2962140396" xlink:href="#b" y1="478.7701006234" y2="420.2489774384"/><linearGradient id="s" gradientUnits="userSpaceOnUse" x1="263.5299265688" x2="208.4693225178" xlink:href="#b" y1="460.9581149306" y2="405.8975108796"/><linearGradient id="t" gradientUnits="userSpaceOnUse" x1="110.6567000968" x2="72.7650696976" xlink:href="#b" y1="464.6800553534" y2="426.7884249542"/><linearGradient id="u" gradientUnits="userSpaceOnUse" x1="276.247208896" x2="240.474958231" xlink:href="#b" y1="507.376657229" y2="471.6045069562"/><linearGradient id="v" gradientUnits="userSpaceOnUse" x1="194.6314624542" x2="144.8839148038" xlink:href="#b" y1="506.060013526" y2="456.3124658756"/><linearGradient id="w" gradientUnits="userSpaceOnUse" x1="312.3423208762" x2="259.1777239144" xlink:href="#b" y1="404.620220919" y2="351.4556239572"/><linearGradient id="x"><stop offset="0" stop-color="#00c6f6"/><stop offset=".5169" stop-color="#00c4f6"/><stop offset=".7031" stop-color="#02bdf7"/><stop offset=".8359" stop-color="#05b2f9"/><stop offset=".9424" stop-color="#0aa1fc"/><stop offset="1" stop-color="#0d94fe"/></linearGradient><linearGradient id="y" gradientUnits="userSpaceOnUse" x1="89.9819304288" x2="125.7873105198" xlink:href="#x" y1="323.9984576494" y2="391.7729306928"/><linearGradient id="z"><stop offset="0" stop-color="#00c6f6"/><stop offset=".3043" stop-color="#01c3f7"/><stop offset=".5694" stop-color="#04b8f8"/><stop offset=".819" stop-color="#08a6fb"/><stop offset="1" stop-color="#0d94fe"/></linearGradient><linearGradient id="A" gradientUnits="userSpaceOnUse" x1="152.234230119" x2="131.9824127896" xlink:href="#z" y1="332.7149100222" y2="361.2513928722"/><linearGradient id="B" gradientUnits="userSpaceOnUse" x1="120.243251667" x2="151.1772006452" xlink:href="#z" y1="346.2033048376" y2="414.4397827854"/><linearGradient id="C" gradientUnits="userSpaceOnUse" x1="273.299693904" x2="309.105073995" xlink:href="#x" y1="373.5905981742" y2="441.3650712176"/><linearGradient id="D" gradientUnits="userSpaceOnUse" x1="335.551893202" x2="315.3001762648" xlink:href="#z" y1="382.3071509392" y2="410.8436337892"/><linearGradient id="E" gradientUnits="userSpaceOnUse" x1="303.5610151422" x2="334.4949641204" xlink:href="#z" y1="395.7953449702" y2="464.0320237024"/><linearGradient id="F" gradientUnits="userSpaceOnUse" x1="126.0480290632" x2="151.430590558" xlink:href="#x" y1="431.9129448032" y2="479.958543487"/><linearGradient id="G" gradientUnits="userSpaceOnUse" x1="170.1790346924" x2="155.8226489158" xlink:href="#z" y1="438.0923858898" y2="458.3218157586"/><linearGradient id="H" gradientUnits="userSpaceOnUse" x1="147.500235928" x2="169.4296069194" xlink:href="#z" y1="447.6536386256" y2="496.0272186268"/><linearGradient id="I" gradientUnits="userSpaceOnUse" x1="249.7530045706" x2="270.1073223362" xlink:href="#x" y1="342.085417578" y2="380.6132333486"/><linearGradient id="J" gradientUnits="userSpaceOnUse" x1="271.7239379328" x2="282.882631355" xlink:href="#x" y1="338.2200167014" y2="359.3416320516"/><linearGradient id="K" gradientUnits="userSpaceOnUse" x1="271.8131865986" x2="284.7009348814" xlink:href="#x" y1="351.472590239" y2="375.8671920936"/><linearGradient id="L" gradientUnits="userSpaceOnUse" x1="225.9769190602" x2="246.3317387868" xlink:href="#x" y1="457.1625870252" y2="495.6914067178"/><linearGradient id="M" gradientUnits="userSpaceOnUse" x1="247.9480532068" x2="259.1060438836" xlink:href="#x" y1="453.2980896784" y2="474.4186007144"/><linearGradient id="N" gradientUnits="userSpaceOnUse" x1="248.036498735" x2="260.924849371" xlink:href="#x" y1="466.5495589018" y2="490.945465855"/><linearGradient id="O" gradientUnits="userSpaceOnUse" x1="18.6954370528" x2="49.648460549" xlink:href="#x" y1="409.4567155462" y2="468.0462058194"/><linearGradient id="P" gradientUnits="userSpaceOnUse" x1="52.1064631738" x2="69.0751543866" xlink:href="#x" y1="403.5790534128" y2="435.6982327042"/><linearGradient id="Q" gradientUnits="userSpaceOnUse" x1="52.2422938204" x2="71.8405579278" xlink:href="#x" y1="423.7326871706" y2="460.829311738"/><linearGradient id="R" gradientUnits="userSpaceOnUse" x1="179.1166510818" x2="210.0695741858" xlink:href="#x" y1="376.6291688916" y2="435.218759557"/><linearGradient id="S" gradientUnits="userSpaceOnUse" x1="212.5276772028" x2="229.4962680234" xlink:href="#x" y1="370.7516071504" y2="402.8707864418"/><linearGradient id="T" gradientUnits="userSpaceOnUse" x1="212.6635078494" x2="232.2617719568" xlink:href="#x" y1="390.9052409082" y2="428.0018654756"/><linearGradient id="U" gradientUnits="userSpaceOnUse" x1="233.7760879016" x2="254.1309076282" xlink:href="#x" y1="453.0422903528" y2="491.5710096532"/><path d="m512 256c0 141.386719-114.613281 256-256 256s-256-114.613281-256-256 114.613281-256 256-256 256 114.613281 256 256zm0 0" fill="url(#a)"/><path d="m512 256c0-98.871094-56.058594-184.640625-138.117188-227.289062-9.519531 6.882812-20.957031 8.90625-31.546874 6.789062-.863282-.882812-1.929688-1.484375-3.070313-1.820312l-27.589844-27.589844c-4.640625-1.027344-9.328125-1.929688-14.058593-2.703125-.378907.621093-.691407 1.3125-.890626 2.109375-7.746093 30.941406-46.476562 41.320312-68.65625 18.394531-5.25-5.429687-14.269531-.222656-12.195312 7.042969 8.765625 30.667968-19.589844 59.019531-50.257812 50.257812-7.261719-2.074218-12.46875 6.941406-7.039063 12.195313 6.589844 6.375 10.414063 14.121093 11.800781 22.101562-42.492187 7.898438-74.667968 45.160157-74.667968 89.9375 0 .3125.007812.617188.011718.929688-32.097656 5.339843-56.570312 33.230469-56.570312 66.847656 0 19.925781 8.601562 37.84375 22.296875 50.246094 1.507812 1.664062 3.097656 3.253906 4.765625 4.765625l183.710937 183.707031c2.019531.050781 4.042969.078125 6.074219.078125 141.382812 0 256-114.617188 256-256zm0 0" fill="url(#c)"/><path d="m310.808594 5.496094c7.742187 30.941406 46.476562 41.316406 68.652344 18.394531 5.253906-5.425781 14.273437-.222656 12.195312 7.042969-8.761719 30.667968 19.589844 59.023437 50.257812 50.257812 7.261719-2.074218 12.472657 6.941406 7.042969 12.199219-22.925781 22.171875-12.546875 60.902344 18.394531 68.652344 7.328126 1.832031 7.328126 12.242187 0 14.078125-30.941406 7.746094-41.320312 46.476562-18.394531 68.65625 5.429688 5.253906.222657 14.269531-7.042969 12.195312-30.667968-8.765625-59.019531 19.589844-50.257812 50.257813 2.074219 7.261719-6.941406 12.46875-12.195312 7.042969-22.175782-22.925782-60.910157-12.546876-68.652344 18.390624v.003907c-1.835938 7.324219-12.25 7.324219-14.082032 0v-.003907c-7.746093-30.9375-46.476562-41.316406-68.65625-18.390624-5.25 5.425781-14.269531.21875-12.195312-7.042969 8.765625-30.667969-19.589844-59.023438-50.257812-50.257813-7.261719 2.070313-12.472657-6.941406-7.039063-12.195312 22.921875-22.179688 12.542969-60.910156-18.398437-68.65625-7.324219-1.835938-7.324219-12.246094 0-14.078125 30.941406-7.75 41.320312-46.480469 18.398437-68.652344-5.433594-5.257813-.222656-14.273437 7.039063-12.199219 30.667968 8.765625 59.023437-19.589844 50.257812-50.257812-2.074219-7.265625 6.945312-12.46875 12.195312-7.042969 22.179688 22.921875 60.910157 12.546875 68.65625-18.394531 1.832032-7.328125 12.246094-7.328125 14.082032 0zm0 0" fill="#fff"/><path d="m310.808594 5.496094c7.742187 30.941406 46.476562 41.316406 68.652344 18.394531 5.253906-5.425781 14.273437-.222656 12.195312 7.042969-8.761719 30.667968 19.589844 59.023437 50.257812 50.257812 7.261719-2.074218 12.472657 6.941406 7.042969 12.199219-22.925781 22.171875-12.546875 60.902344 18.394531 68.652344 7.328126 1.832031 7.328126 12.242187 0 14.078125-30.941406 7.746094-41.320312 46.476562-18.394531 68.65625 5.429688 5.253906.222657 14.269531-7.042969 12.195312-30.667968-8.765625-59.019531 19.589844-50.257812 50.257813 2.074219 7.261719-6.941406 12.46875-12.195312 7.042969-22.175782-22.925782-60.910157-12.546876-68.652344 18.390624v.003907c-1.835938 7.324219-12.25 7.324219-14.082032 0v-.003907c-7.746093-30.9375-46.476562-41.316406-68.65625-18.390624-5.25 5.425781-14.269531.21875-12.195312-7.042969 8.765625-30.667969-19.589844-59.023438-50.257812-50.257813-7.261719 2.070313-12.472657-6.941406-7.039063-12.195312 22.921875-22.179688 12.542969-60.910156-18.398437-68.65625-7.324219-1.835938-7.324219-12.246094 0-14.078125 30.941406-7.75 41.320312-46.480469 18.398437-68.652344-5.433594-5.257813-.222656-14.273437 7.039063-12.199219 30.667968 8.765625 59.023437-19.589844 50.257812-50.257812-2.074219-7.265625 6.945312-12.46875 12.195312-7.042969 22.179688 22.921875 60.910157 12.546875 68.65625-18.394531 1.832032-7.328125 12.246094-7.328125 14.082032 0zm0 0" fill="url(#d)"/><path d="m441.652344 169.082031c0 76.148438-61.734375 137.882813-137.882813 137.882813-76.152343 0-137.886719-61.734375-137.886719-137.882813 0-76.152343 61.734376-137.886719 137.886719-137.886719 76.148438 0 137.882813 61.734376 137.882813 137.886719zm0 0" fill="url(#e)"/><path d="m417.839844 169.082031c0 63-51.070313 114.070313-114.070313 114.070313-63.003906 0-114.074219-51.070313-114.074219-114.070313 0-63.003906 51.070313-114.074219 114.074219-114.074219 63 0 114.070313 51.070313 114.070313 114.074219zm0 0" fill="url(#f)"/><path d="m407 169.082031c0 57.015625-46.21875 103.234375-103.234375 103.234375s-103.234375-46.21875-103.234375-103.234375 46.21875-103.238281 103.234375-103.238281 103.234375 46.222656 103.234375 103.238281zm0 0" fill="url(#g)"/><path d="m215.875 257.113281c-2.074219 7.261719 6.945312 12.46875 12.195312 7.039063 22.179688-22.921875 60.910157-12.542969 68.65625 18.394531 1.832032 7.332031 12.246094 7.332031 14.082032 0 7.742187-30.9375 46.476562-41.316406 68.652344-18.394531 5.253906 5.429687 14.273437.222656 12.195312-7.039063-2.898438-10.140625 1.351562-16.78125 6.597656-24.03125l-71.890625-71.886719c-8.738281-9.265624-21.117187-15.054687-34.855469-15.054687-9.730468 0-18.777343 2.910156-26.335937 7.894531-.121094-.117187-11.628906-11.632812-12.300781-12.285156-16.625-17.144531-39.902344-27.808594-65.671875-27.808594-16.742188 0-32.433594 4.5-45.933594 12.355469 30.097656 8.367187 39.96875 46.445313 17.3125 68.363281-5.429687 5.25-.21875 14.269532 7.042969 12.195313 30.664062-8.765625 59.019531 19.589843 50.253906 50.257812zm0 0" fill="url(#h)"/><path d="m339.429688 205.425781c-.457032 0-.914063.007813-1.371094.019531.886718-3.648437 1.371094-7.457031 1.371094-11.382812 0-26.464844-21.457032-47.921875-47.925782-47.921875-10.410156 0-20.039062 3.332031-27.898437 8.972656-16.363281-24.800781-44.472657-41.171875-76.410157-41.171875-50.527343 0-91.484374 40.960938-91.484374 91.488282 0 .308593.007812.617187.011718.925781-32.097656 5.339843-56.570312 33.230469-56.570312 66.847656 0 37.429687 30.34375 67.773437 67.773437 67.773437h232.503907c37.429687 0 67.773437-30.34375 67.773437-67.773437 0-37.433594-30.34375-67.777344-67.773437-67.777344zm0 0" fill="url(#i)"/><path d="m407.203125 273.203125c0 37.429687-30.34375 67.773437-67.773437 67.773437-37.429688 0-67.773438-30.34375-67.773438-67.773437 0-37.433594 30.34375-67.777344 67.773438-67.777344 37.429687 0 67.773437 30.34375 67.773437 67.777344zm0 0" fill="url(#k)"/><path d="m339.429688 194.0625c0 26.46875-21.457032 47.925781-47.925782 47.925781-26.464844 0-47.921875-21.457031-47.921875-47.925781 0-26.464844 21.457031-47.921875 47.921875-47.921875 26.46875 0 47.925782 21.457031 47.925782 47.921875zm0 0" fill="url(#l)"/><path d="m278.683594 205.425781c0 50.527344-40.960938 91.488281-91.488282 91.488281-50.523437 0-91.484374-40.960937-91.484374-91.488281 0-50.523437 40.960937-91.484375 91.484374-91.484375 50.527344 0 91.488282 40.960938 91.488282 91.484375zm0 0" fill="url(#m)"/><path d="m174.699219 273.203125c0 37.429687-30.34375 67.773437-67.773438 67.773437-37.429687 0-67.773437-30.34375-67.773437-67.773437 0-37.433594 30.34375-67.777344 67.773437-67.777344 37.429688 0 67.773438 30.34375 67.773438 67.777344zm0 0" fill="url(#n)"/><path d="m39.78125 282.429688c4.503906 33.066406 32.847656 58.546874 67.144531 58.546874h232.503907c34.296874 0 62.640624-25.480468 67.144531-58.546874zm0 0" fill="url(#o)"/><path d="m231.863281 340.976562-3.535156-3.539062c-5.019531-5.421875-12.195313-8.820312-20.167969-8.820312-.09375 0-.1875.007812-.277344.011718-.058593-.054687-.109374-.105468-.164062-.160156l-18.140625-18.136719c-7.886719-8.265625-19.003906-13.417969-31.328125-13.417969-23.933594 0-43.335938 19.402344-43.335938 43.332032 0 .121094.011719.238281.011719.355468-.519531.105469-1.027343.234376-1.527343.375zm0 0" fill="url(#p)"/><path d="m162.296875 350.710938-33.582031-17.03125-47.097656 30.476562c-1.851563 1.195312-2.347657 3.6875-1.097657 5.503906l30.378907 44.191406 60.96875 60.964844 53.773437-13.621094c1.902344-.480468 3.152344-2.300781 2.925781-4.25l-5.300781-45.269531zm0 0" fill="url(#q)"/><path d="m406.769531 462.910156c-22.578125 16.484375-47.957031 29.363282-75.292969 37.785156l-37.257812-37.253906-30.386719-44.195312c-1.246093-1.816406-.746093-4.304688 1.101563-5.5l47.09375-30.46875 33.59375 17.027344 60.957031 60.964843zm0 0" fill="url(#r)"/><path d="m240.136719 392.890625-34.148438-4.398437-23.664062 30.761718c-1.492188 1.945313-1.003907 4.738282 1.039062 6.074219l61.605469 61.601563c.320312.503906.753906.945312 1.296875 1.285156l31.390625 19.617187 25.339844-23.222656c.929687-.851563 1.425781-2.070313 1.359375-3.324219l-1.382813-25.558594zm0 0" fill="url(#s)"/><path d="m136.382812 482.394531c-28.199218-14.9375-53.277343-34.988281-74-58.910156l17.328126 2.238281zm0 0" fill="url(#t)"/><path d="m305.472656 507.222656c-16 3.128906-32.546875 4.777344-49.472656 4.777344-1.476562 0-2.953125-.011719-4.417969-.039062l-22.617187-22.640626-.152344-.097656c-1.382812-.863281-1.726562-2.734375-.722656-4.027344l15.5625-20.230468 22.445312 2.894531zm0 0" fill="url(#u)"/><path d="m177.3125 450.847656-23.804688-12.070312-33.386718 21.605468c-1.316406.847657-1.667969 2.613282-.78125 3.902344l9.628906 14.003906c2.449219 1.402344 4.914062 2.78125 7.414062 4.105469 30.652344 16.230469 64.996094 26.40625 101.441407 28.964844zm0 0" fill="url(#v)"/><path d="m289.878906 352.777344-22.457031-2.890625-15.558594 20.226562c-.996093 1.292969-.660156 3.164063.722657 4.027344l.15625.097656 55.003906 55.0625 20.640625 12.902344 16.667969-15.273437c.609374-.558594.9375-1.359376.890624-2.1875l-.910156-16.804688zm0 0" fill="url(#w)"/><path d="m128.714844 333.679688-47.097656 30.476562c-1.851563 1.195312-2.347657 3.6875-1.097657 5.503906l30.378907 44.191406 29.695312-53.449218zm0 0" fill="url(#y)"/><path d="m128.714844 333.679688 33.582031 17.03125-21.703125 9.691406zm0 0" fill="url(#A)"/><path d="m162.296875 350.710938 5.304687 45.269531c.226563 1.949219-1.027343 3.765625-2.929687 4.25l-53.773437 13.621093 29.695312-53.449218zm0 0" fill="url(#B)"/><path d="m312.03125 383.273438-47.097656 30.472656c-1.851563 1.199218-2.347656 3.691406-1.097656 5.507812l30.378906 44.1875 29.695312-53.445312zm0 0" fill="url(#C)"/><path d="m312.03125 383.273438 33.582031 17.027343-21.703125 9.695313zm0 0" fill="url(#D)"/><path d="m345.613281 400.300781 5.304688 45.269531c.226562 1.949219-1.023438 3.769532-2.925781 4.25l-53.773438 13.621094 29.691406-53.445312zm0 0" fill="url(#E)"/><path d="m153.503906 438.777344-33.386718 21.605468c-1.3125.847657-1.664063 2.613282-.777344 3.902344l21.535156 31.324219 21.050781-37.886719zm0 0" fill="url(#F)"/><path d="m153.503906 438.777344 23.808594 12.070312-15.386719 6.875zm0 0" fill="url(#G)"/><path d="m177.3125 450.847656 3.761719 32.09375c.160156 1.382813-.726563 2.671875-2.078125 3.011719l-38.117188 9.65625 21.046875-37.886719zm0 0" fill="url(#H)"/><path d="m267.421875 349.886719-15.558594 20.230469c-.996093 1.292968-.660156 3.160156.726563 4.027343l20.640625 12.898438 4.0625-20.320313zm0 0" fill="url(#I)"/><path d="m267.421875 349.886719 22.457031 2.890625-12.585937 13.945312zm0 0" fill="url(#J)"/><path d="m273.230469 387.042969 16.664062-15.273438c.609375-.558593.9375-1.359375.894531-2.183593l-.910156-16.808594-12.585937 13.945312zm0 0" fill="url(#K)"/><path d="m243.648438 464.964844-15.5625 20.226562c-.996094 1.292969-.65625 3.164063.726562 4.027344l20.640625 12.902344 4.0625-20.320313zm0 0" fill="url(#L)"/><path d="m243.648438 464.964844 22.453124 2.890625-12.585937 13.945312zm0 0" fill="url(#M)"/><path d="m249.453125 502.121094 16.667969-15.273438c.609375-.558594.933594-1.359375.890625-2.183594l-.910157-16.808593-12.582031 13.945312zm0 0" fill="url(#N)"/><path d="m45.566406 421.320312-23.664062 30.761719c-1.511719 1.96875-1 4.808594 1.105468 6.125l31.390626 19.617188 6.179687-30.898438zm0 0" fill="url(#O)"/><path d="m45.566406 421.320312 34.148438 4.398438-19.136719 21.203125zm0 0" fill="url(#P)"/><path d="m54.398438 477.824219 25.34375-23.222657c.925781-.851562 1.421874-2.070312 1.355468-3.324218l-1.382812-25.558594-19.136719 21.203125zm0 0" fill="url(#Q)"/><path d="m205.988281 388.492188-23.664062 30.761718c-1.511719 1.96875-1 4.8125 1.105469 6.125l31.386718 19.621094 6.183594-30.902344zm0 0" fill="url(#R)"/><path d="m205.988281 388.492188 34.148438 4.398437-19.140625 21.203125zm0 0" fill="url(#S)"/><path d="m214.816406 444.996094 25.34375-23.222656c.925782-.851563 1.425782-2.070313 1.355469-3.324219l-1.378906-25.558594-19.140625 21.207031zm0 0" fill="url(#T)"/><path d="m243.648438 464.964844-15.5625 20.226562c-.996094 1.292969-.65625 3.164063.726562 4.027344l20.640625 12.902344 16.667969-15.273438c.609375-.558594.933594-1.359375.890625-2.183594l-.910157-16.808593zm0 0" fill="url(#U)"/></svg>