<svg height="512pt" viewBox="0 0 512 512.00086" width="512pt" xmlns="http://www.w3.org/2000/svg" xmlns:xlink="http://www.w3.org/1999/xlink"><radialGradient id="a" cx="215.8438607844" cy="185.726432" gradientUnits="userSpaceOnUse" r="336.6901399656"><stop offset="0" stop-color="#3b395f"/><stop offset=".3952" stop-color="#39375d"/><stop offset=".6279" stop-color="#323154"/><stop offset=".8179" stop-color="#262846"/><stop offset=".9849" stop-color="#151a32"/><stop offset="1" stop-color="#131830"/></radialGradient><linearGradient id="b"><stop offset="0" stop-color="#131830" stop-opacity="0"/><stop offset=".8421" stop-color="#131830"/></linearGradient><linearGradient id="c" gradientUnits="userSpaceOnUse" x1="460.8088601604" x2="120.2911671776" xlink:href="#b" y1="438.9395541358" y2="98.4219615452"/><radialGradient id="d" cx="354.0788001822" cy="72.9587851138" gradientUnits="userSpaceOnUse" r="192.5118819356"><stop offset="0" stop-color="#ffebc9"/><stop offset=".2771" stop-color="#ffe9c5"/><stop offset=".5263" stop-color="#fee2bb"/><stop offset=".7641" stop-color="#fdd7a8"/><stop offset=".9948" stop-color="#fbc78f"/><stop offset="1" stop-color="#fbc78e"/></radialGradient><linearGradient id="e" gradientUnits="userSpaceOnUse" x1="443.4653044728" x2="111.8440670774" y1="210.2215264468" y2="197.612366519"><stop offset="0" stop-color="#e58200" stop-opacity="0"/><stop offset=".0396" stop-color="#e27f04" stop-opacity=".039216"/><stop offset=".4671" stop-color="#c15d2f" stop-opacity=".466667"/><stop offset=".8016" stop-color="#ad4949" stop-opacity=".8"/><stop offset="1" stop-color="#a64153"/></linearGradient><radialGradient id="f" cx="160.8640724544" cy="89.0546665398" gradientUnits="userSpaceOnUse" r="279.2622878386"><stop offset="0" stop-color="#ecf7ff"/><stop offset=".3473" stop-color="#e9f5ff"/><stop offset=".62" stop-color="#dff0ff"/><stop offset=".8666" stop-color="#cee7ff"/><stop offset="1" stop-color="#c2e0ff"/></radialGradient><linearGradient id="g"><stop offset=".0029" stop-color="#c2e0ff" stop-opacity="0"/><stop offset=".0763" stop-color="#bfdcfd" stop-opacity=".07451"/><stop offset="1" stop-color="#9eb2e7"/></linearGradient><linearGradient id="h" gradientUnits="userSpaceOnUse" x1="338.6690994432" x2="378.9226571318" xlink:href="#g" y1="275.4960329258" y2="154.0529940766"/><linearGradient id="i" gradientUnits="userSpaceOnUse" x1="292.6192976954" x2="344.3729826784" xlink:href="#g" y1="192.415062325" y2="115.6820913146"/><linearGradient id="j" gradientUnits="userSpaceOnUse" x1="187.1975488676" x2="187.1975488676" xlink:href="#g" y1="196.769574" y2="77.4759321528"/><linearGradient id="k" gradientUnits="userSpaceOnUse" x1="108.1234317532" x2="26.4254640996" xlink:href="#g" y1="274.3326881122" y2="197.1215490532"/><linearGradient id="l" gradientUnits="userSpaceOnUse" x1="223.1784145242" x2="223.1784145242" xlink:href="#g" y1="291.8553434846" y2="386.2170844228"/><linearGradient id="m" gradientUnits="userSpaceOnUse" x1="215.7348348552" x2="116.970895947" xlink:href="#g" y1="384.0649768314" y2="285.300937531"/><linearGradient id="n" gradientUnits="userSpaceOnUse" x1="191.2216698124" x2="117.1308207216" xlink:href="#b" y1="436.9043030652" y2="362.8134539744"/><linearGradient id="o" gradientUnits="userSpaceOnUse" x1="366.8178676168" x2="308.2966440396" xlink:href="#b" y1="478.7709626234" y2="420.2498394384"/><linearGradient id="p" gradientUnits="userSpaceOnUse" x1="263.5303565688" x2="208.4697525178" xlink:href="#b" y1="460.9589769306" y2="405.8983728796"/><linearGradient id="q" gradientUnits="userSpaceOnUse" x1="110.6571300968" x2="72.7654996976" xlink:href="#b" y1="464.6809173534" y2="426.7893873464"/><linearGradient id="r" gradientUnits="userSpaceOnUse" x1="276.2475385038" x2="240.475388231" xlink:href="#b" y1="507.377519229" y2="471.6053689562"/><linearGradient id="s" gradientUnits="userSpaceOnUse" x1="194.6318924542" x2="144.8843448038" xlink:href="#b" y1="506.060875526" y2="456.3134282678"/><linearGradient id="t" gradientUnits="userSpaceOnUse" x1="312.342650484" x2="259.1781539144" xlink:href="#b" y1="404.6209825268" y2="351.4564859572"/><linearGradient id="u"><stop offset="0" stop-color="#00c6f6"/><stop offset=".5169" stop-color="#00c4f6"/><stop offset=".7031" stop-color="#02bdf7"/><stop offset=".8359" stop-color="#05b2f9"/><stop offset=".9424" stop-color="#0aa1fc"/><stop offset="1" stop-color="#0d94fe"/></linearGradient><linearGradient id="v" gradientUnits="userSpaceOnUse" x1="89.9823604288" x2="125.7877405198" xlink:href="#u" y1="323.9993196494" y2="391.7737926928"/><linearGradient id="w"><stop offset="0" stop-color="#00c6f6"/><stop offset=".3043" stop-color="#01c3f7"/><stop offset=".5694" stop-color="#04b8f8"/><stop offset=".819" stop-color="#08a6fb"/><stop offset="1" stop-color="#0d94fe"/></linearGradient><linearGradient id="x" gradientUnits="userSpaceOnUse" x1="152.234660119" x2="131.9828427896" xlink:href="#w" y1="332.7157720222" y2="361.2523552644"/><linearGradient id="y" gradientUnits="userSpaceOnUse" x1="120.243681667" x2="151.1776306452" xlink:href="#w" y1="346.2041668376" y2="414.4407451776"/><linearGradient id="z" gradientUnits="userSpaceOnUse" x1="273.300123904" x2="309.105503995" xlink:href="#u" y1="373.5914601742" y2="441.3659332176"/><linearGradient id="A" gradientUnits="userSpaceOnUse" x1="335.552323202" x2="315.3006062648" xlink:href="#w" y1="382.3080129392" y2="410.8444957892"/><linearGradient id="B" gradientUnits="userSpaceOnUse" x1="303.56134475" x2="334.4953941204" xlink:href="#w" y1="395.7963073624" y2="464.0328857024"/><linearGradient id="C" gradientUnits="userSpaceOnUse" x1="126.0485594554" x2="151.4311209502" xlink:href="#u" y1="431.9139071954" y2="479.959405487"/><linearGradient id="D" gradientUnits="userSpaceOnUse" x1="170.1794646924" x2="155.8230789158" xlink:href="#w" y1="438.093348282" y2="458.3226777586"/><linearGradient id="E" gradientUnits="userSpaceOnUse" x1="147.500665928" x2="169.4300369194" xlink:href="#w" y1="447.6545006256" y2="496.0280806268"/><linearGradient id="F" gradientUnits="userSpaceOnUse" x1="249.7534345706" x2="270.1077523362" xlink:href="#u" y1="342.086279578" y2="380.6140953486"/><linearGradient id="G" gradientUnits="userSpaceOnUse" x1="271.7243679328" x2="282.883061355" xlink:href="#u" y1="338.2208787014" y2="359.3425944438"/><linearGradient id="H" gradientUnits="userSpaceOnUse" x1="271.8136165986" x2="284.7013648814" xlink:href="#u" y1="351.473452239" y2="375.8680540936"/><linearGradient id="I" gradientUnits="userSpaceOnUse" x1="225.9773490602" x2="246.3321687868" xlink:href="#u" y1="457.1635494174" y2="495.6922687178"/><linearGradient id="J" gradientUnits="userSpaceOnUse" x1="247.9484832068" x2="259.1064738836" xlink:href="#u" y1="453.2989516784" y2="474.4194627144"/><linearGradient id="K" gradientUnits="userSpaceOnUse" x1="248.036928735" x2="260.925279371" xlink:href="#u" y1="466.550521294" y2="490.946327855"/><linearGradient id="L" gradientUnits="userSpaceOnUse" x1="18.6958670528" x2="49.648890549" xlink:href="#u" y1="409.4575775462" y2="468.0471682116"/><linearGradient id="M" gradientUnits="userSpaceOnUse" x1="52.1068931738" x2="69.0755843866" xlink:href="#u" y1="403.5799154128" y2="435.6990947042"/><linearGradient id="N" gradientUnits="userSpaceOnUse" x1="52.2427238204" x2="71.8409879278" xlink:href="#u" y1="423.7336495628" y2="460.8302741302"/><linearGradient id="O" gradientUnits="userSpaceOnUse" x1="179.1170810818" x2="210.0700041858" xlink:href="#u" y1="376.6300308916" y2="435.2197219492"/><linearGradient id="P" gradientUnits="userSpaceOnUse" x1="212.5281072028" x2="229.4966980234" xlink:href="#u" y1="370.7524691504" y2="402.8716484418"/><linearGradient id="Q" gradientUnits="userSpaceOnUse" x1="212.6638374572" x2="232.2621015646" xlink:href="#u" y1="390.9061029082" y2="428.0027274756"/><linearGradient id="R" gradientUnits="userSpaceOnUse" x1="233.7765179016" x2="254.1313376282" xlink:href="#u" y1="453.0431523528" y2="491.5718716532"/><path d="m512 256c0 141.386719-114.613281 256-256 256-141.382812 0-256-114.613281-256-256 0-141.382812 114.617188-256 256-256 141.386719 0 256 114.617188 256 256zm0 0" fill="url(#a)"/><path d="m311.992188 6.21875.007812-.0625c-2.832031-.628906-5.6875-1.210938-8.554688-1.75-42.136718 24.191406-71.558593 68.054688-75.542968 119.082031-12.261719-6.105469-26.078125-9.546875-40.703125-9.546875-50.527344 0-91.488281 40.960938-91.488281 91.488282 0 .308593.011718.617187.011718.925781-32.097656 5.339843-56.570312 33.234375-56.570312 66.847656 0 20.058594 8.722656 38.078125 22.574218 50.484375 1.664063 1.859375 3.429688 3.621094 5.285157 5.289062l182.949219 182.949219c2.007812.046875 4.019531.074219 6.039062.074219 141.382812 0 256-114.613281 256-256 0-19.210938-2.132812-37.917969-6.144531-55.917969zm0 0" fill="url(#c)"/><path d="m451.472656 212.566406c-82.65625-.203125-150.234375-67.78125-150.4375-150.4375-.054687-21.539062 4.417969-42.03125 12.507813-60.582031.453125-1.039063-.824219-2.070313-2.460938-1.25-59.015625 29.515625-96.109375 96.4375-79.785156 169.726563 11.179687 50.207031 62.074219 101.101562 112.277344 112.28125 71.953125 16.027343 137.859375-19.390626 168.085937-76.578126 1.246094-2.359374-1.148437-4.980468-3.625-3.984374-17.476562 7.023437-36.566406 10.875-56.5625 10.824218zm0 0" fill="url(#d)"/><path d="m326.363281 161.195312c-8.738281-9.265624-21.117187-15.054687-34.855469-15.054687-9.734374 0-18.777343 2.910156-26.335937 7.894531-.121094-.117187-11.628906-11.628906-12.300781-12.28125-7.191406-7.417968-15.628906-13.617187-24.972656-18.269531-1.171876 15-.148438 30.621094 3.398437 46.542969 11.179687 50.203125 62.074219 101.097656 112.277344 112.277344 34.128906 7.601562 66.894531 3.625 95.140625-8.757813zm0 0" fill="url(#e)"/><path d="m339.429688 205.429688c-.460938 0-.914063.007812-1.371094.015624.890625-3.648437 1.371094-7.457031 1.371094-11.378906 0-26.46875-21.457032-47.921875-47.921876-47.921875-10.414062 0-20.039062 3.328125-27.902343 8.96875-16.363281-24.800781-44.472657-41.167969-76.410157-41.167969-50.523437 0-91.484374 40.957032-91.484374 91.484376 0 .308593.007812.617187.011718.925781-32.097656 5.339843-56.570312 33.234375-56.570312 66.847656 0 37.429687 30.34375 67.773437 67.773437 67.773437h232.503907c37.429687 0 67.773437-30.34375 67.773437-67.773437s-30.34375-67.773437-67.773437-67.773437zm0 0" fill="url(#f)"/><path d="m407.203125 273.203125c0 37.429687-30.34375 67.773437-67.773437 67.773437-37.429688 0-67.773438-30.34375-67.773438-67.773437s30.34375-67.773437 67.773438-67.773437c37.429687 0 67.773437 30.34375 67.773437 67.773437zm0 0" fill="url(#h)"/><path d="m339.429688 194.066406c0 26.464844-21.457032 47.921875-47.921876 47.921875-26.46875 0-47.925781-21.457031-47.925781-47.921875 0-26.46875 21.457031-47.925781 47.925781-47.925781 26.464844 0 47.921876 21.457031 47.921876 47.925781zm0 0" fill="url(#i)"/><path d="m278.683594 205.429688c0 50.523437-40.960938 91.484374-91.484375 91.484374-50.527344 0-91.488281-40.960937-91.488281-91.484374 0-50.527344 40.960937-91.488282 91.488281-91.488282 50.523437 0 91.484375 40.960938 91.484375 91.488282zm0 0" fill="url(#j)"/><path d="m174.699219 273.203125c0 37.429687-30.339844 67.773437-67.773438 67.773437-37.429687 0-67.773437-30.34375-67.773437-67.773437s30.34375-67.773437 67.773437-67.773437c37.433594 0 67.773438 30.34375 67.773438 67.773437zm0 0" fill="url(#k)"/><path d="m39.78125 282.433594c4.503906 33.0625 32.847656 58.542968 67.144531 58.542968h232.503907c34.296874 0 62.640624-25.480468 67.144531-58.542968zm0 0" fill="url(#l)"/><path d="m231.863281 340.976562-3.535156-3.535156c-5.019531-5.421875-12.195313-8.820312-20.167969-8.820312-.09375 0-.183594.007812-.277344.007812-.054687-.050781-.109374-.105468-.164062-.15625l-18.140625-18.140625c-7.886719-8.261719-19.003906-13.414062-31.328125-13.414062-23.933594 0-43.332031 19.398437-43.332031 43.328125 0 .121094.007812.238281.007812.355468-.515625.105469-1.027343.234376-1.527343.375zm0 0" fill="url(#m)"/><path d="m162.296875 350.710938-33.582031-17.03125-47.097656 30.476562c-1.851563 1.195312-2.347657 3.6875-1.097657 5.503906l30.378907 44.191406 60.96875 60.964844 53.773437-13.621094c1.902344-.480468 3.15625-2.300781 2.925781-4.25l-5.300781-45.269531zm0 0" fill="url(#n)"/><path d="m406.769531 462.910156c-22.578125 16.484375-47.957031 29.363282-75.292969 37.789063l-37.253906-37.257813-30.390625-44.191406c-1.246093-1.816406-.742187-4.304688 1.101563-5.5l47.09375-30.472656 33.59375 17.027344 60.957031 60.96875zm0 0" fill="url(#o)"/><path d="m240.136719 392.890625-34.148438-4.398437-23.664062 30.761718c-1.492188 1.945313-1.003907 4.738282 1.039062 6.074219l61.605469 61.605469c.320312.5.753906.941406 1.296875 1.28125l31.390625 19.617187 25.339844-23.222656c.929687-.851563 1.425781-2.070313 1.359375-3.324219l-1.382813-25.558594zm0 0" fill="url(#p)"/><path d="m136.382812 482.394531c-28.199218-14.9375-53.277343-34.984375-74-58.910156l17.328126 2.238281zm0 0" fill="url(#q)"/><path d="m305.472656 507.222656c-16 3.128906-32.546875 4.777344-49.472656 4.777344-1.476562 0-2.949219-.007812-4.417969-.039062l-22.617187-22.636719-.152344-.101563c-1.382812-.863281-1.726562-2.734375-.722656-4.027344l15.5625-20.226562 22.449218 2.890625zm0 0" fill="url(#r)"/><path d="m177.3125 450.851562-23.804688-12.074218-33.386718 21.605468c-1.316406.847657-1.667969 2.613282-.78125 3.902344l9.628906 14.003906c2.449219 1.40625 4.914062 2.78125 7.417969 4.105469 30.648437 16.230469 64.992187 26.40625 101.4375 28.964844zm0 0" fill="url(#s)"/><path d="m289.878906 352.777344-22.453125-2.890625-15.5625 20.230469c-.996093 1.292968-.660156 3.160156.726563 4.027343l.152344.09375 55.003906 55.066407 20.640625 12.898437 16.667969-15.273437c.609374-.558594.9375-1.359376.890624-2.1875l-.90625-16.804688zm0 0" fill="url(#t)"/><path d="m128.714844 333.679688-47.097656 30.476562c-1.851563 1.195312-2.347657 3.6875-1.097657 5.503906l30.378907 44.191406 29.695312-53.445312zm0 0" fill="url(#v)"/><path d="m128.714844 333.679688 33.582031 17.03125-21.703125 9.695312zm0 0" fill="url(#x)"/><path d="m162.296875 350.710938 5.304687 45.269531c.226563 1.949219-1.023437 3.769531-2.929687 4.25l-53.769531 13.621093 29.691406-53.445312zm0 0" fill="url(#y)"/><path d="m312.03125 383.273438-47.097656 30.476562c-1.847656 1.195312-2.347656 3.6875-1.097656 5.503906l30.378906 44.191406 29.695312-53.449218zm0 0" fill="url(#z)"/><path d="m312.03125 383.273438 33.585938 17.027343-21.707032 9.695313zm0 0" fill="url(#A)"/><path d="m345.617188 400.300781 5.300781 45.269531c.226562 1.949219-1.023438 3.769532-2.925781 4.25l-53.773438 13.621094 29.691406-53.445312zm0 0" fill="url(#B)"/><path d="m153.507812 438.777344-33.390624 21.605468c-1.3125.847657-1.664063 2.613282-.777344 3.902344l21.535156 31.328125 21.050781-37.890625zm0 0" fill="url(#C)"/><path d="m153.507812 438.777344 23.804688 12.074218-15.386719 6.871094zm0 0" fill="url(#D)"/><path d="m177.3125 450.851562 3.761719 32.089844c.160156 1.382813-.726563 2.671875-2.078125 3.011719l-38.117188 9.65625 21.046875-37.886719zm0 0" fill="url(#E)"/><path d="m267.425781 349.886719-15.5625 20.230469c-.996093 1.292968-.660156 3.160156.726563 4.027343l20.640625 12.898438 4.0625-20.316407zm0 0" fill="url(#F)"/><path d="m267.425781 349.886719 22.453125 2.890625-12.585937 13.945312zm0 0" fill="url(#G)"/><path d="m273.230469 387.042969 16.664062-15.273438c.609375-.558593.9375-1.359375.894531-2.183593l-.910156-16.808594-12.585937 13.945312zm0 0" fill="url(#H)"/><path d="m243.648438 464.964844-15.5625 20.230468c-.992188 1.292969-.65625 3.160157.726562 4.027344l20.640625 12.902344 4.066406-20.324219zm0 0" fill="url(#I)"/><path d="m243.648438 464.964844 22.453124 2.890625-12.582031 13.945312zm0 0" fill="url(#J)"/><path d="m249.453125 502.121094 16.667969-15.273438c.609375-.558594.933594-1.359375.890625-2.183594l-.90625-16.808593-12.585938 13.945312zm0 0" fill="url(#K)"/><path d="m45.566406 421.320312-23.664062 30.761719c-1.511719 1.96875-1 4.8125 1.105468 6.125l31.390626 19.621094 6.179687-30.902344zm0 0" fill="url(#L)"/><path d="m45.566406 421.320312 34.148438 4.398438-19.136719 21.207031zm0 0" fill="url(#M)"/><path d="m54.398438 477.824219 25.34375-23.222657c.925781-.851562 1.421874-2.070312 1.355468-3.324218l-1.382812-25.558594-19.136719 21.207031zm0 0" fill="url(#N)"/><path d="m205.988281 388.492188-23.664062 30.765624c-1.511719 1.964844-1 4.808594 1.105469 6.121094l31.390624 19.621094 6.179688-30.902344zm0 0" fill="url(#O)"/><path d="m205.988281 388.492188 34.148438 4.398437-19.140625 21.207031zm0 0" fill="url(#P)"/><path d="m214.816406 445 25.34375-23.226562c.929688-.847657 1.425782-2.070313 1.359375-3.324219l-1.382812-25.558594-19.136719 21.207031zm0 0" fill="url(#Q)"/><path d="m243.648438 464.964844-15.5625 20.230468c-.992188 1.292969-.65625 3.160157.726562 4.027344l20.640625 12.902344 16.667969-15.273438c.609375-.558593.9375-1.359374.890625-2.1875l-.90625-16.804687zm0 0" fill="url(#R)"/></svg>