<svg height="512pt" viewBox="0 0 512.00039 512" width="512pt" xmlns="http://www.w3.org/2000/svg" xmlns:xlink="http://www.w3.org/1999/xlink"><linearGradient id="a"><stop offset="0" stop-color="#3b395f"/><stop offset=".3952" stop-color="#39375d"/><stop offset=".6279" stop-color="#323154"/><stop offset=".8179" stop-color="#262846"/><stop offset=".9849" stop-color="#151a32"/><stop offset="1" stop-color="#131830"/></linearGradient><radialGradient id="b" cx="215.8425157832" cy="185.7250494824" gradientUnits="userSpaceOnUse" r="336.6881277168" xlink:href="#a"/><linearGradient id="c"><stop offset="0" stop-color="#131830" stop-opacity="0"/><stop offset=".8421" stop-color="#131830"/></linearGradient><linearGradient id="d" gradientUnits="userSpaceOnUse" x1="455.731556906" x2="295.7935828904" xlink:href="#c" y1="505.01661801" y2="345.0786439944"/><linearGradient id="e" gradientUnits="userSpaceOnUse" x1="476.6575835764" x2="388.9541767256" xlink:href="#c" y1="218.5548093396" y2="130.8514024888"/><linearGradient id="f" gradientUnits="userSpaceOnUse" x1="103.449903136" x2="336.4152367816" y1="188.0047419352" y2="487.3114550424"><stop offset="0" stop-color="#ffd459"/><stop offset=".2296" stop-color="#ffd355"/><stop offset=".4362" stop-color="#ffcf4a"/><stop offset=".634" stop-color="#ffc838"/><stop offset=".825" stop-color="#ffbf1f"/><stop offset="1" stop-color="#ffb400"/></linearGradient><linearGradient id="g"><stop offset="0" stop-color="#e58200" stop-opacity="0"/><stop offset=".0396" stop-color="#e27f04" stop-opacity=".039216"/><stop offset=".4671" stop-color="#c15d2f" stop-opacity=".466667"/><stop offset=".8016" stop-color="#ad4949" stop-opacity=".8"/><stop offset="1" stop-color="#a64153"/></linearGradient><linearGradient id="h" gradientUnits="userSpaceOnUse" x1="366.1222155292" x2="127.2867842484" xlink:href="#g" y1="415.9554147692" y2="177.1199834884"/><linearGradient id="i" gradientUnits="userSpaceOnUse" x1="313.6866789332" x2="230.1168962124" xlink:href="#g" y1="434.7561512676" y2="387.4524324804"/><radialGradient id="j" cx="275.8069204212" cy="161.8291381092" gradientUnits="userSpaceOnUse" r="342.1547515116" xlink:href="#a"/><radialGradient id="k" cx="185.9704932452" cy="93.8205553464" gradientUnits="userSpaceOnUse" r="313.8350842844"><stop offset="0" stop-color="#ecf7ff"/><stop offset=".3473" stop-color="#e9f5ff"/><stop offset=".62" stop-color="#dff0ff"/><stop offset=".8666" stop-color="#cee7ff"/><stop offset="1" stop-color="#c2e0ff"/></radialGradient><linearGradient id="l"><stop offset=".0029" stop-color="#c2e0ff" stop-opacity="0"/><stop offset=".0763" stop-color="#bfdcfd" stop-opacity=".07451"/><stop offset="1" stop-color="#9eb2e7"/></linearGradient><linearGradient id="m" gradientUnits="userSpaceOnUse" x1="385.787223312" x2="431.0240798384" xlink:href="#l" y1="303.3442496088" y2="166.8667885972"/><linearGradient id="n" gradientUnits="userSpaceOnUse" x1="334.0364578196" x2="392.1970261888" xlink:href="#l" y1="209.9775518188" y2="123.745383866"/><linearGradient id="o" gradientUnits="userSpaceOnUse" x1="215.5638287016" x2="215.5638287016" xlink:href="#l" y1="246.9639254824" y2="32.1173681964"/><linearGradient id="p" gradientUnits="userSpaceOnUse" x1="126.700597696" x2="34.8888653984" xlink:href="#l" y1="302.036849802" y2="215.2672856144"/><linearGradient id="q" gradientUnits="userSpaceOnUse" x1="255.998955" x2="255.998955" xlink:href="#l" y1="321.728662142" y2="427.772309222"/><radialGradient id="r" cx="368.6616210512" cy="84.9240525376" gradientUnits="userSpaceOnUse" r="90.9003773528"><stop offset="0" stop-color="#ecf7ff"/><stop offset="1" stop-color="#c2e0ff"/></radialGradient><linearGradient id="s" gradientUnits="userSpaceOnUse" x1="247.634326888" x2="136.642377844" xlink:href="#l" y1="425.354377536" y2="314.362428492"/><linearGradient id="t" gradientUnits="userSpaceOnUse" x1="352.4247856252" x2="140.5143814644" xlink:href="#g" y1="274.7883609468" y2="249.9620202248"/><linearGradient id="u"><stop offset="0" stop-color="#ff6e3a"/><stop offset=".2336" stop-color="#ff6b3c"/><stop offset=".418" stop-color="#ff6143"/><stop offset=".5857" stop-color="#ff504e"/><stop offset=".7434" stop-color="#ff395e"/><stop offset=".8928" stop-color="#ff1b72"/><stop offset="1" stop-color="#ff0084"/></linearGradient><linearGradient id="v" gradientUnits="userSpaceOnUse" x1="223.6373211736" x2="303.9838307932" xlink:href="#u" y1="200.9539532444" y2="200.9539532444"/><radialGradient id="w" cx="212.179527474" cy="345.4364396568" gradientUnits="userSpaceOnUse" r="97.9557986092" xlink:href="#u"/><path d="m511.996094 256c0 141.382812-114.613282 255.996094-255.996094 255.996094-141.386719 0-256-114.613282-256-255.996094 0-141.386719 114.613281-256 256-256 141.382812 0 255.996094 114.613281 255.996094 256zm0 0" fill="url(#b)"/><path d="m511.996094 256c0 141.382812-114.613282 255.996094-255.996094 255.996094-141.386719 0-256-114.613282-256-255.996094 0-141.386719 114.613281-256 256-256 141.382812 0 255.996094 114.613281 255.996094 256zm0 0" fill="url(#b)"/><path d="m506.382812 309.484375-132.875-132.875c-9.875-11.40625-24.449218-18.632813-40.722656-18.632813-10.945312 0-21.121094 3.277344-29.621094 8.886719-.4375-.417969-.871093-.84375-1.316406-1.253906-1.769531-1.902344-3.597656-3.742187-5.503906-5.503906-1.765625-1.898438-3.59375-3.738281-5.5-5.5-18.769531-20.179688-45.542969-32.816407-75.277344-32.816407-56.78125 0-102.8125 46.03125-102.8125 102.8125 0 .347657.011719.695313.011719 1.042969-36.070313 6-63.574219 37.347657-63.574219 75.121094 0 22.433594 9.703125 42.59375 25.132813 56.53125l38.511719 38.515625c.691406.765625 1.40625 1.507812 2.128906 2.246094-.074219.773437-.121094 1.558594-.121094 2.351562 0 8.140625 3.988281 15.347656 10.117188 19.777344l88.226562 88.226562c13.921875 2.34375 28.222656 3.582032 42.8125 3.582032 123.039062 0 225.785156-86.804688 250.382812-202.511719zm0 0" fill="url(#d)"/><path d="m511.996094 256c0-28.476562-4.65625-55.863281-13.238282-81.453125l-75.464843-75.46875c-6.34375-7.277344-15.675781-11.886719-26.089844-11.886719-16.222656 0-29.832031 11.167969-33.574219 26.230469-1.988281-.59375-4.097656-.914063-6.277344-.914063-12.121093 0-21.945312 9.820313-21.945312 21.941407 0 6.917969 3.207031 13.085937 8.214844 17.109375l161.898437 161.898437c4.234375-18.46875 6.476563-37.703125 6.476563-57.457031zm0 0" fill="url(#e)"/><path d="m473.46875 464.757812h-434.941406c-29.871094 0-48.34375-32.558593-33.023438-58.199218l217.46875-363.980469c14.929688-24.984375 51.121094-24.984375 66.050782 0l217.46875 363.980469c15.320312 25.640625-3.152344 58.199218-33.023438 58.199218zm0 0" fill="url(#f)"/><path d="m370.527344 178.980469-6.613282-11.0625c-8.789062-6.25-19.519531-9.941407-31.128906-9.941407-10.945312 0-21.121094 3.277344-29.621094 8.890626-.4375-.421876-.871093-.84375-1.316406-1.257813-1.769531-1.898437-3.597656-3.738281-5.503906-5.5-1.765625-1.898437-3.597656-3.742187-5.5-5.5-18.769531-20.183594-45.542969-32.816406-75.28125-32.816406-16.761719 0-32.589844 4.015625-46.570312 11.132812l-115.445313 193.214844c4.269531 12.070313 11.46875 22.75 20.777344 31.15625l38.511719 38.515625c.691406.765625 1.40625 1.507812 2.128906 2.246094-.074219.773437-.121094 1.558594-.121094 2.351562 0 8.140625 3.988281 15.347656 10.117188 19.777344l44.574218 44.574219h234.632813c34.0625-24.222657 61.945312-56.570313 80.8125-94.21875zm0 0" fill="url(#h)"/><path d="m383.515625 464.765625h-113l-40.335937-40.339844c-8.734376-7.359375-14.289063-18.371093-14.289063-30.679687 0-22.148438 17.960937-40.105469 40.109375-40.105469 12.308594 0 23.320312 5.550781 30.679688 14.285156zm0 0" fill="url(#i)"/><path d="m473.46875 452.214844h-434.9375c-9.457031 0-17.886719-4.910156-22.550781-13.132813-4.664063-8.21875-4.554688-17.972656.292969-26.089843l217.46875-363.980469c6.808593-11.390625 17.832031-12.617188 22.257812-12.617188 4.421875 0 15.449219 1.230469 22.257812 12.621094l217.464844 363.976563c4.847656 8.117187 4.957032 17.871093.292969 26.09375-4.664063 8.21875-13.09375 13.128906-22.546875 13.128906zm-217.46875-400.765625c-2.304688 0-6.582031.6875-9.332031 5.289062l-217.464844 363.980469c-2.824219 4.722656-1.289063 8.878906-.125 10.933594 1.167969 2.054687 3.945313 5.503906 9.453125 5.503906h434.9375c5.503906 0 8.28125-3.449219 9.449219-5.503906 1.167969-2.054688 2.703125-6.210938-.121094-10.9375l-217.464844-363.976563c-2.75-4.601562-7.027343-5.289062-9.332031-5.289062zm0 0" fill="url(#j)"/><path d="m386.640625 224.601562c-.515625 0-1.027344.007813-1.539063.019532 1-4.101563 1.539063-8.378906 1.539063-12.789063 0-29.742187-24.109375-53.855469-53.855469-53.855469-11.699218 0-22.519531 3.742188-31.351562 10.082032-18.390625-27.875-49.980469-46.269532-85.871094-46.269532-56.78125 0-102.808594 46.03125-102.808594 102.8125 0 .347657.007813.695313.011719 1.042969-36.070313 6-63.574219 37.347657-63.574219 75.121094 0 42.0625 34.101563 76.164063 76.164063 76.164063h261.285156c42.066406 0 76.164063-34.101563 76.164063-76.164063s-34.097657-76.164063-76.164063-76.164063zm0 0" fill="url(#k)"/><path d="m462.804688 300.765625c0 42.066406-34.097657 76.164063-76.164063 76.164063-42.0625 0-76.164063-34.097657-76.164063-76.164063 0-42.0625 34.101563-76.164063 76.164063-76.164063 42.066406 0 76.164063 34.101563 76.164063 76.164063zm0 0" fill="url(#m)"/><path d="m386.640625 211.832031c0 29.742188-24.113281 53.855469-53.855469 53.855469-29.742187 0-53.855468-24.113281-53.855468-53.855469 0-29.746093 24.113281-53.855469 53.855468-53.855469 29.742188 0 53.855469 24.109376 53.855469 53.855469zm0 0" fill="url(#n)"/><path d="m318.375 224.601562c0 56.78125-46.03125 102.8125-102.8125 102.8125-56.777344 0-102.808594-46.03125-102.808594-102.8125s46.03125-102.808593 102.808594-102.808593c56.78125 0 102.8125 46.027343 102.8125 102.808593zm0 0" fill="url(#o)"/><path d="m201.519531 300.765625c0 42.066406-34.097656 76.164063-76.164062 76.164063-42.0625 0-76.164063-34.097657-76.164063-76.164063 0-42.0625 34.101563-76.164063 76.164063-76.164063 42.066406 0 76.164062 34.101563 76.164062 76.164063zm0 0" fill="url(#p)"/><path d="m49.898438 311.140625c5.058593 37.152344 36.914062 65.789063 75.457031 65.789063h261.285156c38.546875 0 70.398437-28.636719 75.460937-65.789063zm0 0" fill="url(#q)"/><path d="m431.792969 122.074219c0-.09375.007812-.1875.007812-.285157 0-19.105468-15.492187-34.597656-34.601562-34.597656-16.222657 0-29.828125 11.167969-33.570313 26.230469-1.992187-.59375-4.097656-.914063-6.28125-.914063-12.117187 0-21.941406 9.820313-21.941406 21.941407 0 12.117187 9.824219 21.941406 21.941406 21.941406h70.96875c9.574219 0 17.332032-7.761719 17.332032-17.335937 0-8.378907-5.949219-15.371094-13.855469-16.980469zm0 0" fill="url(#r)"/><path d="m265.761719 376.929688-3.976563-3.972657c-5.640625-6.09375-13.703125-9.914062-22.664062-9.914062-.105469 0-.207032.011719-.3125.011719-.0625-.0625-.125-.121094-.183594-.179688l-20.386719-20.386719c-8.863281-9.285156-21.355469-15.074219-35.207031-15.074219-26.894531 0-48.699219 21.800782-48.699219 48.695313 0 .132813.011719.265625.011719.398437-.582031.117188-1.152344.261719-1.714844.421876zm0 0" fill="url(#s)"/><path d="m473.46875 464.765625h-87.644531l-144.484375-144.484375c-4.574219-2.773438-6.886719-7.179688-6.886719-13.242188 0-25.089843-1.023437-24.40625-3.082031-81.199218-2.054688-56.789063-3.089844-97.730469-3.089844-122.828125 0-8 2.730469-14.195313 8.171875-18.550781 5.449219-4.359376 12.507813-6.535157 21.171875-6.535157 8.675781 0 15.039062 2.265625 19.09375 6.804688.582031.644531 1.105469 1.335937 1.609375 2.046875l92.199219 92.199218 135.96875 227.578126c15.320312 25.640624-3.152344 58.210937-33.027344 58.210937zm0 0" fill="url(#t)"/><path d="m228.28125 103.125c0-8.007812 2.726562-14.195312 8.175781-18.554688 5.449219-4.355468 12.507813-6.535156 21.171875-6.535156 8.667969 0 15.03125 2.265625 19.089844 6.800782 4.058594 4.535156 6.09375 10.625 6.09375 18.289062 0 25.09375-.4375 66.027344-1.285156 122.828125-.859375 56.792969-1.285156 56.105469-1.285156 81.191406 0 5.230469-2.453126 9.332031-7.347657 12.289063-4.902343 2.960937-9.988281 4.4375-15.265625 4.4375-15.449218 0-23.171875-5.570313-23.171875-16.726563 0-25.085937-1.027343-24.398437-3.085937-81.191406-2.058594-56.796875-3.089844-97.734375-3.089844-122.828125zm0 0" fill="url(#v)"/><path d="m296.105469 393.855469c0 22.152343-17.957031 40.105469-40.105469 40.105469-22.152344 0-40.105469-17.953126-40.105469-40.105469 0-22.148438 17.953125-40.105469 40.105469-40.105469 22.148438 0 40.105469 17.957031 40.105469 40.105469zm0 0" fill="url(#w)"/></svg>