<svg height="512pt" viewBox="0 0 512.00202 512" width="512pt" xmlns="http://www.w3.org/2000/svg" xmlns:xlink="http://www.w3.org/1999/xlink"><radialGradient id="a" cx="205.8051133922" cy="185.72658" gradientUnits="userSpaceOnUse" r="309.7956719388"><stop offset="0" stop-color="#ecf7ff"/><stop offset=".5353" stop-color="#eaf6ff"/><stop offset=".7282" stop-color="#e3f2ff"/><stop offset=".8651" stop-color="#d8ecff"/><stop offset=".9756" stop-color="#c7e3ff"/><stop offset="1" stop-color="#c2e0ff"/></radialGradient><linearGradient id="b"><stop offset=".0029" stop-color="#c2e0ff" stop-opacity="0"/><stop offset=".6417" stop-color="#a8bfee" stop-opacity=".639216"/><stop offset="1" stop-color="#9eb2e7"/></linearGradient><linearGradient id="c" gradientUnits="userSpaceOnUse" x1="509.371951282" x2="42.5775358044" xlink:href="#b" y1="472.7410531304" y2="5.946738045"/><linearGradient id="d"><stop offset="0" stop-color="#cfced3"/><stop offset=".8111" stop-color="#a5abbd"/><stop offset="1" stop-color="#9aa2b7"/></linearGradient><radialGradient id="e" cx="169.3148577128" cy="-34.6218503672" gradientUnits="userSpaceOnUse" r="388.4870939868" xlink:href="#d"/><linearGradient id="f"><stop offset=".0018" stop-color="#9aa2b7" stop-opacity="0"/><stop offset=".3682" stop-color="#848a9c" stop-opacity=".368627"/><stop offset="1" stop-color="#606572"/></linearGradient><linearGradient id="g" gradientUnits="userSpaceOnUse" x1="416.6624651714" x2="472.6598288406" xlink:href="#f" y1="224.7407959796" y2="55.7992959366"/><linearGradient id="h" gradientUnits="userSpaceOnUse" x1="352.6017003904" x2="424.5974646594" xlink:href="#f" y1="109.1646772984" y2="2.4197592746"/><linearGradient id="i" gradientUnits="userSpaceOnUse" x1="205.9476703162" x2="205.9476703162" xlink:href="#f" y1="129.5539315496" y2="-93.4207587696"/><linearGradient id="j" gradientUnits="userSpaceOnUse" x1="95.9462301088" x2="-17.7048681374" xlink:href="#f" y1="223.1223733234" y2="115.7128589356"/><linearGradient id="k" gradientUnits="userSpaceOnUse" x1="256.001113" x2="256.001113" xlink:href="#f" y1="247.4988041898" y2="378.7666252998"/><linearGradient id="l" gradientUnits="userSpaceOnUse" x1="409.2195882478" x2="271.826437447" xlink:href="#f" y1="375.7732310724" y2="238.3799798794"/><radialGradient id="m" cx="301.604771811" cy="248.6817254824" gradientUnits="userSpaceOnUse" r="163.8708908054" xlink:href="#d"/><linearGradient id="n" gradientUnits="userSpaceOnUse" x1="191.2222428124" x2="117.1314941138" xlink:href="#b" y1="436.9041498886" y2="362.81340119"/><linearGradient id="o" gradientUnits="userSpaceOnUse" x1="366.8183402246" x2="308.2973174318" xlink:href="#b" y1="478.7713114078" y2="420.250288615"/><linearGradient id="p" gradientUnits="userSpaceOnUse" x1="263.5308291766" x2="208.4702251256" xlink:href="#b" y1="460.9591249306" y2="405.8985208796"/><linearGradient id="q" gradientUnits="userSpaceOnUse" x1="110.657301528" x2="72.765771521" xlink:href="#b" y1="464.6809649612" y2="426.789334562"/><linearGradient id="r" gradientUnits="userSpaceOnUse" x1="246.3518163048" x2="193.1870185586" xlink:href="#b" y1="378.4190675034" y2="325.254169365"/><linearGradient id="s" gradientUnits="userSpaceOnUse" x1="276.2485130726" x2="240.4761620154" xlink:href="#b" y1="507.377667229" y2="471.605416564"/><linearGradient id="t" gradientUnits="userSpaceOnUse" x1="194.6326662386" x2="144.8849178038" xlink:href="#b" y1="506.0612243104" y2="456.3134758756"/><linearGradient id="u"><stop offset="0" stop-color="#00c6f6"/><stop offset=".5169" stop-color="#00c4f6"/><stop offset=".7031" stop-color="#02bdf7"/><stop offset=".8359" stop-color="#05b2f9"/><stop offset=".9424" stop-color="#0aa1fc"/><stop offset="1" stop-color="#0d94fe"/></linearGradient><linearGradient id="v" gradientUnits="userSpaceOnUse" x1="89.9827326444" x2="125.7882131276" xlink:href="#u" y1="323.9995680416" y2="391.774041085"/><linearGradient id="w"><stop offset="0" stop-color="#00c6f6"/><stop offset=".3043" stop-color="#01c3f7"/><stop offset=".5694" stop-color="#04b8f8"/><stop offset=".819" stop-color="#08a6fb"/><stop offset="1" stop-color="#0d94fe"/></linearGradient><linearGradient id="x" gradientUnits="userSpaceOnUse" x1="152.2348315502" x2="131.9833153974" xlink:href="#w" y1="332.7161208066" y2="361.25230248"/><linearGradient id="y" gradientUnits="userSpaceOnUse" x1="120.2441542748" x2="151.1779024686" xlink:href="#w" y1="346.204515622" y2="414.4406923932"/><linearGradient id="z" gradientUnits="userSpaceOnUse" x1="273.3004961196" x2="309.1059766028" xlink:href="#u" y1="373.5917085664" y2="441.3660812176"/><linearGradient id="A" gradientUnits="userSpaceOnUse" x1="335.5524946332" x2="315.3010788726" xlink:href="#w" y1="382.3083617236" y2="410.8444430048"/><linearGradient id="B" gradientUnits="userSpaceOnUse" x1="303.5618173578" x2="334.4956659438" xlink:href="#w" y1="395.7965557546" y2="464.0329333102"/><linearGradient id="C" gradientUnits="userSpaceOnUse" x1="126.048931671" x2="151.431593558" xlink:href="#u" y1="431.9140551954" y2="479.9597542714"/><linearGradient id="D" gradientUnits="userSpaceOnUse" x1="170.1796361236" x2="155.8235515236" xlink:href="#w" y1="438.0935966742" y2="458.3227253664"/><linearGradient id="E" gradientUnits="userSpaceOnUse" x1="147.501238928" x2="169.4306099194" xlink:href="#w" y1="447.6546486256" y2="496.0282286268"/><linearGradient id="F" gradientUnits="userSpaceOnUse" x1="183.7621988226" x2="204.1170185492" xlink:href="#u" y1="315.8833606326" y2="354.412079933"/><linearGradient id="G" gradientUnits="userSpaceOnUse" x1="205.7334333614" x2="216.8919259992" xlink:href="#u" y1="312.0183613248" y2="333.1397758906"/><linearGradient id="H" gradientUnits="userSpaceOnUse" x1="205.8226820272" x2="218.7105307022" xlink:href="#u" y1="325.2714368234" y2="349.6662394624"/><linearGradient id="I" gradientUnits="userSpaceOnUse" x1="225.9779220602" x2="246.3327417868" xlink:href="#u" y1="457.1633962408" y2="495.6921155412"/><linearGradient id="J" gradientUnits="userSpaceOnUse" x1="247.9488554224" x2="259.1071472758" xlink:href="#u" y1="453.2986981096" y2="474.4197111066"/><linearGradient id="K" gradientUnits="userSpaceOnUse" x1="248.0377025194" x2="260.925852371" xlink:href="#u" y1="466.5509704706" y2="490.9463754628"/><linearGradient id="L" gradientUnits="userSpaceOnUse" x1="18.6963396606" x2="49.649463549" xlink:href="#u" y1="409.4573239774" y2="468.0472158194"/><linearGradient id="M" gradientUnits="userSpaceOnUse" x1="52.1071649972" x2="69.07585621" xlink:href="#u" y1="403.5798626284" y2="435.6993430964"/><linearGradient id="N" gradientUnits="userSpaceOnUse" x1="52.2432968204" x2="71.8415609278" xlink:href="#u" y1="423.7336971706" y2="460.830321738"/><linearGradient id="O" gradientUnits="userSpaceOnUse" x1="179.117252513" x2="210.0703764014" xlink:href="#u" y1="376.6302792838" y2="435.2201711258"/><linearGradient id="P" gradientUnits="userSpaceOnUse" x1="212.5284794184" x2="229.497070239" xlink:href="#u" y1="370.7527175426" y2="402.8716960496"/><linearGradient id="Q" gradientUnits="userSpaceOnUse" x1="212.6642096728" x2="232.2627749568" xlink:href="#u" y1="390.9058493394" y2="428.0029758678"/><linearGradient id="R" gradientUnits="userSpaceOnUse" x1="233.7771912938" x2="254.1320110204" xlink:href="#u" y1="453.0429991762" y2="491.5717184766"/><path d="m512 256c0 141.386719-114.613281 256-256 256-141.382812 0-256-114.613281-256-256 0-141.382812 114.617188-256 256-256 141.386719 0 256 114.617188 256 256zm0 0" fill="url(#a)"/><path d="m512 256c0 141.382812-114.617188 256-256 256-1.546875 0-3.082031-.007812-4.628906-.039062l-221.101563-221.195313c-15.601562-14.445313-26.3125-34.09375-29.363281-56.179687 1.792969-21.792969 6.332031-42.816407 13.261719-62.714844 14.023437-22.566406 37.292969-38.78125 64.53125-43.316406-.011719-.421876-.023438-.855469-.023438-1.285157 0-29.675781 10.160157-56.972656 27.1875-78.617187 34.714844-25.179688 75.996094-41.855469 120.792969-46.964844 28.117188 4.609375 53.125 18.421875 71.847656 38.257812 1.777344 1.6875 13.925782 13.828126 15.613282 15.613282.078124.078125.171874.160156.261718.25 10.519532-6.957032 23.117188-11.011719 36.671875-11.011719 19.738281 0 37.457031 8.574219 49.664063 22.207031l92.421875 92.410156c12.148437 29.804688 18.863281 62.414063 18.863281 96.585938zm0 0" fill="url(#c)"/><path d="m417.71875 127.269531c-.636719 0-1.273438.011719-1.90625.023438 1.238281-5.078125 1.90625-10.375 1.90625-15.832031 0-36.820313-29.84375-66.667969-66.664062-66.667969-14.484376 0-27.878907 4.632812-38.8125 12.480469-22.765626-34.503907-61.867188-57.273438-106.292969-57.273438-70.289063 0-127.269531 56.980469-127.269531 127.269531 0 .429688.015624.859375.019531 1.289063-44.65625 7.429687-78.699219 46.230468-78.699219 92.992187 0 52.066407 42.210938 94.28125 94.28125 94.28125h323.4375c52.070312 0 94.28125-42.214843 94.28125-94.28125 0-52.070312-42.210938-94.28125-94.28125-94.28125zm0 0" fill="url(#e)"/><path d="m512.003906 221.550781c0 52.070313-42.214844 94.28125-94.28125 94.28125-52.070312 0-94.285156-42.210937-94.285156-94.28125 0-52.070312 42.214844-94.28125 94.285156-94.28125 52.066406 0 94.28125 42.210938 94.28125 94.28125zm0 0" fill="url(#g)"/><path d="m417.722656 111.460938c0 36.816406-29.851562 66.664062-66.667968 66.664062-36.820313 0-66.667969-29.847656-66.667969-66.664062 0-36.820313 29.847656-66.667969 66.667969-66.667969 36.816406 0 66.667968 29.847656 66.667968 66.667969zm0 0" fill="url(#h)"/><path d="m333.214844 127.269531c0 70.285157-56.980469 127.265625-127.265625 127.265625-70.289063 0-127.269531-56.980468-127.269531-127.265625 0-70.289062 56.980468-127.269531 127.269531-127.269531 70.285156 0 127.265625 56.980469 127.265625 127.269531zm0 0" fill="url(#i)"/><path d="m188.5625 221.550781c0 52.070313-42.210938 94.28125-94.28125 94.28125s-94.28125-42.210937-94.28125-94.28125c0-52.070312 42.210938-94.28125 94.28125-94.28125s94.28125 42.210938 94.28125 94.28125zm0 0" fill="url(#j)"/><path d="m.875 234.390625c6.265625 45.992187 45.695312 81.441406 93.40625 81.441406h323.4375c47.714844 0 87.144531-35.449219 93.40625-81.441406zm0 0" fill="url(#k)"/><path d="m431.65625 315.832031-4.917969-4.917969c-6.980469-7.546874-16.964843-12.273437-28.054687-12.273437-.132813 0-.257813.011719-.390625.015625-.074219-.074219-.148438-.148438-.226563-.222656l-25.234375-25.234375c-10.972656-11.492188-26.4375-18.664063-43.582031-18.664063-33.292969 0-60.28125 26.988282-60.28125 60.28125 0 .164063.011719.328125.011719.492188-.71875.148437-1.425781.324218-2.125.523437zm0 0" fill="url(#l)"/><path d="m268.980469 315.308594c0-.164063-.011719-.328125-.011719-.492188 0-33.292968 26.988281-60.28125 60.28125-60.28125 28.261719 0 51.972656 19.457032 58.492188 45.703125 3.46875-1.035156 7.136718-1.597656 10.9375-1.597656 21.113281 0 38.230468 17.113281 38.230468 38.226563 0 21.113281-17.117187 38.230468-38.230468 38.230468-12.210938 0-115.023438 0-123.640626 0-16.679687 0-30.199218-13.523437-30.199218-30.199218 0-14.601563 10.367187-26.785157 24.140625-29.589844zm0 0" fill="url(#m)"/><path d="m162.300781 350.710938-33.585937-17.03125-47.097656 30.476562c-1.851563 1.195312-2.347657 3.6875-1.097657 5.503906l30.378907 44.191406 60.96875 60.964844 53.773437-13.621094c1.902344-.480468 3.15625-2.296874 2.925781-4.25l-5.300781-45.269531zm0 0" fill="url(#n)"/><path d="m406.769531 462.910156c-22.578125 16.484375-47.957031 29.363282-75.292969 37.789063l-37.253906-37.257813-30.390625-44.195312c-1.246093-1.816406-.742187-4.304688 1.105469-5.5l47.09375-30.46875 33.589844 17.027344 60.960937 60.96875zm0 0" fill="url(#o)"/><path d="m240.136719 392.890625-34.148438-4.398437-23.664062 30.761718c-1.492188 1.945313-1.003907 4.738282 1.039062 6.074219l61.605469 61.605469c.320312.5.753906.941406 1.296875 1.28125l31.390625 19.617187 25.339844-23.222656c.929687-.851563 1.425781-2.070313 1.359375-3.324219l-1.382813-25.558594zm0 0" fill="url(#p)"/><path d="m136.382812 482.394531c-28.199218-14.9375-53.277343-34.984375-74-58.910156l17.332032 2.238281zm0 0" fill="url(#q)"/><path d="m223.886719 326.578125-22.453125-2.894531-15.5625 20.230468c-.992188 1.292969-.65625 3.160157.726562 4.027344l.152344.097656 55.007812 55.0625 20.640626 12.902344 16.667968-15.273437c.609375-.558594.9375-1.363281.890625-2.1875l-.90625-16.804688zm0 0" fill="url(#r)"/><path d="m305.472656 507.222656c-16 3.132813-32.546875 4.777344-49.472656 4.777344-1.476562 0-2.949219-.007812-4.417969-.039062l-22.617187-22.636719-.148438-.101563c-1.386718-.863281-1.726562-2.730468-.722656-4.027344l15.558594-20.226562 22.449218 2.890625zm0 0" fill="url(#s)"/><path d="m177.3125 450.851562-23.804688-12.074218-33.390624 21.605468c-1.3125.847657-1.664063 2.613282-.777344 3.902344l9.628906 14.003906c2.449219 1.40625 4.914062 2.785157 7.414062 4.105469 30.648438 16.230469 64.992188 26.40625 101.441407 28.964844zm0 0" fill="url(#t)"/><path d="m128.714844 333.679688-47.097656 30.476562c-1.851563 1.195312-2.347657 3.6875-1.097657 5.503906l30.378907 44.191406 29.695312-53.445312zm0 0" fill="url(#v)"/><path d="m128.714844 333.679688 33.582031 17.03125-21.703125 9.695312zm0 0" fill="url(#x)"/><path d="m162.296875 350.710938 5.304687 45.269531c.226563 1.949219-1.027343 3.769531-2.929687 4.25l-53.773437 13.621093 29.695312-53.445312zm0 0" fill="url(#y)"/><path d="m312.035156 383.273438-47.097656 30.476562c-1.855469 1.195312-2.351562 3.6875-1.101562 5.503906l30.382812 44.191406 29.691406-53.449218zm0 0" fill="url(#z)"/><path d="m312.035156 383.273438 33.582032 17.027343-21.707032 9.695313zm0 0" fill="url(#A)"/><path d="m345.617188 400.300781 5.300781 45.269531c.230469 1.949219-1.023438 3.769532-2.925781 4.25l-53.773438 13.621094 29.691406-53.445312zm0 0" fill="url(#B)"/><path d="m153.507812 438.777344-33.390624 21.605468c-1.3125.847657-1.664063 2.613282-.777344 3.902344l21.539062 31.328125 21.046875-37.890625zm0 0" fill="url(#C)"/><path d="m153.507812 438.777344 23.804688 12.074218-15.386719 6.871094zm0 0" fill="url(#D)"/><path d="m177.3125 450.851562 3.761719 32.089844c.160156 1.382813-.726563 2.671875-2.078125 3.011719l-38.117188 9.65625 21.046875-37.886719zm0 0" fill="url(#E)"/><path d="m201.433594 323.683594-15.5625 20.230468c-.992188 1.292969-.65625 3.160157.726562 4.027344l20.640625 12.902344 4.0625-20.320312zm0 0" fill="url(#F)"/><path d="m201.433594 323.683594 22.453125 2.894531-12.582031 13.941406zm0 0" fill="url(#G)"/><path d="m207.238281 360.84375 16.667969-15.273438c.609375-.558593.9375-1.359374.890625-2.1875l-.90625-16.804687-12.585937 13.945313zm0 0" fill="url(#H)"/><path d="m243.648438 464.964844-15.5625 20.226562c-.992188 1.296875-.65625 3.164063.726562 4.027344l20.640625 12.902344 4.066406-20.320313zm0 0" fill="url(#I)"/><path d="m243.648438 464.964844 22.457031 2.890625-12.585938 13.945312zm0 0" fill="url(#J)"/><path d="m249.453125 502.121094 16.667969-15.273438c.609375-.558594.9375-1.359375.890625-2.183594l-.90625-16.808593-12.585938 13.945312zm0 0" fill="url(#K)"/><path d="m45.566406 421.320312-23.660156 30.761719c-1.511719 1.96875-1 4.8125 1.101562 6.125l31.390626 19.621094 6.179687-30.902344zm0 0" fill="url(#L)"/><path d="m45.566406 421.320312 34.148438 4.398438-19.136719 21.207031zm0 0" fill="url(#M)"/><path d="m54.398438 477.824219 25.34375-23.222657c.925781-.851562 1.421874-2.070312 1.355468-3.324218l-1.382812-25.558594-19.136719 21.207031zm0 0" fill="url(#N)"/><path d="m205.988281 388.492188-23.660156 30.765624c-1.515625 1.964844-1.003906 4.808594 1.101563 6.121094l31.390624 19.621094 6.179688-30.902344zm0 0" fill="url(#O)"/><path d="m205.988281 388.492188 34.148438 4.398437-19.136719 21.207031zm0 0" fill="url(#P)"/><path d="m214.820312 445 25.34375-23.226562c.925782-.847657 1.421876-2.070313 1.355469-3.324219l-1.382812-25.554688-19.136719 21.203125zm0 0" fill="url(#Q)"/><path d="m243.648438 464.964844-15.5625 20.226562c-.992188 1.296875-.65625 3.164063.726562 4.027344l20.640625 12.902344 16.667969-15.273438c.609375-.558594.9375-1.359375.890625-2.183594l-.90625-16.808593zm0 0" fill="url(#R)"/></svg>