<svg height="512pt" viewBox="0 0 512 512" width="512pt" xmlns="http://www.w3.org/2000/svg" xmlns:xlink="http://www.w3.org/1999/xlink"><radialGradient id="a" cx="215.8434307844" cy="185.72557" gradientUnits="userSpaceOnUse" r="336.6901399656"><stop offset="0" stop-color="#3b395f"/><stop offset=".3952" stop-color="#39375d"/><stop offset=".6279" stop-color="#323154"/><stop offset=".8179" stop-color="#262846"/><stop offset=".9849" stop-color="#151a32"/><stop offset="1" stop-color="#131830"/></radialGradient><linearGradient id="b"><stop offset="0" stop-color="#131830" stop-opacity="0"/><stop offset=".8421" stop-color="#131830"/></linearGradient><linearGradient id="c" gradientUnits="userSpaceOnUse" x1="482.9624788954" x2="56.6320431576" xlink:href="#b" y1="311.5015362012" y2="114.0648145024"/><radialGradient id="d" cx="321.3981992772" cy="99.5045321676" gradientUnits="userSpaceOnUse" r="232.3498159162"><stop offset="0" stop-color="#ffebc9"/><stop offset=".2771" stop-color="#ffe9c5"/><stop offset=".5263" stop-color="#fee2bb"/><stop offset=".7641" stop-color="#fdd7a8"/><stop offset=".9948" stop-color="#fbc78f"/><stop offset="1" stop-color="#fbc78e"/></radialGradient><linearGradient id="e" gradientUnits="userSpaceOnUse" x1="361.6446291196" x2="171.6163498198" y1="399.642775643" y2="209.614395951"><stop offset="0" stop-color="#e58200" stop-opacity="0"/><stop offset=".0396" stop-color="#e27f04" stop-opacity=".039216"/><stop offset=".4671" stop-color="#c15d2f" stop-opacity=".466667"/><stop offset=".8016" stop-color="#ad4949" stop-opacity=".8"/><stop offset="1" stop-color="#a64153"/></linearGradient><radialGradient id="f" cx="120.206608514" cy="209.6661983262" gradientUnits="userSpaceOnUse" r="275.8113059636"><stop offset="0" stop-color="#ecf7ff"/><stop offset=".3473" stop-color="#e9f5ff"/><stop offset=".62" stop-color="#dff0ff"/><stop offset=".8666" stop-color="#cee7ff"/><stop offset="1" stop-color="#c2e0ff"/></radialGradient><linearGradient id="g"><stop offset=".0029" stop-color="#c2e0ff" stop-opacity="0"/><stop offset=".0763" stop-color="#bfdcfd" stop-opacity=".07451"/><stop offset="1" stop-color="#9eb2e7"/></linearGradient><linearGradient id="h" gradientUnits="userSpaceOnUse" x1="295.8143514214" x2="335.570465759" xlink:href="#g" y1="393.803965291" y2="273.8615890474"/><linearGradient id="i" gradientUnits="userSpaceOnUse" x1="250.3332714866" x2="301.4475585478" xlink:href="#g" y1="311.749404543" y2="235.9644370772"/><linearGradient id="j" gradientUnits="userSpaceOnUse" x1="68.1180151518" x2="-12.5703081464" xlink:href="#g" y1="392.6550769542" y2="316.398065364"/><linearGradient id="k" gradientUnits="userSpaceOnUse" x1="181.750540841" x2="181.750540841" xlink:href="#g" y1="409.9614875278" y2="503.156169141"/><linearGradient id="l" gradientUnits="userSpaceOnUse" x1="174.3994223882" x2="76.8556502788" xlink:href="#g" y1="501.0312678358" y2="403.4874957264"/><linearGradient id="m" gradientUnits="userSpaceOnUse" x1="486.5469823964" x2="404.6139966026" xlink:href="#b" y1="192.5062599724" y2="110.5731737864"/><radialGradient id="n" cx="395.4620428662" cy="55.6807266704" gradientUnits="userSpaceOnUse" r="112.5228907026"><stop offset="0" stop-color="#ecf7ff"/><stop offset="1" stop-color="#c2e0ff"/></radialGradient><radialGradient id="o" cx="260.2229071086" cy="109.3974807322" gradientUnits="userSpaceOnUse" r="507.890163332"><stop offset="0" stop-color="#ffd459"/><stop offset=".138" stop-color="#ffdc77" stop-opacity=".862745"/><stop offset=".4331" stop-color="#ffebb1" stop-opacity=".568627"/><stop offset=".6857" stop-color="#fff6db" stop-opacity=".313725"/><stop offset=".8827" stop-color="#fffcf5" stop-opacity=".117647"/><stop offset="1" stop-color="#fff" stop-opacity="0"/></radialGradient><path d="m512 256c0 141.386719-114.613281 256-256 256s-256-114.613281-256-256 114.613281-256 256-256 256 114.613281 256 256zm0 0" fill="url(#a)"/><path d="m269.503906 11.804688c-71.230468 35.625-115.996094 116.398437-96.296875 204.855468 7.011719 31.476563 26.957031 63.171875 53 88.261719l167.140625 167.144531c71.332032-45.441406 118.652344-125.222656 118.652344-216.066406 0-1.066406-.027344-2.128906-.039062-3.195312l-239.488282-239.488282c.546875-1.253906-.996094-2.496094-2.96875-1.511718zm0 0" fill="url(#c)"/><path d="m438.945312 268.003906c-99.761718-.246094-181.320312-81.804687-181.566406-181.566406-.066406-26 5.332032-50.730469 15.09375-73.117188.546875-1.257812-.996094-2.5-2.96875-1.511718-71.230468 35.621094-115.996094 116.394531-96.296875 204.851562 13.496094 60.59375 74.921875 122.019532 135.515625 135.515625 86.839844 19.339844 166.382813-23.40625 202.863282-92.425781 1.507812-2.847656-1.382813-6.011719-4.375-4.808594-21.089844 8.472656-44.128907 13.121094-68.265626 13.0625zm0 0" fill="url(#d)"/><path d="m249.234375 266.046875c-9.609375 0-18.546875 2.875-26.007813 7.800781-.199218-.195312-11.144531-11.148437-11.910156-11.890625-8.449218-8.78125-18.660156-15.847656-30.058594-20.652343 22.144532 51.769531 75.113282 99.210937 127.464844 110.871093 17.261719 3.84375 34.234375 5.226563 50.636719 4.449219l-75.550781-75.554688c-8.640625-9.238281-20.929688-15.023437-34.574219-15.023437zm0 0" fill="url(#e)"/><path d="m296.566406 324.601562c-.453125 0-.90625.007813-1.355468.015626.878906-3.601563 1.355468-7.363282 1.355468-11.238282 0-26.140625-21.191406-47.332031-47.332031-47.332031-10.28125 0-19.792969 3.292969-27.554687 8.859375-16.164063-24.492188-43.921876-40.660156-75.464844-40.660156-49.902344 0-90.355469 40.453125-90.355469 90.355468 0 .304688.007813.609376.011719.914063-31.703125 5.277344-55.871094 32.824219-55.871094 66.023437 0 36.964844 29.96875 66.933594 66.9375 66.933594h229.628906c36.96875 0 66.933594-29.96875 66.933594-66.933594 0-36.96875-29.96875-66.9375-66.933594-66.9375zm0 0" fill="url(#f)"/><path d="m363.5 391.539062c0 36.96875-29.96875 66.933594-66.933594 66.933594-36.96875 0-66.9375-29.964844-66.9375-66.933594s29.96875-66.9375 66.9375-66.9375c36.964844 0 66.933594 29.96875 66.933594 66.9375zm0 0" fill="url(#h)"/><path d="m296.566406 313.378906c0 26.140625-21.191406 47.332032-47.332031 47.332032s-47.332031-21.191407-47.332031-47.332032 21.191406-47.332031 47.332031-47.332031 47.332031 21.191406 47.332031 47.332031zm0 0" fill="url(#i)"/><path d="m133.871094 391.539062c0 36.96875-29.964844 66.9375-66.933594 66.9375s-66.9375-29.96875-66.9375-66.9375 29.96875-66.9375 66.9375-66.9375 66.933594 29.96875 66.933594 66.9375zm0 0" fill="url(#j)"/><path d="m.621094 400.65625c4.445312 32.652344 32.4375 57.816406 66.316406 57.816406h229.628906c33.875 0 61.867188-25.164062 66.316406-57.816406zm0 0" fill="url(#k)"/><path d="m190.328125 458.472656-3.492187-3.492187c-4.957032-5.355469-12.042969-8.710938-19.917969-8.710938-.09375 0-.183594.007813-.277344.007813-.054687-.050782-.105469-.101563-.160156-.15625l-17.914063-17.914063c-7.792968-8.160156-18.769531-13.25-30.945312-13.25-23.632813 0-42.792969 19.160157-42.792969 42.796875 0 .117188.007813.230469.007813.347656-.511719.105469-1.011719.230469-1.507813.371094zm0 0" fill="url(#l)"/><path d="m512 256c0 9.539062-.542969 18.953125-1.554688 28.230469l-147.027343-147.023438-.117188-.03125c-5.535156-4.96875-9.007812-12.175781-9.007812-20.1875 0-15 12.167969-27.167969 27.167969-27.167969 2.699218 0 5.308593.402344 7.769531 1.136719 3.792969-15.300781 15.84375-27.359375 31.144531-31.195312 25.957031 21.757812 47.542969 48.582031 63.214844 78.941406 18.160156 35.136719 28.410156 75.023437 28.410156 117.296875zm0 0" fill="url(#m)"/><path d="m473.609375 101.667969c.003906-.117188.011719-.234375.011719-.351563 0-23.652344-19.175782-42.828125-42.832032-42.828125-20.078124 0-36.925781 13.820313-41.558593 32.46875-2.460938-.734375-5.070313-1.132812-7.769531-1.132812-15 0-27.164063 12.160156-27.164063 27.160156s12.160156 27.160156 27.164063 27.160156h87.847656c11.851562 0 21.457031-9.605469 21.457031-21.453125 0-10.375-7.367187-19.03125-17.15625-21.023437zm0 0" fill="url(#n)"/><path d="m296.566406 324.601562c-.453125 0-.90625.007813-1.355468.015626.878906-3.601563 1.355468-7.363282 1.355468-11.238282 0-26.140625-21.191406-47.332031-47.332031-47.332031-10.28125 0-19.792969 3.292969-27.554687 8.859375-16.164063-24.492188-43.921876-40.660156-75.464844-40.660156-49.902344 0-90.355469 40.453125-90.355469 90.355468 0 .304688.007813.609376.011719.914063-31.703125 5.277344-55.871094 32.824219-55.871094 66.023437 0 36.964844 29.96875 66.933594 66.9375 66.933594h229.628906c36.96875 0 66.933594-29.96875 66.933594-66.933594 0-36.96875-29.96875-66.9375-66.933594-66.9375zm0 0" fill="url(#o)"/></svg>