<svg height="511pt" viewBox="0 0 511.89962 511" width="511pt" xmlns="http://www.w3.org/2000/svg" xmlns:xlink="http://www.w3.org/1999/xlink"><radialGradient id="a" cx="154.78" cy="242.0095" gradientTransform="matrix(.983347 .201246 -.201246 .983347 56.470445 -45.630095)" gradientUnits="userSpaceOnUse" r="277.093"><stop offset="0" stop-color="#3b395f"/><stop offset=".3929" stop-color="#3d3a5f"/><stop offset=".5344" stop-color="#443b5d"/><stop offset=".6353" stop-color="#4f3f5b"/><stop offset=".7169" stop-color="#604358"/><stop offset=".7868" stop-color="#764954"/><stop offset=".8487" stop-color="#92504f"/><stop offset=".9046" stop-color="#b25949"/><stop offset=".9544" stop-color="#d66342"/><stop offset="1" stop-color="#ff6e3a"/></radialGradient><linearGradient id="b"><stop offset="0" stop-color="#ff0084" stop-opacity="0"/><stop offset=".0737" stop-color="#f4087e" stop-opacity=".07451"/><stop offset=".3347" stop-color="#d2216b" stop-opacity=".333333"/><stop offset=".583" stop-color="#ba335e" stop-opacity=".584314"/><stop offset=".8111" stop-color="#ab3d56" stop-opacity=".811765"/><stop offset="1" stop-color="#a64153"/></linearGradient><linearGradient id="c" gradientUnits="userSpaceOnUse" x1="523.5272595942" x2="272.7258894889" xlink:href="#b" y1="480.0121028435" y2="229.2108331105"/><radialGradient id="d" cx="300.7054710923" cy="256.3987783838" gradientUnits="userSpaceOnUse" r="275.65244749"><stop offset="0" stop-color="#ffd459"/><stop offset=".2794" stop-color="#ffd55b" stop-opacity=".721569"/><stop offset=".4354" stop-color="#ffd763" stop-opacity=".564706"/><stop offset=".5609" stop-color="#ffda71" stop-opacity=".439216"/><stop offset=".6702" stop-color="#ffdf85" stop-opacity=".329412"/><stop offset=".7691" stop-color="#ffe69e" stop-opacity=".231373"/><stop offset=".8603" stop-color="#ffeebe" stop-opacity=".141176"/><stop offset=".944" stop-color="#fff8e2" stop-opacity=".054902"/><stop offset="1" stop-color="#fff" stop-opacity="0"/></radialGradient><radialGradient id="e" cx="299.1099530115" cy="257.2136007152" gradientUnits="userSpaceOnUse" r="185.6900598399"><stop offset="0" stop-color="#ffb400"/><stop offset=".3726" stop-color="#ffb502" stop-opacity=".627451"/><stop offset=".5069" stop-color="#ffb709" stop-opacity=".494118"/><stop offset=".6026" stop-color="#ffba14" stop-opacity=".396078"/><stop offset=".68" stop-color="#ffbf25" stop-opacity=".321569"/><stop offset=".7463" stop-color="#ffc53b" stop-opacity=".254902"/><stop offset=".805" stop-color="#ffcd57" stop-opacity=".196078"/><stop offset=".8581" stop-color="#ffd777" stop-opacity=".141176"/><stop offset=".9069" stop-color="#ffe29d" stop-opacity=".094118"/><stop offset=".9523" stop-color="#ffefc8" stop-opacity=".047059"/><stop offset=".9926" stop-color="#fffcf6" stop-opacity=".007843"/><stop offset="1" stop-color="#fff" stop-opacity="0"/></radialGradient><radialGradient id="f" cx="260.9064489301" cy="199.4174236738" gradientUnits="userSpaceOnUse" r="193.6400478614"><stop offset="0" stop-color="#ffd459"/><stop offset=".2296" stop-color="#ffd355"/><stop offset=".4362" stop-color="#ffcf4a"/><stop offset=".634" stop-color="#ffc838"/><stop offset=".825" stop-color="#ffbf1f"/><stop offset="1" stop-color="#ffb400"/></radialGradient><linearGradient id="g" gradientUnits="userSpaceOnUse" x1="476.2398616182" x2="110.0375474062" xlink:href="#b" y1="266.8151145609" y2="271.9586930744"/><radialGradient id="h" cx="206.9580440092" cy="252.6648284515" gradientUnits="userSpaceOnUse" r="188.5131311497"><stop offset="0" stop-color="#ffd459"/><stop offset=".1727" stop-color="#ffd55d" stop-opacity=".827451"/><stop offset=".3282" stop-color="#ffd868" stop-opacity=".670588"/><stop offset=".4769" stop-color="#ffdd7a" stop-opacity=".521569"/><stop offset=".6216" stop-color="#ffe394" stop-opacity=".376471"/><stop offset=".7634" stop-color="#ffecb5" stop-opacity=".235294"/><stop offset=".901" stop-color="#fff6dd" stop-opacity=".098039"/><stop offset="1" stop-color="#fff" stop-opacity="0"/></radialGradient><linearGradient id="i"><stop offset="0" stop-color="#ffebc9"/><stop offset=".2771" stop-color="#ffe9c5"/><stop offset=".5263" stop-color="#fee2bb"/><stop offset=".7641" stop-color="#fdd7a8"/><stop offset=".9948" stop-color="#fbc78f"/><stop offset="1" stop-color="#fbc78e"/></linearGradient><radialGradient id="j" cx="138.2221896185" cy="179.9590488512" gradientUnits="userSpaceOnUse" r="254.0427931615" xlink:href="#i"/><linearGradient id="k" gradientUnits="userSpaceOnUse" x1="22.1530671107" x2="212.860537483" y1="51.7890418554" y2="284.6528782277"><stop offset="0" stop-color="#fff"/><stop offset=".4417" stop-color="#ffebc9"/><stop offset=".5964" stop-color="#ffe9c5"/><stop offset=".7356" stop-color="#fee2bb"/><stop offset=".8683" stop-color="#fdd7a8"/><stop offset=".9971" stop-color="#fbc78f"/><stop offset="1" stop-color="#fbc78e"/></linearGradient><radialGradient id="l" cx="-1900.6285" cy="-7217.0698" gradientTransform="matrix(-1.003723 0 0 -1.003723 -1813.341559 -7029.574335)" gradientUnits="userSpaceOnUse" r="74.7843"><stop offset="0" stop-color="#ffebc9"/><stop offset=".3433" stop-color="#ffe9c6"/><stop offset=".567" stop-color="#fee4be"/><stop offset=".7566" stop-color="#fddbaf"/><stop offset=".9261" stop-color="#fcce9a"/><stop offset="1" stop-color="#fbc78e"/></radialGradient><radialGradient id="m" cx="-1948.8953" cy="-7146.4438" gradientTransform="matrix(-1.003723 0 0 -1.003723 -1813.341559 -7029.574335)" gradientUnits="userSpaceOnUse" r="50.4908" xlink:href="#i"/><radialGradient id="n" cx="-1956.026" cy="-7193.1523" gradientTransform="matrix(-1.003723 0 0 -1.003723 -1813.341559 -7029.574335)" gradientUnits="userSpaceOnUse" r="31.7619" xlink:href="#i"/><path d="m511.898438 256.398438c0 141.359374-114.589844 255.949218-255.949219 255.949218-141.355469 0-255.949219-114.589844-255.949219-255.949218 0-141.355469 114.59375-255.949219 255.949219-255.949219 141.359375 0 255.949219 114.59375 255.949219 255.949219zm0 0" fill="url(#a)"/><path d="m511.898438 256.398438c0 133.925781-102.871094 243.835937-233.90625 255.007812-5.25-.441406-10.457032-1.046875-15.628907-1.808594l-140.742187-142.398437c-4.277344-.882813-7.257813-4.886719-7.257813-9.082031 0-2.25.855469-4.546876 2.820313-6.457032 13.5-13.058594 17.828125-30.671875 14.617187-46.722656-1.246093-1.265625-2.039062-2.839844-2.378906-4.515625-.101563-.03125-.203125-.0625-.304687-.082031l-34.777344-35c-.101563-.027344-.199219-.058594-.300782-.078125-4.605468-1.15625-6.914062-5.007813-6.914062-8.863281 0-3.855469 2.308594-7.707032 6.914062-8.863282 24.511719-6.132812 38.773438-27.722656 38.773438-49.84375 0-13.019531-4.9375-26.21875-15.625-36.554687-6.144531-5.945313-1.445312-15.730469 6.199219-15.730469.855469 0 1.75.121094 2.660156.382812 33.757813 9.644532 65.285156-16.433593 65.285156-48.953124 0-4.664063-.644531-9.464844-2.03125-14.300782-1.855469-6.496094 3.34375-11.683594 8.886719-11.683594 2.246094 0 4.554688.851563 6.460938 2.828126 10.339843 10.6875 23.539062 15.617187 36.554687 15.617187 22.113281 0 43.714844-14.25 49.847656-38.773437 1.152344-4.605469 5.007813-6.914063 8.863281-6.914063 3.851563 0 7.707032 2.308594 8.859376 6.914063.023437.101562.050781.199218.082031.300781l35 34.78125c.019531.097656.050781.199219.082031.300781 1.664062.339844 3.25 1.132812 4.503906 2.378906 16.058594 3.210938 33.675782-1.113281 46.734375-14.605468 5.46875-5.660157 14.183594-2.136719 15.535157 4.425781l82.296874 81.601562c12.175782 29.835938 18.890626 62.476563 18.890626 96.691407zm0 0" fill="url(#c)"/><path d="m307.972656 50.527344c9.746094 38.9375 58.488282 52 86.398438 23.148437 6.609375-6.832031 17.960937-.277343 15.347656 8.863281-11.027344 38.59375 24.65625 74.277344 63.253906 63.25 9.136719-2.613281 15.691406 8.738282 8.859375 15.347657-28.851562 27.910156-15.789062 76.65625 23.152344 86.402343 9.222656 2.308594 9.222656 15.410157 0 17.71875-38.941406 9.746094-52.003906 58.492188-23.152344 86.402344 6.832031 6.609375.277344 17.960938-8.859375 15.347656-38.597656-11.027343-74.28125 24.65625-63.253906 63.25 2.613281 9.140626-8.738281 15.695313-15.347656 8.863282-27.910156-28.851563-76.652344-15.789063-86.398438 23.148437-2.308594 9.222657-15.414062 9.222657-17.722656 0-9.746094-38.9375-58.492188-52-86.402344-23.148437-6.609375 6.832031-17.960937.277344-15.347656-8.863282 11.027344-38.59375-24.65625-74.277343-63.25-63.25-9.140625 2.613282-15.695312-8.738281-8.859375-15.347656 28.847656-27.910156 15.785156-76.65625-23.152344-86.402344-9.222656-2.308593-9.222656-15.410156 0-17.71875 38.9375-9.746093 52-58.492187 23.152344-86.402343-6.835937-6.609375-.28125-17.960938 8.859375-15.347657 38.59375 11.027344 74.277344-24.65625 63.25-63.25-2.613281-9.140624 8.738281-15.695312 15.347656-8.863281 27.910156 28.851563 76.65625 15.789063 86.402344-23.148437 2.308594-9.222656 15.414062-9.222656 17.722656 0zm0 0" fill="#fff"/><path d="m307.972656 50.527344c9.746094 38.9375 58.488282 52 86.398438 23.148437 6.609375-6.832031 17.960937-.277343 15.347656 8.863281-11.027344 38.59375 24.65625 74.277344 63.253906 63.25 9.136719-2.613281 15.691406 8.738282 8.859375 15.347657-28.851562 27.910156-15.789062 76.65625 23.152344 86.402343 9.222656 2.308594 9.222656 15.410157 0 17.71875-38.941406 9.746094-52.003906 58.492188-23.152344 86.402344 6.832031 6.609375.277344 17.960938-8.859375 15.347656-38.597656-11.027343-74.28125 24.65625-63.253906 63.25 2.613281 9.140626-8.738281 15.695313-15.347656 8.863282-27.910156-28.851563-76.652344-15.789063-86.398438 23.148437-2.308594 9.222657-15.414062 9.222657-17.722656 0-9.746094-38.9375-58.492188-52-86.402344-23.148437-6.609375 6.832031-17.960937.277344-15.347656-8.863282 11.027344-38.59375-24.65625-74.277343-63.25-63.25-9.140625 2.613282-15.695312-8.738281-8.859375-15.347656 28.847656-27.910156 15.785156-76.65625-23.152344-86.402344-9.222656-2.308593-9.222656-15.410156 0-17.71875 38.9375-9.746093 52-58.492187 23.152344-86.402343-6.835937-6.609375-.28125-17.960938 8.859375-15.347657 38.59375 11.027344 74.277344-24.65625 63.25-63.25-2.613281-9.140624 8.738281-15.695312 15.347656-8.863281 27.910156 28.851563 76.65625 15.789063 86.402344-23.148437 2.308594-9.222656 15.414062-9.222656 17.722656 0zm0 0" fill="url(#d)"/><path d="m472.640625 256.398438c0 95.839843-77.691406 173.53125-173.53125 173.53125-95.835937 0-173.527344-77.691407-173.527344-173.53125 0-95.835938 77.691407-173.527344 173.527344-173.527344 95.839844 0 173.53125 77.691406 173.53125 173.527344zm0 0" fill="url(#e)"/><path d="m442.671875 256.398438c0 79.285156-64.273437 143.5625-143.5625 143.5625-79.285156 0-143.558594-64.277344-143.558594-143.5625 0-79.285157 64.273438-143.558594 143.558594-143.558594 79.289063 0 143.5625 64.273437 143.5625 143.558594zm0 0" fill="url(#f)"/><path d="m323.816406 123.886719c-16.554687-17.136719-36.335937-31.132813-58.355468-41.03125-19.054688 10.476562-44.328126 8.6875-61.613282-9.179688-6.609375-6.832031-17.960937-.277343-15.347656 8.863281 11.027344 38.59375-24.65625 74.277344-63.25 63.25-9.140625-2.613281-15.695312 8.738282-8.863281 15.347657 28.851562 27.910156 15.789062 76.65625-23.148438 86.402343-9.222656 2.308594-9.222656 15.410157 0 17.71875 38.9375 9.746094 52 58.492188 23.148438 86.402344-6.832031 6.609375-.277344 17.960938 8.863281 15.347656 38.59375-11.027343 74.277344 24.65625 63.25 63.25-2.613281 9.140626 8.738281 15.695313 15.347656 8.863282 27.910156-28.851563 76.65625-15.789063 86.402344 23.148437 2.308594 9.222657 15.410156 9.222657 17.71875 0 9.746094-38.9375 58.492188-52 86.402344-23.148437 6.609375 6.832031 17.960937.277344 15.347656-8.863282-11.027344-38.59375 24.65625-74.277343 63.25-63.25 9.140625 2.613282 15.695312-8.738281 8.863281-15.347656-21.253906-20.5625-19.757812-52.429687-1.929687-71.683594zm0 0" fill="url(#g)"/><path d="m417.550781 254.710938c0 126.589843-102.617187 229.222656-229.207031 229.222656-77.960938 0-146.835938-38.925782-188.238281-98.40625v-261.628906c41.402343-59.472657 110.277343-98.394532 188.238281-98.394532 126.585938 0 229.207031 102.621094 229.207031 229.207032zm0 0" fill="url(#h)"/><path d="m376.683594 254.714844c0 104.019531-84.324219 188.34375-188.339844 188.34375-104.019531 0-188.34375-84.324219-188.34375-188.34375 0-104.019532 84.324219-188.34375 188.34375-188.34375 104.015625 0 188.339844 84.324218 188.339844 188.34375zm0 0" fill="url(#j)"/><path d="m358.789062 254.714844c0 94.136718-76.3125 170.449218-170.445312 170.449218-94.136719 0-170.449219-76.3125-170.449219-170.449218 0-94.136719 76.3125-170.449219 170.449219-170.449219 94.132812 0 170.445312 76.3125 170.445312 170.449219zm0 0" fill="url(#k)"/><path d="m121.5625 198.882812c0 24.585938-19.933594 44.519532-44.523438 44.519532-24.585937 0-44.519531-19.933594-44.519531-44.519532 0-24.589843 19.933594-44.519531 44.519531-44.519531 24.589844 0 44.523438 19.929688 44.523438 44.519531zm0 0" fill="url(#l)"/><path d="m158.054688 128.816406c0 15.316406-12.417969 27.734375-27.734376 27.734375-15.316406 0-27.734374-12.417969-27.734374-27.734375s12.417968-27.734375 27.734374-27.734375c15.316407 0 27.734376 12.417969 27.734376 27.734375zm0 0" fill="url(#m)"/><path d="m163.894531 182.824219c0 10.480469-8.496093 18.976562-18.976562 18.976562s-18.976563-8.496093-18.976563-18.976562 8.496094-18.976563 18.976563-18.976563 18.976562 8.496094 18.976562 18.976563zm0 0" fill="url(#n)"/></svg>