<svg height="512pt" viewBox="0 0 512.00202 512" width="512pt" xmlns="http://www.w3.org/2000/svg" xmlns:xlink="http://www.w3.org/1999/xlink"><radialGradient id="a" cx="205.8051133922" cy="185.72658" gradientUnits="userSpaceOnUse" r="309.7956719388"><stop offset="0" stop-color="#ecf7ff"/><stop offset=".5353" stop-color="#eaf6ff"/><stop offset=".7282" stop-color="#e3f2ff"/><stop offset=".8651" stop-color="#d8ecff"/><stop offset=".9756" stop-color="#c7e3ff"/><stop offset="1" stop-color="#c2e0ff"/></radialGradient><linearGradient id="b"><stop offset=".0029" stop-color="#c2e0ff" stop-opacity="0"/><stop offset=".6417" stop-color="#a8bfee" stop-opacity=".639216"/><stop offset="1" stop-color="#9eb2e7"/></linearGradient><linearGradient id="c" gradientUnits="userSpaceOnUse" x1="116.2886012026" x2="54.3823534258" xlink:href="#b" y1="167.4886302026" y2="105.5823824258"/><linearGradient id="d" gradientUnits="userSpaceOnUse" x1="299.422245383" x2="174.9357165986" xlink:href="#b" y1="453.0085646516" y2="257.2435738672"/><linearGradient id="e" gradientUnits="userSpaceOnUse" x1="405.7754330424" x2="320.0610746434" xlink:href="#b" y1="493.991873242" y2="408.277514843"/><linearGradient id="f" gradientUnits="userSpaceOnUse" x1="518.1420130896" x2="373.5770443052" xlink:href="#b" y1="229.4040136696" y2="57.7331508852"/><linearGradient id="g"><stop offset="0" stop-color="#cfced3"/><stop offset=".8111" stop-color="#a5abbd"/><stop offset="1" stop-color="#9aa2b7"/></linearGradient><radialGradient id="h" cx="59.5394003476" cy="44.2322070448" gradientUnits="userSpaceOnUse" r="112.5231918792" xlink:href="#g"/><radialGradient id="i" cx="408.4865244034" cy="64.270088596" gradientUnits="userSpaceOnUse" r="119.1049045112" xlink:href="#g"/><radialGradient id="j" cx="169.3148577128" cy="55.245331777" gradientUnits="userSpaceOnUse" r="388.4870939868" xlink:href="#g"/><linearGradient id="k"><stop offset=".0018" stop-color="#9aa2b7" stop-opacity="0"/><stop offset=".3682" stop-color="#848a9c" stop-opacity=".368627"/><stop offset="1" stop-color="#606572"/></linearGradient><linearGradient id="l" gradientUnits="userSpaceOnUse" x1="416.6624651714" x2="472.660029625" xlink:href="#k" y1="314.6077773394" y2="145.6658757276"/><linearGradient id="m" gradientUnits="userSpaceOnUse" x1="352.6018007826" x2="424.5975650516" xlink:href="#k" y1="199.0321606192" y2="92.2871422032"/><linearGradient id="n" gradientUnits="userSpaceOnUse" x1="205.9476703162" x2="205.9476703162" xlink:href="#k" y1="178.699126" y2="-38.1572620824"/><linearGradient id="o" gradientUnits="userSpaceOnUse" x1="95.9462301088" x2="-17.7050689218" xlink:href="#k" y1="312.9895554676" y2="205.5798402954"/><linearGradient id="p" gradientUnits="userSpaceOnUse" x1="256.001113" x2="256.001113" xlink:href="#k" y1="337.3658859418" y2="468.633807444"/><linearGradient id="q" gradientUnits="userSpaceOnUse" x1="409.2195882478" x2="271.8266382314" xlink:href="#k" y1="465.6404132166" y2="328.2474632002"/><radialGradient id="r" cx="301.604771811" cy="338.5494095876" gradientUnits="userSpaceOnUse" r="163.8705896288" xlink:href="#g"/><path d="m512 256c0 141.386719-114.613281 256-256 256-141.382812 0-256-114.613281-256-256 0-141.382812 114.617188-256 256-256 141.386719 0 256 114.617188 256 256zm0 0" fill="url(#a)"/><path d="m33.632812 129.757812 52.707032 52.707032 37.144531-52.707032zm0 0" fill="url(#c)"/><path d="m128.902344 478.265625c37.449218 21.460937 80.839844 33.734375 127.097656 33.734375 94.128906 0 176.378906-50.808594 220.855469-126.492188h-440.714844zm0 0" fill="url(#d)"/><path d="m449.523438 423.554688-22.949219-22.949219c-6.976563-7.441407-16.886719-12.097657-27.890625-12.097657-.121094 0-.242188.011719-.363282.011719l-3.019531-3.011719h-123.199219c-2.023437 6.023438-3.132812 12.46875-3.132812 19.175782 0 .164062.011719.328125.011719.492187-13.773438 2.804688-24.140625 14.988281-24.140625 29.589844 0 8.789063 3.753906 16.695313 9.746094 22.214844l50.34375 50.339843c57.324218-11.097656 107.820312-41.320312 144.59375-83.765624zm0 0" fill="url(#e)"/><path d="m440.988281 91.144531c-17.527343 0-31.734375 14.203125-31.734375 31.730469 0 .085938.007813.171875.007813.257812-7.253907 1.476563-12.707031 7.890626-12.707031 15.578126 0 4.957031 2.269531 9.382812 5.824218 12.296874l109.113282 109.113282c.144531.171875.304687.332031.449218.496094.027344-1.539063.0625-3.074219.0625-4.617188 0-61.445312-21.660156-117.828125-57.742187-161.949219-4.042969-1.863281-8.535157-2.90625-13.273438-2.90625zm0 0" fill="url(#f)"/><path d="m137.6875 90.21875c0-.117188.007812-.230469.007812-.351562 0-23.652344-19.171874-42.828126-42.828124-42.828126-20.078126 0-36.925782 13.824219-41.558594 32.46875-2.464844-.730468-5.070313-1.132812-7.773438-1.132812-15 0-27.160156 12.160156-27.160156 27.160156s12.160156 27.164063 27.160156 27.164063h87.851563c11.847656 0 21.453125-9.609375 21.453125-21.457031 0-10.375-7.363282-19.03125-17.152344-21.023438zm0 0" fill="url(#h)"/><path d="m409.257812 123.136719c0-.089844-.003906-.175781-.003906-.261719 0-17.523438 14.207032-31.730469 31.730469-31.730469 14.878906 0 27.359375 10.242188 30.792969 24.054688 1.824218-.542969 3.757812-.839844 5.757812-.839844 11.113282 0 20.125 9.011719 20.125 20.125s-9.011718 20.125-20.125 20.125c-6.429687 0-60.550781 0-65.089844 0-8.777343 0-15.894531-7.117187-15.894531-15.898437 0-7.6875 5.457031-14.101563 12.707031-15.574219zm0 0" fill="url(#i)"/><path d="m417.71875 217.136719c-.636719 0-1.273438.011719-1.90625.023437 1.238281-5.078125 1.90625-10.375 1.90625-15.832031 0-36.820313-29.84375-66.667969-66.664062-66.667969-14.484376 0-27.878907 4.632813-38.8125 12.476563-22.765626-34.5-61.867188-57.269531-106.292969-57.269531-70.289063 0-127.269531 56.980468-127.269531 127.265624 0 .433594.015624.859376.019531 1.292969-44.65625 7.429688-78.699219 46.230469-78.699219 92.992188 0 52.070312 42.210938 94.28125 94.28125 94.28125h323.4375c52.070312 0 94.28125-42.210938 94.28125-94.28125 0-52.070313-42.210938-94.28125-94.28125-94.28125zm0 0" fill="url(#j)"/><path d="m512.003906 311.417969c0 52.070312-42.214844 94.28125-94.28125 94.28125-52.070312 0-94.285156-42.210938-94.285156-94.28125 0-52.070313 42.214844-94.28125 94.285156-94.28125 52.066406 0 94.28125 42.210937 94.28125 94.28125zm0 0" fill="url(#l)"/><path d="m417.722656 201.328125c0 36.820313-29.851562 66.667969-66.667968 66.667969-36.820313 0-66.667969-29.847656-66.667969-66.667969s29.847656-66.667969 66.667969-66.667969c36.816406 0 66.667968 29.847656 66.667968 66.667969zm0 0" fill="url(#m)"/><path d="m333.214844 217.136719c0 70.285156-56.980469 127.265625-127.265625 127.265625-70.289063 0-127.269531-56.980469-127.269531-127.265625 0-70.289063 56.980468-127.269531 127.269531-127.269531 70.285156 0 127.265625 56.980468 127.265625 127.269531zm0 0" fill="url(#n)"/><path d="m188.5625 311.417969c0 52.070312-42.210938 94.28125-94.28125 94.28125s-94.28125-42.210938-94.28125-94.28125c0-52.070313 42.210938-94.28125 94.28125-94.28125s94.28125 42.210937 94.28125 94.28125zm0 0" fill="url(#o)"/><path d="m.875 324.257812c6.265625 45.996094 45.695312 81.441407 93.40625 81.441407h323.4375c47.714844 0 87.144531-35.445313 93.40625-81.441407zm0 0" fill="url(#p)"/><path d="m431.65625 405.699219-4.917969-4.917969c-6.980469-7.546875-16.964843-12.273438-28.054687-12.273438-.132813 0-.257813.011719-.390625.015626-.074219-.074219-.148438-.148438-.226563-.222657l-25.234375-25.234375c-10.972656-11.492187-26.4375-18.664062-43.582031-18.664062-33.292969 0-60.28125 26.988281-60.28125 60.28125 0 .164062.011719.328125.011719.492187-.71875.148438-1.425781.324219-2.125.519531h164.800781zm0 0" fill="url(#q)"/><path d="m268.980469 405.175781c0-.164062-.011719-.328125-.011719-.492187 0-33.292969 26.988281-60.28125 60.28125-60.28125 28.261719 0 51.972656 19.457031 58.492188 45.703125 3.46875-1.035157 7.136718-1.597657 10.9375-1.597657 21.113281 0 38.230468 17.113282 38.230468 38.226563s-17.117187 38.230469-38.230468 38.230469c-12.210938 0-115.023438 0-123.640626 0-16.679687 0-30.199218-13.519532-30.199218-30.199219 0-14.601563 10.367187-26.785156 24.140625-29.589844zm0 0" fill="url(#r)"/></svg>