<svg height="512pt" viewBox="0 0 512 512" width="512pt" xmlns="http://www.w3.org/2000/svg" xmlns:xlink="http://www.w3.org/1999/xlink"><radialGradient id="a" cx="205.8041103922" cy="185.72557" gradientUnits="userSpaceOnUse" r="309.7956719388"><stop offset="0" stop-color="#ecf7ff"/><stop offset=".5353" stop-color="#eaf6ff"/><stop offset=".7282" stop-color="#e3f2ff"/><stop offset=".8651" stop-color="#d8ecff"/><stop offset=".9756" stop-color="#c7e3ff"/><stop offset="1" stop-color="#c2e0ff"/></radialGradient><linearGradient id="b" gradientUnits="userSpaceOnUse" x1="256.00011" x2="256.00011" y1="320.0866755764" y2="545.638634454"><stop offset="0" stop-color="#8be1e2"/><stop offset=".1873" stop-color="#87e1e1"/><stop offset=".3558" stop-color="#7ce2dd"/><stop offset=".5172" stop-color="#6ae2d7"/><stop offset=".6741" stop-color="#50e4ce"/><stop offset=".8278" stop-color="#2fe5c2"/><stop offset=".9772" stop-color="#07e7b4"/><stop offset="1" stop-color="#00e7b2"/></linearGradient><linearGradient id="c"><stop offset=".0029" stop-color="#c2e0ff" stop-opacity="0"/><stop offset=".6417" stop-color="#a8bfee" stop-opacity=".639216"/><stop offset="1" stop-color="#9eb2e7"/></linearGradient><linearGradient id="d" gradientUnits="userSpaceOnUse" x1="515.7390263124" x2="142.094617919" xlink:href="#c" y1="328.5583717656" y2="-45.08613702"/><linearGradient id="e" gradientUnits="userSpaceOnUse" x1="511.8020457972" x2="138.183839768" xlink:href="#c" y1="332.4941475744" y2="-41.1240584548"/><linearGradient id="f" gradientUnits="userSpaceOnUse" x1="523.4493480568" x2="149.7388815958" xlink:href="#c" y1="320.852969239" y2="-52.857497222"/><linearGradient id="g" gradientUnits="userSpaceOnUse" x1="519.6269150418" x2="145.8843230768" xlink:href="#c" y1="324.6771089214" y2="-49.0655834358"/><linearGradient id="h" gradientUnits="userSpaceOnUse" x1="507.8141664366" x2="134.1459650918" xlink:href="#c" y1="336.4842355634" y2="-37.1839657814"/><linearGradient id="i" gradientUnits="userSpaceOnUse" x1="499.7039825596" x2="126.0687098564" xlink:href="#c" y1="344.5938170872" y2="-29.041455616"/><linearGradient id="j" gradientUnits="userSpaceOnUse" x1="503.7814117626" x2="130.0991555098" xlink:href="#c" y1="340.5173918062" y2="-33.1648644466"/><linearGradient id="k" gradientUnits="userSpaceOnUse" x1="495.5849909858" x2="121.869103346" xlink:href="#c" y1="348.713812583" y2="-25.0020750568"/><linearGradient id="l" gradientUnits="userSpaceOnUse" x1="414.4283380746" x2="143.7709668746" xlink:href="#c" y1="429.7558176018" y2="159.0984464018"/><linearGradient id="m" gradientUnits="userSpaceOnUse" x1="443.355547367" x2="69.6903577882" xlink:href="#c" y1="400.9427542408" y2="27.277564662"/><linearGradient id="n" gradientUnits="userSpaceOnUse" x1="419.1112326358" x2="274.1448958358" xlink:href="#c" y1="425.5112353858" y2="280.5448985858"/><linearGradient id="o" gradientUnits="userSpaceOnUse" x1="530.8733512468" x2="157.2075593148" xlink:href="#c" y1="313.4256531064" y2="-60.2400384334"/><linearGradient id="p" gradientUnits="userSpaceOnUse" x1="527.2022092772" x2="153.5510746064" xlink:href="#c" y1="317.094787232" y2="-56.5563474388"/><linearGradient id="q" gradientUnits="userSpaceOnUse" x1="423.4299042954" x2="298.1404386954" xlink:href="#c" y1="420.741200395" y2="295.451734795"/><linearGradient id="r" gradientUnits="userSpaceOnUse" x1="541.215354122" x2="167.545044541" xlink:href="#c" y1="303.0840518" y2="-70.5861573888"/><linearGradient id="s" gradientUnits="userSpaceOnUse" x1="491.4297578278" x2="117.7950874778" xlink:href="#c" y1="352.8689453488" y2="-20.7657250012"/><linearGradient id="t" gradientUnits="userSpaceOnUse" x1="445.9580143676" x2="72.355168345" xlink:href="#c" y1="398.344704497" y2="24.7418584744"/><linearGradient id="u" gradientUnits="userSpaceOnUse" x1="450.4009715708" x2="76.674040789" xlink:href="#c" y1="393.8931135646" y2="20.1660823906"/><linearGradient id="v" gradientUnits="userSpaceOnUse" x1="454.8312793568" x2="81.105854458" xlink:href="#c" y1="389.4631069552" y2="15.7375816642"/><linearGradient id="w" gradientUnits="userSpaceOnUse" x1="441.4926697038" x2="67.8536824892" xlink:href="#c" y1="402.807639748" y2="29.1685521412"/><linearGradient id="x" gradientUnits="userSpaceOnUse" x1="437.018791703" x2="63.5034876788" xlink:href="#c" y1="407.2910550078" y2="33.7757509836"/><linearGradient id="y" gradientUnits="userSpaceOnUse" x1="428.0177274432" x2="54.4008265126" xlink:href="#c" y1="416.2844894604" y2="42.6674881376"/><linearGradient id="z" gradientUnits="userSpaceOnUse" x1="432.5195144756" x2="58.8065382096" xlink:href="#c" y1="411.7749722286" y2="38.0619959626"/><linearGradient id="A" gradientUnits="userSpaceOnUse" x1="487.2372791636" x2="113.5860441006" xlink:href="#c" y1="357.0615244052" y2="-16.58981105"/><linearGradient id="B" gradientUnits="userSpaceOnUse" x1="478.7626716006" x2="105.164343227" xlink:href="#c" y1="365.5376378512" y2="-8.0606905224"/><linearGradient id="C" gradientUnits="userSpaceOnUse" x1="459.2405047808" x2="85.4002312052" xlink:href="#c" y1="385.0475568226" y2="11.2073836392"/><linearGradient id="D" gradientUnits="userSpaceOnUse" x1="483.0123738188" x2="109.3590305196" xlink:href="#c" y1="361.2863293578" y2="-12.3670139414"/><linearGradient id="E" gradientUnits="userSpaceOnUse" x1="473.672987845" x2="99.982599824" xlink:href="#c" y1="370.6241090564" y2="-3.0661785724"/><linearGradient id="F" gradientUnits="userSpaceOnUse" x1="468.0032379578" x2="94.4040060544" xlink:href="#c" y1="376.2984769848" y2="2.6992450814"/><linearGradient id="G" gradientUnits="userSpaceOnUse" x1="463.6323623542" x2="89.8682864584" xlink:href="#c" y1="380.660618467" y2="6.8965425712"/><radialGradient id="H" cx="256.8652899796" cy="258.8282586662" gradientUnits="userSpaceOnUse" r="251.1184388828"><stop offset="0" stop-color="#ffd459"/><stop offset=".2794" stop-color="#ffd55b"/><stop offset=".4354" stop-color="#ffd763"/><stop offset=".5609" stop-color="#ffda71"/><stop offset=".6702" stop-color="#ffdf85"/><stop offset=".7691" stop-color="#ffe69e"/><stop offset=".8603" stop-color="#ffeebe"/><stop offset=".944" stop-color="#fff8e2"/><stop offset="1" stop-color="#fff"/></radialGradient><radialGradient id="I" cx="255.120674328" cy="251.717880709" gradientUnits="userSpaceOnUse" r="193.63647536"><stop offset="0" stop-color="#ffb400"/><stop offset=".3726" stop-color="#ffb502" stop-opacity=".627451"/><stop offset=".5069" stop-color="#ffb709" stop-opacity=".494118"/><stop offset=".6026" stop-color="#ffba14" stop-opacity=".396078"/><stop offset=".68" stop-color="#ffbf25" stop-opacity=".321569"/><stop offset=".7463" stop-color="#ffc53b" stop-opacity=".254902"/><stop offset=".805" stop-color="#ffcd57" stop-opacity=".196078"/><stop offset=".8581" stop-color="#ffd777" stop-opacity=".141176"/><stop offset=".9069" stop-color="#ffe29d" stop-opacity=".094118"/><stop offset=".9523" stop-color="#ffefc8" stop-opacity=".047059"/><stop offset=".9926" stop-color="#fffcf6" stop-opacity=".007843"/><stop offset="1" stop-color="#fff" stop-opacity="0"/></radialGradient><radialGradient id="J" cx="214.2189845962" cy="146.6034324054" gradientUnits="userSpaceOnUse" r="162.6367694908"><stop offset="0" stop-color="#ffd459"/><stop offset=".2296" stop-color="#ffd355"/><stop offset=".4362" stop-color="#ffcf4a"/><stop offset=".634" stop-color="#ffc838"/><stop offset=".825" stop-color="#ffbf1f"/><stop offset="1" stop-color="#ffb400"/></radialGradient><linearGradient id="K" gradientUnits="userSpaceOnUse" x1="242.286033519" x2="163.9724877118" y1="209.074285915" y2="19.3148569268"><stop offset="0" stop-color="#fff" stop-opacity="0"/><stop offset=".9286" stop-color="#fff" stop-opacity=".929412"/><stop offset="1" stop-color="#fff"/></linearGradient><radialGradient id="L" cx="258.2812215684" cy="124.8023626456" gradientUnits="userSpaceOnUse" r="305.4445735986"><stop offset="0" stop-color="#ffd459"/><stop offset=".2456" stop-color="#fdd45a" stop-opacity=".752941"/><stop offset=".3826" stop-color="#f5d55d" stop-opacity=".615686"/><stop offset=".4929" stop-color="#e7d661" stop-opacity=".505882"/><stop offset=".5891" stop-color="#d3d768" stop-opacity=".411765"/><stop offset=".676" stop-color="#bad971" stop-opacity=".32549"/><stop offset=".7563" stop-color="#9adc7c" stop-opacity=".243137"/><stop offset=".8314" stop-color="#75de89" stop-opacity=".168627"/><stop offset=".9026" stop-color="#4ae298" stop-opacity=".098039"/><stop offset=".968" stop-color="#1ae5a9" stop-opacity=".031372"/><stop offset="1" stop-color="#00e7b2" stop-opacity="0"/></radialGradient><linearGradient id="M" gradientUnits="userSpaceOnUse" x1="343.0550054456" x2="181.8039494914" y1="447.7006221752" y2="286.449566221"><stop offset=".0029" stop-color="#00e7b2" stop-opacity="0"/><stop offset=".4308" stop-color="#1bc4b7" stop-opacity=".427451"/><stop offset="1" stop-color="#3b9abe"/></linearGradient><linearGradient id="N" gradientUnits="userSpaceOnUse" x1="255.9888660736" x2="295.9914432622" y1="350.4491921522" y2="350.4491921522"><stop offset="0" stop-color="#ecf7ff"/><stop offset="1" stop-color="#c2e0ff"/></linearGradient><path d="m512 256c0 141.386719-114.613281 256-256 256s-256-114.613281-256-256 114.613281-256 256-256 256 114.613281 256 256zm0 0" fill="url(#a)"/><path d="m.0117188 256.875c.4726562 140.980469 114.8945312 255.125 255.9882812 255.125s255.515625-114.144531 255.988281-255.125zm0 0" fill="url(#b)"/><path d="m504.058594 319.421875c.347656-1.355469.683594-2.714844 1.007812-4.078125-.324218 1.363281-.660156 2.722656-1.007812 4.078125zm0 0" fill="url(#d)"/><path d="m502.398438 325.617188c.371093-1.320313.734374-2.640626 1.085937-3.964844-.351563 1.324218-.714844 2.644531-1.085937 3.964844zm0 0" fill="url(#e)"/><path d="m506.910156 306.933594c.292969-1.460938.582032-2.921875.851563-4.390625-.269531 1.46875-.558594 2.933593-.851563 4.390625zm0 0" fill="url(#f)"/><path d="m505.566406 313.1875c.316406-1.402344.632813-2.804688.929688-4.214844-.296875 1.410156-.609375 2.8125-.929688 4.214844zm0 0" fill="url(#g)"/><path d="m500.582031 331.765625c.398438-1.285156.785157-2.574219 1.160157-3.867187-.375 1.292968-.761719 2.582031-1.160157 3.867187zm0 0" fill="url(#h)"/><path d="m496.496094 343.890625c.449218-1.226563.882812-2.460937 1.3125-3.699219-.429688 1.238282-.863282 2.472656-1.3125 3.699219zm0 0" fill="url(#i)"/><path d="m498.613281 337.859375c.421875-1.253906.835938-2.515625 1.238281-3.78125-.402343 1.265625-.816406 2.527344-1.238281 3.78125zm0 0" fill="url(#j)"/><path d="m494.230469 349.863281c.472656-1.203125.929687-2.414062 1.386719-3.625-.457032 1.210938-.914063 2.421875-1.386719 3.625zm0 0" fill="url(#k)"/><path d="m428.710938 444.945312h.011718c.3125-.289062.617188-.585937.929688-.871093-.316406.289062-.625.582031-.941406.871093zm0 0" fill="url(#l)"/><path d="m27.363281 256.875h484.625c0-.292969.011719-.582031.011719-.875 0-25.34375-3.699219-49.820312-10.5625-72.941406l-125.34375-124.867188c-1.796875-3.109375-5.25-5.117187-8.847656-5.117187-2.453125 0-4.972656.929687-7.0625 3.09375-14.398438 14.878906-33.863282 19.558593-51.53125 15.886719-.886719-1.40625-2.066406-2.484376-3.410156-3.234376l-40.5625-40.5625c-1.84375-3.316406-5.261719-4.972656-8.679688-4.972656-4.214844 0-8.433594 2.519532-9.691406 7.566406-6.707032 26.8125-30.328125 42.398438-54.519532 42.398438-14.226562 0-28.664062-5.390625-39.972656-17.082031-6.503906-6.726563-17.203125-1.589844-17.203125 6.78125 0 .929687.136719 1.90625.421875 2.910156 10.550782 36.914063-17.980468 71.402344-53.535156 71.402344-5.101562 0-10.347656-.710938-15.640625-2.226563-7.109375-2.035156-12.785156 3.660156-12.785156 9.71875 0 2.457032.929687 4.972656 3.09375 7.0625 11.691406 11.308594 17.085937 25.746094 17.085937 39.972656 0 24.195313-15.589844 47.8125-42.402344 54.519532-5.046874 1.261718-7.566406 5.476562-7.566406 9.691406 0 .292969.011719.585938.039063.878906h4.039062zm0 0" fill="url(#m)"/><path d="m434.464844 439.503906c-.457032.449219-.914063.902344-1.378906 1.34375.464843-.441406.921874-.894531 1.378906-1.34375zm0 0" fill="url(#n)"/><path d="m509.101562 294.496094c.25-1.652344.492188-3.308594.710938-4.96875-.21875 1.660156-.460938 3.316406-.710938 4.96875zm0 0" fill="url(#o)"/><path d="m508.089844 300.683594c.269531-1.535156.535156-3.074219.78125-4.621094-.246094 1.546875-.511719 3.085938-.78125 4.621094zm0 0" fill="url(#p)"/><path d="m437.597656 436.414062c.5-.503906.996094-1.011718 1.492188-1.519531-.496094.507813-.992188 1.015625-1.492188 1.519531zm0 0" fill="url(#q)"/><path d="m509.933594 288.535156c1.304687-10.292968 2.003906-20.773437 2.050781-31.414062-.046875 10.636718-.746094 21.121094-2.050781 31.414062zm0 0" fill="url(#r)"/><path d="m491.816406 355.765625c.5-1.179687.980469-2.367187 1.464844-3.554687-.484375 1.1875-.964844 2.375-1.464844 3.554687zm0 0" fill="url(#s)"/><path d="m458.453125 412.664062c.53125-.6875 1.0625-1.371093 1.585937-2.0625-.523437.691407-1.054687 1.375-1.585937 2.0625zm0 0" fill="url(#t)"/><path d="m462.265625 407.617188c.527344-.714844 1.054687-1.429688 1.570313-2.148438-.519532.722656-1.046876 1.433594-1.570313 2.148438zm0 0" fill="url(#u)"/><path d="m465.957031 402.472656c.515625-.742187 1.035157-1.476562 1.546875-2.222656-.511718.746094-1.03125 1.480469-1.546875 2.222656zm0 0" fill="url(#v)"/><path d="m454.519531 417.617188c.53125-.65625 1.066407-1.3125 1.59375-1.972657-.527343.660157-1.0625 1.316407-1.59375 1.972657zm0 0" fill="url(#w)"/><path d="m450.460938 422.472656c.535156-.625 1.066406-1.253906 1.597656-1.882812-.53125.628906-1.0625 1.257812-1.597656 1.882812zm0 0" fill="url(#x)"/><path d="m442 431.871094c.519531-.550782 1.035156-1.105469 1.550781-1.660156-.515625.554687-1.03125 1.113281-1.550781 1.660156zm0 0" fill="url(#y)"/><path d="m446.289062 427.226562c.53125-.589843 1.054688-1.183593 1.582032-1.78125-.523438.59375-1.050782 1.1875-1.582032 1.78125zm0 0" fill="url(#z)"/><path d="m489.261719 361.597656c.523437-1.15625 1.027343-2.320312 1.535156-3.488281-.507813 1.167969-1.011719 2.332031-1.535156 3.488281zm0 0" fill="url(#A)"/><path d="m483.730469 373.039062c.578125-1.117187 1.128906-2.25 1.691406-3.378906-.5625 1.128906-1.113281 2.261719-1.691406 3.378906zm0 0" fill="url(#B)"/><path d="m469.519531 397.234375c.507813-.765625 1.019531-1.527344 1.515625-2.296875-.496094.769531-1.007812 1.53125-1.515625 2.296875zm0 0" fill="url(#C)"/><path d="m486.566406 367.355469c.546875-1.132813 1.074219-2.28125 1.609375-3.425781-.535156 1.144531-1.0625 2.292968-1.609375 3.425781zm0 0" fill="url(#D)"/><path d="m479.414062 381.027344c1.121094-1.996094 2.214844-4.011719 3.285157-6.039063-1.070313 2.03125-2.164063 4.042969-3.285157 6.039063zm0 0" fill="url(#E)"/><path d="m476.257812 386.5c.484376-.8125.976563-1.621094 1.449219-2.441406-.472656.820312-.964843 1.628906-1.449219 2.441406zm0 0" fill="url(#F)"/><path d="m472.953125 391.910156c.496094-.789062 1-1.574218 1.484375-2.371094-.484375.796876-.988281 1.582032-1.484375 2.371094zm0 0" fill="url(#G)"/><path d="m488.714844 256c0 .292969-.011719.585938-.035156.875h-465.359376c-.023437-.289062-.035156-.582031-.035156-.875 0-4.214844 2.519532-8.433594 7.566406-9.691406 26.8125-6.707032 42.398438-30.324219 42.398438-54.519532 0-14.226562-5.390625-28.664062-17.082031-39.972656-2.164063-2.089844-3.09375-4.605468-3.09375-7.0625 0-6.058594 5.675781-11.753906 12.785156-9.71875 5.292969 1.511719 10.539063 2.226563 15.640625 2.226563 35.554688 0 64.082031-34.488281 53.535156-71.402344-.285156-1.003906-.421875-1.980469-.421875-2.914063 0-8.367187 10.695313-13.503906 17.203125-6.777343 11.308594 11.6875 25.746094 17.082031 39.972656 17.082031 24.191407 0 47.8125-15.585938 54.519532-42.398438 1.257812-5.046874 5.472656-7.566406 9.691406-7.566406 4.214844 0 8.429688 2.519532 9.691406 7.566406 10.660156 42.582032 63.964844 56.863282 94.492188 25.316407 2.089844-2.164063 4.605468-3.09375 7.0625-3.09375 6.058594 0 11.753906 5.675781 9.71875 12.78125-1.515625 5.292969-2.226563 10.542969-2.226563 15.644531 0 35.554688 34.488281 64.082031 71.402344 53.53125 1.003906-.28125 1.980469-.417969 2.910156-.417969 8.371094 0 13.507813 10.695313 6.78125 17.203125-11.691406 11.304688-17.082031 25.742188-17.082031 39.972656 0 24.191407 15.585938 47.808594 42.398438 54.515626 5.046874 1.261718 7.566406 5.480468 7.566406 9.695312zm0 0" fill="#fff"/><path d="m488.714844 256c0 .292969-.011719.585938-.035156.875h-465.359376c-.023437-.289062-.035156-.582031-.035156-.875 0-4.214844 2.519532-8.433594 7.566406-9.691406 26.8125-6.707032 42.398438-30.324219 42.398438-54.519532 0-14.226562-5.390625-28.664062-17.082031-39.972656-2.164063-2.089844-3.09375-4.605468-3.09375-7.0625 0-6.058594 5.675781-11.753906 12.785156-9.71875 5.292969 1.511719 10.539063 2.226563 15.640625 2.226563 35.554688 0 64.082031-34.488281 53.535156-71.402344-.285156-1.003906-.421875-1.980469-.421875-2.914063 0-8.367187 10.695313-13.503906 17.203125-6.777343 11.308594 11.6875 25.746094 17.082031 39.972656 17.082031 24.191407 0 47.8125-15.585938 54.519532-42.398438 1.257812-5.046874 5.472656-7.566406 9.691406-7.566406 4.214844 0 8.429688 2.519532 9.691406 7.566406 10.660156 42.582032 63.964844 56.863282 94.492188 25.316407 2.089844-2.164063 4.605468-3.09375 7.0625-3.09375 6.058594 0 11.753906 5.675781 9.71875 12.78125-1.515625 5.292969-2.226563 10.542969-2.226563 15.644531 0 35.554688 34.488281 64.082031 71.402344 53.53125 1.003906-.28125 1.980469-.417969 2.910156-.417969 8.371094 0 13.507813 10.695313 6.78125 17.203125-11.691406 11.304688-17.082031 25.742188-17.082031 39.972656 0 24.191407 15.585938 47.808594 42.398438 54.515626 5.046874 1.261718 7.566406 5.480468 7.566406 9.695312zm0 0" fill="url(#H)"/><path d="m445.777344 256c0 .292969 0 .585938-.011719.875h-379.53125c-.007813-.289062-.007813-.582031-.007813-.875 0-104.8125 84.960938-189.773438 189.773438-189.773438s189.777344 84.960938 189.777344 189.773438zm0 0" fill="url(#I)"/><path d="m413.003906 256v.875h-314.007812v-.875c0-86.707031 70.296875-157.003906 157.003906-157.003906s157.003906 70.296875 157.003906 157.003906zm0 0" fill="url(#J)"/><path d="m398.082031 256v.875h-284.164062v-.875c0-78.472656 63.609375-142.082031 142.082031-142.082031s142.082031 63.609375 142.082031 142.082031zm0 0" fill="url(#K)"/><path d="m488.714844 257.75c0-.289062-.011719-.582031-.035156-.875h-465.359376c-.023437.292969-.035156.585938-.035156.875 0 4.21875 2.519532 8.433594 7.566406 9.695312 26.8125 6.707032 42.398438 30.324219 42.398438 54.515626 0 14.230468-5.390625 28.667968-17.082031 39.972656-2.164063 2.089844-3.09375 4.609375-3.09375 7.066406 0 6.058594 5.675781 11.753906 12.785156 9.71875 5.292969-1.515625 10.539063-2.226562 15.640625-2.226562 35.554688 0 64.082031 34.484374 53.535156 71.402343-.285156 1.003907-.421875 1.980469-.421875 2.910157 0 8.367187 10.695313 13.507812 17.203125 6.78125 11.308594-11.691407 25.746094-17.085938 39.972656-17.085938 24.191407 0 47.8125 15.585938 54.519532 42.398438 1.257812 5.046874 18.121094 5.046874 19.382812 0 10.660156-42.582032 63.964844-56.863282 94.492188-25.3125 2.089844 2.160156 4.605468 3.09375 7.0625 3.09375 6.058594 0 11.753906-5.675782 9.71875-12.785157-1.515625-5.292969-2.226563-10.542969-2.226563-15.644531 0-35.554688 34.488281-64.082031 71.402344-53.53125 1.003906.28125 1.980469.417969 2.910156.417969 8.371094 0 13.507813-10.695313 6.78125-17.199219-11.691406-11.308594-17.082031-25.746094-17.082031-39.972656 0-24.195313 15.585938-47.8125 42.398438-54.519532 5.046874-1.261718 7.566406-5.476562 7.566406-9.695312zm0 0" fill="url(#L)"/><path d="m426.988281 446.515625c-31.121093 27.957031-69.128906 48.398437-111.164062 58.457031l-85.875-85.886718c-3.433594-1.113282-5.761719-4.578126-5.222657-8.371094l3.816407-26.957032c-1.777344-1.214843-13-12.449218-14.234375-14.414062-6.675782-4.175781-9.660156-13.210938-5.3125-20.882812l33.460937-59.128907c5.832031-10.3125 20.480469-10.523437 26.683594-.65625zm0 0" fill="url(#M)"/><path d="m303.003906 348.460938-33.464844-59.132813c-5.957031-10.527344-21.121093-10.527344-27.078124 0l-33.464844 59.132813c-5.871094 10.371093 1.621094 23.21875 13.539062 23.21875h7.722656l-5.535156 39.039062c-.652344 4.621094 2.933594 8.75 7.597656 8.75h47.355469c4.667969 0 8.253907-4.128906 7.597657-8.75l-5.53125-39.039062h7.71875c11.917968 0 19.414062-12.847657 13.542968-23.21875zm0 0" fill="url(#N)"/></svg>