<svg height="512pt" viewBox="0 0 512.001 512" width="512pt" xmlns="http://www.w3.org/2000/svg" xmlns:xlink="http://www.w3.org/1999/xlink"><radialGradient id="a" cx="205.8041103922" cy="185.72607" gradientUnits="userSpaceOnUse" r="309.7956719388"><stop offset="0" stop-color="#ecf7ff"/><stop offset=".5353" stop-color="#eaf6ff"/><stop offset=".7282" stop-color="#e3f2ff"/><stop offset=".8651" stop-color="#d8ecff"/><stop offset=".9756" stop-color="#c7e3ff"/><stop offset="1" stop-color="#c2e0ff"/></radialGradient><linearGradient id="b" gradientUnits="userSpaceOnUse" x1="485.5420564744" x2="18.7436253088" y1="496.5722459196" y2="29.773814754"><stop offset=".0029" stop-color="#c2e0ff" stop-opacity="0"/><stop offset=".6417" stop-color="#a8bfee" stop-opacity=".639216"/><stop offset="1" stop-color="#9eb2e7"/></linearGradient><linearGradient id="c"><stop offset="0" stop-color="#ffd459"/><stop offset=".2296" stop-color="#ffd355"/><stop offset=".4362" stop-color="#ffcf4a"/><stop offset=".634" stop-color="#ffc838"/><stop offset=".825" stop-color="#ffbf1f"/><stop offset="1" stop-color="#ffb400"/></linearGradient><linearGradient id="d" gradientUnits="userSpaceOnUse" x1="124.9835705666" x2="212.607087433" xlink:href="#c" y1="323.3019346048" y2="410.9254514712"/><linearGradient id="e" gradientUnits="userSpaceOnUse" x1="288.7428252456" x2="334.7363069692" xlink:href="#c" y1="390.46592268" y2="436.4594044036"/><linearGradient id="f"><stop offset="0" stop-color="#e58200" stop-opacity="0"/><stop offset=".0396" stop-color="#e27f04" stop-opacity=".039216"/><stop offset=".4671" stop-color="#c15d2f" stop-opacity=".466667"/><stop offset=".8016" stop-color="#ad4949" stop-opacity=".8"/><stop offset="1" stop-color="#a64153"/></linearGradient><linearGradient id="g" gradientUnits="userSpaceOnUse" x1="281.9629384108" x2="60.6182158508" xlink:href="#f" y1="372.959028883" y2="151.614306323"/><linearGradient id="h" gradientUnits="userSpaceOnUse" x1="371.7540232674" x2="282.6121747682" xlink:href="#f" y1="406.8404928532" y2="317.6987447462"/><linearGradient id="i"><stop offset="0" stop-color="#cfced3"/><stop offset=".8111" stop-color="#a5abbd"/><stop offset="1" stop-color="#9aa2b7"/></linearGradient><radialGradient id="j" cx="169.3138547128" cy="-34.6223603672" gradientUnits="userSpaceOnUse" r="388.4870939868" xlink:href="#i"/><linearGradient id="k"><stop offset=".0018" stop-color="#9aa2b7" stop-opacity="0"/><stop offset=".3682" stop-color="#848a9c" stop-opacity=".368627"/><stop offset="1" stop-color="#606572"/></linearGradient><linearGradient id="l" gradientUnits="userSpaceOnUse" x1="416.6614621714" x2="472.6588258406" xlink:href="#k" y1="224.7403863718" y2="55.7988863288"/><linearGradient id="m" gradientUnits="userSpaceOnUse" x1="352.6007977826" x2="424.5964616594" xlink:href="#k" y1="109.164468475" y2="2.4196508434"/><linearGradient id="n" gradientUnits="userSpaceOnUse" x1="205.9468681006" x2="205.9468681006" xlink:href="#k" y1="114.447608" y2="-116.4632865136"/><linearGradient id="o" gradientUnits="userSpaceOnUse" x1="95.945327501" x2="-17.7058711374" xlink:href="#k" y1="223.1219637156" y2="115.7123489356"/><linearGradient id="p" gradientUnits="userSpaceOnUse" x1="256.00011" x2="256.00011" xlink:href="#k" y1="247.4982941898" y2="378.7661152998"/><linearGradient id="q" gradientUnits="userSpaceOnUse" x1="409.2188864244" x2="271.8257356236" xlink:href="#k" y1="375.7728214646" y2="238.3795702716"/><radialGradient id="r" cx="301.6033672422" cy="248.6812154824" gradientUnits="userSpaceOnUse" r="163.8710915898" xlink:href="#i"/><path d="m512 256c0 141.386719-114.613281 256-256 256s-256-114.613281-256-256c0-141.382812 114.613281-256 256-256s256 114.617188 256 256zm0 0" fill="url(#a)"/><path d="m256 512c141.382812 0 256-114.613281 256-256 0-34.175781-6.714844-66.777344-18.867188-96.582031l-92.417968-92.417969c-12.207032-13.628906-29.929688-22.207031-49.664063-22.207031-13.554687 0-26.15625 4.058593-36.679687 11.011719-.085938-.082032-.171875-.167969-.257813-.25-1.683593-1.78125-13.828125-13.925782-15.609375-15.609376-18.71875-19.835937-43.734375-33.65625-71.851562-38.261718-44.796875 5.113281-86.078125 21.785156-120.792969 46.964844-17.023437 21.644531-27.179687 48.945312-27.179687 78.621093 0 .429688.011718.859375.015624 1.289063-27.234374 4.53125-50.507812 20.746094-64.53125 43.3125-6.921874 19.902344-11.460937 40.917968-13.265624 62.714844 3.058593 22.09375 13.769531 41.738281 29.371093 56.175781l62.441407 62.441406c1.042968 1.128906 2.113281 2.230469 3.210937 3.308594l-10.511719 13.140625c-4.207031 5.253906-1.761718 12.609375 3.855469 14.894531l31.21875 31.222656c.203125.484375.4375.953125.714844 1.402344l-9.988281 49.960937c41.183593 28.296876 91.046874 44.867188 144.789062 44.867188zm0 0" fill="url(#b)"/><path d="m235.964844 340.25h-22.929688c-6.066406 0-10.617187-5.550781-9.429687-11.5l20.730469-103.691406c1.972656-9.878906-10.644532-15.757813-16.9375-7.890625l-121.988282 152.480469c-5.035156 6.296874-.550781 15.621093 7.511719 15.621093h22.925781c6.070313 0 10.621094 5.550781 9.429688 11.5l-20.726563 103.691407c-1.976562 9.878906 10.644531 15.757812 16.9375 7.890624l121.984375-152.480468c5.035156-6.296875.554688-15.621094-7.507812-15.621094zm0 0" fill="url(#d)"/><path d="m346.996094 399.363281h-12.035156c-3.183594 0-5.570313-2.914062-4.949219-6.039062l10.878906-54.425781c1.035156-5.183594-5.585937-8.269532-8.890625-4.140626l-64.027344 80.035157c-2.644531 3.304687-.292968 8.199219 3.9375 8.199219h12.035156c3.1875 0 5.574219 2.914062 4.953126 6.035156l-10.882813 54.429687c-1.035156 5.183594 5.585937 8.269531 8.890625 4.140625l64.03125-80.039062c2.644531-3.300782.289062-8.195313-3.941406-8.195313zm0 0" fill="url(#e)"/><path d="m235.964844 340.25h-22.929688c-6.066406 0-10.617187-5.550781-9.429687-11.5l20.730469-103.691406c1.972656-9.878906-10.644532-15.757813-16.9375-7.890625l-78.929688 98.660156 81.6875 81.6875 33.316406-41.644531c5.035156-6.296875.554688-15.621094-7.507812-15.621094zm0 0" fill="url(#g)"/><path d="m346.996094 399.363281h-12.035156c-3.183594 0-5.570313-2.914062-4.949219-6.039062l10.878906-54.425781c1.035156-5.183594-5.585937-8.269532-8.890625-4.140626l-32.269531 40.339844 42.875 42.875 8.332031-10.410156c2.644531-3.304688.289062-8.199219-3.941406-8.199219zm0 0" fill="url(#h)"/><path d="m417.71875 127.269531c-.636719 0-1.273438.011719-1.90625.023438 1.234375-5.078125 1.90625-10.375 1.90625-15.832031 0-36.820313-29.847656-66.667969-66.667969-66.667969-14.480469 0-27.875 4.632812-38.808593 12.476562-22.765626-34.5-61.867188-57.269531-106.296876-57.269531-70.285156 0-127.265624 56.980469-127.265624 127.269531 0 .429688.011718.859375.015624 1.289063-44.652343 7.429687-78.695312 46.230468-78.695312 92.992187 0 52.070313 42.210938 94.28125 94.28125 94.28125h323.4375c52.070312 0 94.28125-42.210937 94.28125-94.28125 0-52.070312-42.210938-94.28125-94.28125-94.28125zm0 0" fill="url(#j)"/><path d="m512 221.550781c0 52.066407-42.210938 94.28125-94.28125 94.28125s-94.28125-42.214843-94.28125-94.28125c0-52.070312 42.210938-94.28125 94.28125-94.28125s94.28125 42.210938 94.28125 94.28125zm0 0" fill="url(#l)"/><path d="m417.71875 111.460938c0 36.816406-29.847656 66.664062-66.667969 66.664062-36.816406 0-66.664062-29.847656-66.664062-66.664062 0-36.820313 29.847656-66.667969 66.664062-66.667969 36.820313 0 66.667969 29.847656 66.667969 66.667969zm0 0" fill="url(#m)"/><path d="m333.214844 127.269531c0 70.285157-56.980469 127.265625-127.269532 127.265625-70.285156 0-127.265624-56.980468-127.265624-127.265625 0-70.289062 56.980468-127.269531 127.265624-127.269531 70.289063 0 127.269532 56.980469 127.269532 127.269531zm0 0" fill="url(#n)"/><path d="m188.5625 221.550781c0 52.066407-42.210938 94.28125-94.28125 94.28125s-94.28125-42.214843-94.28125-94.28125c0-52.070312 42.210938-94.28125 94.28125-94.28125s94.28125 42.210938 94.28125 94.28125zm0 0" fill="url(#o)"/><path d="m.875 234.390625c6.265625 45.992187 45.691406 81.441406 93.40625 81.441406h323.4375c47.714844 0 87.144531-35.449219 93.40625-81.441406zm0 0" fill="url(#p)"/><path d="m431.65625 315.832031-4.917969-4.921875c-6.984375-7.542968-16.964843-12.269531-28.058593-12.269531-.128907 0-.257813.011719-.386719.011719-.078125-.074219-.152344-.148438-.226563-.21875l-25.234375-25.234375c-10.972656-11.496094-26.4375-18.664063-43.585937-18.664063-33.292969 0-60.28125 26.988282-60.28125 60.277344 0 .167969.011718.332031.015625.496094-.71875.144531-1.425781.324218-2.125.519531h164.800781zm0 0" fill="url(#q)"/><path d="m268.980469 315.308594c0-.164063-.011719-.328125-.011719-.492188 0-33.292968 26.988281-60.28125 60.28125-60.28125 28.261719 0 51.972656 19.453125 58.492188 45.699219 3.46875-1.03125 7.136718-1.59375 10.9375-1.59375 21.113281 0 38.230468 17.117187 38.230468 38.226563 0 21.113281-17.117187 38.230468-38.230468 38.230468-12.210938 0-115.023438 0-123.640626 0-16.679687 0-30.199218-13.519531-30.199218-30.199218 0-14.605469 10.363281-26.785157 24.140625-29.589844zm0 0" fill="url(#r)"/></svg>