<svg height="512pt" viewBox="0 0 512 512" width="512pt" xmlns="http://www.w3.org/2000/svg" xmlns:xlink="http://www.w3.org/1999/xlink"><radialGradient id="a" cx="184.7214472156" cy="137.5371132156" gradientUnits="userSpaceOnUse" r="380.4785070162"><stop offset="0" stop-color="#ff6e3a"/><stop offset=".2336" stop-color="#ff6b3c"/><stop offset=".418" stop-color="#ff6143"/><stop offset=".5857" stop-color="#ff504e"/><stop offset=".7434" stop-color="#ff395e"/><stop offset=".8928" stop-color="#ff1b72"/><stop offset="1" stop-color="#ff0084"/></radialGradient><linearGradient id="b" gradientUnits="userSpaceOnUse" x1="485.395785039" x2="361.5058870992" y1="485.3968893532" y2="361.5069914134"><stop offset="0" stop-color="#ff0084" stop-opacity="0"/><stop offset=".0737" stop-color="#f4087e" stop-opacity=".07451"/><stop offset=".3347" stop-color="#d2216b" stop-opacity=".333333"/><stop offset=".583" stop-color="#ba335e" stop-opacity=".584314"/><stop offset=".8111" stop-color="#ab3d56" stop-opacity=".811765"/><stop offset="1" stop-color="#a64153"/></linearGradient><radialGradient id="c" cx="313.8874572264" cy="199.6094096912" gradientUnits="userSpaceOnUse" r="258.578683657"><stop offset="0" stop-color="#ffd459"/><stop offset=".2794" stop-color="#ffd55b" stop-opacity=".721569"/><stop offset=".4354" stop-color="#ffd763" stop-opacity=".564706"/><stop offset=".5609" stop-color="#ffda71" stop-opacity=".439216"/><stop offset=".6702" stop-color="#ffdf85" stop-opacity=".329412"/><stop offset=".7691" stop-color="#ffe69e" stop-opacity=".231373"/><stop offset=".8603" stop-color="#ffeebe" stop-opacity=".141176"/><stop offset=".944" stop-color="#fff8e2" stop-opacity=".054902"/><stop offset="1" stop-color="#fff" stop-opacity="0"/></radialGradient><radialGradient id="d" cx="312.3908103088" cy="200.373795902" gradientUnits="userSpaceOnUse" r="174.1880968072"><stop offset="0" stop-color="#ffb400"/><stop offset=".3726" stop-color="#ffb502" stop-opacity=".627451"/><stop offset=".5069" stop-color="#ffb709" stop-opacity=".494118"/><stop offset=".6026" stop-color="#ffba14" stop-opacity=".396078"/><stop offset=".68" stop-color="#ffbf25" stop-opacity=".321569"/><stop offset=".7463" stop-color="#ffc53b" stop-opacity=".254902"/><stop offset=".805" stop-color="#ffcd57" stop-opacity=".196078"/><stop offset=".8581" stop-color="#ffd777" stop-opacity=".141176"/><stop offset=".9069" stop-color="#ffe29d" stop-opacity=".094118"/><stop offset=".9523" stop-color="#ffefc8" stop-opacity=".047059"/><stop offset=".9926" stop-color="#fffcf6" stop-opacity=".007843"/><stop offset="1" stop-color="#fff" stop-opacity="0"/></radialGradient><radialGradient id="e" cx="276.5538066748" cy="146.157490253" gradientUnits="userSpaceOnUse" r="181.6462333452"><stop offset="0" stop-color="#ffd459"/><stop offset=".2296" stop-color="#ffd355"/><stop offset=".4362" stop-color="#ffcf4a"/><stop offset=".634" stop-color="#ffc838"/><stop offset=".825" stop-color="#ffbf1f"/><stop offset="1" stop-color="#ffb400"/></radialGradient><linearGradient id="f" gradientUnits="userSpaceOnUse" x1="326.2398139066" x2="149.2275841212" y1="214.1950912526" y2="27.767478598"><stop offset="0" stop-color="#fff" stop-opacity="0"/><stop offset=".9286" stop-color="#fff" stop-opacity=".929412"/><stop offset="1" stop-color="#fff"/></linearGradient><linearGradient id="g" gradientUnits="userSpaceOnUse" x1="443.5465937236" x2="33.6195407204" y1="478.8901696946" y2="68.9631166914"><stop offset="0" stop-color="#e58200" stop-opacity="0"/><stop offset=".0396" stop-color="#e27f04" stop-opacity=".039216"/><stop offset=".4671" stop-color="#c15d2f" stop-opacity=".466667"/><stop offset=".8016" stop-color="#ad4949" stop-opacity=".8"/><stop offset="1" stop-color="#a64153"/></linearGradient><radialGradient id="h" cx="143.68633625" cy="164.2976580476" gradientUnits="userSpaceOnUse" r="329.6851738184"><stop offset="0" stop-color="#ecf7ff"/><stop offset=".3473" stop-color="#e9f5ff"/><stop offset=".62" stop-color="#dff0ff"/><stop offset=".8666" stop-color="#cee7ff"/><stop offset="1" stop-color="#c2e0ff"/></radialGradient><linearGradient id="i"><stop offset=".0029" stop-color="#c2e0ff" stop-opacity="0"/><stop offset=".0763" stop-color="#bfdcfd" stop-opacity=".07451"/><stop offset="1" stop-color="#9eb2e7"/></linearGradient><linearGradient id="j" gradientUnits="userSpaceOnUse" x1="353.5950821314" x2="401.1166335312" xlink:href="#i" y1="384.4028381142" y2="241.0324361176"/><linearGradient id="k" gradientUnits="userSpaceOnUse" x1="299.230497203" x2="360.328688162" xlink:href="#i" y1="286.3206626362" y2="195.7330660648"/><linearGradient id="l" gradientUnits="userSpaceOnUse" x1="174.7745880396" x2="174.7745880396" xlink:href="#i" y1="296.8002028254" y2="124.689622205"/><linearGradient id="m" gradientUnits="userSpaceOnUse" x1="81.4228930256" x2="-15.0259013584" xlink:href="#i" y1="383.029372426" y2="291.8774712984"/><linearGradient id="n" gradientUnits="userSpaceOnUse" x1="217.2518329582" x2="217.2518329582" xlink:href="#i" y1="403.716189158" y2="515.1150887894"/><linearGradient id="o" gradientUnits="userSpaceOnUse" x1="208.4645036922" x2="91.8671955526" xlink:href="#i" y1="512.5747645606" y2="395.9775568132"/><path d="m512 256c0 141.386719-114.613281 256-256 256s-256-114.613281-256-256 114.613281-256 256-256 256 114.613281 256 256zm0 0" fill="url(#a)"/><path d="m512 256c0 141.382812-114.617188 256-256 256-14.296875 0-28.320312-1.175781-41.972656-3.421875-94.167969-15.542969-171.019532-82.464844-200.753906-171.007813 11.996093-18.121093 31.191406-31.074218 53.507812-34.789062 0-.371094-.011719-.730469-.011719-1.09375 0-39.882812 21.625-74.722656 53.78125-93.425781-.421875-.117188-.851562-.230469-1.285156-.339844-4.316406-1.082031-6.484375-4.699219-6.484375-8.3125s2.167969-7.226563 6.484375-8.3125c23-5.761719 36.371094-26.011719 36.371094-46.761719 0-12.207031-4.625-24.585937-14.644531-34.285156-5.773438-5.582031-1.375-14.757812 5.800781-14.757812.804687 0 1.648437.109374 2.511719.363281 31.664062 9.042969 61.238281-15.429688 61.238281-45.929688 0-4.367187-.613281-8.867187-1.90625-13.402343-1.738281-6.105469 3.128906-10.972657 8.320312-10.972657 2.117188 0 4.277344.800781 6.074219 2.660157 9.699219 10.019531 22.078125 14.644531 34.28125 14.644531 20.753906 0 41.003906-13.371094 46.765625-36.371094.167969-.660156.390625-1.285156.683594-1.847656 5.550781 1.074219 11.042969 2.320312 16.460937 3.746093 24.335938 6.394532 47.253906 16.285157 68.199219 29.09375 8.722656 5.332032 17.09375 11.183594 25.085937 17.5 15.78125 12.445313 30.066407 26.734376 42.515626 42.515626 6.316406 7.988281 12.167968 16.363281 17.5 25.085937 12.808593 20.941406 22.699218 43.863281 29.09375 68.195313 1.425781 5.421874 2.671874 10.914062 3.746093 16.464843 3.039063 15.78125 4.636719 32.085938 4.636719 48.761719zm0 0" fill="url(#b)"/><path d="m320.703125 6.488281c9.140625 36.527344 54.867187 48.78125 81.050781 21.71875 6.199219-6.410156 16.84375-.265625 14.394532 8.308594-10.34375 36.207031 23.128906 69.679687 59.332031 59.332031h.003906c8.574219-2.449218 14.71875 8.199219 8.308594 14.398438-27.0625 26.183594-14.808594 71.90625 21.71875 81.050781 8.652343 2.164063 8.652343 14.457031 0 16.625-36.527344 9.140625-48.78125 54.867187-21.71875 81.050781 6.410156 6.199219.265625 16.847656-8.308594 14.394532h-.003906c-36.203125-10.34375-69.675781 23.128906-59.332031 59.332031 2.449218 8.574219-8.195313 14.722656-14.394532 8.3125-26.183594-27.0625-71.910156-14.808594-81.050781 21.71875-2.164063 8.648437-14.457031 8.648437-16.625 0-9.140625-36.527344-54.867187-48.78125-81.050781-21.71875-6.199219 6.410156-16.847656.261719-14.394532-8.3125 10.34375-36.203125-23.128906-69.675781-59.332031-59.332031h-.003906c-8.574219 2.453124-14.71875-8.195313-8.3125-14.394532 27.0625-26.183594 14.8125-71.910156-21.714844-81.050781-8.652343-2.167969-8.652343-14.460937 0-16.625 36.527344-9.144531 48.777344-54.867187 21.714844-81.050781-6.40625-6.199219-.261719-16.847656 8.3125-14.398438h.003906c36.203125 10.347656 69.675781-23.125 59.332031-59.332031-2.453124-8.574219 8.195313-14.71875 14.394532-8.308594 26.183594 27.0625 71.910156 14.808594 81.050781-21.71875 2.167969-8.652343 14.460937-8.652343 16.625 0zm0 0" fill="#fff"/><path d="m320.703125 6.488281c9.140625 36.527344 54.867187 48.78125 81.050781 21.71875 6.199219-6.410156 16.84375-.265625 14.394532 8.308594-10.34375 36.207031 23.128906 69.679687 59.332031 59.332031h.003906c8.574219-2.449218 14.71875 8.199219 8.308594 14.398438-27.0625 26.183594-14.808594 71.90625 21.71875 81.050781 8.652343 2.164063 8.652343 14.457031 0 16.625-36.527344 9.140625-48.78125 54.867187-21.71875 81.050781 6.410156 6.199219.265625 16.847656-8.308594 14.394532h-.003906c-36.203125-10.34375-69.675781 23.128906-59.332031 59.332031 2.449218 8.574219-8.195313 14.722656-14.394532 8.3125-26.183594-27.0625-71.910156-14.808594-81.050781 21.71875-2.164063 8.648437-14.457031 8.648437-16.625 0-9.140625-36.527344-54.867187-48.78125-81.050781-21.71875-6.199219 6.410156-16.847656.261719-14.394532-8.3125 10.34375-36.203125-23.128906-69.675781-59.332031-59.332031h-.003906c-8.574219 2.453124-14.71875-8.195313-8.3125-14.394532 27.0625-26.183594 14.8125-71.910156-21.714844-81.050781-8.652343-2.167969-8.652343-14.460937 0-16.625 36.527344-9.144531 48.777344-54.867187 21.714844-81.050781-6.40625-6.199219-.261719-16.847656 8.3125-14.398438h.003906c36.203125 10.347656 69.675781-23.125 59.332031-59.332031-2.453124-8.574219 8.195313-14.71875 14.394532-8.308594 26.183594 27.0625 71.910156 14.808594 81.050781-21.71875 2.167969-8.652343 14.460937-8.652343 16.625 0zm0 0" fill="url(#c)"/><path d="m475.171875 199.609375c0 89.902344-72.878906 162.78125-162.78125 162.78125-89.898437 0-162.777344-72.878906-162.777344-162.78125s72.878907-162.78125 162.777344-162.78125c89.902344 0 162.78125 72.878906 162.78125 162.78125zm0 0" fill="url(#d)"/><path d="m447.058594 199.609375c0 74.375-60.292969 134.667969-134.667969 134.667969s-134.667969-60.292969-134.667969-134.667969 60.292969-134.667969 134.667969-134.667969 134.667969 60.292969 134.667969 134.667969zm0 0" fill="url(#e)"/><path d="m434.265625 199.609375c0 67.308594-54.566406 121.875-121.875 121.875s-121.875-54.566406-121.875-121.875 54.566406-121.875 121.875-121.875 121.875 54.566406 121.875 121.875zm0 0" fill="url(#f)"/><path d="m208.632812 362.699219c-2.453124 8.574219 8.195313 14.722656 14.394532 8.3125 26.183594-27.0625 71.910156-14.808594 81.050781 21.71875 2.164063 8.652343 14.457031 8.652343 16.625 0 9.140625-36.527344 54.867187-48.78125 81.050781-21.71875 6.199219 6.410156 16.84375.261719 14.394532-8.3125-3.417969-11.96875-2.046876-23.640625 2.625-33.527344l-79.703126-79.707031c-10.316406-10.933594-24.933593-17.773438-41.152343-17.773438-11.488281 0-22.167969 3.4375-31.089844 9.320313-.144531-.136719-13.730469-13.730469-14.523437-14.5-19.628907-20.242188-47.105469-32.832031-77.53125-32.832031-19.765626 0-38.289063 5.316406-54.226563 14.585937 35.53125 9.878906 47.183594 54.832031 20.441406 80.707031-6.410156 6.199219-.261719 16.847656 8.3125 14.394532 36.203125-10.34375 69.675781 23.128906 59.332031 59.332031zm0 0" fill="url(#g)"/><path d="m354.492188 301.683594c-.542969 0-1.078126.007812-1.617188.019531 1.046875-4.308594 1.617188-8.804687 1.617188-13.433594 0-31.246093-25.328126-56.578125-56.574219-56.578125-12.292969 0-23.65625 3.933594-32.9375 10.589844-19.320313-29.277344-52.503907-48.601562-90.207031-48.601562-59.648438 0-108.003907 48.355468-108.003907 108.003906 0 .367187.011719.730468.015625 1.09375-37.894531 6.304687-66.785156 39.234375-66.785156 78.917968 0 44.1875 35.820312 80.007813 80.011719 80.007813h274.480469c44.191406 0 80.011718-35.820313 80.011718-80.007813s-35.824218-80.011718-80.011718-80.011718zm0 0" fill="url(#h)"/><path d="m434.503906 381.695312c0 44.1875-35.824218 80.007813-80.011718 80.007813s-80.011719-35.820313-80.011719-80.007813c0-44.191406 35.824219-80.011718 80.011719-80.011718s80.011718 35.820312 80.011718 80.011718zm0 0" fill="url(#j)"/><path d="m354.492188 288.269531c0 31.246094-25.328126 56.574219-56.574219 56.574219-31.246094 0-56.578125-25.328125-56.578125-56.574219 0-31.246093 25.332031-56.578125 56.578125-56.578125 31.246093 0 56.574219 25.332032 56.574219 56.578125zm0 0" fill="url(#k)"/><path d="m282.777344 301.683594c0 59.648437-48.355469 108.003906-108.003906 108.003906-59.648438 0-108.003907-48.355469-108.003907-108.003906 0-59.648438 48.355469-108.003906 108.003907-108.003906 59.648437 0 108.003906 48.355468 108.003906 108.003906zm0 0" fill="url(#l)"/><path d="m160.019531 381.695312c0 44.1875-35.820312 80.007813-80.007812 80.007813-44.191407 0-80.011719-35.820313-80.011719-80.007813 0-44.191406 35.820312-80.011718 80.011719-80.011718 44.1875 0 80.007812 35.820312 80.007812 80.011718zm0 0" fill="url(#m)"/><path d="m.742188 392.589844c5.316406 39.035156 38.777343 69.113281 79.269531 69.113281h274.480469c40.492187 0 73.953124-30.078125 79.269531-69.113281zm0 0" fill="url(#n)"/><path d="m227.503906 461.703125-4.171875-4.171875c-5.925781-6.402344-14.398437-10.414062-23.8125-10.414062-.109375 0-.21875.007812-.328125.011718-.0625-.0625-.128906-.128906-.191406-.191406l-21.414062-21.414062c-9.3125-9.753907-22.4375-15.835938-36.988282-15.835938-28.253906 0-51.15625 22.902344-51.15625 51.15625 0 .140625.011719.277344.011719.417969-.609375.125-1.210937.273437-1.804687.441406zm0 0" fill="url(#o)"/></svg>