<svg height="512pt" viewBox="0 0 512.00202 512" width="512pt" xmlns="http://www.w3.org/2000/svg" xmlns:xlink="http://www.w3.org/1999/xlink"><radialGradient id="a" cx="205.8051133922" cy="185.72658" gradientUnits="userSpaceOnUse" r="309.7956719388"><stop offset="0" stop-color="#ecf7ff"/><stop offset=".5353" stop-color="#eaf6ff"/><stop offset=".7282" stop-color="#e3f2ff"/><stop offset=".8651" stop-color="#d8ecff"/><stop offset=".9756" stop-color="#c7e3ff"/><stop offset="1" stop-color="#c2e0ff"/></radialGradient><linearGradient id="b" gradientUnits="userSpaceOnUse" x1="391.6788622794" x2="158.7693598482" y1="436.118781708" y2="116.8722884534"><stop offset=".0029" stop-color="#c2e0ff" stop-opacity="0"/><stop offset=".6417" stop-color="#a8bfee" stop-opacity=".639216"/><stop offset="1" stop-color="#9eb2e7"/></linearGradient><linearGradient id="c"><stop offset="0" stop-color="#00c6f6"/><stop offset=".5169" stop-color="#00c4f6"/><stop offset=".7031" stop-color="#02bdf7"/><stop offset=".8359" stop-color="#05b2f9"/><stop offset=".9424" stop-color="#0aa1fc"/><stop offset="1" stop-color="#0d94fe"/></linearGradient><radialGradient id="d" cx="211.8948" cy="489.5" gradientTransform="matrix(1.440427 0 0 1.003922 -100.243175 .00101)" gradientUnits="userSpaceOnUse" r="162.6394" xlink:href="#c"/><radialGradient id="e" cx="211.8948" cy="489.5001" gradientTransform="matrix(1.440427 0 0 1.003922 -100.243175 .00101)" gradientUnits="userSpaceOnUse" r="162.6399" xlink:href="#c"/><radialGradient id="f" cx="211.8948" cy="489.5" gradientTransform="matrix(1.440427 0 0 1.003922 -100.243175 .00101)" gradientUnits="userSpaceOnUse" r="162.6408" xlink:href="#c"/><radialGradient id="g" cx="211.8947" cy="489.5" gradientTransform="matrix(1.440427 0 0 1.003922 -100.243175 .00101)" gradientUnits="userSpaceOnUse" r="162.6412" xlink:href="#c"/><radialGradient id="h" cx="211.8947" cy="489.5002" gradientTransform="matrix(1.440427 0 0 1.003922 -100.243175 .00101)" gradientUnits="userSpaceOnUse" r="162.6407" xlink:href="#c"/><radialGradient id="i" cx="211.8947" cy="489.5" gradientTransform="matrix(1.440427 0 0 1.003922 -100.243175 .00101)" gradientUnits="userSpaceOnUse" r="162.6406" xlink:href="#c"/><radialGradient id="j" cx="211.8948" cy="489.5" gradientTransform="matrix(1.440427 0 0 1.003922 -100.243175 .00101)" gradientUnits="userSpaceOnUse" r="162.6388" xlink:href="#c"/><radialGradient id="k" cx="211.8948" cy="489.5005" gradientTransform="matrix(1.440427 0 0 1.003922 -100.243175 .00101)" gradientUnits="userSpaceOnUse" r="162.6413" xlink:href="#c"/><radialGradient id="l" cx="211.8948" cy="489.5" gradientTransform="matrix(1.440427 0 0 1.003922 -100.243175 .00101)" gradientUnits="userSpaceOnUse" r="162.6385" xlink:href="#c"/><radialGradient id="m" cx="211.8948" cy="489.5002" gradientTransform="matrix(1.440427 0 0 1.003922 -100.243175 .00101)" gradientUnits="userSpaceOnUse" r="162.6407" xlink:href="#c"/><radialGradient id="n" cx="211.8948" cy="489.5" gradientTransform="matrix(1.440427 0 0 1.003922 -100.243175 .00101)" gradientUnits="userSpaceOnUse" r="162.6387" xlink:href="#c"/><radialGradient id="o" cx="211.8948" cy="489.4996" gradientTransform="matrix(1.440427 0 0 1.003922 -100.243175 .00101)" gradientUnits="userSpaceOnUse" r="162.6395" xlink:href="#c"/><linearGradient id="p"><stop offset="0" stop-color="#cfced3"/><stop offset=".8111" stop-color="#a5abbd"/><stop offset="1" stop-color="#9aa2b7"/></linearGradient><radialGradient id="q" cx="169.3148577128" cy="-34.6218503672" gradientUnits="userSpaceOnUse" r="388.4870939868" xlink:href="#p"/><linearGradient id="r"><stop offset=".0018" stop-color="#9aa2b7" stop-opacity="0"/><stop offset=".3682" stop-color="#848a9c" stop-opacity=".368627"/><stop offset="1" stop-color="#606572"/></linearGradient><linearGradient id="s" gradientUnits="userSpaceOnUse" x1="416.6624651714" x2="472.6598288406" xlink:href="#r" y1="224.7407959796" y2="55.7992959366"/><linearGradient id="t" gradientUnits="userSpaceOnUse" x1="352.6017003904" x2="424.5974646594" xlink:href="#r" y1="109.164978475" y2="2.4200604512"/><linearGradient id="u" gradientUnits="userSpaceOnUse" x1="205.9476703162" x2="205.9476703162" xlink:href="#r" y1="74.291238" y2="-74.289218"/><linearGradient id="v" gradientUnits="userSpaceOnUse" x1="95.9462301088" x2="-17.7049685296" xlink:href="#r" y1="223.1224737156" y2="115.7128589356"/><linearGradient id="w" gradientUnits="userSpaceOnUse" x1="256.001113" x2="256.001113" xlink:href="#r" y1="247.4988041898" y2="378.7666252998"/><linearGradient id="x" gradientUnits="userSpaceOnUse" x1="420.26283064" x2="282.8698806236" xlink:href="#r" y1="361.718122288" y2="224.3252726638"/><radialGradient id="y" cx="312.647913811" cy="234.6268174824" gradientUnits="userSpaceOnUse" r="163.8708908054" xlink:href="#p"/><path d="m512 256c0 141.386719-114.613281 256-256 256-141.382812 0-256-114.613281-256-256 0-141.382812 114.617188-256 256-256 141.386719 0 256 114.617188 256 256zm0 0" fill="url(#a)"/><path d="m173.75 495.59375c-1.257812-3.59375-34.84375-37.179688-38.433594-38.4375-1.714844-4.886719-6.359375-8.402344-11.832031-8.402344-6.929687 0-12.550781 5.617188-12.550781 12.550782v5.632812c41.234375 28.414062 91.203125 45.0625 145.066406 45.0625 141.386719 0 256-114.613281 256-256 0-34.058594-6.667969-66.558594-18.742188-96.28125l-91.386718-91.390625c-12.230469-14.390625-30.453125-23.535156-50.816406-23.535156-13.570313 0-26.179688 4.066406-36.707032 11.027343-2.253906-2.414062-4.59375-4.746093-7.03125-6.980468-2.453125-2.667969-5.015625-5.238282-7.6875-7.6875-18.832031-20.476563-44.28125-34.769532-72.964844-39.46875-44.800781 5.113281-86.085937 21.785156-120.800781 46.964844-17.027343 21.644531-27.183593 48.945312-27.183593 78.621093 0 .429688.011718.859375.019531 1.289063-27.238281 4.53125-50.511719 20.746094-64.535157 43.3125-6.921874 19.90625-11.460937 40.925781-13.265624 62.726562 3.144531 22.699219 14.371093 42.8125 30.675781 57.347656l84.554687 84.554688c.875.980469 1.769532 1.945312 2.683594 2.886719-4.613281 1.855469-7.878906 6.363281-7.878906 11.640625v32.125c0 5.476562 3.515625 10.121094 8.40625 11.835937 1.257812 3.589844 4.09375 6.425781 7.683594 7.6875 1.257812 3.589844 48.328124 50.34375 50.171874 51.804688v2.964843c-1.035156-.785156-2.195312-1.414062-3.445312-1.851562zm0 0" fill="url(#b)"/><path d="m123.484375 512c-6.929687 0-12.550781-5.617188-12.550781-12.546875v-38.148437c0-6.933594 5.621094-12.550782 12.550781-12.550782s12.546875 5.617188 12.546875 12.550782v38.148437c0 6.929687-5.617188 12.546875-12.546875 12.546875zm0 0" fill="url(#d)"/><path d="m123.484375 435.703125c-6.929687 0-12.550781-5.617187-12.550781-12.550781v-32.125c0-6.929688 5.621094-12.546875 12.550781-12.546875s12.546875 5.617187 12.546875 12.546875v32.125c0 6.933594-5.617188 12.550781-12.546875 12.550781zm0 0" fill="url(#e)"/><path d="m123.484375 368.441406c-6.929687 0-12.550781-5.621094-12.550781-12.550781v-87.339844c0-6.929687 5.621094-12.550781 12.550781-12.550781s12.546875 5.621094 12.546875 12.550781v87.339844c0 6.929687-5.617188 12.550781-12.546875 12.550781zm0 0" fill="url(#f)"/><path d="m189.742188 512c-6.929688 0-12.550782-5.617188-12.550782-12.546875v-75.796875c0-6.929688 5.621094-12.550781 12.550782-12.550781 6.929687 0 12.550781 5.621093 12.550781 12.550781v75.796875c0 6.929687-5.621094 12.546875-12.550781 12.546875zm0 0" fill="url(#g)"/><path d="m189.742188 403.578125c-6.929688 0-12.550782-5.617187-12.550782-12.550781v-47.183594c0-6.929688 5.621094-12.546875 12.550782-12.546875 6.929687 0 12.550781 5.617187 12.550781 12.546875v47.183594c0 6.933594-5.621094 12.550781-12.550781 12.550781zm0 0" fill="url(#h)"/><path d="m189.742188 323.265625c-6.929688 0-12.550782-5.621094-12.550782-12.550781v-42.164063c0-6.933593 5.621094-12.550781 12.550782-12.550781 6.929687 0 12.550781 5.617188 12.550781 12.550781v42.164063c0 6.929687-5.621094 12.550781-12.550781 12.550781zm0 0" fill="url(#i)"/><path d="m256 512c-6.929688 0-12.546875-5.617188-12.546875-12.546875v-95.875c0-6.933594 5.617187-12.550781 12.546875-12.550781s12.550781 5.617187 12.550781 12.550781v95.875c0 6.929687-5.621093 12.546875-12.550781 12.546875zm0 0" fill="url(#j)"/><path d="m256 385.507812c-6.929688 0-12.546875-5.617187-12.546875-12.550781v-104.40625c0-6.929687 5.617187-12.550781 12.546875-12.550781s12.550781 5.621094 12.550781 12.550781v104.40625c0 6.929688-5.621093 12.550781-12.550781 12.550781zm0 0" fill="url(#k)"/><path d="m322.261719 512c-6.933594 0-12.550781-5.617188-12.550781-12.546875v-22.085937c0-6.929688 5.617187-12.550782 12.550781-12.550782 6.929687 0 12.546875 5.621094 12.546875 12.550782v22.085937c0 6.929687-5.617188 12.546875-12.546875 12.546875zm0 0" fill="url(#l)"/><path d="m322.261719 458.792969c-6.933594 0-12.550781-5.617188-12.550781-12.546875v-67.765625c0-6.933594 5.617187-12.550781 12.550781-12.550781 6.929687 0 12.546875 5.617187 12.546875 12.550781v67.765625c0 6.929687-5.617188 12.546875-12.546875 12.546875zm0 0" fill="url(#l)"/><path d="m322.261719 360.410156c-6.933594 0-12.550781-5.621094-12.550781-12.550781v-79.308594c0-6.929687 5.617187-12.550781 12.550781-12.550781 6.929687 0 12.546875 5.621094 12.546875 12.550781v79.308594c0 6.929687-5.617188 12.550781-12.546875 12.550781zm0 0" fill="url(#m)"/><path d="m388.519531 512c-6.929687 0-12.550781-5.617188-12.550781-12.546875v-92.363281c0-6.929688 5.621094-12.546875 12.550781-12.546875 6.929688 0 12.546875 5.617187 12.546875 12.546875v92.363281c0 6.929687-5.617187 12.546875-12.546875 12.546875zm0 0" fill="url(#n)"/><path d="m388.519531 387.515625c-6.929687 0-12.550781-5.617187-12.550781-12.550781v-106.414063c0-6.929687 5.621094-12.550781 12.550781-12.550781 6.929688 0 12.546875 5.621094 12.546875 12.550781v106.414063c0 6.929687-5.617187 12.550781-12.546875 12.550781zm0 0" fill="url(#o)"/><path d="m417.71875 127.269531c-.636719 0-1.273438.011719-1.90625.023438 1.238281-5.078125 1.90625-10.375 1.90625-15.832031 0-36.820313-29.84375-66.667969-66.664062-66.667969-14.484376 0-27.878907 4.632812-38.8125 12.480469-22.765626-34.503907-61.867188-57.273438-106.292969-57.273438-70.289063 0-127.269531 56.980469-127.269531 127.269531 0 .429688.015624.859375.019531 1.289063-44.65625 7.429687-78.699219 46.230468-78.699219 92.992187 0 52.070313 42.210938 94.28125 94.28125 94.28125h323.4375c52.070312 0 94.28125-42.210937 94.28125-94.28125 0-52.070312-42.210938-94.28125-94.28125-94.28125zm0 0" fill="url(#q)"/><path d="m512.003906 221.550781c0 52.070313-42.214844 94.28125-94.28125 94.28125-52.070312 0-94.285156-42.210937-94.285156-94.28125 0-52.070312 42.214844-94.28125 94.285156-94.28125 52.066406 0 94.28125 42.210938 94.28125 94.28125zm0 0" fill="url(#s)"/><path d="m417.722656 111.460938c0 36.820312-29.851562 66.667968-66.667968 66.667968-36.820313 0-66.667969-29.847656-66.667969-66.667968 0-36.820313 29.847656-66.667969 66.667969-66.667969 36.816406 0 66.667968 29.847656 66.667968 66.667969zm0 0" fill="url(#t)"/><path d="m333.214844 127.269531c0 70.285157-56.980469 127.265625-127.265625 127.265625-70.289063 0-127.269531-56.980468-127.269531-127.265625 0-70.289062 56.980468-127.269531 127.269531-127.269531 70.285156 0 127.265625 56.980469 127.265625 127.269531zm0 0" fill="url(#u)"/><path d="m188.5625 221.550781c0 52.070313-42.210938 94.28125-94.28125 94.28125s-94.28125-42.210937-94.28125-94.28125c0-52.070312 42.210938-94.28125 94.28125-94.28125s94.28125 42.210938 94.28125 94.28125zm0 0" fill="url(#v)"/><path d="m.875 234.390625c6.265625 45.992187 45.695312 81.441406 93.40625 81.441406h323.4375c47.714844 0 87.144531-35.449219 93.40625-81.441406zm0 0" fill="url(#w)"/><path d="m442.699219 301.777344-4.917969-4.917969c-6.980469-7.546875-16.964844-12.273437-28.054688-12.273437-.132812 0-.257812.011718-.386718.011718-.078125-.070312-.152344-.148437-.230469-.21875l-25.234375-25.234375c-10.972656-11.496093-26.4375-18.664062-43.582031-18.664062-33.292969 0-60.28125 26.988281-60.28125 60.28125 0 .164062.011719.328125.011719.492187-.71875.144532-1.425782.324219-2.121094.519532h164.796875zm0 0" fill="url(#x)"/><path d="m280.023438 301.253906c0-.164062-.011719-.328125-.011719-.492187 0-33.292969 26.988281-60.28125 60.28125-60.28125 28.261719 0 51.972656 19.453125 58.492187 45.703125 3.46875-1.035156 7.136719-1.597656 10.9375-1.597656 21.113282 0 38.230469 17.117187 38.230469 38.226562 0 21.113281-17.117187 38.230469-38.230469 38.230469-12.207031 0-115.023437 0-123.640625 0-16.679687 0-30.199219-13.519531-30.199219-30.199219 0-14.601562 10.367188-26.785156 24.140626-29.589844zm0 0" fill="url(#y)"/></svg>